<?xml version="1.0" encoding="utf-8"?>
<svg xmlns="http://www.w3.org/2000/svg" style="margin: auto; display: block; shape-rendering: auto;" width="280" height="208" preserveAspectRatio="xMidYMid">
<style type="text/css">
  text {
    text-anchor: middle; font-size: 80px; opacity: 0;
  }
</style>
<g style="transform-origin:140px 104px;transform:scale(1)">
<g transform="translate(140,104)">
  <g transform="translate(0,0)"><g class="path" style="transform: matrix(1, 0, 0, 1, 0, 0); transform-origin: -111.16px -8.4586px; animation: 1s linear -0.5775s infinite normal forwards running bounce-b6f05779-3b37-4b79-a01b-feebc425a1e1;"><path d="M5.76 0L5.76-59.92L12.16-60.64L12.16 0L5.76 0" fill="#d4ecc9" stroke="none" stroke-width="none" transform="translate(-120.1199951171875,21.861400985717772)" style="fill: rgb(212, 236, 201);"></path></g><g class="path" style="transform: matrix(1, 0, 0, 1, 0, 0); transform-origin: -79.24px 1.8614px; animation: 1s linear -0.495s infinite normal forwards running bounce-b6f05779-3b37-4b79-a01b-feebc425a1e1;"><path d="M28.24-19.92L28.24-19.92L28.24-19.92Q28.24-12.16 31.72-8.36L31.72-8.36L31.72-8.36Q35.20-4.56 41.12-4.56L41.12-4.56L41.12-4.56Q46.96-4.56 50.24-8.32L50.24-8.32L50.24-8.32Q53.52-12.08 53.52-19.60L53.52-19.60L53.52-19.60Q53.52-27.60 50.04-31.52L50.04-31.52L50.04-31.52Q46.56-35.44 40.56-35.44L40.56-35.44L40.56-35.44Q34.56-35.44 31.40-31.56L31.40-31.56L31.40-31.56Q28.24-27.68 28.24-19.92zM21.44-20L21.44-20L21.44-20Q21.44-26.08 23.36-30.12L23.36-30.12L23.36-30.12Q25.28-34.16 28.24-36.60L28.24-36.60L28.24-36.60Q31.20-39.04 34.60-40.04L34.60-40.04L34.60-40.04Q38-41.04 41.04-41.04L41.04-41.04L41.04-41.04Q43.92-41.04 47.32-40.12L47.32-40.12L47.32-40.12Q50.72-39.20 53.60-36.84L53.60-36.84L53.60-36.84Q56.48-34.48 58.40-30.52L58.40-30.52L58.40-30.52Q60.32-26.56 60.32-20.48L60.32-20.48L60.32-20.48Q60.32-14.16 58.36-10L58.36-10L58.36-10Q56.40-5.84 53.44-3.40L53.44-3.40L53.44-3.40Q50.48-0.96 47.04 0.04L47.04 0.04L47.04 0.04Q43.60 1.04 40.64 1.04L40.64 1.04L40.64 1.04Q37.60 1.04 34.24 0.08L34.24 0.08L34.24 0.08Q30.88-0.88 28.04-3.24L28.04-3.24L28.04-3.24Q25.20-5.60 23.32-9.68L23.32-9.68L23.32-9.68Q21.44-13.76 21.44-20" fill="#d4ecc9" stroke="none" stroke-width="none" transform="translate(-120.1199951171875,21.861400985717772)" style="fill: rgb(162, 216, 149);"></path></g><g class="path" style="transform: matrix(1, 0, 0, 1, 0, 0); transform-origin: -37.56px 1.8614px; animation: 1s linear -0.4125s infinite normal forwards running bounce-b6f05779-3b37-4b79-a01b-feebc425a1e1;"><path d="M92-9.36L92-18.48L92-18.48Q90.40-18.40 88.96-18.32L88.96-18.32L88.96-18.32Q87.52-18.24 86.12-18.12L86.12-18.12L86.12-18.12Q84.72-18 83.60-17.84L83.60-17.84L83.60-17.84Q77.84-17.12 75.44-15.32L75.44-15.32L75.44-15.32Q73.04-13.52 73.04-10.16L73.04-10.16L73.04-10.16Q73.04-7.36 74.76-5.96L74.76-5.96L74.76-5.96Q76.48-4.56 79.28-4.56L79.28-4.56L79.28-4.56Q83.12-4.56 86.12-5.88L86.12-5.88L86.12-5.88Q89.12-7.20 92-9.36L92-9.36zM92.72 0.64L91.92-3.76L91.92-3.76Q88.16-1.60 84.92-0.28L84.92-0.28L84.92-0.28Q81.68 1.04 77.92 1.04L77.92 1.04L77.92 1.04Q72.56 1.04 69.40-1.56L69.40-1.56L69.40-1.56Q66.24-4.16 66.24-10.16L66.24-10.16L66.24-10.16Q66.24-13.28 67.84-15.60L67.84-15.60L67.84-15.60Q69.44-17.92 72.04-19.48L72.04-19.48L72.04-19.48Q74.64-21.04 77.92-21.92L77.92-21.92L77.92-21.92Q81.20-22.80 84.64-23.04L84.64-23.04L84.64-23.04Q86.08-23.20 88.40-23.32L88.40-23.32L88.40-23.32Q90.72-23.44 92-23.52L92-23.52L92-23.52Q92-26.32 91.84-28.52L91.84-28.52L91.84-28.52Q91.68-30.72 90.88-32.28L90.88-32.28L90.88-32.28Q90.08-33.84 88.52-34.64L88.52-34.64L88.52-34.64Q86.96-35.44 84.08-35.44L84.08-35.44L84.08-35.44Q81.76-35.44 79.60-35.16L79.60-35.16L79.60-35.16Q77.44-34.88 75.76-34.56L75.76-34.56L75.76-34.56Q73.76-34.16 72.08-33.68L72.08-33.68L70.80-39.20L70.80-39.20Q72.80-39.68 75.12-40.08L75.12-40.08L75.12-40.08Q77.12-40.48 79.76-40.76L79.76-40.76L79.76-40.76Q82.40-41.04 85.44-41.04L85.44-41.04L85.44-41.04Q89.52-41.04 92.04-39.84L92.04-39.84L92.04-39.84Q94.56-38.64 95.96-36.60L95.96-36.60L95.96-36.60Q97.36-34.56 97.88-31.96L97.88-31.96L97.88-31.96Q98.40-29.36 98.40-26.48L98.40-26.48L98.40-7.28L98.40-7.28Q98.40-6.16 98.44-4.92L98.44-4.92L98.44-4.92Q98.48-3.68 98.60-2.48L98.60-2.48L98.60-2.48Q98.72-1.28 98.88 0L98.88 0L92.72 0.64" fill="#d4ecc9" stroke="none" stroke-width="none" transform="translate(-120.1199951171875,21.861400985717772)" style="fill: rgb(117, 179, 76);"></path></g><g class="path" style="transform: matrix(1, 0, 0, 1, 0, 0); transform-origin: 4.48px -7.9386px; animation: 1s linear -0.33s infinite normal forwards running bounce-b6f05779-3b37-4b79-a01b-feebc425a1e1;"><path d="M134.80-8.80L134.80-34.24L134.80-34.24Q131.92-35.04 130.32-35.24L130.32-35.24L130.32-35.24Q128.72-35.44 127.04-35.44L127.04-35.44L127.04-35.44Q123.68-35.44 121.28-34.24L121.28-34.24L121.28-34.24Q118.88-33.04 117.32-30.92L117.32-30.92L117.32-30.92Q115.76-28.80 115.04-26.04L115.04-26.04L115.04-26.04Q114.32-23.28 114.32-20.16L114.32-20.16L114.32-20.16Q114.32-17.36 114.92-14.56L114.92-14.56L114.92-14.56Q115.52-11.76 116.80-9.52L116.80-9.52L116.80-9.52Q118.08-7.28 119.92-5.92L119.92-5.92L119.92-5.92Q121.76-4.56 124.32-4.56L124.32-4.56L124.32-4.56Q126.08-4.56 127.96-5.20L127.96-5.20L127.96-5.20Q129.84-5.84 131.44-6.68L131.44-6.68L131.44-6.68Q133.04-7.52 134.80-8.80L134.80-8.80zM135.52 0.64L134.88-3.20L134.88-3.20Q133.04-1.92 131.32-1.08L131.32-1.08L131.32-1.08Q129.60-0.24 127.56 0.40L127.56 0.40L127.56 0.40Q125.52 1.04 123.60 1.04L123.60 1.04L123.60 1.04Q116.08 1.04 111.80-4.28L111.80-4.28L111.80-4.28Q107.52-9.60 107.52-19.84L107.52-19.84L107.52-19.84Q107.52-25.92 109.48-30L109.48-30L109.48-30Q111.44-34.08 114.40-36.52L114.40-36.52L114.40-36.52Q117.36-38.96 120.76-40L120.76-40L120.76-40Q124.16-41.04 127.04-41.04L127.04-41.04L127.04-41.04Q128.48-41.04 130.08-40.84L130.08-40.84L130.08-40.84Q131.68-40.64 134.80-39.84L134.80-39.84L134.80-59.92L141.20-60.64L141.20-7.28L141.20-7.28Q141.20-6.16 141.24-4.92L141.24-4.92L141.24-4.92Q141.28-3.68 141.40-2.48L141.40-2.48L141.40-2.48Q141.52-1.28 141.68 0L141.68 0L135.52 0.64" fill="#d4ecc9" stroke="none" stroke-width="none" transform="translate(-120.1199951171875,21.861400985717772)" style="fill: rgb(195, 213, 130);"></path></g><g class="path" style="transform: matrix(1, 0, 0, 1, 0, 0); transform-origin: 35.88px 1.3414px; animation: 1s linear -0.2475s infinite normal forwards running bounce-b6f05779-3b37-4b79-a01b-feebc425a1e1;"><path d="M152.80 0L152.80-40.32L159.20-41.04L159.20 0L152.80 0" fill="#d4ecc9" stroke="none" stroke-width="none" transform="translate(-120.1199951171875,21.861400985717772)" style="fill: rgb(229, 238, 191);"></path></g><g class="path" style="transform: matrix(1, 0, 0, 1, 0, 0); transform-origin: 36.08px -29.8986px; animation: 1s linear -0.165s infinite normal forwards running bounce-b6f05779-3b37-4b79-a01b-feebc425a1e1;"><path d="M151.76-51.76L151.76-51.76L151.76-51.76Q151.76-53.60 153-54.84L153-54.84L153-54.84Q154.24-56.08 156.08-56.08L156.08-56.08L156.08-56.08Q158-56.08 159.32-54.84L159.32-54.84L159.32-54.84Q160.64-53.60 160.64-51.76L160.64-51.76L160.64-51.76Q160.64-49.92 159.32-48.68L159.32-48.68L159.32-48.68Q158-47.44 156.08-47.44L156.08-47.44L156.08-47.44Q154.24-47.44 153-48.68L153-48.68L153-48.68Q151.76-49.92 151.76-51.76" fill="#d4ecc9" stroke="none" stroke-width="none" transform="translate(-120.1199951171875,21.861400985717772)" style="fill: rgb(212, 236, 201);"></path></g><g class="path" style="transform: matrix(1, 0, 0, 1, 0, 0); transform-origin: 66.68px 1.3414px; animation: 1s linear -0.0825s infinite normal forwards running bounce-b6f05779-3b37-4b79-a01b-feebc425a1e1;"><path d="M170.80 0L170.80-32.24L170.80-32.24Q170.88-33.92 170.40-39.52L170.40-39.52L176.32-40.32L177.20-35.20L177.20-35.20Q179.60-36.80 181.96-38L181.96-38L181.96-38Q184.32-39.20 186.80-40.12L186.80-40.12L186.80-40.12Q189.28-41.04 191.60-41.04L191.60-41.04L191.60-41.04Q194.88-41.04 197.08-40.28L197.08-40.28L197.08-40.28Q199.28-39.52 200.64-37.76L200.64-37.76L200.64-37.76Q202.00-36 202.60-33.12L202.60-33.12L202.60-33.12Q203.20-30.24 203.20-25.92L203.20-25.92L203.20 0L196.80 0L196.80-25.20L196.80-25.20Q196.80-27.60 196.72-29.48L196.72-29.48L196.72-29.48Q196.64-31.36 196.04-32.68L196.04-32.68L196.04-32.68Q195.44-34 194.20-34.72L194.20-34.72L194.20-34.72Q192.96-35.44 190.72-35.44L190.72-35.44L190.72-35.44Q188.64-35.44 186.32-34.52L186.32-34.52L186.32-34.52Q184.00-33.60 181.76-32.40L181.76-32.40L181.76-32.40Q179.52-31.20 177.20-29.60L177.20-29.60L177.20 0L170.80 0" fill="#d4ecc9" stroke="none" stroke-width="none" transform="translate(-120.1199951171875,21.861400985717772)" style="fill: rgb(162, 216, 149);"></path></g><g class="path" style="transform: matrix(1, 0, 0, 1, 0, 0); transform-origin: 109.04px 11.0614px; animation: 1s linear 0s infinite normal forwards running bounce-b6f05779-3b37-4b79-a01b-feebc425a1e1;"><path d="M246.00-39.28L246.00 3.84L246.00 3.84Q246.00 6.80 245.36 9.60L245.36 9.60L245.36 9.60Q244.72 12.40 242.92 14.60L242.92 14.60L242.92 14.60Q241.12 16.80 237.88 18.12L237.88 18.12L237.88 18.12Q234.64 19.44 229.36 19.44L229.36 19.44L229.36 19.44Q226.00 19.36 223.52 19.04L223.52 19.04L223.52 19.04Q221.04 18.72 218.80 18.12L218.80 18.12L218.80 18.12Q216.56 17.52 214.72 16.72L214.72 16.72L216.40 11.12L216.40 11.12Q219.52 12.48 222.76 13.20L222.76 13.20L222.76 13.20Q226.00 13.92 228.56 13.92L228.56 13.92L228.56 13.92Q231.36 13.92 233.44 13.36L233.44 13.36L233.44 13.36Q235.52 12.80 236.92 11.48L236.92 11.48L236.92 11.48Q238.32 10.16 239.00 8L239.00 8L239.00 8Q239.68 5.84 239.68 2.64L239.68 2.64L239.68-3.20L239.68-3.20Q238.00-2.08 236.20-1.16L236.20-1.16L236.20-1.16Q234.40-0.24 232.36 0.40L232.36 0.40L232.36 0.40Q230.32 1.04 228.40 1.04L228.40 1.04L228.40 1.04Q220.96 1.04 216.64-4.20L216.64-4.20L216.64-4.20Q212.32-9.44 212.32-19.84L212.32-19.84L212.32-19.84Q212.32-25.84 214.20-29.88L214.20-29.88L214.20-29.88Q216.08-33.92 218.96-36.40L218.96-36.40L218.96-36.40Q221.84-38.88 225.28-39.96L225.28-39.96L225.28-39.96Q228.72-41.04 231.84-41.04L231.84-41.04L231.84-41.04Q235.92-41.04 239.32-40.36L239.32-40.36L239.32-40.36Q242.72-39.68 246.00-39.28L246.00-39.28zM229.12-4.56L229.12-4.56L229.12-4.56Q230.88-4.56 232.72-5.20L232.72-5.20L232.72-5.20Q234.56-5.84 236.28-6.72L236.28-6.72L236.28-6.72Q238.00-7.60 239.68-8.80L239.68-8.80L239.68-34.32L239.68-34.32Q238.72-34.56 237.44-34.88L237.44-34.88L237.44-34.88Q236.32-35.04 234.88-35.24L234.88-35.24L234.88-35.24Q233.44-35.44 231.84-35.44L231.84-35.44L231.84-35.44Q228.48-35.44 226.08-34.24L226.08-34.24L226.08-34.24Q223.68-33.04 222.12-30.96L222.12-30.96L222.12-30.96Q220.56-28.88 219.84-26.08L219.84-26.08L219.84-26.08Q219.12-23.28 219.12-20.16L219.12-20.16L219.12-20.16Q219.12-17.36 219.72-14.56L219.72-14.56L219.72-14.56Q220.32-11.76 221.60-9.52L221.60-9.52L221.60-9.52Q222.88-7.28 224.72-5.92L224.72-5.92L224.72-5.92Q226.56-4.56 229.12-4.56" fill="#d4ecc9" stroke="none" stroke-width="none" transform="translate(-120.1199951171875,21.861400985717772)" style="fill: rgb(117, 179, 76);"></path></g></g>
</g>
</g>
<style id="bounce-b6f05779-3b37-4b79-a01b-feebc425a1e1" data-anikit="">@keyframes bounce-b6f05779-3b37-4b79-a01b-feebc425a1e1
{
  0% {
    animation-timing-function: cubic-bezier(0.1361,0.2514,0.2175,0.8786);
    transform: translate(0,0px) scaleY(1);
  }
  37% {
    animation-timing-function: cubic-bezier(0.7674,0.1844,0.8382,0.7157);
    transform: translate(0,12.987px) scaleY(1);
  }
  72% {
    animation-timing-function: cubic-bezier(0.0757,0.1455,-0.0105,0.9238);
    transform: translate(0,0px) scaleY(1);
  }
  87% {
    animation-timing-function: cubic-bezier(0.9178,0.2825,0.8184,0.692);
    transform: translate(0,53.332px) scaleY(0.20400000000000001);
  }
  100% {
    transform: translate(0,0px) scaleY(1);
  }
}</style></svg>