<svg id="Capa_1" enable-background="new 0 0 512 512" height="512" viewBox="0 0 512 512" width="512" xmlns="http://www.w3.org/2000/svg"><g><g><path d="m104.727 501.563s-36.069-22.953-36.069-55.743 28.691-46.726 28.691-46.726-50.503-23.755-34.74-94.354 66.457-75.384 66.457-75.384-6.197-97.715 85.179-45.273c0 0-5.827-131.284 81.459-76.73l-8.089 232.271z" fill="#ccf3e2"/><path d="m98.686 399.67s-43.439-21.933-36.852-66.397c4.941 20.585 45.506 95.688 127.729-10.027 3.055-3.928 33.34 71.777 38.192 71.141l-121.691 107.752s-36.069-22.953-36.069-55.743 28.691-46.726 28.691-46.726z" fill="#b1b6e1"/><path d="m104.697 501.828c11.974-43.585 33.516-89.022 67.692-116.682-6.423-18.198-9.895-37.828-9.895-67.556l-1.091-59.148c0-21.167 6.428-40.832 17.438-57.151-5.052-5.141-9.325-12.074-12.341-20.838-9.185-26.692 7.619-63.904 15.93-66.764s44.456 16.133 53.641 42.825c.363 1.055.684 2.096.987 3.131 8.5-2.288 17.436-3.516 26.658-3.516h63.141c4.715 0 9.245.359 13.598 1.02.646-5.802 2.428-12 5.526-18.451 12.092-25.181 49.798-39.7 57.639-35.935 7.841 3.766 20.086 42.27 7.994 67.451-4.001 8.332-9.042 14.689-14.65 19.168 11.12 12.607 18.488 26.408 22.26 36.78 9.102 25.032 13.654 59.166 13.654 59.166 24.658 23.212 32.502 54.974 22.636 82.599-8.141 22.794-24.208 39.507-45.589 50.473-18.793 9.639-49.289 13.094-65.99 11.642 9.281 20.417 14.182 49.808 17.475 71.787h-256.713z" fill="#fff"/><path d="m390.836 161.913c4.127 4.492 8.046 9.168 11.923 13.882 1.551.801 3.094 1.614 4.633 2.438 3.51-5.516 6.153-12.324 7.564-20.43 4.792-27.52-5.745-58.796-14.314-60.288-3.822-.666-12.373 3.793-21.099 11.369.627-.057 1.184-.039 1.653.066 7.435 1.655 14.2 28.853 9.64 52.963z" fill="#e1bdfc"/><path d="m432.008 276.738s-1.337-47.779-16.305-69.829c-8.5 3.499-17.386 6.143-26.312 7.782 10.014 23.257 10.741 67.783 10.741 67.783 24.078 23.325 23.222 44.141 20.316 57.562-4.633 21.394-13.92 36.87-33.847 49.166-14.141 8.726-36.721 9.126-49.674 14.039-10.04 3.808-18.717 9.63-17.971 20.651.665 9.823 1.041 17.347.289 31.268-.698 12.908-11.022 23.853-23.936 23.25l-179.073-.443c-6.69 11.367-6.153 10.485-11.12 23.862h256.715c.045-21.461-3.32-39.957-12.957-71.95l2.528-1.218c16.466-3.142 60.791-11.207 76.256-25.591 17.595-16.365 26.184-33.228 30.254-57.088 3.587-21.033 2.491-41.348-25.904-69.244z" fill="#e1bdfc"/><path d="m267.393 173.147c.033-.455.087-.912.187-1.373.639-17.749 6.032-33.117 18.367-45.007.307-19.862 5.578-35.321 18.157-44.492 6.353-21.958 16.203-45.384 28.501-69.838 1.538-3.769 7.162-2.553 7.004 1.516 1.512 22.013 1.609 42.465-2.267 58.528 5.316 13.071 5.402 26.246-1.534 39.593 4.298 13.22 4.487 26.954-1.603 41.385 6.435 13.892 1.625 26.583-.112 32.595-7.136 20.175-68.182 7.275-66.7-12.907z" fill="#f6e06e"/><path d="m267.393 173.147c.033-.455.087-.912.187-1.373.454-12.605 3.323-24 9.356-33.81-.594 3.251-.955 6.615-1.084 10.091-.088.394-.136.784-.165 1.172-1.305 17.22 52.432 28.227 58.715 11.012.295-.99.691-2.194 1.097-3.576 4.407 12.613.198 23.845-1.405 29.391-7.137 20.175-68.183 7.275-66.701-12.907z" fill="#dda86a"/><path d="m421.461 192.216c-14.187-8.192-24.71-21.268-30.504-36.591-1.646-4.352-3.966-8.552-6.99-12.456-14.443-18.65-40.79-23.937-61.298-12.283-24.46 13.899-31.572 45.33-16.198 68.272 13.237 19.752 34.566 27.99 54.299 27.362 11.496-.366 38.005-7.438 58.133-13.279 9.744-2.828 11.344-15.952 2.558-21.025z" fill="#ccf3e2"/><path d="m306.472 199.157c13.237 19.752 34.566 27.99 54.299 27.362 11.496-.366 38.005-7.438 58.133-13.279 9.743-2.827 11.344-15.951 2.557-21.024-14.187-8.192-24.709-21.268-30.504-36.591-1.646-4.353-3.966-8.552-6.99-12.456-14.443-18.649-40.79-23.936-61.298-12.283-24.46 13.899-31.571 45.329-16.197 68.271zm35.808-69.226c16.506-5.538 34.7 1.741 42.333 16.923 1.598 3.179 2.645 6.473 3.184 9.786 1.897 11.662 7.534 22.36 16.537 30.077 5.575 4.779 2.472 13.89-4.967 14.596-15.368 1.459-35.516 2.939-43.852 1.662-14.309-2.192-28.45-10.896-35.05-26.701-7.666-18.357 2.129-39.738 21.815-46.343z" fill="#b1b6e1"/><path d="m298.772 432.89c12.19-7.936 21.333-31.556 15.339-40.195-5.994-8.64-30.403-5.868-42.355 2.423-11.951 8.291 20.883 41.764 27.016 37.772z" fill="#a1e8c3"/><path d="m82.082 33.688 8.354 23.49c.358 1.006 1.066 1.803 1.959 2.205l20.87 9.403c2.949 1.328 2.949 6.026 0 7.354l-20.87 9.403c-.893.403-1.602 1.2-1.959 2.205l-8.354 23.49c-1.18 3.319-5.354 3.319-6.534 0l-8.354-23.49c-.358-1.006-1.066-1.803-1.959-2.205l-20.87-9.403c-2.948-1.328-2.948-6.026 0-7.354l20.87-9.403c.894-.403 1.602-1.2 1.959-2.205l8.354-23.49c1.18-3.319 5.354-3.319 6.534 0z" fill="#fbf2aa"/><path d="m215.089 3.884 6.197 17.425c.265.746.791 1.337 1.453 1.636l15.481 6.975c2.187.985 2.187 4.47 0 5.455l-15.481 6.975c-.663.299-1.188.89-1.453 1.636l-6.197 17.425c-.875 2.462-3.971 2.462-4.847 0l-6.197-17.425c-.265-.746-.791-1.337-1.453-1.636l-15.481-6.975c-2.187-.985-2.187-4.47 0-5.455l15.481-6.975c.663-.299 1.188-.89 1.453-1.636l6.197-17.425c.875-2.462 3.971-2.462 4.847 0z" fill="#fbf2aa"/><ellipse cx="61.638" cy="186.984" fill="#f7e16e" rx="12.395" ry="12.395" transform="matrix(.123 -.993 .993 .123 -131.491 225.242)"/></g><g><g fill="#3c122c"><path d="m442.453 280.457c-1.442-9.571-5.935-36.503-13.669-57.772-.761-2.092-1.639-4.208-2.575-6.331 3.832-2.803 6.377-7.071 6.981-12.056.863-7.123-2.462-13.778-8.677-17.366l-3.051 5.284 3.051-5.284c-2.663-1.538-5.199-3.298-7.606-5.234 1.383-2.236 2.681-4.592 3.877-7.083 8.391-17.475 6.296-37.616 4.299-48.067-1.222-6.395-6.062-27.673-17.059-32.954-10.999-5.281-30.63 4.246-36.384 7.292-6.188 3.275-15.662 9.164-23.815 17.777-1.34-.043-2.682-.032-4.024.025-.019-.097-.031-.194-.05-.291.402-.505.776-1.038 1.085-1.632 7.506-14.443 8.543-29.58 3.097-45.04 3.013-14.496 3.583-32.632 1.852-58.09-.078-6.411-4.558-11.948-10.887-13.317-6.395-1.384-12.825 1.883-15.5 7.799-12.717 25.314-21.936 47.671-28.134 68.22-4.65 4.047-7.962 8.758-10.313 13.797-18.661-8.118-34.809-8.317-48.146-.533-9.11 5.317-16.381 14.119-21.764 26.288-.113-.079-.237-.168-.348-.245-5.409-3.724-23.963-15.563-35.569-11.57-11.609 3.994-18.946 24.744-20.918 31.008-1.877 5.961-4.167 15.211-4.504 25.546-3.296 1.052-6.415 2.479-9.344 4.302-20.945 13.031-24.871 41.676-25.46 56.246-5.918 1.739-14.094 4.988-22.892 11.008-14.87 10.176-34.457 30.641-43.322 70.343-8.966 40.156 2.196 66.658 13.138 81.819 4.545 6.298 9.443 11.211 13.813 14.903-9.7 8.692-21.146 23.777-21.146 46.573 0 33.651 30.756 57.364 38.871 63.035 1.229 1.286 2.803 2.273 4.644 2.779.902.248 1.808.366 2.7.366 4.465 0 8.561-2.964 9.8-7.478 13.542-49.293 36.372-88.88 64.284-111.471 3.346-2.708 4.625-7.23 3.193-11.29-6.53-18.5-9.315-37.691-9.315-64.172 0-.063 0-.125-.002-.188l-1.089-59.052c.018-18.412 5.445-36.174 15.699-51.371 2.705-4.008 2.213-9.367-1.177-12.816-4.208-4.283-7.566-10.008-9.978-17.019-6.707-19.491 3.958-46.691 9.772-53.405 8.714 1.714 33.859 16.593 40.565 36.08.274.798.542 1.649.843 2.678 1.552 5.309 7.06 8.405 12.406 6.968 7.199-1.938 14.633-2.983 22.124-3.135-.142 1.564-.26 3.142-.326 4.754-.073.426-.126.875-.167 1.345-.004.033-.006.066-.009.099-.005.057-.012.11-.016.167 0 .003-.001.004-.001.006-.004.058-.002.114-.006.172-.004.089-.009.177-.009.267-.704 14.775 18.017 24.016 34.411 27.454 1.628.341 3.308.619 5.004.865.232.365.453.736.694 1.097 12.71 18.965 33.973 30.102 57.236 30.101.772 0 1.55-.012 2.326-.037 8.155-.26 23.577-3.499 45.932-9.641 1.296 2.805 2.206 5.103 2.771 6.658 8.607 23.671 13.086 56.705 13.131 57.036.31 2.317 1.408 4.457 3.11 6.059 21.079 19.843 28.754 47.345 20.03 71.774-6.961 19.491-20.639 34.579-40.653 44.845-17.203 8.824-46.173 11.805-60.467 10.559-3.6-.311-7.098 1.309-9.185 4.261-2.087 2.951-2.451 6.789-.954 10.08 8.314 18.29 13.095 45.186 16.676 69.085.832 5.555 6.013 9.384 11.564 8.551 5.555-.832 9.383-6.01 8.551-11.564-2.962-19.77-6.746-41.578-12.723-59.984 17.264-.816 39.67-4.604 55.822-12.889 24.768-12.704 41.767-31.579 50.525-56.102 11.105-31.106 2.419-65.618-22.643-90.892zm-291.218-21.828 1.089 59.051c.006 25.785 2.505 45.443 8.262 64.153-31.649 28.213-50.394 68.689-61.261 102.434-9.065-8.419-20.497-22.242-20.497-38.447 0-25.775 22.079-37.134 22.965-37.578 3.523-1.711 5.78-5.281 5.755-9.198-.024-3.917-2.267-7.458-5.812-9.125-1.758-.855-42.893-21.644-29.202-82.963 13.829-61.936 55.788-67.286 57.487-67.475 5.456-.515 9.522-5.28 9.195-10.751-.588-9.841 1.125-37.388 15.917-46.553.345-.214.703-.401 1.059-.592.216.727.443 1.453.692 2.177 2.393 6.956 5.548 13.12 9.415 18.412-9.878 17.059-15.065 36.356-15.065 56.268-.001.062 0 .124.001.187zm247.779-146.274c4.891 7.28 12.112 34.832 3.586 53.111-2.333-3.75-4.334-7.764-5.935-11.999-1.896-5.016-4.546-9.738-7.873-14.034-4.79-6.186-10.747-11.056-17.35-14.532 10.413-7.579 22.225-12.097 27.572-12.546zm-68.614-71.584c-.081 10.177-.832 20.573-2.943 29.323-.01.044-.015.087-.025.131-.046.2-.08.402-.114.604-.008.048-.02.096-.027.143l-10.072 3.406c3.527-10.579 7.897-21.725 13.181-33.607zm-20.303 49.721c.009-.007.017-.014.026-.021.254-.187.499-.386.736-.596.061-.054.118-.112.177-.167.169-.157.333-.319.491-.487.017-.019.037-.036.055-.054l18.47-6.246c2.005 8.471.932 16.382-3.267 24.463-.251.483-.447.98-.614 1.48l-26.292 8.798c.324-14.146 3.403-22.201 10.218-27.17zm-46.38 55.466c-6.797 0-13.568.611-20.224 1.822-3.189-6.839-7.584-12.802-12.185-17.804 3.457-10.04 8.492-18.583 15.76-22.817 8.062-4.698 19.094-3.647 32.852 3.044-.408 4.453-.469 8.843-.39 12.975.009.439.054.869.117 1.293-5.838 6.169-10.277 13.354-13.319 21.488h-2.611zm23.127-11.254c.459-.043.918-.119 1.373-.272l41.821-13.994c.22.152.457.284.69.421-3.799 1.132-7.515 2.699-11.074 4.721-12.883 7.321-21.933 19.137-25.623 33.355l-19.775 5.827c1.49-12.075 5.642-21.992 12.588-30.058zm-11.928 42.587 17.385-5.123c-.03 5.279.703 10.534 2.187 15.588-9.669-2.582-16.695-6.735-19.572-10.465zm85.661 43.129c-19.929.639-38.262-8.584-49.035-24.66-6.437-9.604-8.604-21.569-5.946-32.828 2.695-11.413 9.829-20.91 20.089-26.74 6.392-3.632 13.434-5.377 20.422-5.377 12.56 0 24.943 5.638 33.037 16.09 2.585 3.337 4.639 6.997 6.106 10.878 6.417 16.97 18.194 31.075 33.161 39.717 2.87 1.658 2.764 4.498 2.664 5.329-.101.833-.678 3.624-3.871 4.551-28.054 8.14-48.164 12.771-56.627 13.04z"/><path d="m271.623 386.386c-18.103 9.486-39.404 26.014-64.069 45.152l-6.948 5.387c-2.665 2.063-3.152 5.896-1.089 8.56 2.063 2.665 5.896 3.153 8.561 1.089l6.958-5.394c17.644-13.69 33.525-26.004 47.483-35.162l24.617 33.092c-12.729 11.404-28.824 23.844-45.351 36.613l-6.967 5.387c-2.665 2.063-3.152 5.896-1.089 8.561 1.203 1.553 3.006 2.367 4.829 2.367 1.305 0 2.62-.417 3.731-1.278l6.957-5.379c41.158-31.801 73.666-56.919 76.114-79.449.734-6.754-1.202-12.939-5.753-18.381-15.298-18.293-39.9-5.402-47.984-1.165zm41.605 18.227c-.795 7.317-7.267 16.19-17.151 26.071l-23.131-31.094c1.47-.84 2.924-1.65 4.342-2.394 21.249-11.133 28.774-6.819 32.958-1.817 2.406 2.878 3.354 5.811 2.982 9.234z"/><path d="m361.01 257.079c-2.294 0-4.492-1.3-5.53-3.515-1.43-3.051-.115-6.684 2.937-8.114l15.605-7.311c3.052-1.43 6.685-.114 8.114 2.937 1.43 3.051.115 6.684-2.937 8.114l-15.605 7.311c-.836.393-1.717.578-2.584.578z"/><path d="m293.182 254.859c-.72 0-1.452-.128-2.165-.399l-16.111-6.118c-3.151-1.197-4.735-4.72-3.539-7.871 1.197-3.151 4.721-4.734 7.871-3.539l16.111 6.118c3.151 1.197 4.735 4.721 3.539 7.871-.926 2.438-3.245 3.938-5.706 3.938z"/><path d="m387.275 321.801c-5.313-10.509-18.187-14.734-28.695-9.424-19.761 9.991-39.401 9.948-60.047-.133-10.582-5.164-23.396-.758-28.561 9.823-2.503 5.126-2.859 10.92-1.004 16.315 1.855 5.394 5.7 9.744 10.826 12.246 16.338 7.977 32.908 12.021 49.249 12.021 16.435 0 32.856-4.089 48.807-12.153 10.51-5.313 14.738-18.185 9.425-28.695zm-63.754 28.468c-5.146-.325-10.323-1.111-15.512-2.338v-18.92c5.206 1.526 10.372 2.49 15.512 2.892zm12.204-18.464c4.969-.477 9.923-1.489 14.875-3.03v18.995c-4.948 1.227-9.911 2.026-14.875 2.408zm-55.216 2.609c-.795-2.312-.643-4.796.43-6.992 1.585-3.247 4.85-5.137 8.24-5.137 1.346 0 2.712.298 4 .927.877.428 1.752.836 2.626 1.233v19.787c-3.555-1.317-7.109-2.837-10.657-4.57-2.196-1.072-3.844-2.937-4.639-5.248zm91.836 5.192c-3.165 1.6-6.347 3.014-9.541 4.262v-19.971c.427-.208.854-.412 1.282-.628 4.504-2.276 10.021-.465 12.299 4.039 2.276 4.503.464 10.02-4.04 12.298z"/><path d="m377.991 262.646c-13.221 0-23.977 10.756-23.977 23.977 0 2.895 1.245 8.211 9.58 11.279 3.9 1.436 9.013 2.227 14.397 2.227 14.79 0 23.977-5.175 23.977-13.506 0-13.221-10.756-23.977-23.977-23.977zm0 25.279c-.498 0-.978-.011-1.45-.027v-12.948c.476-.059.958-.1 1.45-.1 6.195 0 11.288 4.81 11.74 10.892-1.437.9-5.597 2.183-11.74 2.183z"/><path d="m270.148 262.646c-13.221 0-23.977 10.756-23.977 23.977 0 2.895 1.244 8.211 9.58 11.279 3.9 1.436 9.013 2.227 14.397 2.227 14.79 0 23.977-5.175 23.977-13.506 0-13.221-10.756-23.977-23.977-23.977zm0 25.279c-.489 0-.96-.011-1.424-.026v-12.953c.468-.057.941-.096 1.424-.096 6.195 0 11.288 4.81 11.74 10.892-1.437.9-5.597 2.183-11.74 2.183z"/></g><path d="m369.029 177.843c-3.751 0-7.358-2.083-9.129-5.675-5.139-10.422-13.099-13.075-13.436-13.183 0 0-10.653-4.798-7.295-13.628s12.942-5.91 12.942-5.91c1.701.475 16.886 5.179 26.031 23.727 2.484 5.037.414 11.135-4.624 13.619-1.445.712-2.979 1.05-4.489 1.05z" fill="#fff"/></g></g></svg>