<svg id="Capa_1" enable-background="new 0 0 512 512" height="512" viewBox="0 0 512 512" width="512" xmlns="http://www.w3.org/2000/svg"><g><g><path d="m440.925 250.832c-18.917 32.854-48.839 40.494-72.486 26.879s-32.063-43.329-13.146-76.183c18.916-32.854 71.418-48.683 81.649-42.793 10.23 5.89 22.899 59.242 3.983 92.097z" fill="#ccf3e2"/><path d="m437.901 154.312c-1.122-.646-2.81-1-4.918-1.086 6.542 11.055 14.646 31.357 2.602 52.276-13.902 24.146-35.894 29.76-53.273 19.754-15.723-9.053-22.281-27.791-13.094-49.16-1.382 1.841-2.658 3.746-3.795 5.722-17.423 30.26-12.396 69.536 9.384 82.076s49.34 5.504 66.763-24.757c17.423-30.26 5.754-79.4-3.669-84.825z" fill="#b1b6e1"/><path d="m72.079 247.668c17.005 33.441 46.183 42.529 70.252 30.289 24.069-12.239 33.913-41.171 16.909-74.611-17.005-33.441-68.075-51.783-78.488-46.487-10.414 5.295-25.677 57.368-8.673 90.809z" fill="#ccf3e2"/><path d="m150.286 196.232c-15.374-30.233-61.546-46.816-70.96-42.029-1.055.536-2.165 1.607-3.282 3.122 12.454.303 31.191 1.841 42.109 23.311 12.474 24.532 5.253 45.756-12.404 54.734-16.119 8.197-35.357 3.346-48.078-16.224.728 1.956 12.877 15.312 13.815 17.156 15.374 30.233 41.753 38.449 63.513 27.385 21.76-11.065 30.66-37.222 15.287-67.455z" fill="#b1b6e1"/><path d="m457.75 347.816c0-62.79-50.902-113.692-113.692-113.692h-88.556-.3-88.556c-62.79 0-113.692 50.901-113.692 113.692h.002c0 .065-.002.13-.002.195 0 62.898 40.99 104.016 88.933 104.016s66.41-20.444 83.522-50.236c6.627-11.537 18.289-17.258 29.942-17.21 11.652-.049 23.315 5.673 29.942 17.21 17.113 29.792 35.58 50.236 83.523 50.236 47.944 0 88.933-41.118 88.933-104.016 0-.065-.002-.13-.002-.195zm-293.805 32.983c-29.327 0-46.063-13.315-46.063-36.096s16.736-36.521 46.063-36.521 46.433 14.136 46.433 36.917-17.105 35.7-46.433 35.7zm180.397 0c-29.327 0-46.337-13.315-46.337-36.096s17.01-35.304 46.337-35.304 45.753 12.524 45.753 35.304c0 22.781-16.426 36.096-45.753 36.096z" fill="#faf1a9"/><path d="m457.75 347.816c0-56.336-40.978-103.094-94.753-112.113 35.952 15.67 61.088 51.517 61.088 93.24h-.002c.001.058.002.116.002.174 0 56.247-36.656 93.018-79.53 93.018s-59.388-18.283-74.691-44.924c-5.927-10.317-16.355-15.434-26.776-15.39-10.421-.043-20.85 5.073-26.776 15.39-15.303 26.642-31.818 44.924-74.691 44.924-42.875 0-79.53-36.771-79.53-93.018 0-.058.002-.116.002-.174h-.003c0-16.139 3.766-31.395 10.458-44.949-12.365 18.196-19.594 40.164-19.594 63.822v.001h.003c0 .065-.003.129-.003.195 0 62.898 40.99 104.016 88.933 104.016s66.41-20.444 83.523-50.236c6.627-11.537 18.289-17.258 29.942-17.21 11.653-.048 23.315 5.673 29.942 17.21 17.113 29.792 35.58 50.236 83.523 50.236 47.944 0 88.934-41.118 88.934-104.016 0-.065-.002-.13-.002-.195z" fill="#dfb5a7"/><path d="m289.641 232.649c.068-.484.114-.976.114-1.482 3.343-18.754 1.163-36.085-9.082-51.341 4.168-20.894 2.137-38.294-8.978-50.754-1.696-24.459-6.727-51.247-14.092-79.666-.761-4.3-6.932-4.296-7.687.005-6.562 22.738-11.288 44.159-10.856 61.877-8.529 12.502-11.598 26.297-7.344 41.859-7.495 12.889-10.799 27.246-7.676 43.753-9.887 13.11-7.714 27.505-7.252 34.2 2.923 22.768 69.844 23.044 72.853 1.549z" fill="#a1e8c3"/><path d="m361.244 275.042-23.121-16.999c-14.255-10.48-23.995-25.768-28.392-42.905-1.249-4.868-3.24-9.651-6.022-14.202-13.286-21.737-40.939-30.545-64.339-20.475-27.91 12.011-39.282 44.904-25.506 71.359 11.86 22.777 33.776 34.156 55.032 35.829 21.256 1.671 92.348-12.607 92.348-12.607z" fill="#ccf3e2"/><path d="m338.123 258.043c-14.255-10.48-23.995-25.768-28.393-42.906-1.249-4.868-3.24-9.651-6.022-14.202-7.9-12.925-20.88-21.278-35.025-23.81 10.449 4.297 22.234 13.245 25.337 24.757.994 3.687 1.401 7.38 1.283 10.985-.412 12.555.389 24.82 8.187 34.668 4.907 6.197-.008 15.258-7.878 14.509-16.273-1.55-37.536-4.042-45.978-7.081-14.486-5.215-27.581-17.316-31.501-35.44-2.206-10.2-.002-20.322 5.318-28.399-15.775 15.504-20.335 40.059-9.589 60.697 11.86 22.777 33.776 34.156 55.032 35.828 21.257 1.672 92.349-12.606 92.349-12.606z" fill="#b1b6e1"/><ellipse cx="44.222" cy="40.788" fill="#a2e9c4" rx="7.776" ry="7.775" transform="matrix(.16 -.987 .987 .16 -3.123 77.905)"/><path d="m150.747 17.542 8.255 23.212c.353.994 1.053 1.781 1.936 2.179l20.622 9.291c2.913 1.313 2.913 5.955 0 7.267l-20.622 9.291c-.883.398-1.583 1.185-1.936 2.179l-8.255 23.211c-1.166 3.279-5.29 3.279-6.457 0l-8.255-23.211c-.353-.994-1.053-1.781-1.936-2.179l-20.622-9.291c-2.914-1.313-2.914-5.955 0-7.267l20.622-9.291c.883-.398 1.583-1.185 1.936-2.179l8.255-23.212c1.167-3.279 5.291-3.279 6.457 0z" fill="#cdf4e3"/><path d="m437.225 14.275 6.123 17.218c.262.737.781 1.321 1.436 1.616l15.297 6.892c2.161.974 2.161 4.417 0 5.391l-15.297 6.892c-.655.295-1.174.879-1.436 1.616l-6.123 17.218c-.865 2.433-3.924 2.433-4.789 0l-6.123-17.218c-.262-.737-.781-1.321-1.436-1.616l-15.297-6.892c-2.161-.974-2.161-4.417 0-5.391l15.297-6.892c.655-.295 1.174-.879 1.436-1.616l6.123-17.218c.865-2.433 3.924-2.433 4.789 0z" fill="#cdf4e3"/><ellipse cx="353.31" cy="84.745" fill="#a2e9c4" rx="14.266" ry="14.266" transform="matrix(.122 -.993 .993 .122 226.031 425.053)"/></g><g><path d="m163.945 386.893c-28.994 0-52.581-18.926-52.581-42.191 0-23.264 23.588-42.19 52.581-42.19s52.581 18.926 52.581 42.19c.001 23.265-23.587 42.191-52.581 42.191zm0-72.321c-22.344 0-40.522 13.517-40.522 30.131s18.178 30.131 40.522 30.131 40.522-13.517 40.522-30.131c.001-16.614-18.177-30.131-40.522-30.131z" fill="#3c122c"/><path d="m344.342 386.823c-28.943 0-52.49-18.895-52.49-42.12s23.547-42.12 52.49-42.12c28.944 0 52.491 18.895 52.491 42.12s-23.547 42.12-52.491 42.12zm0-72.181c-22.294 0-40.431 13.485-40.431 30.061s18.137 30.061 40.431 30.061 40.432-13.485 40.432-30.061-18.138-30.061-40.432-30.061z" fill="#3c122c"/><g fill="#fff"><path d="m91.949 329.074c-1.225 0-2.469-.225-3.677-.701-5.165-2.033-7.704-7.867-5.671-13.032 1.154-2.93 2.447-5.822 3.843-8.594 2.496-4.957 8.541-6.95 13.495-4.454 4.957 2.497 6.951 8.539 4.455 13.496-1.121 2.225-2.16 4.552-3.089 6.913-1.559 3.957-5.348 6.372-9.356 6.372z"/><path d="m113.291 297.812c-2.731 0-5.454-1.107-7.436-3.287-3.735-4.105-3.435-10.461.67-14.196 10.196-9.276 23.612-15.895 38.799-19.142 5.431-1.164 10.767 2.298 11.929 7.726 1.16 5.427-2.298 10.768-7.726 11.928-11.547 2.469-22.014 7.567-29.476 14.355-1.926 1.752-4.347 2.616-6.76 2.616z"/><path d="m236.673 237.326c-5.55 0-10.049-4.499-10.049-10.049 0-16.071 7.35-25.107 8.188-26.085 0 0 5.632-6.694 13.534-1.255 7.175 4.939 1.724 14.337 1.724 14.337s.056-.059.151-.183c-.142.185-3.499 4.622-3.499 13.185 0 5.551-4.5 10.05-10.049 10.05z"/></g><path d="m487.568 436.04c.595-.539 4.463-3.646 5.157-4.219 12.25-9.954 19.275-24.716 19.275-40.5 0-26.154-19.343-47.871-44.474-51.61-1.718-26.435-11.77-50.632-27.554-69.984 3.49-4.154 6.725-8.785 9.661-13.883 12.591-21.868 11.804-48.43 10.214-62.318-.68-5.935-4.736-35.928-17.892-43.503s-41.131 3.975-46.606 6.367c-12.808 5.597-36.176 18.252-48.767 40.12-5.303 9.21-8.744 18.518-10.423 27.563h-17.066c-1.411-3.357-2.602-6.84-3.524-10.436-1.424-5.556-3.685-10.888-6.717-15.849-4.182-6.843-9.639-12.537-15.905-16.936-.542-1.033-1.103-2.057-1.699-3.067 3.628-21.869.352-39.556-9.778-52.664-1.837-22.952-6.444-48.495-14.068-77.959-1.38-6.521-6.92-11.03-13.642-11.03h-.01c-6.665.004-12.164 4.44-13.599 10.869-7.591 26.369-11.086 45.509-11.167 61.359-8.42 13.607-11.073 28.159-7.927 43.351-6.842 13.25-9.407 27.27-7.676 41.792-3.362 4.535-6.082 9.593-8.039 15.089-1.789 5.023-2.836 10.237-3.186 15.48h-25.38c-1.406-8.289-4.255-16.781-8.579-25.284-11.333-22.285-33.796-36.006-46.178-42.201-5.295-2.65-32.388-15.522-45.825-8.689-13.434 6.832-18.995 36.308-19.973 42.147-2.287 13.655-4.432 39.89 6.899 62.174 2.825 5.556 6.02 10.598 9.531 15.106-17.554 20.434-27.822 45.712-29.494 72.607-24.484 4.293-43.157 25.695-43.157 51.39 0 15.785 7.332 30.182 19.277 40.5 11.182 9.659 17.567 23.331 8.979 36.031-4.082 7.693-19.633 22.012-7.727 29.874 11.859 7.892 18.999-12 24.486-18.778 14.134-21.031 6.013-47.038-13.064-62.726-7.496-6.164-11.852-15.196-11.852-24.901 0-14.658 9.885-27.043 23.336-30.862 2.317 27.197 12.237 51.66 28.52 69.849 18.338 20.486 43.174 31.768 69.932 31.768 50.366 0 72.633-21.152 92.236-55.28 4.38-7.624 12.254-12.167 21.162-12.167h.109c8.876-.078 16.789 4.511 21.186 12.166 19.603 34.128 41.871 55.28 92.237 55.28 26.758 0 51.594-11.282 69.932-31.768 16.35-18.263 26.286-42.851 28.551-70.181 14.093 3.381 24.602 16.079 24.602 31.194 0 9.705-4.32 18.781-11.85 24.901-30.369 23.074-23.651 51.656-2.505 78.674 7.345 10.931 23.954-.122 16.757-11.096-10.506-15.281-23.597-31.329-6.736-47.76zm-123.567-229.499c9.271-16.102 27.339-26.198 37.285-30.783 13.356-6.157 24.379-8.219 29.239-8.219.504 0 .942.022 1.31.064 2.35 3.156 6.762 14.355 8.285 30.514 1.027 10.903 1.367 31.598-7.904 47.7-1.952 3.39-4.05 6.496-6.273 9.313-18.914-16.729-42.962-27.778-69.452-30.433 1.468-5.869 3.947-11.967 7.51-18.156zm-60.112 10.095c4.838 18.854 15.728 35.285 30.662 46.265l11.993 8.818c-21.481 3.991-62.483 11.073-77.177 9.919-21.664-1.705-40.415-13.893-50.157-32.602-5.839-11.213-6.753-24.477-2.509-36.393 4.302-12.08 13.2-21.542 25.052-26.643 5.763-2.48 11.817-3.663 17.809-3.663 15.484 0 30.542 7.903 39.001 21.744 2.408 3.936 4.199 8.16 5.326 12.555zm-54.801-104.857c.01-.202.018-.403.016-.604 0-.044.005-.088.003-.132-.267-10.914 1.747-23.607 4.406-35.528 3.406 15.685 5.78 30.085 7.198 43.499l-11.632-6.948c.008-.095.004-.192.009-.287zm-5.252 11.201 19.494 11.645c.03.045.656.903.88 1.153 7.076 7.944 9.659 19.215 7.854 34.286l-30.368-18.009c-.032-.293-.077-.586-.136-.879-.043-.212-.083-.425-.139-.634-.004-.015-.006-.029-.01-.044-2.649-9.689-1.86-18.749 2.425-27.518zm6.288 48.093c-4.446.74-8.856 2.006-13.138 3.848-1.139.49-2.248 1.023-3.343 1.576.736-4.355 2.038-8.631 3.955-12.852zm-164.738-5.101c9.644-.848 50.785 14.181 64.896 41.929 2.873 5.65 4.902 11.213 6.112 16.598-25.633 2.089-49.669 11.993-69.326 28.557-2.166-3.016-4.189-6.323-6.03-9.944-14.11-27.746-2.036-69.816 4.348-77.14zm362.314 182.039c0 53.57-33.912 93.967-78.883 93.967-41.296 0-57.592-15.219-74.81-45.192-8.011-13.946-22.391-22.254-38.419-22.254h-.39c-16.109 0-30.492 8.309-38.503 22.254-17.217 29.973-33.514 45.192-74.809 45.192-44.971 0-78.883-40.397-78.883-93.93.001-.102.001-.203 0-.305.04-57.115 46.518-103.57 103.643-103.57h37.695c1.045 3.583 2.429 7.081 4.173 10.43 11.676 22.422 34.071 37.022 59.907 39.055 1.276.101 2.713.148 4.29.148 25.414 0 86.954-12.298 89.72-12.854 2.341-.47 4.184-2.277 4.7-4.608s-.392-4.747-2.316-6.161l-23.121-16.999c-3.594-2.642-6.902-5.673-9.909-9.011h12.272c57.149 0 103.643 46.494 103.643 103.643h-.002z" fill="#3c122c"/></g></g></svg>