<svg id="Capa_1" enable-background="new 0 0 512 512" height="512" viewBox="0 0 512 512" width="512" xmlns="http://www.w3.org/2000/svg"><g><g><path d="m418.932 501.74s36.639-17.191 41.074-48.53c4.435-31.338-20.356-48.432-20.356-48.432s50.168-16.059 45.06-85.606c-5.107-69.547-51.592-80.79-51.592-80.79s18.978-92.574-73.071-54.475c0 0 23.173-124.705-65.359-84.05l-23.893 223.053z" fill="#e8c2d8"/><path d="m437.867 404.497s54.088-15.583 49.675-88.405c-.794-13.096-10.881-31.779-14.053-41.271 3.746 103.962-72.253 140.032-138.59 74.099-3.56-3.538-19.985 31.097-24.715 29.688l103.959 126.75s39.586-17.092 44.827-49.744c5.24-32.654-21.103-51.117-21.103-51.117z" fill="#d392d8"/><path d="m416.545 501.639c-15.144-40.782-39.048-72.655-66.747-93.524l-.01.239c11.222-15.902 19.973-34.003 28.123-62.856l17.273-57.109c5.802-20.544 4.954-41.393-1.259-60.25 6.313-3.605 12.36-9.162 17.69-16.842 16.232-23.389 10.124-64.113 2.841-69.167-7.283-5.055-47.57 3.472-63.802 26.86-.641.924-1.239 1.847-1.816 2.768-7.623-4.551-15.959-8.192-24.91-10.72l-61.283-17.309c-4.577-1.293-9.072-2.186-13.477-2.738.964-5.808.932-12.312-.306-19.424-4.833-27.755-37.45-52.183-46.092-50.678-8.643 1.505-31.082 35.52-26.249 63.275 1.599 9.183 4.75 16.736 8.964 22.62-14.249 9.188-25.184 20.562-31.688 29.596-15.697 21.8-29.471 53.682-29.471 53.682-30.295 15.77-46.616 44.447-44.613 73.964 1.653 24.355 12.666 44.98 30.411 61.486 15.597 14.507 44.249 26.22 60.857 29.389l2.55 1.229c-9.719 32.267-15.939 73.863-15.893 95.508" fill="#faf1a9"/><path d="m350.684 408.194c11.168-15.863 19.889-33.939 28.011-62.695l17.273-57.109c5.803-20.544 4.954-41.393-1.259-60.25 6.313-3.604 12.361-9.162 17.69-16.842 16.232-23.388 10.124-64.113 2.841-69.167-3.36-2.331-13.747-1.766-25.552 1.809 4.747 7.965 3.99 44.48-11.986 65.045-5.513 7.098-11.368 12.13-17.199 15.282 2.888 18.34.956 38.333-6.597 57.72l-21.97 53.837c-7.048 18.091-13.719 31.626-20.797 42.981-5.793 9.294-5.411 21.149 1.114 29.944 8.923 12.026 16.628 26.266 22.696 42.483 6.355 16.983-6.76 34.917-24.866 33.911l-150.37-3.349c-1.094 9.599-1.308 13.179-1.294 19.847h258.909c-15.124-40.734-38.989-72.577-66.644-93.447z" fill="#dfb5a7"/><path d="m310.508 187.607c.097-.45.175-.907.209-1.382 4.431-17.356 3.583-33.76-4.97-48.773 5.352-19.306 4.649-35.763-4.913-48.215.099-23.054-2.769-48.523-7.713-75.682-.416-4.085-6.204-4.507-7.209-.526-7.724 20.87-13.636 40.631-14.454 57.276-8.862 11.135-12.693 23.86-9.778 38.747-7.919 11.569-12.009 24.805-10.221 40.5-10.177 11.612-9.134 25.26-9.163 31.571 1.168 21.553 63.905 26.434 68.212 6.484z" fill="#ccf3e2"/><path d="m310.508 187.607c.097-.45.175-.907.209-1.382 3.147-12.326 3.612-24.168.565-35.376-.35 3.315-.957 6.672-1.821 10.073-.027.406-.092.797-.174 1.181-3.635 17.033-58.762 12.398-59.945-6.046-.004-1.042-.045-2.32-.045-3.772-7.852 10.951-6.974 23.016-7.001 28.838 1.168 21.553 63.905 26.434 68.212 6.484z" fill="#b1b6e1"/><path d="m156.007 162.235c16.058-3.891 29.958-13.55 39.924-26.729 2.831-3.743 6.27-7.147 10.306-10.065 19.28-13.937 46.277-11.559 62.806 5.551 19.714 20.407 17.656 52.842-3.746 70.667-18.427 15.347-41.408 17.251-60.323 11.03-11.019-3.624-34.658-18.008-52.473-29.384-8.623-5.506-6.439-18.661 3.506-21.07z" fill="#e8c2d8"/><path d="m269.043 130.992c-16.529-17.109-43.526-19.488-62.806-5.551-4.037 2.918-7.476 6.321-10.306 10.065-9.965 13.178-23.866 22.838-39.924 26.729-9.944 2.41-12.129 15.564-3.505 21.071 17.815 11.377 41.453 25.76 52.473 29.384 18.915 6.221 41.896 4.317 60.323-11.031 21.401-17.825 23.459-50.26 3.745-70.667zm-10.778 44.545c-10.882 13.415-27.041 17.815-41.509 15.866-8.429-1.135-27.503-8.299-41.959-14.082-6.997-2.8-7.408-12.498-.654-15.537 10.906-4.906 19.404-13.654 24.556-24.398 1.464-3.052 3.414-5.942 5.864-8.563 11.704-12.519 31.38-14.387 45.775-4.333 17.171 11.991 20.567 35.466 7.927 51.047z" fill="#d392d8"/><path d="m246.509 319.835c-3.853 2.873-15.816 6.935-18.689 3.083-2.873-3.853 4.431-14.161 8.284-17.034s9.305-2.079 12.178 1.773c2.874 3.852 2.08 9.304-1.773 12.178z" fill="#d789b9"/><path d="m55.45 110.691 11.937 21.825 21.824 11.936-21.824 11.936-11.937 21.825-11.936-21.825-21.825-11.936 21.825-11.936z" fill="#f6e06e"/><path d="m462.785 59.72 8.426 23.691c.361 1.014 1.075 1.818 1.976 2.224l21.048 9.483c2.974 1.34 2.974 6.078 0 7.417l-21.048 9.483c-.901.406-1.615 1.21-1.976 2.224l-8.426 23.691c-1.19 3.347-5.4 3.347-6.59 0l-8.426-23.691c-.361-1.014-1.075-1.818-1.976-2.224l-21.048-9.483c-2.974-1.34-2.974-6.078 0-7.417l21.048-9.483c.901-.406 1.615-1.21 1.976-2.224l8.426-23.691c1.19-3.347 5.4-3.347 6.59 0z" fill="#ccf3e2"/><g fill="#a1e8c3"><circle cx="81.402" cy="58.268" r="12.501"/><path d="m394.413 33.838c0 5.362-4.347 9.709-9.709 9.709s-9.709-4.347-9.709-9.709 4.347-9.709 9.709-9.709c5.362.001 9.709 4.347 9.709 9.709z"/></g></g><g><path d="m471.582 395.068c12.262-13.091 26.268-37.016 23.358-76.646-4.243-57.767-34.992-79.386-50.536-86.687 1.29-13.026 1.465-37.634-12.415-53.359.185-3.347.191-6.354.117-8.842-.197-6.62-1.63-28.77-11.801-35.83-10.174-7.06-31.423-.652-37.694 1.479-2.787.948-6.216 2.255-9.951 3.972-1.483-18.665-6.783-38.24-20.89-49.234-10.609-8.268-24.263-10.467-40.727-6.643-.339-20.954-2.887-44.346-7.781-71.286-.905-6.484-6.198-11.475-12.777-11.956-6.513-.469-12.426 3.608-14.324 9.79-8.916 24.142-13.524 41.854-14.732 56.737-6.978 9.68-10.621 20.163-10.931 31.304-5.263-8.81-11.681-15.743-16.172-20.03-4.751-4.533-21.188-19.168-33.316-17.051-12.121 2.111-22.651 21.436-25.59 27.309-4.803 9.596-12.358 28.57-9.004 47.832.875 5.023 2.176 9.724 3.881 14.082-4.971 2.8-10.261 4.918-15.739 6.245-7.035 1.704-12.145 7.197-13.335 14.336-.743 4.453.165 8.796 2.433 12.381-12.576 18.189-23.448 41.255-27.288 49.743-31.254 17.661-49.144 48.776-46.889 82.009 1.779 26.202 13.103 49.182 33.66 68.302 15.421 14.343 40.503 25.178 57.777 30.007-8.58 32.142-13.577 69.057-13.535 88.631.012 5.657 4.602 10.235 10.257 10.235h.022c5.664-.012 10.247-4.614 10.235-10.279-.043-20.115 5.727-60.224 15.458-92.527 1.455-4.834-.821-10.008-5.37-12.199l-2.55-1.229c-.803-.387-1.653-.667-2.529-.834-14.215-2.712-41.514-13.544-55.793-26.824-16.611-15.45-25.75-33.844-27.163-54.67-1.772-26.101 13.216-50.689 39.114-64.171 2.092-1.089 3.744-2.865 4.68-5.03.127-.294 12.288-28.287 26.311-48.799 20.563 12.773 35.016 20.576 43.002 23.202 7.399 2.434 14.959 3.626 22.418 3.626 15.891 0 31.325-5.413 43.765-15.774.336-.279.654-.576.983-.863 1.712.244 3.417.453 5.09.586 2.116.168 4.293.258 6.491.258 15.307 0 31.567-4.367 34.624-17.068.017-.061.031-.122.046-.182.016-.072.038-.14.054-.212.007-.032.009-.064.016-.096.022-.109.04-.218.056-.329.078-.408.158-.815.202-1.197 1.451-5.799 2.309-11.427 2.579-16.873l1.763.498c7.893 2.23 15.443 5.479 22.44 9.656 4.789 2.859 10.984 1.369 13.948-3.357.585-.932 1.078-1.685 1.555-2.37 11.853-17.079 40.34-24.617 49.262-23.902 3.802 8.112 6.697 37.435-5.155 54.512-4.263 6.143-9.091 10.78-14.35 13.783-4.235 2.419-6.181 7.484-4.656 12.117 5.786 17.561 6.184 36.288 1.155 54.164l-17.245 57.017c-.019.06-.036.121-.053.181-7.045 24.939-14.751 42.497-25.624 58.284-1.713 1.776-2.759 4.144-2.866 6.692l-.01.239c-.172 4.103 2.114 7.867 5.729 9.638 26.742 20.707 48.039 50.966 61.66 87.647 1.536 4.134 5.452 6.689 9.617 6.689.264 0 .53-.014.796-.035.526.083 1.059.136 1.597.136 1.458 0 2.942-.313 4.35-.974 1.701-.798 41.72-19.966 46.872-56.379 3.062-21.637-5.382-37.55-13.22-47.241 4.497-2.953 9.608-6.973 14.638-12.341zm-189.952-323.528c.024-.197.047-.395.059-.593.003-.047.012-.091.014-.138.446-9.068 2.676-19.339 5.492-29.21 1.734 12.999 2.792 25.027 3.195 36.267l-8.777-6.16c.008-.055.01-.111.017-.166zm-6.088 10.942 16.097 11.298c.019.039.043.076.063.115.082.16.169.315.259.471.078.134.156.268.24.4.102.159.211.313.322.466.06.083.111.17.174.252 5.182 6.747 5.869 15.416 2.16 29.196l-22.939-15.992c-.019-.532-.068-1.068-.173-1.607-1.765-9.013-.552-16.973 3.797-24.599zm-70.931-1.017c6.476 2.431 21.37 14.205 29.338 28.786-10.961.083-21.948 3.429-31.318 10.203-4.44 3.21-8.346 7.026-11.609 11.34-1.149 1.519-2.354 2.982-3.608 4.388-.299-1.223-.563-2.48-.789-3.775-3.509-20.144 11.2-45.181 17.986-50.942zm56.747 115.466c-14.997 12.49-35.354 16.197-54.462 9.913-8.113-2.668-26.255-12.87-51.082-28.725-2.826-1.804-2.591-4.669-2.452-5.504.139-.833.844-3.612 4.094-4.399 16.94-4.104 32.346-14.403 43.383-28.998 2.524-3.339 5.553-6.296 9.002-8.789 7.338-5.305 15.956-7.898 24.539-7.898 11.086 0 22.115 4.33 30.236 12.738 8.27 8.56 12.472 19.779 11.832 31.589-.63 11.649-6.13 22.61-15.09 30.073zm18.777-2.894c2.873-4.468 5.077-9.345 6.55-14.461l15.364 9.902c-3.845 2.791-11.826 4.811-21.914 4.559zm26.116-16.494-17.476-11.263c.473-14.807-4.923-28.816-15.306-39.564-2.868-2.969-6.019-5.542-9.372-7.718.264-.067.531-.127.786-.211l36.486 25.436c.398.277.821.483 1.253.655 4.427 9.782 5.623 20.558 3.629 32.665zm39.594-19.062c-6.128-2.999-12.532-5.449-19.131-7.313l-9.733-2.748c-1.119-3.928-2.613-7.729-4.484-11.395.181-.393.346-.797.48-1.22 3.102-9.847 5.829-21.457 4.244-32.912 9.359-1.912 16.708-.859 21.927 3.202 10.48 8.156 13.328 27.869 13.325 45.786-2.321 2.005-4.556 4.197-6.628 6.6zm90.678 236.529c-3.724 1.192-6.475 4.379-7.048 8.248-.572 3.868 1.077 7.706 4.296 9.926.799.568 19.533 14.176 16.078 38.59-2.465 17.421-18.055 30.04-27.673 36.282-13.934-33.222-33.938-61.281-58.541-82.019 9.959-15.975 17.376-33.805 24.119-57.658l17.247-57.02c.019-.06.036-.121.054-.182 5.458-19.325 5.714-39.478.802-58.742 5.205-4.077 9.955-9.195 14.185-15.29 1.449-2.088 2.727-4.249 3.859-6.453 1.319 10.049.208 20.461-.832 25.63-1.11 5.412 2.176 10.708 7.546 12.007 1.608.421 39.416 11.001 43.866 71.594 4.416 60.134-36.291 74.526-37.958 75.087z" fill="#3c122c"/><path d="m213.726 163.658c-2.483 0-4.973-.896-6.945-2.711-4.167-3.837-4.435-10.326-.599-14.493 14.127-15.344 30.157-15.572 31.937-15.553 0 0 10.095-.503 10.785 9.5s-10.878 11.012-10.878 11.012c-.357.008-8.812.311-16.751 8.934-2.022 2.198-4.782 3.311-7.549 3.311z" fill="#fff"/><g fill="#3c122c"><ellipse cx="178.032" cy="258.75" rx="12.656" ry="12.656" transform="matrix(.033 -.999 .999 .033 -86.481 428.1)"/><path d="m285.62 309.815c-1.485 0-2.973-.534-4.153-1.616-2.849-2.611-12.105-11.768-11.62-19.983.555-9.423 13.981-13.798 19.728-15.242 3.287-.829 6.639 1.172 7.468 4.469.827 3.294-1.17 6.635-4.462 7.466-4.156 1.055-8.836 3.13-10.341 4.525.647 2.028 4.061 6.483 7.549 9.695 2.498 2.3 2.663 6.192.366 8.693-1.214 1.322-2.872 1.993-4.535 1.993z"/><path d="m253.216 303.977c-4.898-6.566-14.223-7.924-20.79-3.027-2.716 2.025-6.065 6.059-8.332 10.036-2.35 4.121-3.128 7.404-3.067 9.99-.202.146-.403.294-.615.426-2.302 1.433-4.905 1.852-7.333 1.177-2.428-.673-4.446-2.372-5.681-4.784-1.323-2.585-1.598-5.647-.773-8.621.908-3.275-1.012-6.667-4.287-7.574-3.28-.91-6.667 1.012-7.575 4.287-1.651 5.957-1.055 12.178 1.68 17.518 2.823 5.514 7.563 9.433 13.349 11.036 1.858.515 3.747.77 5.63.77 3.977 0 7.926-1.137 11.495-3.359.742-.462 1.439-.979 2.117-1.52 1.036.214 2.115.325 3.225.325 7.207 0 15.454-4.041 17.931-5.887 6.565-4.899 7.923-14.226 3.026-20.793zm-10.385 10.924c-1.77 1.32-5.782 2.747-8.639 3.264 1.31-2.591 3.822-6.029 5.592-7.349.457-.341.991-.504 1.52-.504.777 0 1.546.354 2.044 1.023.841 1.127.608 2.726-.517 3.566z"/><path d="m55.451 184.367c-2.25 0-4.32-1.227-5.399-3.201l-11.072-20.243-20.243-11.072c-1.974-1.079-3.201-3.15-3.201-5.399 0-2.25 1.227-4.32 3.201-5.399l20.243-11.071 11.072-20.243c1.079-1.974 3.149-3.201 5.399-3.201 2.25 0 4.32 1.228 5.4 3.201l11.07 20.243 20.243 11.071c1.974 1.079 3.201 3.15 3.201 5.399 0 2.25-1.227 4.32-3.201 5.399l-20.243 11.072-11.07 20.243c-1.08 1.973-3.151 3.201-5.4 3.201zm-20.937-39.915 11.953 6.537c1.033.565 1.882 1.414 2.446 2.447l6.538 11.952 6.536-11.952c.565-1.033 1.414-1.882 2.447-2.447l11.953-6.537-11.953-6.537c-1.033-.565-1.882-1.414-2.447-2.447l-6.536-11.952-6.538 11.952c-.564 1.033-1.413 1.882-2.446 2.447z"/><path d="m101.377 207.158c-2.916 0-5.812-1.236-7.84-3.637l-15.207-18c-3.656-4.327-3.111-10.799 1.216-14.454 4.326-3.658 10.799-3.112 14.454 1.215l15.207 18c3.656 4.327 3.111 10.799-1.216 14.454-1.925 1.627-4.276 2.422-6.614 2.422z"/></g></g></g></svg>