<svg id="Capa_1" enable-background="new 0 0 512 512" height="512" viewBox="0 0 512 512" width="512" xmlns="http://www.w3.org/2000/svg"><g><g><path d="m406.015 501.777s36.508-17.13 40.927-48.356c4.419-31.227-20.283-48.259-20.283-48.259s49.989-16.002 44.899-85.3c-5.089-69.298-51.408-80.502-51.408-80.502s18.91-92.243-72.81-54.281c0 0 23.091-124.26-65.125-83.75l-23.807 222.256z" fill="#96b4eb"/><path d="m424.883 404.881s53.895-15.528 49.497-88.09c-.791-13.05-10.842-31.666-14.003-41.124 3.732 103.591-71.995 139.532-138.095 73.834-3.547-3.526-19.914 30.986-24.627 29.582l103.588 126.297s39.445-17.031 44.667-49.567c5.222-32.535-21.027-50.932-21.027-50.932z" fill="#8286ea"/><path d="m403.637 501.677c-15.09-40.636-38.909-72.395-66.509-93.19l-.01.238c11.182-15.845 19.902-33.881 28.023-62.632l17.212-56.905c5.782-20.471 4.937-41.245-1.254-60.035 6.29-3.592 12.316-9.13 17.627-16.782 16.173-23.305 10.087-63.884 2.83-68.92-7.257-5.037-47.4 3.459-63.574 26.764-.639.921-1.234 1.84-1.81 2.758-7.596-4.535-15.902-8.163-24.821-10.682l-61.064-17.247c-4.56-1.288-9.039-2.178-13.429-2.728.96-5.788.929-12.269-.305-19.354-4.816-27.656-37.316-51.997-45.928-50.497s-30.971 35.393-26.155 63.049c1.593 9.15 4.733 16.676 8.932 22.539-14.198 9.155-25.094 20.489-31.575 29.49-15.641 21.723-29.366 53.491-29.366 53.491-30.187 15.714-46.45 44.288-44.454 73.7 1.647 24.268 12.621 44.82 30.303 61.266 15.542 14.455 44.091 26.126 60.639 29.284l2.54 1.224c-9.684 32.151-15.882 73.6-15.837 95.167" fill="#fff"/><path d="m337.23 408.565c11.128-15.806 19.818-33.817 27.911-62.471l17.212-56.905c5.782-20.471 4.936-41.245-1.254-60.035 6.29-3.592 12.316-9.13 17.627-16.782 16.174-23.305 10.087-63.884 2.83-68.92-3.348-2.323-13.697-1.76-25.46 1.802 4.731 7.936 3.975 44.322-11.943 64.813-5.494 7.072-11.327 12.087-17.138 15.227 2.878 18.274.953 38.196-6.573 57.513l-21.891 53.645c-7.023 18.027-13.67 31.513-20.723 42.828-5.773 9.261-5.392 21.073 1.11 29.837 8.891 11.983 16.568 26.172 22.615 42.331 6.333 16.923-6.736 34.792-24.777 33.79l-149.833-3.337c-1.09 9.565-1.303 13.132-1.289 19.776h257.984c-15.072-40.587-38.852-72.316-66.408-93.112z" fill="#e1bdfc"/><path d="m293.351 276.932-22.684 15.356c15.189 28.441 60.38 66.813 61.46 108.504.85 16.494 26.095-8.378 32.627-46.285-12.233-36.141-57.941-62.564-71.403-77.575z" fill="#c1e5ef"/><path d="m130.8 259.588 16.947 19.8c-28.833 18.21-48.507 46.157-63.737 84.982l-16.402-46.557c23.823-29.805 45.42-48.702 63.192-58.225z" fill="#c1e5ef"/><path d="m297.979 188.766c.097-.448.174-.904.209-1.377 4.415-17.294 3.57-33.639-4.953-48.599 5.333-19.237 4.633-35.635-4.896-48.043.099-22.972-2.759-48.35-7.685-75.412-.415-4.07-6.182-4.491-7.183-.524-7.697 20.796-13.587 40.486-14.402 57.072-8.831 11.095-12.647 23.774-9.743 38.609-7.891 11.528-11.966 24.716-10.184 40.355-10.141 11.57-9.101 25.17-9.131 31.459 1.163 21.475 63.677 26.339 67.968 6.46z" fill="#f6e06e"/><path d="m297.979 188.766c.097-.448.174-.904.209-1.377 3.135-12.282 3.599-24.082.563-35.25-.349 3.303-.954 6.648-1.815 10.037-.027.405-.092.794-.173 1.177-3.622 16.972-58.553 12.354-59.731-6.024-.004-1.038-.044-2.312-.044-3.758-7.824 10.912-6.949 22.934-6.976 28.735 1.162 21.475 63.676 26.339 67.967 6.46z" fill="#dda86a"/><path d="m144.03 163.484c16-3.877 29.851-13.502 39.781-26.633 2.82-3.73 6.247-7.121 10.27-10.029 19.211-13.888 46.111-11.518 62.582 5.531 19.644 20.334 17.593 52.653-3.733 70.415-18.361 15.292-41.26 17.189-60.107 10.991-10.98-3.611-34.534-17.943-52.285-29.279-8.594-5.487-6.417-18.595 3.492-20.996z" fill="#96b4eb"/><path d="m256.662 132.353c-16.47-17.048-43.371-19.418-62.582-5.531-4.022 2.908-7.449 6.299-10.269 10.029-9.93 13.131-23.781 22.756-39.781 26.633-9.909 2.401-12.086 15.508-3.493 20.996 17.751 11.336 41.305 25.668 52.285 29.28 18.848 6.198 41.746 4.301 60.107-10.991 21.326-17.762 23.377-50.081 3.733-70.416zm-10.739 44.386c-10.843 13.367-26.944 17.751-41.361 15.809-8.399-1.131-27.405-8.269-41.809-14.031-6.973-2.789-7.382-12.453-.652-15.481 10.867-4.889 19.334-13.605 24.468-24.311 1.458-3.041 3.402-5.92 5.843-8.532 11.662-12.474 31.268-14.336 45.612-4.318 17.11 11.948 20.493 35.339 7.899 50.864z" fill="#8286ea"/><path d="m201.543 164.903c-2.474 0-4.955-.893-6.919-2.701-4.153-3.823-4.421-10.288-.598-14.441 14.073-15.29 30.031-15.525 31.823-15.498 0 0 9.854-.717 10.525 9.352.671 10.068-10.619 11.087-10.619 11.087-.355.008-8.782.31-16.69 8.902-2.015 2.19-4.764 3.299-7.522 3.299z" fill="#fff"/><path d="m172.894 339.522c-5.861.016-10.094-9.085-8.359-18.04 4.252-21.935 16.149-37.729 30.203-37.767s26.036 15.692 30.406 37.604c1.784 8.946-2.4 18.069-8.261 18.085z" fill="#d789b9"/><path d="m212.984 293.574c-5.189-6.229-11.476-9.878-18.246-9.859-14.054.038-25.952 15.832-30.203 37.767-1.736 8.955 2.498 18.056 8.359 18.04l13.713-.037c.02-.135.044-.27.073-.403-3.192-1.474-5.225-6.934-4.178-12.333 3.001-15.481 11.397-26.628 21.316-26.655 3.965-.011 7.694 1.761 10.942 4.874-.498-3.853-1.029-7.676-1.776-11.394z" fill="#c668b9"/><path d="m83.268 161.434c-3.245-2.645-6.267-5.992-8.817-9.935-9.246-14.294-8.795-31.022 1.007-37.362s25.243.108 34.489 14.403c2.311 3.574 4.017 7.299 5.122 10.977" fill="#c1e5ef"/><path d="m64.973 210.034c-2.583-.105-5.315-.639-8.035-1.643-9.861-3.638-15.833-12.068-13.338-18.83 2.494-6.762 12.51-9.295 22.372-5.657 2.465.91 4.688 2.118 6.595 3.526" fill="#c1e5ef"/><path d="m446.834 2.501 8.396 23.606c.359 1.011 1.071 1.812 1.969 2.216l20.973 9.449c2.963 1.335 2.963 6.056 0 7.391l-20.973 9.449c-.898.405-1.61 1.205-1.969 2.216l-8.396 23.606c-1.186 3.335-5.38 3.335-6.567 0l-8.395-23.606c-.359-1.011-1.071-1.812-1.969-2.216l-20.973-9.449c-2.963-1.335-2.963-6.056 0-7.391l20.973-9.449c.898-.405 1.61-1.205 1.969-2.216l8.395-23.606c1.187-3.335 5.381-3.335 6.567 0z" fill="#fbf2aa"/><path d="m30.34 14.492 6.227 17.511c.267.75.795 1.344 1.461 1.644l15.558 7.009c2.198.99 2.198 4.492 0 5.482l-15.558 7.009c-.666.3-1.194.894-1.461 1.644l-6.227 17.511c-.88 2.474-3.991 2.474-4.871 0l-6.227-17.511c-.267-.75-.794-1.344-1.461-1.644l-15.558-7.009c-2.198-.99-2.198-4.492 0-5.482l15.558-7.009c.666-.3 1.194-.894 1.461-1.644l6.227-17.511c.88-2.474 3.991-2.474 4.871 0z" fill="#fbf2aa"/><g fill="#f7e16e"><ellipse cx="146.002" cy="47.215" rx="12.456" ry="12.456" transform="matrix(.995 -.099 .099 .995 -3.942 14.617)"/><path d="m511.425 123.279c0 5.343-4.331 9.674-9.674 9.674s-9.674-4.331-9.674-9.674 4.331-9.674 9.674-9.674 9.674 4.331 9.674 9.674z"/></g></g><g fill="#3c122c"><path d="m177.666 345.641c-4.874 0-9.394-2.525-12.731-7.114-5.404-7.431-6.906-18.933-3.737-28.622 6.604-20.201 19.137-32.284 33.524-32.322h.069c14.358 0 26.926 12.009 33.628 32.141 3.22 9.671 1.78 21.181-3.583 28.641-3.321 4.619-7.842 7.17-12.73 7.183l-34.401.092c-.013.001-.026.001-.039.001zm17.122-55.794c-.011 0-.023 0-.034 0-8.702.023-17.094 9.169-21.9 23.869-2.199 6.724-.659 13.942 1.999 17.597.452.621 1.628 2.063 2.813 2.063h.004l34.401-.092c1.186-.003 2.357-1.454 2.806-2.078 2.638-3.669 4.14-10.896 1.905-17.608-4.878-14.655-13.303-23.751-21.994-23.751z"/><path d="m155.174 265.768c-2.419 0-4.712-1.441-5.681-3.82-1.278-3.136.229-6.715 3.365-7.992 4.335-1.778 9.03-4.727 10.395-6.459-.938-1.83-4.579-5.374-8.085-7.791-2.786-1.921-3.492-5.738-1.575-8.525 1.918-2.788 5.729-3.499 8.518-1.584 4.869 3.339 15.897 12.078 13.152 21.073-2.393 7.843-14.213 13.192-17.778 14.645-.757.307-1.54.453-2.311.453zm8.279-17.769h.01z"/><path d="m272.553 279.041c-1.117 0-2.246-.305-3.261-.945-3.696-2.331-15.591-10.709-13.485-20.681 2.019-9.552 15.62-14.437 18.327-15.319 3.217-1.05 6.681.71 7.73 3.929 1.05 3.22-.709 6.681-3.929 7.731-4.8 1.585-9.435 4.602-10.086 6.084.377 1.673 4.243 5.503 7.994 7.888 2.854 1.814 3.706 5.6 1.896 8.458-1.168 1.844-3.155 2.855-5.186 2.855z"/><path d="m458.476 395.485c12.218-13.044 26.176-36.883 23.276-76.372-4.229-57.561-34.867-79.103-50.356-86.377 1.285-12.98 1.46-37.5-12.371-53.168.185-3.335.19-6.331.116-8.81-.196-6.597-1.624-28.668-11.759-35.702-10.136-7.033-31.312-.651-37.561 1.474-2.777.944-6.194 2.247-9.915 3.957-1.478-18.598-6.759-38.104-20.815-49.058-10.573-8.24-24.174-10.443-40.582-6.631-.338-20.877-2.879-44.182-7.753-71.021-.902-6.462-6.178-11.434-12.733-11.912-6.517-.477-12.379 3.596-14.271 9.754-8.884 24.056-13.476 41.703-14.679 56.532-6.96 9.655-10.591 20.112-10.894 31.225-5.244-8.787-11.635-15.715-16.114-19.989-4.735-4.517-21.126-19.098-33.196-16.99-12.078 2.103-22.571 21.359-25.5 27.21-4.785 9.562-12.313 28.467-8.971 47.66.872 5.007 2.188 9.677 3.889 14.02-4.96 2.796-10.238 4.911-15.704 6.235-7.01 1.698-12.102 7.172-13.288 14.284-.74 4.438.165 8.766 2.424 12.337-12.532 18.124-23.364 41.108-27.19 49.565-31.139 17.602-48.966 48.605-46.719 81.72 1.772 26.108 13.056 49.005 33.539 68.057 15.365 14.291 40.357 25.088 57.57 29.899-8.548 32.028-13.527 68.811-13.486 88.315.012 5.637 4.585 10.199 10.22 10.199h.022c5.645-.012 10.211-4.597 10.199-10.242-.042-20.044 5.707-60.011 15.402-92.199 2.303-7.123-3.894-12.852-10.411-14.211-14.166-2.703-41.367-13.496-55.594-26.729-3.137-2.917-6.003-5.941-8.604-9.066 17.328-52.205 54.004-75.132 54.441-75.4 2.891-1.755 3.816-5.519 2.066-8.414-1.753-2.898-5.522-3.826-8.42-2.076-1.598.966-36.987 22.844-56.678 73.504-5.757-10.158-9.07-21.194-9.872-33.022-.033-.49-.049-.977-.07-1.466 19.647-32.456 57.055-43.703 57.442-43.815 3.249-.943 5.12-4.34 4.181-7.59-.94-3.254-4.344-5.131-7.593-4.189-1.422.411-27.947 8.306-49.796 30.413 6.029-15.329 18.15-28.621 34.813-37.295 2.083-1.084 3.73-2.855 4.662-5.01.127-.294 12.271-28.221 26.217-48.625 20.49 12.727 34.891 20.503 42.847 23.119 7.373 2.425 14.906 3.613 22.339 3.613 15.835-.001 31.213-5.394 43.608-15.718.33-.275.643-.566.966-.848 1.71.243 3.412.439 5.083.571 2.111.168 4.281.258 6.473.258 15.251-.001 31.452-4.351 34.499-17.007.018-.061.031-.122.046-.183.016-.071.038-.139.053-.211.001-.004.001-.008.002-.012.012-.054.019-.103.03-.157.007-.035.014-.07.02-.105.094-.469.17-.913.22-1.34 1.446-5.778 2.301-11.387 2.569-16.814l1.757.496c7.863 2.221 15.385 5.458 22.36 9.621 4.769 2.85 10.945 1.364 13.897-3.345.583-.929 1.074-1.678 1.549-2.361 11.809-17.017 40.185-24.536 49.086-23.816 3.79 8.08 6.674 37.3-5.135 54.318-4.248 6.121-9.06 10.741-14.3 13.734-4.22 2.41-6.159 7.458-4.639 12.074 5.766 17.498 6.163 36.158 1.152 53.969l-14.004 46.301c-22.961-36.861-59.522-58.017-61.28-59.019-2.942-1.677-6.686-.651-8.365 2.29-1.677 2.942-.652 6.687 2.291 8.364.438.25 42.22 24.42 62.472 64.698-5.023 16.709-10.475 29.997-17.213 41.8-12.894-46.121-60.223-101.74-62.469-104.36-2.204-2.571-6.074-2.869-8.646-.665-2.571 2.203-2.87 6.074-.666 8.646.584.682 57.849 67.985 62.446 112.145-.099.503-.17 1.016-.191 1.538l-.01.239c-.171 4.089 2.108 7.838 5.711 9.603 26.647 20.633 47.866 50.784 61.437 87.333 1.53 4.119 5.433 6.666 9.582 6.666.264 0 .53-.014.795-.035.524.083 1.054.135 1.589.135 1.453 0 2.931-.312 4.335-.971 1.695-.795 41.57-19.895 46.705-56.177 3.051-21.56-5.363-37.416-13.173-47.073 4.484-2.94 9.578-6.945 14.588-12.295zm-189.274-322.357c.025-.202.048-.404.061-.606.003-.046.011-.09.014-.137.444-9.034 2.667-19.27 5.472-29.106 1.728 12.953 2.782 24.938 3.184 36.137l-8.746-6.139c.007-.049.009-.1.015-.149zm-6.064 10.888 16.038 11.257c.02.039.044.076.063.115.082.159.169.314.258.469.078.134.155.267.24.398.102.159.211.312.321.465.06.083.111.17.173.251 5.162 6.721 5.848 15.36 2.152 29.092l-22.857-15.934c-.019-.531-.068-1.064-.173-1.601-1.757-8.982-.549-16.914 3.785-24.512zm-70.679-1.012c6.453 2.423 21.302 14.154 29.244 28.683-10.926.08-21.876 3.414-31.215 10.166-4.425 3.199-8.318 7.001-11.569 11.3-1.141 1.509-2.338 2.962-3.583 4.358-.298-1.217-.573-2.457-.798-3.748-3.495-20.074 11.161-45.021 17.921-50.759zm2.278 124.93c-8.084-2.659-26.161-12.824-50.9-28.622-2.816-1.798-2.581-4.652-2.443-5.485.139-.83.842-3.599 4.08-4.383 16.88-4.09 32.232-14.351 43.228-28.894 2.516-3.327 5.534-6.273 8.971-8.758 7.312-5.285 15.899-7.87 24.451-7.87 11.047 0 22.035 4.315 30.128 12.692 8.24 8.53 12.428 19.708 11.79 31.476-.629 11.608-6.11 22.53-15.038 29.966-14.943 12.446-35.23 16.138-54.267 9.878zm72.978-12.76c2.863-4.452 5.059-9.312 6.527-14.41l15.31 9.867c-3.831 2.78-11.783 4.794-21.837 4.543zm26.024-16.436-17.415-11.224c.472-14.753-4.906-28.712-15.251-39.422-2.858-2.959-5.997-5.522-9.339-7.69.263-.066.53-.127.784-.21l36.355 25.345c.396.277.818.482 1.249.653 4.41 9.745 5.603 20.484 3.617 32.548zm39.45-18.994c-6.106-2.989-12.487-5.43-19.061-7.286l-9.698-2.739c-1.115-3.915-2.603-7.702-4.468-11.355.181-.392.345-.794.478-1.216 3.091-9.812 5.808-21.382 4.229-32.796 9.326-1.905 16.648-.854 21.849 3.192 10.442 8.127 13.28 27.769 13.278 45.622-2.315 1.999-4.543 4.184-6.607 6.578zm90.354 235.684c-3.711 1.188-6.452 4.364-7.022 8.218-.57 3.855 1.073 7.679 4.281 9.891.797.566 19.464 14.126 16.022 38.452-2.457 17.359-17.99 29.933-27.575 36.152-13.884-33.104-33.817-61.061-58.331-81.726 9.924-15.918 17.315-33.685 24.033-57.452l17.185-56.816c.019-.06.036-.12.053-.181 5.44-19.257 5.694-39.337.801-58.533 5.186-4.062 9.92-9.161 14.135-15.235 1.444-2.081 2.717-4.234 3.845-6.429 1.314 10.013.207 20.387-.829 25.538-1.106 5.393 2.168 10.67 7.519 11.964 1.602.419 39.274 10.961 43.71 71.339 4.396 59.918-36.166 74.259-37.827 74.818z"/><path d="m83.265 167.566c-1.362 0-2.733-.451-3.871-1.379-3.855-3.142-7.25-6.964-10.092-11.357-11.255-17.401-10.014-37.537 2.826-45.841 6.397-4.136 14.833-4.518 23.147-1.046 7.645 3.192 14.685 9.325 19.822 17.267 2.575 3.981 4.541 8.201 5.846 12.544.974 3.243-.866 6.663-4.11 7.637-3.243.976-6.663-.866-7.637-4.11-.971-3.235-2.451-6.401-4.398-9.41-3.751-5.799-8.945-10.396-14.25-12.611-2.659-1.111-7.724-2.584-11.759.027-6.829 4.417-6.458 17.644.812 28.882 2.145 3.317 4.683 6.181 7.543 8.513 2.625 2.139 3.018 6.002.878 8.627-1.213 1.486-2.978 2.257-4.757 2.257z"/><path d="m64.978 216.166c-.084 0-.169-.002-.254-.005-3.313-.135-6.646-.814-9.907-2.017-5.919-2.183-10.956-5.895-14.184-10.452-3.669-5.18-4.684-11.105-2.785-16.254s6.518-8.995 12.673-10.551c5.414-1.368 11.655-.919 17.574 1.264 2.951 1.088 5.681 2.55 8.113 4.344 2.726 2.011 3.305 5.85 1.295 8.575s-5.85 3.305-8.575 1.295c-1.502-1.108-3.21-2.019-5.077-2.707-3.567-1.316-7.33-1.637-10.323-.88-1.028.26-3.494 1.063-4.173 2.905-.68 1.842.673 4.055 1.287 4.921 1.785 2.519 4.854 4.719 8.421 6.034 2.058.76 4.131 1.186 6.163 1.269 3.383.138 6.015 2.993 5.877 6.377-.137 3.299-2.854 5.882-6.125 5.882z"/></g></g></svg>