<svg id="Capa_1" enable-background="new 0 0 512 512" height="512" viewBox="0 0 512 512" width="512" xmlns="http://www.w3.org/2000/svg"><g><g><path d="m359.895 299.112c-3.603-10.857-16.838-10.347-35.432-4.999 1.317-.893 2.584-1.805 3.742-2.75 13.482-11.009 22.33-25.283 24.641-42.663 2.801-21.064-7.571-42.372-28.555-55.076 0 0-8.398-23.488-18.641-39.839-4.244-6.775-11.555-15.434-21.343-22.678 3.293-4.023 5.9-9.29 7.471-15.798 4.748-19.67-9.763-45.087-15.887-46.566-6.125-1.478-30.632 14.522-35.38 34.192-1.216 5.04-1.54 9.7-1.118 13.908-3.183.191-6.447.624-9.786 1.339l-44.725 9.572c-6.533 1.398-12.676 3.622-18.35 6.532-.371-.687-.757-1.376-1.174-2.068-10.553-17.514-39.034-25.488-44.487-22.202-5.454 3.286-11.715 32.192-1.163 49.706 3.465 5.751 7.542 10.014 11.9 12.89-5.325 13.228-6.898 28.132-3.689 43.125l9.739 41.731c4.507 21.057 9.942 34.436 17.25 46.352-13.761 17.033-22.018 39.111-26.443 61.87-12.967 16.119-18.763 29.046-10.005 38.094 9.403 9.714 23.453 1.538 40.836-14.467l147.191-31.501c-1.97-5.242-4.221-11.092-6.717-17.039 37.045-13.825 65.834-24.461 60.125-41.665z" fill="#fff"/><path d="m336.287 294.099c8.565-3.727 17.693-1.729 20.387 4.463s-2.065 14.232-10.63 17.959c-8.566 3.728-18.322-18.695-9.757-22.422z" fill="#a1e8c3"/><path d="m119.49 387.59c1.566-5.775 4.518-10.982 8.051-15.799 1.151-10.492 3.1-20.829 7.326-30.737 3.48-8.162 8.503-15.332 13.062-22.891 3.893-6.453 6.94-13.241 5.717-20.95-1.51-9.52-6.244-18.902-9.831-27.778-3.82-9.455-7.459-19.028-9.279-29.101-3.57-19.751 2.127-38.969 1.248-58.729-.191-4.294-.643-8.32-2.857-12.066-1.934-3.274-4.47-6.131-6.871-9.062-2.473-3.018-4.917-6.086-6.754-9.427-30.637 6.503-18.698 48.984-18.698 48.984s-35.183 11.074-35.646 63.471 38.911 61.567 38.911 61.567-18.21 14.221-13.24 37.447c3.512 16.411 19.026 26.606 27.833 31.181.145-2.025.473-4.063 1.028-6.11z" fill="#ccf3e2"/><path d="m152.704 124.568c4.209 5.041 8.578 10.142 15.632 10.112 13.112-.053 25.726-6.091 38.312-9.769l-6.502-36.558c-40.455-14.665-49.558 9.813-50.023 33.137.858 1.02 1.717 2.044 2.581 3.078z" fill="#ccf3e2"/><path d="m190.065 139.25c-.045-.327-.076-.659-.075-1.001-2.238-12.669-.747-24.372 6.187-34.664-2.793-14.115-1.403-25.864 6.117-34.268 1.171-16.517 4.597-34.603 9.601-53.789.518-2.903 4.686-2.894 5.191.012 4.408 15.364 7.577 29.835 7.267 41.801 5.747 8.452 7.805 17.772 4.916 28.278 5.048 8.713 7.265 18.413 5.138 29.557 6.664 8.865 5.181 18.584 4.862 23.105-1.998 15.373-47.194 15.489-49.204.969z" fill="#f6e06e"/><path d="m190.065 139.25c-.045-.327-.076-.659-.075-1.001-1.59-8.997-1.285-17.504 1.501-25.367.072 2.393.326 4.83.762 7.312-.003.292.023.576.061.855 1.686 12.395 41.418 12.046 43.259-1.1.059-.746.157-1.659.235-2.699 5.034 8.266 3.755 16.86 3.46 21.031-1.997 15.373-47.193 15.489-49.203.969z" fill="#dda86a"/><path d="m302.087 129.401c-11.291-3.652-20.726-11.319-27.154-21.294-1.826-2.834-4.105-5.456-6.839-7.764-13.057-11.021-32.521-10.772-45.281.592-15.219 13.553-15.492 36.895-1.124 50.814 12.371 11.985 28.727 14.586 42.609 11.15 8.087-2.002 25.792-11.03 39.164-18.218 6.474-3.479 5.617-13.018-1.375-15.28z" fill="#ccf3e2"/><path d="m221.689 151.75c12.37 11.984 28.727 14.586 42.609 11.15 8.087-2.002 25.793-11.03 39.164-18.219 6.473-3.479 5.617-13.018-1.376-15.28-11.291-3.652-20.726-11.319-27.154-21.294-1.826-2.834-4.105-5.456-6.839-7.764-13.058-11.021-32.521-10.771-45.281.592-15.218 13.554-15.491 36.895-1.123 50.815zm14.87-54.464c10.852-6.425 24.843-4.027 32.551 5.569 1.614 2.009 2.855 4.184 3.739 6.449 3.111 7.973 8.726 14.696 16.273 18.797 4.674 2.54 3.857 9.464-1.306 11.092-10.665 3.363-24.712 7.466-30.81 7.825-10.468.617-21.804-3.406-28.875-13.6-8.212-11.839-4.516-28.469 8.428-36.132z" fill="#b1b6e1"/><path d="m266.436 230.898c2.317 10.824-3.876 21.326-13.83 23.457-9.955 2.13-19.903-4.917-22.219-15.742z" fill="#d789b9"/><path d="m418.592 366.357 51.912-22.883c4.41 10.006 5.835 21.076 4.103 31.872-7.607 47.397-93.413 33.555-93.413 33.555s-25.685-65.518 13.617-93.95c9.919-4.629 21.248-6.459 32.771-4.609z" fill="#c2b2eb"/><path d="m390.116 395.33c-5.444-5.441-62.408 17.078-74.397-.278-.262-5.947-2.433-16.081-3.429-19.899-1.479-5.673-3.598-11.654-5.944-17.793l-180.97 38.73c.13 6.816.909 13.737 2.396 20.684 11.555 53.991 34.668 89.009 111.717 84.866l17.388-1.415c90.358-10.463 155.382-82.764 133.239-104.895z" fill="#9781dd"/><path d="m390.116 395.33c-2.603-2.602-16.988 1.189-32.601 3.957-11.474 28.066-58.507 67.84-118.094 75.152l-15.263 1.315c-67.637 3.854-87.926-28.721-98.069-78.945-.41-2.029-.736-4.054-1.024-6.076-.164 2.006-.302 4.005-.417 5.994l.744-.159c.156 6.661.929 13.421 2.381 20.206 11.555 53.991 34.668 89.009 111.717 84.866l17.387-1.414c90.358-10.464 155.382-82.765 133.239-104.896z" fill="#8962de"/><path d="m290.52 119.616c.47-1.372.894-2.803 1.257-4.308 4.748-19.67-9.763-45.087-15.887-46.566-2.763-.667-9.27 2.232-16.014 7.413 4.249 5.198 9.4 16.106 10.697 27.318 6.668 5.359 13.154 10.953 19.947 16.143z" fill="#e1bdfc"/><path d="m308.212 362.366c-.197.061-.402.115-.62.157-9.164 1.753-18.405 3.151-27.414 5.579 2.582 8.5 4.529 14.695 5.347 15.922 4.692 9.97 25.074 23.159 35.186 22.285-.605-3.061-8.002-29.548-8.421-31.155-1.074-4.119-2.487-8.402-4.078-12.788z" fill="#8962de"/><path d="m324.29 193.624s-8.398-23.488-18.641-39.839c-1.405-2.243-3.153-4.694-5.209-7.231-5.281 3.22-10.824 6.01-16.39 8.819 8.745 16.007 19.489 43.394 19.489 43.394 18.421 11.818 22.584 22.1 20.125 41.694-2.028 16.167-9.795 29.445-21.63 39.686-6.741 5.832-19.95 11.547-31.293 15.228-7.614 2.47-11.539 10.858-8.484 18.257 4.928 11.937 10.506 29.992 15.012 44.857 8.986-2.442 18.207-3.842 27.354-5.584-5.489-14.31-12.74-31.606-21.396-43.292 12.05-1.503 33.128-8.573 44.978-18.25 13.482-11.009 22.33-25.283 24.641-42.662 2.8-21.064-7.572-42.373-28.556-55.077z" fill="#e1bdfc"/><path d="m145.793 397.596c-6.935 7.895-17.185 10.231-22.892 5.218-5.707-5.014-4.804-19.26 2.131-27.155 6.936-7.895 27.697 14.042 20.761 21.937z" fill="#a1e8c3"/><path d="m57.217 58.505 6.397 17.988c.274.77.816 1.381 1.5 1.689l15.982 7.201c2.258 1.017 2.258 4.615 0 5.632l-15.982 7.201c-.684.308-1.227.919-1.5 1.689l-6.397 17.988c-.904 2.541-4.1 2.541-5.004 0l-6.397-17.988c-.274-.77-.816-1.381-1.5-1.689l-15.982-7.201c-2.258-1.017-2.258-4.615 0-5.632l15.982-7.201c.684-.308 1.227-.919 1.5-1.689l6.397-17.988c.904-2.542 4.1-2.542 5.004 0z" fill="#c2b2eb"/><ellipse cx="472.584" cy="53.656" fill="#9781dd" rx="8.124" ry="8.123" transform="matrix(.16 -.987 .987 .16 343.922 511.543)"/><circle cx="442.383" cy="130.8" fill="#9781dd" r="14.243"/><path d="m382.915 12.856 8.624 24.25c.369 1.038 1.1 1.861 2.023 2.277l21.545 9.707c3.044 1.371 3.044 6.221 0 7.593l-21.545 9.707c-.923.416-1.653 1.238-2.023 2.277l-8.624 24.25c-1.219 3.426-5.527 3.426-6.746 0l-8.624-24.25c-.369-1.038-1.1-1.861-2.023-2.277l-21.545-9.707c-3.044-1.371-3.044-6.221 0-7.593l21.545-9.707c.922-.416 1.654-1.238 2.023-2.277l8.624-24.25c1.219-3.425 5.527-3.425 6.746 0z" fill="#c2b2eb"/></g><g><g fill="#3c122c"><ellipse cx="286.064" cy="206.07" rx="9.09" ry="9.09" transform="matrix(.457 -.89 .89 .457 -27.865 366.524)"/><path d="m187.007 227.269c1.051 4.909 5.882 8.037 10.791 6.987 4.909-1.051 8.037-5.882 6.987-10.791-1.051-4.909-5.882-8.037-10.791-6.987-4.91 1.051-8.038 5.882-6.987 10.791z"/><path d="m248.986 260.76c-4.863 0-9.646-1.539-13.834-4.506-5.432-3.848-9.215-9.666-10.652-16.381-.696-3.251 1.376-6.45 4.626-7.146l36.05-7.715c1.561-.333 3.191-.035 4.531.833s2.281 2.232 2.615 3.794c1.437 6.715.366 13.572-3.015 19.306-3.478 5.898-8.963 9.91-15.444 11.297-1.62.347-3.253.518-4.877.518zm-10.283-17.771c.936 1.337 2.083 2.502 3.409 3.441 2.807 1.988 6.086 2.712 9.234 2.038 3.149-.674 5.845-2.676 7.592-5.639.825-1.4 1.396-2.932 1.702-4.535z"/><path d="m235.984 428.741c-3.324 0-6.02-2.695-6.02-6.02v-12.14c0-3.324 2.695-6.02 6.02-6.02 3.324 0 6.02 2.695 6.02 6.02v12.14c-.001 3.325-2.696 6.02-6.02 6.02z"/><path d="m283.023 416.402c-3.324 0-6.02-2.695-6.02-6.02v-12.139c0-3.324 2.695-6.02 6.02-6.02 3.324 0 6.02 2.695 6.02 6.02v12.139c-.001 3.325-2.696 6.02-6.02 6.02z"/><path d="m267.6 459.586c-3.324 0-6.02-2.695-6.02-6.02v-12.139c0-3.324 2.695-6.02 6.02-6.02 3.324 0 6.02 2.695 6.02 6.02v12.139c0 3.324-2.695 6.02-6.02 6.02z"/><path d="m479.684 339.427c-2.236-5.071-8.16-7.368-13.227-5.133l-35.037 15.444 6.068-37.806c.878-5.47-2.845-10.617-8.316-11.495-13.133-2.109-26.483-.234-38.604 5.424-.575.268-1.123.59-1.637.963-28.669 20.739-28.249 56.651-23.846 80.823-9.087 1.782-19.193 3.709-27.798 4.024-6.883.249-10.286-.622-11.918-1.369-.78-6.519-2.489-14.295-3.37-17.678-1.969-7.55-4.958-15.536-8.048-23.415-.339-.883-.686-1.764-1.03-2.645 15.216-5.733 28.38-10.993 38.235-16.824 16.347-9.672 22.491-21.04 18.261-33.787-1.951-5.879-5.845-10.354-11.263-12.942-2.143-1.024-4.463-1.722-6.953-2.143 6.166-9.319 10.111-19.716 11.591-30.845 3.256-24.483-8.288-48.336-30.27-63.049-2.761-7.246-9.883-24.968-18.369-38.516-.744-1.188-1.545-2.377-2.388-3.562 1.595-2.571 2.346-5.639 2.056-8.858-.527-5.826-4.313-10.564-9.88-12.365-1.265-.409-2.509-.883-3.731-1.413.493-1.487.939-3.016 1.321-4.598 5.493-22.758-9.634-55.376-23.287-58.673-9.634-2.324-26.578 8.023-37.649 22.312 1.773-9.318 1.557-19.056-5.056-28.781-.027-.04-.059-.075-.087-.115-.748-13.732-4.825-29.617-8.507-42.48-1.339-5.779-6.471-9.911-12.468-9.925h-.031c-5.582 0-10.426 3.571-12.16 8.728-8.586 17.483-14.812 32.962-11.533 56.164-2.02 3.111-3.379 6.345-4.26 9.599-13.488-1.931-24.402.815-32.555 8.246-5.847 5.329-9.412 12.478-11.47 20.254-10.723-4.026-21.121-4.976-26.775-1.571-8.893 5.358-13.75 26.137-10.898 44.813-1.779 1.147-3.443 2.449-4.976 3.927-13.143 12.678-12.398 32.822-10.625 44.252-12.344 7.245-33.887 26.03-34.267 69.005-.272 30.793 12.133 48.518 22.587 57.965 3.419 3.089 6.843 5.511 9.994 7.395-5.28 8.178-9.993 20.405-6.689 35.842 3.769 17.61 17.918 29.097 28.404 35.391.896 2.732 2.455 5.421 4.91 7.957.73.754 1.497 1.414 2.283 2.028.405 2.963.913 5.925 1.545 8.879 7.131 33.316 17.752 54.792 34.442 69.631 17.732 15.767 42.438 23.496 75.289 23.495 3.99 0 8.104-.114 12.335-.341.091-.005.183-.011.274-.019l17.388-1.414c.114-.009.227-.021.341-.034 75.632-8.758 131.528-57.169 143.671-89.476 1.996.063 4.07.102 6.223.102 5.72 0 11.922-.256 18.219-.948 43.312-4.764 55.647-25.977 58.369-42.935 2.044-12.736.374-25.706-4.828-37.508zm-174.545-11.38c-1.87-4.066-3.812-8.016-5.858-11.747 8.325-2.447 17.69-6.104 25.846-10.783l4.931 12.442c-7.634 3.45-16.487 6.904-24.919 10.088zm35.726-15.499-4.404-11.111c5.88-1.226 10.527-1.523 13.043-.322.334.16.576.275.868 1.157.986 2.97-2.958 6.526-9.507 10.276zm-39.036-175.426c.051.571-.038 1.623-1.217 2.257-18.52 9.956-31.93 16.234-37.761 17.677-13.482 3.335-27.306-.263-36.974-9.63-5.781-5.601-8.872-13.119-8.702-21.171.168-8.043 3.593-15.439 9.641-20.825 5.366-4.779 12.171-7.178 18.982-7.178 6.557 0 13.123 2.225 18.413 6.69 2.214 1.869 4.12 4.031 5.662 6.424 7.316 11.357 18.099 19.795 30.361 23.761 1.268.412 1.543 1.427 1.595 1.995zm-95.344.063c.587 2.23 1.36 4.406 2.313 6.502-4.244-.456-7.506-1.439-9.663-2.511zm66.829-57.774c3.927 4.975 9.981 17.864 9.338 29.152-.936-1.191-1.828-2.426-2.659-3.716-2.191-3.399-4.888-6.462-8.016-9.103-3.513-2.965-7.424-5.227-11.542-6.804 4.582-4.586 9.613-8.036 12.879-9.529zm-60.575-44.064c1.618 7.549 2.78 15.153 2.755 21.486l-5.15 3.066c-1.029-9.339 0-17.008 2.395-24.552zm-4.866 40.034 12.976-7.724c1.16 3.695.723 8.112-1.253 15.3-.143.518-.229 1.036-.287 1.554l-13.355 7.892c-1.66-9.375-.117-14.112 1.919-17.022zm-8.737 34.981c.211-.094.421-.194.625-.314l14.064-8.312c-5.078 6.422-8.065 14.149-8.602 22.434l-10.131 5.5c-.285-7.208 1.05-13.595 4.044-19.308zm-31.674-12.804c4.414-4.017 11.465-4.164 18.511-2.812.337 2.035.743 3.972 1.164 5.77.317 1.355.901 2.576 1.674 3.632-2.29 4.224-3.895 8.744-4.827 13.536l-1.203.258c-4.324.925-8.56 2.186-12.669 3.767-2.663-3.162-5.833-6.076-9.298-8.685.978-6.58 3.031-12.176 6.648-15.466zm-40.939 21.837c7.186.856 23.69 7.122 30.237 17.991.335.557.646 1.112.945 1.666 2.593 4.801 8.55 6.646 13.404 4.159 4.067-2.085 8.359-3.723 12.794-4.9.029.18.052.359.083.54.013.268.049.552.08.832.007.1.017.199.029.298.001.009.001.017.002.025.003.023.003.045.006.068 0 .002.001.005.001.008v.006c.001.003.002.005.002.008.007.053.02.103.028.156.013.079.025.158.042.236 1.933 11.443 17.164 15.509 29.861 15.509.082 0 .165-.001.247-.001 1-.004 2.019-.044 3.044-.1.059.057.113.118.172.175 9.576 9.278 22.217 14.249 35.393 14.249 4.256 0 8.569-.519 12.851-1.579 5.565-1.378 15.388-5.682 29.251-12.804.937 1.294 1.658 2.382 2.151 3.171 9.526 15.208 17.616 37.668 17.696 37.891.777 2.172 2.278 4.01 4.251 5.204 17.018 10.304 26.141 27.612 23.805 45.172-1.884 14.168-8.963 26.352-21.041 36.215-10.46 8.542-29.878 14.818-39.873 16.065-3.539.441-6.577 2.728-7.981 6.006s-.962 7.055 1.16 9.921c6.293 8.496 11.979 20.685 16.987 33.04.417 1.059.835 2.119 1.252 3.173.254.643.504 1.277.756 1.914l-114.726 24.256c4.068-4.173 8.277-8.572 12.642-13.138l4.392-4.591c2.3-2.4 2.219-6.211-.181-8.511-2.401-2.301-6.214-2.218-8.511.182l-4.401 4.599c-9.873 10.325-19.502 20.394-28.206 28.42l-19.61-18.409c7.529-8.969 17.177-19.021 27.354-29.621l4.403-4.59c2.3-2.4 2.219-6.211-.181-8.511-2.401-2.301-6.214-2.218-8.511.182l-4.395 4.581c-2.056 2.142-4.073 4.243-6.049 6.31 4.048-9.459 8.914-17.796 14.531-24.749 2.669-3.304 2.969-7.93.749-11.551-7.262-11.839-12.044-24.761-15.993-43.206-.013-.06-.026-.12-.04-.18l-9.717-41.64c-2.66-12.515-1.553-25.374 3.204-37.19 1.781-4.425.201-9.493-3.781-12.12-3.296-2.175-6.268-5.437-8.833-9.694-6.549-10.871-4.377-28.39-1.775-35.143zm1.507 282.551c-.009 0-.018 0-.027 0-2.034 0-3.645-.726-5.218-2.352-4.85-5.01-1.957-13.234 5.341-23.54l17.879 16.785c-7.096 5.623-13.254 9.093-17.975 9.107zm-17.986-68.967c3.045-2.378 4.497-6.284 3.665-10.058-.833-3.773-3.715-6.724-7.479-7.6-1.291-.326-31.623-8.474-31.239-51.728.382-43.292 26.852-53.364 28.671-54.003 5.243-1.548 8.062-6.973 6.606-12.249-1.539-5.581-4.154-22.233 1.877-30.841 2.304 3.566 4.855 6.739 7.664 9.443-4.098 13.549-4.698 27.887-1.701 41.889.013.06.027.12.04.18l9.718 41.643c3.815 17.799 8.428 31.205 15.031 43.413-14.514 20.466-21.865 45.124-25.472 67.343-.223.326-.457.655-.672.979-1.008 1.512-2.556 3.842-4.058 6.688-5.474-4.369-10.675-10.276-12.256-17.66-3.546-16.572 9.129-27.052 9.605-27.439zm273.125 80.005c-9.459 27.178-62.44 69.686-127.279 77.257l-17.076 1.389c-4.016.214-7.865.32-11.559.32-60.799-.002-79.271-28.671-89.673-77.274-.18-.841-.335-1.683-.488-2.525 7.988-3.021 16.729-9.62 26.375-18.501l135.066-28.557c1.603 4.384 3.004 8.596 4.046 12.594 1.006 3.858 2.907 13.109 3.115 17.81.083 1.884.696 3.708 1.768 5.26 11.35 16.432 39.839 10.835 62.728 6.338 4.584-.901 10.452-2.053 14.016-2.461.661 2.647-.278 6.164-1.039 8.35zm81.532-39.227c-3.844 23.951-37.844 27.349-60.814 26.847-1.279-5.943-4.286-9.98-6.678-12.37-3.067-3.064-6.892-4.021-12.3-3.763-3.544-18.932-4.336-46.118 15.021-60.826 5.108-2.259 10.507-3.569 15.982-3.899l-7.226 45.021c-.582 3.629.866 7.286 3.776 9.532 2.91 2.247 6.815 2.721 10.177 1.238l41.737-18.398c1.098 5.445 1.216 11.063.325 16.618z"/></g><path d="m196.54 479.077c-1.766 0-3.554-.466-5.176-1.446-9.726-5.873-18.116-13.959-24.262-23.383-3.027-4.641-1.717-10.857 2.925-13.884 4.643-3.027 10.858-1.717 13.884 2.924 4.505 6.909 10.669 12.844 17.825 17.165 4.743 2.864 6.266 9.031 3.403 13.774-1.886 3.122-5.2 4.85-8.599 4.85z" fill="#fff"/><path d="m165.609 433.407c-4.854 0-9.12-3.53-9.898-8.476-.215-1.364-.374-2.728-.474-4.053-.417-5.525 3.723-10.343 9.248-10.761 5.547-.408 10.342 3.723 10.761 9.248.06.791.157 1.615.288 2.45.86 5.473-2.88 10.608-8.353 11.469-.529.083-1.054.123-1.572.123z" fill="#fff"/><path d="m261.228 129.998c-2.964 0-5.897-1.307-7.877-3.812-4.448-5.626-8.699-6.091-9.711-6.304-1.013-.212-9.819-1.383-7.663-12.32 1.714-8.694 9.891-7.68 9.891-7.68 1.399.086 13.217 1.201 23.224 13.86 3.436 4.347 2.698 10.656-1.649 14.092-1.842 1.457-4.037 2.164-6.215 2.164z" fill="#fff"/></g></g></svg>