<svg id="Capa_1" enable-background="new 0 0 510.319 510.319" height="512" viewBox="0 0 510.319 510.319" width="512" xmlns="http://www.w3.org/2000/svg"><g><g><path d="m160.004 371.548s-27.03-12.326-30.185-34.891c-3.155-22.566 15.25-34.916 15.25-34.916s-37.041-11.489-32.985-61.59 38.482-58.271 38.482-58.271-13.666-66.649 54.263-39.351c0 0-16.64-89.787 48.677-60.641l16.779 160.624z" fill="#c1e5ef"/><path d="m143.903 298.171s-28.498-14.389-24.177-43.56c3.241 13.505 29.855 62.777 83.798-6.578 2.005-2.577 21.873 47.09 25.056 46.672l-79.837 70.691s-23.663-15.058-23.663-36.571c0-21.511 18.823-30.654 18.823-30.654z" fill="#a6aaed"/><path d="m362.036 284.954c13.659-9.604 23.108-22.651 26.518-39.121 4.132-19.961-4.322-41.064-23.524-54.666 0 0-6.416-23.053-15.089-39.404-3.594-6.775-9.992-15.564-18.858-23.17 3.428-3.622 6.286-8.482 8.238-14.601 5.899-18.493-6.232-43.812-11.99-45.65-5.758-1.836-30.31 11.783-36.209 30.275-1.511 4.738-2.142 9.175-2.028 13.229-3.059-.036-6.211.153-9.456.606l-43.453 6.074c-6.347.887-12.378 2.592-18.008 4.984-.308-.683-.629-1.369-.98-2.06-8.889-17.485-35.59-27.079-41.035-24.311s-13.429 29.994-4.54 47.479c2.919 5.741 6.526 10.101 10.498 13.153-6.007 12.29-8.539 26.441-6.503 41.008l6.441 40.6c2.86 20.458 7.138 33.634 13.309 45.54-20.858 22.323-30.334 55.547-34.381 86.694l-.113 1.565c-.102 12.575 2.592 23.528 7.533 32.902-11.58 8.479-7.509 22.574 1.278 41.743 9.847 21.482 28.958 39.422 42.538 26.541 13.581-12.881-9.458-30.381-11.018-36.634-.136-.547-.225-1.105-.293-1.667 13.178 6.372 28.906 10.17 46.12 11.411 9.572.69 18.589.583 26.986-.371-12.539 25.929-19.322 45.302-6.448 52.402 13.861 7.643 25.464-28.875 39.976-62.885 16.664-9.81 28.114-26.341 32.843-50.954 2.424-12.618-.072-25.069-3.246-36.612 16.099 14.202 28.908 21.638 37.664 13.313 13.13-12.483-11.322-35.088-40.113-63.173l-10.999 11.275c-1.845-4.021-3.826-7.806-5.953-11.159 11.635-.603 32.29-5.914 44.295-14.356z" fill="#e8c2d8"/><path d="m365.03 191.168s-6.416-23.053-15.088-39.404c-3.594-6.775-9.992-15.563-18.858-23.17 3.428-3.622 6.286-8.482 8.238-14.601 5.899-18.492-6.232-43.812-11.99-45.649-4.991-1.592-24.09 8.429-32.936 23.167 3.647-1.735 6.7-2.501 8.225-2.024 4.995 1.561 15.478 23.191 10.324 39.016-1.705 5.236 4.161 13.464 1.18 16.567 7.681 6.488 13.219 13.992 16.326 19.779 7.497 13.967 13.024 33.669 13.024 33.669 16.642 11.597 20.984 33.404 17.781 44.628-3.953 13.852-10.54 24.785-25.277 31.787-8.143 3.869-22.223 8.663-31.702 10.629-4.852 1.006-7.472 6.232-5.375 10.721 4.723 10.106 8.404 22.026 11.242 31.541l.313 1.088c2.814 10.035 16.071 52.419 3.812 90.847-12.732 39.911 16.889 13.955 26.121-34.088 2.475-12.877-.174-25.584-3.441-37.327l-.363-1.273c-4.38-14.809-10.49-34.598-18.842-47.756 11.633-.607 32.288-5.919 44.293-14.36 13.659-9.604 23.108-22.651 26.518-39.121 4.131-19.961-4.323-41.064-23.525-54.666z" fill="#d392d8"/><path d="m240.353 129.888c-.021-.316-.028-.636-.003-.963-1.268-12.276.965-23.371 8.31-32.74-1.699-13.698.441-24.844 8.215-32.366 2.259-15.722 6.784-32.791 12.895-50.803.696-2.742 4.683-2.446 4.966.369 3.158 15.004 5.193 29.069 4.07 40.496 4.916 8.484 6.243 17.543 2.754 27.395 4.23 8.684 5.681 18.118 2.878 28.635 5.764 8.941 3.676 18.138 3.059 22.442-2.971 14.571-46.223 11.567-47.144-2.465z" fill="#c2b2eb"/><path d="m240.353 129.888c-.021-.316-.028-.636-.003-.963-.901-8.718-.022-16.836 3.186-24.168-.096 2.294-.021 4.644.225 7.049-.023.28-.018.553-.001.822.758 11.976 38.798 14.381 41.466 1.93.108-.71.264-1.577.411-2.566 4.246 8.256 2.43 16.391 1.861 20.361-2.972 14.571-46.224 11.567-47.145-2.465z" fill="#ae85ea"/><path d="m348.215 128.189c-10.551-4.272-19.051-12.259-24.512-22.246-1.551-2.837-3.552-5.504-6.009-7.9-11.734-11.445-30.374-12.549-43.366-2.556-15.496 11.919-17.367 34.233-4.579 48.542 11.01 12.32 26.48 15.937 40 13.606 7.876-1.358 25.439-8.775 38.729-14.731 6.433-2.884 6.271-12.069-.263-14.715z" fill="#c1e5ef"/><path d="m269.749 144.028c11.01 12.32 26.48 15.937 40 13.606 7.876-1.358 25.439-8.775 38.729-14.731 6.433-2.883 6.272-12.069-.263-14.715-10.551-4.273-19.051-12.259-24.513-22.246-1.551-2.837-3.552-5.504-6.008-7.9-11.734-11.445-30.374-12.549-43.366-2.556-15.496 11.919-17.367 34.233-4.579 48.542zm17.983-51.085c10.826-5.399 24.048-2.14 30.761 7.573 1.406 2.034 2.443 4.2 3.133 6.428 2.427 7.843 7.336 14.663 14.274 19.107 4.297 2.753 3.038 9.321-2.014 10.523-10.436 2.482-24.159 5.44-30.018 5.363-10.058-.132-20.627-4.762-26.69-15.003-7.043-11.895-2.359-27.551 10.554-33.991z" fill="#a6aaed"/><path d="m307.106 222.843c1.47 10.517-5.178 20.138-14.85 21.49s-18.704-6.077-20.174-16.594z" fill="#d789b9"/><g fill="#96b4eb"><path d="m369.519 339.832c6.733 5.913 8.726 14.652 4.451 19.519-4.274 4.867-13.197 4.019-19.93-1.894s8.746-23.538 15.479-17.625z"/><path d="m178.1 462.191c10.224 13.905 23.776 21.991 34.124 12.177 11.244-10.665-2.614-24.496-8.601-32.488-8.531 6.746-17.296 13.196-25.523 20.311z"/><path d="m258.063 323.487c8.647 2.35 14.279 9.323 12.58 15.574s-10.086 9.413-18.733 7.062c-8.647-2.35-2.494-24.986 6.153-22.636z"/><path d="m288.237 487.199c-3.745 8.524-11.776 13.239-17.939 10.532-6.162-2.707-8.121-11.812-4.376-20.336 3.746-8.524 26.061 1.28 22.315 9.804z"/></g><path d="m473.566 239.825 8.215 23.098c.352.989 1.048 1.773 1.926 2.168l20.521 9.246c2.899 1.306 2.899 5.925 0 7.232l-20.521 9.246c-.879.396-1.575 1.18-1.926 2.168l-8.215 23.098c-1.16 3.263-5.264 3.263-6.425 0l-8.214-23.098c-.352-.989-1.048-1.773-1.927-2.168l-20.521-9.246c-2.899-1.306-2.899-5.925 0-7.232l20.521-9.246c.879-.396 1.575-1.18 1.927-2.168l8.214-23.098c1.161-3.263 5.265-3.263 6.425 0z" fill="#c2b2eb"/><path d="m56.316 150.915 6.093 17.133c.261.734.777 1.315 1.429 1.609l15.222 6.858c2.151.969 2.151 4.395 0 5.364l-15.222 6.858c-.652.294-1.168.875-1.429 1.609l-6.093 17.133c-.861 2.421-3.905 2.421-4.766 0l-6.093-17.133c-.261-.734-.777-1.315-1.429-1.609l-15.222-6.858c-2.151-.969-2.151-4.395 0-5.364l15.222-6.858c.652-.294 1.168-.875 1.429-1.609l6.093-17.133c.86-2.42 3.905-2.42 4.766 0z" fill="#c2b2eb"/><circle cx="408.552" cy="59.616" fill="#9781dd" r="12.187"/><path d="m22.848 276.824c0 5.228-4.238 9.466-9.466 9.466s-9.466-4.238-9.466-9.466 4.238-9.466 9.466-9.466 9.466 4.238 9.466 9.466z" fill="#9781dd"/></g><g><g fill="#3c122c"><path d="m398.347 247.861c4.824-23.306-4.593-47.029-24.658-62.711-2.171-7.209-7.752-24.569-14.913-38.071-.622-1.172-1.296-2.349-2.008-3.525 1.615-2.341 2.496-5.172 2.44-8.21-.104-5.702-3.453-10.575-8.741-12.717-.001 0-.001 0-.001 0-1.065-.431-2.109-.913-3.134-1.435.55-1.342 1.059-2.725 1.516-4.158 4.35-13.635.813-27.986-1.683-35.328-2.009-5.912-7.668-19.977-16.795-22.889-9.128-2.912-21.885 5.279-26.947 8.935-2.784 2.011-6.527 5.035-10.213 8.957 2.156-10.337 1.062-19.865-3.258-27.95 1.658-12.074.435-25.344-3.672-39.575-1.071-5.057-5.328-8.747-10.755-9.151-5.418-.384-12.1 2.692-14.715 8.442-8.359 13.248-15.797 28.922-14.898 52.956-1.219 1.973-2.267 4.046-3.156 6.188-13.452-3.212-24.625-1.428-33.306 5.412-5.927 4.668-9.835 11.19-12.364 18.413-6.622-2.98-18.053-6.978-25.453-3.213-8.588 4.365-11.936 19.273-12.976 25.48-.681 4.063-1.323 10.115-.834 16.807-1.698.95-3.306 2.043-4.811 3.298-13.473 11.244-14.25 30.505-13.37 41.676-12.434 6.215-34.205 22.844-37.525 63.853-2.395 29.583 8.313 47.493 17.718 57.308 2.966 3.095 5.979 5.593 8.794 7.591-5.577 7.525-10.798 18.885-8.713 33.799 2.983 21.337 21.931 34.73 31.065 40.026.479 10.413 2.747 20.091 6.723 28.861-4.669 13.391-3.687 30.714 2.892 45.065 7.09 15.468 20.419 33.107 36.566 36.23 1.617.313 3.224.468 4.811.468 6.288 0 12.244-2.43 17.134-7.067 9.647-9.15 9.46-18.932 6.767-26.936 6.506 1.317 13.329 2.25 20.441 2.763 2.55.184 5.03.305 7.459.38-5.527 16.658-6.393 28.586-3.038 37.497 2.371 6.296 6.896 10.947 13.087 13.451 2.652 1.072 5.206 1.54 7.649 1.54 13.756 0 23.944-14.854 27.668-20.285 8.336-12.157 16.697-29.262 24.782-45.802 2.314-4.735 4.7-9.608 7.052-14.305 10.845-12.667 16.476-27.991 19.238-42.37 1.034-5.381 1.292-10.7 1.051-15.881 5.492 2.817 10.585 4.233 15.256 4.233 5.697 0 10.771-2.097 15.183-6.291 4.382-4.166 6.716-9.468 6.751-15.332.09-15.272-15.142-31.342-36.986-52.707 5.918-2.307 11.599-5.121 16.324-8.443 16.218-11.409 26.785-27.064 30.556-45.277zm-142.309-118.493c.381 1.952.909 3.87 1.578 5.739-3.529-.686-6.302-1.702-8.203-2.737zm11.375-10.021c.71-7.621 4.465-14.406 10.573-19.104 4.866-3.742 10.699-5.584 16.519-5.584 6.902 0 13.785 2.593 19 7.68 1.973 1.924 3.633 4.105 4.933 6.482 6.242 11.416 16.017 20.268 27.525 24.929 1.064.431 1.238 1.32 1.247 1.812.009.494-.133 1.394-1.186 1.865-18.392 8.243-31.637 13.319-37.295 14.294-13.055 2.255-25.953-2.12-34.506-11.691-5.103-5.709-7.522-13.055-6.81-20.683zm63.346-13.289c-.63-.971-1.231-1.968-1.793-2.995-1.873-3.425-4.256-6.56-7.083-9.315-3.043-2.969-6.481-5.347-10.154-7.128 4.436-3.778 9.14-6.556 12.254-7.781 3.266 5 7.791 16.946 6.776 27.219zm-60.283-73.153c.504 6.672.048 12.873-1.371 18.551-.154.618-.241 1.235-.277 1.849l-1.612.809c-.181-.222-.367-.442-.57-.651-.215-.222-.44-.427-.669-.625.472-7.509 2.064-13.947 4.499-19.933zm-4.699 35.356 8.352-4.19c.596 4.872-.606 9.947-1.994 13.867-.179.505-.302 1.015-.397 1.525l-12.357 6.149c-.194-6.476 2.128-12.848 6.396-17.351zm-14.601 34.799c.191-.072.381-.15.568-.243l12.963-6.452c-4.852 5.637-7.966 12.497-9.019 19.987l-9.626 4.362c.268-6.694 1.96-12.535 5.114-17.654zm-29.343-14.326c4.399-3.459 11.047-3.101 17.605-1.337.088 1.512.244 3.028.486 4.543.236 1.477.788 2.823 1.57 3.989-2.493 3.862-4.356 8.052-5.603 12.544l-1.089.152c-4.12.576-8.181 1.464-12.147 2.654-2.395-3.312-5.162-6.19-8-8.672 1.345-6.003 3.605-11.064 7.178-13.873zm-82.11 246.537c-2.218-15.862 10.45-24.899 10.918-25.228 3.198-2.146 4.88-5.939 4.323-9.75s-3.254-6.964-6.933-8.104c-.294-.092-29.351-9.598-25.98-51.232 3.325-41.071 29.065-48.862 30.873-49.359 5.325-1.159 8.512-6.35 7.443-11.702-1.058-5.298-2.383-20.783 3.494-28.631 1.866 3.326 3.964 6.335 6.309 8.969-4.814 12.68-6.355 26.344-4.455 39.935.009.061.018.121.027.182l6.427 40.513c2.416 17.231 5.888 30.357 11.327 42.47-14.421 17.718-24.508 41.965-30.11 72.284-5.981-4.705-12.449-11.659-13.663-20.347zm65.619 131.841c-1.694 1.606-2.934 1.755-4.384 1.476-3.048-.589-7.232-3.471-11.495-8.242l11.792-9.803c.471.796.956 1.592 1.452 2.4 5.965 9.718 5.531 11.423 2.635 14.169zm65.978 23.126c-1.009-.408-1.463-.884-1.868-1.958-.775-2.06-1.193-5.866.211-12.797l11.402 5.466c-6.617 9.05-9.668 9.282-9.745 9.289zm74.59-146.89c-2.755-9.285-5.841-19.193-9.512-28.527 7.022 6.86 13.596 13.392 18.964 19.325l-9 9.59c-.15-.128-.301-.259-.452-.388zm22.008 11.776c-.532.506-1.238.742-2.097.742-2.359-.001-5.858-1.79-9.996-4.678l7.256-7.731c4.782 6.525 5.376 9.585 5.369 10.711-.002.292-.003.452-.532.956zm-11.634-78.35c-10.539 7.41-29.457 12.052-39.062 12.554-3.549.186-6.734 2.241-8.364 5.399s-1.462 6.944.443 9.945c8.082 12.733 14.335 33.876 17.668 45.141l.345 1.211c2.934 10.545 5.358 21.811 3.255 32.759-2.69 13.997-7.823 25.227-15.443 33.764-.005.02-.013.04-.019.059-.507.596-.96 1.253-1.328 1.983-2.62 5.206-5.268 10.623-7.828 15.86-6.063 12.404-12.302 25.16-18.308 35.348l-14.723-7.059c3.032-9.009 8.046-21.005 16.09-36.988 2.483-4.934.497-10.945-4.436-13.429-4.932-2.48-10.945-.495-13.428 4.436-3.644 7.239-6.82 13.925-9.551 20.118-4.41.082-9.007-.024-13.845-.372-7.902-.57-19.358-2.057-31.024-5.847.099-2.447.529-4.826 1.33-7.361 1.665-5.267-1.254-10.885-6.521-12.55-5.264-1.661-10.884 1.255-12.549 6.521-2.127 6.729-2.762 13.213-1.953 20.18l-14.621 12.154c-1.273-2.151-2.5-4.459-3.638-6.941-4.94-10.777-5.333-24.689-.936-33.08 2.132-4.07 1.177-8.929-2.017-11.926-3.146-7.032-4.992-15.303-4.952-25.081l.069-.949c4.74-36.202 15.417-63.411 31.734-80.875 2.89-3.093 3.52-7.671 1.572-11.429-6.111-11.79-9.784-24.447-12.283-42.322-.009-.061-.018-.121-.027-.182l-6.426-40.504c-1.672-12.084.262-24.235 5.595-35.145 2.087-4.271.879-9.422-2.89-12.319-2.96-2.275-5.544-5.559-7.678-9.757-5.355-10.535-2.262-26.753.608-33.146 6.857 1.449 21.782 8.507 27.139 19.042.278.549.533 1.094.777 1.637 2.235 4.959 8.023 7.221 13.028 5.094 3.927-1.669 8.032-2.916 12.238-3.734.004.038.005.076.009.114-.005.258.009.534.02.807 0 .091.002.183.007.274.001.022 0 .042.002.064.001.014 0 .027.001.04.004.064.015.125.02.188.007.075.013.15.024.226 1.085 11.29 15.662 16.278 27.948 17.111.928.064 1.875.097 2.829.115.03.034.058.07.088.104 9.38 10.497 22.652 16.28 36.68 16.28 2.914 0 5.862-.25 8.813-.759 5.391-.929 14.998-4.331 28.602-10.114.757 1.229 1.338 2.263 1.738 3.017 8.046 15.171 14.228 37.181 14.289 37.399.616 2.215 1.977 4.149 3.853 5.479 15.449 10.944 22.926 27.987 19.512 44.478-2.757 13.33-10.32 24.421-22.476 32.968z"/><path d="m215.877 299.506-5.162-1.643c-3.158-1.007-6.533.738-7.539 3.895-1.007 3.157.737 6.532 3.894 7.539l5.173 1.646c10.982 3.489 22.126 7.03 31.531 10.653l-6.251 20.32c-9.632-2.417-20.744-5.971-32.099-9.604l-5.164-1.65c-3.158-1.006-6.533.737-7.539 3.895-1.007 3.157.737 6.532 3.894 7.539l5.153 1.646c18.419 5.893 34.326 10.982 47.004 12.672 1.82.242 4.763.635 8.14.635 7.788 0 17.878-2.087 21.783-12.91 1.674-4.64 1.448-9.344-.654-13.604-6.602-13.377-31.121-21.167-62.164-31.029zm51.529 40.558c-1.764 4.888-8.492 5.722-18.08 4.295l5.539-18.004c6.301 3.091 10.814 6.249 12.413 9.488.669 1.354.707 2.617.128 4.221z"/><path d="m318.962 201.648c.667 4.77 5.074 8.096 9.843 7.429 4.77-.667 8.096-5.074 7.429-9.843-.667-4.77-5.074-8.096-9.843-7.429-4.77.666-8.096 5.073-7.429 9.843z"/><path d="m231.358 213.894c.667 4.77 5.074 8.096 9.843 7.429 4.77-.667 8.096-5.074 7.429-9.843-.667-4.77-5.074-8.096-9.843-7.429-4.77.667-8.096 5.074-7.429 9.843z"/><path d="m289.943 250.495c-5.272 0-10.386-1.856-14.662-5.374-4.976-4.093-8.223-9.971-9.143-16.551-.22-1.576.195-3.176 1.153-4.445.958-1.27 2.382-2.107 3.959-2.328l35.024-4.896c3.289-.451 6.314 1.83 6.773 5.111.92 6.581-.591 13.124-4.253 18.424-3.77 5.456-9.349 8.95-15.708 9.839-1.05.147-2.1.22-3.143.22zm-9.834-17.819c.76 1.203 1.699 2.276 2.796 3.178 2.499 2.056 5.524 2.959 8.52 2.537 2.996-.419 5.659-2.115 7.498-4.776.807-1.167 1.416-2.457 1.817-3.822z"/><path d="m117.678 84.505c.017-.237.036-.474.036-.715v-42.301c0-5.522-4.477-10-10-10h-45.659c-5.523 0-10 4.478-10 10v37.575c-9.769.478-17.512 6.9-17.512 14.774 0 8.185 8.36 14.821 18.672 14.821s18.672-6.636 18.672-14.821c0-.212-.029-.418-.04-.628.136-.657.208-1.337.208-2.035v-39.686h25.658v19.634c-9.665.562-17.291 6.95-17.291 14.765 0 8.186 8.36 14.821 18.672 14.821s18.672-6.635 18.672-14.821c0-.467-.035-.927-.088-1.383z"/><path d="m476.743 126.798-20.875-8.493c-3.083-1.254-6.588-.893-9.351.966-2.762 1.857-4.418 4.968-4.418 8.297v37.576c-9.769.478-17.512 6.9-17.512 14.774 0 8.185 8.36 14.82 18.672 14.82s18.672-6.635 18.672-14.82c0-.212-.029-.418-.04-.628.136-.657.208-1.337.208-2.035v-34.823l7.106 2.892c5.114 2.079 10.95-.378 13.031-5.494 2.083-5.116-.377-10.951-5.493-13.032z"/></g><path d="m309.775 126.344c-3.201 0-6.344-1.533-8.279-4.379-3.726-5.48-8.311-6.497-8.354-6.503-5.474-.735-9.315-5.769-8.58-11.242s5.772-9.31 11.242-8.58c1.349.182 13.438 2.144 22.232 15.081 3.105 4.567 1.919 10.787-2.648 13.893-1.722 1.169-3.678 1.73-5.613 1.73z" fill="#fff"/></g></g></svg>