<svg id="Capa_1" enable-background="new 0 0 512 512" height="512" viewBox="0 0 512 512" width="512" xmlns="http://www.w3.org/2000/svg"><g><g><path d="m64.23 181.333-36.743-52.407c-2.893-4.126-1.893-9.816 2.233-12.709l101.476-71.146c4.126-2.893 9.816-1.893 12.709 2.233l36.743 52.407c2.893 4.126 1.893 9.816-2.233 12.709l-101.476 71.146c-4.126 2.893-9.816 1.893-12.709-2.233z" fill="#a1e8c3"/><ellipse cx="102.139" cy="114.883" fill="#ccf3e2" rx="35.496" ry="35.496" transform="matrix(.756 -.655 .655 .756 -50.278 94.893)"/><path d="m344.157 74.923 26.639-58.197c2.097-4.582 7.512-6.596 12.094-4.499l112.687 51.58c4.582 2.097 6.596 7.512 4.499 12.094l-26.639 58.197c-2.097 4.582-7.512 6.596-12.094 4.499l-112.687-51.58c-4.582-2.098-6.597-7.512-4.499-12.094z" fill="#a1e8c3"/><ellipse cx="420.654" cy="74.033" fill="#ccf3e2" rx="35.496" ry="35.496" transform="matrix(.795 -.607 .607 .795 41.402 270.499)"/><path d="m104.746 480.782c25.345 16.749 83.368 18.496 96.682-2.41-3.623-1.606 9.125-40.327 7.108-43.238-3.345-4.826-48.808 14.051-63.968 7.7-7.62-3.192-46.685-36.945-65.498-21.882-18.815 15.064.331 43.081 25.676 59.83z" fill="#fff"/><path d="m88.138 467.223c-15.691-15.803-23.404-34.794-9.07-46.272 15.576-12.472 30.5 7.999 39.498 17.225-10.116 9.717-19.902 19.792-30.428 29.047z" fill="#a1e8c3"/><path d="m441.093 500.589s33.725-15.824 37.807-44.67-18.737-44.58-18.737-44.58 46.178-14.782 41.477-78.798-47.489-74.365-47.489-74.365 17.468-85.211-67.26-50.143c0 0 21.331-114.788-60.161-77.366l-21.993 205.313z" fill="#ccf3e2"/><path d="m458.522 411.079s49.787-14.344 45.724-81.375c-.731-12.055-10.016-29.252-12.935-37.989 3.448 95.694-66.507 128.895-127.569 68.206-3.277-3.257-18.396 28.624-22.749 27.327l95.691 116.669s36.438-15.732 41.262-45.788c4.825-30.055-19.424-47.05-19.424-47.05z" fill="#b1b6e1"/><path d="m438.896 500.496c-13.94-37.539-35.943-66.877-61.439-86.086l-.009.22c10.33-14.637 18.385-31.298 25.886-57.857l15.899-52.567c5.341-18.911 4.56-38.101-1.158-55.458 5.811-3.318 11.377-8.434 16.283-15.503 14.941-21.528 9.318-59.014 2.615-63.666-6.704-4.653-43.787 3.196-58.728 24.724-.59.851-1.14 1.7-1.672 2.548-7.017-4.189-14.69-7.541-22.929-9.868l-56.41-15.932c-4.213-1.19-8.35-2.012-12.406-2.52.887-5.346.858-11.333-.281-17.879-4.449-25.548-34.471-48.033-42.427-46.648-7.955 1.385-28.61 32.695-24.162 58.243 1.472 8.453 4.372 15.405 8.251 20.821-13.116 8.457-23.181 18.927-29.168 27.242-14.448 20.067-27.128 49.413-27.128 49.413-27.886 14.516-42.909 40.912-41.065 68.082 1.521 22.419 11.659 41.403 27.993 56.596 14.357 13.353 40.73 24.135 56.017 27.052l2.347 1.131c-8.946 29.701-14.671 67.989-14.629 87.913" fill="#fff"/><path d="m341.292 211.438c.089-.414.161-.835.193-1.272 4.078-15.976 3.298-31.075-4.575-44.895 4.927-17.77 4.28-32.919-4.523-44.381.091-21.221-2.548-44.664-7.099-69.663-.383-3.76-5.71-4.149-6.635-.484-7.11 19.21-12.552 37.4-13.305 52.721-8.157 10.25-11.683 21.962-9 35.666-7.289 10.649-11.054 22.832-9.408 37.279-9.368 10.688-8.407 23.251-8.434 29.061 1.073 19.838 58.822 24.332 62.786 5.968z" fill="#f6e06e"/><path d="m341.292 211.438c.089-.414.161-.835.193-1.272 2.896-11.346 3.325-22.246.52-32.563-.323 3.051-.881 6.141-1.677 9.272-.025.374-.085.734-.16 1.087-3.346 15.679-54.089 11.413-55.178-5.565-.004-.959-.041-2.136-.041-3.472-7.228 10.08-6.419 21.186-6.444 26.545 1.074 19.838 58.823 24.332 62.787 5.968z" fill="#dda86a"/><path d="m199.078 188.084c14.781-3.581 27.576-12.472 36.749-24.603 2.605-3.446 5.771-6.578 9.487-9.264 17.747-12.829 42.597-10.64 57.811 5.11 18.146 18.784 16.252 48.639-3.449 65.047-16.961 14.127-38.114 15.879-55.525 10.153-10.143-3.336-31.902-16.576-48.3-27.048-7.938-5.069-5.927-17.177 3.227-19.395z" fill="#ccf3e2"/><path d="m303.124 159.326c-15.215-15.749-40.065-17.938-57.811-5.109-3.716 2.686-6.881 5.819-9.487 9.265-9.173 12.13-21.968 21.021-36.749 24.603-9.153 2.218-11.164 14.326-3.227 19.395 16.398 10.472 38.157 23.711 48.299 27.048 17.411 5.726 38.564 3.973 55.525-10.153 19.702-16.41 21.597-46.265 3.45-65.049zm-9.92 41.002c-10.017 12.348-24.89 16.398-38.208 14.604-7.759-1.045-25.316-7.639-38.622-12.962-6.441-2.577-6.819-11.504-.602-14.301 10.039-4.516 17.86-12.568 22.603-22.458 1.347-2.81 3.142-5.469 5.398-7.882 10.773-11.523 28.884-13.243 42.135-3.988 15.805 11.037 18.93 32.645 7.296 46.987z" fill="#b1b6e1"/><path d="m376.579 414.482c10.28-14.602 18.307-31.239 25.783-57.709l15.9-52.567c5.341-18.91 4.56-38.101-1.159-55.458 5.811-3.318 11.378-8.433 16.283-15.502 14.941-21.529 9.319-59.014 2.615-63.666-3.092-2.146-12.653-1.625-23.52 1.665 4.37 7.331 3.672 40.943-11.033 59.872-5.075 6.533-10.464 11.165-15.832 14.067 2.658 16.881.88 35.284-6.072 53.129l-20.222 49.555c-6.488 16.652-12.628 29.111-19.143 39.563-5.333 8.555-4.981 19.467 1.025 27.563 8.213 11.069 15.305 24.177 20.891 39.104 5.85 15.633-6.223 32.14-22.888 31.214l-138.411-3.083c-1.007 8.836-1.204 12.131-1.191 18.268h238.319c-13.922-37.494-35.889-66.804-61.345-86.015z" fill="#e1bdfc"/><path d="m107.156 278.94-21.013-2.171c-1.824-2.331-4.741-3.737-7.913-3.492l-14.837 1.142-19.851-2.051c-3.586-.37-6.892 1.389-8.687 4.248l-20.389 1.57c-5.039.388-8.809 4.787-8.421 9.826l9.51 123.514c.388 5.039 4.787 8.809 9.825 8.42l36.148-2.782 31.015 3.204c5.027.519 9.523-3.135 10.042-8.162l12.731-123.224c.521-5.025-3.133-9.522-8.16-10.042z" fill="#a1e8c3"/><g fill="#f6e06e"><path d="m280.222 428.887c-1.5-.75-7.176-2.33-11.959-3.377l.422-2.535c.55-3.311-2.085-6.291-5.887-6.658-3.801-.362-7.33 2.02-7.882 5.33l-.492 2.958c-.243.034-.478.052-.724.092-7.953 1.264-14.3 4.401-17.305 13.334-1.695 5.038-1.748 11.79 2.438 16.988 1.777 2.207 3.433 4.248 7.105 6.317l-2.466 14.144c-2.315-.207-4.828-.756-6.406-1.618-3.136-1.714-8.582-4.688-12.68.805-4.067 5.451.696 12.024 3.577 14.143 5.085 3.741 9.812 4.966 14.798 5.918l-.477 2.867c-.55 3.311 2.085 6.291 5.887 6.658.574.055 1.141.048 1.693-.016 3.106-.359 5.72-2.503 6.188-5.313l.576-3.461c10.748-1.484 18.37-4.817 21.424-16.13 2.738-10.14-1.14-19.547-11.827-24.099-.894-.381-.92-.829-1.829-1.23l1.553-9.341c1.047.277 1.626.347 3.605 1.01 2.124.712 12.124 6.764 16.846-1.69 4.849-8.68-2.678-13.344-6.178-15.096z"/><path d="m315.507 454.542h-15.03c-5.612 0-10.161-4.549-10.161-10.161v-.473c0-5.612 4.549-10.161 10.161-10.161h15.03c5.612 0 10.161 4.549 10.161 10.161v.473c0 5.611-4.549 10.161-10.161 10.161z"/><path d="m356.56 443.499-14.053 5.339c-5.246 1.993-11.115-.644-13.108-5.89l-.168-.442c-1.993-5.246.644-11.115 5.89-13.108l14.048-5.337c5.246-1.993 11.115.643 13.11 5.889l.168.442c1.995 5.246-.641 11.114-5.887 13.107z"/><path d="m392.934 426.887-13.25 7.096c-4.947 2.649-11.105.787-13.755-4.16l-.223-.417c-2.65-4.947-.787-11.105 4.16-13.755l13.25-7.096c4.947-2.65 11.105-.787 13.755 4.16l.223.417c2.65 4.947.788 11.105-4.16 13.755z"/><path d="m216.689 443.854-13.395-6.817c-5.001-2.545-6.992-8.663-4.447-13.665l.215-.422c2.545-5.001 8.663-6.992 13.665-4.447l13.395 6.817c5.001 2.545 6.992 8.663 4.447 13.665l-.215.422c-2.546 5.001-8.664 6.992-13.665 4.447z"/></g><ellipse cx="67.206" cy="348.195" fill="#ccf3e2" rx="35.496" ry="35.496" transform="matrix(.23 -.973 .973 .23 -287.116 333.605)"/></g><g><g fill="#3c122c"><path d="m56.004 187.067c2.94 4.195 7.339 6.994 12.385 7.882 1.12.197 2.244.294 3.359.294 3.903 0 7.706-1.193 10.968-3.48l101.434-71.116c8.659-6.071 10.765-18.054 4.695-26.713l-36.715-52.367c-6.072-8.657-18.055-10.762-26.712-4.693l-101.434 71.117c-8.657 6.07-10.764 18.053-4.694 26.714zm80.209-133.266 35.706 50.927-29.672 20.804c3.388-12.838.591-27.081-8.745-37.846-6.875-7.927-16.12-12.603-25.782-13.908zm-53.388 38.812c5.568-4.829 12.445-7.195 19.295-7.195 8.256 0 16.47 3.44 22.29 10.153 10.65 12.279 9.324 30.934-2.956 41.584-12.281 10.649-30.936 9.325-41.585-2.957-10.651-12.28-9.324-30.935 2.956-41.585zm-21.27 13.531c-.404 1.895-.685 3.829-.825 5.796-.786 11.061 2.782 21.766 10.047 30.142 7.106 8.193 16.919 13.189 27.694 14.14l-26.549 18.614-35.706-50.927z"/><path d="m251.596 320.229c-3.174-.976-6.543.808-7.519 3.984-.809 2.63-2.483 4.798-4.714 6.102-2.067 1.208-4.374 1.514-6.496.862s-3.859-2.202-4.89-4.362c-1.114-2.333-1.281-5.066-.472-7.697.976-3.176-.807-6.543-3.984-7.519-3.173-.975-6.543.808-7.519 3.984-1.697 5.523-1.301 11.353 1.115 16.416 2.498 5.235 6.837 9.028 12.213 10.681 1.907.586 3.856.876 5.801.876 3.541 0 7.072-.962 10.303-2.851 4.844-2.832 8.447-7.433 10.145-12.956.977-3.176-.806-6.543-3.983-7.52z"/><path d="m203.636 233.218c-3.052 1.313-4.463 4.852-3.149 7.905 1.313 3.053 4.852 4.46 7.905 3.149 2.511-1.081 5.6-.112 7.031 2.204 1.138 1.841 3.107 2.854 5.124 2.854 1.079 0 2.172-.291 3.158-.9 2.826-1.747 3.701-5.456 1.954-8.282-4.568-7.387-14.036-10.367-22.023-6.93z"/><path d="m309.968 266.64c-3.053 1.313-4.463 4.852-3.15 7.905s4.852 4.46 7.905 3.149c2.512-1.082 5.6-.113 7.031 2.204 1.138 1.841 3.107 2.854 5.124 2.854 1.079 0 2.172-.291 3.158-.9 2.826-1.747 3.701-5.456 1.954-8.282-4.566-7.388-14.035-10.367-22.022-6.93z"/><path d="m253.388 437.899c-2.761-.748-5.65 1.043-6.452 4.003s.786 5.965 3.547 6.714c2.761.748 5.666-9.969 2.905-10.717z"/><path d="m259.608 480.809c3.251.507 6.327-1.906 6.871-5.389.544-3.484-1.65-6.72-4.901-7.227-3.251-.508-5.221 12.109-1.97 12.616z"/><path d="m489.983 402.8c11.368-12.136 24.353-34.303 21.658-70.995-3.886-52.921-31.856-73.095-46.424-80.074 1.244-12.24 1.31-34.46-11.51-49.031.157-2.984.167-5.683.1-7.916-.183-6.164-1.527-26.79-11.115-33.445-9.591-6.655-29.383-.696-35.221 1.288-2.391.813-5.299 1.919-8.463 3.34-1.47-17.064-6.45-34.837-19.375-44.91-9.759-7.606-22.254-9.717-37.271-6.381-.122-6.527-.482-13.319-1.072-20.397 1 .716 2.074 1.344 3.217 1.867l112.641 51.559c2.578 1.18 5.285 1.739 7.952 1.738 7.275 0 14.247-4.159 17.468-11.195l26.617-58.151c2.132-4.658 2.323-9.868.537-14.669-1.786-4.802-5.335-8.62-9.993-10.751l-112.643-51.558c-9.612-4.399-21.018-.159-25.42 9.456l-23.924 52.267c-.755-4.915-1.597-9.956-2.54-15.147-.877-6.235-5.972-11.034-12.3-11.496-6.277-.445-11.949 3.466-13.782 9.407-8.191 22.182-12.439 38.486-13.574 52.205-6.036 8.418-9.372 17.487-9.999 27.098-4.672-7.39-10.096-13.234-13.975-16.936-4.423-4.221-19.747-17.83-31.172-15.848-11.428 1.991-21.243 19.985-23.98 25.452-4.453 8.897-11.457 26.495-8.341 44.39.796 4.569 1.992 8.833 3.531 12.811-4.417 2.438-9.105 4.283-13.95 5.457-6.615 1.603-11.42 6.768-12.539 13.48-.67 4.014.096 7.928 2.039 11.215-7.484 10.841-14.305 23.535-19.149 33.266-2.34.041-4.514 1.453-5.447 3.712l-.506-.175c-1.174 3.398-1.946 6.83-2.365 10.246-15.991 9.705-27.938 23.316-34.699 38.923l.299-2.89c1.086-10.518-6.587-19.959-17.107-21.047l-63.613-6.572c-7.471-.77-14.382 2.891-18.16 8.838l-12.41.956c-4.039.311-7.715 2.176-10.351 5.253-2.637 3.076-3.917 6.995-3.606 11.034l9.509 123.514c.311 4.039 2.176 7.715 5.252 10.351 2.774 2.378 6.232 3.653 9.847 3.653.394 0 .79-.016 1.188-.046l13.243-1.02 24.977 2.582c-.496 2.562-.617 5.269-.326 8.084 2.434 23.556 32.16 50.518 52.682 60.925 12.529 6.354 26.214 9.116 39.668 9.115 12.014-.001 23.83-2.217 34.471-6.037-.002.304-.009.627-.009.923.012 5.531 4.499 10.007 10.027 10.007h.023c5.538-.012 10.018-4.511 10.007-10.05-.025-11.611 2.07-30.484 5.844-50.271 1.569.496 3.187.772 4.819.771 1.686 0 3.382-.266 5.033-.803 1.183-.385 2.294-.91 3.335-1.534.638 3.736 2.151 7.225 4.51 10.154 1.35 1.678 2.826 3.513 5.191 5.369l-.655 3.76c-8.132-4.017-14.559-2.961-19.12 3.148-2.267 3.04-3.169 6.644-2.607 10.421.774 5.191 4.294 9.852 7.442 12.167 4.141 3.047 8.136 4.696 11.833 5.744.176 2.146.971 4.205 2.335 5.981 2.104 2.739 5.395 4.511 9.033 4.861.444.043.891.064 1.339.064.54 0 1.08-.03 1.616-.092 5.554-.642 10.081-4.511 11.279-9.534 9.325-1.929 18.424-6.425 22.029-19.778 2.857-10.58-.241-20.414-7.972-26.807 4.567.79 8.009-.032 10.611-1.625 2.81 4.828 8.028 8.089 14.005 8.089h14.973c5.972 0 11.187-3.255 13.998-8.076.868.619 1.803 1.158 2.797 1.604 2.122.954 4.376 1.432 6.636 1.432 1.943 0 3.891-.354 5.762-1.065l13.997-5.318c4.047-1.538 7.253-4.559 9.027-8.507.142-.316.256-.639.376-.961.689.319 1.396.608 2.136.832 1.551.469 3.136.702 4.712.702 2.633 0 5.243-.649 7.631-1.928l4.99-2.673c17.713 17.824 32.056 40.731 41.954 67.387 1.5 4.041 5.329 6.54 9.401 6.54.229 0 .459-.015.689-.03.499.076 1.004.122 1.513.122 1.426 0 2.876-.306 4.253-.952 1.577-.74 38.69-18.516 43.477-52.344 2.795-19.75-4.72-34.373-11.895-43.432 4.048-2.705 8.587-6.326 13.051-11.093zm-31.041-344.734 31.64 14.483-25.886 56.554-32.929-15.073c2.483-.695 4.921-1.615 7.283-2.782 9.941-4.914 17.373-13.405 20.927-23.907 3.362-9.939 2.722-20.279-1.035-29.275zm-28.838-11.956c15.397 5.21 23.684 21.976 18.473 37.374-2.524 7.457-7.801 13.487-14.86 16.976-7.06 3.49-15.055 4.02-22.512 1.496 0 0 0 0-.001 0-15.397-5.211-23.685-21.976-18.474-37.373 4.154-12.277 15.652-20.032 27.948-20.032 3.125.001 6.305.502 9.426 1.559zm-50.566-24.389 28.163 12.892c-11.976 3.951-22.025 13.275-26.37 26.112-3.587 10.602-2.621 21.661 1.829 31.056l-29.508-13.507zm-35.412 142.21c2.829-8.98 5.327-19.543 4.012-30.014 8.174-1.574 14.59-.598 19.156 2.954 9.441 7.347 12.038 25.14 12.053 41.415-1.979 1.723-3.892 3.583-5.676 5.618-5.549-2.686-11.34-4.888-17.301-6.572l-8.923-2.52c-.976-3.326-2.232-6.556-3.794-9.678.178-.388.341-.785.473-1.203zm-28.833-59.258c.023-.194.046-.388.058-.582.003-.046.011-.089.014-.135.365-7.449 2.051-15.794 4.26-23.972 1.331 10.519 2.161 20.329 2.522 29.568l-6.86-4.814c.002-.021.003-.043.006-.065zm-5.873 10.651 13.845 9.717c.062.136.125.27.194.403.08.157.165.309.253.46.076.132.153.263.236.392.1.156.206.306.314.454.059.082.109.168.171.248 4.577 5.959 5.236 13.638 2.042 25.8l-20.117-14.024c-.019-.521-.066-1.045-.17-1.572-1.567-8.004-.533-15.091 3.232-21.878zm18.862 53.405c.345.277.711.532 1.097.764l3.299 2.3c.349.243.718.429 1.094.589 3.932 8.76 5.029 18.4 3.337 29.203l-15.465-9.967c.384-13.651-4.615-26.558-14.193-36.474-1.355-1.402-2.784-2.698-4.264-3.91zm4.618 44.459c-3.5 2.311-10.333 3.969-18.938 3.833 2.418-3.864 4.302-8.047 5.607-12.425zm-88.964-98.762c5.899 2.434 18.804 12.782 26.012 25.475-9.87.242-19.721 3.34-28.159 9.439-4.115 2.974-7.736 6.511-10.762 10.512-.852 1.126-1.746 2.21-2.661 3.269-.192-.848-.372-1.708-.526-2.594-3.117-17.893 9.883-40.471 16.096-46.101zm-46.945 83.27c.152-.914.798-3.11 3.503-3.765 15.672-3.797 29.924-13.323 40.131-26.821 2.303-3.047 5.066-5.744 8.212-8.018 15.341-11.088 36.818-9.19 49.96 4.414 7.544 7.808 11.377 18.042 10.793 28.814-.576 10.625-5.593 20.622-13.765 27.429-13.71 11.419-32.325 14.804-49.795 9.062-7.44-2.447-24.11-11.824-46.94-26.403-2.419-1.545-2.218-3.997-2.099-4.712zm-84.43 215.541 7.649-74.03c3.65 19.854 13.628 37.492 29.804 52.536 12.122 11.276 30.676 20.192 45.782 25.36-.81.956-1.529 2.002-2.112 3.148l-.186.365c-.496.975-.888 1.985-1.176 3.016-9.744 5.323-26.812 11.998-40.946 9.34-7.008-1.317-15.812-6.543-24.326-11.595-4.575-2.716-9.46-5.612-14.496-8.093.001-.016.005-.031.007-.047zm-69.176-130.803 61.867 6.392-3.725 36.047c-7.479-10.971-20.072-18.19-34.322-18.19-10.492 0-20.081 3.921-27.397 10.364zm23.821 36.282c16.255 0 29.479 13.225 29.479 29.479s-13.225 29.478-29.479 29.478-29.478-13.224-29.478-29.478 13.223-29.479 29.478-29.479zm-54.417-33.445c.544-.636 1.304-1.021 2.139-1.085l8.177-.63-6.514 63.047-4.547-59.055c-.064-.833.2-1.643.745-2.277zm18.045 118.639 3.183-30.809c7.581 10.077 19.636 16.607 33.189 16.607 11.192 0 21.356-4.46 28.83-11.686l-3.336 32.281zm52.853 29.621c-.212-2.045.194-3.153.797-3.914l7.029.727c.672.069 1.341.104 2.007.104 2.126 0 4.211-.357 6.19-1.038 4.263 1.815 9.205 4.565 14.866 7.893l-16.293 20.443c-8.138-8.629-13.921-17.685-14.596-24.215zm108.4 43.708c-18.65 9.364-45.166 12.257-66.598 1.39-6.274-3.182-12.639-7.603-18.451-12.562l18.036-22.629c7.407 4.166 14.965 7.811 22.594 9.247 17.268 3.241 36.193-2.519 49.665-9.097-2.32 11.782-4.095 23.385-5.246 33.651zm33.11-40.965-.193.378c-.505.993-1.367 1.73-2.427 2.075-1.061.343-2.191.257-3.184-.249v-.001l-13.344-6.791c-.994-.505-1.731-1.368-2.076-2.428s-.257-2.191.252-3.189l.186-.365c.505-.994 1.368-1.731 2.428-2.076.425-.138.861-.207 1.295-.207.649 0 1.294.153 1.889.456l13.344 6.79c2.05 1.046 2.87 3.565 1.83 5.607zm55.951 4.774c-.633 1.136-1.425 2.549-7.936-.362-.665-.298-1.19-.532-1.743-.718-1.697-.569-2.603-.787-3.332-.962-.208-.05-.413-.099-.647-.161-1.638-.436-3.382-.158-4.805.762s-2.392 2.395-2.671 4.067l-1.554 9.342c-.421 2.531.809 5.027 3.019 6.25.445.39 1.212 1.002 2.389 1.503 7.498 3.193 10.472 9.228 8.374 16.995-2.01 7.445-6.003 10.297-16.437 11.737-2.609.359-4.68 2.375-5.113 4.973l-.559 3.361c-.104.12-.437.362-.958.422-.145.017-.29.017-.428.005-.206-.02-.355-.065-.457-.109l.406-2.439c.536-3.223-1.598-6.284-4.807-6.897-5.046-.964-8.51-2.022-12.361-4.854-.821-.604-2.415-2.539-2.67-4.246-.101-.683.059-1.062.35-1.452.652-.871.977-1.305 4.971.876 2.945 1.61 6.749 2.152 8.755 2.332 3.112.283 5.928-1.875 6.465-4.958l2.467-14.144c.438-2.511-.754-5.026-2.975-6.277-2.688-1.514-3.756-2.84-5.372-4.849-3.417-4.242-1.952-9.718-1.422-11.294 1.895-5.634 5.296-8.158 12.541-9.309l.159-.02c.156-.018.311-.036.468-.058 2.6-.367 4.663-2.379 5.094-4.97l.476-2.86c.15-.177.681-.496 1.384-.427.207.02.356.065.459.109l-.352 2.106c-.526 3.161 1.518 6.181 4.648 6.866 4.863 1.065 9.568 2.442 10.582 2.894 2.351 1.181 3.967 2.576 4.324 3.735.228.735-.019 1.755-.732 3.031zm38.504 3.304c0 2.301-1.872 4.173-4.174 4.173h-14.973c-2.301 0-4.173-1.871-4.173-4.173v-.416c0-2.301 1.872-4.173 4.173-4.173h14.973c2.301 0 4.174 1.871 4.174 4.173zm37.067-8.656c-.456 1.017-1.282 1.794-2.324 2.191l-13.997 5.318c-1.042.397-2.176.363-3.193-.095-1.017-.456-1.794-1.282-2.191-2.326l-.148-.387c-.396-1.042-.362-2.176.095-3.193.456-1.017 1.282-1.794 2.324-2.191l13.997-5.319c.482-.183.983-.274 1.483-.274.582 0 1.162.123 1.709.369 1.018.457 1.795 1.283 2.192 2.327l.148.387c.395 1.042.362 2.176-.095 3.193zm35.374-16.57c-.322 1.068-1.041 1.944-2.024 2.471l-13.199 7.069c-.982.527-2.111.64-3.178.315-1.067-.322-1.944-1.041-2.469-2.02l-.198-.37c-.527-.983-.639-2.111-.316-3.178.323-1.066 1.042-1.944 2.025-2.471l13.199-7.07c.625-.335 1.298-.494 1.961-.494 1.491 0 2.935.8 3.687 2.204l.196.365c.526.983.639 2.112.316 3.179zm1.591-65.079c-6.46 22.867-13.521 38.966-23.476 53.434-.557.583-1.033 1.234-1.434 1.93l-1.723.922c-3.491 1.87-6.109 4.887-7.492 8.557-.052-.023-.1-.054-.153-.077-3.949-1.774-8.352-1.905-12.398-.367l-13.997 5.319c-3.49 1.326-6.349 3.76-8.21 6.936-2.64-1.866-5.852-2.972-9.324-2.972h-14.973c-3.357 0-6.478 1.026-9.068 2.781-1.863-2.737-4.697-5.09-8.519-7.002-1.646-.825-5.099-1.829-8.208-2.634-.222-2.038-1.005-3.99-2.305-5.683-2.103-2.739-5.394-4.512-9.035-4.863-6.548-.629-12.499 3.313-14.118 9.116-4.474 1.073-9.437 3.132-13.386 7.544-1.501-2.93-3.889-5.438-7.04-7.042l-4.63-2.356c.205-.704.404-1.417.614-2.112 1.423-4.724-.803-9.782-5.247-11.925l-2.346-1.131c-.786-.379-1.619-.654-2.476-.818-13.016-2.482-38.004-12.393-51.066-24.544-15.177-14.116-23.527-30.915-24.818-49.931-1.31-19.311 7.456-37.719 23.442-50.546 4.478 12.057 13.79 21.927 26.472 26.311 21.35 7.379 44.792-3.347 55.088-24.197l11.353 3.915c-4.342 22.911 10.276 46.797 35.024 55.35 26.964 9.319 55.724-3.093 64.237-27.723l-.557-.193c.934-3.08-.722-6.371-3.79-7.428l-162.802-56.148c4.276-8.423 9.845-18.595 15.779-27.317 18.695 11.592 31.861 18.687 39.171 21.09 6.848 2.253 13.843 3.356 20.747 3.356 14.707 0 28.995-5.011 40.508-14.602.269-.224.525-.463.789-.692 1.529.214 3.053.399 4.548.517 1.953.155 3.961.238 5.99.238 14.224 0 29.354-4.085 32.224-15.966.017-.06.03-.119.045-.178.016-.07.037-.137.052-.208.002-.01.003-.02.005-.029.005-.025.007-.045.012-.07.02-.102.037-.204.052-.306.071-.372.144-.745.185-1.095 1.279-5.114 2.049-10.083 2.334-14.901l1.156.326c7.215 2.039 14.118 5.008 20.516 8.829 4.684 2.796 10.74 1.337 13.637-3.284.533-.85.981-1.535 1.414-2.157 10.532-15.175 36.08-22.163 44.466-21.764 3.332 7.752 5.702 34.097-4.829 49.27-3.875 5.583-8.255 9.792-13.018 12.512-4.142 2.365-6.044 7.318-4.553 11.848 5.289 16.051 5.655 33.169 1.057 49.509l-15.871 52.474c-.022.059-.038.117-.055.177zm63.422 47.74c-3.641 1.166-6.332 4.281-6.891 8.063-.56 3.782 1.05 7.533 4.198 9.704.723.514 17.686 12.86 14.559 34.96-2.188 15.465-15.814 26.784-24.614 32.595-10.365-24.5-24.339-45.909-41.188-63.258.16-.407.314-.818.442-1.241 1.254-4.143.818-8.527-1.227-12.345l-.196-.365c-1.474-2.752-3.642-4.89-6.165-6.347 6.623-12.43 11.98-26.435 16.936-43.965l15.873-52.478c.018-.059.034-.117.051-.177 5.018-17.766 5.286-36.285.837-54.005 4.718-3.749 9.03-8.422 12.877-13.964.994-1.432 1.877-2.909 2.708-4.402.858 8.584-.092 17.191-.978 21.603-1.101 5.366 2.023 10.554 7.371 11.737 1.463.385 35.877 10.063 39.94 65.375 4.029 54.858-33.025 68.001-34.533 68.51z"/></g><path d="m252.206 189.981c-2.428 0-4.861-.877-6.789-2.65-4.075-3.752-4.337-10.096-.587-14.17 13.173-14.31 28.159-14.531 29.838-14.506 14.636.199 14.365 20.253-.271 20.054h.191c-.318.009-7.882.301-15.001 8.034-1.977 2.149-4.675 3.238-7.381 3.238z" fill="#fff"/></g></g></svg>