<svg id="Capa_1" enable-background="new 0 0 512 512" height="512" viewBox="0 0 512 512" width="512" xmlns="http://www.w3.org/2000/svg"><g><path d="m9.295 272.084h244.631v153.351h-244.631z" fill="#f4dab5"/><path d="m503.669 350.95c-17.191 47.818-110.667 68.974-246.822 75.215v-75.215c127.792-4.381 213.961-18.256 246.822-69.373z" fill="#96b4eb"/><path d="m503.669 425.435c-17.191 47.818-110.667 68.974-246.822 75.215v-75.215c127.792-4.382 212.5-22.638 247.552-67.912z" fill="#d789b9"/><path d="m503.669 362.571v-80.994c-10.744 16.714-27.19 29.444-48.924 39.165v67.969c17.244-6.543 33.282-16.052 48.924-26.14z" fill="#8286ea"/><path d="m453.566 399.796c-16.445 36.313-90.325 52.553-196.719 57.429v43.424c136.155-6.241 229.63-27.397 246.822-75.215v-51.063c-15.96 10.061-32.392 19.311-50.103 25.425z" fill="#c668b9"/><path d="m255.983 275.395-245.975-1.258c2.237-40.676 112.576-73.766 245.975-73.766 134.957 0 246.009 33.867 246.009 75.024s-111.053 75.024-246.009 75.024c-.413 0-.825 0-1.238-.001z" fill="#fff"/><path d="m200.819 272.084v73.368c0 20.766-16.834 37.6-37.6 37.6h-153.924v42.384h244.631v-153.352z" fill="#dba2b3"/><path d="m50.628 335.214c-6.365 0-11.543-5.178-11.543-11.543v-9.449c0-6.365 5.178-11.543 11.543-11.543h162.754c6.365 0 11.543 5.178 11.543 11.543v9.449c0 6.365-5.178 11.543-11.543 11.543z" fill="#c1e5ef"/><path d="m213.383 402.763h-162.754c-9.689 0-17.543-7.854-17.543-17.543v-9.449c0-9.689 7.854-17.543 17.543-17.543h162.754c9.689 0 17.543 7.854 17.543 17.543v9.449c0 9.689-7.855 17.543-17.543 17.543z" fill="#e8c2d8"/><path d="m213.369 358.228h-14.78c-5.23 14.476-19.09 24.824-35.369 24.824h-130.135v2.155c0 9.697 7.861 17.557 17.557 17.557h162.726c9.697 0 17.557-7.861 17.557-17.557v-9.421c.001-9.698-7.86-17.558-17.556-17.558z" fill="#d392d8"/><path d="m213.369 296.679h-12.55v44.536h12.55c9.697 0 17.557-7.861 17.557-17.557v-9.421c0-9.698-7.861-17.558-17.557-17.558z" fill="#a6aaed"/><path d="m434.281 234.052c-13.387 32.609-40.023 43.336-63.493 33.701s-34.887-35.983-21.5-68.592 59.824-53.664 69.978-49.496 28.402 51.777 15.015 84.387z" fill="#faf1a9"/><path d="m419.266 149.664c-1.209-.496-2.945-.624-5.066-.429 8.025 10.187 17.715 41.697 8.461 64.24-10.682 26.02-31.936 34.579-50.664 26.891-16.944-6.956-26.012-24.828-19.676-47.439-1.137 2.027-2.158 4.104-3.032 6.233-13.387 32.609-1.97 58.957 21.5 68.592s50.107-1.091 63.493-33.701-4.862-80.218-15.016-84.387z" fill="#dfb5a7"/><path d="m119.463 202.922c13.247 32.269 39.606 42.884 62.831 33.349 23.226-9.535 34.523-35.608 21.276-67.877s-59.2-53.105-69.248-48.98-28.106 51.239-14.859 83.508z" fill="#faf1a9"/><path d="m203.57 168.394c-13.247-32.269-59.2-53.105-69.248-48.98-1.126.462-2.353 1.468-3.624 2.928 12.741 1.346 42.475 17.155 51.882 40.071 10.749 26.184 1.582 47.34-17.264 55.076-17.204 7.063-36.522.491-47.936-20.626.584 2.066 1.274 4.09 2.082 6.059 13.247 32.269 39.606 42.884 62.831 33.349 23.227-9.535 34.524-35.608 21.277-67.877z" fill="#dfb5a7"/><path d="m317.667 215.724c-.042-.568-.109-1.139-.234-1.715-.798-22.164-7.533-41.354-22.936-56.202-.384-24.802-6.966-44.107-22.674-55.56-7.933-27.421-20.233-56.674-35.59-87.21-1.921-4.707-8.943-3.188-8.747 1.893-1.888 27.489-2.01 53.028 2.831 73.086-6.639 16.322-6.746 32.775 1.915 49.442-5.367 16.508-5.604 33.66 2.002 51.68-8.035 17.348-2.029 33.196.14 40.704 8.913 25.193 85.144 9.084 83.293-16.118z" fill="#f6e06e"/><path d="m317.667 215.724c-.042-.568-.109-1.139-.234-1.715-.566-15.741-4.149-29.971-11.683-42.221.741 4.06 1.193 8.26 1.354 12.602.11.492.169.979.206 1.463 1.63 21.503-65.474 35.248-73.32 13.752-.368-1.236-.863-2.74-1.37-4.465-5.504 15.751-.247 29.776 1.754 36.702 8.913 25.193 85.144 9.084 83.293-16.118z" fill="#dda86a"/><path d="m72.581 13.013 8.603 24.19c.368 1.036 1.098 1.856 2.018 2.271l21.492 9.683c3.036 1.368 3.036 6.206 0 7.574l-21.492 9.683c-.92.414-1.649 1.235-2.018 2.271l-8.603 24.19c-1.215 3.418-5.514 3.418-6.729 0l-8.603-24.19c-.368-1.036-1.097-1.856-2.018-2.271l-21.492-9.683c-3.036-1.368-3.036-6.206 0-7.574l21.492-9.683c.92-.415 1.649-1.235 2.018-2.271l8.603-24.19c1.216-3.417 5.514-3.417 6.729 0z" fill="#e9c3d9"/><path d="m373.125 31.903 6.382 17.944c.273.768.814 1.377 1.497 1.685l15.943 7.183c2.252 1.015 2.252 4.603 0 5.618l-15.943 7.183c-.683.308-1.223.916-1.497 1.685l-6.382 17.944c-.901 2.535-4.09 2.535-4.991 0l-6.382-17.945c-.273-.768-.814-1.377-1.497-1.685l-15.942-7.183c-2.252-1.015-2.252-4.603 0-5.618l15.942-7.183c.683-.308 1.224-.916 1.497-1.685l6.382-17.944c.901-2.535 4.089-2.535 4.991.001z" fill="#e9c3d9"/><circle cx="463.291" cy="105.161" fill="#d88aba" r="8.103"/><path d="m167.736 44.604c0 4.475-3.628 8.104-8.104 8.104-4.475 0-8.103-3.628-8.103-8.104s3.628-8.103 8.103-8.103c4.476 0 8.104 3.628 8.104 8.103z" fill="#d88aba"/><path d="m512 275.395c0-22.345-21.901-41.961-63.561-57.194 1.78-15.654-.879-30.506-3.133-39.454-1.371-5.441-8.887-32.86-22.239-38.341-13.35-5.477-37.965 8.748-42.764 11.656-11.102 6.728-30.987 21.205-40.066 42.817-5.056-.56-10.169-1.071-15.338-1.529-3.452-15.556-10.308-28.885-20.534-39.787-1.131-25.796-9.138-45.015-23.855-57.215-7.699-25.727-19.226-53.748-35.203-85.544-2.835-6.367-9.492-9.76-16.357-8.273-6.808 1.473-11.445 7.225-11.475 14.116-2.181 32.025-1.438 54.655 2.417 72.644-6.325 17.474-5.778 34.603 1.639 51.016-4.778 17.217-4.13 34.249 1.923 50.744-.004.01-.007.02-.01.03-1.467.061-2.934.114-4.4.183-.439-8.54-2.465-17.537-6.214-26.67-8.901-21.68-28.816-36.181-39.895-42.896-4.756-2.882-29.152-16.987-42.412-11.541-13.259 5.443-20.71 32.62-22.069 38.012-3.086 12.245-6.941 35.653 1.109 56.907-59 13.043-103.103 34.6-108.965 63.864-.244 1.216-.541 4.78-.525 6.291 0 0-.07 147.863-.072 148.242-.028 5.527 4.43 10.031 9.957 10.059l235.852 1.207-1.071 64.902c-.044 2.68.99 5.267 2.868 7.179 1.879 1.912 4.447 2.991 7.128 2.994l1.248.001c66.233 0 128.927-7.996 176.533-22.514 51.999-15.856 79.484-37.475 79.484-62.518 0-.326 0-149.117 0-149.388zm-491.912 8.801 225.72 1.155-.971 129.368-224.749-1.15zm244.766 130.784v-54.607c62.943-.681 122.187-8.592 167.662-22.459 26.133-7.97 46.068-17.395 59.441-27.978v40.624c-1.158 26.551-87.092 62.936-227.103 64.42zm93.692-212.019c10.806-26.323 47.479-43.55 56.835-43.834 6.459 6.779 20.447 44.802 9.642 71.123-5.425 13.216-13.424 22.731-23.132 27.516-8.643 4.261-18.084 4.512-27.303.727-20.191-8.288-26.488-30.086-16.042-55.532zm-71.705-38.709c.051.061.111.117.163.177.167.188.335.374.515.55.011.011.021.023.032.034 10.948 10.554 17.286 24.109 19.269 41.255l-63.212-18.627c-.023-.062-.053-.121-.077-.182-.028-.07-.047-.142-.077-.212-5.384-12.757-6.492-25.513-3.351-38.822l46.542 15.574c.067.082.127.171.196.253zm20.048 54.556c-2.65 4.163-11.931 10.526-28.192 13.936-18.105 3.795-32.744.916-34.82-4.064-.162-.553-.342-1.145-.533-1.774-2.043-6.735-4.997-16.52-1.654-27.311zm-70.463-180.476c9.631 20.58 17.17 39.43 22.829 57.047l-18.987-6.42c-.007-.061-.017-.121-.025-.182-.016-.126-.04-.252-.061-.378-.033-.203-.068-.405-.114-.605-.01-.042-.013-.083-.024-.125-3.543-14.691-4.075-32.926-3.618-49.337zm.857 62.295 28.591 9.668c.01.007.02.013.03.021.008.006.015.012.022.018 10.779 7.859 16.763 21.049 18.218 40.163l-42.426-14.197c-.057-.171-.108-.344-.174-.512-.032-.08-.073-.158-.107-.238-.096-.226-.194-.451-.306-.67-.006-.012-.011-.025-.017-.037-5.779-11.118-7.037-22.373-3.831-34.216zm-109.978 54.751c3.21-14.068 8.384-23.654 10.93-26.491 9.341.373 45.448 17.416 56.077 43.308 10.313 25.122 4.104 46.639-15.818 54.818-9.096 3.734-18.408 3.485-26.932-.716-9.583-4.724-17.481-14.121-22.84-27.175 0-.001 0-.001 0-.001-6.374-15.525-3.624-34.07-1.417-43.743zm-40.621 76.208c10.152-3.044 21.036-5.779 32.506-8.199 6.438 9.264 14.384 16.357 23.522 20.862 7.282 3.589 15.071 5.39 22.937 5.39 6.853-.001 13.765-1.368 20.447-4.11 15.891-6.524 26.455-18.829 30.803-34.153 1.102-.055 2.206-.107 3.312-.157.235 9.136 2.537 16.742 3.979 21.496.208.686.401 1.321.569 1.904.055.188.115.375.18.56 5.068 14.328 20.976 19.314 37.748 19.314 6.785 0 13.711-.816 20.118-2.16 21.619-4.533 46.335-17.033 44.843-37.343 0-.003-.001-.007-.001-.011-.035-.473-.084-.922-.141-1.363 2.392.225 4.755.463 7.101.709-4.526 28.041 7.414 52.435 32.38 62.685 6.739 2.766 13.709 4.145 20.622 4.145 7.932 0 15.789-1.816 23.132-5.436 14.15-6.975 25.492-20.07 32.799-37.868 0 0 0 0 0-.001.005-.012.009-.024.014-.037 31.355 11.881 48.43 25.746 48.43 37.579 0 26.592-86.125 63.467-227.064 64.969l1.069-64.803c.044-2.673-.984-5.254-2.854-7.165s-4.427-2.995-7.101-3.008l-231.376-1.184c8.018-10.126 27.014-22.115 62.026-32.615zm178.236 258.167.904-54.769c62.582-.751 121.451-8.652 166.692-22.449 26.133-7.969 46.068-17.395 59.441-27.978 0 0 .028 40.086.028 40.226-.001 26.592-86.126 63.468-227.065 64.97z" fill="#3c122c"/><path d="m142.005 197.444c-4.19 0-8.095-2.653-9.493-6.846-5.547-16.642 2.276-38.279 3.187-40.692 1.951-5.172 7.726-7.782 12.896-5.83 5.169 1.95 7.779 7.719 5.833 12.889-1.651 4.429-5.722 18.919-2.928 27.304 1.748 5.243-1.086 10.911-6.33 12.659-1.048.35-2.116.516-3.165.516z" fill="#fff"/><path d="m377.143 212.343c-1.753 0-3.528-.46-5.14-1.427-4.74-2.844-6.276-8.992-3.433-13.731 7.496-12.493 14.874-18.501 15.69-19.145 4.342-3.423 10.634-2.678 14.056 1.661 3.408 4.321 2.686 10.578-1.604 14.01-.222.185-5.477 4.603-10.978 13.772-1.876 3.128-5.191 4.86-8.591 4.86z" fill="#fff"/><g fill="#3c122c"><path d="m213.383 308.679c3.057 0 5.543 2.487 5.543 5.543v9.449c0 3.057-2.487 5.543-5.543 5.543h-162.754c-3.057 0-5.543-2.487-5.543-5.543v-9.449c0-3.057 2.487-5.543 5.543-5.543zm0-12h-162.754c-9.689 0-17.543 7.854-17.543 17.543v9.449c0 9.689 7.855 17.543 17.543 17.543h162.754c9.689 0 17.543-7.854 17.543-17.543v-9.449c0-9.689-7.855-17.543-17.543-17.543z"/><path d="m213.383 370.228c3.057 0 5.543 2.487 5.543 5.543v9.449c0 3.057-2.487 5.543-5.543 5.543h-162.754c-3.057 0-5.543-2.487-5.543-5.543v-9.449c0-3.057 2.487-5.543 5.543-5.543zm0-12h-162.754c-9.689 0-17.543 7.854-17.543 17.543v9.449c0 9.689 7.855 17.543 17.543 17.543h162.754c9.689 0 17.543-7.854 17.543-17.543v-9.449c0-9.689-7.855-17.543-17.543-17.543z"/></g></g></svg>