<svg id="Capa_1" enable-background="new 0 0 512 512" height="512" viewBox="0 0 512 512" width="512" xmlns="http://www.w3.org/2000/svg"><g><g><path d="m416.883 501.562s36.069-22.953 36.069-55.743-28.691-46.726-28.691-46.726 50.503-23.755 34.74-94.354c-15.763-70.598-66.457-75.384-66.457-75.384s6.197-97.715-85.179-45.273c0 0 5.827-131.284-81.459-76.73l8.09 232.271z" fill="#a1e8c3"/><path d="m424.261 399.094s50.503-23.755 34.74-94.354c-2.835-12.697-15.646-29.402-20.242-38.196 20.003 101.189-48.732 148.443-124.036 94.319-4.041-2.905-14.679 33.584-19.531 32.948l121.691 107.752s36.069-22.953 36.069-55.743-28.691-46.726-28.691-46.726z" fill="#85adc2"/><path d="m416.913 501.827c-11.974-43.585-33.516-89.022-67.692-116.682 6.423-18.198 9.895-37.828 9.895-67.556l1.091-59.148c0-21.167-6.428-40.832-17.438-57.151 5.052-5.141 9.325-12.074 12.341-20.838 9.185-26.692-7.619-63.904-15.93-66.764-8.312-2.86-44.456 16.133-53.641 42.825-.363 1.055-.684 2.096-.987 3.131-8.5-2.288-17.435-3.516-26.659-3.516h-63.141c-4.715 0-9.245.359-13.598 1.02-.646-5.802-2.429-12-5.527-18.451-12.092-25.181-49.798-39.7-57.639-35.935-7.841 3.766-20.086 42.27-7.994 67.451 4.001 8.331 9.042 14.689 14.65 19.168-11.12 12.607-18.489 26.408-22.26 36.78-9.102 25.032-13.654 59.166-13.654 59.166-24.658 23.212-32.502 54.974-22.636 82.599 8.141 22.794 24.208 39.507 45.589 50.473 18.793 9.639 49.289 13.094 65.99 11.642-9.281 20.417-14.182 49.808-17.475 71.787h256.715z" fill="#ccf3e2"/><path d="m349.221 385.145c6.423-18.198 9.895-37.828 9.895-67.556l1.091-59.148c0-21.167-6.428-40.832-17.438-57.151 5.052-5.141 9.325-12.074 12.341-20.838 9.185-26.692-7.619-63.904-15.93-66.764-3.922-1.35-5.042-.501-15.602 6.395 6.543 12.277 11.035 28.079 9.38 47.942-1.042 12.507-17.216 25.739-21.446 30.631 9.219 15.526 16.276 67.756 16.276 87.895l-.276 15.017c0 20.613-8.841 48.633-13.63 67.84-2.793 11.201-4.352 21.266 4.019 29.215 11.256 10.687 19.973 20.971 27.471 39.892 8.346 21.063-7.251 43.907-29.908 43.907h-152.133c-1.201 6.797-2.23 13.383-3.132 19.404h256.715c-11.975-43.584-33.517-89.021-67.693-116.681z" fill="#b1b6e1"/><path d="m254.217 173.147c-.033-.455-.088-.912-.187-1.373-.639-17.749-6.032-33.117-18.367-45.007-.307-19.862-5.578-35.321-18.157-44.492-6.353-21.958-16.203-45.384-28.501-69.837-1.538-3.769-7.162-2.553-7.004 1.516-1.512 22.013-1.609 42.465 2.267 58.527-5.316 13.071-5.402 26.246 1.534 39.593-4.298 13.22-4.487 26.954 1.603 41.385-6.434 13.892-1.625 26.583.112 32.595 7.136 20.175 68.182 7.275 66.7-12.907z" fill="#c2b2eb"/><path d="m254.217 173.147c-.033-.455-.088-.912-.187-1.373-.454-12.605-3.322-24-9.356-33.811.594 3.251.955 6.615 1.084 10.091.088.394.136.784.165 1.172 1.305 17.22-52.432 28.227-58.715 11.012-.295-.99-.691-2.195-1.097-3.576-4.407 12.613-.198 23.845 1.405 29.391 7.137 20.176 68.183 7.276 66.701-12.906z" fill="#ae85ea"/><path d="m100.149 192.216c14.187-8.192 24.71-21.267 30.504-36.59 1.646-4.352 3.966-8.552 6.99-12.456 14.443-18.65 40.79-23.937 61.298-12.283 24.46 13.899 31.573 45.33 16.198 68.271-13.237 19.752-34.566 27.99-54.299 27.362-11.496-.366-38.005-7.438-58.133-13.279-9.744-2.828-11.344-15.952-2.558-21.025z" fill="#a1e8c3"/><path d="m198.94 130.886c-20.508-11.653-46.855-6.366-61.298 12.283-3.024 3.905-5.344 8.104-6.99 12.457-5.794 15.323-16.317 28.399-30.504 36.59-8.786 5.073-7.186 18.197 2.558 21.025 20.128 5.841 46.637 12.913 58.133 13.279 19.733.628 41.062-7.61 54.299-27.362 15.375-22.943 8.263-54.373-16.198-68.272zm2.205 45.388c-6.601 15.804-20.741 24.509-35.05 26.701-8.336 1.277-28.484-.203-43.852-1.662-7.439-.706-10.542-9.817-4.967-14.596 9.003-7.717 14.64-18.415 16.537-30.077.539-3.313 1.586-6.607 3.184-9.785 7.633-15.182 25.827-22.461 42.333-16.923 19.686 6.604 29.481 27.985 21.815 46.342z" fill="#85adc2"/><path d="m331.42 311.908c.716 2.595 1.055 5.474.924 8.491-.475 10.936-6.939 19.538-14.438 19.213-7.499-.326-13.194-9.455-12.719-20.391.119-2.734.612-5.322 1.402-7.661" fill="#96b4eb"/><path d="m328.843 251.024c.861 2.424 1.381 5.145 1.463 8.029.298 10.455-5.272 19.095-12.441 19.3-7.169.204-13.222-8.105-13.52-18.56-.074-2.614.218-5.114.81-7.398" fill="#96b4eb"/><path d="m463.262 67.403 8.354 23.49c.358 1.006 1.066 1.803 1.959 2.205l20.87 9.403c2.948 1.328 2.948 6.026 0 7.354l-20.87 9.403c-.893.403-1.602 1.2-1.959 2.205l-8.354 23.49c-1.18 3.319-5.354 3.319-6.534 0l-8.354-23.49c-.358-1.006-1.066-1.803-1.959-2.205l-20.87-9.403c-2.948-1.328-2.948-6.026 0-7.354l20.87-9.403c.894-.403 1.602-1.2 1.959-2.205l8.354-23.49c1.18-3.318 5.354-3.318 6.534 0z" fill="#c2b2eb"/><path d="m94.343 2.279 6.197 17.425c.265.746.791 1.337 1.453 1.636l15.481 6.975c2.187.985 2.187 4.47 0 5.455l-15.481 6.975c-.663.299-1.188.89-1.453 1.636l-6.197 17.424c-.875 2.462-3.971 2.462-4.847 0l-6.197-17.425c-.265-.746-.79-1.337-1.453-1.636l-15.481-6.975c-2.187-.985-2.187-4.47 0-5.455l15.481-6.975c.663-.299 1.188-.89 1.453-1.636l6.197-17.425c.875-2.461 3.971-2.461 4.847.001z" fill="#c2b2eb"/><g fill="#9781dd"><ellipse cx="27.738" cy="108.338" rx="12.395" ry="12.395" transform="matrix(.924 -.383 .383 .924 -39.348 18.862)"/><ellipse cx="385.843" cy="41.741" rx="9.627" ry="9.627" transform="matrix(.973 -.23 .23 .973 .732 89.765)"/></g></g><g><path d="m441.975 399.246c4.37-3.692 9.267-8.606 13.813-14.903 10.943-15.162 22.104-41.663 13.138-81.818-8.865-39.704-28.452-60.168-43.322-70.344-8.798-6.021-16.974-9.269-22.892-11.008-.589-14.571-4.514-43.214-25.46-56.247-2.93-1.822-6.046-3.256-9.343-4.308-.337-10.332-2.627-19.58-4.504-25.539-1.972-6.264-9.309-27.014-20.918-31.007-11.617-3.997-30.16 7.846-35.569 11.57-.113.078-.238.168-.354.248-5.381-12.167-12.649-20.976-21.758-26.291-13.338-7.784-29.485-7.585-48.147.532-2.351-5.039-5.662-9.749-10.311-13.796-6.199-20.547-15.418-42.904-28.134-68.22-2.675-5.916-9.107-9.184-15.498-7.799-6.329 1.368-10.811 6.905-10.889 13.317-1.73 25.458-1.161 43.595 1.852 58.091-5.446 15.46-4.409 30.596 3.097 45.039.309.594.683 1.127 1.085 1.632-.019.097-.031.194-.05.29-1.339-.056-2.677-.067-4.013-.024-8.156-8.615-17.636-14.501-23.826-17.776-5.754-3.046-25.386-12.57-36.384-7.292-10.996 5.281-15.837 26.558-17.059 32.954-1.996 10.451-4.092 30.592 4.299 48.066 1.197 2.492 2.501 4.84 3.885 7.076-2.41 1.94-4.948 3.701-7.615 5.241-6.216 3.589-9.541 10.243-8.677 17.366.603 4.983 3.145 9.249 6.975 12.053-.94 2.125-1.807 4.242-2.568 6.335-7.735 21.269-12.228 48.2-13.67 57.771-25.062 25.275-33.749 59.786-22.64 90.89 8.758 24.521 25.757 43.397 50.525 56.102 16.153 8.285 38.557 12.073 55.822 12.888-5.979 18.407-9.762 40.215-12.723 59.984-.832 5.555 2.996 10.732 8.551 11.564 5.551.836 10.732-2.995 11.564-8.551 3.579-23.897 8.36-50.792 16.675-69.085 1.496-3.29 1.132-7.128-.954-10.08-2.087-2.951-5.58-4.564-9.185-4.261-14.299 1.246-43.264-1.734-60.467-10.557-20.015-10.267-33.693-25.355-40.654-44.845-8.724-24.429-1.049-51.931 20.03-71.775 1.701-1.602 2.8-3.742 3.11-6.059.044-.331 4.524-33.365 13.131-57.035.566-1.556 1.476-3.854 2.771-6.659 22.353 6.141 37.776 9.38 45.933 9.64.777.025 1.552.037 2.325.037 6.038 0 11.939-.757 17.593-2.199v19.149c0 3.37 2.732 6.102 6.102 6.102s6.102-2.732 6.102-6.102v-23.517c7.903-3.703 15.039-8.89 21.006-15.37v23.298c0 3.37 2.732 6.102 6.102 6.102s6.102-2.732 6.102-6.102v-33.439c6.161-1.298 12.644-3.415 18.299-6.335v25.379c0 3.37 2.732 6.102 6.102 6.102s6.102-2.732 6.102-6.102v-34.943c2.574-3.367 4.04-7.211 3.835-11.533 0-.096-.005-.192-.01-.287-.002-.027-.001-.054-.003-.082-.001-.023 0-.046-.001-.068-.005-.062-.012-.118-.017-.179-.004-.034-.006-.068-.01-.101-.041-.467-.093-.916-.166-1.343-.065-1.612-.184-3.191-.326-4.755 5.883.12 11.728.798 17.454 2.019v61.36c0 3.37 2.732 6.102 6.102 6.102s6.102-2.732 6.102-6.102v-61.152c2.28-1.251 4.084-3.367 4.871-6.055.303-1.038.572-1.89.843-2.68 6.707-19.491 31.852-34.369 40.566-36.083 5.814 6.714 16.479 33.914 9.772 53.405-2.412 7.011-5.769 12.736-9.977 17.018-3.39 3.449-3.882 8.808-1.178 12.817 10.254 15.197 15.682 32.959 15.7 51.372l-1.09 59.051c-.001.063-.002.125-.002.188 0 26.48-2.786 45.672-9.315 64.172-1.433 4.06-.155 8.582 3.192 11.29 27.912 22.59 50.741 62.178 64.283 111.47 1.24 4.514 5.335 7.478 9.801 7.478.892 0 1.799-.119 2.7-.366 1.838-.505 3.41-1.491 4.639-2.775 8.108-5.665 38.875-29.381 38.875-63.039 0-22.794-11.448-37.88-21.147-46.572zm-208.583-264.814c.456.153.915.229 1.374.272 6.947 8.066 11.099 17.983 12.589 30.059l-19.775-5.827c-3.69-14.218-12.742-26.035-25.624-33.356-3.561-2.024-7.281-3.585-11.082-4.716.236-.139.475-.273.698-.426zm-29.001-60.053-10.072-3.406c-.007-.047-.019-.093-.027-.14-.034-.205-.069-.409-.115-.612-.01-.042-.014-.084-.024-.127-2.111-8.751-2.861-19.144-2.944-29.321 5.285 11.881 9.655 23.028 13.182 33.606zm-12.833 8.543 18.472 6.246c.015.016.032.03.047.046.165.176.336.346.513.509.052.049.102.099.156.147.24.213.489.416.748.605.007.006.013.012.02.016 6.815 4.97 9.893 13.024 10.218 27.17l-26.292-8.798c-.167-.501-.363-.997-.615-1.481-4.2-8.079-5.273-15.989-3.267-24.46zm-68.961 29.433c5.347.449 17.155 4.971 27.568 12.548-6.602 3.476-12.557 8.345-17.346 14.53-3.328 4.295-5.977 9.018-7.874 14.034-1.601 4.235-3.601 8.248-5.934 11.998-8.527-18.278-1.306-45.829 3.586-53.11zm87.472 83.405c-10.773 16.076-29.113 25.306-49.036 24.66-8.465-.269-28.574-4.9-56.626-13.04-3.192-.926-3.77-3.717-3.871-4.551-.1-.831-.206-3.672 2.665-5.329 14.967-8.643 26.743-22.747 33.16-39.716 1.467-3.881 3.522-7.541 6.107-10.878 8.095-10.453 20.477-16.091 33.038-16.091 6.987 0 14.031 1.746 20.421 5.377 10.26 5.83 17.394 15.326 20.089 26.74 2.657 11.258.49 23.224-5.947 32.828zm19.24-23.592 17.385 5.123c-2.877 3.729-9.903 7.882-19.571 10.465 1.483-5.053 2.216-10.309 2.186-15.588zm48.809-24.389c-6.656-1.211-13.426-1.822-20.225-1.822h-2.609c-3.043-8.134-7.482-15.32-13.32-21.488.062-.424.108-.853.116-1.293.079-4.132.018-8.522-.39-12.974 13.757-6.69 24.789-7.742 32.852-3.045 7.267 4.235 12.304 12.775 15.762 22.815-4.601 5.004-8.997 10.966-12.186 17.807zm144.167 336.488c-10.867-33.744-29.612-74.22-61.261-102.434 5.756-18.709 8.256-38.367 8.262-64.149l1.089-59.055c.001-.063.002-.125.002-.188 0-19.912-5.187-39.21-15.065-56.269 3.866-5.292 7.02-11.455 9.414-18.411.25-.726.477-1.456.695-2.186.356.191.71.387 1.055.601 14.792 9.166 16.505 36.713 15.918 46.536-.349 5.484 3.723 10.252 9.194 10.769.433.041 43.496 4.815 57.487 67.474 13.691 61.319-27.444 82.108-29.144 82.935-3.545 1.668-5.844 5.208-5.868 9.125-.025 3.918 2.175 7.487 5.699 9.199.94.471 23.02 11.831 23.02 37.605 0 16.206-11.432 30.029-20.497 38.448z" fill="#3c122c"/><circle cx="143.928" cy="291.084" fill="#3c122c" r="12.549"/><circle cx="271.226" cy="291.084" fill="#3c122c" r="12.549"/><path d="m152.58 177.843c-1.511 0-3.044-.338-4.49-1.051-5.037-2.484-7.107-8.582-4.623-13.619 9.146-18.546 24.33-23.251 26.031-23.726 0 0 10.212-4.712 13.778 5.498s-8.13 14.041-8.13 14.041c-.337.108-8.297 2.761-13.436 13.183-1.771 3.592-5.378 5.674-9.13 5.674z" fill="#fff"/><g fill="#3c122c"><path d="m268.851 257.236c-6.135 0-12.127-3.008-15.655-8.365-1.854-2.815-1.075-6.599 1.74-8.452 2.817-1.855 6.599-1.074 8.452 1.74 1.714 2.604 5.281 3.61 8.116 2.292 3.059-1.416 6.684-.092 8.104 2.965s.092 6.685-2.964 8.105c-2.501 1.16-5.161 1.715-7.793 1.715z"/><path d="m142.552 257.391c-2.356 0-4.735-.447-7.01-1.383-3.117-1.283-4.603-4.85-3.321-7.965 1.283-3.117 4.848-4.602 7.965-3.321 2.884 1.187 6.395.013 7.998-2.674 1.724-2.893 5.47-3.843 8.366-2.113 2.894 1.726 3.841 5.471 2.113 8.366-3.439 5.768-9.685 9.09-16.111 9.09z"/><path d="m221.449 341.285c0-5.495 2.198-10.618 5.878-13.705 2.582-2.165 2.92-6.015.755-8.597s-6.015-2.92-8.597-.755c-5.026 4.215-8.454 10.425-9.706 17.275-3.847-1.85-8.214-2.865-12.745-2.865-4.433 0-8.667.945-12.425 2.694-1.277-6.782-4.69-12.925-9.675-17.105-2.581-2.164-6.432-1.826-8.597.755-2.165 2.582-1.827 6.432.755 8.597 3.681 3.087 5.879 8.21 5.879 13.705 0 5.208-1.924 10.009-5.279 13.171-2.452 2.312-2.565 6.174-.254 8.627 1.201 1.273 2.82 1.916 4.441 1.916 1.502 0 3.006-.551 4.185-1.662 3.487-3.288 6.071-7.516 7.581-12.225.533-.327 1.027-.739 1.455-1.241 2.686-3.148 7.148-5.027 11.934-5.027 4.989 0 9.7 2.099 12.297 5.476.474.617 1.046 1.113 1.673 1.494 1.536 4.428 4.037 8.399 7.35 11.524 1.179 1.111 2.684 1.662 4.185 1.662 1.622 0 3.241-.643 4.441-1.916 2.311-2.453 2.198-6.315-.254-8.627-3.353-3.162-5.277-7.963-5.277-13.171z"/><path d="m318.309 345.722c-.223 0-.444-.005-.667-.015-5.614-.243-10.813-3.554-14.262-9.082-3.048-4.885-4.57-11.16-4.288-17.668.141-3.253.719-6.398 1.717-9.351 1.081-3.194 4.545-4.904 7.735-3.828 3.193 1.08 4.906 4.543 3.828 7.735-.63 1.863-.996 3.872-1.087 5.974-.174 4.01.72 7.904 2.451 10.68.609.975 2.259 3.255 4.437 3.349 2.188.094 4.02-2.033 4.71-2.953 1.966-2.615 3.192-6.416 3.367-10.427.1-2.312-.138-4.534-.71-6.604-.896-3.249 1.011-6.609 4.26-7.505 3.251-.893 6.608 1.012 7.505 4.26.911 3.3 1.293 6.792 1.137 10.379-.282 6.507-2.343 12.626-5.802 17.229-3.762 5.002-8.952 7.827-14.331 7.827z"/><path d="m317.612 284.458c-5.305 0-10.392-2.823-14.016-7.795-3.271-4.491-5.171-10.42-5.35-16.696-.089-3.132.248-6.195 1.003-9.105.846-3.262 4.173-5.219 7.44-4.373 3.262.847 5.219 4.177 4.373 7.44-.466 1.795-.673 3.71-.617 5.691.107 3.782 1.207 7.375 3.015 9.858.613.841 2.233 2.777 4.149 2.777.027 0 .054-.001.082-.002 1.952-.055 3.494-2.124 4.066-3.012 1.664-2.582 2.557-6.232 2.45-10.013-.063-2.182-.438-4.255-1.114-6.16-1.129-3.175.53-6.664 3.706-7.792 3.176-1.127 6.665.53 7.792 3.706 1.105 3.109 1.715 6.439 1.814 9.897.18 6.276-1.381 12.304-4.391 16.974-3.423 5.311-8.517 8.444-13.977 8.6-.141.003-.283.005-.425.005z"/></g></g></g></svg>