<svg id="Capa_1" enable-background="new 0 0 506.704 506.704" height="512" viewBox="0 0 506.704 506.704" width="512" xmlns="http://www.w3.org/2000/svg"><g><g><path d="m412.755 496.375s35.696-22.716 35.696-55.167-28.395-46.242-28.395-46.242 49.981-23.51 34.381-93.378-65.769-74.604-65.769-74.604 6.133-96.704-84.298-44.805c0 0 5.767-129.926-80.617-75.936l8.006 229.869z" fill="#e8c2d8"/><path d="m420.056 394.966s49.981-23.509 34.381-93.378c-2.806-12.565-15.484-29.098-20.033-37.801 19.796 100.143-48.228 146.909-122.753 93.344-3.999-2.875-14.527 33.237-19.329 32.607l120.433 106.638s35.696-22.716 35.696-55.167c0-32.452-28.395-46.243-28.395-46.243z" fill="#d392d8"/><path d="m346.028 125.891c-3.453-7.316-7.319-12.398-10.173-13.38-1.974-.68-5.544-.102-9.941 1.517-23.196-11.933-49.063-19.565-76.622-21.766-11.418-.913-21.926 4.154-28.464 12.57-6.794-13.457-22.067-21.128-37.449-17.684-16.875 3.773-33.172 9.672-48.512 17.446-8.156-3.175-15.051-4.272-17.915-2.897-3.324 1.596-7.443 9.51-10.131 19.985-14.916 10.763-28.462 23.49-40.156 37.907-30.065 37.067-46.622 83.805-46.622 131.604 0 43.694 13.351 85.557 38.609 121.062 23.824 33.489 56.428 58.921 94.498 73.765 0 0 7.353-1.254 5.574 10.617h254.06c-6.336-23.062-15.382-46.647-27.595-67.788 30.808-34.912 49.345-80.099 50.717-128.562 2.042-72.111-33.798-136.787-89.878-174.396zm24.455 172.544c-.697 24.597-7.935 47.939-20.29 68.053 3.524-14.257 5.392-30.507 5.392-52.185l1.08-58.536c0-10.447-1.584-20.524-4.521-30.005 12.344 21.357 19.086 46.28 18.339 72.673z" fill="#faf1a9"/><path d="m306.834 183.304c-.552.366-1.024.749-1.38 1.161 9.123 15.366 19.127 79.19 19.127 99.121l-.273 14.862c0 20.4-8.75 48.13-13.489 67.139-2.764 11.085-4.307 21.047 3.977 28.913 2.127 2.019 4.16 4.025 6.113 6.077 6.159-4.569 11.686-10.171 16.856-15.625 3.694-3.897 7.385-7.964 10.759-12.265 4.603-15.772 7.06-33.505 7.06-58.385l1.08-58.536c0-15.057-3.302-29.339-9.197-42.182-13.526-10.114-27.396-19.787-40.633-30.28z" fill="#dfb5a7"/><path d="m386.451 431.098c-6.043 8.342-12.769 16.179-20.554 22.926-12.438 10.781-27.012 18.205-42.882 22.471-1.053.283-2.001.239-2.825-.028-2.481.621-5.089.965-7.805.965h-150.56c-1.188 6.727-2.207 13.245-3.1 19.204h254.06c-6.114-22.252-14.761-44.98-26.334-65.538z" fill="#dfb5a7"/><path d="m251.77 171.355c-.033-.45-.087-.902-.185-1.359-.632-17.566-5.97-32.774-18.178-44.542-.304-19.656-5.521-34.955-17.969-44.032-6.287-21.731-16.035-44.915-28.206-69.115-1.522-3.731-7.088-2.526-6.932 1.5-1.496 21.786-1.593 42.025 2.244 57.922-5.262 12.936-5.346 25.975 1.518 39.184-4.253 13.083-4.441 26.676 1.587 40.957-6.368 13.748-1.608 26.309.111 32.258 7.063 19.967 67.477 7.201 66.01-12.773z" fill="#ccf3e2"/><path d="m251.77 171.355c-.033-.45-.087-.902-.185-1.359-.449-12.475-3.288-23.752-9.259-33.461.588 3.217.945 6.546 1.073 9.987.087.39.134.776.163 1.16 1.291 17.042-51.89 27.935-58.108 10.898-.292-.98-.684-2.172-1.086-3.539-4.362 12.483-.196 23.598 1.39 29.087 7.065 19.967 67.479 7.201 66.012-12.773z" fill="#b1b6e1"/><path d="m206.752 116.302c-5.398-17.393-23.874-27.124-41.267-21.719-10.766 3.341-21.207 7.582-31.22 12.642l13.663 63.847c12.145-7.188 18.896-7.853 37.106-13.504 17.392-5.398 27.116-23.873 21.718-41.266z" fill="#d789b9"/><path d="m279.404 96.954c-9.769-2.28-19.82-3.871-30.112-4.693-18.019-1.441-33.787 11.999-35.226 30.016-1.439 18.015 12 33.787 30.015 35.226 11.64.93 15.89 1.912 26.476 5.521z" fill="#d789b9"/><path d="m99.296 190.227c14.04-8.107 24.454-21.047 30.188-36.212 1.629-4.308 3.925-8.463 6.917-12.328 14.294-18.457 40.368-23.689 60.664-12.156 24.207 13.756 31.246 44.861 16.03 67.566-13.1 19.548-34.208 27.7-53.737 27.079-11.377-.362-37.612-7.361-57.532-13.142-9.642-2.798-11.226-15.787-2.53-20.807z" fill="#e8c2d8"/><path d="m197.065 129.531c-20.296-11.533-46.37-6.301-60.664 12.156-2.993 3.864-5.288 8.02-6.917 12.328-5.735 15.164-16.148 28.105-30.188 36.212-8.695 5.021-7.112 18.009 2.531 20.807 19.92 5.78 46.155 12.779 57.532 13.142 19.529.621 40.637-7.531 53.737-27.079 15.215-22.705 8.177-53.81-16.031-67.566zm2.182 44.919c-6.532 15.641-20.527 24.255-34.688 26.424-8.25 1.264-28.189-.201-43.398-1.645-7.362-.699-10.433-9.716-4.916-14.446 8.91-7.637 14.488-18.225 16.366-29.766.533-3.278 1.569-6.538 3.151-9.684 7.554-15.025 25.56-22.229 41.895-16.748 19.484 6.538 29.177 27.698 21.59 45.865z" fill="#d392d8"/><path d="m84.534 7.978 6.093 17.133c.261.734.777 1.315 1.429 1.608l15.222 6.858c2.151.969 2.151 4.395 0 5.364l-15.221 6.859c-.652.294-1.168.875-1.429 1.609l-6.093 17.133c-.861 2.421-3.905 2.421-4.766 0l-6.093-17.133c-.261-.734-.777-1.315-1.429-1.609l-15.222-6.858c-2.15-.969-2.15-4.395 0-5.364l15.222-6.858c.652-.294 1.168-.875 1.429-1.608l6.093-17.133c.86-2.422 3.905-2.422 4.765-.001z" fill="#ccf3e2"/><circle cx="359.545" cy="41.077" fill="#a1e8c3" r="12.187"/><path d="m462.191 68.162 8.215 23.098c.352.989 1.048 1.772 1.927 2.168l20.521 9.246c2.899 1.306 2.899 5.925 0 7.232l-20.521 9.246c-.879.396-1.575 1.18-1.927 2.169l-8.215 23.098c-1.16 3.263-5.264 3.263-6.425 0l-8.214-23.098c-.352-.989-1.048-1.773-1.927-2.169l-20.521-9.246c-2.899-1.306-2.899-5.925 0-7.232l20.521-9.246c.879-.396 1.575-1.179 1.927-2.168l8.214-23.098c1.16-3.263 5.264-3.263 6.425 0z" fill="#ccf3e2"/><path d="m30.887 111.757c0 5.228-4.238 9.466-9.466 9.466s-9.466-4.238-9.466-9.466 4.238-9.466 9.466-9.466c5.228.001 9.466 4.239 9.466 9.466z" fill="#a1e8c3"/></g><g><g fill="#3c122c"><path d="m155.042 288.073c0 6.859-5.56 12.419-12.419 12.419s-12.419-5.56-12.419-12.419 5.56-12.419 12.419-12.419c6.858 0 12.419 5.56 12.419 12.419z"/><path d="m281.023 288.073c0 6.859-5.56 12.419-12.419 12.419s-12.419-5.56-12.419-12.419 5.56-12.419 12.419-12.419c6.858 0 12.419 5.56 12.419 12.419z"/><path d="m437.587 395.117c4.325-3.654 9.172-8.517 13.671-14.749 10.829-15.005 21.875-41.232 13.002-80.973-5.14-23.018-13.92-39.501-23.271-51.231-11.782-53.063-43.413-98.992-87.112-129.113-3.569-6.942-8.54-13.921-14.748-16.057-3.636-1.251-7.96-.928-12.343.209-15.706-7.692-32.528-13.527-50.207-17.188-5.591-2.241-11.617-3.226-18.071-2.932-2.789-.333-5.591-.628-8.415-.853-6.26-.504-12.416.359-18.138 2.46-2.041-3.288-4.583-6.375-7.766-9.145-6.133-20.335-15.257-42.461-27.844-67.513-2.646-5.854-9.01-9.086-15.337-7.72-6.264 1.354-10.699 6.834-10.776 13.18-1.713 25.195-1.149 43.144 1.833 57.49-1.477 4.192-2.462 8.359-2.973 12.495-2.212.325-4.415.818-6.591 1.495-8.681 2.694-17.161 5.947-25.391 9.717-7.963-2.958-17.842-5.266-24.517-2.063-8.244 3.959-12.99 16.998-15.333 25.842-18.544 13.968-34.873 30.93-48.122 50.274-27.675 40.408-40.732 89.586-36.766 138.473 3.625 44.69 20.756 86.399 49.539 120.619 23.522 27.967 53.728 49.451 87.605 62.414-.255 1.643-.505 3.28-.748 4.9-.824 5.497 2.965 10.621 8.463 11.445 5.498.825 10.621-2.965 11.445-8.463 3.543-23.65 8.275-50.269 16.503-68.37 1.481-3.257 1.121-7.055-.945-9.976-2.065-2.92-5.523-4.517-9.09-4.217-14.15 1.237-42.817-1.717-59.842-10.449-19.807-10.16-33.344-25.092-40.233-44.382-8.634-24.175-1.038-51.392 19.823-71.032 1.684-1.585 2.771-3.704 3.077-5.997.031-.233 2.28-16.8 6.632-34.774 3.259-9.565 7.627-18.697 12.969-27.21 20.042 5.396 34 8.247 41.593 8.489.77.025 1.537.036 2.301.036 23.021 0 44.067-11.022 56.645-29.789.238-.355.455-.721.684-1.081 1.68-.244 3.343-.523 4.955-.861 16.225-3.401 34.752-12.548 34.056-27.169 0-.089-.005-.176-.009-.264-.004-.057-.001-.113-.006-.171 0-.001 0-.003-.001-.004v-.001c-.004-.057-.011-.11-.016-.167-.003-.033-.006-.066-.01-.099-.035-.397-.084-.77-.141-1.135 36.538 7.115 67.137 29.662 85.218 60.307 2.466 8.326 3.747 17.017 3.755 25.863l-1.078 58.441c-.001.062-.001.124-.001.186 0 19.092-1.472 34.349-4.766 48.309-14.022 22.184-34.833 39.99-60.234 50.207-5.157 2.074-7.656 7.936-5.582 13.093s7.937 7.659 13.094 5.582c54.536-21.934 90.849-74.052 92.512-132.775 1.901-67.144-41.357-125.424-102.852-144.849l6.284-45.386c84.304 22.943 144.429 101.08 141.869 191.519-2.173 76.753-49.629 144.871-120.9 173.538-5.157 2.074-7.656 7.936-5.582 13.093 1.579 3.927 5.354 6.312 9.341 6.312 1.25 0 2.522-.235 3.753-.73 26.855-10.802 50.645-26.679 70.434-46.273 8.016 15.953 14.838 33.886 20.188 53.361 1.227 4.467 5.28 7.401 9.699 7.401.883 0 1.78-.117 2.672-.363 1.82-.5 3.376-1.476 4.592-2.746 8.025-5.608 38.474-29.079 38.474-62.387.005-22.562-11.324-37.492-20.924-46.093zm-235.128-321.509-9.968-3.371c-.007-.049-.02-.098-.028-.147-.033-.199-.067-.396-.111-.592-.01-.044-.014-.087-.025-.131-2.09-8.658-2.832-18.946-2.913-29.018 5.231 11.758 9.555 22.79 13.045 33.259zm-33.987 30.587c5.843-1.816 12.041-1.245 17.457 1.605 5.415 2.85 9.397 7.64 11.211 13.485.397 1.279.664 2.576.831 3.877-17.64-9.004-38.687-7.202-54.507 3.662l-3.057-11.409c9.026-4.455 18.406-8.223 28.065-11.22zm-72.196 80.801c-6.151 3.552-9.442 10.138-8.588 17.187.598 4.931 3.114 9.153 6.903 11.928-.931 2.103-1.789 4.199-2.542 6.27-2.717 7.473-5.029 15.651-6.946 23.517-3.612 10.943-5.978 22.358-6.951 34.041-24.514 24.98-32.974 58.939-22.037 89.565 8.668 24.27 25.491 42.949 50.003 55.522 15.985 8.2 38.159 11.949 55.244 12.756-3.445 10.607-6.15 22.357-8.391 34.184-29.176-11.869-55.2-30.772-75.654-55.091-26.075-31.001-41.594-68.793-44.88-109.291-3.595-44.3 8.236-88.859 33.31-125.471 16.599-24.236 38.522-44.351 63.72-58.857l3.911 14.598c-.599.695-1.186 1.403-1.752 2.135-3.293 4.252-5.915 8.926-7.791 13.889-5.367 14.195-15.154 25.956-27.559 33.118zm111.803 8.739c-10.662 15.909-28.807 25.043-48.529 24.404-8.378-.266-28.28-4.85-56.04-12.905-3.16-.916-3.732-3.679-3.831-4.504-.1-.823-.204-3.635 2.636-5.274 14.812-8.552 26.467-22.511 32.818-39.306 1.452-3.841 3.485-7.463 6.043-10.766 12.468-16.1 35.215-20.656 52.907-10.604 10.154 5.77 17.215 15.168 19.881 26.464 2.63 11.144.485 22.986-5.885 32.491zm2.645-92.072c-3.901-5.683-9.145-10.374-15.419-13.676-2.003-1.054-4.064-1.936-6.165-2.657.155-1.081.359-2.17.619-3.268l18.28 6.182c.015.016.031.03.046.046.163.174.333.342.508.504.052.048.101.098.154.145.238.211.484.412.74.599.007.005.013.011.02.016 2.336 1.703 4.222 3.78 5.711 6.341-1.668 1.805-3.174 3.73-4.494 5.768zm14.232 84.151c1.468-5.001 2.193-10.203 2.164-15.428l17.205 5.07c-2.847 3.691-9.8 7.802-19.369 10.358zm40.984-35.131c-6.84-1.551-13.869-2.637-21.058-3.212-12.455-.996-21.779-11.938-20.784-24.393.482-6.034 3.284-11.52 7.89-15.445s10.467-5.821 16.501-5.339c8.056.643 15.959 1.776 23.685 3.363zm179.647 157.922c6.09 33.354-4.614 53.864-14.864 65.293 8.248-20.538 13.363-42.525 14.864-65.293zm-27.491 170.657c-5.026-15.6-11.747-32.644-20.683-49.238 6.747-8.188 12.876-16.864 18.33-25.961 2.065 1.072 22.643 12.389 22.643 37.145 0 16.04-11.318 29.723-20.29 38.054z"/><path d="m219.317 309.938c-3.335 0-6.039 2.704-6.039 6.039 0 6.057-4.314 10.984-9.617 10.984s-9.618-4.927-9.618-10.984c0-3.335-2.704-6.039-6.039-6.039s-6.039 2.704-6.039 6.039c0 12.717 9.733 23.062 21.695 23.062s21.694-10.345 21.694-23.062c.002-3.336-2.702-6.039-6.037-6.039z"/></g><path d="m147.55 173.382c-1.355 0-2.732-.275-4.051-.857-5.088-2.24-7.395-8.181-5.154-13.268 8.249-18.729 23.061-24.029 24.723-24.571 0 0 9.286-4.764 13.886 5.202 3.374 7.311-7.467 13.875-7.467 13.875-.328.121-8.084 3.084-12.72 13.609-1.66 3.766-5.349 6.009-9.217 6.01z" fill="#fff"/></g></g></svg>