<svg id="Capa_1" enable-background="new 0 0 512 512" height="512" viewBox="0 0 512 512" width="512" xmlns="http://www.w3.org/2000/svg"><g><g><path d="m382.326 501.74s36.639-17.191 41.074-48.53c4.435-31.338-20.356-48.432-20.356-48.432s50.168-16.059 45.06-85.605c-5.107-69.547-51.592-80.79-51.592-80.79s18.978-92.573-73.071-54.475c0 0 23.173-124.705-65.358-84.05l-23.893 223.052z" fill="#96b4eb"/><path d="m401.261 404.497s54.088-15.583 49.674-88.405c-.794-13.096-10.881-31.779-14.053-41.271 3.746 103.961-72.253 140.031-138.59 74.098-3.56-3.538-19.985 31.097-24.715 29.688l103.959 126.749s39.586-17.092 44.827-49.744-21.102-51.115-21.102-51.115z" fill="#8286ea"/><path d="m379.939 501.64c-15.144-40.782-39.048-72.655-66.747-93.523l-.01.239c11.222-15.902 19.973-34.003 28.123-62.856l17.273-57.109c5.802-20.544 4.954-41.393-1.259-60.25 6.313-3.605 12.36-9.162 17.69-16.842 16.232-23.389 10.124-64.113 2.841-69.167-7.283-5.055-47.57 3.472-63.802 26.86-.641.924-1.239 1.847-1.816 2.768-7.623-4.551-15.959-8.192-24.91-10.72l-61.283-17.309c-4.577-1.293-9.072-2.186-13.477-2.738.964-5.808.932-12.312-.306-19.423-4.833-27.755-37.45-52.183-46.092-50.678-8.643 1.505-31.082 35.52-26.249 63.275 1.599 9.183 4.75 16.736 8.964 22.62-14.249 9.188-25.183 20.562-31.688 29.596-15.697 21.8-29.471 53.682-29.471 53.682-30.295 15.77-46.616 44.446-44.613 73.964 1.653 24.355 12.666 44.98 30.411 61.485 15.597 14.507 44.249 26.22 60.856 29.389l2.55 1.229c-9.719 32.267-15.939 73.863-15.893 95.508" fill="#fff"/><path d="m273.902 187.609c.097-.45.175-.907.209-1.382 4.431-17.356 3.583-33.76-4.97-48.773 5.352-19.306 4.649-35.763-4.913-48.215.099-23.054-2.768-48.523-7.713-75.682-.416-4.085-6.204-4.507-7.209-.526-7.724 20.87-13.636 40.631-14.454 57.276-8.862 11.135-12.693 23.86-9.778 38.747-7.919 11.569-12.009 24.805-10.22 40.5-10.177 11.612-9.134 25.26-9.163 31.571 1.167 21.552 63.905 26.434 68.211 6.484z" fill="#f6e06e"/><path d="m273.902 187.609c.097-.45.175-.907.209-1.382 3.147-12.326 3.612-24.168.565-35.376-.35 3.315-.957 6.672-1.821 10.073-.027.406-.092.797-.174 1.181-3.635 17.033-58.762 12.398-59.945-6.046-.004-1.042-.045-2.32-.045-3.772-7.852 10.951-6.974 23.016-7.001 28.838 1.168 21.552 63.906 26.434 68.212 6.484z" fill="#dda86a"/><path d="m119.402 162.236c16.057-3.891 29.958-13.55 39.923-26.729 2.83-3.743 6.27-7.147 10.306-10.065 19.28-13.937 46.277-11.559 62.806 5.551 19.714 20.407 17.656 52.842-3.746 70.667-18.427 15.347-41.407 17.251-60.322 11.031-11.019-3.624-34.658-18.007-52.472-29.384-8.624-5.507-6.44-18.661 3.505-21.071z" fill="#96b4eb"/><path d="m232.437 130.994c-16.529-17.109-43.526-19.488-62.806-5.551-4.037 2.918-7.476 6.321-10.306 10.065-9.965 13.178-23.866 22.838-39.924 26.729-9.944 2.41-12.129 15.564-3.506 21.071 17.815 11.377 41.453 25.76 52.472 29.384 18.915 6.22 41.896 4.317 60.322-11.031 21.404-17.826 23.463-50.26 3.748-70.667zm-10.777 44.544c-10.882 13.415-27.04 17.815-41.509 15.866-8.429-1.135-27.503-8.299-41.959-14.082-6.997-2.799-7.408-12.498-.654-15.537 10.906-4.906 19.404-13.654 24.556-24.398 1.464-3.052 3.414-5.942 5.864-8.563 11.704-12.519 31.379-14.387 45.775-4.333 17.171 11.992 20.566 35.466 7.927 51.047z" fill="#8286ea"/><path d="m163.692 378.291c-4.618.012-7.969-12.57-6.616-24.943 3.315-30.307-3.846-52.144 23.74-52.144 21.308 0 20.542 21.727 24.021 52.015 1.42 12.366-1.863 24.966-6.481 24.979z" fill="#d789b9"/><path d="m175.734 378.179c-3.327.015-5.73-8.851-4.744-17.577 2.413-21.372 9.166-36.761 17.143-36.797 7.977-.037 14.778 15.289 17.258 36.639.057.489.1.98.135 1.469.165-2.831 2.865-13.99 2.519-16.973-3.514-30.25-15.912-43.746-27.215-43.746-18.496 0-20.871 21.856-24.291 52.138-1.396 12.363 2.009 24.926 6.722 24.904l35.378-.163z" fill="#c668b9"/><path d="m314.033 408.194c11.168-15.863 19.889-33.938 28.011-62.695l17.273-57.109c5.802-20.544 4.954-41.393-1.259-60.25 6.313-3.604 12.36-9.162 17.69-16.842 16.232-23.388 10.124-64.112 2.84-69.167-3.36-2.331-13.746-1.766-25.552 1.809 4.747 7.965 3.99 44.48-11.986 65.045-5.513 7.098-11.368 12.13-17.199 15.282 2.888 18.34.956 38.333-6.597 57.719l-21.969 53.836c-7.048 18.091-13.719 31.626-20.797 42.981-5.794 9.294-5.411 21.149 1.114 29.944 8.923 12.026 16.628 26.266 22.696 42.483 6.355 16.983-6.76 34.917-24.866 33.911l-150.369-3.349c-1.094 9.599-1.308 13.179-1.294 19.847h258.909c-15.125-40.732-38.989-72.574-66.645-93.445z" fill="#e1bdfc"/><path d="m466.09 58.101 8.426 23.691c.361 1.014 1.075 1.818 1.976 2.224l21.048 9.483c2.974 1.34 2.974 6.078 0 7.417l-21.048 9.483c-.901.406-1.615 1.21-1.976 2.224l-8.426 23.691c-1.19 3.347-5.4 3.347-6.59 0l-8.425-23.691c-.361-1.014-1.075-1.818-1.976-2.224l-21.048-9.483c-2.974-1.34-2.974-6.078 0-7.417l21.048-9.483c.901-.406 1.615-1.21 1.976-2.224l8.425-23.691c1.19-3.347 5.399-3.347 6.59 0z" fill="#fbf2aa"/><path d="m79.106 32.165 6.25 17.573c.268.752.797 1.349 1.466 1.65l15.613 7.034c2.206.994 2.206 4.508 0 5.502l-15.613 7.036c-.668.301-1.198.897-1.466 1.65l-6.25 17.574c-.883 2.483-4.005 2.483-4.888 0l-6.25-17.574c-.268-.752-.797-1.349-1.466-1.65l-15.613-7.035c-2.206-.994-2.206-4.508 0-5.502l15.613-7.034c.669-.301 1.198-.897 1.466-1.65l6.25-17.573c.883-2.484 4.005-2.484 4.888-.001z" fill="#fbf2aa"/><g fill="#f7e16e"><ellipse cx="24.731" cy="149.046" rx="12.5" ry="12.501" transform="matrix(.122 -.993 .993 .122 -126.221 155.381)"/><path d="m386.372 32.219c0 5.362-4.347 9.709-9.709 9.709s-9.709-4.347-9.709-9.709 4.347-9.709 9.709-9.709c5.362.001 9.709 4.347 9.709 9.709z"/></g></g><g><g fill="#3c122c"><path d="m434.975 395.068c12.262-13.091 26.268-37.015 23.358-76.646-4.243-57.767-34.991-79.386-50.535-86.686 1.289-13.027 1.465-37.634-12.415-53.359.185-3.347.191-6.354.117-8.842-.197-6.62-1.63-28.77-11.802-35.83-10.17-7.059-31.424-.652-37.694 1.48-2.786.947-6.216 2.255-9.95 3.972-1.483-18.664-6.783-38.24-20.89-49.234-10.608-8.268-24.263-10.462-40.727-6.638-.339-20.956-2.888-44.349-7.781-71.292-.906-6.485-6.2-11.476-12.779-11.955-6.531-.482-12.423 3.609-14.322 9.789-8.917 24.141-13.525 41.851-14.732 56.736-6.979 9.681-10.622 20.163-10.932 31.305-5.263-8.81-11.681-15.743-16.173-20.03-4.751-4.533-21.202-19.168-33.315-17.051-12.121 2.111-22.651 21.436-25.59 27.308-4.802 9.596-12.358 28.57-9.004 47.832.875 5.025 2.199 9.708 3.906 14.067-4.979 2.808-10.277 4.931-15.764 6.26-7.035 1.704-12.145 7.197-13.336 14.335-.743 4.454.165 8.798 2.434 12.382-12.576 18.189-23.448 41.255-27.287 49.742-31.253 17.661-49.144 48.776-46.889 82.009 1.779 26.202 13.103 49.181 33.659 68.301 15.42 14.343 40.503 25.178 57.776 30.006-8.579 32.141-13.576 69.055-13.535 88.63.012 5.658 4.602 10.236 10.257 10.235h.021c5.665-.012 10.248-4.614 10.236-10.278-.042-20.116 5.728-60.227 15.458-92.528 1.455-4.834-.821-10.008-5.37-12.199l-2.55-1.228c-.803-.387-1.654-.667-2.529-.834-14.216-2.712-41.514-13.543-55.793-26.824-16.611-15.45-25.75-33.844-27.163-54.67-1.772-26.101 13.216-50.689 39.114-64.171 2.091-1.089 3.744-2.865 4.68-5.03.127-.294 12.288-28.287 26.31-48.798 20.565 12.773 35.018 20.577 43.001 23.202 7.399 2.434 14.959 3.626 22.419 3.626 1.571 0 3.135-.068 4.694-.173v35.889c0 3.399 2.755 6.154 6.154 6.154s6.154-2.755 6.154-6.154v-37.843c7.499-1.905 14.659-5.086 21.186-9.481v31.602c0 3.399 2.756 6.154 6.154 6.154 3.399 0 6.154-2.755 6.154-6.154v-36.006c1.911.137 3.86.219 5.833.219 5.126 0 10.357-.493 15.166-1.622v27.131c0 3.399 2.756 6.154 6.154 6.154s6.154-2.755 6.154-6.154v-32.353c3.539-2.548 6.11-5.902 7.15-10.223.018-.061.031-.122.046-.182.017-.072.038-.14.054-.212.007-.032.009-.064.016-.096.022-.109.04-.218.056-.329.078-.408.158-.815.202-1.197 1.451-5.799 2.309-11.427 2.579-16.873l1.763.498c3.684 1.041 7.288 2.312 10.801 3.787-.023.216-.036.436-.036.658v73.479c0 3.399 2.755 6.154 6.154 6.154s6.154-2.756 6.154-6.154v-67.931c4.69 2.377 10.48.827 13.315-3.694.584-.932 1.079-1.686 1.553-2.37 11.852-17.079 40.322-24.629 49.263-23.902 3.802 8.112 6.697 37.435-5.155 54.512-4.264 6.144-9.092 10.781-14.35 13.782-4.236 2.419-6.183 7.485-4.657 12.117 5.786 17.562 6.185 36.29 1.155 54.167l-17.244 57.012c-.019.06-.036.121-.053.181-7.043 24.937-14.751 42.495-25.625 58.284-1.713 1.776-2.758 4.143-2.866 6.692l-.01.239c-.172 4.103 2.114 7.866 5.729 9.638 26.742 20.706 48.04 50.965 61.661 87.646 1.534 4.134 5.451 6.69 9.616 6.69.265 0 .53-.014.796-.035.526.083 1.059.136 1.597.136 1.458 0 2.942-.313 4.35-.974 1.701-.798 41.719-19.966 46.872-56.378 3.062-21.637-5.382-37.55-13.221-47.242 4.502-2.949 9.613-6.968 14.643-12.337zm-189.951-323.524c.024-.199.047-.397.059-.597.003-.047.012-.092.014-.138.445-9.068 2.675-19.339 5.492-29.211 1.734 13.001 2.792 25.029 3.195 36.269l-8.777-6.16c.008-.054.011-.109.017-.163zm-6.087 10.94 16.097 11.298c.019.039.043.076.063.115.082.16.169.315.259.471.078.134.156.268.24.4.102.159.211.313.322.466.06.083.111.17.174.252 5.181 6.746 5.869 15.416 2.16 29.196l-22.939-15.992c-.019-.532-.068-1.068-.173-1.607-1.765-9.015-.553-16.974 3.797-24.599zm25.827 61.741c.398.278.821.483 1.253.655 4.426 9.781 5.623 20.557 3.629 32.664l-17.476-11.263c.473-14.807-4.923-28.816-15.306-39.563-2.869-2.969-6.019-5.542-9.373-7.718.264-.067.531-.127.787-.211zm-96.758-62.758c6.476 2.431 21.381 14.205 29.352 28.785-10.965.08-21.957 3.427-31.332 10.203-4.44 3.21-8.346 7.025-11.609 11.34-1.147 1.516-2.349 2.976-3.601 4.379-.298-1.223-.571-2.471-.796-3.767-3.509-20.143 11.199-45.179 17.986-50.94zm2.285 125.378c-8.112-2.668-26.254-12.869-51.083-28.725-2.826-1.805-2.59-4.669-2.451-5.504.139-.833.844-3.612 4.094-4.399 16.94-4.104 32.346-14.403 43.383-28.998 2.524-3.339 5.553-6.296 9.002-8.789 7.338-5.305 15.956-7.898 24.538-7.898 11.087 0 22.115 4.33 30.237 12.738 8.27 8.56 12.473 19.779 11.832 31.589-.631 11.65-6.131 22.611-15.091 30.073-14.996 12.49-35.357 16.197-54.461 9.913zm73.239-12.806c2.873-4.468 5.077-9.345 6.55-14.462l15.364 9.902c-3.845 2.791-11.826 4.812-21.914 4.56zm65.709-35.557c-6.127-2.999-12.531-5.449-19.129-7.312l-9.733-2.749c-1.118-3.928-2.612-7.729-4.483-11.395.181-.393.347-.797.48-1.221 3.102-9.849 5.829-21.461 4.243-32.917 9.36-1.911 16.708-.854 21.927 3.208 10.478 8.155 13.329 27.868 13.327 45.785-2.324 2.006-4.56 4.199-6.632 6.601zm90.677 236.529c-3.724 1.192-6.447 4.398-7.02 8.267-.572 3.868 1.105 7.726 4.324 9.946.196.135 19.528 13.779 16.023 38.55-2.466 17.422-18.055 30.041-27.674 36.283-13.933-33.223-33.938-61.281-58.541-82.019 9.96-15.976 17.378-33.807 24.12-57.658l17.246-57.019c.019-.06.036-.121.053-.182 5.459-19.326 5.714-39.477.803-58.742 5.204-4.076 9.953-9.194 14.184-15.289 1.449-2.088 2.728-4.249 3.86-6.453 1.319 10.048.208 20.461-.832 25.629-1.11 5.412 2.176 10.708 7.546 12.007 1.608.421 39.415 11.001 43.865 71.594 4.417 60.133-36.29 74.525-37.957 75.086z"/><path d="m157.058 265.185c1.394-10.278-5.833-19.775-16.11-21.168-10.274-1.398-19.774 5.832-21.169 16.11-1.394 10.278 5.833 19.774 16.11 21.169.854.116 1.703.172 2.542.172 9.258-.001 17.349-6.86 18.627-16.283zm-12.196-1.655c-.482 3.552-3.759 6.049-7.318 5.569-3.553-.482-6.051-3.765-5.569-7.318.443-3.258 3.238-5.628 6.44-5.628.29 0 .584.019.878.059 1.721.234 3.248 1.123 4.3 2.506 1.051 1.382 1.502 3.091 1.269 4.812z"/><path d="m261.845 251.534c-7.587-1.032-15.11.957-21.198 5.59-6.088 4.634-10.007 11.361-11.036 18.942-1.03 7.581.956 15.11 5.589 21.198 4.634 6.089 11.362 10.008 18.943 11.037 1.307.178 2.612.265 3.911.265 6.224 0 12.249-2.021 17.287-5.856 6.088-4.634 10.007-11.361 11.036-18.942s-.956-15.11-5.59-21.198-11.361-10.008-18.942-11.036zm12.336 30.579c-.587 4.324-2.822 8.16-6.294 10.803-3.472 2.642-7.765 3.775-12.089 3.188s-8.16-2.822-10.803-6.294-3.775-7.765-3.188-12.089 2.822-8.16 6.294-10.802c2.873-2.187 6.308-3.34 9.858-3.34.74 0 1.485.05 2.231.151 4.324.587 8.16 2.822 10.803 6.294 2.642 3.472 3.774 7.766 3.188 12.089z"/><path d="m180.809 295.04c-27.414 0-28.692 18.523-29.927 36.437-2.705 39.26 3.229 45.6 5.463 47.987 2.014 2.152 4.553 3.289 7.341 3.289h.027l34.526-.093c1.902-.005 5.545-.642 8.57-4.849 7.449-10.362 8.064-40.491 4.197-52.103-4.753-14.278-12.481-30.668-30.197-30.668zm16.24 75.316-32.114.086c-1.529-2.971-3.457-13.715-1.776-38.118 1.419-20.564 3.096-24.976 17.649-24.976 5.771 0 12.01 2.695 18.52 22.249 3.407 10.23 1.331 35.602-2.279 40.759z"/><path d="m260.715 329.114c-18.071 11.771-23.996 36.986-13.211 56.208 1.129 2.012 3.219 3.144 5.373 3.144 1.019 0 2.053-.254 3.006-.788 2.964-1.663 4.019-5.414 2.355-8.378-7.678-13.682-3.553-31.569 9.194-39.872 2.849-1.855 3.653-5.668 1.798-8.516s-5.666-3.654-8.515-1.798z"/><path d="m92.286 346.067c-2.637 2.145-3.037 6.02-.892 8.658 1.216 1.496 2.99 2.272 4.779 2.272 1.364 0 2.738-.451 3.878-1.379 17.102-13.904 20.871-39.531 8.402-57.125-1.966-2.774-5.806-3.427-8.58-1.463-2.772 1.965-3.428 5.806-1.462 8.58 8.796 12.412 6.048 30.561-6.125 40.457z"/></g><path d="m177.121 163.66c-2.483 0-4.972-.896-6.943-2.71-4.168-3.837-4.436-10.326-.6-14.493 14.126-15.344 30.157-15.572 31.937-15.553 0 0 10.587.009 10.992 9.992s-11.085 10.52-11.085 10.52c-.357.008-8.813.312-16.75 8.934-2.024 2.196-4.784 3.31-7.551 3.31z" fill="#fff"/></g></g></svg>