<svg id="Capa_1" enable-background="new 0 0 507.434 507.434" height="512" viewBox="0 0 507.434 507.434" width="512" xmlns="http://www.w3.org/2000/svg"><g><g><path d="m392.986 260.922c0 42.358 6.782 106.871 52.224 106.871s52.224-64.513 52.224-106.871z" fill="#fff"/><path d="m494.571 303.827c-4.983 33.068-17.914 63.965-49.361 63.965-31.448 0-44.378-30.897-49.361-63.965z" fill="#d789b9"/><path d="m495.533 296.617c1.448-12.381 1.901-24.774 1.901-35.695h-22.918c0 10.834-.569 23.526-2.581 35.695z" fill="#e1bdfc"/><path d="m469.895 306.617c-5.116 20.728-15.536 37.727-36.144 37.727-8.365 0-15.049-2.805-20.384-7.521.666 1.749 1.286 3.513 1.828 5.303 1.767 5.825 3.446 11.763 5.622 17.464 6.537 5.168 14.555 8.203 24.392 8.203 30.562 0 43.636-29.18 48.922-61.176z" fill="#c668b9"/><path d="m387.736 458.144c-26.845 17.741-72.32 21.46-86.422-.683 3.838-1.701-8.627-41.665-6.49-44.748 3.543-5.112 45.77 9.801 61.828 3.074 8.071-3.381 45.695-37.756 65.622-21.801s-7.693 46.417-34.538 64.158z" fill="#fff"/><path d="m412.668 442.996c16.62-16.738 24.789-36.853 9.606-49.01-16.498-13.21-32.305 8.473-41.836 18.244 10.715 10.291 21.08 20.963 32.23 30.766z" fill="#a1e8c3"/><path d="m68.581 478.402s-32.452-15.227-36.38-42.984 18.03-42.897 18.03-42.897-44.435-14.224-39.911-75.823 45.696-71.558 45.696-71.558-16.809-81.995 64.721-48.25c0 0-20.525-110.454 57.89-74.445l21.162 197.563z" fill="#ccf3e2"/><path d="m51.6 392.307s-39.989-14.093-39.27-53.251c6.571 17.235 50.024 77.594 109.248-22.951 2.201-3.736 36.837 58.293 40.958 57.201l-93.1 106.718s-33.734-15.799-37.402-44.133c-3.667-28.333 19.566-43.584 19.566-43.584z" fill="#b1b6e1"/><path d="m70.957 479.987c13.413-36.122 34.586-64.352 59.12-82.836l.009.212c-9.94-14.085-17.691-30.117-24.909-55.673l-15.299-50.583c-5.139-18.197-4.388-36.663 1.115-53.365-5.591-3.193-10.948-8.115-15.669-14.917-14.377-20.716-8.967-56.786-2.516-61.263s42.134 3.075 56.511 23.791c.568.819 1.097 1.636 1.609 2.452 6.752-4.031 14.135-7.256 22.064-9.495l54.28-15.331c4.053-1.145 8.035-1.936 11.937-2.425-.854-5.145-.826-10.905.271-17.204 4.281-24.583 33.17-46.22 40.825-44.887s27.53 31.461 23.249 56.044c-1.416 8.134-4.207 14.823-7.94 20.035 12.621 8.138 22.306 18.213 28.067 26.214 13.903 19.309 26.103 47.548 26.103 47.548 26.833 13.968 41.289 39.367 39.515 65.512-1.464 21.572-11.218 39.84-26.936 54.459-13.815 12.849-39.193 23.224-53.902 26.03l-2.258 1.088c8.608 28.579 14.118 65.422 14.077 84.594" fill="#fff"/><path d="m330.115 245.359s-12.355-28.598-26.435-48.152c-5.834-8.103-15.643-18.306-28.424-26.547 3.78-5.278 6.607-12.053 8.041-20.29 4.335-24.895-15.793-55.406-23.545-56.757-3.458-.602-11.193 3.432-19.087 10.285.568-.052 1.071-.035 1.496.06 6.946 1.547 23.843 29.959 18.877 52.267-1.643 7.381-4.482 13.382-8.12 17.991 11.199 7.984 19.629 17.615 24.559 25.181 11.895 18.259 21.851 44.615 21.851 44.615 23.953 13.925 36.093 37.781 33.354 61.624-2.26 19.673-11.965 35.97-26.969 48.674-8.696 7.363-20.199 16.693-31.917 21.138-9.082 3.445-17.424 8.757-16.258 18.682 1.332 11.326 1.743 31.133 2.763 43.729.944 11.656-8.561 21.488-20.243 20.943l-161.999-.402c-6.052 10.284-5.566 9.486-10.059 21.587h232.237c.041-19.415-5.538-56.727-14.256-85.669l2.287-1.102c14.896-2.842 40.597-13.348 54.587-26.361 15.917-14.805 25.796-33.305 27.278-55.151 1.796-26.478-12.844-52.2-40.018-66.345z" fill="#e1bdfc"/><path d="m164.615 200.167c-.086-.398-.155-.803-.186-1.224-3.924-15.373-3.173-29.902 4.402-43.2-4.74-17.1-4.118-31.676 4.352-42.706-.088-20.419 2.452-42.978 6.831-67.033.369-3.618 5.495-3.992 6.385-.466 6.842 18.485 12.078 35.988 12.802 50.731 7.849 9.863 11.242 21.133 8.661 34.319 7.014 10.247 10.636 21.97 9.052 35.872 9.014 10.285 8.09 22.374 8.116 27.963-1.033 19.09-56.601 23.414-60.415 5.744z" fill="#f6e06e"/><path d="m164.615 200.167c-.086-.398-.155-.803-.186-1.224-2.787-10.917-3.199-21.406-.5-31.334.31 2.936.848 5.91 1.613 8.922.024.36.081.706.154 1.046 3.22 15.087 52.047 10.982 53.095-5.355.004-.923.039-2.055.039-3.341 6.955 9.7 6.177 20.386 6.201 25.543-1.034 19.089-56.602 23.413-60.416 5.743z" fill="#dda86a"/><path d="m301.46 177.694c-14.223-3.446-26.535-12.001-35.361-23.674-2.507-3.316-5.553-6.33-9.129-8.915-17.077-12.344-40.989-10.238-55.629 4.917-17.462 18.075-15.638 46.803 3.318 62.592 16.321 13.593 36.676 15.28 53.429 9.77 9.76-3.21 30.697-15.95 46.476-26.026 7.639-4.879 5.703-16.53-3.104-18.664z" fill="#ccf3e2"/><path d="m204.659 212.614c16.321 13.593 36.676 15.28 53.429 9.77 9.76-3.21 30.697-15.95 46.476-26.026 7.638-4.878 5.703-16.529-3.105-18.663-14.223-3.446-26.535-12.002-35.361-23.674-2.507-3.316-5.553-6.33-9.129-8.915-17.077-12.344-40.989-10.238-55.629 4.916-17.461 18.075-15.637 46.803 3.319 62.592zm13.248-68.351c12.751-8.905 30.178-7.25 40.544 3.838 2.171 2.322 3.898 4.881 5.194 7.584 4.564 9.517 12.09 17.265 21.75 21.61 5.982 2.691 5.618 11.282-.579 13.761-12.804 5.122-29.698 11.467-37.164 12.473-12.815 1.726-27.127-2.171-36.766-14.053-11.194-13.8-8.187-34.592 7.021-45.213z" fill="#b1b6e1"/><path d="m468.27 99.229 8.215 23.098c.352.989 1.048 1.773 1.926 2.168l20.521 9.246c2.899 1.306 2.899 5.925 0 7.232l-20.521 9.246c-.879.396-1.575 1.18-1.926 2.169l-8.215 23.098c-1.16 3.263-5.264 3.263-6.425 0l-8.214-23.098c-.352-.989-1.048-1.773-1.927-2.169l-20.521-9.246c-2.899-1.306-2.899-5.925 0-7.232l20.521-9.246c.879-.396 1.575-1.179 1.927-2.168l8.214-23.098c1.16-3.263 5.264-3.263 6.425 0z" fill="#fbf2aa"/><path d="m62.791 28.248 6.093 17.133c.261.734.777 1.315 1.429 1.608l15.222 6.858c2.151.969 2.151 4.395 0 5.364l-15.222 6.858c-.652.294-1.168.875-1.429 1.608l-6.093 17.133c-.861 2.421-3.905 2.421-4.766 0l-6.093-17.133c-.261-.734-.777-1.315-1.429-1.608l-15.223-6.857c-2.15-.969-2.15-4.395 0-5.364l15.222-6.858c.652-.294 1.168-.875 1.429-1.608l6.093-17.133c.861-2.422 3.906-2.422 4.767-.001z" fill="#fbf2aa"/><g fill="#f7e16e"><circle cx="312.746" cy="31.218" r="12.187"/><path d="m401.611 73.995c0 5.228-4.238 9.466-9.466 9.466s-9.466-4.238-9.466-9.466 4.238-9.466 9.466-9.466c5.228.001 9.466 4.239 9.466 9.466z"/></g></g><g><path d="m473.251 419.664h-18.041v-42.775c25.756-4.807 52.225-30.535 52.225-115.966 0-5.523-4.478-10-10-10h-104.449c-5.523 0-10 4.477-10 10 0 85.431 26.468 111.159 52.224 115.966v17.377c-1.592-3.064-3.827-5.797-6.686-8.086-17.855-14.296-39.423-1.492-56.755 8.793-9.064 5.38-18.438 10.942-25.967 12.358-14.179 2.672-30.921-3.314-41.555-8.758 14.661-4.964 32.837-13.652 44.663-24.65 18.125-16.858 28.534-37.987 30.104-61.104 2.016-29.701-13.901-57.506-41.734-73.349-3.506-7.729-13.019-27.825-24.024-43.781 1.786-3.151 2.477-6.871 1.842-10.684-1.091-6.543-5.775-11.579-12.224-13.142-4.548-1.102-8.948-2.826-13.105-5.09 1.463-3.803 2.616-7.864 3.374-12.225 3.016-17.318-3.754-34.332-8.058-42.932-2.652-5.298-12.17-22.735-23.328-24.68-11.164-1.945-26.011 11.251-30.297 15.342-3.593 3.429-8.558 8.759-12.941 15.486-.772-8.896-3.951-17.306-9.545-25.134-1.107-13.213-5.198-28.903-13.07-50.223-1.814-5.867-7.441-9.737-13.619-9.29-6.253.456-11.287 5.196-12.156 11.356-4.253 23.423-6.514 43.832-6.887 62.148-14.369-3.102-26.348-1.018-35.736 6.3-12.4 9.664-17.256 26.622-18.734 42.97-2.882-1.276-5.529-2.279-7.725-3.025-5.657-1.924-24.842-7.692-34.203-1.195-9.362 6.497-10.669 26.488-10.847 32.46-.063 2.121-.055 4.677.089 7.502-12.241 14.023-12.264 35.244-11.091 47.099-14.157 6.854-40.917 26.419-44.649 77.232-2.602 35.433 9.948 56.852 20.934 68.58 4.2 4.484 8.471 7.922 12.305 10.514-6.876 8.795-13.961 22.854-11.286 41.761 4.632 32.735 40.509 49.92 42.034 50.635 1.373.645 2.818.949 4.241.949.498 0 .992-.043 1.48-.116.213.014.426.028.639.028 4.061 0 7.879-2.492 9.376-6.521 11.993-32.296 30.726-58.936 54.243-77.17 3.482-1.747 5.676-5.398 5.502-9.374l-.009-.212c-.107-2.45-1.105-4.729-2.739-6.449-9.549-13.882-16.328-29.34-22.528-51.292-.017-.06-.034-.118-.052-.178l-15.272-50.492c-4.403-15.653-4.053-32.053 1.013-47.431 1.488-4.516-.41-9.455-4.539-11.812-4.539-2.593-8.715-6.608-12.413-11.935-9.914-14.286-7.802-39.241-4.695-46.864 8.26-.281 32.346 6.509 42.256 20.789.423.61.854 1.268 1.354 2.066 2.889 4.608 8.931 6.064 13.6 3.275 6.129-3.659 12.742-6.505 19.655-8.458l.837-.236c.293 4.52 1.023 9.173 2.219 13.96.04.338.11.696.179 1.055.014.099.031.197.05.295.007.035.009.065.017.1 0 .001.001.003.001.004.014.064.033.124.047.187.017.067.032.134.051.201 2.799 11.541 17.45 15.51 31.215 15.509 1.954 0 3.89-.079 5.77-.229 1.414-.112 2.854-.28 4.3-.481.23.199.451.406.685.601 11.119 9.261 24.911 14.099 39.113 14.099 6.665 0 13.419-1.065 20.03-3.24 7.014-2.306 19.6-9.08 37.448-20.136 12.223 18.021 22.822 42.393 22.933 42.65.912 2.109 2.523 3.842 4.561 4.902 22.611 11.77 35.699 33.215 34.154 55.965-1.235 18.205-9.232 34.292-23.77 47.814-12.521 11.646-36.481 21.147-48.965 23.529-.854.163-1.685.438-2.469.815l-2.259 1.089c-4.432 2.137-6.651 7.181-5.232 11.892 8.48 28.154 13.689 64.323 13.652 81.689-.012 5.522 4.456 10.01 9.978 10.021h.022c5.443 0 9.867-4.353 9.989-9.772 9.683 2.879 20.103 4.523 30.676 4.522 14.157-.001 28.566-2.908 41.75-9.594 12.917-6.55 29.29-19.315 40.922-33.806h49.897c5.522 0 10-4.478 10-10 .005-5.521-4.473-9.998-9.995-9.998zm-394.122-179.442c-4.24 17.045-3.962 34.848.862 51.928.017.06.034.118.052.178l15.273 50.497c5.902 20.875 12.389 36.57 21.047 50.621-21.37 18.193-38.801 42.606-51.064 71.442-8.42-5.648-21.152-16.411-23.198-30.871-2.978-21.043 13.176-32.814 13.805-33.264 3.139-2.164 4.774-5.925 4.216-9.696-.558-3.772-3.212-6.897-6.843-8.061-.37-.118-36.889-12.437-32.987-65.566 3.847-52.386 36.078-62.024 38.116-62.58 5.297-1.19 8.478-6.37 7.407-11.699-.812-4.042-1.676-11.743-1.044-19.577.649 1.109 1.329 2.207 2.073 3.279 3.673 5.29 7.787 9.765 12.285 13.369zm179.093-132.988c5.957 5.605 18.149 27.043 15.218 43.885-.116.669-.261 1.308-.4 1.954-.737-.87-1.462-1.755-2.155-2.672-2.922-3.863-6.421-7.281-10.4-10.158-8.004-5.786-17.324-8.782-26.686-9.113 6.848-11.787 18.792-21.447 24.423-23.896zm-72.633-31.72c1.89 7.282 3.3 14.635 3.625 21.247.002.044.01.086.013.13.012.198.035.396.059.594l-5.878 4.125c.337-8.196 1.054-16.858 2.181-26.096zm-4.474 43.614c.059-.077.106-.158.162-.235.112-.154.222-.31.325-.471.079-.124.152-.249.226-.375.09-.156.179-.312.261-.474.071-.138.135-.277.199-.417.022-.05.048-.097.07-.147l12.739-8.941c3.483 6.393 4.427 13.07 2.953 20.6-.103.525-.15 1.048-.169 1.566l-18.76 13.078c-2.945-11.39-2.295-18.599 1.994-24.184zm-31.104 47.883c-5.67 1.602-11.182 3.688-16.466 6.229-1.642-1.854-3.396-3.554-5.206-5.137.025-15.531 2.51-32.44 11.471-39.413 4.253-3.31 10.227-4.245 17.833-2.836-1.181 10.027 1.206 20.114 3.912 28.705.133.422.298.825.48 1.216-1.408 2.849-2.55 5.792-3.455 8.816zm21.993-4.261c1.986-1.237 4.491-2.611 6.203-4.173l20.176-14.065c-.458.439-.913.881-1.357 1.341-9.228 9.553-14.059 21.981-13.72 35.13l-14.51 9.351c-1.545-10.192-.491-19.3 3.208-27.584zm1.06 39.11 12.331-7.947c1.222 4.014 2.953 7.854 5.148 11.42-7.878.081-14.147-1.398-17.479-3.473zm83.149 14.824c-16.74 5.503-34.578 2.26-47.714-8.681-7.819-6.512-12.619-16.078-13.169-26.244-.558-10.307 3.109-20.098 10.327-27.568 7.088-7.337 16.71-11.115 26.385-11.115 7.488 0 15.01 2.264 21.412 6.892 3.013 2.178 5.656 4.759 7.858 7.672 9.851 13.027 23.606 22.221 38.734 25.886 2.48.602 3.074 2.615 3.214 3.453.14.841.232 2.943-1.926 4.322-21.95 14.018-37.975 23.032-45.121 25.383zm117.174 238.947c-20.533 10.412-45.435 8.992-64.727 1.371-1.213-11.179-3.211-24.094-5.886-37.076 13.552 5.764 30.808 10.052 46.726 7.06 8.076-1.519 16.107-5.417 23.983-9.861l19.829 24.879c-6.267 5.386-13.146 10.189-19.925 13.627zm44.614-48.259c-.734 7.104-7.076 16.983-15.958 26.334l-18.094-22.702c15.238-8.978 25.784-14.25 32.075-9.213 1.141.915 2.328 2.174 1.977 5.581zm-14.881-136.45h84.181c-.245 8.967-.832 17.303-1.749 25.005h-80.684c-.916-7.701-1.503-16.038-1.748-25.005zm8.393 56.064c-1.952-5.668-3.566-12.037-4.851-19.059h77.097c-1.285 7.022-2.899 13.39-4.851 19.059-10.607 30.807-27.987 30.807-33.698 30.807-5.711-.001-23.091-.001-33.697-30.807z" fill="#3c122c"/><path d="m250.336 179.871c-2.699 0-5.388-1.085-7.36-3.227-6.672-7.248-13.9-7.618-13.988-7.618 0 0 0 0-.001 0-.045.001-.092.001-.138.001-5.46 0-9.922-4.389-9.996-9.865-.075-5.522 4.342-10.06 9.864-10.134 1.6-.045 16.191.185 28.973 14.071 3.74 4.063 3.479 10.39-.585 14.13-1.921 1.768-4.348 2.642-6.769 2.642z" fill="#fff"/><g fill="#3c122c"><path d="m190.062 327.812c-23.373 0-42.388-19.015-42.388-42.387 0-23.373 19.015-42.388 42.388-42.388 23.372 0 42.388 19.015 42.388 42.388 0 23.372-19.015 42.387-42.388 42.387zm0-72.774c-16.756 0-30.388 13.632-30.388 30.388 0 16.755 13.632 30.387 30.388 30.387s30.388-13.632 30.388-30.387c0-16.757-13.632-30.388-30.388-30.388z"/><path d="m173.129 343.268c0 3.819 3.096 6.915 6.915 6.915s6.915-3.096 6.915-6.915-3.096-6.915-6.915-6.915c-3.819.001-6.915 3.096-6.915 6.915z"/><circle cx="180.044" cy="363.815" r="6.915"/><path d="m266.834 317.087c-1.011 0-2.035-.256-2.976-.794-2.876-1.646-3.872-5.312-2.226-8.188 3.349-5.849 9.606-9.395 16.347-9.23 5.624.13 10.8 2.779 14.2 7.268 2.001 2.642 1.482 6.404-1.159 8.405-2.643 2.002-6.405 1.481-8.405-1.159-1.178-1.555-2.969-2.472-4.913-2.518-2.368-.051-4.496 1.171-5.655 3.197-1.109 1.935-3.132 3.019-5.213 3.019z"/><path d="m286.649 262.888c-2.868 0-5.404-2.063-5.906-4.985-.562-3.266 1.632-6.368 4.897-6.929l19.882-3.414c3.27-.567 6.367 1.632 6.929 4.897.561 3.266-1.632 6.368-4.898 6.929l-19.882 3.414c-.343.06-.685.088-1.022.088z"/><path d="m184.003 294.541c-2.366 0-4.608-1.409-5.558-3.735-1.251-3.068.221-6.57 3.289-7.822l18.678-7.62c3.068-1.254 6.57.221 7.822 3.289 1.251 3.068-.221 6.57-3.289 7.822l-18.678 7.62c-.742.303-1.509.446-2.264.446z"/></g></g></g></svg>