<svg id="Capa_1" enable-background="new 0 0 512 512" height="512" viewBox="0 0 512 512" width="512" xmlns="http://www.w3.org/2000/svg"><g><g><path d="m399.219 501.562s36.069-22.953 36.069-55.743-28.691-46.725-28.691-46.725 50.503-23.755 34.74-94.353-66.456-75.383-66.456-75.383 6.197-97.714-85.178-45.273c0 0 5.827-131.283-81.459-76.729l8.089 232.27z" fill="#faf1a9"/><path d="m406.597 399.093s50.503-23.755 34.74-94.353c-2.835-12.697-15.646-29.402-20.242-38.196 20.002 101.189-48.732 148.443-124.035 94.319-4.041-2.905-14.679 33.584-19.531 32.948l121.691 107.751s36.069-22.953 36.069-55.743c-.001-32.79-28.692-46.726-28.692-46.726z" fill="#dfb5a7"/><path d="m399.249 501.827c-11.974-43.585-33.516-89.022-67.692-116.681 6.423-18.198 9.895-37.828 9.895-67.556l1.091-59.148c0-21.167-6.428-40.832-17.438-57.151 5.052-5.141 9.325-12.074 12.341-20.838 9.185-26.692-7.619-63.904-15.93-66.764-8.312-2.86-44.455 16.133-53.64 42.824-.363 1.055-.684 2.096-.987 3.131-8.5-2.288-17.435-3.516-26.658-3.516h-63.141c-4.715 0-9.245.359-13.598 1.02-.646-5.802-2.429-12-5.527-18.451-12.092-25.181-49.798-39.7-57.639-35.935-7.841 3.766-20.085 42.27-7.994 67.451 4.001 8.331 9.043 14.689 14.65 19.168-11.12 12.607-18.488 26.408-22.26 36.78-9.102 25.032-13.654 59.166-13.654 59.166-24.658 23.212-32.502 54.974-22.636 82.599 8.141 22.794 24.208 39.507 45.589 50.473 18.792 9.639 49.289 13.094 65.989 11.641-9.281 20.417-14.182 49.808-17.475 71.786h256.714z" fill="#c1e5ef"/><path d="m331.557 385.145c6.423-18.198 9.895-37.828 9.895-67.556l1.091-59.148c0-21.167-6.428-40.832-17.438-57.151 5.052-5.141 9.325-12.074 12.341-20.838 9.185-26.692-7.619-63.904-15.93-66.764-3.922-1.35-5.042-.501-15.602 6.395 6.543 12.277 11.035 28.079 9.38 47.942-1.042 12.507-17.216 25.739-21.446 30.631 9.219 15.526 16.276 67.756 16.276 87.895l-.276 15.017c0 20.613-8.841 48.633-13.629 67.84-2.793 11.201-4.352 21.266 4.019 29.215 11.256 10.687 19.973 20.971 27.471 39.892 8.346 21.063-7.251 43.907-29.908 43.907h-152.133c-1.201 6.797-2.23 13.383-3.132 19.404h256.714c-11.975-43.584-33.517-89.021-67.693-116.681z" fill="#a6aaed"/><path d="m236.553 173.148c-.033-.455-.088-.912-.187-1.373-.639-17.749-6.032-33.116-18.367-45.007-.307-19.862-5.578-35.32-18.157-44.492-6.352-21.958-16.203-45.384-28.501-69.837-1.538-3.769-7.162-2.553-7.004 1.516-1.512 22.013-1.61 42.464 2.267 58.527-5.317 13.071-5.402 26.246 1.534 39.593-4.298 13.22-4.487 26.954 1.603 41.385-6.434 13.892-1.625 26.583.112 32.595 7.137 20.175 68.183 7.275 66.7-12.907z" fill="#e8c2d8"/><path d="m236.553 173.148c-.033-.455-.088-.912-.187-1.373-.454-12.605-3.322-24-9.356-33.81.594 3.251.955 6.615 1.084 10.091.088.394.135.784.165 1.172 1.305 17.22-52.432 28.227-58.715 11.012-.295-.99-.691-2.195-1.097-3.576-4.407 12.613-.198 23.845 1.405 29.391 7.138 20.175 68.184 7.275 66.701-12.907z" fill="#d392d8"/><path d="m82.486 192.216c14.187-8.192 24.709-21.267 30.504-36.59 1.646-4.353 3.966-8.552 6.99-12.456 14.443-18.65 40.789-23.937 61.298-12.283 24.46 13.899 31.572 45.33 16.198 68.271-13.237 19.752-34.566 27.99-54.299 27.362-11.496-.366-38.005-7.438-58.133-13.279-9.743-2.828-11.344-15.952-2.558-21.025z" fill="#faf1a9"/><path d="m181.277 130.886c-20.508-11.653-46.855-6.367-61.298 12.283-3.024 3.905-5.344 8.104-6.989 12.457-5.794 15.323-16.317 28.398-30.504 36.59-8.786 5.073-7.186 18.197 2.557 21.024 20.128 5.841 46.637 12.913 58.133 13.279 19.733.628 41.062-7.61 54.299-27.362 15.374-22.941 8.262-54.371-16.198-68.271zm2.205 45.389c-6.601 15.804-20.741 24.508-35.05 26.7-8.336 1.277-28.484-.203-43.852-1.662-7.439-.706-10.542-9.817-4.967-14.596 9.003-7.717 14.64-18.415 16.537-30.076.539-3.313 1.586-6.607 3.184-9.785 7.633-15.182 25.827-22.461 42.333-16.923 19.686 6.604 29.481 27.985 21.815 46.342z" fill="#dfb5a7"/><path d="m457.356 87.975 8.354 23.49c.357 1.006 1.066 1.803 1.959 2.205l20.87 9.403c2.948 1.328 2.948 6.026 0 7.354l-20.87 9.403c-.894.403-1.602 1.2-1.959 2.205l-8.354 23.49c-1.18 3.319-5.354 3.319-6.534 0l-8.354-23.49c-.358-1.006-1.066-1.803-1.959-2.205l-20.87-9.403c-2.948-1.328-2.948-6.026 0-7.354l20.87-9.403c.894-.403 1.602-1.2 1.959-2.205l8.354-23.49c1.18-3.318 5.354-3.318 6.534 0z" fill="#e8c2d8"/><path d="m320.398 5.87 6.197 17.424c.265.746.791 1.337 1.453 1.636l15.481 6.975c2.187.985 2.187 4.47 0 5.455l-15.481 6.975c-.663.299-1.188.89-1.453 1.636l-6.197 17.425c-.875 2.462-3.971 2.462-4.847 0l-6.197-17.425c-.265-.746-.79-1.337-1.453-1.636l-15.481-6.975c-2.187-.985-2.187-4.47 0-5.455l15.481-6.975c.663-.299 1.188-.89 1.453-1.636l6.197-17.424c.876-2.462 3.972-2.462 4.847 0z" fill="#e8c2d8"/><g fill="#d789b9"><circle cx="33.644" cy="52.388" r="12.395"/><path d="m406.953 58.3c0 5.317-4.31 9.627-9.627 9.627s-9.627-4.31-9.627-9.627 4.31-9.626 9.627-9.626c5.316 0 9.627 4.31 9.627 9.626z"/></g></g><g><g fill="#3c122c"><path d="m424.312 399.246c4.37-3.692 9.268-8.606 13.813-14.902 10.942-15.162 22.104-41.663 13.138-81.82-8.865-39.701-28.451-60.165-43.321-70.342-8.797-6.02-16.974-9.268-22.892-11.008-.589-14.57-4.514-43.213-25.46-56.245-2.929-1.822-6.047-3.253-9.344-4.305-.336-10.334-2.627-19.582-4.504-25.542-1.972-6.264-9.308-27.013-20.917-31.008-11.608-3.992-30.161 7.847-35.569 11.57-.112.077-.237.168-.352.247-5.383-12.167-12.65-20.973-21.76-26.29-13.339-7.785-29.485-7.589-48.147.529-2.351-5.038-5.662-9.748-10.311-13.794-6.198-20.548-15.416-42.902-28.135-68.22-2.675-5.914-9.104-9.188-15.5-7.797-6.329 1.37-10.808 6.906-10.886 13.317-1.731 25.457-1.162 43.593 1.852 58.089-5.446 15.459-4.409 30.597 3.097 45.041.309.594.683 1.127 1.085 1.632-.019.097-.031.194-.05.29-1.342-.056-2.683-.068-4.022-.025-8.155-8.611-17.629-14.501-23.817-17.776-5.755-3.047-25.387-12.567-36.385-7.292-10.996 5.282-15.836 26.559-17.058 32.955-1.996 10.45-4.092 30.591 4.299 48.067 1.197 2.492 2.501 4.84 3.885 7.075-2.41 1.94-4.948 3.701-7.615 5.241-6.215 3.588-9.54 10.242-8.677 17.365.603 4.979 3.141 9.242 6.965 12.046-.939 2.127-1.797 4.247-2.559 6.342-7.734 21.27-12.228 48.201-13.67 57.772-25.062 25.274-33.748 59.785-22.64 90.889 8.758 24.521 25.757 43.397 50.525 56.101 16.155 8.286 38.558 12.074 55.821 12.889-5.977 18.405-9.762 40.214-12.723 59.984-.832 5.555 2.996 10.732 8.551 11.564 5.553.829 10.732-2.996 11.564-8.551 3.581-23.899 8.362-50.797 16.675-69.086 1.496-3.29 1.133-7.128-.954-10.08-2.087-2.951-5.586-4.574-9.185-4.26-14.293 1.245-43.261-1.734-60.466-10.558-20.014-10.267-33.692-25.355-40.653-44.845-8.724-24.429-1.049-51.93 20.03-71.773 1.702-1.603 2.801-3.743 3.11-6.061.044-.33 4.506-33.313 13.131-57.035.565-1.555 1.477-3.855 2.771-6.657 22.353 6.141 37.776 9.379 45.932 9.64.779.025 1.554.037 2.329.037 23.26 0 44.525-11.137 57.233-30.1.238-.355.455-.721.684-1.081 1.702-.246 3.382-.538 5.015-.881 16.394-3.437 35.114-12.679 34.41-27.453 0-.089-.005-.178-.009-.267-.004-.058-.001-.114-.005-.172 0-.002-.001-.004-.001-.006-.004-.058-.011-.11-.016-.167-.003-.033-.005-.067-.01-.1-.041-.469-.094-.919-.167-1.344-.066-1.613-.184-3.191-.326-4.755 7.492.153 14.925 1.198 22.124 3.135 5.34 1.44 10.851-1.656 12.404-6.963.304-1.041.573-1.891.844-2.679 6.706-19.49 31.849-34.368 40.565-36.083 5.814 6.715 16.478 33.915 9.772 53.404-2.411 7.01-5.769 12.736-9.978 17.02-3.389 3.449-3.88 8.807-1.176 12.816 10.253 15.197 15.68 32.959 15.698 51.371l-1.089 59.051c-.001.062-.002.125-.002.188 0 26.48-2.786 45.671-9.315 64.172-1.433 4.06-.154 8.582 3.192 11.29 27.911 22.589 50.741 62.178 64.283 111.471 1.24 4.514 5.335 7.478 9.8 7.478.892 0 1.799-.118 2.7-.366 1.84-.505 3.414-1.493 4.644-2.779 8.116-5.672 38.871-29.385 38.871-63.036 0-22.797-11.447-37.882-21.146-46.574zm-237.584-324.866-10.072-3.406c-.007-.047-.019-.093-.026-.14-.034-.205-.069-.409-.115-.612-.01-.042-.014-.084-.024-.127-2.111-8.751-2.862-19.145-2.943-29.322 5.283 11.881 9.653 23.029 13.18 33.607zm-12.833 8.543 18.472 6.246c.015.016.032.031.047.047.165.176.336.345.512.507.053.049.103.1.157.148.24.214.489.416.747.605.007.006.013.012.02.017 6.815 4.97 9.893 13.024 10.218 27.171l-26.292-8.797c-.167-.501-.363-.997-.614-1.481-4.199-8.082-5.272-15.993-3.267-24.463zm-68.961 29.433c5.347.449 17.155 4.972 27.568 12.548-6.602 3.476-12.557 8.346-17.347 14.53-3.327 4.297-5.977 9.019-7.873 14.034-1.601 4.236-3.601 8.249-5.935 11.999-8.525-18.279-1.305-45.83 3.587-53.111zm87.472 83.405c-10.773 16.076-29.088 25.301-49.036 24.659-8.465-.269-28.575-4.9-56.625-13.04-3.193-.926-3.77-3.717-3.871-4.551-.1-.831-.206-3.672 2.664-5.328 14.967-8.642 26.743-22.747 33.16-39.717 1.467-3.88 3.522-7.541 6.106-10.878 8.095-10.453 20.476-16.09 33.038-16.09 6.987 0 14.031 1.745 20.421 5.376 10.261 5.831 17.395 15.327 20.09 26.742 2.657 11.258.489 23.222-5.947 32.827zm17.053-8.003c1.484-5.054 2.217-10.31 2.187-15.59l17.385 5.124c-2.877 3.73-9.903 7.883-19.572 10.466zm.457-28.82c-3.69-14.219-12.741-26.036-25.624-33.357-3.559-2.022-7.275-3.588-11.073-4.72.232-.138.47-.27.689-.421l41.821 13.994c.455.153.915.229 1.373.272 6.947 8.066 11.099 17.984 12.589 30.06zm50.539-11.157c-6.656-1.212-13.427-1.822-20.225-1.822h-2.61c-3.043-8.134-7.482-15.319-13.319-21.488.062-.424.108-.853.116-1.292.08-4.14.018-8.538-.392-12.998 13.764-6.696 24.789-7.721 32.853-3.021 7.267 4.235 12.304 12.775 15.761 22.817-4.6 5.001-8.995 10.963-12.184 17.804zm144.166 336.485c-10.868-33.743-29.612-74.22-61.261-102.433 5.757-18.709 8.256-38.368 8.262-64.15l1.089-59.054c.001-.062.002-.125.002-.188 0-19.911-5.187-39.209-15.065-56.268 3.867-5.293 7.021-11.456 9.414-18.411.25-.727.478-1.456.695-2.186.356.192.71.387 1.056.602 14.792 9.166 16.505 36.713 15.918 46.535-.348 5.483 3.642 10.244 9.113 10.761 1.78.197 43.739 5.547 57.568 67.482 13.691 61.319-27.444 82.108-29.143 82.935-3.545 1.668-5.816 5.222-5.841 9.139-.024 3.917 2.203 7.5 5.727 9.212.229.111 22.964 11.456 22.964 37.577-.001 16.205-11.433 30.028-20.498 38.447z"/><circle cx="126.266" cy="291.084" r="12.549"/><circle cx="253.562" cy="291.084" r="12.549"/><path d="m163.968 352.742c-.589 0-1.189-.085-1.783-.264-3.226-.973-5.042-4.413-4.07-7.639 1.944-6.446 10.174-18.445 27.482-17.858 21.164.751 26.774 17.015 27.002 17.707 1.056 3.2-.682 6.651-3.882 7.707-3.201 1.055-6.651-.681-7.707-3.881-.306-.834-3.596-8.902-15.846-9.337-11.848-.434-15.06 8.264-15.386 9.256-.794 2.632-3.199 4.309-5.81 4.309z"/></g><path d="m134.918 177.844c-1.511 0-3.044-.338-4.491-1.051-5.037-2.484-7.107-8.582-4.623-13.619 9.145-18.546 24.329-23.251 26.031-23.725 14.526-4.059 19.999 15.53 5.473 19.589l.174-.051c-.337.108-8.297 2.761-13.436 13.183-1.77 3.591-5.378 5.674-9.128 5.674z" fill="#fff"/><path d="m252.644 263.049c-5.804 0-11.51-2.684-15.107-7.588-1.993-2.718-1.406-6.537 1.312-8.529 2.717-1.993 6.536-1.405 8.529 1.311 1.842 2.513 5.454 3.339 8.22 1.879 2.98-1.571 6.672-.431 8.244 2.549 1.572 2.982.431 6.672-2.55 8.244-2.733 1.442-5.703 2.134-8.648 2.134z" fill="#3c122c"/><path d="m126.525 261.215c-2.887 0-5.797-.665-8.485-2.055-2.994-1.548-4.166-5.229-2.618-8.223s5.23-4.165 8.223-2.618c2.768 1.431 6.37.565 8.199-1.972 1.971-2.735 5.784-3.355 8.518-1.382 2.734 1.97 3.352 5.784 1.382 8.518-3.598 4.99-9.359 7.732-15.219 7.732z" fill="#3c122c"/></g></g></svg>