<svg id="Capa_1" enable-background="new 0 0 512 512" height="512" viewBox="0 0 512 512" width="512" xmlns="http://www.w3.org/2000/svg"><g><g><path d="m62.953 501.563s-36.069-22.953-36.069-55.743 28.691-46.726 28.691-46.726-50.503-23.755-34.74-94.354c15.763-70.598 66.457-75.384 66.457-75.384s-6.197-97.715 85.179-45.273c0 0-5.827-131.284 81.459-76.73l-8.09 232.271z" fill="#faf1a9"/><path d="m55.139 400.497s-43.439-21.932-36.852-66.397c4.94 20.585 45.506 95.688 127.729-10.027 3.055-3.928 33.34 71.777 38.192 71.141l-121.691 107.752s-36.069-22.953-36.069-55.743 28.691-46.726 28.691-46.726z" fill="#dfb5a7"/><path d="m62.923 501.827c11.974-43.585 33.516-89.022 67.692-116.682-6.423-18.198-9.895-37.828-9.895-67.556l-1.091-59.148c0-21.167 6.428-40.832 17.438-57.151-5.052-5.141-9.325-12.074-12.341-20.838-9.185-26.692 7.619-63.905 15.93-66.764 8.312-2.86 44.456 16.133 53.641 42.825.363 1.055.684 2.096.987 3.131 8.5-2.288 17.436-3.516 26.659-3.516h63.141c4.715 0 9.245.359 13.598 1.02.646-5.802 2.429-12 5.526-18.452 12.092-25.181 49.798-39.7 57.639-35.935 7.841 3.766 20.086 42.27 7.994 67.451-4.001 8.331-9.043 14.689-14.65 19.168 11.12 12.607 18.488 26.408 22.26 36.78 9.102 25.032 13.654 59.166 13.654 59.166 24.658 23.212 32.502 54.974 22.636 82.6-8.141 22.794-24.208 39.507-45.589 50.473-18.793 9.639-49.289 13.094-65.99 11.642 9.281 20.417 14.182 49.808 17.475 71.787h-256.714z" fill="#c1e5ef"/><path d="m392.268 276.737s-1.374-49.122-16.937-70.737c-6.449-8.957 5.125-21.231-9.003-30.341 4.179-5.835 7.303-13.323 8.888-22.429 4.792-27.519-5.744-58.795-14.314-60.288-3.822-.665-12.373 3.793-21.099 11.369.628-.058 1.184-.039 1.654.066 7.678 1.71 14.643 30.666 9.154 55.325-1.816 8.159-4.954 14.792-8.975 19.887 12.379 8.826-.718 20.468 4.73 28.832 13.149 20.184 14.026 74.052 14.026 74.052 24.078 23.326 23.222 44.141 20.316 57.562-4.633 21.394-13.92 36.87-33.847 49.166-14.141 8.726-36.721 9.126-49.674 14.039-10.04 3.808-18.718 9.63-17.971 20.651.665 9.823 1.041 17.347.289 31.268-.698 12.908-11.023 23.853-23.936 23.25l-179.073-.444c-6.69 11.367-6.153 10.485-11.12 23.862h256.715c.045-21.461-3.32-39.957-12.957-71.95l2.528-1.218c16.466-3.142 60.791-11.207 76.256-25.591 17.595-16.365 26.184-33.228 30.254-57.088 3.587-21.031 2.49-41.346-25.904-69.243z" fill="#a6aaed"/><path d="m225.619 173.147c.034-.455.088-.912.187-1.373.639-17.749 6.032-33.117 18.367-45.007.307-19.862 5.578-35.321 18.157-44.492 6.353-21.958 16.203-45.384 28.501-69.838 1.538-3.769 7.162-2.553 7.004 1.516 1.512 22.013 1.61 42.465-2.267 58.527 5.316 13.071 5.402 26.246-1.534 39.593 4.298 13.22 4.487 26.955-1.603 41.385 6.434 13.892 1.625 26.584-.112 32.595-7.136 20.176-68.182 7.276-66.7-12.906z" fill="#e8c2d8"/><path d="m225.619 173.147c.034-.455.088-.912.187-1.373.454-12.605 3.322-24.001 9.356-33.811-.594 3.251-.955 6.615-1.084 10.091-.088.394-.136.784-.165 1.172-1.305 17.22 52.432 28.227 58.715 11.012.295-.99.691-2.195 1.097-3.576 4.407 12.613.198 23.845-1.405 29.391-7.137 20.176-68.183 7.276-66.701-12.906z" fill="#d392d8"/><path d="m379.687 192.215c-14.187-8.192-24.71-21.267-30.504-36.59-1.646-4.353-3.966-8.552-6.99-12.456-14.443-18.65-40.79-23.937-61.298-12.283-24.46 13.899-31.572 45.33-16.198 68.272 13.237 19.753 34.566 27.99 54.299 27.362 11.496-.366 38.005-7.438 58.133-13.279 9.744-2.828 11.344-15.953 2.558-21.026z" fill="#faf1a9"/><path d="m379.687 192.215c-6.614-3.819-12.42-8.711-17.334-14.386-.941 1.968-1.977 3.886-3.113 5.746 1.051 1.093 2.156 2.142 3.32 3.14 5.575 4.78 2.472 13.89-4.967 14.597-15.368 1.458-35.516 2.939-43.852 1.662-14.309-2.192-28.45-10.896-35.05-26.701-7.667-18.357 2.128-39.738 21.815-46.343 1.212-.407 2.435-.736 3.661-1.007-.848-1.337-1.624-2.713-2.309-4.133-7.198.369-14.38 2.355-20.962 6.094-24.46 13.9-31.572 45.33-16.198 68.272 13.237 19.752 34.566 27.99 54.299 27.362 11.496-.367 38.005-7.439 58.133-13.279 9.743-2.826 11.343-15.951 2.557-21.024z" fill="#dfb5a7"/><path d="m377.251 428.092c0 34.632-28.746 60.782-56.789 60.782.745-4.468-9.045-43.765-10.535-47.488-2.469-6.173 15.704-.626 19.168-19.096 1.74-9.283-18.266-46.668 7.693-55.535s40.463 26.705 40.463 61.337z" fill="#c1e5ef"/><path d="m374.813 403.817c-5.13-24.768-18.246-43.817-38.025-37.061-21.492 7.341-11.477 34.23-8.382 48.535 15.485-3.779 31.102-7.02 46.407-11.474z" fill="#faf1a9"/><path d="m77.019 13.735 6.197 17.425c.265.746.791 1.337 1.453 1.636l15.481 6.975c2.187.985 2.187 4.47 0 5.455l-15.481 6.975c-.663.299-1.188.89-1.453 1.636l-6.197 17.425c-.876 2.462-3.971 2.462-4.847 0l-6.197-17.425c-.265-.746-.79-1.337-1.453-1.636l-15.481-6.975c-2.187-.985-2.187-4.47 0-5.455l15.481-6.975c.663-.299 1.188-.89 1.453-1.636l6.197-17.425c.876-2.462 3.972-2.462 4.847 0z" fill="#e8c2d8"/><g fill="#d789b9"><ellipse cx="30.189" cy="119.794" rx="12.395" ry="12.395" transform="matrix(.993 -.122 .122 .993 -14.411 4.586)"/><path d="m407.729 49.043c0 5.317-4.31 9.627-9.627 9.627s-9.627-4.31-9.627-9.627 4.31-9.626 9.627-9.626c5.317-.001 9.627 4.309 9.627 9.626z"/></g></g><g><g fill="#3c122c"><ellipse cx="335.908" cy="291.084" rx="12.549" ry="12.549" transform="matrix(.383 -.924 .924 .383 -61.565 490.029)"/><ellipse cx="208.61" cy="291.084" rx="12.549" ry="12.549" transform="matrix(.973 -.23 .23 .973 -61.297 55.716)"/><path d="m299.805 332.567c-2.117 0-4.174-1.103-5.301-3.071-1.179-2.059-3.348-3.334-5.751-3.25-1.978.046-3.799.978-4.996 2.558-2.034 2.686-5.861 3.215-8.548 1.182-2.687-2.034-3.216-5.862-1.181-8.548 3.457-4.567 8.721-7.261 14.443-7.393 6.827-.127 13.218 3.438 16.625 9.387 1.674 2.925.661 6.653-2.264 8.328-.957.547-1.999.807-3.027.807z"/><path d="m400.679 280.457c-1.442-9.571-5.935-36.503-13.67-57.772-.762-2.096-1.619-4.214-2.558-6.342 3.823-2.804 6.362-7.066 6.965-12.045.863-7.123-2.462-13.778-8.677-17.366 0 0 0 0 0-.001-2.664-1.538-5.2-3.298-7.608-5.235 1.383-2.237 2.682-4.591 3.878-7.082 8.39-17.475 6.295-37.616 4.299-48.066-1.222-6.396-6.062-27.674-17.058-32.955-11-5.281-30.63 4.247-36.385 7.292-6.189 3.275-15.666 9.164-23.821 17.777-1.338-.043-2.678-.032-4.019.024-.019-.097-.031-.194-.05-.292.401-.505.776-1.038 1.084-1.632 7.507-14.444 8.544-29.581 3.098-45.039 3.014-14.498 3.582-32.634 1.851-58.091-.078-6.411-4.558-11.948-10.886-13.317-6.393-1.383-12.825 1.884-15.499 7.799-12.718 25.313-21.937 47.671-28.135 68.22-4.652 4.048-7.965 8.762-10.316 13.804-18.658-8.115-34.807-8.323-48.143-.54-9.11 5.317-16.382 14.119-21.764 26.288-.114-.079-.237-.168-.349-.245-5.409-3.724-23.959-15.565-35.569-11.57-11.61 3.994-18.946 24.744-20.918 31.008-1.877 5.963-4.169 15.216-4.504 25.554-3.296 1.05-6.416 2.472-9.343 4.294-20.945 13.031-24.871 41.676-25.46 56.246-5.918 1.739-14.094 4.988-22.892 11.008-14.87 10.176-34.456 30.641-43.321 70.343-8.966 40.157 2.195 66.658 13.138 81.819 4.545 6.298 9.443 11.211 13.813 14.903-9.7 8.692-21.146 23.777-21.146 46.573 0 33.652 30.759 57.366 38.872 63.036 1.229 1.286 2.803 2.273 4.643 2.778.902.248 1.808.366 2.7.366 4.465 0 8.561-2.964 9.801-7.478 13.542-49.293 36.371-88.88 64.283-111.471 3.346-2.708 4.625-7.23 3.192-11.29-6.529-18.5-9.315-37.691-9.315-64.172 0-.063-.001-.125-.001-.188l-1.09-59.052c.018-18.413 5.446-36.174 15.699-51.371 2.705-4.009 2.213-9.367-1.177-12.817-4.209-4.283-7.566-10.009-9.978-17.019-6.707-19.491 3.958-46.691 9.772-53.405 8.714 1.714 33.859 16.593 40.565 36.08.274.798.542 1.649.843 2.678 1.552 5.31 7.061 8.407 12.406 6.968 7.199-1.938 14.633-2.983 22.124-3.135-.191 2.243-.328 4.534-.533 6.811-.704 14.774 18.017 24.015 34.41 27.452 1.634.343 3.314.635 5.016.882.229.36.446.725.684 1.081 12.708 18.964 33.972 30.1 57.234 30.1.773 0 1.55-.012 2.327-.037 8.155-.26 23.578-3.499 45.931-9.64 1.296 2.804 2.207 5.104 2.772 6.658 8.608 23.671 13.088 56.706 13.132 57.037.31 2.316 1.408 4.457 3.11 6.059 21.079 19.844 28.754 47.346 20.029 71.774-4.34 12.15-11.304 22.577-20.774 31.2-3.736-14.181-10.305-27.141-20.683-34.562-8.66-6.193-18.763-7.58-29.207-4.011-12.097 4.132-19.267 13.759-20.193 27.107-.666 9.615 1.826 19.616 3.83 27.652.654 2.625 1.503 6.03 1.793 7.967-6.125.416-11.651.419-15.886.051-3.599-.313-7.097 1.309-9.185 4.261-2.087 2.951-2.45 6.789-.954 10.08 8.312 18.285 13.094 45.184 16.675 69.085.832 5.555 6.011 9.379 11.564 8.551 5.348-.802 9.083-5.632 8.612-10.947 13.228-3.009 26.284-10.765 36.807-22.074 13.45-14.454 20.857-32.485 20.857-50.771 0-3.017-.105-6.136-.324-9.307 17.102-12.085 29.27-27.974 36.221-47.439 11.109-31.104 2.423-65.615-22.639-90.89zm-291.219-21.828 1.09 59.055c.006 25.783 2.505 45.441 8.262 64.149-31.649 28.214-50.394 68.69-61.261 102.434-9.065-8.419-20.497-22.242-20.497-38.447 0-25.775 22.079-37.134 22.964-37.578 3.523-1.711 5.751-5.294 5.727-9.212-.025-3.917-2.297-7.472-5.841-9.139-.432-.203-42.971-21.004-29.143-82.935 13.829-61.936 55.788-67.286 57.487-67.475 5.456-.515 9.522-5.28 9.195-10.75-.588-9.841 1.125-37.388 15.917-46.554.346-.214.698-.416 1.054-.608.218.732.446 1.463.697 2.192 2.394 6.955 5.547 13.119 9.415 18.411-9.878 17.059-15.065 36.357-15.065 56.269-.002.062-.002.125-.001.188zm247.78-146.274c4.892 7.28 12.112 34.832 3.586 53.111-2.333-3.75-4.333-7.764-5.935-11.999-1.897-5.016-4.546-9.737-7.873-14.035-4.789-6.183-10.743-11.051-17.343-14.527 10.413-7.576 22.22-12.101 27.565-12.55zm-68.613-71.584c-.081 10.177-.832 20.572-2.944 29.324-.01.043-.014.086-.024.129-.046.201-.081.405-.115.609-.008.046-.019.093-.026.14l-10.072 3.406c3.526-10.581 7.896-21.728 13.181-33.608zm-20.304 49.721c.537-.392 1.026-.844 1.485-1.325l18.471-6.245c2.005 8.47.932 16.381-3.267 24.462-.251.483-.447.979-.614 1.48l-26.293 8.797c.324-14.145 3.403-22.2 10.218-27.169zm-46.381 55.465c-6.797 0-13.568.611-20.224 1.822-3.17-6.798-7.531-12.727-12.101-17.711 3.45-10.094 8.457-18.698 15.663-22.904 8.066-4.708 19.097-3.676 32.866 3.02-.409 4.459-.471 8.854-.391 12.992.008.439.054.869.117 1.293-5.838 6.169-10.277 13.354-13.319 21.488zm23.128-11.253c.458-.043.918-.119 1.373-.272l41.821-13.994c.22.152.457.284.69.421-3.799 1.132-7.514 2.698-11.074 4.721-12.883 7.321-21.934 19.137-25.624 33.355l-19.775 5.827c1.491-12.075 5.643-21.992 12.589-30.058zm-11.928 42.587 17.385-5.123c-.03 5.278.703 10.534 2.186 15.588-9.668-2.583-16.694-6.736-19.571-10.465zm85.66 43.129c-19.979.646-38.264-8.584-49.035-24.66-6.437-9.604-8.604-21.57-5.946-32.829 2.694-11.413 9.829-20.91 20.089-26.74 6.392-3.632 13.435-5.377 20.422-5.377 12.561 0 24.942 5.638 33.036 16.09 2.585 3.338 4.64 6.998 6.107 10.879 6.417 16.97 18.194 31.075 33.161 39.717 2.87 1.658 2.764 4.499 2.664 5.33-.101.833-.678 3.624-3.87 4.551-28.053 8.138-48.164 12.77-56.628 13.039zm21.273 155.959c4.199-1.433 7.53-1.03 10.801 1.308 5.337 3.817 9.84 12.316 12.735 23.069l-26.505 7.157c-.079-.317-.152-.616-.233-.941-5.193-20.832-4.445-27.98 3.202-30.593zm-13.54 104.414c-2.228-12.584-4.93-25.275-8.424-36.82 2.619-.317 5.5-.943 8.328-2.275 4.686-2.208 10.685-7.042 12.653-17.535.253-1.35.312-2.749.248-4.213l26.68-7.204c.687 4.935 1.061 10.103 1.061 15.346 0 25.611-20.523 47.454-40.546 52.701z"/><circle cx="461.763" cy="209.533" r="11.314"/><path d="m461.763 185.391c-5.616 0-10.17-4.553-10.17-10.17v-33.908c0-5.617 4.554-10.17 10.17-10.17 6.159 0 11.89-2.464 16.139-6.939 4.246-4.472 6.407-10.337 6.087-16.516-.601-11.572-10.16-20.82-21.762-21.054-11.284-.221-20.951 7.999-22.505 19.135-.143 1.022-.215 2.07-.215 3.117 0 5.617-4.554 10.17-10.17 10.17s-10.17-4.553-10.17-10.17c0-1.985.138-3.981.411-5.931 2.978-21.333 21.524-37.107 43.059-36.658 22.212.448 40.514 18.165 41.665 40.336.613 11.805-3.525 23.019-11.649 31.576-5.633 5.933-12.875 10.087-20.719 12.029v24.982c-.001 5.618-4.554 10.171-10.171 10.171z"/><path d="m201.095 259.115c-1.716 0-3.42-.719-4.627-2.121-2.199-2.554-1.911-6.406.643-8.605 6.957-5.99 17.435-5.986 24.373.007 2.55 2.203 2.831 6.056.629 8.607-2.204 2.55-6.057 2.831-8.607.629-2.357-2.037-6.062-2.033-8.433.007-1.152.99-2.569 1.476-3.978 1.476z"/><path d="m330.569 261.502c-4.195 0-8.393-1.39-11.808-4.189-2.606-2.137-2.987-5.981-.849-8.587 2.136-2.606 5.979-2.988 8.588-.85 2.409 1.976 6.113 1.878 8.428-.224 2.498-2.264 6.355-2.075 8.62.42 2.264 2.496 2.076 6.355-.42 8.62-3.527 3.198-8.042 4.81-12.559 4.81z"/></g><path d="m327.255 177.843c-3.751 0-7.358-2.083-9.129-5.675-5.139-10.422-13.099-13.075-13.435-13.183 0 0-10.985-3.638-7.493-13.301s13.14-6.238 13.14-6.238c1.701.475 16.886 5.179 26.031 23.727 2.484 5.038.414 11.135-4.624 13.619-1.447.713-2.98 1.051-4.49 1.051z" fill="#fff"/></g></g></svg>