<svg id="Capa_1" enable-background="new 0 0 512 512" height="512" viewBox="0 0 512 512" width="512" xmlns="http://www.w3.org/2000/svg"><g><g><path d="m396.331 499.775s35.94-22.871 35.94-55.544-28.589-46.559-28.589-46.559 50.323-23.671 34.616-94.017c-15.707-70.347-66.22-75.115-66.22-75.115s6.175-97.366-84.875-45.111c0 0 5.807-130.816-81.169-76.456l8.061 231.443z" fill="#ccf3e2"/><path d="m403.682 397.671s50.323-23.67 34.616-94.017c-2.825-12.651-15.59-29.297-20.17-38.06 19.931 100.829-48.558 147.914-123.594 93.983-4.027-2.894-14.627 33.465-19.461 32.831l121.258 107.368s35.94-22.871 35.94-55.544c0-32.674-28.589-46.561-28.589-46.561z" fill="#b1b6e1"/><path d="m396.361 500.039c-11.931-43.43-33.396-88.705-67.451-116.266 6.4-18.134 9.86-37.694 9.86-67.316l1.087-58.937c0-21.092-6.405-40.687-17.376-56.948 5.034-5.122 9.292-12.031 12.297-20.763 9.152-26.597-7.592-63.677-15.874-66.526-8.282-2.85-44.297 16.075-53.449 42.671-.361 1.051-.682 2.089-.983 3.12-8.47-2.28-17.373-3.504-26.563-3.504h-62.916c-4.699 0-9.212.358-13.549 1.017-.643-5.781-2.42-11.958-5.507-18.386-12.049-25.091-49.62-39.558-57.433-35.807-7.813 3.752-20.014 42.12-7.965 67.211 3.986 8.302 9.01 14.637 14.597 19.1-11.081 12.562-18.423 26.314-22.181 36.649-9.07 24.943-13.605 58.955-13.605 58.955-24.57 23.13-32.386 54.778-22.555 82.305 8.112 22.713 24.122 39.366 45.426 50.293 2.876 1.475 6.028 2.803 9.362 3.992-21.308 27.275-36.869 70.873-31.458 89.867 4.078-1.933 52.235.817 56.209 1.227 6.59.681 5.602-60.767 22.356-69.128.983-.491 2.42-.801 4.185-1.011-6.053 18.576-9.697 40.722-12.313 58.184h255.799z" fill="#fff"/><path d="m307.278 300.494c0 20.54-8.809 48.46-13.581 67.599-2.783 11.161-4.337 21.191 4.005 29.111 11.216 10.649 19.902 20.896 27.373 39.75 2.909 7.342 2.891 14.899.68 21.625 3.301 13.648 3.126 27.508 1.113 41.46h69.493c-11.931-43.43-33.396-88.705-67.451-116.266 6.4-18.134 9.86-37.694 9.86-67.316l1.087-58.937c0-21.092-6.405-40.687-17.376-56.948 5.034-5.122 9.292-12.031 12.297-20.763 9.152-26.597-7.592-63.677-15.874-66.526-3.908-1.345-5.024-.499-15.546 6.372 6.52 12.233 10.996 27.979 9.346 47.771-1.039 12.462-17.154 25.648-21.37 30.522 9.186 15.471 16.218 67.515 16.218 87.582z" fill="#e1bdfc"/><path d="m261.741 480.704h-124.752c-1.196 6.773-2.222 13.335-3.121 19.335h127.653c.016-6.446.067-12.892.22-19.335z" fill="#e1bdfc"/><path d="m234.244 172.53c-.033-.453-.087-.909-.187-1.368-.636-17.686-6.011-32.998-18.302-44.846-.306-19.791-5.558-35.195-18.092-44.334-6.33-21.88-16.145-45.222-28.399-69.589-1.533-3.756-7.136-2.543-6.979 1.51-1.507 21.935-1.604 42.313 2.259 58.319-5.298 13.024-5.383 26.153 1.528 39.452-4.283 13.173-4.471 26.858 1.597 41.237-6.411 13.842-1.619 26.489.111 32.479 7.113 20.104 67.941 7.25 66.464-12.86z" fill="#f6e06e"/><path d="m234.244 172.53c-.033-.453-.087-.909-.187-1.368-.452-12.56-3.311-23.915-9.322-33.69.592 3.239.952 6.591 1.08 10.055.088.393.135.781.164 1.168 1.3 17.158-52.245 28.126-58.505 10.973-.294-.987-.689-2.187-1.093-3.563-4.391 12.568-.197 23.76 1.4 29.286 7.112 20.103 67.94 7.249 66.463-12.861z" fill="#dda86a"/><path d="m80.726 191.531c14.136-8.162 24.621-21.191 30.395-36.46 1.64-4.337 3.951-8.521 6.965-12.412 14.391-18.583 40.644-23.851 61.079-12.239 24.373 13.85 31.46 45.168 16.14 68.028-13.19 19.682-34.443 27.89-54.105 27.264-11.455-.365-37.869-7.412-57.926-13.232-9.709-2.817-11.303-15.894-2.548-20.949z" fill="#ccf3e2"/><path d="m179.165 130.419c-20.435-11.612-46.688-6.344-61.079 12.239-3.013 3.891-5.325 8.075-6.965 12.412-5.774 15.268-16.259 28.298-30.395 36.46-8.755 5.055-7.16 18.133 2.548 20.95 20.056 5.82 46.471 12.867 57.926 13.232 19.663.625 40.915-7.583 54.105-27.265 15.32-22.86 8.233-54.177-16.14-68.028zm2.196 45.227c-6.577 15.748-20.667 24.421-34.925 26.605-8.306 1.273-28.382-.203-43.696-1.656-7.413-.704-10.505-9.782-4.949-14.545 8.971-7.689 14.588-18.349 16.478-29.969.537-3.301 1.58-6.583 3.173-9.751 7.606-15.127 25.735-22.381 42.182-16.862 19.617 6.582 29.376 27.887 21.737 46.178z" fill="#b1b6e1"/><path d="m246.469 394.011c-25.136-1.847-46.972 5.522-45.898 26.32 1.167 22.601 29.669 20.344 44.222 21.284.607-15.87 1.766-31.721 1.676-47.604z" fill="#a1e8c3"/><path d="m153.91 394.011c25.136-1.847 46.972 5.522 45.898 26.32-1.167 22.601-29.669 20.344-44.222 21.284-.608-15.87-1.766-31.721-1.676-47.604z" fill="#a1e8c3"/><path d="m125.015 286.129 11.793 21.563 21.562 11.793-21.562 11.793-11.793 21.562-11.793-21.562-21.563-11.793 21.563-11.793z" fill="#f6e06e"/><path d="m251.113 286.129 11.793 21.563 21.562 11.793-21.562 11.793-11.793 21.562-11.793-21.562-21.563-11.793 21.563-11.793z" fill="#f6e06e"/><path d="m466.77 103.602 8.324 23.406c.356 1.002 1.062 1.796 1.952 2.197l20.796 9.369c2.938 1.324 2.938 6.005 0 7.328l-20.796 9.369c-.89.401-1.596 1.195-1.952 2.198l-8.324 23.406c-1.176 3.307-5.335 3.307-6.511 0l-8.324-23.406c-.356-1.002-1.062-1.796-1.952-2.198l-20.796-9.369c-2.938-1.324-2.938-6.005 0-7.328l20.796-9.369c.891-.401 1.596-1.195 1.952-2.197l8.324-23.406c1.176-3.307 5.335-3.307 6.511 0z" fill="#fbf2aa"/><path d="m70.968 4.494 6.175 17.363c.264.743.788 1.332 1.448 1.63l15.426 6.95c2.179.982 2.179 4.454 0 5.436l-15.426 6.95c-.66.297-1.184.887-1.448 1.63l-6.175 17.363c-.872 2.453-3.957 2.453-4.83 0l-6.175-17.363c-.264-.743-.788-1.333-1.448-1.63l-15.426-6.95c-2.179-.982-2.179-4.454 0-5.436l15.426-6.95c.66-.298 1.184-.887 1.448-1.63l6.175-17.363c.872-2.453 3.957-2.453 4.83 0z" fill="#fbf2aa"/><circle cx="24.304" cy="110.176" fill="#f7e16e" r="12.35"/><path d="m317.515 57.621c0 5.298-4.295 9.592-9.592 9.592-5.298 0-9.592-4.295-9.592-9.592 0-5.298 4.294-9.592 9.592-9.592s9.592 4.295 9.592 9.592z" fill="#f7e16e"/><path d="m419.202 18.889 6.175 17.363c.264.743.788 1.332 1.448 1.63l15.426 6.95c2.179.982 2.179 4.454 0 5.436l-15.426 6.95c-.66.298-1.184.887-1.448 1.63l-6.175 17.362c-.872 2.453-3.957 2.453-4.83 0l-6.175-17.362c-.264-.743-.788-1.333-1.448-1.63l-15.426-6.95c-2.179-.982-2.179-4.454 0-5.436l15.426-6.95c.66-.298 1.184-.887 1.448-1.63l6.175-17.363c.872-2.453 3.957-2.453 4.83 0z" fill="#fbf2aa"/></g><g><g fill="#3c122c"><path d="m144.59 278.223c-.864 0-1.742-.185-2.576-.575l-15.55-7.286c-3.04-1.425-4.35-5.045-2.926-8.086 1.425-3.041 5.044-4.349 8.086-2.926l15.55 7.286c3.04 1.425 4.35 5.045 2.926 8.086-1.034 2.207-3.224 3.501-5.51 3.501z"/><path d="m231.166 278.948c-2.286 0-4.476-1.295-5.51-3.501-1.424-3.041-.114-6.661 2.926-8.086l15.55-7.286c3.043-1.42 6.662-.114 8.086 2.926 1.424 3.041.114 6.661-2.926 8.086l-15.55 7.286c-.835.39-1.712.575-2.576.575z"/><path d="m125.015 358.921c-2.223 0-4.268-1.212-5.334-3.163l-10.939-20-19.999-10.939c-1.951-1.066-3.163-3.111-3.163-5.334s1.212-4.268 3.163-5.334l19.999-10.938 10.939-20c1.066-1.951 3.111-3.163 5.334-3.163s4.268 1.212 5.334 3.163l10.939 20 19.999 10.938c1.951 1.066 3.163 3.111 3.163 5.334s-1.212 4.268-3.163 5.334l-19.999 10.939-10.939 20c-1.066 1.951-3.111 3.163-5.334 3.163zm-20.684-39.437 11.808 6.459c1.02.557 1.86 1.396 2.417 2.417l6.459 11.809 6.459-11.809c.557-1.02 1.396-1.859 2.417-2.417l11.808-6.459-11.808-6.458c-1.02-.557-1.86-1.396-2.417-2.417l-6.459-11.809-6.459 11.809c-.557 1.02-1.396 1.859-2.417 2.417z"/><path d="m251.112 358.921c-2.223 0-4.268-1.213-5.335-3.163l-10.937-20-20-10.939c-1.951-1.066-3.163-3.111-3.163-5.334s1.213-4.268 3.163-5.335l20-10.937 10.937-20c1.067-1.949 3.112-3.163 5.335-3.163s4.268 1.212 5.334 3.163l10.939 20 20 10.937c1.95 1.067 3.163 3.112 3.163 5.335s-1.212 4.268-3.163 5.334l-20 10.939-10.939 20c-1.065 1.951-3.111 3.163-5.334 3.163zm-20.684-39.437 11.809 6.459c1.02.557 1.859 1.396 2.418 2.417l6.457 11.809 6.459-11.809c.557-1.02 1.396-1.859 2.417-2.417l11.809-6.459-11.809-6.457c-1.02-.558-1.859-1.397-2.417-2.418l-6.459-11.809-6.457 11.809c-.558 1.02-1.397 1.859-2.418 2.418z"/><path d="m421.334 397.824c4.354-3.679 9.234-8.575 13.764-14.85 10.903-15.107 22.025-41.515 13.091-81.527-8.833-39.562-28.35-59.953-43.167-70.093-8.766-5.999-16.913-9.236-22.81-10.969-.587-14.519-4.498-43.06-25.369-56.046-2.919-1.816-6.024-3.245-9.31-4.291-.336-10.297-2.618-19.511-4.488-25.45-1.965-6.242-9.276-26.918-20.843-30.897-11.574-3.983-30.053 7.818-35.442 11.529-.114.078-.24.169-.356.25-5.363-12.123-12.602-20.904-21.678-26.201-13.29-7.758-29.38-7.563-47.976.528-2.343-5.02-5.642-9.713-10.274-13.743-6.176-20.477-15.363-42.755-28.034-67.977-2.665-5.895-9.075-9.151-15.444-7.771-6.307 1.365-10.771 6.883-10.848 13.27-1.725 25.366-1.158 43.438 1.845 57.883-5.427 15.404-4.393 30.487 3.087 44.879.307.591.681 1.123 1.08 1.625-.019.097-.034.194-.053.291-1.336-.056-2.671-.067-4.004-.024-8.126-8.583-17.568-14.451-23.735-17.714-5.734-3.035-25.295-12.527-36.255-7.266-10.957 5.262-15.781 26.464-16.998 32.837-1.988 10.414-4.077 30.482 4.284 47.896 1.193 2.482 2.493 4.822 3.872 7.05-2.401 1.932-4.931 3.688-7.588 5.222-6.193 3.577-9.506 10.207-8.646 17.305.602 4.964 3.134 9.214 6.948 12.007-.94 2.118-1.799 4.228-2.558 6.315-7.706 21.195-12.184 48.03-13.62 57.565-24.973 25.186-33.628 59.574-22.559 90.565 8.254 23.113 23.865 41.182 46.413 53.783-4.173 6.276-7.397 12.554-9.862 18.255-8.9 20.583-12.208 43.829-8.634 60.667 1.011 4.766 5.219 8.032 9.903 8.032.697 0 1.404-.072 2.114-.223 5.475-1.162 8.971-6.542 7.809-12.017-4.808-22.651 7.992-75.216 48.607-90.753 4.927-1.884 10.077-3.243 15.178-4.092l.936 28.403c-2.048.359-3.884.89-5.552 1.722-10.121 5.051-16.937 17.465-20.84 37.95-2.496 13.109-3.023 25.968-3.027 28.694-.009 5.595 4.52 10.139 10.116 10.149h.018c5.588 0 10.124-4.527 10.134-10.117 0-.11.218-12.065 2.671-24.943 2.802-14.7 6.911-21.746 9.706-23.447 1.555-.351 5.822-.493 8.98-.599 8.247-.274 18.513-.616 27.544-3.879 4.202-1.519 7.797-3.608 10.764-6.176 3.091 2.708 7.097 5.151 12.284 7.09 9.79 3.661 20.928 4.535 29.877 5.238 3.38.266 7.954.625 9.538 1.046 1.47.939 8.065 7.062 4.817 39.989-.175 1.777-.263 2.67-.262 3.534.007 5.592 4.542 10.121 10.134 10.121h.013c5.512-.007 9.99-4.414 10.118-9.893.026-.378.089-.981.167-1.771 2.106-21.347 2.725-50.815-16.137-60.229-2.732-1.363-6.126-1.987-10.359-2.435l1.937-30.166c4.853.839 9.78 2.128 14.58 3.873 19.942 7.25 33.805 21.081 41.201 41.106 6.548 17.73 6.317 36.132 3.916 47.442-1.162 5.475 2.335 10.855 7.809 12.017.71.15 1.417.223 2.114.223 4.684 0 8.892-3.266 9.903-8.032 3.871-18.239 2.103-40.173-4.73-58.673-9.422-25.509-27.849-43.882-53.287-53.132-26.111-9.491-54.241-8.039-70.001 3.619-1.309.968-2.518 2.009-3.645 3.103-1.255-1.232-2.612-2.4-4.095-3.478-16.104-11.706-44.139-12.987-69.76-3.186-12.056 4.612-21.766 11.388-29.57 19.026-19.912-10.228-33.523-25.252-40.454-44.657-8.694-24.341-1.046-51.744 19.958-71.518 1.695-1.596 2.79-3.73 3.099-6.038.044-.33 4.508-33.246 13.084-56.832.564-1.549 1.473-3.842 2.763-6.634 22.272 6.119 37.64 9.347 45.768 9.605.774.025 1.547.037 2.317.037 23.179 0 44.369-11.098 57.032-29.993.241-.359.46-.729.692-1.093 1.69-.246 3.365-.522 4.987-.863 16.334-3.424 34.986-12.631 34.288-27.349-.203-2.273-.341-4.554-.531-6.792 7.464.152 14.872 1.193 22.045 3.124 5.317 1.434 10.812-1.65 12.36-6.938.307-1.048.573-1.895.84-2.67 6.683-19.421 31.738-34.247 40.421-35.955 5.793 6.69 16.42 33.794 9.737 53.215-2.404 6.986-5.749 12.691-9.942 16.957-3.378 3.437-3.868 8.777-1.174 12.771 10.217 15.142 15.625 32.842 15.643 51.189l-1.085 58.841c-.001.062-.002.125-.002.187 0 26.385-2.776 45.509-9.282 63.943-1.428 4.046-.154 8.551 3.181 11.25 27.811 22.508 50.56 61.955 64.054 111.073 1.236 4.499 5.316 7.452 9.766 7.452.889 0 1.792-.118 2.691-.365 1.833-.504 3.401-1.488 4.626-2.769 8.086-5.652 38.733-29.28 38.733-62.81 0-22.715-11.406-37.747-21.071-46.407zm-205.422 10.868c5.519-4.081 14.337-6.057 24.334-5.898l-1.943 30.259c-17.234-1.714-27.174-4.787-27.611-13.244-.247-4.769 1.413-8.301 5.22-11.117zm-26.224 11.117c-.412 7.963-6.942 10.656-27.834 11.399l-.943-28.583c9.492-.032 17.946 1.905 23.292 5.791 3.993 2.903 5.736 6.523 5.485 11.393zm-5.092-345.695-10.037-3.394c-.007-.046-.019-.092-.026-.139-.034-.204-.069-.408-.115-.61-.01-.042-.014-.084-.024-.127-2.104-8.721-2.852-19.079-2.933-29.218 5.266 11.838 9.621 22.945 13.135 33.488zm-12.787 8.512 18.405 6.224c.015.016.032.031.047.047.164.176.335.344.51.507.053.049.102.099.155.146.239.213.488.415.745.603.007.006.013.011.02.016 6.791 4.952 9.859 12.978 10.182 27.074l-26.199-8.767c-.167-.499-.362-.993-.612-1.475-4.182-8.053-5.251-15.935-3.253-24.375zm-68.716 29.329c5.329.448 17.105 4.946 27.483 12.497-6.583 3.463-12.522 8.318-17.297 14.484-3.316 4.28-5.956 8.986-7.846 13.984-1.596 4.22-3.589 8.22-5.914 11.957-8.495-18.215-1.3-45.668 3.574-52.922zm87.161 83.108c-10.735 16.018-29.006 25.207-48.861 24.571-8.434-.268-28.473-4.883-56.425-12.994-3.181-.922-3.756-3.704-3.857-4.534-.1-.828-.206-3.66 2.654-5.31 14.914-8.611 26.648-22.665 33.042-39.575 1.462-3.867 3.509-7.514 6.085-10.839 12.551-16.209 35.449-20.8 53.268-10.676 10.224 5.809 17.332 15.272 20.017 26.646 2.65 11.218.49 23.141-5.923 32.711zm16.993-7.975c1.479-5.036 2.209-10.273 2.179-15.533l17.323 5.104c-2.867 3.716-9.868 7.855-19.502 10.429zm.455-28.718c-3.677-14.168-12.696-25.943-25.533-33.237-3.546-2.015-7.249-3.576-11.035-4.704.232-.137.469-.269.688-.42l41.671 13.944c.454.152.912.229 1.369.271 6.922 8.038 11.06 17.919 12.544 29.952zm50.358-11.117c-6.632-1.206-13.379-1.815-20.152-1.815h-2.601c-3.032-8.105-7.455-15.265-13.272-21.411.062-.423.108-.85.116-1.288.079-4.125.018-8.507-.39-12.952 13.714-6.67 24.699-7.693 32.737-3.01 7.241 4.219 12.263 12.726 15.71 22.73-4.588 4.985-8.97 10.928-12.148 17.746zm143.653 335.287c-10.83-33.624-29.508-73.956-61.042-102.068 5.736-18.642 8.227-38.231 8.233-63.922l1.085-58.844c.001-.062.002-.125.002-.187 0-19.841-5.169-39.07-15.011-56.068 3.853-5.273 6.995-11.414 9.381-18.346.249-.723.475-1.449.692-2.176.355.191.708.384 1.052.598 14.739 9.133 16.447 36.582 15.862 46.37-.347 5.464 3.71 10.216 9.161 10.73.432.041 43.341 4.798 57.281 67.235 13.643 61.099-27.345 81.814-29.039 82.638-3.532 1.661-5.823 5.19-5.847 9.094-.025 3.903 2.167 7.46 5.678 9.165.936.469 22.938 11.788 22.938 37.471-.001 16.148-11.393 29.921-20.426 38.31z"/></g><path d="m132.97 177.21c-1.505 0-3.033-.337-4.474-1.047-5.019-2.475-7.082-8.551-4.607-13.571 9.113-18.482 24.243-23.168 25.938-23.641 0 0 12.25-4.736 15.026 6.293s-9.4 13.176-9.4 13.176c-.335.108-8.265 2.751-13.387 13.136-1.763 3.578-5.358 5.654-9.096 5.654z" fill="#fff"/></g></g></svg>