<svg id="Capa_1" enable-background="new 0 0 506.393 506.393" height="512" viewBox="0 0 506.393 506.393" width="512" xmlns="http://www.w3.org/2000/svg"><g><g><path d="m446.311 496.07s35.674-22.702 35.674-55.133-28.377-46.214-28.377-46.214 49.95-23.495 34.36-93.32c-15.591-69.825-65.729-74.558-65.729-74.558s6.13-96.645-84.246-44.777c0 0 5.763-129.846-80.567-75.89l8.001 229.728z" fill="#ccf3e2"/><path d="m453.608 394.724s49.95-23.495 34.359-93.321c-2.804-12.557-15.475-29.08-20.021-37.778 19.784 100.082-48.198 146.818-122.678 93.286-3.997-2.873-14.519 33.216-19.317 32.587l120.36 106.572s35.674-22.702 35.674-55.133c0-32.43-28.377-46.213-28.377-46.213z" fill="#b1b6e1"/><path d="m447.372 496.332c-11.843-43.108-33.149-88.047-66.951-115.404 6.352-17.999 9.786-37.414 9.786-66.816l1.079-58.501c0-20.935-6.358-40.385-17.247-56.525 4.997-5.085 9.223-11.942 12.206-20.61 9.084-26.399-7.535-63.205-15.756-66.033-8.221-2.829-43.969 15.956-53.053 42.356-.359 1.043-.677 2.073-.976 3.097-8.407-2.263-17.245-3.477-26.366-3.477h-62.45c-4.664 0-9.144.355-13.449 1.009-.639-5.739-2.402-11.868-5.466-18.25-11.959-24.905-49.253-39.265-57.008-35.541s-19.866 41.807-7.906 66.712c3.957 8.24 8.943 14.528 14.489 18.958-10.998 12.469-18.286 26.118-22.017 36.377-9.003 24.758-13.504 58.518-13.504 58.518-24.388 22.958-32.146 54.372-22.388 81.695 8.052 22.545 23.943 39.074 45.09 49.921 18.587 9.534 48.749 12.95 65.267 11.514-9.18 20.193-14.027 49.263-17.284 71.001h253.904z" fill="#fff"/><path d="m379.39 380.928c6.352-17.999 9.786-37.414 9.786-66.816l1.079-58.501c0-20.935-6.358-40.385-17.247-56.525 4.997-5.085 9.223-11.942 12.206-20.61 9.084-26.399-7.535-63.205-15.756-66.033-3.879-1.335-4.987-.495-15.431 6.325 6.471 12.142 10.914 27.771 9.277 47.417-1.031 12.37-17.027 25.458-21.211 30.296 9.118 15.356 16.098 67.014 16.098 86.933l-.273 14.853c0 20.387-8.744 48.101-13.48 67.098-2.762 11.078-4.305 21.034 3.975 28.895 11.133 10.57 19.755 20.742 27.17 39.456 8.255 20.833-7.172 43.426-29.58 43.426h-150.468c-1.188 6.723-2.206 13.236-3.098 19.192h253.904c-11.843-43.11-33.149-88.049-66.951-115.406z" fill="#e1bdfc"/><path d="m285.426 171.251c-.033-.45-.087-.902-.185-1.358-.632-17.555-5.966-32.754-18.166-44.514-.304-19.644-5.517-34.934-17.958-44.005-6.283-21.718-16.025-44.887-28.189-69.073-1.521-3.728-7.083-2.525-6.928 1.499-1.495 21.772-1.592 42 2.242 57.887-5.258 12.928-5.343 25.959 1.517 39.16-4.251 13.075-4.438 26.659 1.585 40.932-6.364 13.74-1.607 26.292.111 32.238 7.06 19.954 67.437 7.195 65.971-12.766z" fill="#f6e06e"/><path d="m285.426 171.251c-.033-.45-.087-.902-.185-1.358-.449-12.467-3.286-23.738-9.253-33.44.587 3.215.945 6.542 1.072 9.981.087.389.134.775.163 1.159 1.291 17.031-51.858 27.918-58.072 10.892-.292-.979-.684-2.171-1.085-3.536-4.359 12.475-.195 23.584 1.389 29.069 7.06 19.953 67.437 7.194 65.971-12.767z" fill="#dda86a"/><path d="m133.045 190.111c14.032-8.102 24.439-21.034 30.17-36.19 1.628-4.305 3.922-8.458 6.913-12.32 14.285-18.445 40.343-23.675 60.627-12.148 24.193 13.747 31.227 44.833 16.02 67.524-13.092 19.536-34.187 27.683-53.704 27.062-11.37-.362-37.589-7.357-57.496-13.133-9.637-2.797-11.219-15.778-2.53-20.795z" fill="#ccf3e2"/><path d="m230.755 129.452c-20.284-11.526-46.342-6.297-60.627 12.148-2.991 3.862-5.285 8.015-6.913 12.32-5.731 15.155-16.138 28.088-30.17 36.19-8.69 5.018-7.107 17.998 2.53 20.794 19.908 5.777 46.126 12.771 57.496 13.134 19.517.621 40.612-7.526 53.704-27.062 15.207-22.69 8.173-53.776-16.02-67.524zm2.18 44.892c-6.528 15.631-20.514 24.24-34.666 26.408-8.245 1.263-28.172-.201-43.372-1.644-7.358-.699-10.427-9.71-4.913-14.437 8.904-7.632 14.479-18.213 16.356-29.747.533-3.276 1.568-6.534 3.149-9.678 7.549-15.015 25.544-22.215 41.87-16.737 19.471 6.532 29.159 27.679 21.576 45.835z" fill="#b1b6e1"/><path d="m184.903 175.896c-1.494 0-3.011-.335-4.441-1.04-4.982-2.457-7.03-8.487-4.573-13.47 9.045-18.344 24.064-22.996 25.746-23.466 0 0 10.54-2.971 13.465 6.087 2.951 9.137-7.88 13.238-7.88 13.238-.333.107-8.206 2.731-13.288 13.038-1.751 3.553-5.319 5.613-9.029 5.613z" fill="#fff"/><path d="m256.148 316.565c5.768-.016 9.926 5.574 8.208 11.081-4.206 13.488-15.931 23.209-29.763 23.246s-25.609-9.62-29.888-23.086c-1.747-5.497 2.381-11.11 8.149-11.125z" fill="#d789b9"/><path d="m282.946 407.543c-2.157-.416-4.275-.802-6.32-1.126 0-.042.001-.083.001-.125 0-19.516-.053-33.929-13.719-35.337-11.622-1.197-13.397 11.089-13.669 26.794-2.634-2.181-5.727-3.625-9.14-4.088-12.058-1.635-23.535 9.582-25.632 25.053-2.098 15.471 5.977 29.339 18.036 30.974 4.999.678 15.52.76 17.909 1.784 10.009 4.034 5.316 1.479 17.307 5.35z" fill="#a1e8c3"/><path d="m464.523 37.34 8.215 23.098c.352.989 1.048 1.772 1.926 2.168l20.521 9.246c2.899 1.306 2.899 5.925 0 7.232l-20.521 9.246c-.879.396-1.575 1.18-1.926 2.169l-8.215 23.097c-1.16 3.263-5.264 3.263-6.425 0l-8.214-23.097c-.352-.989-1.048-1.773-1.927-2.169l-20.521-9.246c-2.899-1.306-2.899-5.925 0-7.232l20.521-9.246c.879-.396 1.575-1.18 1.927-2.168l8.214-23.098c1.16-3.263 5.264-3.263 6.425 0z" fill="#fbf2aa"/><path d="m74.529 40.011 6.093 17.133c.261.734.777 1.315 1.429 1.609l15.222 6.858c2.151.969 2.151 4.395 0 5.364l-15.222 6.858c-.652.294-1.168.875-1.429 1.608l-6.093 17.133c-.861 2.421-3.905 2.421-4.766 0l-6.093-17.133c-.261-.734-.777-1.315-1.429-1.608l-15.222-6.858c-2.15-.969-2.15-4.395 0-5.364l15.222-6.858c.652-.294 1.168-.875 1.429-1.609l6.093-17.133c.861-2.42 3.905-2.42 4.766 0z" fill="#fbf2aa"/><g fill="#f7e16e"><path d="m397.864 12.106c0 5.228-4.238 9.466-9.466 9.466s-9.466-4.238-9.466-9.466 4.238-9.466 9.466-9.466c5.228.001 9.466 4.239 9.466 9.466z"/><circle cx="17.562" cy="146.583" r="12.187"/></g></g><g fill="#3c122c"><circle cx="176.345" cy="287.897" r="12.412"/><circle cx="302.249" cy="287.897" r="12.412"/><path d="m234.516 356.927c-13.465.001-25.966-7.791-32.645-20.353-2.91-5.473-2.736-11.931.466-17.276 3.24-5.408 8.929-8.647 15.22-8.664l33.856-.091h.05c6.271 0 11.957 3.206 15.218 8.582 3.23 5.327 3.439 11.785.558 17.273-6.626 12.627-19.129 20.493-32.629 20.529-.03 0-.063 0-.094 0zm16.931-34.315-33.857.091c-2.913.008-4.396 1.959-4.898 2.797-.484.807-1.468 2.951-.162 5.406 4.577 8.609 12.998 13.95 21.988 13.95h.061c9.013-.024 17.433-5.415 21.974-14.068 1.292-2.463.296-4.601-.192-5.406-.505-.834-1.993-2.77-4.896-2.77-.007 0-.012 0-.018 0z"/><path d="m471.129 394.875c4.322-3.652 9.166-8.512 13.662-14.74 10.822-14.995 21.862-41.206 12.994-80.923-8.768-39.268-28.139-59.508-42.847-69.572-8.701-5.955-16.787-9.167-22.641-10.888-.582-14.411-4.464-42.742-25.181-55.63-2.896-1.801-5.982-3.208-9.24-4.247-.332-10.225-2.598-19.376-4.455-25.274-1.951-6.196-9.207-26.718-20.689-30.668-11.489-3.955-29.83 7.76-35.18 11.443-.113.078-.238.168-.354.249-5.323-12.033-12.508-20.749-21.517-26.007-13.192-7.699-29.163-7.505-47.62.525-2.325-4.982-5.6-9.641-10.199-13.642-6.13-20.323-15.247-42.435-27.826-67.473-2.646-5.851-9.004-9.084-15.33-7.714-6.26 1.355-10.69 6.831-10.767 13.171-1.712 25.179-1.149 43.116 1.831 57.454-5.387 15.29-4.361 30.262 3.063 44.547.305.587.676 1.115 1.072 1.614-.019.096-.032.193-.05.289-1.322-.055-2.645-.067-3.964-.024-8.068-8.521-17.447-14.342-23.57-17.583-5.692-3.013-25.107-12.436-35.987-7.211-10.876 5.223-15.663 26.268-16.872 32.593-1.974 10.336-4.047 30.256 4.252 47.54 1.183 2.464 2.473 4.788 3.841 7-2.383 1.918-4.893 3.66-7.53 5.183-6.148 3.549-9.436 10.131-8.582 17.177.597 4.927 3.111 9.145 6.896 11.918-.929 2.102-1.785 4.196-2.538 6.267-7.65 21.037-12.094 47.673-13.52 57.14-24.787 24.998-33.379 59.132-22.392 89.894 8.662 24.254 25.475 42.922 49.972 55.488 15.976 8.194 38.136 11.94 55.211 12.747-5.912 18.204-9.655 39.774-12.584 59.327-.823 5.493 2.964 10.615 8.458 11.438 5.495.823 10.614-2.964 11.438-8.457 2.709-18.081 6.119-37.886 11.25-54.299 4.359 6.852 10.726 11.151 18.056 12.146 2.185.296 5.044.473 8.071.66 2.704.168 7.197.445 8.461.769 21.479 8.65 44.831 15.62 80.16 26.166l8.199 2.448c.577.172 1.158.254 1.73.254 2.599 0 4.999-1.691 5.781-4.309.954-3.193-.862-6.556-4.055-7.51l-8.202-2.449c-25.409-7.584-44.562-13.302-61.171-19.094l12.367-38.651c.025-.079.041-.158.063-.237 17.404 3.475 38.679 9.855 61.036 16.562l8.276 2.479c3.198.955 6.556-.861 7.51-4.054.954-3.194-.862-6.556-4.055-7.51l-8.263-2.476c-23.818-7.144-46.427-13.926-64.948-17.381-.045-8.118-.315-15.225-1.945-21.112-2.552-9.221-8.333-14.359-17.181-15.271-6.394-.66-11.263.579-14.879 3.784-4.906 4.35-6.332 11.426-6.748 18.894-.453.011-1 .013-1.66-.002-15.146-.365-27.997 11.143-31.311 27.682-.027.002-.053-.001-.08.001-14.14 1.231-42.79-1.715-59.805-10.443-19.795-10.153-33.323-25.076-40.208-44.354-8.629-24.161-1.038-51.362 19.81-70.988 1.683-1.584 2.769-3.702 3.076-5.993.044-.327 4.474-33 12.987-56.412.56-1.54 1.455-3.809 2.737-6.586 22.109 6.075 37.365 9.279 45.432 9.536.77.025 1.536.037 2.302.036 23.006-.001 44.039-11.016 56.608-29.771.239-.356.457-.723.686-1.084 1.679-.244 3.341-.519 4.952-.857 16.212-3.399 34.725-12.538 34.032-27.146 0-.095-.005-.19-.009-.285-.003-.047-.001-.093-.005-.141 0-.007 0-.013 0-.02-.004-.057-.011-.109-.016-.165-.003-.034-.006-.068-.01-.101-.042-.47-.093-.912-.165-1.332-.065-1.593-.181-3.153-.322-4.698 7.409.151 14.762 1.184 21.882 3.101 5.278 1.421 10.732-1.637 12.269-6.887.3-1.023.565-1.867.834-2.649 6.633-19.278 31.503-33.993 40.121-35.688 5.75 6.64 16.298 33.543 9.665 52.82-2.386 6.934-5.706 12.598-9.869 16.833-3.352 3.411-3.839 8.711-1.164 12.676 10.141 15.03 15.509 32.598 15.527 50.809l-1.077 58.406c-.001.061-.002.123-.002.185 0 26.19-2.755 45.171-9.213 63.469-1.417 4.015-.153 8.487 3.157 11.166 27.605 22.343 50.185 61.497 63.579 110.251 1.227 4.465 5.277 7.396 9.693 7.396.882 0 1.779-.117 2.671-.362 1.819-.5 3.374-1.475 4.589-2.745 8.021-5.605 38.449-29.06 38.449-62.348.005-22.553-11.317-37.474-20.91-46.07zm-250.682 24.65c1.589-11.719 9.77-20.092 19.51-19.83 3.253.077 9.308.219 12.665-4.257.762-1.016 1.185-2.247 1.206-3.517.135-7.847 1.087-12.61 2.829-14.154.931-.825 2.829-1.096 5.633-.808 7.213.743 8.302 7.27 8.302 29.325 0 .024-.001.11-.001.134 0 1.275.416 2.456 1.103 3.439-.055.137-.111.274-.157.417l-12.223 38.201c-2.231-.848-4.43-1.706-6.603-2.582-2.181-.909-5.42-1.191-12.202-1.611-2.678-.165-5.447-.337-7.195-.574-3.948-.535-7.472-3.147-9.922-7.355-2.734-4.695-3.78-10.671-2.945-16.828zm15.699-345.961-9.962-3.368c-.008-.052-.02-.103-.029-.155-.033-.194-.065-.388-.109-.579-.01-.045-.014-.089-.025-.134-2.089-8.655-2.831-18.936-2.911-29.001 5.226 11.75 9.547 22.774 13.036 33.237zm-12.693 8.45 18.269 6.178c.016.017.034.032.05.049.16.171.325.333.496.492.056.052.108.106.165.156.236.21.48.408.734.594.008.006.015.012.023.018 6.741 4.914 9.786 12.882 10.107 26.872l-26.005-8.702c-.165-.495-.359-.986-.608-1.464-4.153-7.991-5.214-15.815-3.231-24.193zm-68.206 29.111c5.289.444 16.97 4.916 27.27 12.41-6.531 3.438-12.422 8.254-17.16 14.371-3.291 4.249-5.911 8.92-7.787 13.881-1.584 4.189-3.562 8.158-5.87 11.868-8.432-18.08-1.291-45.33 3.547-52.53zm86.515 82.492c-10.655 15.9-28.801 25.028-48.498 24.39-8.373-.267-28.263-4.847-56.007-12.897-3.157-.916-3.728-3.676-3.828-4.5-.099-.822-.204-3.632 2.635-5.272 14.803-8.547 26.451-22.498 32.797-39.282 1.451-3.839 3.483-7.458 6.04-10.759 12.46-16.089 35.19-20.647 52.873-10.596 10.148 5.766 17.205 15.159 19.869 26.448 2.628 11.134.485 22.969-5.881 32.468zm16.867-7.916c1.468-4.998 2.193-10.197 2.163-15.417l17.194 5.067c-2.846 3.687-9.795 7.795-19.357 10.35zm.451-28.506c-3.65-14.062-12.602-25.75-25.344-32.99-3.52-2.001-7.196-3.549-10.953-4.669.23-.136.465-.267.682-.416l41.363 13.84c.451.151.906.226 1.36.269 6.87 7.978 10.977 17.786 12.45 29.73zm49.986-11.034c-6.583-1.197-13.28-1.802-20.003-1.802h-2.581c-3.009-8.045-7.4-15.152-13.173-21.253.061-.419.107-.843.115-1.278.079-4.092.018-8.44-.387-12.85 13.611-6.618 24.517-7.643 32.494-2.994 7.188 4.188 12.175 12.629 15.595 22.559-4.555 4.95-8.904 10.849-12.06 17.618zm142.588 332.804c-10.749-33.375-29.289-73.408-60.59-101.312 5.693-18.504 8.166-37.947 8.172-63.447l1.077-58.409c.001-.062.002-.124.002-.186 0-19.694-5.13-38.781-14.899-55.652 3.824-5.234 6.944-11.33 9.311-18.21.248-.721.474-1.444.689-2.168.352.19.7.39 1.042.602 14.63 9.066 16.325 36.311 15.744 46.026-.345 5.424 3.602 10.132 9.012 10.643 1.76.195 43.26 5.486 56.937 66.744 13.542 60.647-27.143 81.209-28.824 82.027-3.506 1.649-5.78 5.152-5.803 9.026-.025 3.874 2.151 7.404 5.636 9.097.929.466 22.767 11.701 22.767 37.193 0 16.027-11.308 29.699-20.273 38.026z"/></g></g></svg>