<svg id="Capa_1" enable-background="new 0 0 512 512" height="512" viewBox="0 0 512 512" width="512" xmlns="http://www.w3.org/2000/svg"><g><g><path d="m113.114 501.562s-36.069-22.953-36.069-55.743 28.691-46.726 28.691-46.726-50.503-23.755-34.74-94.354c15.763-70.598 66.457-75.384 66.457-75.384s-6.197-97.715 85.179-45.273c0 0-5.827-131.284 81.459-76.73l-8.09 232.271z" fill="#ccf3e2"/><path d="m105.3 400.496s-43.439-21.933-36.852-66.397c4.94 20.585 45.506 95.688 127.729-10.027 3.055-3.929 33.34 71.777 38.192 71.141l-121.691 107.752s-36.069-22.953-36.069-55.743 28.691-46.726 28.691-46.726z" fill="#b1b6e1"/><path d="m113.084 501.827c11.974-43.585 33.516-89.022 67.692-116.682-6.423-18.198-9.895-37.828-9.895-67.556l-1.091-59.148c0-21.167 6.428-40.832 17.438-57.151-5.052-5.141-9.325-12.074-12.341-20.838-9.185-26.692 7.619-63.904 15.93-66.764 8.312-2.86 44.456 16.133 53.641 42.825.363 1.055.684 2.096.987 3.131 8.5-2.288 17.435-3.516 26.658-3.516h63.141c4.715 0 9.245.359 13.598 1.02.646-5.802 2.429-12 5.526-18.451 12.092-25.181 49.798-39.7 57.639-35.935 7.841 3.766 20.086 42.27 7.994 67.451-4.001 8.331-9.043 14.689-14.65 19.168 11.12 12.607 18.489 26.408 22.26 36.78 9.102 25.032 13.654 59.166 13.654 59.166 24.658 23.213 32.502 54.974 22.636 82.599-8.141 22.795-24.208 39.507-45.589 50.474-18.793 9.639-49.289 13.094-65.99 11.642 9.281 20.417 14.182 49.808 17.475 71.787h-256.713z" fill="#fff"/><path d="m442.429 276.737s-1.374-49.122-16.937-70.737c-6.449-8.957 5.125-21.231-9.003-30.341 4.179-5.835 7.303-13.323 8.888-22.428 4.792-27.52-5.744-58.795-14.314-60.288-3.822-.665-12.373 3.794-21.099 11.369.628-.058 1.184-.039 1.654.066 7.679 1.71 14.644 30.666 9.154 55.325-1.816 8.159-4.954 14.792-8.975 19.887 12.379 8.826-.718 20.468 4.73 28.832 13.149 20.184 14.026 74.052 14.026 74.052 24.078 23.326 23.222 44.141 20.316 57.562-4.633 21.394-13.92 36.87-33.847 49.166-14.141 8.726-36.721 9.126-49.674 14.039-10.04 3.808-18.717 9.63-17.971 20.651.665 9.823 1.041 17.347.289 31.268-.698 12.908-11.022 23.853-23.936 23.25l-179.073-.444c-6.69 11.367-6.153 10.485-11.12 23.862h256.715c.045-21.461-3.32-39.957-12.957-71.95l2.528-1.218c16.466-3.142 60.791-11.207 76.256-25.591 17.595-16.365 26.184-33.228 30.254-57.088 3.588-21.033 2.491-41.348-25.904-69.244z" fill="#e1bdfc"/><path d="m275.781 173.146c.033-.455.088-.912.187-1.373.639-17.749 6.032-33.117 18.367-45.007.307-19.862 5.578-35.321 18.157-44.492 6.353-21.958 16.203-45.384 28.501-69.838 1.538-3.769 7.162-2.553 7.004 1.516 1.512 22.013 1.609 42.465-2.267 58.528 5.316 13.071 5.402 26.246-1.534 39.593 4.298 13.22 4.487 26.954-1.603 41.385 6.434 13.892 1.625 26.583-.112 32.595-7.137 20.176-68.183 7.275-66.7-12.907z" fill="#f6e06e"/><path d="m275.781 173.146c.033-.455.088-.912.187-1.373.454-12.605 3.323-24 9.356-33.811-.594 3.251-.955 6.615-1.084 10.091-.088.394-.136.784-.165 1.172-1.305 17.22 52.432 28.227 58.715 11.012.295-.99.691-2.195 1.097-3.576 4.407 12.613.198 23.845-1.405 29.391-7.138 20.177-68.184 7.276-66.701-12.906z" fill="#dda86a"/><path d="m429.849 192.215c-14.187-8.192-24.71-21.267-30.504-36.59-1.646-4.353-3.966-8.552-6.99-12.456-14.443-18.65-40.79-23.937-61.298-12.283-24.461 13.899-31.573 45.33-16.198 68.272 13.237 19.752 34.566 27.99 54.299 27.362 11.496-.366 38.005-7.438 58.133-13.279 9.744-2.829 11.344-15.953 2.558-21.026z" fill="#ccf3e2"/><path d="m314.859 199.157c13.237 19.752 34.566 27.99 54.299 27.362 11.496-.366 38.005-7.438 58.133-13.279 9.743-2.827 11.344-15.951 2.558-21.025-14.187-8.192-24.709-21.268-30.504-36.59-1.646-4.353-3.966-8.552-6.99-12.457-14.443-18.649-40.79-23.936-61.298-12.283-24.46 13.9-31.572 45.33-16.198 68.272zm35.809-69.227c16.506-5.538 34.7 1.741 42.333 16.923 1.598 3.179 2.646 6.473 3.184 9.785 1.897 11.662 7.534 22.36 16.537 30.077 5.575 4.779 2.472 13.89-4.967 14.597-15.368 1.459-35.516 2.939-43.852 1.662-14.309-2.192-28.45-10.896-35.05-26.701-7.666-18.356 2.128-39.737 21.815-46.343z" fill="#b1b6e1"/><ellipse cx="402.913" cy="344.816" fill="#e8c2d8" rx="31.423" ry="25.604"/><ellipse cx="242.67" cy="344.816" fill="#e8c2d8" rx="31.423" ry="25.604"/><path d="m150.764 5.231 8.354 23.49c.358 1.006 1.066 1.803 1.959 2.205l20.87 9.403c2.949 1.328 2.949 6.026 0 7.354l-20.87 9.403c-.893.403-1.602 1.2-1.959 2.205l-8.354 23.49c-1.18 3.319-5.354 3.319-6.534 0l-8.354-23.49c-.358-1.006-1.066-1.803-1.959-2.205l-20.87-9.403c-2.948-1.328-2.948-6.026 0-7.354l20.87-9.403c.894-.403 1.602-1.2 1.959-2.205l8.354-23.49c1.18-3.319 5.354-3.319 6.534 0z" fill="#fbf2aa"/><path d="m72.833 97.491 6.197 17.425c.265.746.791 1.337 1.453 1.636l15.481 6.975c2.187.985 2.187 4.47 0 5.456l-15.481 6.975c-.663.299-1.188.89-1.453 1.636l-6.197 17.425c-.876 2.462-3.971 2.462-4.847 0l-6.197-17.425c-.265-.746-.791-1.337-1.453-1.636l-15.481-6.975c-2.187-.985-2.187-4.47 0-5.456l15.481-6.975c.663-.299 1.188-.89 1.453-1.636l6.197-17.425c.875-2.462 3.971-2.462 4.847 0z" fill="#fbf2aa"/><g fill="#f7e16e"><ellipse cx="457.673" cy="54.705" rx="12.395" ry="12.395" transform="matrix(.122 -.993 .993 .122 347.458 502.265)"/><path d="m53.019 232.295c0 5.317-4.31 9.627-9.627 9.627s-9.627-4.31-9.627-9.627 4.31-9.626 9.627-9.626c5.317-.001 9.627 4.309 9.627 9.626z"/></g></g><g><path d="m450.84 280.456c-1.442-9.571-5.936-36.503-13.67-57.773-.761-2.095-1.626-4.211-2.566-6.336 3.827-2.804 6.368-7.068 6.972-12.049.863-7.123-2.461-13.778-8.676-17.367-2.661-1.536-5.195-3.294-7.601-5.23 1.382-2.236 2.676-4.596 3.871-7.086 8.391-17.475 6.296-37.616 4.299-48.067-1.222-6.396-6.062-27.674-17.06-32.955-10.996-5.281-30.628 4.247-36.384 7.293-6.193 3.276-15.686 9.156-23.847 17.776-1.329-.042-2.661-.03-3.992.026-.019-.097-.031-.195-.05-.292.401-.505.776-1.038 1.085-1.632 7.506-14.443 8.542-29.58 3.097-45.04 3.014-14.497 3.583-32.632 1.852-58.089-.078-6.412-4.557-11.949-10.887-13.318-6.391-1.382-12.825 1.884-15.499 7.799-12.717 25.314-21.936 47.671-28.134 68.219-4.655 4.051-7.968 8.768-10.32 13.813-18.655-8.111-34.804-8.331-48.139-.549-9.109 5.316-16.375 14.126-21.756 26.294-.116-.081-.242-.172-.356-.25-5.409-3.723-23.96-15.563-35.569-11.57-11.61 3.993-18.947 24.744-20.919 31.007-1.877 5.963-4.169 15.215-4.504 25.553-3.295 1.051-6.415 2.473-9.343 4.295-20.945 13.031-24.871 41.675-25.46 56.246-5.918 1.739-14.095 4.988-22.892 11.008-14.87 10.176-34.457 30.64-43.322 70.344-8.966 40.155 2.196 66.657 13.138 81.819 4.545 6.298 9.443 11.211 13.813 14.903-9.7 8.691-21.147 23.777-21.147 46.572 0 33.651 30.755 57.364 38.871 63.036 1.229 1.286 2.803 2.273 4.644 2.779.902.248 1.808.366 2.7.366 4.465 0 8.561-2.965 9.801-7.478 13.542-49.294 36.372-88.881 64.283-111.47 3.346-2.708 4.625-7.23 3.193-11.29-6.53-18.501-9.315-37.692-9.315-64.172 0-.062 0-.125-.001-.188l-1.09-59.051c.018-18.413 5.446-36.175 15.699-51.372 2.705-4.008 2.213-9.367-1.177-12.817-4.208-4.281-7.565-10.007-9.978-17.018-6.707-19.491 3.958-46.691 9.772-53.405 8.714 1.714 33.859 16.593 40.566 36.084.269.784.537 1.635.843 2.68 1.553 5.307 7.058 8.4 12.404 6.963 7.2-1.939 14.634-2.983 22.124-3.136-.142 1.564-.26 3.142-.326 4.755-.073.426-.126.876-.167 1.345-.004.033-.006.066-.009.098-.005.057-.012.109-.016.168 0 .002-.001.004-.001.006-.004.059-.002.114-.006.173-.004.088-.009.177-.009.266-.704 14.774 18.017 24.016 34.412 27.453 1.634.343 3.313.639 5.016.885.228.359.445.724.682 1.078 12.71 18.964 33.973 30.101 57.237 30.101.772 0 1.55-.012 2.326-.037 8.157-.26 23.58-3.5 45.932-9.641 1.298 2.808 2.204 5.101 2.77 6.657 8.607 23.672 13.087 56.707 13.131 57.037.31 2.317 1.408 4.457 3.11 6.059 21.079 19.843 28.754 47.345 20.03 71.774-6.961 19.491-20.639 34.579-40.653 44.845-17.203 8.824-46.171 11.804-60.467 10.558-3.599-.303-7.098 1.31-9.185 4.261-2.087 2.952-2.451 6.789-.954 10.081 8.313 18.285 13.094 45.184 16.676 69.084.832 5.556 6.013 9.387 11.565 8.551 5.555-.832 9.383-6.011 8.551-11.564-2.963-19.771-6.747-41.58-12.724-59.984 17.264-.816 39.671-4.604 55.822-12.889 24.768-12.703 41.767-31.579 50.525-56.102 11.108-31.107 2.421-65.619-22.641-90.893zm-291.218-21.827 1.089 59.055c.006 25.783 2.505 45.44 8.262 64.149-31.648 28.214-50.393 68.689-61.261 102.434-9.065-8.419-20.497-22.243-20.497-38.448 0-25.773 22.079-37.133 22.965-37.577 3.523-1.711 5.751-5.294 5.727-9.212-.025-3.917-2.297-7.472-5.841-9.139-.432-.203-42.971-21.004-29.143-82.934 13.829-61.938 55.788-67.287 57.487-67.475 5.47-.516 9.541-5.286 9.194-10.769-.022-.353-1.742-35.548 15.886-46.516.356-.221.719-.426 1.087-.624.217.731.445 1.462.696 2.189 2.394 6.955 5.548 13.119 9.414 18.41-9.879 17.059-15.065 36.357-15.065 56.269-.002.063-.001.125 0 .188zm247.78-146.275c4.892 7.281 12.112 34.831 3.586 53.112-2.333-3.75-4.334-7.764-5.935-11.999-1.896-5.016-4.545-9.738-7.873-14.035-4.792-6.187-10.751-11.058-17.357-14.534 10.415-7.578 22.232-12.095 27.579-12.544zm-68.614-71.583c-.081 10.177-.832 20.572-2.943 29.323-.01.043-.014.085-.024.127-.046.203-.081.407-.115.612-.008.047-.019.092-.026.139l-10.072 3.406c3.526-10.58 7.895-21.727 13.18-33.607zm-20.304 49.72c.007-.005.014-.012.021-.017.258-.189.506-.391.745-.604.055-.049.107-.101.16-.151.175-.163.345-.33.508-.504.016-.017.034-.032.049-.049l18.47-6.246c2.005 8.471.933 16.381-3.267 24.463-.251.484-.447.98-.615 1.481l-26.292 8.798c.328-14.146 3.406-22.201 10.221-27.171zm-46.38 55.465c-6.797 0-13.567.612-20.224 1.822-3.172-6.802-7.536-12.735-12.11-17.72 3.452-10.093 8.466-18.689 15.672-22.894 8.064-4.708 19.099-3.668 32.865 3.026-.408 4.457-.47 8.85-.391 12.986.009.44.054.869.117 1.293-5.838 6.168-10.277 13.353-13.319 21.487zm23.128-11.252c.458-.043.918-.119 1.373-.272l41.821-13.995c.22.152.458.284.691.422-3.799 1.132-7.516 2.699-11.075 4.72-12.883 7.321-21.934 19.138-25.624 33.356l-19.775 5.827c1.49-12.075 5.642-21.992 12.589-30.058zm-11.929 42.587 17.385-5.123c-.03 5.279.703 10.535 2.187 15.589-9.669-2.584-16.695-6.737-19.572-10.466zm85.661 43.129c-19.915.662-38.263-8.584-49.036-24.659-6.437-9.605-8.604-21.57-5.946-32.829 2.695-11.414 9.829-20.911 20.09-26.741 6.392-3.632 13.434-5.377 20.422-5.377 12.56 0 24.943 5.638 33.037 16.09 2.585 3.338 4.639 6.998 6.106 10.879 6.417 16.97 18.194 31.075 33.16 39.716 2.871 1.658 2.765 4.498 2.664 5.329-.101.833-.679 3.624-3.871 4.55-28.05 8.14-48.16 12.772-56.626 13.042z" fill="#3c122c"/><path d="m377.417 177.843c-3.751 0-7.358-2.083-9.129-5.674-5.139-10.422-13.099-13.075-13.435-13.183 0 0-9.927-4.709-6.87-13.43s12.516-6.108 12.516-6.108c1.701.475 16.886 5.177 26.031 23.726 2.484 5.038.414 11.135-4.624 13.619-1.445.712-2.979 1.05-4.489 1.05z" fill="#fff"/><g fill="#3c122c"><path d="m243.281 304.23c-3.37 0-6.102-2.732-6.102-6.102v-13.61c0-3.37 2.732-6.102 6.102-6.102h29.943c3.37 0 6.102 2.732 6.102 6.102s-2.732 6.102-6.102 6.102h-23.841v7.508c0 3.369-2.732 6.102-6.102 6.102z"/><path d="m371.405 304.23c-3.37 0-6.102-2.732-6.102-6.102v-13.61c0-3.37 2.732-6.102 6.102-6.102h29.942c3.37 0 6.102 2.732 6.102 6.102s-2.732 6.102-6.102 6.102h-23.84v7.508c0 3.369-2.732 6.102-6.102 6.102z"/><path d="m255.467 255.296c-1.715 0-3.42-.719-4.627-2.12-2.199-2.553-1.912-6.406.642-8.606 6.957-5.991 17.435-5.988 24.374.007 2.55 2.203 2.831 6.056.628 8.607-2.204 2.549-6.057 2.83-8.607.628-2.357-2.036-6.061-2.033-8.432.007-1.152.991-2.569 1.477-3.978 1.477z"/><path d="m375.531 255.296c-1.715 0-3.42-.719-4.627-2.12-2.199-2.553-1.911-6.407.643-8.606 6.957-5.99 17.434-5.988 24.374.007 2.55 2.203 2.831 6.056.628 8.607-2.204 2.549-6.057 2.83-8.607.628-2.358-2.036-6.061-2.035-8.432.007-1.152.991-2.569 1.477-3.979 1.477z"/><path d="m327.234 349.186c-10.218 0-18.53-8.799-18.53-19.615 0-3.37 2.732-6.102 6.102-6.102s6.102 2.732 6.102 6.102c0 4.087 2.838 7.411 6.326 7.411s6.326-3.324 6.326-7.411c0-3.37 2.732-6.102 6.102-6.102s6.102 2.732 6.102 6.102c-.001 10.816-8.313 19.615-18.53 19.615z"/><path d="m402.913 376.523c-20.691 0-37.525-14.223-37.525-31.707 0-17.483 16.834-31.706 37.525-31.706s37.525 14.223 37.525 31.706c.001 17.484-16.833 31.707-37.525 31.707zm0-51.209c-13.962 0-25.321 8.749-25.321 19.502 0 10.754 11.359 19.503 25.321 19.503s25.321-8.749 25.321-19.503c.001-10.753-11.358-19.502-25.321-19.502z"/><path d="m242.67 376.523c-20.692 0-37.525-14.223-37.525-31.707 0-17.483 16.834-31.706 37.525-31.706 20.692 0 37.525 14.223 37.525 31.706 0 17.484-16.834 31.707-37.525 31.707zm0-51.209c-13.962 0-25.321 8.749-25.321 19.502 0 10.754 11.359 19.503 25.321 19.503s25.321-8.749 25.321-19.503c0-10.753-11.359-19.502-25.321-19.502z"/></g></g></g></svg>