<svg id="Capa_1" enable-background="new 0 0 512 512" height="512" viewBox="0 0 512 512" width="512" xmlns="http://www.w3.org/2000/svg"><g><g><path d="m390.621 501.927s35.976-16.88 40.33-47.651-19.987-47.555-19.987-47.555 49.259-15.768 44.244-84.056-50.658-79.327-50.658-79.327 18.634-90.897-71.748-53.489c0 0 22.754-122.447-64.175-82.529l-23.46 219.014z" fill="#e8c2d8"/><path d="m409.213 406.444s53.109-15.301 48.775-86.805c-.779-12.859-10.684-31.204-13.798-40.524 3.678 102.079-70.945 137.496-136.081 72.757-3.496-3.474-19.623 30.534-24.267 29.151l102.077 124.454s38.869-16.782 44.015-48.844c5.146-32.06-20.721-50.189-20.721-50.189z" fill="#d392d8"/><path d="m419.823 403.523c-6.886-21.392-45.11-11.656-96.661 6.799-.108-.082-.215-.167-.323-.248 10.966-15.576 19.529-33.324 27.503-61.56l16.961-56.075c5.697-20.172 4.865-40.643-1.236-59.159 6.198-3.54 12.137-8.996 17.37-16.537 15.938-22.965 9.94-62.952 2.789-67.915s-46.709 3.409-62.647 26.374c-.63.907-1.216 1.814-1.783 2.719-7.485-4.469-15.67-8.044-24.459-10.527l-60.174-16.995c-4.494-1.269-8.907-2.146-13.233-2.688.946-5.703.916-12.089-.3-19.072-4.746-27.252-36.772-51.238-45.258-49.76s-30.519 34.877-25.774 62.129c1.57 9.017 4.664 16.432 8.802 22.21-13.991 9.021-24.728 20.19-31.114 29.06-15.412 21.406-28.938 52.71-28.938 52.71-29.747 15.484-45.772 43.641-43.805 72.625 1.622 23.914 12.436 44.166 29.861 60.372 15.315 14.244 43.448 25.745 59.755 28.857l2.503 1.206c-.452 1.501-.894 3.03-1.331 4.569-60.116-22.512-109.252-42.251-118.376-14.756-9.173 27.643 39.394 44.286 99.951 66.948l15.694-41.939c-7.177 28.706-11.582 60.901-11.544 78.957h254.221c-6.684-18-15.111-34.226-24.828-48.504 38.346-16.3 62.237-31.585 56.374-49.8z" fill="#faf1a9"/><path d="m289.238 418.275c12.786-5.396 26.064-9.302 39.251-13.573 8.482-13.751 15.516-29.971 22.144-53.437l16.961-56.075c5.697-20.172 4.864-40.643-1.236-59.159 6.199-3.539 12.137-8.996 17.37-16.537 15.938-22.965 9.94-62.952 2.789-67.915-3.299-2.289-13.497-1.734-25.089 1.776 4.662 7.82 3.917 43.675-11.769 63.867-3.508 4.516-7.156 8.18-10.848 11.042-3.56 2.76-5.499 7.081-5.133 11.571 1.294 15.853-1 32.68-7.384 49.066l-21.572 52.862c-6.89 17.686-13.413 30.936-20.329 42.056-5.698 9.16-5.427 20.884 1 29.548 1.2 1.616 2.496 3.251 3.845 4.908z" fill="#dfb5a7"/><path d="m367.097 458.455c-18.601 5.555-37.269 11.572-56.677 12.875-5.917 8.627-16.734 14.878-27.156 14.299l-147.647-3.288c-1.074 9.425-1.284 12.94-1.27 19.487h254.221c-5.899-15.886-13.168-30.371-21.471-43.373z" fill="#dfb5a7"/><path d="m284.16 193.482c.095-.441.171-.891.205-1.357 4.351-17.042 3.518-33.148-4.88-47.89 5.255-18.956 4.565-35.116-4.824-47.342.097-22.636-2.718-47.644-7.573-74.312-.409-4.011-6.091-4.425-7.078-.516-7.585 20.492-13.389 39.896-14.192 56.239-8.702 10.934-12.463 23.428-9.601 38.045-7.775 11.36-11.791 24.356-10.035 39.767-9.993 11.401-8.968 24.803-8.997 31 1.145 21.161 62.747 25.955 66.975 6.366z" fill="#ccf3e2"/><path d="m284.16 193.482c.095-.441.171-.891.205-1.357 3.09-12.103 3.547-23.73.555-34.736-.344 3.255-.94 6.551-1.788 9.89-.026.399-.09.783-.171 1.16-3.57 16.725-57.698 12.174-58.86-5.936-.004-1.023-.044-2.278-.044-3.704-7.71 10.753-6.847 22.599-6.874 28.316 1.147 21.162 62.749 25.956 66.977 6.367z" fill="#b1b6e1"/><path d="m132.457 168.569c15.767-3.82 29.416-13.305 39.201-26.245 2.779-3.675 6.156-7.017 10.12-9.882 18.931-13.685 45.439-11.35 61.669 5.45 19.357 20.037 17.336 51.885-3.678 69.388-18.093 15.069-40.658 16.939-59.23 10.831-10.82-3.558-34.03-17.681-51.522-28.852-8.47-5.408-6.324-18.324 3.44-20.69z" fill="#e8c2d8"/><path d="m243.446 137.892c-16.23-16.8-42.738-19.135-61.669-5.45-3.964 2.865-7.34 6.207-10.12 9.883-9.785 12.94-23.434 22.424-39.201 26.245-9.764 2.366-11.909 15.282-3.442 20.689 17.492 11.171 40.703 25.294 51.522 28.852 18.573 6.108 41.137 4.238 59.23-10.831 21.016-17.503 23.038-49.351 3.68-69.388zm-10.582 43.738c-10.685 13.172-26.551 17.493-40.758 15.579-8.277-1.115-27.005-8.149-41.199-13.827-6.871-2.749-7.274-12.272-.642-15.255 10.709-4.817 19.052-13.407 24.111-23.957 1.437-2.997 3.352-5.834 5.758-8.408 11.492-12.292 30.811-14.126 44.947-4.254 16.859 11.773 20.193 34.823 7.783 50.122z" fill="#d392d8"/><path d="m73.259 389.892c-13.034-6.134-34.183-2.425-38.338 7.123-4.155 9.549 7.387 29.557 20.595 35.304 13.21 5.748 24.3-39.342 17.743-42.427z" fill="#d789b9"/><path d="m224.565 296.824c5.756.474 9.152 9.763 6.699 18.411-6.007 21.182-19.009 35.695-32.811 34.558-13.803-1.137-24.253-17.583-26.712-39.463-1.004-8.933 3.867-17.54 9.623-17.066z" fill="#d789b9"/><path d="m224.565 296.824-43.201-3.56c-5.756-.474-10.627 8.134-9.623 17.066 2.459 21.88 12.909 38.326 26.712 39.463 1.842.152 3.669.016 5.468-.368-6.628-2.496-12.417-8.59-13.63-19.384-.633-5.637 4.875-15.299 8.507-15l27.26 2.247c1.53.126 2.79 1.245 3.627 2.899.568-1.607 1.098-3.255 1.579-4.951 2.453-8.649-.943-17.938-6.699-18.412z" fill="#c668b9"/><path d="m376.522 395.551c13.034-6.134 34.183-2.425 38.338 7.124 4.155 9.548-7.387 29.556-20.595 35.304-13.209 5.747-24.3-39.343-17.743-42.428z" fill="#d789b9"/><path d="m75.779 17.965h43.714v48.682h-43.714z" fill="#9781dd" transform="matrix(.847 .531 -.531 .847 37.388 -45.403)"/><path d="m345.768 33.653h43.714v48.682h-43.714z" fill="#f6e06e" transform="matrix(.917 -.398 .398 .917 7.285 151.086)"/><path d="m446.1 175.966h43.714v48.682h-43.714z" fill="#c1e5ef" transform="matrix(.72 .694 -.694 .72 269.913 -268.612)"/><circle cx="478" cy="65.072" fill="#96b4eb" r="22.862"/><ellipse cx="38.144" cy="178.444" fill="#e8a284" rx="22.862" ry="22.862" transform="matrix(.23 -.973 .973 .23 -144.291 174.57)"/></g><g><g fill="#3c122c"><path d="m7.105 381.619c-1.089 0-2.191-.294-3.185-.912-2.835-1.763-3.703-5.488-1.941-8.323 13.147-21.147 30.363-22.568 31.089-22.617 3.333-.24 6.216 2.283 6.444 5.612.228 3.307-2.247 6.174-5.542 6.439-.627.064-12.086 1.438-21.727 16.947-1.145 1.842-3.119 2.854-5.138 2.854z"/><path d="m200.024 355.901c-.687 0-1.376-.029-2.067-.086-14.129-1.163-25.494-14.014-30.4-34.374-2.354-9.765.022-20.946 5.911-27.823 3.648-4.258 8.302-6.386 13.1-5.99l33.786 2.784c4.801.395 9.042 3.255 11.943 8.052 4.683 7.748 5.198 19.167 1.277 28.416-7.773 18.339-20.198 29.021-33.55 29.021zm-14.57-56.233c-1.13 0-2.332 1.257-2.807 1.812-2.897 3.383-4.976 10.353-3.342 17.129 3.571 14.817 11.098 24.458 19.644 25.162 8.525.7 17.551-7.575 23.497-21.607 2.72-6.418 1.812-13.634-.493-17.445-.391-.647-1.428-2.165-2.594-2.261l-33.785-2.784c-.039-.004-.08-.006-.12-.006z"/><path d="m442.317 397.186c12.04-12.855 25.793-36.346 22.936-75.258-4.166-56.721-34.357-77.949-49.62-85.117 1.266-12.79 1.439-36.952-12.19-52.393.182-3.286.187-6.238.115-8.682-.194-6.5-1.6-28.249-11.589-35.181-9.987-6.93-30.854-.64-37.012 1.453-2.735.929-6.1 2.213-9.765 3.898-1.458-18.325-6.668-37.547-20.518-48.34-10.419-8.12-23.822-10.29-39.99-6.533-.333-20.573-2.837-43.538-7.64-69.986-.888-6.367-6.085-11.267-12.544-11.739-6.41-.462-12.2 3.542-14.064 9.611-8.755 23.705-13.28 41.095-14.465 55.709-6.853 9.506-10.43 19.8-10.734 30.741-5.167-8.651-11.469-15.46-15.88-19.669-4.664-4.452-20.826-18.819-32.712-16.742-11.902 2.073-22.242 21.048-25.128 26.814-4.715 9.422-12.134 28.052-8.84 46.964.858 4.932 2.135 9.549 3.811 13.829-4.882 2.749-10.075 4.829-15.453 6.133h.001c-6.908 1.673-11.926 7.066-13.095 14.076-.73 4.373.162 8.637 2.389 12.157-12.349 17.86-23.023 40.508-26.793 48.841-30.688 17.341-48.255 47.893-46.041 80.524 1.486 21.884 9.778 41.469 24.637 58.389-15.19-3.108-27.761-3.271-37.163 1.22-6.998 3.343-12.037 9.148-14.573 16.787-3.085 9.298-1.74 18.618 3.89 26.953 4.428 6.554 11.59 12.705 21.895 18.802 17.727 10.489 42.898 19.88 72.043 30.753l7.74 2.89c-1.309 10.892-1.994 20.532-1.978 27.761.012 5.555 4.518 10.049 10.07 10.049h.023c5.562-.012 10.061-4.53 10.049-10.093-.042-19.75 5.624-59.134 15.178-90.853 1.429-4.746-.806-9.826-5.273-11.977l-2.503-1.206c-.789-.381-1.623-.656-2.483-.819-13.96-2.664-40.765-13.3-54.784-26.34-16.311-15.171-25.284-33.231-26.671-53.679-1.74-25.628 12.977-49.773 38.407-63.01 2.053-1.068 3.675-2.813 4.594-4.937.126-.29 12.092-27.81 25.835-47.916 20.19 12.54 34.38 20.203 42.222 22.782 7.265 2.389 14.689 3.56 22.013 3.56 15.604-.001 30.758-5.316 42.972-15.488.326-.271.634-.559.953-.837 1.685.24 3.363.434 5.009.565 2.078.165 4.217.253 6.376.253 15.029 0 30.994-4.286 33.996-16.758.017-.061.031-.121.046-.182.016-.07.037-.136.052-.207.007-.031.009-.062.015-.093.022-.111.04-.221.055-.332.076-.395.154-.791.197-1.164 1.425-5.695 2.268-11.222 2.533-16.571l1.733.489c7.747 2.188 15.161 5.379 22.034 9.482 4.703 2.811 10.791 1.34 13.698-3.303.561-.896 1.044-1.635 1.522-2.321 11.637-16.768 39.604-24.163 48.371-23.469 3.733 7.965 6.576 36.757-5.062 53.526-4.185 6.031-8.925 10.584-14.09 13.533-4.158 2.374-6.069 7.349-4.571 11.897 5.681 17.244 6.072 35.633 1.133 53.184l-16.932 55.984c-.018.059-.034.118-.051.178-6.769 23.965-14.172 40.986-24.495 56.235-3.625 1.353-7.305 2.733-11.054 4.14l-8.151 3.057c-5.21 1.949-7.852 7.752-5.902 12.962 1.948 5.208 7.752 7.853 12.962 5.902l8.17-3.064c18.908-7.098 38.119-14.304 54.535-19.128l12.069 30.451c-14.865 6.949-33.519 13.914-54.267 21.654l-8.171 3.052c-5.21 1.949-7.852 7.752-5.902 12.962 1.514 4.046 5.353 6.544 9.433 6.544 1.173 0 2.366-.207 3.529-.642l8.151-3.044c9.926-3.703 19.375-7.232 28.242-10.693 7.409 11.972 13.805 25.081 19.037 39.169 1.507 4.058 5.352 6.568 9.442 6.568.26 0 .522-.014.783-.034.517.082 1.039.133 1.566.133 1.432 0 2.889-.307 4.271-.956 1.67-.784 40.964-19.604 46.023-55.357 2.631-18.595-3.391-32.884-10.095-42.54.208-1.94.229-3.899.039-5.87 3.647-2.641 7.571-5.954 11.449-10.093zm-306.085 21.651c-2.92 11.469-5.379 23.421-7.308 34.857l-3.66-1.367c-28.245-10.537-52.64-19.639-68.826-29.216-20.27-11.993-17.926-19.059-16.924-22.075.823-2.482 2.06-3.965 4.137-4.956 13.898-6.638 53.734 8.176 92.581 22.757zm119.572-339.31c.024-.198.048-.396.06-.595.003-.045.011-.089.014-.135.437-8.903 2.627-18.988 5.392-28.679 1.703 12.764 2.741 24.574 3.137 35.609l-8.617-6.048c.006-.051.008-.102.014-.152zm-5.976 10.734 15.804 11.093c.019.038.043.075.062.113.08.157.166.31.254.462.077.132.153.264.237.393.1.156.206.306.315.456.059.082.11.168.172.249 5.088 6.625 5.763 15.137 2.12 28.666l-22.522-15.702c-.019-.522-.067-1.049-.17-1.578-1.733-8.85-.542-16.665 3.728-24.152zm-69.648-1c6.359 2.388 20.994 13.948 28.821 28.264-10.767.078-21.559 3.364-30.763 10.019-4.361 3.152-8.197 6.898-11.401 11.134-1.125 1.488-2.306 2.921-3.534 4.299-.292-1.201-.561-2.426-.782-3.698-3.445-19.779 10.997-44.361 17.659-50.018zm70.538 83.847c-.62 11.439-6.02 22.202-14.818 29.529-14.723 12.263-34.715 15.901-53.476 9.734-7.967-2.621-25.781-12.637-50.157-28.205-2.775-1.772-2.544-4.584-2.407-5.404.136-.818.829-3.547 4.02-4.32 16.634-4.031 31.762-14.143 42.597-28.473 2.479-3.278 5.453-6.181 8.84-8.63 7.205-5.208 15.667-7.755 24.094-7.755 10.885 0 21.714 4.252 29.688 12.507 8.121 8.405 12.246 19.42 11.619 31.017zm3.619 26.688c2.821-4.387 4.986-9.177 6.432-14.201l15.088 9.724c-3.774 2.741-11.609 4.726-21.52 4.477zm25.644-16.196-17.161-11.06c.465-14.539-4.834-28.294-15.029-38.847-2.817-2.916-5.91-5.442-9.204-7.579.26-.065.523-.124.774-.207l35.826 24.976c.39.272.806.475 1.23.643 4.347 9.604 5.521 20.186 3.564 32.074zm38.877-18.717c-6.017-2.946-12.306-5.35-18.783-7.181l-9.558-2.699c-1.098-3.857-2.565-7.589-4.402-11.189.178-.385.34-.781.471-1.197 3.046-9.67 5.724-21.071 4.167-32.32 9.19-1.876 16.406-.841 21.531 3.148 10.29 8.009 13.087 27.365 13.084 44.958-2.281 1.969-4.476 4.121-6.51 6.48zm41.151 186.461 16.934-55.99c.018-.059.035-.118.051-.178 5.36-18.975 5.611-38.763.789-57.679 5.11-4.003 9.775-9.028 13.929-15.012 1.422-2.05 2.677-4.171 3.788-6.333 1.296 9.866.206 20.088-.815 25.163-1.09 5.314 2.136 10.514 7.409 11.789 1.579.413 38.701 10.801 43.071 70.298 2.665 36.288-11.403 55.6-23.024 65.232-2.117-2.046-4.567-3.753-7.327-5.072-15.431-7.371-39.388-2.218-69.486 7.957 5.55-11.572 10.265-24.555 14.681-40.175zm18.465 51.402c12.251-2.868 22.062-3.682 27.658-1.008 2.076.991 3.313 2.474 4.137 4.955 1.001 3.017 3.346 10.083-16.924 22.076-1.192.705-2.442 1.407-3.721 2.108zm42.505 50.118c-2.42 17.104-17.724 29.495-27.169 35.623-4.435-10.569-9.501-20.6-15.138-30.034 9.367-4.051 17.765-8.111 24.929-12.35 6.43-3.804 11.637-7.63 15.719-11.561 1.766 5.156 2.656 11.278 1.659 18.322z"/><path d="m166.129 265.156c-.337 0-.681-.029-1.025-.087-3.289-.562-5.501-3.684-4.938-6.974.287-1.681-.097-3.372-1.083-4.764s-2.454-2.316-4.135-2.603c-1.681-.286-3.373.097-4.766 1.083-1.392.985-2.316 2.454-2.603 4.135-.562 3.29-3.678 5.503-6.973 4.939-3.29-.562-5.502-3.684-4.939-6.973 1.714-10.038 11.273-16.811 21.316-15.096 4.863.83 9.112 3.505 11.964 7.532 2.851 4.025 3.964 8.92 3.132 13.784-.503 2.943-3.06 5.024-5.95 5.024z"/><path d="m290.39 286.382c-.337 0-.68-.029-1.024-.087-3.29-.562-5.502-3.684-4.939-6.973.287-1.682-.097-3.374-1.083-4.766-.986-1.391-2.454-2.315-4.135-2.602-1.68-.285-3.374.097-4.766 1.083-1.392.985-2.316 2.454-2.603 4.135-.562 3.289-3.679 5.508-6.973 4.939-3.29-.562-5.502-3.684-4.939-6.973.83-4.863 3.505-9.112 7.532-11.963 4.027-2.852 8.921-3.965 13.785-3.133 4.862.83 9.111 3.504 11.962 7.531 2.851 4.025 3.964 8.921 3.133 13.784-.503 2.944-3.06 5.025-5.95 5.025z"/><path d="m103.224 84.61c-1.878 0-3.733-.525-5.35-1.538l-37.036-23.222c-4.712-2.955-6.137-9.17-3.183-13.883l25.86-41.245c2.953-4.711 9.169-6.138 13.882-3.183l37.037 23.221c2.263 1.419 3.87 3.678 4.467 6.283.597 2.603.135 5.338-1.284 7.601l-25.86 41.246c-1.419 2.263-3.679 3.869-6.283 4.466-.743.17-1.498.254-2.25.254zm-23.154-36.475 19.971 12.522 15.161-24.181-19.972-12.521z"/><path d="m357.26 99.094c-1.255 0-2.51-.234-3.699-.704-2.484-.981-4.478-2.909-5.54-5.359l-19.372-44.661c-2.214-5.102.129-11.034 5.231-13.247l40.104-17.396c2.451-1.065 5.223-1.11 7.707-.128 2.484.98 4.478 2.909 5.54 5.359l19.372 44.661c2.214 5.102-.129 11.034-5.231 13.247l-40.104 17.396c-1.278.554-2.642.832-4.008.832zm-6.125-49.502 11.357 26.183 21.625-9.381-11.357-26.182z"/><path d="m466.812 243.073c-2.603 0-5.108-1.008-6.987-2.818l-31.482-30.329c-4.006-3.859-4.125-10.234-.267-14.24l33.775-35.06c1.853-1.924 4.394-3.033 7.066-3.082 2.674-.028 5.251.963 7.175 2.816l31.482 30.329c4.006 3.859 4.125 10.234.267 14.24l-33.775 35.06c-1.853 1.924-4.395 3.033-7.066 3.082-.064.001-.127.002-.188.002zm-17.242-40.665 16.976 16.354 19.8-20.555-16.976-16.354z"/><path d="m478 98.005c-18.16 0-32.933-14.773-32.933-32.933s14.773-32.934 32.933-32.934 32.933 14.774 32.933 32.934c0 18.159-14.773 32.933-32.933 32.933zm0-45.725c-7.053 0-12.791 5.738-12.791 12.792 0 7.053 5.738 12.79 12.791 12.79s12.791-5.738 12.791-12.79c0-7.054-5.738-12.792-12.791-12.792z"/><path d="m38.144 211.377c-18.16 0-32.934-14.773-32.934-32.933s14.774-32.933 32.934-32.933 32.933 14.773 32.933 32.933-14.773 32.933-32.933 32.933zm0-45.723c-7.054 0-12.792 5.738-12.792 12.791s5.738 12.791 12.792 12.791c7.053 0 12.791-5.738 12.791-12.791s-5.738-12.791-12.791-12.791z"/></g><path d="m189.131 169.966c-2.438 0-4.882-.88-6.818-2.661-4.092-3.767-4.356-10.138-.589-14.23 13.87-15.067 29.609-15.325 31.358-15.271 0 0 10.623-.371 10.476 9.331s-10.569 10.81-10.569 10.81c-.349.009-8.653.306-16.446 8.772-1.985 2.156-4.694 3.249-7.412 3.249z" fill="#fff"/></g></g></svg>