<svg id="Capa_1" enable-background="new 0 0 512 512" height="512" viewBox="0 0 512 512" width="512" xmlns="http://www.w3.org/2000/svg"><g><g><path d="m273.087 372.868s27.126-12.37 30.292-35.015c3.166-22.646-15.304-35.04-15.304-35.04s37.172-11.53 33.102-61.809-38.619-58.478-38.619-58.478 13.714-66.886-54.456-39.49c0 0 16.699-90.106-48.85-60.856l-16.838 161.194z" fill="#c2b2eb"/><path d="m285.233 301.838s40.108-15.48 31.871-70.59c-1.481-9.911-10.408-23.45-13.457-30.459 9.815 78.847-45.591 111.383-100.48 65.663-2.946-2.454-13.122 24.999-16.815 24.244l87.588 89.47s28.973-15.656 30.773-40.851-19.48-37.477-19.48-37.477z" fill="#ae85ea"/><path d="m268.214 321.758c-4.31-4.816-9.006-8.627-13.886-11.474-4.546-8.947-10.055-17.206-16.73-24.35 6.193-11.948 10.486-25.17 13.356-45.701l6.464-40.744c2.044-14.619-.497-28.821-6.526-41.154 3.986-3.063 7.606-7.438 10.535-13.199 8.92-17.547.908-44.87-4.556-47.647s-32.26 6.85-41.18 24.397c-.352.693-.675 1.381-.984 2.067-5.65-2.401-11.702-4.111-18.072-5.002l-43.607-6.096c-3.257-.455-6.42-.644-9.49-.609.114-4.069-.519-8.522-2.035-13.276-5.92-18.558-30.559-32.226-36.338-30.382-5.779 1.843-17.953 27.254-12.033 45.812 1.959 6.14 4.827 11.018 8.267 14.652-8.897 7.633-15.318 16.453-18.925 23.252-8.703 16.409-15.142 39.544-15.142 39.544-19.27 13.65-27.754 34.828-23.608 54.86 3.422 16.529 12.905 29.621 26.612 39.26 12.048 8.471 32.776 13.802 44.45 14.411-5.608 8.835-10.204 20.647-13.951 31.95-2.307-4.326-4.038-7.734-4.39-8.675-1.89-5.05-4.259 6.239-16.421-2.945-6.113-4.616-14.53-37.958-34.938-29.1-20.408 8.857-9.682 38.108 9.229 58.875 11.256 12.361 25.029 18.051 37.881 17.404-.565 6.226-.608 12.618-.137 19.153.973 13.504 4.119 24.344 9.031 32.974-13.006 7.155-20.225 22.987-16.609 41.974 4.437 23.296 18.752 45.366 35.078 36.075s-1.922-31.875-1.941-38.342c-.037-12.868 8.787-8.745 6.335-12.581-.474-.742-1.994-3.842-3.84-7.807 16.963 10.048 40.172 12.038 65.836 10.188 9.114-.657 17.929-1.741 26.224-3.414 16.09 33.52 27.851 63.306 42.831 55.045 14.675-8.093 6.688-35.68-8.465-67.958 15.918-10.283 25.894-26.365 25.942-51.208 1.415-.205 2.895-.617 4.446-1.275 20.487-8.68 10.016-38.023-8.713-58.954z" fill="#fff"/><path d="m219.406 302.063c10.393-1.677 21.677.028 32.052 2.896-3.947-6.906-8.532-13.321-13.86-19.024 6.193-11.948 10.486-25.17 13.356-45.701l6.464-40.744c2.044-14.619-.497-28.821-6.526-41.154 3.986-3.063 7.606-7.438 10.535-13.199 8.92-17.547.908-44.87-4.556-47.647-3.194-1.624-13.679.998-23.621 6.958 4.033 7.79 7.455 27.103.995 40.426-2.574 5.308-5.735 9.35-9.201 12.191 5.113 11.269 7.199 24.279 5.322 37.706l-5.895 37.43c-2.118 15.154-9.123 33.695-14.616 46.107-2.149 4.856-1.303 10.511 2.126 14.565 2.588 3.06 5.065 6.111 7.425 9.19z" fill="#e1bdfc"/><path d="m241.948 359.047c1.046 47.67-33.529 62.101-75.227 65.66-32.567 2.779-60.503-2.073-73.329-26.91 8.244 45.976 46.44 55.048 92.559 51.724 45.712-3.294 83.933-17.283 86.397-62.956-12.284-6.353-22.265-16.165-30.4-27.518z" fill="#e1bdfc"/><path d="m192.453 130.35c.021-.317.028-.638.003-.967 1.273-12.32-.969-23.454-8.34-32.856 1.705-13.747-.442-24.932-8.244-32.481-2.267-15.778-6.808-32.908-12.941-50.983-.698-2.752-4.7-2.454-4.984.371-3.169 15.057-5.211 29.172-4.085 40.64-4.933 8.514-6.265 17.605-2.763 27.492-4.245 8.715-5.701 18.182-2.888 28.736-5.785 8.973-3.689 18.202-3.07 22.522 2.981 14.623 46.387 11.608 47.312-2.474z" fill="#c1e5ef"/><path d="m192.453 130.35c.021-.317.028-.638.003-.967.904-8.749.023-16.896-3.197-24.254.096 2.302.021 4.66-.226 7.074.023.281.018.554.001.825-.761 12.018-38.936 14.432-41.613 1.937-.108-.712-.265-1.582-.412-2.575-4.262 8.285-2.439 16.449-1.868 20.434 2.981 14.623 46.387 11.608 47.312-2.474z" fill="#a6aaed"/><path d="m84.208 128.645c10.589-4.288 19.118-12.302 24.599-22.326 1.557-2.847 3.564-5.523 6.03-7.928 11.775-11.486 30.481-12.593 43.52-2.565 15.551 11.961 17.428 34.354 4.595 48.714-11.049 12.363-26.574 15.993-40.142 13.654-7.904-1.363-25.529-8.806-38.866-14.783-6.455-2.892-6.293-12.111.264-14.766z" fill="#c2b2eb"/><path d="m158.357 95.827c-13.038-10.028-31.745-8.921-43.52 2.565-2.465 2.405-4.473 5.081-6.03 7.928-5.481 10.023-14.011 18.038-24.599 22.326-6.558 2.655-6.72 11.874-.264 14.767 13.337 5.977 30.962 13.421 38.866 14.783 13.567 2.339 29.093-1.291 40.142-13.655 12.834-14.36 10.957-36.753-4.595-48.714zm-2.859 31.559c-6.084 10.278-16.691 14.924-26.784 15.056-5.88.077-19.652-2.891-30.125-5.382-5.07-1.206-6.333-7.798-2.021-10.56 6.963-4.46 11.888-11.304 14.324-19.175.692-2.236 1.733-4.41 3.144-6.451 6.737-9.748 20.005-13.019 30.87-7.6 12.959 6.463 17.659 22.175 10.592 34.112z" fill="#ae85ea"/><g fill="#9781dd"><path d="m42.524 334.595c-10.449-17.653-12.985-36.238 2.564-42.987 16.896-7.334 25.573 14.259 31.528 24.527-11.349 6.189-22.483 12.774-34.092 18.46z"/><path d="m89.234 478.005c6.624 16.004 17.888 27.137 30.327 20.058 13.517-7.692 3.334-24.496-.581-33.722-9.932 4.526-20.021 8.707-29.746 13.664z"/><path d="m236.266 486.8c3.758 8.554 11.818 13.286 18.002 10.569s8.15-11.854 4.391-20.408c-3.758-8.554-26.152 1.285-22.393 9.839z"/><path d="m279.868 337.749c10.294 17.744 12.669 36.35-2.939 42.963-16.96 7.186-25.448-14.481-31.313-24.801 11.402-6.091 22.593-12.577 34.252-18.162z"/></g><path d="m153.536 237.091c-1.083 7.063-7.157 11.993-13.566 11.01-6.41-.983-10.728-7.505-9.645-14.569 1.083-7.063 7.157-11.993 13.567-11.01 6.409.983 10.727 7.506 9.644 14.569z" fill="#d789b9"/><path d="m433.661 84.199 8.244 23.179c.353.993 1.052 1.779 1.933 2.176l20.594 9.279c2.91 1.311 2.91 5.946 0 7.257l-20.594 9.279c-.882.397-1.58 1.184-1.933 2.176l-8.244 23.18c-1.165 3.275-5.283 3.275-6.448 0l-8.243-23.18c-.353-.992-1.052-1.779-1.934-2.176l-20.594-9.279c-2.91-1.311-2.91-5.946 0-7.257l20.594-9.279c.882-.397 1.581-1.184 1.934-2.176l8.243-23.179c1.165-3.275 5.284-3.275 6.448 0z" fill="#c1e5ef"/><path d="m409.434 198.261 6.115 17.194c.262.736.78 1.32 1.434 1.614l15.276 6.883c2.158.972 2.158 4.411 0 5.383l-15.276 6.883c-.654.295-1.172.878-1.434 1.614l-6.115 17.194c-.864 2.429-3.919 2.429-4.783 0l-6.115-17.194c-.262-.736-.78-1.32-1.434-1.614l-15.276-6.883c-2.158-.972-2.158-4.411 0-5.383l15.276-6.883c.654-.295 1.172-.878 1.434-1.614l6.115-17.194c.865-2.429 3.92-2.429 4.783 0z" fill="#c1e5ef"/><path d="m355.991 72.488c0 5.246-4.253 9.499-9.499 9.499s-9.499-4.253-9.499-9.499 4.253-9.499 9.499-9.499 9.499 4.253 9.499 9.499z" fill="#96b4eb"/></g><g><g fill="#3c122c"><path d="m313.399 297.706c9.438-9.85 20.185-27.824 17.781-57.512-3.332-41.154-25.18-57.842-37.659-64.079.884-11.21.104-30.539-13.417-41.823-1.512-1.261-3.122-2.369-4.827-3.324.489-6.71-.154-12.778-.837-16.853-1.044-6.229-4.403-21.191-13.022-25.572-7.429-3.778-18.9.234-25.544 3.225-2.538-7.248-6.459-13.793-12.407-18.478-8.712-6.861-19.923-8.651-33.423-5.425-.893-2.151-1.945-4.233-3.169-6.214.903-24.121-6.562-39.85-14.951-53.146-2.624-5.77-9.331-8.867-14.767-8.471-5.447.405-9.719 4.108-10.794 9.184-4.121 14.28-5.349 27.599-3.686 39.715-4.337 8.116-5.422 17.684-3.252 28.064-3.704-3.945-7.469-6.981-10.267-9.003-5.079-3.669-17.884-11.883-27.042-8.967-9.16 2.922-14.839 17.037-16.855 22.97-2.505 7.367-6.054 21.77-1.69 35.452.459 1.439.97 2.827 1.521 4.175-1.028.524-2.076 1.007-3.144 1.44-5.307 2.148-8.668 7.038-8.773 12.761-.056 3.051.829 5.895 2.453 8.245-.713 1.178-1.396 2.357-2.019 3.532-7.187 13.551-12.787 30.973-14.966 38.206-20.139 15.737-29.587 39.544-24.745 62.934 2.422 11.699 7.651 22.338 15.36 31.488-2.701.275-5.435.987-8.167 2.173-8.765 3.804-14.422 10.589-16.359 19.619-3.953 18.426 8.858 40.606 22.164 55.219 8.752 9.611 20.705 16.07 34.176 18.627-.037 4.286.285 8.655 1.133 13.066 1.357 7.06 3.402 14.347 6.409 21.438-10.771 12.41-17.17 36.798-13.99 53.494 3.195 16.774 11.948 37.163 26.932 44.082 3.34 1.543 6.822 2.311 10.311 2.31 4.292 0 8.595-1.161 12.656-3.472 18.747-10.669 12.858-29.12 10.029-37.986-.564-1.765-1.328-4.16-1.434-5.11.282-3.664 1.036-6.744 2.413-9.759 10.617 3.567 23.204 5.622 38.122 5.622 4.092 0 8.368-.155 12.817-.475 5.956-.429 11.712-1.15 17.249-2.144 6.837 13.776 13.603 26.624 20.522 36.309 8.915 12.48 17.922 18.757 26.867 18.757 2.56 0 5.114-.513 7.66-1.543 6.161-2.491 10.682-7.106 13.076-13.347 5.004-13.046.682-33.192-14.004-64.758 12.468-11.353 20.338-25.787 23.193-42.485 8.689-3.744 14.34-10.443 16.342-19.39.215-.962.374-1.937.5-2.918 7.138-6.953 13.776-16.392 15.444-28.316 2.092-14.967-3.147-26.367-8.744-33.919 2.824-2.005 5.848-4.512 8.824-7.618zm-102.36-208.655c3.585 2.818 5.853 7.899 7.204 13.923-2.847 2.491-5.624 5.378-8.028 8.703-3.981-1.196-8.058-2.086-12.191-2.664l-1.092-.153c-1.252-4.509-3.122-8.714-5.623-12.59.784-1.169 1.339-2.519 1.575-4.001.243-1.521.399-3.043.488-4.561 6.58-1.77 13.251-2.128 17.667 1.343zm-29.449 14.375c3.166 5.136 4.863 10.999 5.133 17.718l-9.66-4.377c-1.057-7.515-4.181-14.4-9.05-20.057l13.008 6.474c.187.092.378.17.569.242zm-95.183 34.491c-1.057-.473-1.199-1.376-1.19-1.872.009-.494.184-1.387 1.251-1.819 11.547-4.676 21.357-13.561 27.622-25.017 1.304-2.385 2.97-4.575 4.951-6.507 5.234-5.105 12.14-7.706 19.067-7.706 5.839 0 11.695 1.848 16.577 5.604 6.13 4.715 9.898 11.524 10.611 19.172.713 7.656-1.714 15.028-6.834 20.757-8.584 9.605-21.53 13.992-34.628 11.733-5.68-.979-18.971-6.074-37.427-14.345zm90.305-8.089 6.648 3.013c-1.909 1.04-4.691 2.061-8.233 2.751.672-1.878 1.202-3.804 1.585-5.764zm-14.49-96.806c2.444 6.008 4.042 12.47 4.515 20.005-.23.199-.456.405-.672.628-.203.21-.389.43-.571.653l-1.619-.812c-.036-.615-.123-1.235-.278-1.855-1.423-5.699-1.881-11.922-1.375-18.619zm-3.665 31.278 8.381 4.204c4.283 4.518 6.614 10.913 6.419 17.413l-12.401-6.171c-.095-.511-.219-1.023-.398-1.53-1.392-3.933-2.598-9.026-2.001-13.916zm-50.031 14.82c3.126 1.229 7.847 4.014 12.299 7.808-3.687 1.787-7.138 4.174-10.193 7.153-2.838 2.769-5.229 5.914-7.108 9.35-.563 1.03-1.167 2.03-1.799 3.005-1.018-10.31 3.524-22.3 6.801-27.316zm-9.273 229.211c-.199.083-.399.161-.595.258-1.459.722-2.527 1.622-3.657 2.573-4.211 3.546-5.619 3.915-8.511 1.845-.778-1.049-2.28-3.836-3.399-5.913-.787-1.46-1.624-3.01-2.519-4.595 6.246 2.462 12.772 4.361 18.746 5.681-.022.05-.042.102-.065.151zm-50.6 16.549c-3.613-7.263-5.295-13.994-4.296-18.648.558-2.602 1.972-4.223 4.726-5.419 4.267-1.853 7.795.009 16.186 15.523zm13.083 18.846c-2.504-2.75-4.789-5.618-6.844-8.514l16.796-8.636c.713.8 1.466 1.519 2.289 2.141 5.723 4.323 11.143 5.634 15.67 5.61-1.196 3.791-2.335 7.558-3.419 11.221l-.383 1.343c-.795 2.859-1.569 5.846-2.26 8.931-8.17-1.775-16.024-5.7-21.849-12.096zm52.861 145.615c-2.037 1.16-3.279 1.007-4.626.385-2.829-1.306-6.214-5.119-9.222-10.791l13.844-6.721c.268.888.55 1.781.839 2.687 3.479 10.902 2.646 12.459-.835 14.44zm-1.212-29.926-17.165 8.333c-.725-2.402-1.366-4.945-1.879-7.637-1.621-8.512.99-21.65 5.542-30.613 4.709 5.901 10.478 11.286 17.528 15.819-2.066 4.449-3.388 9.059-4.026 14.098zm139.719 30.506c-.404 1.054-.857 1.522-1.861 1.929-.056.023-.087.03-.089.032-.106-.007-3.257-.367-9.836-9.284l11.595-5.558c1.422 7.032.972 10.846.191 12.881zm-11.075-70.253c.061.077.118.155.179.232-.431.142-.86.303-1.279.508-4.981 2.43-7.049 8.439-4.618 13.421 6.461 13.241 10.667 23.489 13.336 31.424l-14.965 7.174c-5.498-9.276-11.156-20.633-16.556-31.667-2.437-4.979-8.448-7.037-13.425-4.603-.103.05-.198.112-.299.166-7.364 1.574-14.147 2.359-19.373 2.736-48.287 3.483-75.473-14.156-83.112-53.91-2.111-10.986.322-22.294 3.248-32.811l.338-1.185c3.372-11.4 9.65-32.619 17.758-45.395 1.912-3.012 2.081-6.811.445-9.981-1.636-3.169-4.832-5.232-8.394-5.419-9.639-.504-28.624-5.162-39.202-12.599-12.198-8.577-19.788-19.708-22.556-33.085-3.426-16.55 4.077-33.653 19.581-44.636 1.882-1.333 3.247-3.275 3.867-5.496.062-.221 6.265-22.308 14.34-37.534.401-.757.985-1.795 1.742-3.027 13.652 5.804 23.294 9.218 28.705 10.151 2.962.511 5.917.76 8.842.76 14.078 0 27.399-5.804 36.812-16.337.031-.034.059-.071.089-.105.957-.018 1.908-.051 2.84-.114 12.328-.838 26.955-5.842 28.047-17.17.011-.079.017-.159.025-.239.005-.061.015-.119.019-.18 0-.005 0-.01 0-.016.002-.031 0-.058.002-.089.004-.094.007-.187.007-.28.011-.272.025-.547.019-.804.004-.037.005-.074.009-.11 4.219.82 8.34 2.066 12.283 3.742 5.025 2.135 10.836-.138 13.077-5.118.245-.545.501-1.092.778-1.638 5.375-10.573 20.353-17.655 27.234-19.109 2.88 6.416 5.984 22.692.61 33.263-2.142 4.214-4.734 7.508-7.703 9.79-3.784 2.908-4.997 8.077-2.902 12.365 5.352 10.949 7.293 23.141 5.616 35.267l-6.449 40.651c-.01.062-.019.122-.028.183-2.507 17.938-6.194 30.64-12.327 42.473-1.955 3.771-1.323 8.366 1.577 11.469.641.686 1.26 1.407 1.883 2.123-14.777-.859-28.878 3.07-38.991 10.944-4.373 3.406-5.158 9.71-1.753 14.084 3.405 4.373 9.711 5.157 14.084 1.753 13.135-10.225 40.707-9.492 55.247 6.759 2.48 2.771 4.74 5.66 6.769 8.573l-16.87 8.489c-.706-.806-1.452-1.532-2.27-2.161-8.68-6.673-16.727-6.344-21.949-4.897-5.717 1.588-9.818 4.98-12.022 6.803-.186.155-.354.296-.506.418-4.352 2.662-6.055 8.243-3.785 12.931 2.415 4.987 8.419 7.071 13.406 4.657 1.466-.709 2.541-1.599 3.679-2.541 4.243-3.51 5.652-3.864 8.527-1.771.768 1.055 2.247 3.856 3.348 5.943 3.194 6.051 7.169 13.582 12.974 19.23 2.663 2.591 5.522 4.559 8.512 5.903-2.982 12.989-9.858 22.583-18.52 29.642zm35.758-53.573c-.581 2.597-2.008 4.204-4.773 5.376-4.285 1.816-7.793-.076-16.05-15.663l16.69-8.398c3.549 7.294 5.172 14.04 4.133 18.685zm7.316-72.867c-3.692 1.145-6.434 4.284-6.993 8.109s1.092 7.606 4.302 9.76c.542.378 13.254 9.448 11.029 25.366-.186 1.331-.496 2.622-.908 3.87-4.28-9.322-10.492-18.173-16.84-25.266-3.84-4.292-8.313-7.973-13.272-10.976-3.826-7.286-8.128-13.879-12.908-19.751 5.459-12.157 8.944-25.329 11.367-42.622l6.45-40.654c.01-.062.019-.122.027-.183 1.907-13.639.36-27.351-4.471-40.076 2.352-2.643 4.458-5.663 6.33-9.001 5.898 7.875 4.568 23.413 3.511 28.707-1.104 5.385 2.101 10.601 7.464 11.769 1.806.496 27.646 8.31 30.984 49.535 3.334 41.188-24.955 51.042-26.072 51.413z"/><ellipse cx="105.853" cy="199.902" rx="8.448" ry="8.447" transform="matrix(.086 -.996 .996 .086 -102.434 288.117)"/><path d="m198.904 214.169c-.707 4.611-5.019 7.777-9.63 7.07s-7.777-5.019-7.07-9.63 5.019-7.777 9.63-7.07c4.612.706 7.777 5.018 7.07 9.63z"/><path d="m141.635 254.25c-.856 0-1.717-.065-2.579-.197-9.681-1.485-16.268-11.1-14.684-21.433 1.584-10.332 10.752-17.537 20.43-16.05 9.682 1.485 16.269 11.1 14.685 21.433-.751 4.898-3.217 9.261-6.943 12.286-3.198 2.596-6.997 3.961-10.909 3.961zm.62-25.831c-2.846 0-5.446 2.548-5.979 6.026-.578 3.77 1.488 7.227 4.606 7.705 1.397.213 2.846-.217 4.074-1.211 1.398-1.135 2.332-2.826 2.628-4.76.578-3.77-1.488-7.227-4.606-7.705-.242-.038-.483-.055-.723-.055z"/><path d="m443.58 450.539c-15.561 0-29.741-8.057-37.754-20.999l-72.974-.01c-5.543-.001-10.035-4.495-10.034-10.036.001-5.542 4.494-10.035 10.035-10.035h.001l79.049.011c4.031.001 7.671 2.414 9.241 6.126 3.821 9.034 12.628 14.872 22.435 14.872 13.424 0 24.345-10.921 24.345-24.345 0-11.37-8.051-21.372-19.145-23.781-5.083-1.104-8.481-5.911-7.825-11.071.092-.724.137-1.392.137-2.042 0-8.801-7.159-15.96-15.959-15.96s-15.959 7.159-15.959 15.96c0 2.66.629 5.182 1.87 7.5l.427.722c1.836 3.102 1.867 6.95.081 10.082-1.786 3.131-5.113 5.065-8.718 5.065h-33.148c-5.543 0-10.035-4.493-10.035-10.035s4.493-10.036 10.035-10.036h19.569c-.101-1.095-.152-2.195-.152-3.298 0-19.867 16.163-36.031 36.03-36.031 18.523 0 33.827 14.05 35.812 32.054 16.064 6.868 27.051 22.939 27.051 40.872.001 24.491-19.924 44.415-44.415 44.415z"/></g><path d="m122.785 126.794c-1.942 0-3.904-.562-5.632-1.737-4.584-3.116-5.774-9.357-2.659-13.941 8.826-12.985 20.958-14.954 22.311-15.137 0 0 10.074-1.418 11.68 8.302s-8.915 11.583-8.744 11.55c-.197.038-4.864 1-8.647 6.566-1.941 2.858-5.097 4.397-8.309 4.397z" fill="#fff"/></g></g></svg>