<svg id="Capa_1" enable-background="new 0 0 513.7 513.7" height="512" viewBox="0 0 513.7 513.7" width="512" xmlns="http://www.w3.org/2000/svg"><g><g><g><path d="m330.088 501.932h-146.41c-33.448 0-60.99-22.644-62.544-51.423l-9.121-112.404h290.502l-9.893 112.612c-1.68 28.693-29.179 51.215-62.534 51.215z" fill="#c1e5ef"/><path d="m343.707 338.105-7.89 89.816c-1.339 22.884-23.271 40.847-49.874 40.847h-116.773c-26.67 0-48.631-18.051-49.882-40.994-1.067 40.112 16.487 72.903 64.391 74.158-.002 0 146.409 0 146.409 0 33.355 0 60.854-22.522 62.533-51.214 0 0 9.893-112.612 9.893-112.612h-58.807z" fill="#a6aaed"/><path d="m389.607 196.483c-21.612 56.438-94.318 26.592-70.039-28.754 11.031-26.871 49.298-44.221 57.665-40.786 8.368 3.435 23.406 42.668 12.374 69.54z" fill="#e8c2d8"/><path d="m127.457 194.817c21.387 55.849 93.335 26.314 69.308-28.454-10.916-26.59-48.783-43.76-57.064-40.361-8.28 3.399-23.161 42.223-12.244 68.815z" fill="#e8c2d8"/><path d="m402.846 347.599h-291.164c-77.93-8.212 30.808-185.484 145.582-173.811 114.799-11.659 223.5 165.6 145.582 173.811z" fill="#c49a8b"/><path d="m429.164 321.757c-12.677-89.006-95.57-156.013-187.443-147.284 65.728 6.408 118.496 57.048 128.143 121.777 1.689 11.335-8.514 21.387-21.782 21.387h-240.976c-8.281 0-15.368-3.916-19.115-9.616-6.757 18.653-.795 39.083 23.691 39.577-.002 0 291.163 0 291.163 0 16.032.001 28.36-12.145 26.319-25.841z" fill="#b2748a"/><path d="m292.137 184.49c3.059-17.915 1.603-34.781-8.389-49.411 3.899-19.544 1.999-35.82-8.398-47.476-.013-1.56-9.523-94.995-20.371-74.516-6.139 21.271-10.56 41.307-10.156 57.881-7.978 11.695-10.849 24.599-6.869 39.155-7.011 12.056-10.101 25.486-7.18 40.927-9.248 12.264-7.216 25.728-6.784 31.991 2.734 21.297 65.333 21.555 68.147 1.449z" fill="#d789b9"/><path d="m292.137 184.49c2.082-12.805 2.206-25.248-1.918-36.524 6.827 32.312-62.23 30.271-61.39 5.954-6.99 11.438-5.237 23.344-4.838 29.122 2.733 21.296 65.332 21.554 68.146 1.448z" fill="#c668b9"/><path d="m203.017 313.806c-5.099 5.099-13.367 5.099-18.466 0l-23.921-23.921c-5.099-5.099-5.099-13.367 0-18.466 5.099-5.099 13.367-5.099 18.466 0l23.921 23.921c5.099 5.099 5.099 13.366 0 18.466z" fill="#9781dd"/><path d="m236.402 286.138c-3.92-6.053-2.191-14.138 3.861-18.058l28.394-18.39c6.053-3.92 14.138-2.191 18.058 3.861 3.92 6.053 2.191 14.138-3.861 18.058l-28.395 18.39c-6.052 3.921-14.137 2.192-18.057-3.861z" fill="#f6e06e"/><path d="m336.115 308.762c-6.803-2.693-9.635-11.281-6.851-17.156.409-.928 13.285-31.012 13.444-31.349 2.931-6.444 10.491-9.393 17.029-6.59 6.803 2.693 9.635 11.281 6.851 17.156-.409.928-13.285 31.012-13.444 31.349-2.931 6.444-10.49 9.393-17.029 6.59z" fill="#a1e8c3"/></g><g><g fill="#3c122c"><path d="m439.122 320.273c-5.732-38.462-23.66-74.102-50.926-101.764 4.219-5.122 7.858-11.218 10.725-18.202 9.872-25.885 3.593-68.723-17.863-82.679-27.334-5.2-64.962 24.459-73.278 53.191-1.377-.393-2.757-.782-4.143-1.143.171-13.498-2.937-25.76-9.296-36.623 3.35-20.452.263-37.03-9.195-49.379-1.731-21.46-6.043-45.333-13.163-72.851-1.357-6.307-6.922-10.828-13.419-10.823-6.435.004-11.946 4.446-13.363 10.657-7.085 24.615-10.361 42.521-10.466 57.371-7.855 12.767-10.343 26.414-7.45 40.657-6.499 12.678-8.867 26.1-7.063 40.006-4.292 7.029-5.974 14.131-6.536 20.269-1.643.4-3.278.829-4.908 1.274-7.79-28.799-45.574-58.778-72.901-53.548-25.967 17.113-30.035 75.14-7.392 99.667-28.33 26.737-88.508 124.037-25.056 140.481 0 0 7.657 94.359 7.657 94.359 5.038 90.959 161.601 53.605 219.002 60.81 89.436-.792 72.47-96.302 80.884-155.147 16.989-3.015 31.076-19.255 28.15-36.583zm-110.24-148.72c8.39-19.006 30.447-31.667 44.353-34.871 7.651 12.091 14.436 36.52 7.058 55.977-1.953 4.757-4.319 8.867-6.996 12.294-14.132-11.503-29.809-20.742-46.469-27.544.561-1.922 1.241-3.875 2.054-5.856zm-74.012-100.099c-.205-9.569 1.232-20.266 3.468-30.776 2.757 13.094 4.738 25.23 5.979 36.596l-9.451-5.646c.004-.057.002-.116.004-.174zm-5.186 11.152c19.191 10.394 27.901 16.438 25.43 42.53l-27.161-16.108c-2.452-9.298-2.475-18.033 1.731-26.422zm-5.815 38.048 30.508 18.093c6.426 10.095 10.084 20.727 9.005 34.093l-42.647-23.241c-1.965-10.131-.982-19.704 3.134-28.945zm-7.452 40.35 43.814 23.877c-4.91 5.35-41.745 6.466-46.23-2.998-.445-6.004-1.372-13.065 2.416-20.879zm-100.847-4.408c2.299-10.392 6.017-17.942 8.135-20.842 16.041 2.647 43.444 23.463 45.958 40.859-16.462 6.503-31.986 15.383-46.054 26.451-9.992-13.127-12.08-27.647-8.039-46.468zm48.108 335.268c-28.276-.008-51.378-18.52-52.509-42.169 0 0-7.468-92.028-7.468-92.028h78.504l5.878 134.196h-24.405zm113.402 0h-76.903l-5.878-134.196h88.659zm85.512-42.027c-2.362 34.774-40.361 45.264-73.419 42.027l5.878-134.196h75.638zm33.924-118.048c-3.099 3.596-8.21 5.742-13.671 5.742h-291.164c-5.461 0-10.572-2.146-13.671-5.742-5.635-66.123 57.297-126.188 117.314-142.385 7.006 25.604 78.776 26.746 85.774.52 59.071 16.728 121.137 76.464 115.418 141.865z"/><path d="m193.783 323.662c-11.785 1.758-29.473-23.323-37.427-29.506-3.606-3.608-5.593-8.404-5.593-13.505-.588-16.484 21.361-25.585 32.604-13.504 10.795 12.895 42.499 31.645 23.921 50.93-3.723 3.723-8.614 5.585-13.505 5.585zm9.234-9.856h.01zm-33.154-40.168c-5.993-.246-9.431 7.849-4.961 11.975 0 0 23.921 23.921 23.921 23.921 6.339 6.515 16.454-3.571 9.923-9.924-3.187-2.107-24.586-27.434-28.883-25.972z"/><path d="m247.392 298.133c-6.266.001-12.408-3.072-16.061-8.711h.001c-14.262-22.497 20.935-34.63 34.042-44.803 20.976-13.484 41.684 18.367 20.763 32.061-7.14 3.5-30.339 22.689-38.745 21.453zm28.35-44.503c-1.625-1.533-30.276 18.739-32.195 19.52-3.208 1.984-4.191 6.581-2.076 9.704h.001c2.104 3.248 6.456 4.178 9.703 2.075l28.395-18.39c5.837-3.531 2.963-13.127-3.828-12.909z"/><path d="m341.234 315.859c-2.507 0-5.053-.497-7.5-1.545-9.518-3.851-14.269-15.727-10.027-25.08 5.264-8.88 11.994-38.282 23.793-41.299 15.088-6.663 31.689 10.334 24.644 25.26-6.657 11.739-12.41 44.347-30.91 42.664zm-2.738-12.649c3.437 1.557 7.798-.186 9.213-3.684 0 0 13.331-31.092 13.331-31.092 1.558-3.435-.186-7.8-3.684-9.214-3.436-1.557-7.799.186-9.214 3.684 0 0-13.331 31.092-13.331 31.092-1.524 3.556.129 7.689 3.685 9.214z"/></g><path d="m145.003 259.609c-27.749-6.826 9.657-35.309 19.386-41.139 11.269-6.592 21.388 11.25 9.919 17.524-6.152 3.482-16.246 12.777-21.177 19.501-1.973 2.689-5.029 4.114-8.128 4.114z" fill="#fff"/><path d="m191.707 224.046c-15.084-1.442-12.025-20.597 2.244-21.113 17.826-.962 15.491 21.283-2.244 21.113z" fill="#fff"/></g></g><path d="m61.132 43.616c1.084 1.584 8.306 26.912 10.684 26.621 32.237 14.105 32.349 12.967 0 27.102-2.32-.335-9.684 25.129-10.685 26.62-1.222 3.439-5.546 3.439-6.769 0l-8.655-24.336c-1.401-5.822-35.234-10.582-23.652-19.645 1.619-1.284 24.01-9.433 23.652-12.026 0 0 8.655-24.337 8.655-24.337 1.223-3.437 5.547-3.437 6.77.001z" fill="#c1e5ef"/><path d="m468.201 106.809c.805 1.175 6.161 19.963 7.926 19.747 23.864 10.394 23.948 9.688 0 20.104-1.722-.248-7.183 18.64-7.926 19.747-.907 2.551-4.114 2.551-5.021 0 0 0-6.42-18.052-6.42-18.052-1.076-4.372-26.077-7.764-17.545-14.573 1.202-.953 17.81-6.997 17.545-8.921 0 0 6.42-18.052 6.42-18.052.906-2.55 4.114-2.55 5.021 0z" fill="#c1e5ef"/><g fill="#96b4eb"><path d="m175.242 67.05c.154 10.577-16.46 10.577-16.304-.001-.155-10.577 16.46-10.577 16.304.001z"/><path d="m390.76 52.927c-.084 18.692-28.505 18.69-28.586-.001.084-18.691 28.505-18.689 28.586.001z"/></g></g></svg>