<svg id="Capa_1" enable-background="new 0 0 512 512" height="512" viewBox="0 0 512 512" width="512" xmlns="http://www.w3.org/2000/svg"><g><g><path d="m413.077 501.563s36.069-22.953 36.069-55.743-28.691-46.726-28.691-46.726 50.503-23.755 34.74-94.354-66.457-75.384-66.457-75.384 6.197-97.715-85.179-45.273c0 0 5.827-131.284-81.459-76.73l8.09 232.272z" fill="#ccf3e2"/><path d="m420.455 399.094s50.503-23.755 34.74-94.354c-2.835-12.697-15.646-29.402-20.243-38.196 20.003 101.19-48.732 148.444-124.036 94.319-4.041-2.905-14.679 33.584-19.531 32.948l121.692 107.752s36.069-22.953 36.069-55.743-28.691-46.726-28.691-46.726z" fill="#b1b6e1"/><path d="m413.107 501.828c-11.974-43.585-33.516-89.022-67.692-116.682 6.423-18.198 9.895-37.828 9.895-67.556l1.091-59.148c0-21.167-6.428-40.832-17.438-57.151 5.052-5.141 9.325-12.074 12.341-20.838 9.185-26.692-7.619-63.905-15.93-66.764-8.312-2.86-44.456 16.133-53.641 42.825-.363 1.055-.684 2.096-.987 3.131-8.5-2.288-17.436-3.516-26.659-3.516h-63.141c-4.715 0-9.245.359-13.598 1.02-.646-5.802-2.429-12-5.527-18.451-12.092-25.181-49.798-39.7-57.639-35.935-7.841 3.766-20.086 42.27-7.994 67.451 4.001 8.331 9.042 14.689 14.65 19.168-11.12 12.607-18.489 26.408-22.26 36.78-9.102 25.032-13.654 59.166-13.654 59.166-24.658 23.212-32.502 54.974-22.636 82.6 8.141 22.794 24.208 39.507 45.589 50.473 18.793 9.639 49.289 13.094 65.99 11.642-9.281 20.417-14.182 49.808-17.475 71.787h256.715z" fill="#fff"/><path d="m345.415 385.145c6.423-18.198 9.895-37.828 9.895-67.556l1.091-59.148c0-21.167-6.428-40.832-17.438-57.151 5.052-5.141 9.325-12.074 12.341-20.838 9.185-26.692-7.619-63.905-15.93-66.764-3.922-1.35-5.042-.501-15.602 6.395 6.543 12.277 11.035 28.079 9.38 47.942-1.042 12.507-17.216 25.739-21.446 30.631 9.219 15.526 16.276 67.756 16.276 87.896l-.276 15.017c0 20.613-8.841 48.633-13.629 67.841-2.793 11.201-4.352 21.267 4.019 29.215 11.256 10.687 19.974 20.971 27.471 39.893 8.346 21.063-7.251 43.907-29.908 43.907h-152.135c-1.201 6.797-2.23 13.383-3.132 19.404h256.715c-11.974-43.587-33.516-89.024-67.692-116.684z" fill="#e1bdfc"/><path d="m250.41 173.146c-.033-.455-.088-.912-.187-1.373-.639-17.749-6.032-33.117-18.367-45.007-.307-19.862-5.578-35.321-18.157-44.492-6.352-21.958-16.203-45.384-28.501-69.838-1.538-3.769-7.162-2.553-7.004 1.516-1.512 22.013-1.609 42.465 2.267 58.528-5.316 13.071-5.402 26.246 1.534 39.593-4.298 13.22-4.487 26.955 1.603 41.385-6.434 13.892-1.625 26.584.112 32.596 7.137 20.175 68.183 7.274 66.7-12.908z" fill="#f6e06e"/><path d="m250.41 173.146c-.033-.455-.088-.912-.187-1.373-.454-12.605-3.322-24-9.355-33.811.594 3.251.955 6.615 1.084 10.092.088.394.136.784.165 1.172 1.305 17.22-52.432 28.227-58.715 11.012-.295-.99-.691-2.195-1.097-3.576-4.407 12.613-.198 23.845 1.405 29.391 7.137 20.176 68.183 7.275 66.7-12.907z" fill="#dda86a"/><path d="m96.342 192.215c14.187-8.192 24.71-21.267 30.504-36.591 1.646-4.353 3.966-8.552 6.99-12.456 14.443-18.65 40.79-23.937 61.298-12.283 24.46 13.9 31.573 45.33 16.198 68.272-13.237 19.752-34.566 27.99-54.299 27.362-11.496-.366-38.005-7.438-58.133-13.279-9.744-2.828-11.344-15.952-2.558-21.025z" fill="#ccf3e2"/><path d="m195.134 130.885c-20.508-11.653-46.855-6.366-61.298 12.283-3.024 3.905-5.344 8.104-6.99 12.457-5.794 15.323-16.317 28.399-30.504 36.591-8.786 5.073-7.186 18.197 2.558 21.025 20.128 5.841 46.637 12.913 58.133 13.279 19.733.628 41.062-7.61 54.299-27.362 15.374-22.943 8.262-54.373-16.198-68.273zm2.204 45.388c-6.6 15.804-20.741 24.509-35.05 26.701-8.336 1.277-28.484-.203-43.852-1.662-7.439-.706-10.542-9.817-4.967-14.597 9.003-7.717 14.64-18.415 16.537-30.077.539-3.313 1.586-6.607 3.184-9.785 7.633-15.182 25.827-22.461 42.333-16.923 19.687 6.606 29.481 27.987 21.815 46.343z" fill="#b1b6e1"/><path d="m467.524 118.105 8.354 23.49c.358 1.006 1.066 1.803 1.959 2.205l20.87 9.403c2.948 1.328 2.948 6.026 0 7.355l-20.87 9.403c-.893.403-1.602 1.2-1.959 2.205l-8.354 23.49c-1.18 3.319-5.354 3.319-6.534 0l-8.354-23.49c-.358-1.006-1.066-1.803-1.959-2.205l-20.87-9.403c-2.948-1.328-2.948-6.026 0-7.355l20.87-9.403c.894-.403 1.602-1.2 1.959-2.205l8.354-23.49c1.18-3.319 5.354-3.319 6.534 0z" fill="#fbf2aa"/><path d="m70.305 18.642 6.197 17.425c.265.746.791 1.337 1.453 1.636l15.481 6.975c2.187.985 2.187 4.47 0 5.456l-15.481 6.975c-.663.299-1.188.89-1.453 1.636l-6.197 17.425c-.875 2.462-3.972 2.462-4.847 0l-6.197-17.425c-.265-.746-.791-1.337-1.453-1.636l-15.481-6.975c-2.187-.985-2.187-4.47 0-5.456l15.481-6.975c.663-.299 1.188-.89 1.453-1.636l6.197-17.425c.876-2.462 3.972-2.462 4.847 0z" fill="#fbf2aa"/><g fill="#f7e16e"><circle cx="23.475" cy="124.702" r="12.395"/><path d="m399.732 92.442c0 5.317-4.31 9.627-9.627 9.627s-9.627-4.31-9.627-9.627 4.31-9.626 9.627-9.626 9.627 4.31 9.627 9.626z"/></g></g><g><g fill="#3c122c"><path d="m438.169 399.246c4.37-3.693 9.267-8.606 13.813-14.903 10.943-15.161 22.104-41.663 13.139-81.819-8.865-39.703-28.452-60.167-43.322-70.343-8.797-6.02-16.974-9.269-22.892-11.008-.589-14.571-4.514-43.215-25.46-56.246-2.929-1.822-6.047-3.25-9.343-4.301-.336-10.335-2.627-19.585-4.504-25.547-1.972-6.264-9.309-27.014-20.918-31.007-11.617-3.999-30.16 7.846-35.569 11.57-.115.079-.241.17-.359.252-5.381-12.166-12.645-20.979-21.753-26.295-13.338-7.783-29.485-7.588-48.148.531-2.351-5.038-5.662-9.748-10.311-13.794-6.198-20.548-15.417-42.905-28.134-68.22-2.675-5.916-9.113-9.18-15.498-7.8-6.329 1.369-10.811 6.906-10.889 13.317-1.73 25.458-1.161 43.595 1.852 58.092-5.446 15.46-4.409 30.596 3.097 45.039.309.594.683 1.127 1.085 1.632-.019.097-.034.194-.053.291-1.332-.056-2.664-.068-3.994-.026-8.16-8.619-17.651-14.5-23.843-17.776-5.754-3.046-25.386-12.572-36.385-7.291-10.996 5.281-15.837 26.559-17.059 32.954-1.996 10.451-4.092 30.591 4.299 48.067 1.196 2.491 2.499 4.842 3.882 7.079-2.409 1.938-4.946 3.7-7.611 5.238v-.001c-6.216 3.589-9.541 10.243-8.677 17.366.603 4.983 3.146 9.249 6.976 12.053-.94 2.124-1.808 4.241-2.569 6.334-7.735 21.27-12.228 48.201-13.67 57.772-25.062 25.275-33.749 59.786-22.64 90.889 8.758 24.523 25.757 43.398 50.524 56.102 16.153 8.285 38.558 12.073 55.823 12.889-5.979 18.407-9.762 40.215-12.723 59.984-.832 5.555 2.996 10.732 8.551 11.564 5.551.835 10.732-2.996 11.564-8.551 3.579-23.897 8.36-50.793 16.675-69.085 1.496-3.291 1.132-7.129-.954-10.08-2.087-2.951-5.58-4.571-9.185-4.261-14.293 1.242-43.264-1.735-60.468-10.559-20.014-10.265-33.691-25.354-40.653-44.845-8.724-24.428-1.049-51.93 20.03-71.774 1.701-1.602 2.8-3.743 3.11-6.059.044-.331 4.524-33.365 13.131-57.036.566-1.554 1.477-3.854 2.773-6.658 22.352 6.141 37.775 9.381 45.931 9.641.777.025 1.552.037 2.325.037 23.262 0 44.527-11.137 57.237-30.101.241-.359.461-.73.693-1.095 1.697-.247 3.378-.526 5.007-.868 16.392-3.437 35.109-12.677 34.409-27.447-.212-2.27-.335-4.577-.532-6.817 7.492.152 14.926 1.197 22.124 3.135 5.337 1.437 10.851-1.655 12.405-6.964.303-1.035.571-1.887.843-2.679 6.707-19.491 31.852-34.369 40.566-36.084 5.814 6.713 16.479 33.914 9.772 53.404-2.412 7.011-5.769 12.737-9.978 17.019-3.389 3.449-3.881 8.808-1.177 12.816 10.254 15.198 15.682 32.959 15.7 51.371l-1.09 59.052c-.001.062-.002.125-.002.188 0 26.48-2.786 45.672-9.315 64.172-1.433 4.06-.155 8.581 3.192 11.29 27.913 22.591 50.742 62.179 64.284 111.471 1.878 7.57 12.059 9.967 17.141 4.337 8.109-5.667 38.874-29.383 38.874-63.039-.002-22.792-11.448-37.877-21.149-46.569zm-237.585-324.869-10.072-3.405c-.052-.294-.105-.587-.166-.878-2.111-8.751-2.861-19.145-2.944-29.322 5.286 11.881 9.655 23.027 13.182 33.605zm-12.833 8.543 18.471 6.246c.457.482.947.933 1.484 1.325 6.815 4.969 9.893 13.024 10.218 27.169l-26.293-8.798c-.167-.501-.363-.997-.614-1.48-4.199-8.08-5.271-15.991-3.266-24.462zm-68.961 29.434c5.347.449 17.152 4.975 27.565 12.55-6.601 3.475-12.555 8.344-17.343 14.527-3.328 4.296-5.977 9.018-7.874 14.034-1.601 4.235-3.601 8.249-5.935 11.999-8.526-18.279-1.305-45.829 3.587-53.11zm87.473 83.406c-10.773 16.076-29.144 25.291-49.035 24.66-8.466-.269-28.576-4.901-56.627-13.04-3.192-.927-3.77-3.717-3.871-4.551-.1-.831-.206-3.672 2.665-5.329v-.001c14.967-8.642 26.743-22.747 33.16-39.717 1.467-3.881 3.522-7.541 6.107-10.878 8.095-10.453 20.476-16.09 33.038-16.09 6.987 0 14.031 1.745 20.421 5.376 10.26 5.83 17.394 15.327 20.089 26.74 2.657 11.26.49 23.226-5.947 32.83zm17.053-8.004c1.484-5.054 2.216-10.31 2.186-15.588l17.384 5.123c-2.876 3.729-9.901 7.882-19.57 10.465zm.457-28.821c-3.69-14.218-12.742-26.035-25.624-33.355-3.559-2.022-7.276-3.589-11.074-4.721.233-.137.47-.27.69-.421 0 0 42.737 14.223 43.195 14.265 6.947 8.066 11.099 17.984 12.589 30.059zm50.538-11.156c-6.656-1.211-13.427-1.822-20.225-1.822h-2.61c-3.043-8.134-7.482-15.32-13.32-21.488.062-.424.108-.853.116-1.293.079-4.133.018-8.523-.39-12.977 13.758-6.69 24.789-7.74 32.852-3.042 7.268 4.235 12.302 12.777 15.758 22.819-4.597 5.002-8.991 10.964-12.181 17.803zm144.168 336.488c-10.867-33.744-29.612-74.22-61.261-102.434 5.756-18.709 8.256-38.366 8.262-64.149l1.09-59.055c.001-.063.002-.125.002-.188 0-19.911-5.187-39.21-15.065-56.269 3.866-5.292 7.021-11.456 9.414-18.411.25-.727.478-1.457.695-2.187.356.192.709.389 1.055.603 14.792 9.166 16.505 36.713 15.918 46.536-.349 5.484 3.642 10.244 9.112 10.76 1.78.198 43.74 5.547 57.569 67.483 13.691 61.319-27.444 82.108-29.144 82.935-3.545 1.667-5.844 5.209-5.868 9.126-.025 3.917 2.175 7.487 5.699 9.198.94.471 23.02 11.829 23.02 37.605-.001 16.205-11.433 30.028-20.498 38.447z"/><path d="m152.671 291.084c0 6.931-5.618 12.549-12.549 12.549s-12.549-5.618-12.549-12.549 5.618-12.549 12.549-12.549c6.93 0 12.549 5.618 12.549 12.549z"/><circle cx="267.419" cy="291.084" r="12.549"/><path d="m199.239 352.702c-12.088 0-21.922-10.454-21.922-23.303 0-3.37 2.732-6.102 6.102-6.102s6.102 2.732 6.102 6.102c0 6.12 4.36 11.099 9.718 11.099s9.717-4.979 9.717-11.099c0-3.37 2.732-6.102 6.102-6.102s6.102 2.732 6.102 6.102c0 12.85-9.833 23.303-21.921 23.303z"/></g><path d="m148.774 177.843c-1.511 0-3.044-.338-4.49-1.051-5.037-2.484-7.107-8.582-4.623-13.619 9.146-18.547 24.33-23.25 26.032-23.726 0 0 9.093-2.661 12.077 7.155 2.983 9.816-6.43 12.384-6.43 12.384-.337.108-8.297 2.761-13.436 13.183-1.772 3.591-5.379 5.674-9.13 5.674z" fill="#fff"/></g></g></svg>