<svg id="Capa_1" enable-background="new 0 0 512 512" height="512" viewBox="0 0 512 512" width="512" xmlns="http://www.w3.org/2000/svg"><g><g><path d="m419.637 501.741s36.639-17.191 41.074-48.53c4.435-31.338-20.356-48.432-20.356-48.432s50.168-16.059 45.06-85.606c-5.107-69.547-51.592-80.79-51.592-80.79s18.978-92.573-73.071-54.475c0 0 23.173-124.705-65.358-84.05l-23.893 223.052z" fill="#faf1a9"/><path d="m438.572 404.497s54.088-15.583 49.675-88.405c-.794-13.096-10.881-31.779-14.053-41.271 3.746 103.962-72.253 140.032-138.59 74.099-3.56-3.538-19.985 31.097-24.715 29.688l103.959 126.749s39.586-17.092 44.827-49.744c5.24-32.653-21.103-51.116-21.103-51.116z" fill="#dfb5a7"/><path d="m350.605 408.195c11.168-15.864 19.889-33.938 28.011-62.695l17.273-57.109c5.803-20.544 4.954-41.393-1.258-60.25 6.313-3.605 12.36-9.162 17.69-16.842 16.232-23.389 10.123-64.113 2.84-69.167s-47.57 3.472-63.802 26.86c-.641.924-1.239 1.847-1.816 2.768-7.623-4.551-15.959-8.192-24.91-10.72l-61.283-17.309c-4.577-1.293-9.071-2.186-13.477-2.738.964-5.808.932-12.312-.306-19.424-4.833-27.755-37.45-52.183-46.092-50.678-8.643 1.506-31.082 35.521-26.249 63.275 1.599 9.183 4.75 16.736 8.964 22.62-14.249 9.188-25.184 20.563-31.688 29.596-15.697 21.8-29.471 53.682-29.471 53.682-30.295 15.77-46.616 44.446-44.613 73.964 1.653 24.355 12.666 44.98 30.411 61.485 15.597 14.507 44.249 26.22 60.857 29.389l2.55 1.228c-.461 1.53-.911 3.086-1.356 4.654-61.224-22.927-111.266-43.03-120.559-15.028-9.343 28.152 40.12 45.102 101.794 68.182l15.984-42.713c-7.31 29.236-11.795 62.024-11.757 80.413h258.908c-15.125-40.73-38.99-72.573-66.645-93.443z" fill="#fff"/><path d="m96.423 387.64c-13.274-6.247-34.813-2.47-39.045 7.255-4.231 9.724 7.523 30.102 20.975 35.955 13.453 5.853 24.748-40.068 18.07-43.21z" fill="#f6e06e"/><path d="m311.213 187.608c.097-.45.175-.907.209-1.382 4.431-17.356 3.583-33.76-4.97-48.773 5.352-19.306 4.649-35.763-4.913-48.216.099-23.054-2.769-48.523-7.713-75.682-.416-4.085-6.204-4.507-7.209-.526-7.724 20.87-13.636 40.631-14.454 57.276-8.862 11.135-12.693 23.86-9.778 38.747-7.919 11.569-12.009 24.805-10.221 40.5-10.177 11.612-9.134 25.26-9.163 31.571 1.168 21.554 63.906 26.435 68.212 6.485z" fill="#ccf3e2"/><path d="m311.213 187.608c.097-.45.175-.907.209-1.382 3.147-12.326 3.612-24.168.565-35.376-.35 3.315-.957 6.672-1.822 10.073-.027.406-.092.797-.174 1.181-3.635 17.033-58.762 12.398-59.945-6.046-.004-1.042-.045-2.32-.045-3.772-7.852 10.951-6.974 23.016-7.001 28.838 1.169 21.553 63.907 26.434 68.213 6.484z" fill="#b1b6e1"/><path d="m156.712 162.236c16.058-3.891 29.959-13.55 39.924-26.729 2.83-3.743 6.27-7.147 10.306-10.065 19.28-13.937 46.277-11.559 62.806 5.551 19.714 20.407 17.656 52.842-3.746 70.667-18.427 15.347-41.407 17.251-60.322 11.031-11.019-3.624-34.658-18.008-52.473-29.384-8.624-5.507-6.439-18.662 3.505-21.071z" fill="#faf1a9"/><path d="m269.748 130.993c-16.529-17.109-43.526-19.488-62.806-5.551-4.037 2.918-7.476 6.321-10.306 10.065-9.965 13.178-23.866 22.838-39.924 26.729-9.944 2.41-12.129 15.564-3.505 21.071 17.815 11.377 41.453 25.76 52.472 29.384 18.915 6.221 41.896 4.317 60.323-11.031 21.402-17.825 23.461-50.26 3.746-70.667zm-10.777 44.545c-10.882 13.415-27.04 17.815-41.509 15.866-8.429-1.135-27.503-8.299-41.959-14.082-6.997-2.8-7.408-12.498-.654-15.537 10.906-4.906 19.403-13.654 24.556-24.398 1.463-3.052 3.414-5.942 5.864-8.563 11.704-12.519 31.379-14.387 45.775-4.333 17.171 11.991 20.566 35.466 7.927 51.047z" fill="#dfb5a7"/><path d="m251.534 292.238c5.862.483 9.321 9.943 6.823 18.751-6.118 21.573-19.359 36.354-33.417 35.195-14.057-1.158-24.7-17.908-27.204-40.191-1.022-9.098 3.938-17.864 9.8-17.381z" fill="#d789b9"/><path d="m251.534 292.238-43.998-3.626c-5.862-.483-10.823 8.284-9.8 17.381 2.504 22.283 13.147 39.032 27.204 40.191 1.876.154 3.737.016 5.569-.375-6.751-2.542-12.646-8.748-13.881-19.741-.645-5.741 4.965-15.582 8.664-15.277l27.762 2.288c1.558.128 2.841 1.269 3.694 2.953.578-1.636 1.119-3.315 1.609-5.043 2.498-8.808-.96-18.268-6.823-18.751z" fill="#c668b9"/><path d="m350.695 408.194c11.168-15.863 19.889-33.938 28.011-62.695l17.273-57.109c5.802-20.544 4.954-41.393-1.259-60.25 6.313-3.604 12.361-9.162 17.69-16.842 16.232-23.388 10.124-64.112 2.841-69.167-3.36-2.331-13.746-1.766-25.552 1.809 4.747 7.965 3.99 44.48-11.986 65.045-5.513 7.098-11.368 12.13-17.199 15.282 2.888 18.34.956 38.333-6.597 57.719l-21.969 53.837c-7.048 18.091-13.719 31.626-20.797 42.981-5.793 9.294-5.411 21.149 1.114 29.944 8.923 12.026 16.628 26.266 22.696 42.483 6.355 16.984-6.76 34.917-24.866 33.911l-150.37-3.349c-1.094 9.599-1.308 13.179-1.294 19.847h258.909c-15.125-40.732-38.99-72.575-66.645-93.446z" fill="#e1bdfc"/><path d="m455.03 51.17 8.214 23.098c.352.989 1.048 1.772 1.927 2.168l20.521 9.246c2.899 1.306 2.899 5.925 0 7.232l-20.521 9.246c-.879.396-1.575 1.18-1.927 2.169l-8.214 23.097c-1.161 3.263-5.264 3.263-6.425 0l-8.214-23.097c-.352-.989-1.048-1.773-1.927-2.169l-20.521-9.246c-2.899-1.306-2.899-5.925 0-7.232l20.521-9.246c.879-.396 1.575-1.179 1.927-2.168l8.214-23.098c1.16-3.263 5.264-3.263 6.425 0z" fill="#ccf3e2"/><circle cx="28.155" cy="162.491" fill="#a1e8c3" r="12.187"/><path d="m388.371 25.937c0 5.228-4.238 9.466-9.466 9.466s-9.466-4.238-9.466-9.466 4.238-9.466 9.466-9.466 9.466 4.238 9.466 9.466z" fill="#a1e8c3"/><path d="m85.916 51.287 6.093 17.133c.261.734.777 1.315 1.429 1.608l15.222 6.858c2.151.969 2.151 4.395 0 5.364l-15.222 6.858c-.652.294-1.168.875-1.429 1.608l-6.093 17.133c-.861 2.421-3.905 2.421-4.766 0l-6.093-17.133c-.261-.734-.777-1.315-1.429-1.608l-15.222-6.858c-2.15-.969-2.15-4.395 0-5.364l15.222-6.858c.652-.294 1.168-.875 1.429-1.608l6.093-17.133c.861-2.421 3.905-2.421 4.766 0z" fill="#ccf3e2"/></g><g><path d="m472.286 395.068c12.262-13.091 26.268-37.016 23.359-76.646-4.243-57.768-34.991-79.387-50.535-86.687 1.289-13.026 1.465-37.633-12.415-53.359.185-3.347.191-6.354.117-8.842-.197-6.62-1.63-28.77-11.801-35.83-10.174-7.059-31.425-.653-37.695 1.479-2.786.947-6.215 2.255-9.949 3.972-1.483-18.664-6.784-38.24-20.89-49.234-10.61-8.268-24.262-10.471-40.727-6.646-.339-20.95-2.888-44.339-7.781-71.284-.905-6.485-6.2-11.475-12.779-11.955-6.531-.479-12.423 3.609-14.322 9.789-8.917 24.141-13.525 41.852-14.732 56.736-6.987 9.691-10.628 20.188-10.928 31.343-5.264-8.823-11.68-15.777-16.177-20.068-4.751-4.533-21.2-19.167-33.315-17.051-12.12 2.111-22.651 21.435-25.59 27.308-4.802 9.596-12.358 28.57-9.004 47.83.874 5.026 2.197 9.71 3.904 14.071-4.978 2.807-10.275 4.929-15.761 6.258-7.035 1.704-12.145 7.197-13.336 14.336-.742 4.454.165 8.798 2.434 12.382-12.576 18.189-23.448 41.255-27.288 49.742-31.252 17.661-49.144 48.775-46.889 82.01 1.512 22.287 9.958 42.232 25.091 59.464-15.471-3.166-28.273-3.331-37.849 1.243-7.127 3.404-12.258 9.316-14.84 17.096-3.142 9.47-1.773 18.962 3.961 27.45 4.508 6.676 11.802 12.939 22.298 19.149 18.054 10.682 43.689 20.245 73.372 31.319l7.883 2.944c-1.332 11.092-2.03 20.91-2.015 28.273.012 5.658 4.602 10.236 10.257 10.235h.021c5.665-.012 10.248-4.614 10.236-10.278-.042-20.118 5.728-60.229 15.457-92.528 1.455-4.833-.821-10.007-5.368-12.198l-2.549-1.229c-.804-.388-1.655-.668-2.531-.835-14.216-2.712-41.515-13.544-55.793-26.824-16.611-15.45-25.751-33.843-27.165-54.669-1.77-26.102 13.219-50.691 39.116-64.172 2.09-1.088 3.743-2.865 4.679-5.028.128-.294 12.315-28.322 26.312-48.799 20.565 12.773 35.017 20.576 43.001 23.202 7.399 2.434 14.959 3.626 22.419 3.626 15.891 0 31.325-5.413 43.764-15.774.332-.276.646-.569.971-.852 1.717.244 3.426.442 5.103.575 2.116.168 4.293.258 6.492.258 15.306 0 31.566-4.367 34.623-17.068.018-.061.031-.122.046-.182.017-.072.038-.14.054-.212.007-.032.009-.064.016-.096.023-.112.041-.224.057-.337.078-.403.156-.807.2-1.187 1.452-5.799 2.31-11.428 2.579-16.875l1.765.498c7.891 2.229 15.44 5.477 22.44 9.656 4.787 2.86 10.99 1.367 13.951-3.364.572-.912 1.064-1.664 1.55-2.363 11.853-17.08 40.359-24.625 49.263-23.902 3.803 8.109 6.698 37.434-5.155 54.512-4.264 6.143-9.092 10.78-14.351 13.783-4.235 2.419-6.181 7.485-4.656 12.117 5.786 17.56 6.185 36.287 1.156 54.163l-17.245 57.017c-.019.06-.036.121-.053.181-7.043 24.935-14.751 42.493-25.624 58.282-1.713 1.776-2.761 4.145-2.867 6.694l-.01.239c-.171 4.104 2.116 7.867 5.731 9.638 26.742 20.707 48.038 50.965 61.66 87.646 1.535 4.134 5.451 6.689 9.616 6.689.265 0 .531-.014.797-.035.526.083 1.058.135 1.595.135 1.458 0 2.942-.313 4.35-.974 1.701-.798 41.72-19.966 46.872-56.378 3.062-21.638-5.381-37.551-13.22-47.243 4.497-2.949 9.608-6.968 14.637-12.336zm-410.23 3.92c.838-2.527 2.098-4.037 4.213-5.046 5.701-2.724 15.693-1.897 28.168 1.024l-11.357 28.652c-1.303-.713-2.575-1.428-3.789-2.147-20.644-12.215-18.255-19.41-17.235-22.483zm87.331 52.237c-21.13-7.883-40.128-14.976-55.268-22.052l12.292-31.013c16.316 4.795 35.34 11.901 54.146 18.96-2.973 11.68-5.477 23.852-7.442 35.498zm132.948-379.681c.024-.199.047-.398.06-.598.003-.047.012-.091.014-.138.445-9.067 2.675-19.339 5.492-29.209 1.734 13.001 2.792 25.03 3.195 36.267l-8.776-6.16c.006-.053.009-.108.015-.162zm-6.087 10.939 16.097 11.299c.019.037.042.073.061.11.083.163.173.322.264.48.076.131.152.262.235.391.105.163.216.321.329.477.058.081.108.165.169.245 5.181 6.747 5.868 15.416 2.159 29.196l-22.939-15.991c-.019-.532-.068-1.068-.173-1.607-1.764-9.015-.552-16.974 3.798-24.6zm-70.932-1.016c6.477 2.431 21.382 14.205 29.353 28.785-10.965.08-21.957 3.426-31.331 10.203-4.443 3.211-8.349 7.027-11.61 11.34-1.146 1.516-2.348 2.974-3.599 4.376-.299-1.221-.573-2.468-.799-3.764-3.508-20.144 11.201-45.179 17.986-50.94zm2.285 125.378c-8.111-2.668-26.253-12.869-51.082-28.725-2.826-1.804-2.59-4.67-2.451-5.505.139-.833.844-3.612 4.094-4.399 16.94-4.105 32.347-14.403 43.383-28.998 2.523-3.337 5.552-6.294 9.002-8.788 7.338-5.304 15.956-7.898 24.539-7.898 11.086 0 22.113 4.33 30.236 12.737 8.27 8.561 12.472 19.779 11.831 31.59-.631 11.65-6.131 22.611-15.091 30.073-14.996 12.491-35.353 16.196-54.461 9.913zm73.24-12.807c2.873-4.468 5.077-9.345 6.55-14.461l15.365 9.902c-3.845 2.79-11.825 4.809-21.915 4.559zm26.116-16.494-17.477-11.264c.474-14.807-4.922-28.815-15.305-39.564-2.869-2.969-6.019-5.542-9.372-7.718.264-.067.531-.127.787-.211l36.486 25.436c.398.277.821.483 1.253.655 4.425 9.782 5.622 20.558 3.628 32.666zm39.593-19.062c-6.128-3-12.532-5.449-19.129-7.312l-9.734-2.749c-1.118-3.928-2.612-7.729-4.483-11.395.181-.393.347-.797.48-1.22 3.102-9.847 5.828-21.457 4.243-32.912 9.359-1.911 16.709-.859 21.927 3.202 10.479 8.156 13.331 27.868 13.328 45.784-2.323 2.005-4.559 4.198-6.632 6.602zm90.678 236.528c-3.724 1.192-6.475 4.379-7.048 8.248-.572 3.868 1.077 7.706 4.296 9.926.799.567 19.534 14.176 16.078 38.59-2.465 17.421-18.054 30.04-27.673 36.281-13.933-33.223-33.938-61.28-58.541-82.019 9.96-15.976 17.378-33.807 24.12-57.657l17.246-57.02c.019-.06.036-.121.053-.181 5.459-19.326 5.714-39.478.803-58.743 5.204-4.076 9.954-9.194 14.184-15.289 1.45-2.089 2.729-4.252 3.861-6.457 1.319 10.051.207 20.464-.833 25.633-1.11 5.412 2.176 10.708 7.546 12.007 1.608.421 39.415 11 43.865 71.594 4.416 60.134-36.291 74.526-37.957 75.087z" fill="#3c122c"/><path d="m214.432 163.659c-2.483 0-4.972-.896-6.943-2.71-4.168-3.836-4.436-10.325-.6-14.493 14.124-15.345 30.149-15.58 31.937-15.553 0 0 10.113-1.288 10.849 9.134.702 9.948-10.943 11.378-10.943 11.378-.355.008-8.812.311-16.749 8.934-2.024 2.197-4.783 3.31-7.551 3.31z" fill="#fff"/><g fill="#3c122c"><path d="m226.542 352.404c-.7 0-1.401-.029-2.107-.087-14.39-1.186-25.964-14.273-30.961-35.009-2.397-9.946.023-21.333 6.022-28.336 3.713-4.335 8.44-6.506 13.34-6.099l34.41 2.836v-.001c4.889.403 9.208 3.316 12.162 8.201 4.771 7.891 5.295 19.52 1.302 28.939-7.917 18.677-20.571 29.556-34.168 29.556zm-14.84-57.269c-1.151 0-2.375 1.279-2.859 1.845-2.95 3.444-5.066 10.543-3.404 17.445 3.636 15.089 11.303 24.908 20.007 25.626 8.681.7 17.872-7.715 23.93-22.006 2.77-6.536 1.845-13.885-.502-17.766-.399-.66-1.455-2.205-2.641-2.303l-34.409-2.836c-.04-.003-.081-.005-.122-.005z"/><path d="m184.452 254.043c-.878 6.934-7.212 11.844-14.146 10.966-6.935-.878-11.844-7.212-10.966-14.146s7.212-11.844 14.146-10.966 11.844 7.211 10.966 14.146z"/><ellipse cx="299.264" cy="268.584" rx="12.656" ry="12.656" transform="matrix(.261 -.965 .965 .261 -38.04 487.496)"/><path d="m29.049 379.214c-1.109 0-2.232-.3-3.243-.929-2.886-1.794-3.771-5.589-1.977-8.475 13.388-21.538 30.922-22.984 31.661-23.035 3.409-.229 6.329 2.326 6.563 5.716.232 3.367-2.289 6.288-5.644 6.558-.638.065-12.308 1.464-22.126 17.259-1.167 1.875-3.176 2.906-5.234 2.906z"/></g></g></g></svg>