<svg id="Capa_1" enable-background="new 0 0 512 512" height="512" viewBox="0 0 512 512" width="512" xmlns="http://www.w3.org/2000/svg"><g><g><path d="m383.501 501.741s36.639-17.191 41.074-48.53-20.356-48.432-20.356-48.432 50.168-16.059 45.06-85.606c-5.107-69.547-51.592-80.79-51.592-80.79s18.978-92.574-73.071-54.476c0 0 23.174-124.705-65.358-84.05l-23.893 223.053z" fill="#efc5b4"/><path d="m402.436 404.497s54.088-15.583 49.675-88.405c-.794-13.096-10.881-31.779-14.053-41.272 3.746 103.962-72.253 140.032-138.59 74.099-3.56-3.538-19.985 31.097-24.715 29.688l103.959 126.75s39.586-17.092 44.827-49.744c5.241-32.653-21.103-51.116-21.103-51.116z" fill="#d994b3"/><path d="m381.114 501.64c-15.144-40.782-39.049-72.655-66.747-93.524l-.01.239c11.222-15.902 19.974-34.003 28.123-62.856l17.273-57.109c5.803-20.544 4.954-41.393-1.258-60.25 6.313-3.605 12.36-9.162 17.69-16.842 16.232-23.389 10.124-64.113 2.841-69.167-7.283-5.055-47.57 3.472-63.802 26.86-.641.924-1.239 1.847-1.816 2.768-7.623-4.551-15.959-8.192-24.91-10.72l-61.283-17.309c-4.577-1.293-9.072-2.186-13.477-2.738.964-5.808.932-12.312-.306-19.424-4.833-27.755-37.45-52.183-46.092-50.678-8.643 1.505-31.082 35.52-26.249 63.275 1.599 9.183 4.75 16.736 8.964 22.62-14.249 9.188-25.184 20.562-31.688 29.596-15.697 21.8-29.471 53.682-29.471 53.682-30.295 15.77-46.616 44.447-44.613 73.964 1.653 24.355 12.666 44.98 30.411 61.486 15.597 14.507 44.25 26.22 60.857 29.389l2.55 1.229c-9.719 32.267-15.939 73.863-15.893 95.508" fill="#fff"/><path d="m315.253 408.194c11.168-15.863 19.889-33.938 28.011-62.695l17.273-57.109c5.802-20.544 4.954-41.393-1.259-60.25 6.313-3.604 12.361-9.162 17.69-16.842 16.232-23.389 10.124-64.113 2.841-69.167-3.36-2.331-13.746-1.766-25.552 1.809 4.747 7.965 3.99 44.48-11.986 65.045-5.513 7.098-11.368 12.13-17.199 15.282 2.888 18.34.956 38.333-6.597 57.72l-21.969 53.837c-7.048 18.091-13.719 31.626-20.797 42.981-5.793 9.294-5.411 21.149 1.114 29.944 8.922 12.026 16.628 26.266 22.696 42.483 6.355 16.983-6.76 34.917-24.866 33.911l-150.37-3.349c-1.094 9.599-1.308 13.179-1.294 19.847h258.909c-15.125-40.733-38.99-72.576-66.645-93.447z" fill="#e1bdfc"/><path d="m275.077 187.608c.097-.45.175-.907.209-1.382 4.431-17.356 3.583-33.76-4.97-48.773 5.352-19.306 4.649-35.763-4.914-48.215.099-23.054-2.768-48.523-7.713-75.682-.416-4.085-6.204-4.507-7.209-.526-7.725 20.87-13.636 40.631-14.454 57.277-8.862 11.135-12.693 23.86-9.778 38.747-7.919 11.569-12.009 24.805-10.221 40.5-10.177 11.612-9.134 25.26-9.163 31.571 1.169 21.551 63.907 26.433 68.213 6.483z" fill="#ccf3e2"/><path d="m275.077 187.608c.097-.45.175-.907.209-1.382 3.147-12.326 3.612-24.168.565-35.376-.35 3.315-.957 6.672-1.821 10.073-.027.406-.092.797-.174 1.181-3.635 17.033-58.762 12.398-59.945-6.046-.004-1.042-.044-2.32-.044-3.772-7.852 10.951-6.974 23.016-7.001 28.838 1.167 21.552 63.905 26.434 68.211 6.484z" fill="#b1b6e1"/><path d="m120.576 162.235c16.058-3.891 29.959-13.55 39.924-26.729 2.83-3.743 6.27-7.147 10.306-10.065 19.28-13.937 46.277-11.559 62.806 5.551 19.714 20.407 17.656 52.842-3.746 70.667-18.427 15.347-41.407 17.251-60.322 11.03-11.019-3.624-34.658-18.008-52.473-29.384-8.624-5.506-6.439-18.66 3.505-21.07z" fill="#efc5b4"/><path d="m233.612 130.992c-16.529-17.109-43.526-19.488-62.806-5.551-4.037 2.918-7.476 6.321-10.306 10.065-9.965 13.178-23.866 22.838-39.924 26.729-9.944 2.41-12.129 15.564-3.506 21.071 17.815 11.377 41.453 25.76 52.473 29.384 18.915 6.221 41.896 4.317 60.323-11.031 21.402-17.825 23.461-50.259 3.746-70.667zm-10.777 44.545c-10.882 13.415-27.041 17.815-41.509 15.866-8.429-1.135-27.503-8.299-41.959-14.082-6.997-2.799-7.408-12.498-.654-15.537 10.906-4.906 19.404-13.654 24.556-24.399 1.464-3.052 3.414-5.942 5.864-8.563 11.704-12.519 31.379-14.387 45.776-4.333 17.17 11.993 20.565 35.467 7.926 51.048z" fill="#d994b3"/><path d="m198.366 307.513c4.737.911 7.059 7.174 4.577 12.41-6.08 12.825-17.596 20.671-28.953 18.486-11.358-2.185-19.14-13.744-20.027-27.909-.362-5.783 4.118-10.737 8.855-9.826z" fill="#d789b9"/><path d="m174.801 324.398c3.339 0 6.207 1.984 7.51 4.834 1.303-2.85 4.172-4.834 7.51-4.834 4.562 0 8.261 3.699 8.261 8.261v23.282c0 4.562-3.699 8.261-8.261 8.261-4.563 0-8.261-3.699-8.261-8.261v-6.9c-1.495 2.127-3.962 3.52-6.759 3.52-4.562 0-8.261-3.699-8.261-8.261v-11.641c0-4.563 3.699-8.261 8.261-8.261z" fill="#96b4eb"/><path d="m450.691 77.916 8.426 23.691c.361 1.014 1.075 1.818 1.976 2.224l21.048 9.483c2.974 1.34 2.974 6.078 0 7.417l-21.048 9.483c-.901.406-1.615 1.21-1.976 2.224l-8.426 23.691c-1.19 3.347-5.4 3.347-6.59 0l-8.425-23.691c-.361-1.014-1.075-1.818-1.976-2.224l-21.048-9.483c-2.974-1.34-2.974-6.078 0-7.417l21.048-9.483c.901-.406 1.615-1.21 1.976-2.224l8.425-23.691c1.19-3.347 5.4-3.347 6.59 0z" fill="#ccf3e2"/><path d="m87.36 21.371 6.25 17.574c.268.752.797 1.349 1.466 1.65l15.613 7.035c2.206.994 2.206 4.508 0 5.502l-15.613 7.035c-.669.301-1.198.897-1.466 1.65l-6.25 17.574c-.883 2.483-4.005 2.483-4.888 0l-6.25-17.574c-.268-.752-.797-1.349-1.466-1.65l-15.614-7.035c-2.206-.994-2.206-4.508 0-5.502l15.614-7.035c.669-.301 1.198-.897 1.466-1.65l6.25-17.574c.883-2.483 4.005-2.483 4.888 0z" fill="#ccf3e2"/><g fill="#a1e8c3"><circle cx="40.129" cy="128.337" r="12.501"/><path d="m382.32 52.034c0 5.362-4.347 9.709-9.709 9.709s-9.709-4.347-9.709-9.709 4.347-9.709 9.709-9.709c5.362.001 9.709 4.347 9.709 9.709z"/></g></g><g><path d="m436.151 395.068c12.262-13.092 26.268-37.016 23.358-76.646-4.243-57.767-34.991-79.387-50.535-86.687 1.289-13.026 1.465-37.634-12.415-53.359.185-3.346.191-6.354.117-8.842-.197-6.62-1.63-28.77-11.802-35.83-10.171-7.058-31.424-.652-37.694 1.479-2.787.948-6.216 2.255-9.951 3.973-1.483-18.665-6.783-38.241-20.89-49.234-10.609-8.268-24.264-10.464-40.727-6.64-.339-20.956-2.888-44.349-7.781-71.291-.905-6.484-6.198-11.474-12.776-11.955-6.53-.472-12.425 3.608-14.324 9.789-8.916 24.141-13.525 41.852-14.732 56.735-6.979 9.682-10.622 20.165-10.932 31.306-5.263-8.81-11.681-15.743-16.173-20.03-4.751-4.534-21.199-19.158-33.316-17.051-12.12 2.111-22.651 21.436-25.59 27.308-4.802 9.597-12.358 28.57-9.004 47.832.875 5.023 2.175 9.725 3.881 14.083-4.971 2.8-10.261 4.918-15.738 6.246-7.035 1.704-12.145 7.197-13.336 14.335-.743 4.454.165 8.798 2.433 12.382-12.576 18.188-23.448 41.255-27.288 49.743-31.253 17.66-49.144 48.774-46.889 82.008 1.778 26.202 13.103 49.182 33.66 68.302 15.419 14.343 40.501 25.179 57.776 30.006-8.579 32.142-13.576 69.056-13.535 88.631.012 5.657 4.602 10.235 10.256 10.235h.022c5.665-.012 10.247-4.614 10.235-10.279-.043-20.116 5.728-60.226 15.458-92.529 1.456-4.834-.822-10.008-5.37-12.199l-2.55-1.228c-.803-.387-1.653-.667-2.528-.833-14.218-2.713-41.517-13.545-55.794-26.825-16.611-15.45-25.75-33.844-27.164-54.669-1.771-26.101 13.217-50.691 39.115-64.172 2.092-1.089 3.745-2.865 4.68-5.03.128-.294 12.288-28.287 26.31-48.798 20.564 12.772 35.017 20.576 43.001 23.203 7.4 2.433 14.96 3.626 22.419 3.625 15.892 0 31.325-5.413 43.764-15.773.331-.275.644-.567.968-.85 1.718.245 3.427.439 5.106.572 2.117.168 4.293.258 6.492.258 15.305 0 31.566-4.366 34.623-17.067.018-.062.031-.124.047-.185.016-.071.038-.139.053-.21.007-.032.009-.063.016-.095.022-.113.041-.225.057-.338.077-.403.156-.806.2-1.186 1.452-5.8 2.31-11.429 2.58-16.876l1.764.498c7.892 2.23 15.441 5.479 22.439 9.657 4.79 2.858 10.991 1.366 13.952-3.363.571-.912 1.064-1.665 1.55-2.364 11.852-17.077 40.33-24.615 49.263-23.901 3.802 8.111 6.697 37.435-5.155 54.513-4.262 6.142-9.09 10.779-14.35 13.783-4.235 2.418-6.181 7.484-4.656 12.116 5.786 17.561 6.185 36.288 1.154 54.166l-17.245 57.014c-.018.06-.035.12-.052.181-7.044 24.935-14.751 42.494-25.624 58.282-1.714 1.777-2.76 4.145-2.867 6.694l-.01.239c-.171 4.104 2.115 7.867 5.73 9.638 26.744 20.708 48.039 50.966 61.659 87.646 1.535 4.134 5.452 6.69 9.617 6.69.265 0 .531-.014.798-.035.526.083 1.058.135 1.595.135 1.458 0 2.942-.312 4.35-.974 1.701-.798 41.72-19.966 46.872-56.378 3.062-21.638-5.381-37.551-13.22-47.242 4.502-2.951 9.613-6.971 14.643-12.339zm-189.955-323.505c.026-.207.049-.414.062-.622.003-.045.011-.087.013-.132.446-9.068 2.676-19.339 5.492-29.209 1.734 13 2.792 25.027 3.195 36.266l-8.777-6.16c.008-.047.01-.096.015-.143zm-6.084 10.919 16.096 11.298c.018.036.041.071.059.107.085.167.177.33.271.492.074.127.148.254.228.378.108.168.223.33.34.492.056.078.104.159.162.235 5.181 6.746 5.868 15.416 2.159 29.195l-22.938-15.991c-.02-.532-.068-1.068-.174-1.608-1.765-9.013-.553-16.972 3.797-24.598zm-70.932-1.017c6.477 2.431 21.381 14.205 29.352 28.786-10.965.079-21.957 3.426-31.331 10.203-4.441 3.21-8.348 7.026-11.61 11.34-1.149 1.52-2.355 2.983-3.61 4.39-.298-1.224-.562-2.482-.788-3.778-3.507-20.144 11.201-45.179 17.987-50.941zm56.747 115.467c-14.996 12.49-35.357 16.194-54.461 9.913-8.113-2.668-26.255-12.87-51.083-28.725-2.826-1.805-2.591-4.67-2.451-5.505.139-.832.845-3.611 4.093-4.398h.001c16.94-4.105 32.347-14.404 43.383-28.999 2.524-3.338 5.553-6.294 9.002-8.788 7.338-5.304 15.956-7.898 24.538-7.898 11.087 0 22.115 4.33 30.236 12.738 8.27 8.56 12.472 19.779 11.832 31.589-.63 11.649-6.13 22.61-15.09 30.073zm18.778-2.894c2.873-4.468 5.077-9.345 6.55-14.462l15.366 9.903c-3.844 2.79-11.823 4.811-21.916 4.559zm26.116-16.494-17.477-11.264c.474-14.807-4.922-28.815-15.305-39.564-2.869-2.969-6.02-5.542-9.373-7.719.264-.067.532-.127.788-.211l36.486 25.436c.398.277.821.483 1.253.655 4.425 9.782 5.621 20.56 3.628 32.667zm39.593-19.063c-6.127-2.999-12.532-5.449-19.13-7.312l-9.733-2.749c-1.118-3.929-2.613-7.73-4.484-11.396.181-.392.346-.796.48-1.219 3.103-9.849 5.83-21.461 4.243-32.918 9.359-1.91 16.708-.854 21.928 3.208 10.479 8.155 13.329 27.868 13.327 45.785-2.322 2.006-4.558 4.198-6.631 6.601zm90.678 236.53c-3.724 1.192-6.475 4.378-7.048 8.248-.572 3.868 1.077 7.706 4.296 9.925.799.568 19.534 14.176 16.078 38.59-2.465 17.422-18.055 30.041-27.673 36.282-13.933-33.222-33.938-61.281-58.541-82.019 9.961-15.978 17.378-33.808 24.121-57.661l17.244-57.016c.019-.061.036-.121.053-.182 5.459-19.327 5.715-39.479.804-58.743 5.204-4.077 9.954-9.194 14.184-15.289 1.449-2.088 2.728-4.25 3.86-6.454 1.319 10.05.208 20.463-.832 25.632-1.11 5.412 2.176 10.708 7.545 12.007 1.608.421 39.415 11 43.865 71.594 4.418 60.132-36.289 74.525-37.956 75.086z" fill="#3c122c"/><path d="m178.296 163.659c-2.484 0-4.973-.896-6.945-2.71-4.167-3.836-4.436-10.325-.6-14.493 14.128-15.346 30.174-15.599 31.936-15.554 0 0 8.736-.445 9.737 9.118 1.054 10.064-9.83 11.393-9.83 11.393-.356.009-8.812.312-16.75 8.935-2.021 2.197-4.781 3.311-7.548 3.311z" fill="#fff"/><g fill="#3c122c"><path d="m206.861 310.278c-2.104-5.107-6.189-8.588-11.206-9.553l-27.802-5.349c-5.015-.965-10.102.752-13.951 4.713-4.557 4.69-6.495 11.62-5.058 18.086 2.003 9.012 6.553 16.387 12.668 21.096v5.029c0 7.949 6.467 14.416 14.415 14.416.29 0 .58-.009.868-.026 1.287 6.638 7.143 11.666 14.152 11.666 7.949 0 14.415-6.467 14.415-14.415v-23.282c0-1.29-.186-2.535-.506-3.725 3.727-5.47 4.495-12.617 2.005-18.656zm-44.132-1.611c.474-.488 1.374-1.242 2.406-1.242.129 0 .26.012.392.037l27.801 5.349h.001c1.193.23 1.861 1.45 2.152 2.157.434 1.055.678 2.565.385 4.159-1.538-.561-3.19-.883-4.919-.883-2.699 0-5.288.763-7.51 2.122-2.222-1.359-4.811-2.122-7.51-2.122-4.773 0-8.999 2.341-11.624 5.925-1.526-2.473-2.717-5.388-3.445-8.664-.654-2.952.599-5.529 1.871-6.838zm30.326 47.274c0 1.162-.945 2.107-2.107 2.107s-2.107-.945-2.107-2.107v-6.9c0-2.685-1.739-5.058-4.299-5.868-.612-.193-1.237-.286-1.855-.286-1.966 0-3.862.945-5.036 2.616-.191.271-.742.904-1.724.904-1.162 0-2.107-.945-2.107-2.107v-11.641c0-1.162.945-2.106 2.107-2.106.995 0 1.652.667 1.913 1.238 1.002 2.191 3.188 3.596 5.597 3.596h.001c2.408 0 4.595-1.404 5.597-3.595.261-.572.92-1.239 1.914-1.239 1.162 0 2.107.944 2.107 2.106v23.282z"/><path d="m138.886 271.2c-.284 0-.571-.02-.861-.06l-24.456-3.426c-3.366-.472-5.712-3.583-5.241-6.948.471-3.367 3.578-5.703 6.948-5.242l24.456 3.426c3.366.472 5.712 3.583 5.241 6.948-.431 3.077-3.066 5.302-6.087 5.302z"/><path d="m142.964 254.086c-.284 0-.571-.02-.861-.06l-24.457-3.426c-3.366-.472-5.712-3.583-5.241-6.949.471-3.367 3.574-5.705 6.948-5.242l24.457 3.426c3.366.472 5.712 3.583 5.241 6.949-.43 3.077-3.066 5.302-6.087 5.302z"/><path d="m265.685 306.047c-.713 0-1.438-.125-2.147-.389l-23.143-8.618c-3.185-1.186-4.806-4.73-3.619-7.915 1.185-3.185 4.732-4.805 7.914-3.62l23.143 8.618c3.185 1.186 4.806 4.73 3.62 7.915-.922 2.477-3.271 4.009-5.768 4.009z"/><path d="m270.237 289.053c-.713 0-1.438-.125-2.146-.389l-23.143-8.618c-3.185-1.186-4.806-4.73-3.619-7.915 1.186-3.184 4.729-4.804 7.914-3.62l23.143 8.618c3.185 1.186 4.806 4.73 3.62 7.915-.923 2.477-3.272 4.009-5.769 4.009z"/></g></g></g></svg>