<svg id="Capa_1" enable-background="new 0 0 512 512" height="512" viewBox="0 0 512 512" width="512" xmlns="http://www.w3.org/2000/svg"><g><g><path d="m403.742 501.567s36.055-22.944 36.055-55.721-28.68-46.708-28.68-46.708 50.484-23.746 34.727-94.317-66.431-75.355-66.431-75.355 6.195-97.677-85.146-45.255c0 0 5.825-131.233-81.428-76.7l8.086 232.182z" fill="#ccf3e2"/><path d="m409.781 399.713s50.484-23.746 34.727-94.318c-2.834-12.692-15.64-29.391-20.235-38.182 19.995 101.15-48.713 148.386-123.988 94.283-4.04-2.904-14.673 33.571-19.523 32.935l121.645 107.711s36.055-22.944 36.055-55.722c-.001-32.776-28.681-46.707-28.681-46.707z" fill="#b1b6e1"/><path d="m403.773 501.832c-11.969-43.569-33.503-88.988-67.666-116.637 6.42-18.191 9.891-37.813 9.891-67.53l1.091-59.125c0-21.159-6.426-40.817-17.432-57.129 5.05-5.139 9.321-12.069 12.336-20.83 9.181-26.681-7.616-63.88-15.924-66.739s-44.439 16.127-53.62 42.808c-.363 1.054-.684 2.095-.987 3.13-8.497-2.287-17.429-3.514-26.648-3.514h-63.117c-4.714 0-9.242.359-13.593 1.02-.646-5.8-2.428-11.995-5.524-18.444-12.087-25.171-49.779-39.685-57.617-35.921s-20.078 42.254-7.991 67.425c3.999 8.328 9.039 14.683 14.644 19.161-11.116 12.602-18.481 26.398-22.252 36.766-9.099 25.023-13.648 59.143-13.648 59.143-24.648 23.203-32.49 54.953-22.627 82.568 8.138 22.786 24.199 39.491 45.571 50.454 18.785 9.635 49.27 13.089 65.964 11.637-9.277 20.409-14.176 49.789-17.468 71.759h256.617z" fill="#fff"/><path d="m336.107 385.194c6.42-18.191 9.891-37.813 9.891-67.53l1.091-59.125c0-21.159-6.426-40.817-17.432-57.129 5.05-5.139 9.321-12.069 12.336-20.83 9.181-26.681-7.616-63.88-15.924-66.739-3.921-1.349-5.04-.5-15.596 6.392 6.54 12.272 11.031 28.068 9.376 47.923-1.042 12.502-17.209 25.73-21.438 30.62 9.215 15.52 16.27 67.73 16.27 87.862l-.276 15.011c0 20.605-8.837 48.615-13.624 67.814-2.791 11.197-4.351 21.258 4.018 29.204 11.252 10.683 19.966 20.963 27.46 39.877 8.343 21.055-7.248 43.89-29.896 43.89h-152.075c-1.2 6.795-2.229 13.378-3.131 19.397h256.616c-11.97-43.568-33.504-88.987-67.666-116.637z" fill="#e1bdfc"/><path d="m241.139 173.278c-.033-.454-.087-.911-.187-1.373-.638-17.742-6.03-33.104-18.36-44.99-.307-19.854-5.576-35.307-18.15-44.475-6.35-21.95-16.197-45.367-28.49-69.811-1.538-3.768-7.159-2.552-7.001 1.515-1.511 22.005-1.609 42.448 2.266 58.505-5.314 13.066-5.4 26.236 1.533 39.578-4.296 13.215-4.486 26.944 1.603 41.369-6.432 13.887-1.624 26.573.112 32.583 7.133 20.168 68.156 7.273 66.674-12.901z" fill="#f6e06e"/><path d="m241.139 173.278c-.033-.454-.087-.911-.187-1.373-.453-12.6-3.321-23.991-9.352-33.798.593 3.25.955 6.612 1.084 10.087.088.394.135.784.165 1.171 1.304 17.213-52.412 28.216-58.692 11.008-.295-.99-.691-2.194-1.097-3.574-4.405 12.608-.197 23.836 1.404 29.379 7.134 20.169 68.157 7.274 66.675-12.9z" fill="#dda86a"/><path d="m87.13 192.339c14.182-8.189 24.7-21.259 30.492-36.577 1.645-4.351 3.964-8.548 6.987-12.451 14.438-18.642 40.774-23.927 61.274-12.278 24.451 13.894 31.56 45.312 16.191 68.245-13.232 19.745-34.552 27.979-54.278 27.351-11.491-.366-37.99-7.436-58.111-13.274-9.738-2.826-11.337-15.945-2.555-21.016z" fill="#ccf3e2"/><path d="m185.884 131.033c-20.501-11.649-46.837-6.364-61.274 12.278-3.023 3.903-5.341 8.101-6.987 12.452-5.792 15.317-16.311 28.388-30.492 36.576-8.783 5.071-7.183 18.19 2.557 21.016 20.12 5.838 46.619 12.908 58.11 13.274 19.725.628 41.046-7.607 54.278-27.351 15.368-22.933 8.259-54.351-16.192-68.245zm2.203 45.37c-6.598 15.798-20.733 24.499-35.037 26.69-8.332 1.277-28.473-.203-43.835-1.662-7.436-.706-10.538-9.813-4.965-14.591 8.999-7.714 14.634-18.408 16.53-30.065.538-3.311 1.585-6.604 3.183-9.782 7.63-15.176 25.817-22.452 42.317-16.916 19.68 6.604 29.471 27.977 21.807 46.326z" fill="#b1b6e1"/><path d="m209.412 322.079c5.83-.016 10.032 5.634 8.296 11.199-4.251 13.632-16.101 23.457-30.081 23.495s-25.882-9.723-30.207-23.332c-1.766-5.556 2.406-11.228 8.236-11.244z" fill="#d789b9"/><path d="m467.443 101.27 8.351 23.481c.357 1.005 1.065 1.802 1.958 2.204l20.862 9.399c2.947 1.328 2.947 6.024 0 7.352l-20.862 9.399c-.893.403-1.601 1.199-1.958 2.205l-8.351 23.481c-1.18 3.317-5.352 3.317-6.532 0l-8.351-23.481c-.357-1.005-1.065-1.802-1.959-2.205l-20.862-9.399c-2.947-1.328-2.947-6.024 0-7.352l20.862-9.399c.893-.402 1.601-1.199 1.959-2.204l8.351-23.481c1.18-3.318 5.352-3.318 6.532 0z" fill="#fbf2aa"/><path d="m70.377 1.846 6.194 17.418c.265.746.79 1.337 1.453 1.635l15.476 6.972c2.186.985 2.186 4.468 0 5.453l-15.475 6.972c-.663.299-1.188.89-1.453 1.635l-6.194 17.418c-.875 2.461-3.97 2.461-4.845 0l-6.194-17.418c-.265-.746-.79-1.337-1.453-1.635l-15.476-6.972c-2.186-.985-2.186-4.468 0-5.453l15.475-6.972c.663-.299 1.188-.889 1.453-1.635l6.194-17.418c.875-2.461 3.97-2.461 4.845 0z" fill="#fbf2aa"/><g fill="#f7e16e"><ellipse cx="23.565" cy="107.864" rx="12.39" ry="12.39" transform="matrix(.973 -.231 .231 .973 -24.277 8.36)"/><path d="m399.677 75.617c0 5.315-4.308 9.623-9.623 9.623s-9.623-4.308-9.623-9.623 4.308-9.623 9.623-9.623c5.314 0 9.623 4.309 9.623 9.623z"/></g></g><g><g fill="#3c122c"><path d="m428.825 399.29c4.369-3.691 9.265-8.602 13.808-14.898 10.938-15.155 22.095-41.647 13.133-81.788-8.862-39.687-28.441-60.143-43.305-70.315-8.794-6.018-16.967-9.265-22.883-11.004-.589-14.564-4.513-43.198-25.45-56.224-2.927-1.821-6.046-3.242-9.34-4.292-.335-10.334-2.626-19.583-4.502-25.544-1.972-6.262-9.305-27.003-20.909-30.996-11.608-3.999-30.149 7.842-35.556 11.565-.114.078-.24.169-.356.25-5.38-12.162-12.642-20.97-21.747-26.283-13.333-7.78-29.474-7.584-48.129.531-2.35-5.036-5.661-9.745-10.308-13.789-6.195-20.542-15.409-42.887-28.124-68.194-2.673-5.913-9.1-9.177-15.491-7.796-6.327 1.369-10.806 6.903-10.884 13.312-1.73 25.449-1.161 43.578 1.851 58.069-5.444 15.453-4.407 30.585 3.096 45.022.308.594.683 1.127 1.084 1.631-.019.098-.032.195-.051.292-1.342-.056-2.683-.068-4.022-.025-8.15-8.61-17.62-14.497-23.807-17.771-5.753-3.045-25.376-12.566-36.37-7.289-10.992 5.279-15.831 26.549-17.052 32.942-1.995 10.446-4.09 30.58 4.298 48.048 1.196 2.49 2.495 4.842 3.878 7.077-2.407 1.937-4.943 3.697-7.606 5.234-6.213 3.587-9.537 10.239-8.674 17.359.604 4.979 3.143 9.242 6.968 12.044-.94 2.125-1.802 4.242-2.563 6.336-7.731 21.261-12.223 48.182-13.664 57.75-25.052 25.265-33.735 59.763-22.631 90.855 8.755 24.513 25.748 43.381 50.506 56.08 16.146 8.282 38.543 12.068 55.8 12.884-5.976 18.399-9.757 40.198-12.718 59.961-.832 5.552 2.995 10.728 8.548 11.56 5.554.831 10.729-2.995 11.56-8.548 3.579-23.889 8.358-50.776 16.669-69.058 1.496-3.29 1.132-7.126-.954-10.076-2.086-2.951-5.584-4.574-9.181-4.259-14.29 1.245-43.247-1.734-60.444-10.555-20.007-10.261-33.679-25.344-40.637-44.827-8.721-24.419-1.049-51.911 20.022-71.746 1.702-1.602 2.8-3.742 3.108-6.059.044-.331 4.503-33.302 13.126-57.013.565-1.555 1.475-3.854 2.769-6.656 22.344 6.139 37.762 9.378 45.915 9.637.778.025 1.552.037 2.327.037 23.251 0 44.509-11.133 57.212-30.089.237-.354.454-.719.682-1.078 1.702-.247 3.38-.541 5.014-.883 16.388-3.436 35.102-12.674 34.398-27.442 0-.09-.005-.179-.009-.268-.004-.058-.001-.113-.006-.171 0-.001 0-.003-.001-.005-.004-.058-.011-.11-.016-.167-.003-.034-.006-.067-.01-.101-.041-.469-.094-.917-.166-1.343-.066-1.611-.184-3.19-.325-4.753 7.488.152 14.92 1.197 22.115 3.134 5.338 1.437 10.85-1.657 12.401-6.965.301-1.029.568-1.879.841-2.674 6.705-19.483 31.84-34.356 40.551-36.07 5.812 6.711 16.473 33.901 9.768 53.384-2.411 7.007-5.767 12.731-9.974 17.012-3.388 3.448-3.88 8.805-1.176 12.812 10.249 15.191 15.675 32.946 15.693 51.352l-1.089 59.029c-.002.062-.002.125-.002.188 0 26.47-2.785 45.654-9.312 64.147-1.432 4.058-.154 8.578 3.191 11.285 27.901 22.582 50.722 62.154 64.259 111.428 1.24 4.513 5.333 7.476 9.797 7.476.892 0 1.798-.118 2.699-.366 1.839-.505 3.412-1.492 4.64-2.776 8.11-5.668 38.858-29.372 38.858-63.013-.002-22.785-11.444-37.866-21.141-46.554zm-237.493-324.743-10.068-3.404c-.044-.292-.095-.585-.166-.878-2.111-8.746-2.861-19.137-2.942-29.311 5.283 11.876 9.65 23.018 13.176 33.593zm-12.828 8.541 18.464 6.243c.456.483.947.932 1.483 1.324 6.813 4.967 9.89 13.019 10.215 27.159l-26.282-8.794c-.167-.5-.363-.997-.614-1.48-4.198-8.078-5.27-15.986-3.266-24.452zm-68.935 29.421c5.345.45 17.145 4.973 27.553 12.546-6.598 3.474-12.549 8.341-17.335 14.521-3.326 4.295-5.975 9.015-7.87 14.029-1.601 4.234-3.6 8.246-5.933 11.995-8.522-18.273-1.304-45.813 3.585-53.091zm87.439 83.373c-10.769 16.07-29.099 25.295-49.016 24.651-8.462-.27-28.565-4.899-56.604-13.035-3.192-.926-3.769-3.717-3.87-4.549-.101-.831-.206-3.67 2.663-5.327h.001c14.961-8.638 26.733-22.738 33.147-39.701 1.467-3.88 3.52-7.538 6.104-10.874 8.092-10.449 20.468-16.084 33.024-16.084 6.985 0 14.026 1.744 20.414 5.374 10.256 5.828 17.388 15.321 20.081 26.73 2.656 11.254.49 23.215-5.944 32.815zm17.047-8c1.483-5.052 2.216-10.306 2.186-15.583l17.378 5.121c-2.876 3.728-9.899 7.88-19.564 10.462zm.456-28.81c-3.689-14.213-12.736-26.025-25.613-33.342-3.558-2.022-7.273-3.587-11.07-4.719.233-.137.47-.27.69-.421l41.805 13.989c.455.152.915.229 1.373.271 6.944 8.063 11.094 17.976 12.583 30.047zm50.52-11.152c-6.653-1.21-13.422-1.821-20.216-1.821h-2.609c-3.041-8.131-7.479-15.314-13.314-21.479.062-.424.108-.853.116-1.292.079-4.135.018-8.528-.391-12.982 13.757-6.691 24.781-7.727 32.84-3.031 7.265 4.233 12.298 12.773 15.753 22.81-4.599 4.999-8.991 10.959-12.179 17.795zm144.112 336.358c-10.864-33.731-29.601-74.191-61.238-102.394 5.755-18.703 8.253-38.354 8.259-64.129l1.089-59.028c.002-.062.002-.125.002-.188 0-19.904-5.185-39.194-15.06-56.247 3.866-5.29 7.019-11.452 9.411-18.404.25-.726.477-1.455.695-2.186.356.191.709.389 1.055.603 14.787 9.163 16.499 36.699 15.912 46.518-.348 5.482 3.641 10.24 9.11 10.756 1.779.198 43.721 5.545 57.545 67.457 13.686 61.295-27.433 82.076-29.132 82.903-3.543 1.666-5.841 5.207-5.866 9.122-.024 3.915 2.175 7.483 5.697 9.195.94.471 23.011 11.826 23.011 37.59-.001 16.198-11.429 30.016-20.49 38.432z"/><path d="m143.437 297.269c-3.368 0-6.1-2.731-6.1-6.1 0-3.554-2.891-6.445-6.445-6.445s-6.445 2.891-6.445 6.445c0 3.368-2.731 6.1-6.1 6.1s-6.1-2.731-6.1-6.1c0-10.28 8.364-18.644 18.644-18.644s18.644 8.364 18.644 18.644c.002 3.369-2.729 6.1-6.098 6.1z"/><path d="m270.685 297.269c-3.368 0-6.1-2.731-6.1-6.1 0-3.554-2.891-6.445-6.445-6.445s-6.445 2.891-6.445 6.445c0 3.368-2.731 6.1-6.1 6.1-3.368 0-6.1-2.731-6.1-6.1 0-10.28 8.364-18.644 18.644-18.644s18.644 8.364 18.644 18.644c.002 3.369-2.729 6.1-6.098 6.1z"/></g><path d="m139.542 177.972c-1.51 0-3.043-.338-4.488-1.051-5.036-2.483-7.105-8.578-4.622-13.613 9.142-18.541 24.321-23.242 26.021-23.717 0 0 8.225-2.271 11.736 6.329 3.456 8.467-6.092 13.202-6.092 13.202-.336.108-8.293 2.759-13.43 13.177-1.77 3.59-5.376 5.673-9.125 5.673z" fill="#fff"/><path d="m187.549 362.872c-13.609.001-26.244-7.874-32.994-20.571-2.941-5.532-2.765-12.059.471-17.461 3.274-5.466 9.025-8.739 15.383-8.757l34.219-.092c-.002-.012.033-.001.049 0 6.339 0 12.086 3.24 15.381 8.675 3.265 5.384 3.475 11.91.564 17.457-6.698 12.762-19.334 20.712-32.978 20.749-.031 0-.064 0-.095 0zm17.111-34.681-34.219.092c-2.945.008-4.443 1.98-4.951 2.827-.489.816-1.484 2.982-.164 5.464 4.626 8.701 13.137 14.099 22.223 14.099h.062c9.109-.024 17.618-5.473 22.209-14.219 1.306-2.488.299-4.649-.194-5.463-.511-.843-2.015-2.801-4.949-2.801-.005.001-.011.001-.017.001z" fill="#3c122c"/></g></g></svg>