<svg id="Capa_1" enable-background="new 0 0 499.177 499.177" height="512" viewBox="0 0 499.177 499.177" width="512" xmlns="http://www.w3.org/2000/svg"><g><g><path d="m364.984 489.175s35.721-16.761 40.045-47.314-19.846-47.219-19.846-47.219 48.911-15.657 43.932-83.462-50.3-78.767-50.3-78.767 18.502-90.255-71.241-53.111c0 0 22.593-121.582-63.721-81.945l-23.294 217.466z" fill="#ccf3e2"/><path d="m383.444 394.367s52.733-15.193 48.43-86.191c-.774-12.768-10.608-30.983-13.701-40.238 3.652 101.358-70.443 136.524-135.119 72.243-3.471-3.45-19.485 30.318-24.096 28.945l101.356 123.574s38.595-16.664 43.704-48.498c5.11-31.835-20.574-49.835-20.574-49.835z" fill="#b1b6e1"/><path d="m362.657 491.475c-14.765-39.761-38.07-70.835-65.076-91.181l-.01.233c10.941-15.504 19.473-33.151 27.418-61.282l16.841-55.678c5.657-20.03 4.83-40.356-1.227-58.741 6.155-3.515 12.051-8.933 17.247-16.42 15.825-22.803 9.87-62.507 2.769-67.434-7.101-4.928-46.379 3.385-62.204 26.187-.625.901-1.208 1.801-1.771 2.699-7.432-4.437-15.559-7.987-24.286-10.452l-59.748-16.875c-4.462-1.26-8.844-2.131-13.14-2.669.939-5.663.909-12.004-.298-18.937-4.712-27.06-36.512-50.876-44.938-49.409-8.426 1.468-30.304 34.631-25.592 61.69 1.559 8.953 4.631 16.316 8.74 22.053-13.892 8.958-24.553 20.048-30.894 28.855-15.303 21.254-28.733 52.338-28.733 52.338-29.537 15.375-45.448 43.333-43.495 72.111 1.611 23.745 12.349 43.854 29.65 59.946 15.207 14.144 43.141 25.563 59.332 28.653l2.486 1.198c-9.476 31.458-15.54 72.013-15.495 93.116" fill="#fff"/><path d="m259.275 182.91c.095-.438.17-.884.204-1.348 4.32-16.921 3.493-32.914-4.846-47.552 5.218-18.822 4.533-34.867-4.79-47.008.097-22.477-2.699-47.307-7.519-73.786-.406-3.983-6.048-4.394-7.028-.513-7.531 20.347-13.295 39.614-14.092 55.842-8.64 10.856-12.375 23.262-9.533 37.777-7.721 11.279-11.708 24.184-9.965 39.486-9.923 11.321-8.905 24.628-8.934 30.781 1.138 21.012 62.305 25.771 66.503 6.321z" fill="#f6e06e"/><path d="m259.275 182.91c.095-.438.17-.884.204-1.348 3.068-12.017 3.522-23.563.551-34.49-.342 3.232-.933 6.505-1.776 9.821-.026.396-.09.777-.169 1.151-3.544 16.607-57.29 12.088-58.444-5.894-.004-1.016-.043-2.262-.043-3.677-7.656 10.677-6.799 22.44-6.826 28.116 1.138 21.012 62.305 25.771 66.503 6.321z" fill="#dda86a"/><path d="m108.644 158.173c15.655-3.793 29.208-13.211 38.924-26.059 2.76-3.65 6.113-6.968 10.048-9.813 18.797-13.588 45.118-11.269 61.233 5.412 19.221 19.896 17.214 51.519-3.652 68.897-17.965 14.963-40.37 16.819-58.812 10.754-10.743-3.533-33.79-17.556-51.158-28.648-8.408-5.369-6.278-18.194 3.417-20.543z" fill="#ccf3e2"/><path d="m218.849 127.712c-16.115-16.681-42.436-19-61.233-5.412-3.936 2.845-7.288 6.163-10.048 9.813-9.716 12.848-23.268 22.266-38.924 26.059-9.695 2.349-11.825 15.174-3.418 20.543 17.368 11.092 40.415 25.115 51.158 28.648 18.442 6.065 40.847 4.208 58.812-10.754 20.867-17.378 22.874-49 3.653-68.897zm-10.508 43.43c-10.609 13.079-26.363 17.369-40.47 15.469-8.218-1.107-26.814-8.091-40.908-13.729-6.822-2.729-7.223-12.185-.638-15.147 10.633-4.783 18.917-13.312 23.941-23.787 1.427-2.976 3.328-5.793 5.717-8.348 11.411-12.205 30.593-14.026 44.629-4.224 16.742 11.688 20.052 34.575 7.729 49.766z" fill="#b1b6e1"/><path d="m164.918 159.56c-2.421 0-4.848-.874-6.77-2.643-4.064-3.74-4.325-10.066-.585-14.13 13.773-14.961 29.401-15.219 31.137-15.163 0 0 9.905-.705 10.554 9.456.634 9.927-10.645 10.542-10.645 10.542-.347.009-8.592.304-16.33 8.71-1.973 2.143-4.663 3.228-7.361 3.228z" fill="#fff"/><path d="m298.238 400.37c10.889-15.466 19.391-33.088 27.309-61.125l16.841-55.679c5.657-20.03 4.83-40.356-1.227-58.741 6.155-3.514 12.051-8.933 17.247-16.42 15.825-22.803 9.87-62.507 2.769-67.435-3.275-2.273-13.402-1.722-24.912 1.763 4.629 7.765 3.89 43.366-11.686 63.416-5.375 6.92-11.083 11.826-16.769 14.899 2.815 17.88.932 37.372-6.432 56.274l-21.419 52.488c-6.872 17.638-13.375 30.834-20.276 41.905-5.648 9.061-5.276 20.619 1.086 29.194 8.699 11.725 16.211 25.608 22.128 41.419 6.196 16.558-6.591 34.042-24.243 33.061l-146.604-3.265c-1.067 9.358-1.275 12.849-1.261 19.35h252.424c-14.746-39.711-38.013-70.756-64.975-91.104z" fill="#e1bdfc"/><path d="m220.312 396.707c34.022-1.457 57.912 19.275 59.091 46.824-4.421-.544-42.613 10.727-46.208 12.347-5.96 2.685 1.733-8.994-16.557-11.619-9.193-1.319-45.077 19.908-54.88-5.221-9.803-25.127 24.531-40.873 58.554-42.331z" fill="#fff"/><path d="m196.566 400.125c-24.116 6.082-42.278 19.768-34.809 38.914 8.116 20.805 34.11 9.834 48.033 6.192-4.363-15.053-8.204-30.258-13.224-45.106z" fill="#a1e8c3"/><path d="m453.535 66.568 8.214 23.098c.352.989 1.048 1.772 1.927 2.168l20.521 9.246c2.899 1.306 2.899 5.925 0 7.232l-20.521 9.246c-.879.396-1.575 1.18-1.927 2.169l-8.214 23.097c-1.161 3.263-5.264 3.263-6.425 0l-8.214-23.097c-.352-.989-1.048-1.773-1.927-2.169l-20.521-9.246c-2.899-1.306-2.899-5.925 0-7.232l20.521-9.246c.879-.396 1.575-1.179 1.927-2.168l8.214-23.098c1.16-3.263 5.264-3.263 6.425 0z" fill="#fbf2aa"/><path d="m71.04 19.301 6.093 17.133c.261.734.777 1.315 1.429 1.609l15.222 6.858c2.151.969 2.151 4.395 0 5.364l-15.222 6.858c-.652.294-1.168.875-1.429 1.609l-6.093 17.134c-.861 2.421-3.905 2.421-4.766 0l-6.093-17.133c-.261-.734-.777-1.315-1.429-1.609l-15.222-6.858c-2.15-.969-2.15-4.395 0-5.364l15.222-6.858c.652-.294 1.168-.875 1.429-1.609l6.093-17.133c.861-2.422 3.905-2.422 4.766-.001z" fill="#fbf2aa"/><g fill="#f7e16e"><circle cx="24.993" cy="123.588" r="12.187"/><path d="m386.876 41.335c0 5.228-4.238 9.466-9.466 9.466s-9.466-4.238-9.466-9.466 4.238-9.466 9.466-9.466 9.466 4.238 9.466 9.466z"/></g></g><g><path d="m416.314 385.174c11.955-12.764 25.61-36.089 22.773-74.727-4.137-56.32-34.114-77.398-49.27-84.516 1.257-12.7 1.428-36.691-12.104-52.023.181-3.263.186-6.194.114-8.62-.192-6.454-1.589-28.05-11.507-34.933-9.915-6.882-30.637-.636-36.75 1.442-2.717.924-6.061 2.199-9.702 3.873-1.446-18.197-6.613-37.282-20.365-48.001-10.343-8.06-23.654-10.204-39.707-6.475-.33-20.431-2.815-43.235-7.586-69.504-.883-6.321-6.045-11.187-12.459-11.654-6.344-.467-12.111 3.519-13.963 9.544-8.693 23.536-13.186 40.804-14.363 55.315-6.804 9.438-10.355 19.658-10.658 30.521-5.131-8.589-11.388-15.349-15.768-19.528-4.632-4.421-20.687-18.694-32.479-16.623-11.817 2.057-22.085 20.898-24.95 26.624-4.682 9.355-12.049 27.854-8.778 46.633.853 4.897 2.121 9.481 3.784 13.73-4.847 2.73-10.004 4.795-15.344 6.089-6.858 1.661-11.84 7.017-13.001 13.976-.725 4.345.161 8.582 2.375 12.077-4.445 6.429-8.662 13.465-12.422 20.24l-5.071-2.043c-2.964-1.192-6.306.148-7.655 2.994l-.495-.2c-3.815 9.451-4.495 19.342-2.555 28.434-29.479 17.365-46.283 47.192-44.123 79.021 1.734 25.546 12.774 47.95 32.816 66.591 15.033 13.983 39.487 24.548 56.33 29.255-8.365 31.336-13.237 67.326-13.197 86.41.012 5.516 4.486 9.979 9.999 9.979h.021c5.523-.012 9.991-4.498 9.979-10.02-.041-19.613 5.585-58.719 15.071-90.211 1.419-4.712-.801-9.756-5.233-11.893-1.413-.659-3.408-1.782-4.954-2.013-13.861-2.645-40.477-13.205-54.396-26.152-16.195-15.063-25.106-32.996-26.483-53.3-1.596-23.506 10.762-45.745 32.558-59.361 4.514 5.868 10.52 10.605 17.77 13.53 20.889 8.431 44.778-1.063 56.088-21.305l11.108 4.475c-5.486 22.597 7.863 47.125 32.075 56.898 26.381 10.648 55.653-.256 65.379-24.354l-.545-.22c1.085-3.02-.397-6.38-3.398-7.59l-152.384-61.389c3.021-5.346 6.302-10.764 9.695-15.729 20.051 12.453 34.143 20.063 41.926 22.623 7.214 2.372 14.585 3.535 21.857 3.534 15.494 0 30.541-5.277 42.669-15.378.326-.272.636-.56.955-.839 1.67.238 3.334.439 4.966.569 2.063.164 4.185.251 6.328.251 14.922 0 30.775-4.257 33.756-16.64.017-.06.031-.121.046-.181.016-.069.037-.135.052-.205.007-.031.009-.061.015-.092.021-.108.039-.217.055-.326.076-.396.154-.792.197-1.162 1.415-5.654 2.251-11.141 2.514-16.451l1.72.486c7.693 2.173 15.054 5.34 21.877 9.414 4.669 2.785 10.71 1.334 13.599-3.272.569-.909 1.052-1.645 1.515-2.312 11.555-16.65 39.312-24.006 48.029-23.303 3.707 7.908 6.529 36.497-5.025 53.147-4.157 5.988-8.864 10.51-13.991 13.438-4.129 2.357-6.026 7.297-4.539 11.812 5.642 17.122 6.03 35.382 1.126 52.811l-16.812 55.585c-.018.06-.035.118-.052.178-6.866 24.31-14.382 41.428-24.982 56.821-1.671 1.732-2.691 4.041-2.795 6.526l-.01.233c-.167 4.001 2.062 7.67 5.588 9.396 26.072 20.189 46.835 49.689 60.115 85.451 1.496 4.029 5.314 6.521 9.375 6.521.258 0 .518-.014.778-.034.513.081 1.032.132 1.555.132 1.422 0 2.868-.305 4.241-.949 1.658-.778 40.674-19.466 45.698-54.966 2.985-21.096-5.247-36.61-12.89-46.059 4.387-2.874 9.371-6.793 14.274-12.026zm-185.193-315.422c.023-.194.046-.388.058-.582.003-.045.011-.089.013-.135.434-8.841 2.608-18.855 5.354-28.48 1.691 12.675 2.722 24.403 3.115 35.361l-8.557-6.006c.008-.052.01-.105.017-.158zm-5.935 10.665 15.693 11.015c.019.038.042.074.062.112.08.156.165.308.253.459.076.131.152.262.235.391.099.155.205.304.313.453.059.082.109.167.17.247 5.051 6.577 5.722 15.03 2.105 28.464l-22.364-15.591c-.019-.519-.066-1.042-.169-1.567-1.721-8.787-.539-16.548 3.702-23.983zm-69.156-.99c6.313 2.369 20.847 13.848 28.619 28.063-10.692.077-21.408 3.34-30.548 9.948-4.329 3.129-8.138 6.849-11.319 11.056-1.117 1.477-2.289 2.9-3.509 4.268-.291-1.192-.558-2.408-.778-3.671-3.42-19.641 10.921-44.05 17.535-49.664zm55.327 112.573c-14.621 12.177-34.472 15.789-53.098 9.665-7.909-2.602-25.597-12.548-49.804-28.006-2.755-1.76-2.525-4.553-2.39-5.367.136-.812.823-3.521 3.991-4.288 16.516-4.002 31.537-14.043 42.297-28.271 2.462-3.256 5.415-6.139 8.776-8.569 7.154-5.172 15.557-7.7 23.924-7.7 10.81 0 21.562 4.222 29.48 12.419 8.062 8.346 12.159 19.283 11.536 30.798-.614 11.357-5.977 22.044-14.712 29.319zm18.307-2.821c2.801-4.356 4.95-9.111 6.386-14.1l14.98 9.654c-3.748 2.722-11.529 4.693-21.366 4.446zm25.462-16.08-17.039-10.981c.462-14.436-4.799-28.094-14.922-38.574-2.797-2.895-5.868-5.403-9.138-7.524.257-.065.518-.124.767-.206l35.572 24.798c.388.27.801.471 1.221.639 4.316 9.536 5.483 20.043 3.539 31.848zm38.601-18.586c-5.975-2.925-12.218-5.312-18.65-7.129l-9.489-2.68c-1.09-3.83-2.547-7.536-4.372-11.11.177-.383.338-.777.468-1.19 3.023-9.599 5.682-20.916 4.138-32.083 9.124-1.864 16.29-.842 21.376 3.118 10.217 7.952 12.994 27.171 12.991 44.64-2.263 1.955-4.442 4.092-6.462 6.434zm88.406 230.605c-3.631 1.162-6.312 4.269-6.871 8.041-.558 3.772 1.05 7.513 4.188 9.677.779.554 19.045 13.821 15.677 37.623-2.404 16.985-17.603 29.289-26.981 35.374-13.584-32.39-33.089-59.746-57.075-79.965 9.711-15.576 16.943-32.961 23.517-56.214l16.814-55.59c.019-.06.035-.118.052-.178 5.322-18.842 5.571-38.489.783-57.271 5.073-3.975 9.705-8.964 13.829-14.906 1.412-2.035 2.658-4.142 3.762-6.289 1.286 9.796.204 19.946-.81 24.986-1.082 5.276 2.121 10.439 7.357 11.706 1.567.41 38.428 10.725 42.767 69.801 4.304 58.625-35.384 72.658-37.009 73.205z" fill="#3c122c"/><path d="m270.638 405.07c-14.766-12.605-32.818-19.12-50.755-18.354-23.401 1.003-52.695 8.646-64.729 27.096-5.72 8.768-6.658 18.748-2.713 28.861 4.568 11.709 14.327 18.35 27.479 18.697 9.48.249 19.194-2.62 27.004-4.926 3.02-.892 7.109-2.1 8.641-2.234 5.937.947 7.22 3.736 7.806 10.914.135 1.651.263 3.211.804 4.835 1.396 4.191 5.299 6.842 9.486 6.842 1.047 0 2.113-.166 3.162-.516 4.966-1.654 7.769-6.826 6.564-11.822-.03-.276-.052-.603-.082-.968-.268-3.295-.77-9.428-4.009-15.328-2.924-5.328-8.981-12.048-21.236-13.807-1.338-.193-2.715-.192-4.151-.068l-8.199-25.906c4.819-.882 9.88-1.467 15.029-1.688 28.001-1.207 52.484 22.757 54.876 44.164.613 5.489 5.568 9.44 11.049 8.828 5.488-.613 9.441-5.559 8.828-11.049-1.755-15.704-10.814-31.584-24.854-43.571zm-69.377 32.194c-20.247 5.978-27.3 5.544-30.188-1.859-1.586-4.064-1.33-7.354.83-10.665 3.525-5.404 11.685-10.185 22.127-13.481l8.145 25.737c-.306.089-.598.174-.914.268z" fill="#3c122c"/><path d="m84.274 239.566c-2.832 0-5.352-2.014-5.891-4.898-.609-3.258 1.538-6.392 4.795-7l40.838-7.633c3.268-.615 6.392 1.538 7 4.795.609 3.258-1.538 6.392-4.795 7l-40.838 7.633c-.373.07-.744.103-1.109.103z" fill="#fff"/><path d="m177.4 277.542c-2.832 0-5.352-2.014-5.891-4.898-.609-3.258 1.538-6.392 4.795-7l40.838-7.633c3.269-.612 6.392 1.538 7 4.795.609 3.258-1.538 6.392-4.795 7l-40.838 7.633c-.373.07-.744.103-1.109.103z" fill="#fff"/><path d="m151.13 311.613c-2.082 0-4.104-1.084-5.213-3.02-1.159-2.025-3.281-3.26-5.655-3.196-1.944.046-3.735.963-4.912 2.517-2 2.643-5.765 3.162-8.405 1.161-2.642-2.001-3.162-5.764-1.161-8.405 3.4-4.489 8.575-7.139 14.201-7.269 6.721-.191 12.997 3.381 16.347 9.229 1.646 2.876.65 6.542-2.226 8.189-.94.538-1.965.794-2.976.794z" fill="#3c122c"/></g></g></svg>