<svg id="Capa_1" enable-background="new 0 0 512 512" height="512" viewBox="0 0 512 512" width="512" xmlns="http://www.w3.org/2000/svg"><g><g><path d="m123.847 500.798s-36.014-22.918-36.014-55.658 28.647-46.654 28.647-46.654-50.426-23.719-34.687-94.21 66.355-75.269 66.355-75.269-6.188-97.566 85.049-45.204c0 0-5.818-131.084 81.335-76.613l-8.077 231.917z" fill="#a1e8c3"/><path d="m115.972 396.365s-43.373-21.899-36.796-66.296c4.933 20.554 45.437 95.542 127.535-10.012 3.051-3.922 33.289 71.668 38.134 71.033l-121.507 107.588s-36.014-22.918-36.014-55.658 28.648-46.655 28.648-46.655z" fill="#85adc2"/><path d="m123.817 501.063c11.955-43.519 33.465-88.886 67.588-116.504-6.413-18.171-9.88-37.77-9.88-67.453l-1.089-59.058c0-21.135 6.418-40.77 17.412-57.064-5.044-5.133-9.311-12.056-12.322-20.806-9.171-26.651 7.607-63.807 15.906-66.662 8.299-2.856 44.388 16.108 53.559 42.759.362 1.053.683 2.093.985 3.126 8.487-2.285 17.409-3.511 26.618-3.511h63.045c4.708 0 9.231.359 13.577 1.019.645-5.793 2.425-11.982 5.518-18.423 12.073-25.143 49.722-39.639 57.551-35.88 7.829 3.76 20.055 42.206 7.982 67.348-3.995 8.319-9.029 14.666-14.627 19.139 11.103 12.588 18.46 26.367 22.227 36.724 9.089 24.994 13.633 59.076 13.633 59.076 24.62 23.177 32.453 54.89 22.601 82.473-8.129 22.76-24.171 39.446-45.519 50.396-18.764 9.624-49.214 13.074-65.889 11.624 9.267 20.386 14.16 49.732 17.448 71.677z" fill="#ccf3e2"/><path d="m452.138 276.451s-1.372-49.047-16.911-70.63c-6.439-8.943 5.118-21.199-8.989-30.295 4.172-5.826 7.292-13.303 8.875-22.394 4.785-27.478-5.736-58.706-14.292-60.196-3.816-.664-12.354 3.788-21.067 11.352.627-.057 1.182-.039 1.651.066 7.667 1.707 14.621 30.619 9.14 55.241-1.814 8.146-4.947 14.77-8.962 19.857 12.361 8.812-.717 20.436 4.723 28.788 13.129 20.153 14.005 73.939 14.005 73.939 24.041 23.29 23.187 44.074 20.285 57.474-4.626 21.361-13.899 36.813-33.795 49.091-14.119 8.713-36.665 9.112-49.599 14.018-10.024 3.802-18.689 9.615-17.944 20.619.664 9.808 1.04 17.321.288 31.22-.697 12.889-11.006 23.817-23.899 23.215l-178.8-.443c-6.68 11.35-6.143 10.469-11.103 23.825h256.323c.045-21.429-3.315-39.896-12.937-71.84l2.524-1.216c16.441-3.137 60.698-11.19 76.14-25.552 17.568-16.34 26.144-33.178 30.208-57.001 3.582-21 2.487-41.285-25.864-69.138z" fill="#b1b6e1"/><path d="m286.265 172.884c.033-.454.087-.91.187-1.371.638-17.722 6.023-33.066 18.339-44.938.307-19.831 5.57-35.267 18.13-44.424 6.343-21.925 16.178-45.315 28.457-69.731 1.536-3.764 7.151-2.549 6.993 1.513 1.51 21.98 1.607 42.4-2.264 58.438 5.308 13.051 5.394 26.206-1.531 39.533 4.291 13.2 4.48 26.913-1.601 41.322 6.425 13.871 1.622 26.543-.112 32.546-7.125 20.143-68.078 7.263-66.598-12.888z" fill="#c2b2eb"/><path d="m286.265 172.884c.033-.454.087-.91.187-1.371.453-12.586 3.317-23.964 9.341-33.759-.593 3.246-.954 6.605-1.083 10.076-.088.393-.135.783-.165 1.17-1.303 17.194 52.352 28.184 58.625 10.996.295-.988.69-2.191 1.095-3.57 4.4 12.594.197 23.808-1.402 29.346-7.125 20.143-68.078 7.263-66.598-12.888z" fill="#ae85ea"/><path d="m440.098 191.923c-14.165-8.179-24.672-21.235-30.457-36.535-1.643-4.346-3.96-8.539-6.979-12.437-14.421-18.621-40.727-23.9-61.204-12.264-24.423 13.878-31.524 45.261-16.173 68.167 13.217 19.722 34.513 27.947 54.216 27.32 11.478-.365 37.947-7.427 58.044-13.259 9.728-2.822 11.325-15.927 2.553-20.992z" fill="#a1e8c3"/><path d="m325.284 198.854c13.217 19.722 34.513 27.947 54.216 27.32 11.478-.366 37.947-7.427 58.044-13.259 9.728-2.823 11.326-15.927 2.554-20.993-14.165-8.179-24.672-21.235-30.457-36.535-1.643-4.346-3.96-8.539-6.979-12.438-14.421-18.621-40.727-23.9-61.204-12.264-24.424 13.88-31.525 45.262-16.174 68.169zm35.754-69.12c16.481-5.53 34.647 1.738 42.269 16.897 1.596 3.174 2.641 6.463 3.179 9.77 1.894 11.644 7.522 22.326 16.512 30.031 5.567 4.772 2.469 13.869-4.959 14.574-15.345 1.457-35.462 2.935-43.785 1.66-14.287-2.188-28.406-10.88-34.997-26.66-7.655-18.329 2.124-39.677 21.781-46.272z" fill="#85adc2"/><path d="m347.546 337.941h28.765v173.307h-28.765z" fill="#f6e06e" transform="matrix(-1 0 0 -1 723.856 849.189)"/><path d="m318.781 337.941h28.765v173.307h-28.765z" fill="#96b4eb" transform="matrix(-1 0 0 -1 666.326 849.189)"/><path d="m376.31 337.941h28.764v142.321c2.289-.57 4.719-.879 7.239-.879 13.628 0 27.518 8.982 27.518 20.061v12.086l-37.26-.282h-26.261z" fill="#d789b9"/><ellipse cx="447.117" cy="453.292" fill="#f6e06e" rx="13.012" ry="13.012" transform="matrix(.987 -.16 .16 .987 -66.59 77.137)"/><circle cx="283.745" cy="480.563" fill="#96b4eb" r="13.012"/><circle cx="259.865" cy="430.089" fill="#d789b9" r="16.71"/><path d="m63.459 154.063 8.341 23.454c.357 1.004 1.064 1.8 1.956 2.202l20.838 9.389c2.944 1.326 2.944 6.017 0 7.343l-20.838 9.389c-.892.402-1.599 1.198-1.956 2.202l-8.341 23.454c-1.179 3.314-5.346 3.314-6.524 0l-8.341-23.454c-.357-1.004-1.064-1.8-1.956-2.202l-20.838-9.389c-2.944-1.326-2.944-6.017 0-7.343l20.838-9.389c.892-.402 1.599-1.198 1.956-2.202l8.341-23.454c1.178-3.313 5.345-3.313 6.524 0z" fill="#c2b2eb"/><path d="m160.574 9.366 6.187 17.398c.265.745.789 1.335 1.451 1.633l15.458 6.964c2.184.984 2.184 4.463 0 5.447l-15.458 6.964c-.662.298-1.186.888-1.451 1.633l-6.187 17.398c-.874 2.458-3.965 2.458-4.84 0l-6.188-17.398c-.265-.745-.789-1.335-1.451-1.633l-15.458-6.964c-2.184-.984-2.184-4.463 0-5.447l15.458-6.964c.662-.298 1.186-.888 1.451-1.633l6.188-17.398c.875-2.458 3.966-2.458 4.84 0z" fill="#c2b2eb"/><g fill="#9781dd"><ellipse cx="97.637" cy="106.696" rx="12.376" ry="12.376" transform="matrix(.123 -.993 .993 .123 -20.22 190.521)"/><path d="m254.556 39.768c0 5.309-4.304 9.612-9.612 9.612-5.309 0-9.612-4.303-9.612-9.612 0-5.308 4.303-9.612 9.612-9.612 5.308 0 9.612 4.304 9.612 9.612z"/></g></g><g><path d="m387.746 177.572c-3.745.001-7.347-2.079-9.115-5.665-5.131-10.405-13.079-13.054-13.415-13.162 0 0-8.568-3.411-5.393-12.423s11.031-7.086 11.031-7.086c1.699.474 16.859 5.169 25.991 23.688 2.481 5.03.414 11.118-4.616 13.599-1.443.712-2.975 1.049-4.483 1.049z" fill="#fff"/><g fill="#3c122c"><path d="m414.267 301.423c-1.004 0-2.023-.25-2.963-.775-3.34-1.865-14.345-8.576-15.753-16.601-1.614-9.203 10.322-16.481 15.529-19.183 2.989-1.548 6.665-.384 8.214 2.602s.386 6.662-2.599 8.213c-3.763 1.964-7.796 5.03-8.927 6.716 1.086 1.806 5.39 5.319 9.483 7.618 2.932 1.647 3.979 5.358 2.336 8.292-1.117 1.994-3.187 3.118-5.32 3.118z"/><path d="m302.194 304.469c-2.287 0-4.478-1.293-5.517-3.499-1.432-3.043-.128-6.671 2.913-8.106 3.99-1.897 8.267-5.205 8.836-6.807-.443-1.52-4.657-5.07-9.218-7.226-3.038-1.436-4.345-5.063-2.915-8.105 1.43-3.039 5.046-4.353 8.091-2.927 2.561 1.199 15.381 7.669 16.21 17.333.866 10.089-11.882 16.906-15.809 18.755-.838.396-1.722.582-2.591.582zm6.269-18.531v.001c0-.001 0-.001 0-.001z"/><path d="m461.058 280.03c-1.44-9.556-5.927-36.447-13.649-57.685-.761-2.092-1.617-4.208-2.555-6.331 3.818-2.799 6.352-7.056 6.955-12.027.862-7.112-2.458-13.756-8.664-17.34-2.659-1.536-5.191-3.292-7.595-5.226 1.381-2.232 2.677-4.585 3.871-7.072 8.379-17.448 6.286-37.559 4.292-47.993-1.22-6.386-6.053-27.631-17.033-32.905-10.982-5.276-30.583 4.238-36.329 7.281-6.179 3.27-15.64 9.151-23.783 17.75-1.336-.043-2.675-.031-4.014.025-.019-.097-.031-.194-.05-.291.401-.504.775-1.037 1.083-1.63 7.494-14.422 8.529-29.535 3.092-44.971 3.009-14.474 3.577-32.584 1.849-58.003-.078-6.401-4.551-11.929-10.87-13.296-6.386-1.385-12.804 1.88-15.475 7.785-12.7 25.279-21.904 47.6-28.092 68.118-4.642 4.039-7.949 8.743-10.296 13.773-18.633-8.105-34.756-8.302-48.073-.531-9.094 5.308-16.347 14.106-21.721 26.254-.117-.081-.243-.172-.357-.251-5.401-3.718-23.922-15.538-35.516-11.553-11.591 3.989-18.916 24.707-20.885 30.961-1.875 5.954-4.163 15.194-4.497 25.517-3.292 1.046-6.406 2.467-9.329 4.285-20.913 13.011-24.833 41.612-25.421 56.16-5.909 1.737-14.073 4.981-22.857 10.991-14.847 10.161-34.404 30.594-43.256 70.236-8.952 40.095 2.192 66.556 13.118 81.695 4.538 6.287 9.429 11.194 13.792 14.88-9.685 8.679-21.114 23.741-21.114 46.502 0 33.599 30.708 57.276 38.812 62.939 1.228 1.284 2.799 2.27 4.637 2.775.9.248 1.805.366 2.696.366 4.458 0 8.548-2.96 9.785-7.467 13.521-49.217 36.316-88.745 64.185-111.301 3.341-2.704 4.618-7.22 3.187-11.273-6.519-18.471-9.301-37.633-9.301-64.073 0-.062-.001-.125-.002-.187l-1.088-58.962c.018-18.384 5.437-36.119 15.675-51.293 2.7-4.002 2.209-9.352-1.175-12.796-4.203-4.277-7.554-9.995-9.964-16.994-6.696-19.459 3.952-46.618 9.758-53.323 8.7 1.711 33.807 16.566 40.504 36.028.27.786.538 1.635.842 2.674 1.551 5.299 7.05 8.388 12.385 6.952 7.188-1.935 14.61-2.978 22.09-3.131-.142 1.561-.259 3.138-.325 4.748-.073.425-.126.874-.166 1.343-.004.033-.006.065-.009.098-.005.057-.012.11-.016.168 0 .002-.001.004-.001.006-.004.059-.002.115-.006.173-.004.089-.009.177-.009.266-.703 14.752 17.988 23.979 34.357 27.411 1.627.341 3.305.62 5 .866.231.364.451.733.691 1.092 12.69 18.937 33.921 30.058 57.149 30.056.771 0 1.548-.012 2.323-.037 8.144-.259 23.543-3.494 45.862-9.626 1.295 2.803 2.201 5.094 2.766 6.648 8.594 23.636 13.067 56.62 13.111 56.95.309 2.314 1.406 4.451 3.105 6.05 21.047 19.813 28.71 47.273 19.999 71.664-6.951 19.462-20.607 34.527-40.591 44.777-3.59 1.842-7.703 3.418-12.08 4.761v-49.825c.926.516 1.939.779 2.949.779 1.865 0 3.707-.854 4.902-2.468 2.002-2.704 1.432-6.52-1.273-8.521-4.246-3.143-6.681-7.768-6.681-12.687 0-5.211 2.806-10.169 7.507-13.263 2.811-1.849 3.589-5.629 1.739-8.439-1.85-2.812-5.631-3.59-8.439-1.739-7.033 4.629-11.609 11.808-12.722 19.693-10.487-3.134-24.032-4.883-38.539-4.883-14.577 0-28.393 1.82-38.929 5.008-1.081-7.933-5.671-15.163-12.741-19.817-2.811-1.85-6.589-1.073-8.439 1.739-1.85 2.81-1.072 6.589 1.739 8.439 4.7 3.094 7.506 8.052 7.506 13.263 0 4.921-2.435 9.545-6.68 12.687-2.705 2.001-3.274 5.817-1.273 8.521 1.195 1.614 3.036 2.468 4.902 2.468 1.259 0 2.53-.389 3.62-1.196.172-.127.334-.264.503-.395v143.056c0 3.365 2.728 6.093 6.093 6.093s6.093-2.728 6.093-6.093v-156.392c4.925-1.698 11.036-3.038 17.813-3.931v160.324c0 3.365 2.728 6.093 6.093 6.093s6.093-2.728 6.093-6.093v-161.4c2.504-.12 5.044-.188 7.609-.188 3.465 0 6.878.116 10.204.327v161.262c0 3.365 2.728 6.093 6.093 6.093s6.093-2.728 6.093-6.093v-159.97c6.075.927 11.525 2.228 15.981 3.845v126.019c0 3.314 2.65 6.021 5.963 6.092l4.063.086c.043.001.086.001.13.001 13.006 0 23.587 10.581 23.587 23.587 0 3.365 2.728 6.093 6.093 6.093s6.093-2.728 6.093-6.093c0-19.044-14.959-34.66-33.743-35.716v-35.283c7.622-1.955 14.976-4.503 21.349-7.772 24.729-12.684 41.702-31.53 50.448-56.016 11.09-31.057 2.417-65.514-22.606-90.751zm-290.775-21.795 1.088 58.966c.006 25.743 2.501 45.371 8.249 64.05-31.6 28.171-50.316 68.585-61.167 102.278-9.051-8.406-20.466-22.208-20.466-38.389 0-25.735 22.046-37.077 22.929-37.52 3.518-1.709 5.743-5.286 5.718-9.198-.025-3.911-2.293-7.46-5.832-9.125-.431-.202-42.906-20.972-29.099-82.809 13.808-61.841 55.703-67.183 57.399-67.372 5.448-.515 9.507-5.272 9.181-10.735-.587-9.825 1.123-37.329 15.893-46.482.345-.214.698-.41 1.054-.601.217.729.444 1.457.694 2.183 2.39 6.945 5.539 13.1 9.4 18.383-9.863 17.034-15.042 36.301-15.042 56.183 0 .063 0 .125.001.188zm247.402-146.051c4.884 7.269 12.094 34.779 3.581 53.03-2.33-3.745-4.327-7.753-5.926-11.982-1.895-5.009-4.539-9.723-7.861-14.012-4.782-6.175-10.729-11.037-17.321-14.507 10.398-7.564 22.189-12.081 27.527-12.529zm-68.509-71.474c-.081 10.161-.83 20.54-2.939 29.278-.011.045-.015.089-.025.134-.044.195-.078.391-.111.589-.009.051-.021.103-.029.154l-10.057 3.4c3.522-10.562 7.884-21.692 13.161-33.555zm-20.273 49.645c.006-.005.012-.01.019-.015.259-.189.508-.392.749-.605.053-.048.102-.098.154-.146.176-.164.348-.332.513-.509.016-.016.033-.031.048-.048l18.442-6.236c2.003 8.458.931 16.356-3.262 24.425-.251.483-.446.978-.613 1.478l-26.252 8.784c.324-14.124 3.398-22.167 10.202-27.128zm-43.703 55.38h-2.606c-6.787 0-13.548.61-20.194 1.82-3.167-6.792-7.525-12.717-12.091-17.694 3.446-10.077 8.454-18.659 15.649-22.858 8.052-4.699 19.07-3.661 32.815 3.022-.408 4.45-.469 8.836-.39 12.965.008.439.054.867.116 1.29-5.829 6.159-10.261 13.334-13.299 21.455zm8.576 31.286 17.358-5.115c-.03 5.27.702 10.518 2.183 15.564-9.653-2.578-16.668-6.725-19.541-10.449zm19.086-18.326-19.745 5.818c1.487-12.057 5.633-21.96 12.569-30.014.458-.043.917-.119 1.371-.272l41.757-13.972c.22.151.457.283.69.42-3.793 1.13-7.504 2.694-11.058 4.714-12.862 7.31-21.899 19.109-25.584 33.306zm126.85 43.826c-.101.832-.678 3.618-3.865 4.543-28.008 8.128-48.088 12.752-56.541 13.021-19.886.65-38.204-8.573-48.961-24.623-6.427-9.589-8.591-21.536-5.937-32.778 2.69-11.396 9.814-20.879 20.059-26.7 6.382-3.627 13.413-5.369 20.391-5.369 12.541 0 24.904 5.63 32.987 16.066 2.58 3.331 4.632 6.986 6.097 10.861 6.407 16.944 18.165 31.028 33.11 39.657 2.865 1.656 2.76 4.492 2.66 5.322z"/><path d="m447.117 472.397c-10.534 0-19.105-8.571-19.105-19.105s8.57-19.104 19.105-19.104 19.105 8.57 19.105 19.104-8.571 19.105-19.105 19.105zm0-26.024c-3.815 0-6.919 3.104-6.919 6.919 0 3.816 3.104 6.92 6.919 6.92s6.919-3.104 6.919-6.92c0-3.815-3.103-6.919-6.919-6.919z"/><path d="m283.745 499.668c-10.534 0-19.105-8.57-19.105-19.104s8.57-19.105 19.105-19.105c10.534 0 19.104 8.571 19.104 19.105.001 10.534-8.569 19.104-19.104 19.104zm0-26.024c-3.815 0-6.919 3.104-6.919 6.92 0 3.815 3.104 6.919 6.919 6.919s6.919-3.104 6.919-6.919c.001-3.816-3.103-6.92-6.919-6.92z"/><path d="m259.865 452.892c-12.574 0-22.803-10.23-22.803-22.803s10.229-22.803 22.803-22.803 22.803 10.23 22.803 22.803-10.229 22.803-22.803 22.803zm0-33.421c-5.855 0-10.618 4.763-10.618 10.617s4.763 10.618 10.618 10.618 10.618-4.763 10.618-10.618-4.763-10.617-10.618-10.617z"/></g></g></g></svg>