<svg id="Capa_1" enable-background="new 0 0 512 512" height="512" viewBox="0 0 512 512" width="512" xmlns="http://www.w3.org/2000/svg"><g><g><path d="m448.24 501.562s36.069-22.953 36.069-55.743-28.691-46.726-28.691-46.726 50.503-23.755 34.74-94.354-66.457-75.384-66.457-75.384 6.197-97.715-85.179-45.273c0 0 5.827-131.284-81.459-76.73l8.09 232.272z" fill="#ccf3e2"/><path d="m454.281 399.67s50.503-23.755 34.74-94.354c-2.835-12.697-15.646-29.402-20.242-38.197 20.003 101.19-48.732 148.444-124.036 94.319-4.041-2.905-14.679 33.584-19.531 32.948l121.692 107.752s36.069-22.953 36.069-55.743c-.001-32.789-28.692-46.725-28.692-46.725z" fill="#b1b6e1"/><path d="m448.27 501.827c-11.974-43.586-33.516-89.022-67.692-116.682 6.423-18.198 9.895-37.828 9.895-67.556l1.091-59.148c0-21.167-6.428-40.832-17.438-57.151 5.052-5.141 9.325-12.074 12.341-20.838 9.185-26.692-7.619-63.905-15.93-66.765-8.312-2.86-44.456 16.133-53.641 42.825-.363 1.055-.684 2.096-.987 3.131-8.5-2.288-17.435-3.516-26.658-3.516h-63.141c-4.715 0-9.245.359-13.598 1.02-.646-5.802-2.428-12-5.526-18.451-12.092-25.181-49.798-39.7-57.639-35.935-7.841 3.766-20.086 42.27-7.994 67.451 4.001 8.332 9.042 14.689 14.65 19.168-11.12 12.607-18.488 26.408-22.26 36.78-9.102 25.032-13.654 59.166-13.654 59.166-24.658 23.212-32.502 54.974-22.636 82.599 8.141 22.794 24.208 39.507 45.589 50.474 18.793 9.639 49.289 13.094 65.99 11.642-9.281 20.417-14.182 49.808-17.475 71.787h256.713z" fill="#fff"/><path d="m380.578 385.145c6.423-18.198 9.895-37.828 9.895-67.556l1.091-59.148c0-21.167-6.428-40.832-17.438-57.151 5.052-5.141 9.325-12.074 12.341-20.838 9.185-26.692-7.619-63.905-15.93-66.765-3.922-1.35-5.042-.501-15.602 6.395 6.543 12.277 11.035 28.079 9.38 47.942-1.042 12.507-17.216 25.739-21.446 30.631 9.219 15.526 16.276 67.756 16.276 87.896l-.276 15.017c0 20.613-8.841 48.633-13.629 67.841-2.793 11.201-4.352 21.267 4.019 29.215 11.256 10.687 19.974 20.971 27.471 39.892 8.346 21.063-7.251 43.907-29.908 43.907h-152.135c-1.201 6.797-2.23 13.383-3.132 19.404h256.715c-11.974-43.585-33.516-89.022-67.692-116.682z" fill="#e1bdfc"/><path d="m285.573 173.146c-.033-.455-.087-.912-.187-1.373-.639-17.749-6.032-33.117-18.367-45.007-.307-19.862-5.578-35.321-18.157-44.492-6.353-21.958-16.203-45.384-28.501-69.838-1.538-3.769-7.162-2.553-7.004 1.516-1.512 22.013-1.609 42.465 2.267 58.528-5.316 13.071-5.402 26.247 1.534 39.593-4.298 13.22-4.487 26.955 1.603 41.385-6.434 13.892-1.625 26.583.112 32.595 7.137 20.175 68.183 7.275 66.7-12.907z" fill="#f6e06e"/><path d="m285.573 173.146c-.033-.455-.087-.912-.187-1.373-.454-12.605-3.322-24-9.356-33.811.594 3.251.955 6.615 1.084 10.091.088.394.136.784.165 1.172 1.305 17.22-52.432 28.227-58.715 11.012-.295-.99-.691-2.195-1.097-3.576-4.407 12.613-.198 23.845 1.405 29.391 7.138 20.176 68.184 7.276 66.701-12.906z" fill="#dda86a"/><path d="m131.505 192.215c14.187-8.192 24.71-21.268 30.504-36.591 1.646-4.352 3.966-8.552 6.99-12.456 14.443-18.65 40.79-23.937 61.298-12.283 24.46 13.899 31.572 45.33 16.198 68.272-13.237 19.753-34.566 27.99-54.299 27.362-11.496-.366-38.005-7.438-58.133-13.279-9.744-2.828-11.344-15.952-2.558-21.025z" fill="#ccf3e2"/><path d="m230.297 130.885c-20.508-11.653-46.855-6.366-61.298 12.283-3.024 3.905-5.344 8.104-6.99 12.457-5.794 15.323-16.317 28.399-30.504 36.591-8.786 5.073-7.186 18.197 2.558 21.024 20.128 5.841 46.637 12.913 58.133 13.279 19.733.628 41.062-7.61 54.299-27.362 15.374-22.942 8.262-54.373-16.198-68.272zm2.204 45.388c-6.6 15.804-20.741 24.509-35.05 26.701-8.336 1.277-28.484-.203-43.852-1.662-7.439-.706-10.542-9.817-4.967-14.597 9.003-7.717 14.64-18.415 16.537-30.077.539-3.313 1.586-6.607 3.184-9.786 7.633-15.182 25.827-22.461 42.333-16.923 19.687 6.606 29.481 27.987 21.815 46.344z" fill="#b1b6e1"/><path d="m183.938 177.843c-1.511 0-3.044-.338-4.49-1.051-5.038-2.484-7.108-8.581-4.624-13.619 9.146-18.548 24.33-23.251 26.031-23.727 0 0 10.559-2.857 12.978 7.184s-7.332 12.355-7.332 12.355c-.336.108-8.296 2.761-13.436 13.183-1.769 3.591-5.377 5.674-9.127 5.675z" fill="#fff"/><ellipse cx="303.501" cy="340.11" fill="#e8c2d8" rx="31.423" ry="25.604"/><ellipse cx="143.257" cy="340.11" fill="#e8c2d8" rx="31.423" ry="25.604"/><path d="m86.816 203.68c-3.057-10.14-13.587-16.171-23.956-13.543-8.219 2.083-13.931 8.999-14.882 16.942-4.62-6.531-12.937-9.89-21.156-7.807-10.185 2.582-16.522 12.583-14.714 22.767 1.618 20.757 49.801 42.897 49.801 42.897s32.978-42.631 24.907-61.256z" fill="#e8a284"/><path d="m86.816 203.68c-3.057-10.14-13.587-16.171-23.956-13.543-3.35.849-6.977 6.58-9.342 8.777 10.328-6.56 17.277-1.122 19.696 6.884 4.251 9.756-5.404 26.824-12.867 38.198-4.021 6.127-10.922 7.661-17.67 4.808-6.071-2.567-11.997-5.257-17.681-10.137 1.813 3.003 2.062 4.052 4.375 6.687 14.393 11.241 32.539 19.582 32.539 19.582s32.977-42.631 24.906-61.256z" fill="#d57b84"/><path d="m476.969 54.657 8.354 23.49c.358 1.006 1.066 1.803 1.959 2.205l20.87 9.403c2.948 1.328 2.948 6.026 0 7.355l-20.87 9.403c-.894.403-1.602 1.2-1.959 2.205l-8.354 23.49c-1.18 3.319-5.354 3.319-6.534 0l-8.354-23.49c-.358-1.006-1.066-1.803-1.959-2.205l-20.87-9.403c-2.948-1.328-2.948-6.026 0-7.355l20.87-9.403c.894-.403 1.602-1.2 1.959-2.205l8.354-23.49c1.18-3.319 5.354-3.319 6.534 0z" fill="#fbf2aa"/><path d="m76.281 2.029 6.197 17.425c.265.746.791 1.337 1.453 1.636l15.481 6.975c2.187.985 2.187 4.47 0 5.455l-15.481 6.975c-.663.299-1.188.89-1.453 1.636l-6.197 17.425c-.875 2.462-3.971 2.462-4.847 0l-6.197-17.425c-.265-.746-.79-1.337-1.453-1.636l-15.482-6.975c-2.187-.985-2.187-4.47 0-5.455l15.481-6.975c.663-.299 1.188-.89 1.453-1.636l6.197-17.425c.876-2.462 3.972-2.462 4.848 0z" fill="#fbf2aa"/><g fill="#f7e16e"><circle cx="369.435" cy="35.235" r="12.395"/><path d="m25.827 112.256c0 5.317-4.31 9.627-9.627 9.627s-9.627-4.31-9.627-9.627c0-5.316 4.31-9.627 9.627-9.627 5.317.001 9.627 4.311 9.627 9.627z"/></g></g><g fill="#3c122c"><path d="m473.332 399.246c4.37-3.693 9.268-8.606 13.813-14.903 10.942-15.161 22.104-41.663 13.138-81.819-8.865-39.703-28.452-60.167-43.322-70.343-8.797-6.02-16.974-9.269-22.892-11.008-.589-14.571-4.514-43.215-25.46-56.246-2.929-1.822-6.047-3.249-9.344-4.299-.336-10.336-2.627-19.587-4.504-25.549-1.972-6.264-9.309-27.014-20.918-31.008-11.612-3.999-30.16 7.846-35.569 11.57-.113.078-.239.169-.354.249-5.381-12.168-12.649-20.976-21.758-26.293-13.337-7.783-29.485-7.587-48.147.531-2.351-5.038-5.663-9.748-10.312-13.794-6.198-20.549-15.417-42.906-28.135-68.221-2.674-5.914-9.104-9.178-15.497-7.798-6.33 1.369-10.811 6.906-10.889 13.317-1.73 25.458-1.161 43.595 1.852 58.091-5.446 15.459-4.409 30.596 3.096 45.039.309.594.684 1.128 1.085 1.633-.019.097-.034.194-.053.291-1.355-.057-2.71-.068-4.062-.023-8.141-8.612-17.591-14.506-23.775-17.779-5.755-3.046-25.386-12.569-36.385-7.292-10.996 5.281-15.837 26.559-17.058 32.955-1.996 10.451-4.092 30.591 4.299 48.067 1.196 2.491 2.492 4.848 3.876 7.083-2.407 1.937-4.943 3.696-7.606 5.234v-.001c-6.216 3.589-9.54 10.243-8.677 17.366.604 4.98 3.143 9.243 6.967 12.047-.939 2.127-1.799 4.245-2.561 6.341-7.734 21.27-12.227 48.201-13.669 57.772-25.062 25.275-33.748 59.785-22.64 90.889 8.758 24.522 25.757 43.398 50.525 56.102 16.154 8.285 38.558 12.073 55.822 12.889-5.978 18.406-9.761 40.214-12.723 59.984-.832 5.555 2.996 10.732 8.551 11.564 5.551.832 10.732-2.996 11.564-8.551 3.58-23.898 8.361-50.795 16.676-69.086 1.496-3.291 1.133-7.128-.954-10.08-2.087-2.951-5.583-4.575-9.185-4.26-14.299 1.242-43.263-1.734-60.467-10.559-20.014-10.266-33.692-25.354-40.653-44.845-8.724-24.428-1.049-51.931 20.03-71.774 1.702-1.602 2.801-3.743 3.11-6.061.044-.331 4.505-33.315 13.131-57.035.566-1.556 1.475-3.855 2.77-6.659 22.353 6.142 37.776 9.382 45.933 9.641.779.025 1.553.037 2.327.037 23.26-.001 44.527-11.138 57.235-30.1.241-.359.461-.73.693-1.095 1.697-.246 3.377-.525 5.005-.867 16.394-3.437 35.116-12.679 34.412-27.453 0-.09-.005-.179-.009-.268-.004-.058-.001-.113-.005-.171 0-.002-.001-.004-.001-.006-.004-.057-.011-.109-.016-.165-.003-.034-.006-.068-.01-.102-.041-.469-.094-.918-.167-1.344-.066-1.612-.184-3.191-.326-4.754 7.491.153 14.925 1.197 22.124 3.135 5.339 1.438 10.853-1.658 12.405-6.967.301-1.029.569-1.88.842-2.675 6.707-19.491 31.852-34.369 40.566-36.084 5.814 6.713 16.479 33.914 9.772 53.405-2.412 7.01-5.769 12.736-9.978 17.019-3.39 3.449-3.882 8.808-1.177 12.817 10.253 15.197 15.681 32.959 15.699 51.371l-1.09 59.052c-.001.063-.001.125-.001.188 0 26.48-2.786 45.672-9.315 64.172-1.433 4.06-.155 8.581 3.192 11.29 27.912 22.591 50.742 62.178 64.284 111.471 1.24 4.514 5.335 7.478 9.8 7.478.892 0 1.799-.118 2.7-.366 1.84-.505 3.414-1.493 4.643-2.778 8.114-5.67 38.872-29.384 38.872-63.036.002-22.795-11.445-37.882-21.145-46.573zm-237.585-324.869-10.072-3.406c-.007-.046-.018-.092-.026-.138-.034-.205-.069-.409-.115-.611-.01-.043-.014-.086-.024-.129-2.111-8.75-2.862-19.146-2.943-29.323 5.284 11.881 9.653 23.028 13.18 33.607zm-12.832 8.544 18.471 6.246c.016.016.033.032.049.048.162.173.331.339.504.501.056.051.108.105.165.155.239.212.486.413.743.601.008.005.015.012.023.018 6.815 4.97 9.894 13.024 10.219 27.17l-26.293-8.798c-.167-.501-.363-.997-.614-1.48-4.2-8.08-5.273-15.991-3.267-24.461zm-68.963 29.433c5.346.449 17.147 4.978 27.558 12.553-6.598 3.475-12.55 8.343-17.337 14.524-3.327 4.296-5.975 9.018-7.872 14.034-1.602 4.235-3.602 8.249-5.935 11.999-8.525-18.279-1.305-45.829 3.586-53.11zm87.473 83.406c-10.773 16.076-29.122 25.291-49.036 24.66-8.466-.27-28.576-4.901-56.627-13.04-3.193-.927-3.77-3.717-3.871-4.551-.101-.831-.207-3.672 2.664-5.329v-.001c14.967-8.642 26.744-22.747 33.161-39.717 1.467-3.881 3.522-7.541 6.106-10.878 8.095-10.453 20.477-16.09 33.038-16.09 6.987 0 14.031 1.745 20.421 5.376 10.26 5.83 17.395 15.327 20.089 26.741 2.659 11.259.492 23.224-5.945 32.829zm17.054-8.004c1.484-5.054 2.216-10.31 2.187-15.589l17.385 5.123c-2.878 3.73-9.903 7.883-19.572 10.466zm.456-28.821c-3.69-14.218-12.741-26.034-25.623-33.355-3.559-2.022-7.275-3.589-11.074-4.721.232-.137.47-.269.689-.421l41.822 13.994c.455.152.915.229 1.373.272 6.947 8.066 11.099 17.983 12.588 30.059zm50.539-11.156c-6.656-1.211-13.427-1.822-20.224-1.822h-2.61c-3.043-8.134-7.482-15.32-13.319-21.488.062-.424.108-.853.116-1.293.079-4.132.018-8.52-.389-12.972 13.757-6.69 24.789-7.744 32.851-3.047 7.267 4.234 12.313 12.767 15.771 22.807-4.604 5.005-9.004 10.97-12.196 17.815zm144.168 336.488c-10.867-33.744-29.612-74.22-61.261-102.434 5.757-18.709 8.256-38.367 8.262-64.149l1.09-59.055c.001-.063.001-.125.001-.188 0-19.912-5.187-39.21-15.065-56.269 3.867-5.293 7.021-11.456 9.415-18.411.249-.724.477-1.452.693-2.18.356.191.712.382 1.057.596 14.792 9.166 16.505 36.713 15.918 46.536-.348 5.484 3.723 10.252 9.194 10.768.434.041 43.497 4.816 57.487 67.475 13.691 61.319-27.444 82.107-29.143 82.935-3.545 1.667-5.816 5.222-5.841 9.139-.024 3.917 2.203 7.5 5.727 9.212.229.111 22.964 11.457 22.964 37.578-.001 16.205-11.434 30.028-20.498 38.447z"/><path d="m187.834 297.186c-3.37 0-6.102-2.732-6.102-6.102 0-3.555-2.892-6.447-6.447-6.447s-6.447 2.892-6.447 6.447c0 3.37-2.732 6.102-6.102 6.102s-6.102-2.732-6.102-6.102c0-10.284 8.367-18.651 18.651-18.651s18.651 8.367 18.651 18.651c0 3.37-2.732 6.102-6.102 6.102z"/><path d="m315.132 297.186c-3.37 0-6.102-2.732-6.102-6.102 0-3.555-2.892-6.447-6.447-6.447s-6.447 2.892-6.447 6.447c0 3.37-2.732 6.102-6.102 6.102s-6.102-2.732-6.102-6.102c0-10.284 8.367-18.651 18.651-18.651s18.651 8.367 18.651 18.651c0 3.37-2.733 6.102-6.102 6.102z"/><path d="m211.084 375.189c-10.284 0-18.651-8.367-18.651-18.651 0-4.853 1.863-9.279 4.911-12.6-3.048-3.321-4.911-7.747-4.911-12.6 0-10.284 8.367-18.651 18.651-18.651 3.37 0 6.102 2.732 6.102 6.102s-2.732 6.102-6.102 6.102c-3.555 0-6.447 2.892-6.447 6.447s2.892 6.447 6.447 6.447c3.37 0 6.102 2.732 6.102 6.102s-2.732 6.203-6.102 6.203c-3.555 0-6.447 2.892-6.447 6.447s2.892 6.447 6.447 6.447c3.37 0 6.102 2.732 6.102 6.102 0 3.371-2.733 6.103-6.102 6.103z"/><path d="m303.501 371.816c-20.691 0-37.525-14.223-37.525-31.706s16.834-31.706 37.525-31.706c20.692 0 37.525 14.224 37.525 31.706 0 17.483-16.833 31.706-37.525 31.706zm0-51.208c-13.962 0-25.321 8.749-25.321 19.502s11.359 19.502 25.321 19.502 25.321-8.748 25.321-19.502-11.359-19.502-25.321-19.502z"/><path d="m143.257 371.816c-20.691 0-37.525-14.223-37.525-31.706s16.834-31.706 37.525-31.706c20.692 0 37.525 14.224 37.525 31.706 0 17.483-16.833 31.706-37.525 31.706zm0-51.208c-13.962 0-25.321 8.749-25.321 19.502s11.359 19.502 25.321 19.502 25.321-8.748 25.321-19.502-11.359-19.502-25.321-19.502z"/><path d="m60.857 275.209c-10.444 0-24.5-9.203-30.517-13.52-9.926-7.122-26.707-21.519-28.326-38.357-2.453-15.267 7.264-30.103 22.31-33.917 6.642-1.685 13.555-.976 19.61 1.711 4.044-5.247 9.783-9.162 16.426-10.847 15.451-3.916 31.156 4.812 36.02 19.914 6.028 14.84-1.711 34.668-6.91 45.247-3.029 6.164-13.789 26.496-25.061 29.354-1.119.285-2.31.415-3.552.415zm-29.172-66.372c-.787 0-1.58.096-2.362.294-4.924 1.248-8.086 6.137-7.2 11.131.058.327.1.656.126.987.331 4.25 4.808 12.055 16.378 21.221 8.502 6.735 16.841 10.899 20.695 12.09 2.912-2.882 8.512-10.568 13.109-20.655 6.205-13.616 6.601-22.613 5.055-26.182-.157-.361-.292-.731-.406-1.108-1.507-4.996-6.65-7.903-11.72-6.62-3.88.984-6.807 4.317-7.283 8.294-.5 4.177-3.521 7.615-7.599 8.648-4.077 1.034-8.371-.55-10.801-3.985-1.848-2.609-4.873-4.115-7.992-4.115z"/></g></g></svg>