<svg id="Capa_1" enable-background="new 0 0 512 512" height="512" viewBox="0 0 512 512" width="512" xmlns="http://www.w3.org/2000/svg"><g><g><path d="m394.832 501.328s36.609-17.177 41.04-48.49-20.339-48.392-20.339-48.392 50.127-16.046 45.023-85.536c-5.103-69.49-51.55-80.724-51.55-80.724s18.962-92.498-73.011-54.431c0 0 23.154-124.603-65.305-83.981l-23.873 222.87z" fill="#ccf3e2"/><path d="m413.751 404.164s54.044-15.571 49.634-88.333c-.793-13.086-10.872-31.753-14.041-41.238 3.743 103.877-72.194 139.917-138.477 74.038-3.557-3.535-19.969 31.072-24.694 29.664l103.874 126.646s39.553-17.078 44.79-49.704c5.236-32.625-21.086-51.073-21.086-51.073z" fill="#b1b6e1"/><path d="m325.856 410.317c11.159-15.85 19.872-33.911 27.988-62.644l17.259-57.062c5.798-20.527 4.95-41.359-1.258-60.2 6.308-3.602 12.35-9.156 17.676-16.828 16.219-23.37 10.115-64.061 2.838-69.11-7.277-5.051-47.531 3.468-63.75 26.837-.641.924-1.238 1.846-1.815 2.766-7.617-4.547-15.946-8.185-24.89-10.711l-61.233-17.295c-4.573-1.291-9.064-2.184-13.466-2.735.963-5.804.932-12.302-.305-19.407-4.829-27.733-37.419-52.141-46.054-50.637s-31.057 35.491-26.228 63.223c1.598 9.176 4.746 16.722 8.957 22.601-14.237 9.181-25.163 20.546-31.662 29.572-15.684 21.783-29.447 53.638-29.447 53.638-5.886 3.064-11.236 6.62-16.034 10.571-1.035-7.063 4.278-11.941 6.523-16.981 3.649-8.193 34.486-28.679 18.593-49.46-15.892-20.782-46.761-.683-65.551 26.417-18.791 27.099-17.873 101.348 4.493 116.302.496-1.054 3.551-4.391 7.791-8.724 2.575 22.504 13.3 41.685 29.995 57.213 15.584 14.495 44.213 26.199 60.807 29.364l2.547 1.228c-9.711 32.24-15.926 73.802-15.88 95.429h258.697c-15.113-40.697-38.958-72.514-66.591-93.367z" fill="#fff"/><path d="m55.745 203.005c17.53-16.646 41.695-32.385 53.804-16.551 13.158 17.206-3.764 37.972-13.994 47.514-10.299-11.214-30.02-19.316-39.81-30.963z" fill="#a1e8c3"/><path d="m286.496 187.453c.097-.449.175-.906.209-1.381 4.427-17.342 3.58-33.732-4.966-48.733 5.348-19.29 4.645-35.734-4.909-48.176.099-23.035-2.766-48.483-7.706-75.62-.416-4.082-6.199-4.503-7.203-.525-7.718 20.853-13.625 40.598-14.442 57.229-8.855 11.126-12.682 23.84-9.77 38.715-7.912 11.56-11.999 24.785-10.212 40.467-10.169 11.602-9.126 25.24-9.156 31.545 1.166 21.535 63.853 26.412 68.155 6.479z" fill="#f6e06e"/><path d="m286.496 187.453c.097-.449.175-.906.209-1.381 3.144-12.316 3.609-24.148.564-35.348-.35 3.312-.957 6.667-1.82 10.065-.027.406-.092.796-.174 1.18-3.632 17.019-58.714 12.388-59.896-6.041-.004-1.041-.045-2.318-.045-3.769-7.846 10.942-6.968 22.997-6.995 28.814 1.168 21.536 63.855 26.413 68.157 6.48z" fill="#dda86a"/><path d="m132.122 162.101c16.044-3.888 29.934-13.539 39.891-26.707 2.828-3.74 6.265-7.141 10.298-10.056 19.264-13.926 46.239-11.549 62.755 5.546 19.698 20.39 17.641 52.799-3.743 70.609-18.412 15.335-41.373 17.237-60.273 11.021-11.01-3.621-34.629-17.993-52.43-29.36-8.617-5.502-6.434-18.646 3.502-21.053z" fill="#ccf3e2"/><path d="m245.066 130.884c-16.516-17.095-43.49-19.472-62.755-5.546-4.033 2.916-7.469 6.316-10.298 10.057-9.957 13.168-23.847 22.819-39.891 26.707-9.936 2.408-12.119 15.551-3.503 21.054 17.8 11.368 41.419 25.739 52.429 29.36 18.9 6.215 41.862 4.313 60.273-11.022 21.386-17.812 23.443-50.22 3.745-70.61zm-10.769 44.508c-10.873 13.404-27.018 17.801-41.475 15.853-8.422-1.134-27.481-8.292-41.924-14.07-6.992-2.797-7.402-12.488-.654-15.524 10.897-4.902 19.388-13.643 24.536-24.379 1.462-3.05 3.411-5.937 5.859-8.556 11.695-12.508 31.354-14.375 45.738-4.329 17.156 11.982 20.549 35.437 7.92 51.005z" fill="#b1b6e1"/><path d="m189.794 163.523c-2.481 0-4.968-.896-6.938-2.708-4.164-3.833-4.433-10.317-.6-14.481 14.115-15.333 30.13-15.569 31.91-15.54 14.169.191 13.893 20.686-.276 20.495h.182c-.355.009-8.805.311-16.736 8.926-2.019 2.195-4.776 3.308-7.542 3.308z" fill="#fff"/><path d="m325.946 406.23c11.159-15.85 19.872-33.91 27.988-62.644l17.259-57.062c5.798-20.527 4.95-41.358-1.258-60.2 6.308-3.602 12.35-9.155 17.676-16.828 16.218-23.369 10.115-64.06 2.838-69.11-3.357-2.33-13.735-1.765-25.531 1.806 4.744 7.959 3.986 44.444-11.976 64.992-5.509 7.092-11.358 12.12-17.185 15.27 2.885 18.324.955 38.301-6.592 57.672l-21.951 53.792c-7.043 18.076-13.708 31.6-20.78 42.947-5.789 9.286-4.861 20.752 1.113 29.919 12.08 18.535 36.494 67.057 40.191 96.902h64.898c-15.113-40.7-39.058-76.603-66.69-97.456z" fill="#e1bdfc"/><path d="m201.974 474.408c-10.735-23.118-11.572-46.41 8.487-52.831 21.798-6.977 29.854 20.793 35.947 34.224-14.796 6.249-29.376 13.013-44.434 18.607z" fill="#a1e8c3"/><path d="m337.426 261.14-11.926 21.807-21.807 11.927 21.807 11.926 11.926 21.807 11.927-21.807 21.807-11.926-21.807-11.927z" fill="#f6e06e"/><path d="m398.389 193.296-11.927 21.807-21.806 11.926 21.806 11.927 11.927 21.807 11.926-21.807 21.807-11.927-21.807-11.926z" fill="#f6e06e"/><path d="m468.009 37.459 8.419 23.672c.36 1.014 1.074 1.817 1.974 2.222l21.031 9.475c2.971 1.339 2.971 6.073 0 7.411l-21.031 9.475c-.901.406-1.614 1.209-1.974 2.222l-8.419 23.671c-1.189 3.344-5.395 3.344-6.585 0l-8.418-23.671c-.36-1.014-1.074-1.817-1.975-2.222l-21.031-9.475c-2.971-1.339-2.971-6.073 0-7.411l21.031-9.475c.901-.406 1.614-1.209 1.975-2.222l8.418-23.672c1.19-3.345 5.396-3.345 6.585 0z" fill="#fbf2aa"/><path d="m97.632 24.301 6.245 17.559c.267.752.797 1.347 1.465 1.648l15.601 7.029c2.204.993 2.204 4.505 0 5.498l-15.601 7.029c-.668.301-1.197.897-1.465 1.648l-6.245 17.559c-.882 2.481-4.002 2.481-4.884 0l-6.245-17.559c-.267-.752-.797-1.347-1.465-1.648l-15.601-7.029c-2.204-.993-2.204-4.505 0-5.498l15.601-7.029c.668-.301 1.197-.897 1.465-1.648l6.245-17.559c.882-2.48 4.002-2.48 4.884 0z" fill="#fbf2aa"/><g fill="#f7e16e"><ellipse cx="22.828" cy="118.955" rx="12.49" ry="12.49" transform="matrix(.924 -.383 .383 .924 -43.784 17.791)"/><path d="m377.437 40.703c0 5.358-4.343 9.701-9.701 9.701s-9.701-4.343-9.701-9.701 4.343-9.701 9.701-9.701 9.701 4.343 9.701 9.701z"/></g></g><g fill="#3c122c"><path d="m328.136 161.98c6.519-5.366 13.546-10.108 20.896-14.351-.481-20.954-5.025-45.091-21.309-57.782-11.262-8.776-25.949-10.726-43.796-5.868 1.376 6.782 2.042 13.757 2.151 20.726 12.813-4.152 22.561-3.738 29.036 1.301 12.525 9.748 14.144 36.017 13.022 55.974z"/><path d="m165.944 350.468c-10.364 0-18.796-8.432-18.796-18.796 0-4.89 1.878-9.35 4.949-12.697-3.072-3.347-4.949-7.807-4.949-12.698 0-10.364 8.432-18.796 18.796-18.796 3.396 0 6.149 2.753 6.149 6.149s-2.753 6.149-6.149 6.149c-3.583 0-6.497 2.914-6.497 6.497s2.914 6.497 6.497 6.497c3.396 0 6.149 2.753 6.149 6.149s-2.753 6.251-6.149 6.251c-3.583 0-6.497 2.914-6.497 6.496 0 3.583 2.914 6.497 6.497 6.497 3.396 0 6.149 2.753 6.149 6.149 0 3.4-2.754 6.153-6.149 6.153z"/><path d="m141.735 264.543c-1.385 0-2.789-.154-4.195-.476-10.102-2.312-16.44-12.412-14.127-22.515.758-3.311 4.061-5.375 7.366-4.622 3.311.758 5.379 4.055 4.622 7.366-.387 1.691-.092 3.433.83 4.902.923 1.47 2.362 2.493 4.053 2.88 3.493.802 6.983-1.39 7.783-4.883.758-3.311 4.059-5.376 7.366-4.622 3.311.758 5.379 4.055 4.622 7.366-1.992 8.697-9.754 14.603-18.32 14.604z"/><path d="m251.203 288.048c-1.385 0-2.789-.154-4.195-.476-10.102-2.314-16.44-12.414-14.128-22.516.758-3.31 4.051-5.382 7.366-4.622 3.31.758 5.379 4.055 4.622 7.366-.799 3.492 1.392 6.984 4.885 7.783 3.49.803 6.982-1.391 7.781-4.884.758-3.311 4.06-5.375 7.366-4.622 3.311.758 5.379 4.055 4.622 7.366-1.99 8.698-9.753 14.604-18.319 14.605z"/><g><path d="m447.438 394.743c12.252-13.081 26.247-36.986 23.339-76.583-3.584-48.793-26.081-71.759-42.339-82.106l6.634-3.628c1.972-1.079 3.199-3.148 3.199-5.395 0-2.248-1.226-4.317-3.199-5.395l-14.449-7.904c-.78-11.919-3.918-25.507-12.747-35.506.186-3.342.193-6.347.119-8.831-.197-6.615-1.628-28.747-11.793-35.801-10.162-7.052-31.397-.652-37.663 1.478-9.212 3.132-25.393 10.127-36.734 23.278-6.123-2.998-12.521-5.445-19.114-7.307l-9.726-2.747c-1.117-3.925-2.61-7.722-4.48-11.385.181-.392.346-.796.479-1.218 4.654-14.777 8.479-33.528-1.897-49.759-.153-21.628-2.71-45.86-7.811-73.953-.905-6.478-6.195-11.465-12.769-11.944-6.511-.463-12.413 3.605-14.31 9.78-8.909 24.122-13.514 41.819-14.72 56.69-6.973 9.673-10.613 20.148-10.922 31.28-5.259-8.803-11.671-15.731-16.16-20.013-4.747-4.53-21.188-19.146-33.288-17.037-12.111 2.11-22.634 21.419-25.57 27.287-4.798 9.588-12.347 28.546-8.995 47.791.874 5.021 2.199 9.7 3.907 14.056-4.976 2.806-10.27 4.928-15.754 6.257h.001c-7.03 1.702-12.135 7.191-13.325 14.323-.743 4.451.164 8.79 2.43 12.372-.054.078-.109.157-.163.236-.578-.95-1.213-1.893-1.928-2.827-5.592-7.313-13.977-10.91-23.605-10.132-25.397 2.052-55.162 33.471-66.884 55.363-10.152 18.959-12.975 45.633-7.55 71.352 6.126 29.047 22.02 54.504 44.754 71.68.98.741 2.05 1.272 3.159 1.614 3.508 4.365 7.403 8.574 11.734 12.602 15.406 14.33 40.468 25.157 57.729 29.982-8.572 32.114-13.565 68.997-13.524 88.557.012 5.653 4.598 10.227 10.247 10.227h.022c5.661-.012 10.24-4.61 10.227-10.27-.042-20.102 5.724-60.18 15.445-92.454 1.454-4.829-.821-9.999-5.365-12.188l-2.547-1.227c-.803-.387-1.651-.668-2.527-.834-14.206-2.711-41.482-13.534-55.747-26.803-16.598-15.438-25.73-33.816-27.142-54.624-1.77-26.081 13.207-50.649 39.083-64.119 2.089-1.087 3.74-2.862 4.675-5.024.128-.295 12.305-28.299 26.29-48.759 20.546 12.761 34.986 20.559 42.966 23.183 7.393 2.431 14.947 3.623 22.401 3.623 15.879-.001 31.3-5.409 43.728-15.761.336-.279.654-.576.983-.863 1.71.244 3.413.453 5.084.585 2.115.168 4.292.257 6.488.257 15.294 0 31.54-4.362 34.595-17.053.018-.061.031-.123.047-.185.016-.071.038-.139.053-.21.007-.032.009-.063.016-.095.023-.112.041-.224.057-.337.077-.402.156-.806.2-1.185 1.45-5.795 2.308-11.42 2.577-16.862l1.763.498c7.884 2.227 15.428 5.473 22.42 9.648 4.787 2.856 10.982 1.364 13.941-3.361.57-.912 1.063-1.663 1.548-2.362 11.842-17.064 40.282-24.593 49.223-23.882 3.799 8.106 6.692 37.404-5.151 54.468-4.259 6.137-9.083 10.77-14.338 13.771-1.153.659-2.129 1.517-2.918 2.506l-.14.077c-1.973 1.078-3.199 3.147-3.199 5.395 0 1.55.594 3.007 1.603 4.12.001.003.001.006.003.009 5.515 16.738 6.12 34.537 1.801 51.649l-8.029-4.392-11.061-20.227c-1.079-1.972-3.148-3.199-5.396-3.199s-4.316 1.226-5.394 3.199l-11.063 20.227-20.227 11.063c-1.973 1.078-3.199 3.147-3.199 5.394 0 2.248 1.227 4.317 3.199 5.395l20.227 11.061 11.063 20.227c1.078 1.973 3.147 3.199 5.394 3.199 2.248 0 4.317-1.227 5.396-3.199l9.948-18.191-8.735 28.881c-.019.061-.036.121-.053.182-7.037 24.914-14.739 42.457-25.603 58.233-1.712 1.774-2.758 4.141-2.864 6.688l-.01.239c-.171 4.1 2.114 7.86 5.726 9.63 26.721 20.691 48 50.924 61.609 87.575 1.534 4.129 5.447 6.684 9.609 6.684.264 0 .531-.014.796-.035.526.083 1.057.135 1.594.135 1.457 0 2.939-.312 4.347-.973 1.699-.798 41.686-19.949 46.834-56.332 3.06-21.62-5.376-37.52-13.209-47.203 4.491-2.946 9.599-6.963 14.624-12.326zm-364.177-156.312c-24.543 17.557-38.592 44.277-37.75 72.856-2.476-5.969-4.438-12.222-5.806-18.705-4.459-21.14-2.378-42.615 5.564-57.447 3.678-6.869 8.757-13.806 14.418-20.104l25.038 20.885c-.496.837-.982 1.676-1.464 2.515zm7.974-13.1-22.846-19.057c9.784-8.886 20.051-15.159 27.346-15.748 3.501-.28 4.763.963 5.674 2.153 5.016 6.561-.626 17.244-10.174 32.652zm166.408-153.848c.024-.199.047-.397.059-.597.003-.047.012-.091.014-.138.444-9.059 2.673-19.322 5.487-29.185 1.733 12.991 2.79 25.008 3.193 36.237l-8.768-6.154c.006-.054.008-.109.015-.163zm-6.083 10.931 16.082 11.287c.019.039.044.077.063.115.082.16.169.316.259.47.078.135.156.269.241.4.102.159.21.312.32.464.06.084.112.171.175.253 5.178 6.742 5.864 15.404 2.158 29.171l-22.919-15.978c-.02-.531-.068-1.067-.173-1.605-1.763-9.005-.552-16.958 3.794-24.577zm-70.874-1.017c6.471 2.43 21.361 14.194 29.326 28.762-10.956.08-21.937 3.424-31.302 10.195-4.438 3.208-8.341 7.02-11.602 11.33-1.145 1.515-2.347 2.973-3.597 4.376-.298-1.222-.57-2.47-.795-3.764-3.506-20.127 11.19-45.143 17.97-50.899zm56.701 115.372c-14.983 12.479-35.325 16.182-54.417 9.905-8.108-2.667-26.235-12.86-51.04-28.702-2.823-1.804-2.588-4.666-2.449-5.501.139-.832.844-3.608 4.09-4.395 16.927-4.102 32.321-14.392 43.347-28.974 2.522-3.336 5.549-6.29 8.995-8.782 7.332-5.299 15.943-7.892 24.518-7.892 11.077 0 22.096 4.326 30.211 12.728 8.263 8.553 12.461 19.762 11.823 31.563-.63 11.642-6.126 22.594-15.078 30.05zm18.76-2.89c2.872-4.465 5.074-9.34 6.546-14.452l15.354 9.895c-3.84 2.791-11.815 4.814-21.9 4.557zm26.097-16.481-17.463-11.254c.473-14.795-4.919-28.792-15.293-39.532-2.866-2.966-6.014-5.537-9.364-7.711.264-.067.531-.127.786-.21l36.456 25.414c.397.277.82.482 1.252.655 4.422 9.771 5.617 20.54 3.626 32.638zm95.226 49.632 11.943-6.532c1.032-.563 1.881-1.412 2.444-2.444l6.533-11.943 6.53 11.943c.564 1.032 1.413 1.881 2.445 2.444l11.943 6.532-11.943 6.53c-1.032.564-1.881 1.413-2.445 2.445l-6.53 11.943-6.533-11.943c-.563-1.032-1.412-1.881-2.444-2.445zm-33.513 76.82-6.531 11.943-6.532-11.943c-.563-1.032-1.412-1.881-2.444-2.445l-11.943-6.53 11.943-6.532c1.032-.564 1.881-1.412 2.444-2.444l6.532-11.943 6.531 11.943c.564 1.032 1.413 1.88 2.445 2.444l11.943 6.532-11.943 6.53c-1.032.564-1.88 1.413-2.445 2.445zm68.451 90.835c-3.721 1.192-6.469 4.376-7.042 8.242-.571 3.865 1.076 7.699 4.293 9.917.799.567 19.518 14.165 16.065 38.558-2.463 17.407-18.039 30.016-27.65 36.252-13.923-33.194-33.911-61.23-58.494-81.951 9.952-15.964 17.363-33.78 24.1-57.61l17.232-56.973c.019-.061.036-.121.054-.182 3.941-13.961 5.143-28.348 3.661-42.522l8.367 15.298c1.078 1.973 3.147 3.199 5.395 3.199s4.316-1.227 5.395-3.199l7.531-13.77c10.669 4.893 35.469 21.373 39.02 69.718 4.412 60.081-36.262 74.463-37.927 75.023z"/><path d="m275.377 451.278c-1.642.618-2.966 1.524-4.368 2.483-6.088 4.168-9.137 4.95-13.725.836-.882-1.305-2.562-5.339-3.802-8.318-3.209-7.704-7.203-17.292-13.52-24.669-8.771-10.241-20.355-13.722-32.625-9.792-10.596 3.392-17.932 10.583-21.216 20.797-6.909 21.491 5.927 49.739 20.242 69.008 1.909 2.57 4.03 5.038 6.306 7.338 2.004 2.026 4.644 3.039 7.284 3.039 2.605 0 5.211-.987 7.209-2.965 4.023-3.981 4.056-10.47.075-14.493-1.598-1.615-3.086-3.346-4.421-5.143-3.15-4.24-5.953-8.646-8.363-13.051l25.913-10.207c.829 1.223 1.717 2.319 2.732 3.259 9.315 8.616 18.573 9.096 24.702 7.984 6.788-1.234 11.991-4.796 14.787-6.71.31-.212.583-.404.823-.56 4.754-2.268 7.06-7.839 5.169-12.858-1.993-5.295-7.903-7.976-13.202-5.978zm-66.181 13.923c-4.12-10.438-5.585-20.019-3.561-26.314 1.241-3.858 3.693-6.186 7.952-7.549 7.752-2.482 12.655 2.848 20.974 22.821.13.311.251.599.377.903z"/></g></g></g></svg>