<svg id="Capa_1" enable-background="new 0 0 512 512" height="512" viewBox="0 0 512 512" width="512" xmlns="http://www.w3.org/2000/svg"><g><g><path d="m479.571 499.001c-6.084 0-12.145-2.475-16.548-7.343l-302.52-334.492c-8.262-9.135-7.554-23.239 1.581-31.501 9.134-8.262 23.238-7.555 31.501 1.581l302.52 334.492c8.262 9.135 7.554 23.239-1.581 31.501-4.267 3.86-9.62 5.762-14.953 5.762z" fill="#f4dab5"/><path d="m82.652 54.259s17.854-38.54 55.618-33.548c36.205 4.786 47.283 39.607 47.283 39.607s74.787 7.134 125.587 40.489c62.263 40.882.192 97.432.192 97.432l-52.521 24.938z" fill="#9781dd"/><path d="m163.108 227.332 39.34 67.692 104.935-90.768-90.206-98.827c-3.885-3.828-12.208-11.57-19.604-18.004 7.004-3.606 12.553-11.116 14.683-22.328 3.504-18.451-11.107-41.352-16.852-42.443s-27.734 14.859-31.238 33.31c-.84 4.425-.968 8.506-.503 12.194-33.36-7.2-68.123 17.176-91.326 58.885-29.777 53.524-27.627 110.676-3.408 126.509 24.976 16.328 63.134 4.61 94.179-26.22z" fill="#e8c2d8"/><path d="m53.975 180.201s-13.43 50.7 19.373 75.831 72.601-22.695 72.601-22.695z" fill="#d789b9"/><path d="m155.235 233.949c6.299-4.056 12.19-8.378 17.372-12.786l-7.817-13.694c-2.597-4.549-8.863-5.391-12.486-1.609-5.549 5.794-12.024 10.943-18.971 15.363 7.251 4.324 14.69 8.333 21.902 12.726z" fill="#d392d8"/><path d="m123.294 226.945c-24.306 12.327-51.62 15.892-65.648 6.721-1.922-1.256-3.68-2.818-5.281-4.633 3.136 8.021 10.71 20.692 16.564 24.519 16.684 10.907 48.905 1.783 76.455-13.678-7.371-4.299-14.875-8.37-22.09-12.929z" fill="#c668b9"/><path d="m217.177 105.43c-3.885-3.828-12.208-11.569-19.604-18.004 7.004-3.606 12.553-11.116 14.683-22.328 3.504-18.451-11.107-41.352-16.852-42.443-4.14-.786-16.714 7.278-24.729 18.749 5.559 4.938 14.191 21.455 11.391 34.972-.478 2.308-1.124 4.428-1.915 6.357-3.93 9.595-1.834 20.586 5.439 27.977l.099.1 60.598 68.644c8.144 9.225 7.075 23.351-2.364 31.246l-60.886 50.924 19.411 33.4 104.935-90.768z" fill="#d392d8"/><path d="m255.789 239.02h45.906v36.298h-45.906z" fill="#dba2b3" transform="matrix(.744 -.668 .668 .744 -100.477 252.057)"/><path d="m10.945 20.123 77.613 102.055c10.028 8.189 50.781-41.718 40.753-49.907l-112.583-58.774c-4.199-2.137-8.468 2.755-5.783 6.626z" fill="#fff"/><path d="m433.207 180.878 8.71 24.492c.373 1.049 1.111 1.88 2.043 2.299l21.76 9.804c3.074 1.385 3.074 6.283 0 7.668l-21.76 9.804c-.932.42-1.67 1.251-2.043 2.299l-8.71 24.492c-1.231 3.46-5.582 3.46-6.813 0l-8.71-24.492c-.373-1.049-1.111-1.88-2.043-2.299l-21.76-9.804c-3.074-1.385-3.074-6.283 0-7.668l21.76-9.804c.932-.42 1.67-1.251 2.043-2.299l8.71-24.492c1.231-3.46 5.583-3.46 6.813 0z" fill="#e9c3d9"/><path d="m125.408 378.922 6.461 18.168c.277.778.824 1.394 1.515 1.706l16.141 7.272c2.28 1.027 2.28 4.661 0 5.688l-16.141 7.272c-.691.311-1.239.928-1.515 1.706l-6.461 18.168c-.913 2.567-4.141 2.567-5.054 0l-6.461-18.168c-.277-.778-.824-1.394-1.515-1.706l-16.141-7.272c-2.28-1.027-2.28-4.661 0-5.688l16.141-7.272c.691-.311 1.239-.928 1.515-1.706l6.461-18.168c.913-2.567 4.141-2.567 5.054 0z" fill="#e9c3d9"/><g fill="#d88aba"><path d="m68.331 335.706c0 4.531-3.673 8.204-8.204 8.204s-8.205-3.673-8.205-8.204 3.673-8.204 8.205-8.204c4.531 0 8.204 3.673 8.204 8.204z"/><ellipse cx="236.714" cy="373.3" rx="14.384" ry="14.385" transform="matrix(.077 -.997 .997 .077 -153.616 580.735)"/></g></g><g><path d="m503.62 454.942-206.544-228.373 16.936-14.649c.846-.732 1.548-1.595 2.103-2.541 12.473-10.163 31.924-29.928 33.886-55.561 1.605-20.971-8.56-40.934-30.213-59.337-32.178-27.346-71.801-40.288-98.083-46.246-1.351-6.299-3.561-11.699-5.277-15.264-2.651-5.506-9.823-18.503-19.133-20.27-7.704-1.464-16.872 4.77-22.345 9.315-10.887-7.38-24.865-13.153-41.303-11.996-25.956 1.838-41.945 15.455-50.798 26.565l-61.43-32.07c-.031-.016-.063-.033-.094-.048-6-3.053-13.28-1.644-17.704 3.427-4.425 5.071-4.837 12.474-1.001 18.004.084.122.171.241.261.359l66.001 86.787c-1.852 2.926-3.658 5.942-5.4 9.073-30.955 55.641-30.999 119.714-.097 139.916 26.018 17.009 63.988 9.339 97.283-18.733l33.019 56.816c1.516 2.608 4.115 4.405 7.09 4.903.557.093 1.115.139 1.67.139 2.416 0 4.774-.865 6.629-2.469l38.926-33.67 207.506 229.438c6.138 6.786 14.909 10.678 24.063 10.678 8.052 0 15.777-2.976 21.75-8.379 6.426-5.811 10.204-13.777 10.638-22.43.433-8.654-2.528-16.958-8.339-23.384zm-281.885-385.776c23.996 5.918 57.86 17.754 84.928 40.757 16.406 13.942 24.19 28.168 23.135 42.282-1.165 15.598-12.533 28.994-21.942 37.539l-83.195-91.146c-.12-.132-.244-.261-.372-.386-2.521-2.484-6.68-6.405-11.264-10.582 4.075-4.964 7.038-11.228 8.71-18.464zm-86.657-38.932c9.888-.705 18.765 2.539 26.152 7.073-3.11 4.782-5.819 10.444-7.02 16.768-.173.914-.323 1.824-.449 2.728-8.255-.229-16.545 1.129-24.707 3.904l-27.784-14.505c6.642-7.13 17.47-14.811 33.808-15.968zm-100.769 3.871 85.968 44.88c-1.263 3.515-4.642 10.016-11.351 18.232-6.612 8.097-12.239 12.693-15.455 14.681zm40.164 210.966c-10.488-6.856-16.663-28.726-12.711-56.983l75.035 47.847c-22.96 15.364-46.731 19.328-62.324 9.136zm130.592 34.292-33.197-57.122c-1.577-2.714-4.323-4.543-7.435-4.954-.442-.058-.885-.087-1.326-.087-2.657 0-5.229 1.046-7.139 2.943-2.876 2.856-5.812 5.515-8.785 7.994l-82.993-52.922c3.213-13.627 8.693-28.311 17.002-43.246.351-.632.716-1.234 1.072-1.855 1.754 1.404 4.837 3.178 9.25 3.178 2.071 0 4.434-.391 7.083-1.396 15.837-6.005 39.525-35.013 42.243-51.731.105-.647.173-1.265.223-1.869 6.886-1.555 13.762-1.678 20.461-.232 3.212.694 6.561-.213 8.983-2.434 2.423-2.22 3.618-5.477 3.208-8.737-.347-2.754-.211-5.795.405-9.037 2.014-10.606 13.273-20.781 19.182-24.136 4.268 5.287 11.013 18.882 8.999 29.488-1.41 7.424-4.737 12.826-9.367 15.21-2.987 1.538-5.018 4.457-5.42 7.793-.403 3.336.874 6.655 3.409 8.86 6.862 5.97 14.95 13.461 18.955 17.391l83.005 90.939zm286.653 197.945c-.163 3.247-1.58 6.236-3.992 8.416-2.241 2.027-5.137 3.143-8.156 3.143-3.488 0-6.696-1.423-9.033-4.007l-207.205-229.103 18.413-15.927 206.844 228.705c2.181 2.411 3.292 5.527 3.129 8.773z" fill="#3c122c"/><ellipse cx="147.384" cy="148.881" fill="#3c122c" rx="11.74" ry="11.74" transform="matrix(.75 -.662 .662 .75 -61.633 134.755)"/><g fill="#fff"><path d="m80.519 237.316c-4.385 0-8.427-2.869-9.721-7.29-1.269-4.337-2.083-9.085-2.422-14.112-.376-5.583 3.846-10.414 9.43-10.79 5.574-.376 9.885 3.907 10.79 9.43.647 3.951 1.195 7.148 1.652 9.782.956 5.514-1.509 10.999-6.88 12.57-.949.278-1.907.41-2.849.41z"/><path d="m83.696 181.772c-.805 0-1.623-.096-2.439-.298-5.433-1.343-8.748-6.836-7.406-12.268.792-3.204 1.598-6.127 2.463-8.935 1.647-5.348 7.318-8.35 12.666-6.701 5.348 1.647 8.348 7.318 6.701 12.666-.752 2.44-1.457 5.002-2.156 7.831-1.142 4.618-5.279 7.705-9.829 7.705z"/></g></g></g></svg>