<svg id="Capa_1" enable-background="new 0 0 512 512" height="512" viewBox="0 0 512 512" width="512" xmlns="http://www.w3.org/2000/svg"><g><g><path d="m441.458 501.563s36.069-22.953 36.069-55.743-28.691-46.726-28.691-46.726 50.503-23.755 34.74-94.354-66.457-75.384-66.457-75.384 6.197-97.715-85.179-45.273c0 0 5.827-131.284-81.459-76.73l8.09 232.271z" fill="#ccf3e2"/><path d="m448.835 399.094s50.503-23.755 34.74-94.354c-2.835-12.697-15.646-29.402-20.243-38.196 20.003 101.19-48.732 148.444-124.036 94.319-4.041-2.905-14.679 33.584-19.531 32.948l121.692 107.752s36.069-22.953 36.069-55.743-28.691-46.726-28.691-46.726z" fill="#b1b6e1"/><path d="m441.488 501.828c-11.974-43.585-33.516-89.022-67.692-116.682 6.423-18.198 9.895-37.828 9.895-67.556l1.091-59.148c0-21.167-6.428-40.832-17.438-57.151 5.052-5.141 9.325-12.074 12.341-20.838 9.185-26.692-7.619-63.904-15.93-66.764-8.312-2.86-44.456 16.133-53.641 42.825-.363 1.055-.684 2.096-.987 3.131-8.5-2.288-17.436-3.516-26.659-3.516h-63.141c-4.715 0-9.245.359-13.598 1.02-.646-5.802-2.429-12-5.526-18.452-12.092-25.181-49.798-39.7-57.639-35.935-7.841 3.766-20.086 42.27-7.994 67.451 4.001 8.332 9.043 14.689 14.65 19.168-11.12 12.607-18.488 26.408-22.26 36.78-9.102 25.032-13.654 59.166-13.654 59.166-24.658 23.212-32.502 54.974-22.636 82.599 8.141 22.794 24.208 39.507 45.589 50.474 18.793 9.639 49.289 13.094 65.99 11.642-9.281 20.417-14.182 49.808-17.475 71.787h256.714z" fill="#fff"/><path d="m373.796 385.146c6.423-18.198 9.895-37.828 9.895-67.556l1.091-59.148c0-21.167-6.428-40.832-17.438-57.151 5.052-5.141 9.325-12.074 12.341-20.838 9.185-26.692-7.619-63.904-15.93-66.764-3.922-1.35-5.042-.501-15.602 6.395 6.543 12.277 11.035 28.079 9.38 47.942-1.042 12.507-17.216 25.739-21.446 30.631 9.219 15.526 16.276 67.756 16.276 87.896l-.276 15.017c0 20.613-8.841 48.633-13.63 67.841-2.793 11.201-4.352 21.267 4.019 29.215 11.256 10.687 19.973 20.971 27.471 39.892 8.346 21.063-7.251 43.907-29.908 43.907h-152.134c-1.201 6.797-2.23 13.383-3.132 19.404h256.715c-11.974-43.587-33.516-89.023-67.692-116.683z" fill="#e1bdfc"/><path d="m278.791 173.147c-.034-.455-.088-.912-.187-1.373-.639-17.749-6.032-33.117-18.367-45.007-.307-19.862-5.578-35.321-18.157-44.492-6.353-21.958-16.203-45.384-28.501-69.838-1.538-3.77-7.162-2.553-7.004 1.516-1.512 22.013-1.609 42.465 2.267 58.528-5.316 13.071-5.402 26.246 1.534 39.593-4.298 13.22-4.487 26.954 1.603 41.385-6.434 13.892-1.625 26.583.112 32.595 7.136 20.175 68.182 7.275 66.7-12.907z" fill="#f6e06e"/><path d="m278.791 173.147c-.034-.455-.088-.912-.187-1.373-.453-12.605-3.322-24-9.355-33.811.594 3.251.955 6.615 1.084 10.091.088.394.136.784.165 1.172 1.305 17.22-52.432 28.227-58.715 11.012-.295-.99-.691-2.195-1.097-3.576-4.407 12.613-.198 23.845 1.405 29.391 7.136 20.176 68.182 7.276 66.7-12.906z" fill="#dda86a"/><path d="m124.723 192.216c14.187-8.192 24.709-21.267 30.504-36.591 1.646-4.353 3.966-8.552 6.99-12.456 14.443-18.65 40.79-23.937 61.298-12.283 24.46 13.899 31.573 45.33 16.198 68.272-13.237 19.752-34.566 27.99-54.299 27.362-11.496-.366-38.005-7.438-58.133-13.279-9.744-2.828-11.344-15.952-2.558-21.025z" fill="#ccf3e2"/><path d="m223.514 130.885c-20.508-11.653-46.855-6.367-61.298 12.283-3.024 3.905-5.344 8.104-6.99 12.457-5.794 15.323-16.317 28.399-30.504 36.591-8.786 5.073-7.186 18.197 2.558 21.025 20.128 5.841 46.637 12.913 58.133 13.279 19.733.628 41.062-7.61 54.299-27.362 15.375-22.943 8.263-54.373-16.198-68.273zm2.205 45.389c-6.6 15.804-20.741 24.509-35.05 26.701-8.336 1.277-28.484-.203-43.852-1.662-7.439-.706-10.542-9.817-4.967-14.597 9.003-7.717 14.64-18.415 16.537-30.077.539-3.313 1.586-6.607 3.184-9.786 7.633-15.182 25.827-22.461 42.333-16.923 19.687 6.606 29.481 27.987 21.815 46.344z" fill="#b1b6e1"/><ellipse cx="229.45" cy="334.958" fill="#d789b9" rx="17.442" ry="19.222"/><path d="m467.079 47.397 8.354 23.49c.358 1.006 1.066 1.803 1.959 2.205l20.87 9.403c2.948 1.328 2.948 6.026 0 7.355l-20.87 9.403c-.893.403-1.602 1.2-1.959 2.205l-8.354 23.49c-1.18 3.319-5.354 3.319-6.534 0l-8.354-23.49c-.358-1.006-1.066-1.803-1.959-2.205l-20.87-9.403c-2.948-1.328-2.948-6.026 0-7.355l20.87-9.403c.894-.403 1.602-1.2 1.959-2.205l8.354-23.49c1.18-3.319 5.354-3.319 6.534 0z" fill="#fbf2aa"/><path d="m80.743 25.687 6.197 17.425c.265.746.791 1.337 1.453 1.636l15.481 6.975c2.187.985 2.187 4.47 0 5.455l-15.481 6.975c-.663.299-1.188.89-1.453 1.636l-6.197 17.425c-.876 2.462-3.972 2.462-4.847 0l-6.197-17.425c-.265-.746-.791-1.337-1.453-1.636l-15.481-6.975c-2.187-.985-2.187-4.47 0-5.455l15.481-6.975c.663-.299 1.188-.89 1.453-1.636l6.197-17.425c.875-2.462 3.971-2.462 4.847 0z" fill="#fbf2aa"/><g fill="#f7e16e"><ellipse cx="361.764" cy="41.163" rx="12.395" ry="12.395" transform="matrix(.973 -.23 .23 .973 .22 84.217)"/><path d="m50.444 255.124c0 5.317-4.31 9.627-9.627 9.627s-9.627-4.31-9.627-9.627 4.31-9.627 9.627-9.627c5.317.001 9.627 4.311 9.627 9.627z"/></g></g><g><g fill="#3c122c"><path d="m466.551 399.247c4.37-3.693 9.267-8.606 13.813-14.903 10.942-15.161 22.104-41.663 13.137-81.82-8.865-39.703-28.452-60.167-43.322-70.343-8.797-6.021-16.973-9.269-22.891-11.008-.589-14.57-4.514-43.214-25.46-56.246-2.928-1.822-6.047-3.247-9.344-4.298-.336-10.337-2.627-19.588-4.504-25.551-1.972-6.264-9.309-27.014-20.918-31.007-11.602-3.995-30.159 7.845-35.569 11.57-.113.077-.238.168-.352.248-5.382-12.167-12.65-20.975-21.759-26.291-13.338-7.783-29.484-7.586-48.146.532-2.351-5.038-5.663-9.749-10.312-13.795-6.198-20.549-15.417-42.906-28.135-68.221-2.676-5.916-9.112-9.181-15.497-7.799-6.329 1.369-10.811 6.906-10.889 13.317-1.73 25.458-1.161 43.595 1.852 58.091-5.446 15.459-4.409 30.595 3.097 45.039.309.594.683 1.128 1.085 1.633-.019.097-.034.194-.052.291-1.341-.056-2.682-.068-4.021-.025-8.154-8.613-17.628-14.503-23.817-17.777-5.755-3.046-25.387-12.569-36.384-7.292-10.996 5.281-15.837 26.559-17.059 32.955-1.996 10.451-4.092 30.591 4.299 48.066 1.196 2.491 2.497 4.844 3.879 7.081-2.408 1.938-4.944 3.697-7.609 5.236-6.215 3.589-9.54 10.243-8.677 17.366.604 4.985 3.148 9.252 6.98 12.056-.942 2.123-1.812 4.239-2.573 6.331-7.735 21.27-12.228 48.201-13.67 57.772-25.062 25.275-33.749 59.786-22.64 90.89 8.758 24.522 25.757 43.398 50.525 56.102 16.153 8.285 38.558 12.072 55.822 12.888-5.979 18.407-9.762 40.215-12.723 59.984-.832 5.555 2.996 10.732 8.551 11.564 5.551.835 10.732-2.996 11.564-8.551 3.579-23.898 8.36-50.793 16.675-69.085 1.496-3.291 1.132-7.128-.954-10.08-2.087-2.951-5.582-4.576-9.185-4.261-14.301 1.245-43.264-1.735-60.468-10.559-20.014-10.266-33.691-25.354-40.653-44.845-8.724-24.428-1.049-51.93 20.03-71.774 1.701-1.602 2.8-3.743 3.11-6.059.044-.331 4.524-33.366 13.131-57.037.566-1.555 1.477-3.854 2.772-6.658 22.352 6.141 37.775 9.381 45.931 9.641.779.025 1.552.037 2.327.037 23.26-.001 44.527-11.138 57.235-30.1.241-.359.461-.73.692-1.094 1.697-.247 3.377-.526 5.005-.868 16.398-3.437 35.123-12.682 34.412-27.461-.208-2.273-.341-4.564-.533-6.803 7.491.152 14.926 1.197 22.125 3.135 5.338 1.438 10.857-1.66 12.407-6.972.299-1.023.566-1.873.84-2.67 6.707-19.49 31.852-34.369 40.566-36.084 5.814 6.713 16.479 33.914 9.772 53.405-2.411 7.009-5.768 12.735-9.978 17.018-3.389 3.449-3.881 8.808-1.177 12.817 10.254 15.197 15.682 32.958 15.7 51.371l-1.089 59.052c-.001.062-.002.125-.002.188 0 26.48-2.786 45.672-9.315 64.172-1.433 4.06-.155 8.582 3.192 11.29 27.912 22.59 50.742 62.177 64.283 111.47 1.24 4.514 5.335 7.478 9.8 7.478.892 0 1.799-.118 2.7-.366 1.839-.505 3.411-1.492 4.64-2.776 8.11-5.667 38.874-29.382 38.874-63.038-.001-22.792-11.447-37.877-21.146-46.569zm-237.586-324.869-10.073-3.406c-.007-.046-.019-.093-.026-.14-.034-.205-.069-.408-.115-.609-.01-.043-.014-.086-.024-.129-2.112-8.751-2.861-19.147-2.944-29.324 5.286 11.883 9.656 23.029 13.182 33.608zm-12.833 8.544 18.472 6.246c.457.481.947.933 1.484 1.324 6.815 4.969 9.894 13.025 10.219 27.17l-26.294-8.798c-.167-.5-.363-.996-.614-1.479-4.2-8.082-5.272-15.993-3.267-24.463zm-68.961 29.433c5.348.449 17.164 4.965 27.579 12.543-6.607 3.476-12.566 8.347-17.359 14.535-3.327 4.298-5.976 9.019-7.872 14.033-1.602 4.235-3.602 8.249-5.936 11.999-8.525-18.279-1.304-45.83 3.588-53.11zm38.437 108.065c-8.466-.269-28.576-4.901-56.627-13.04-3.192-.927-3.77-3.717-3.87-4.551-.101-.831-.206-3.672 2.664-5.329 14.966-8.642 26.743-22.746 33.161-39.717 1.467-3.881 3.522-7.541 6.106-10.878 8.095-10.453 20.476-16.09 33.038-16.09 6.988 0 14.031 1.745 20.422 5.376 10.259 5.83 17.393 15.326 20.088 26.74 2.659 11.259.492 23.225-5.945 32.829-10.775 16.075-29.102 25.312-49.037 24.66zm66.089-32.663c1.484-5.054 2.216-10.309 2.186-15.588l17.385 5.123c-2.877 3.729-9.903 7.881-19.571 10.465zm.456-28.821c-3.69-14.218-12.741-26.034-25.624-33.355-3.559-2.023-7.275-3.589-11.074-4.721.233-.137.47-.27.69-.421l41.821 13.994c.456.152.915.229 1.374.272 6.947 8.067 11.099 17.984 12.589 30.059zm50.539-11.157c-6.656-1.211-13.426-1.822-20.224-1.822h-2.611c-3.043-8.133-7.481-15.318-13.319-21.487.062-.424.108-.854.116-1.293.079-4.139.018-8.536-.392-12.996 13.763-6.695 24.787-7.723 32.853-3.023 7.267 4.234 12.309 12.771 15.767 22.811-4.601 5.003-8.999 10.967-12.19 17.81zm144.167 336.488c-10.867-33.744-29.612-74.221-61.261-102.434 5.756-18.709 8.256-38.366 8.262-64.149l1.09-59.055c.001-.062.002-.125.002-.188 0-19.911-5.187-39.209-15.065-56.268 3.867-5.293 7.022-11.457 9.414-18.412.248-.719.473-1.442.689-2.166.355.191.717.368 1.062.582 14.792 9.166 16.505 36.713 15.917 46.536-.348 5.484 3.723 10.252 9.195 10.768.433.041 43.496 4.815 57.486 67.475 13.692 61.319-27.443 82.108-29.142 82.935-3.545 1.667-5.845 5.209-5.869 9.126-.025 3.917 2.175 7.487 5.699 9.198.939.471 23.018 11.83 23.018 37.605 0 16.205-11.432 30.028-20.497 38.447z"/><ellipse cx="168.503" cy="291.084" rx="12.549" ry="12.549" transform="matrix(.16 -.987 .987 .16 -145.814 410.785)"/><ellipse cx="295.8" cy="291.084" rx="12.549" ry="12.549" transform="matrix(.707 -.707 .707 .707 -119.19 294.419)"/><path d="m160.304 254.648c-1.715 0-3.42-.719-4.627-2.121-2.199-2.554-1.911-6.406.643-8.605 6.956-5.989 17.435-5.987 24.373.007 2.551 2.203 2.833 6.056.63 8.607-2.202 2.55-6.055 2.832-8.607.629-2.359-2.038-6.064-2.035-8.433.006-1.152.991-2.569 1.477-3.979 1.477z"/><path d="m287.602 254.648c-1.715 0-3.42-.719-4.627-2.121-2.199-2.554-1.911-6.406.643-8.605 6.956-5.989 17.435-5.987 24.373.007 2.55 2.203 2.832 6.056.63 8.607-2.202 2.55-6.056 2.832-8.607.629-2.359-2.038-6.064-2.035-8.433.006-1.153.991-2.57 1.477-3.979 1.477z"/><path d="m229.45 360.282c-12.983 0-23.545-11.36-23.545-25.324 0-13.963 10.562-25.324 23.545-25.324s23.544 11.36 23.544 25.324c0 13.963-10.561 25.324-23.544 25.324zm0-38.444c-6.253 0-11.341 5.885-11.341 13.12 0 7.234 5.088 13.12 11.341 13.12s11.34-5.885 11.34-13.12c0-7.234-5.087-13.12-11.34-13.12z"/></g><path d="m177.155 177.843c-1.511 0-3.043-.338-4.49-1.051-5.037-2.484-7.107-8.581-4.623-13.619 9.145-18.547 24.329-23.251 26.031-23.726 0 0 10.303-3.215 13.057 6.721 2.754 9.937-7.41 12.818-7.41 12.818-.337.108-8.297 2.761-13.436 13.182-1.77 3.592-5.378 5.675-9.129 5.675z" fill="#fff"/><path d="m80.466 155.137c-1.832 0-3.688-.496-5.359-1.534l-26.521-16.486c-4.77-2.965-6.233-9.236-3.269-14.006 2.965-4.77 9.235-6.234 14.007-3.268l26.521 16.486c4.77 2.965 6.233 9.236 3.268 14.006-1.926 3.099-5.247 4.802-8.647 4.802z" fill="#3c122c"/><path d="m70.447 195.279c-.907 0-1.827-.122-2.743-.377l-48.742-13.619c-5.409-1.512-8.569-7.122-7.057-12.532 1.511-5.41 7.124-8.568 12.532-7.058l48.742 13.619c5.409 1.512 8.569 7.122 7.057 12.532-1.256 4.494-5.342 7.435-9.789 7.435z" fill="#3c122c"/></g></g></svg>