<svg id="Capa_1" enable-background="new 0 0 512 512" height="512" viewBox="0 0 512 512" width="512" xmlns="http://www.w3.org/2000/svg"><g><g><path d="m108.679 87.701s29.785-20.84 55.581-.906c24.732 19.111 17.955 49.641 17.955 49.641s54.393 36.438 75.517 83.966 27.989 117.236 27.989 117.236l-104.898-.569z" fill="#c1e5ef"/><path d="m428.675 338.031h-210.767l-31.692-154.615c-1.228-4.504-4.058-13.811-6.764-21.753 6.734.344 14.069-2.826 20.467-10.207 10.527-12.146 9.564-35.375 5.782-38.653s-26.912-.931-37.439 11.214c-2.525 2.913-4.374 5.878-5.616 8.807-21.589-19.674-57.794-16.585-92.899 4.299-45.05 26.8-68.036 70.014-56.924 92.145 11.46 22.823 44.734 30.561 80.963 21.099v110.09c-12.712 13.179-20.545 31.096-20.545 50.854 0 40.471 32.808 73.279 73.279 73.279h282.157c40.471 0 73.279-32.808 73.279-73.279s-32.81-73.28-73.281-73.28z" fill="#fff"/><path d="m74.01 421.893c5.131 35.454 35.632 62.695 72.508 62.695h282.157c36.875 0 67.377-27.241 72.508-62.695z" fill="#d789b9"/><path d="m431.234 417.453h70.445c.168-2.027.276-4.072.276-6.143 0-39.137-30.682-71.103-69.304-73.168 8.067 10.812 12.844 24.224 12.844 38.752-.001 15.352-5.346 29.449-14.261 40.559z" fill="#e1bdfc"/><path d="m421.188 427.499c-11.11 8.916-25.208 14.262-40.562 14.262h-249.771c-24.971 0-46.633-14.118-57.475-34.799-.084 1.439-.141 2.887-.141 4.348 0 40.471 32.808 73.279 73.279 73.279h282.157c34.905 0 64.089-24.413 71.462-57.089h-78.949z" fill="#c668b9"/><path d="m33.3 168.56s-31.74 31.741-18.275 64.443c13.466 32.702 63.481 14.428 63.481 14.428z" fill="#96b4eb"/><path d="m65.44 233.353c-22.711-1.63-46.119-11.112-52.416-23.652-.882-1.756-1.511-3.667-1.915-5.699-1.128 7.283-.974 19.916 1.713 25.266 7.378 14.693 35.893 22.318 61.973 23.18-3.266-6.29-6.412-12.64-9.355-19.095z" fill="#8286ea"/><path d="m95.024 229.832c-6.708 1.933-13.838 2.964-20.998 3.226 3.01 6.379 6.224 12.66 9.55 18.885 6.948-.25 13.702-.942 19.89-2.057l.105-13.495c.035-4.482-4.239-7.801-8.547-6.559z" fill="#e1bdfc"/><path d="m70.298 31.606 13.543 108.893c3.899 10.372 55.516-9.032 51.617-19.404l-58.031-91.905c-2.189-3.387-7.451-1.604-7.129 2.416z" fill="#f6e06e"/><g fill="#fbf2aa"><path d="m423.279 200.002 8.252 23.204c.353.993 1.053 1.781 1.935 2.178l20.616 9.288c2.913 1.312 2.913 5.953 0 7.265l-20.616 9.288c-.883.398-1.582 1.185-1.935 2.178l-8.252 23.204c-1.166 3.278-5.289 3.278-6.455 0l-8.252-23.204c-.353-.994-1.053-1.781-1.935-2.178l-20.616-9.288c-2.913-1.312-2.913-5.953 0-7.265l20.616-9.288c.883-.398 1.582-1.185 1.935-2.178l8.252-23.204c1.166-3.278 5.289-3.278 6.455 0z"/><path d="m270.262 30.715 6.121 17.212c.262.737.781 1.321 1.436 1.616l15.293 6.89c2.16.973 2.16 4.416 0 5.389l-15.293 6.89c-.655.295-1.174.879-1.436 1.616l-6.121 17.212c-.865 2.432-3.923 2.432-4.788 0l-6.121-17.212c-.262-.737-.781-1.321-1.436-1.616l-15.293-6.89c-2.16-.973-2.16-4.416 0-5.389l15.293-6.89c.655-.295 1.174-.879 1.436-1.616l6.121-17.212c.865-2.432 3.924-2.432 4.788 0z"/><path d="m403.537 59.976 6.121 17.212c.262.737.781 1.321 1.436 1.616l15.293 6.89c2.161.973 2.161 4.416 0 5.389l-15.293 6.89c-.655.295-1.173.879-1.436 1.616l-6.121 17.212c-.865 2.432-3.923 2.432-4.788 0l-6.121-17.212c-.262-.737-.781-1.321-1.436-1.616l-15.293-6.89c-2.16-.973-2.16-4.416 0-5.389l15.293-6.89c.655-.295 1.173-.879 1.436-1.616l6.121-17.212c.865-2.432 3.923-2.432 4.788 0z"/></g><circle cx="315.84" cy="165.379" fill="#f7e16e" r="12.244"/><path d="m187.215 31.807c0 5.252-4.258 9.509-9.509 9.509-5.252 0-9.509-4.257-9.509-9.509s4.257-9.509 9.509-9.509c5.251 0 9.509 4.257 9.509 9.509z" fill="#f7e16e"/></g><g><g fill="#3c122c"><path d="m428.674 327.985h-136.424c-.327-16.514-3.662-50.664-21.567-101.289-12.31-34.807-37.737-64.835-55.386-82.717 1.877-5.561 2.617-10.832 2.895-14.395.525-6.734.454-18.855-5.911-24.372-5.15-4.463-13.991-4.233-20.672-3.201-5.022-10.072-12.967-20.172-25.566-26.348-19.815-9.714-37.425-6.928-49.05-2.629l-31.072-49.208c-.019-.03-.037-.059-.056-.089-3.47-5.368-10.12-7.682-16.169-5.632-6.051 2.051-9.922 7.932-9.411 14.302.012.147.026.292.044.438l11.4 91.661c-2.37 1.248-4.743 2.568-7.118 3.981-47.429 28.215-75.256 76.43-60.766 105.287 12.04 23.979 43.271 34.951 79.895 28.983v93.789c-13.28 15.192-20.545 34.479-20.545 54.762 0 45.946 37.379 83.325 83.325 83.325h282.157c45.945 0 83.325-37.379 83.325-83.325-.002-45.944-37.383-83.323-83.328-83.323zm-156.542 0h-46.029l-30.047-146.586c-.042-.21-.092-.419-.149-.626-.736-2.699-1.976-6.896-3.416-11.503 4.131-1.727 8.079-4.346 11.708-7.778 16.021 16.779 37.271 42.866 47.541 71.904 16.942 47.903 20.032 79.963 20.392 94.589zm-114.934-234.283c6.848 3.357 11.653 8.822 15.031 14.683-4.083 2.208-8.171 5.142-11.561 9.053-.266.307-.527.616-.784.927-5.716-3.372-12.032-5.742-18.79-7.161l-13.035-20.644c7.579-1.957 17.821-2.405 29.139 3.142zm-33.134 28.164c-2.63 1.968-7.553 4.872-14.902 7.635-7.216 2.713-12.763 3.782-16.061 4.057l-9.404-75.623zm-102.265 102.893c-4.546-9.053-.038-26.718 13.981-45.005l33.246 64.378c-22.348 1.08-40.468-5.914-47.227-19.373zm79.216 142.671c1.806-1.872 2.816-4.372 2.816-6.974v-110.09c0-3.112-1.442-6.048-3.906-7.951-1.778-1.373-3.942-2.096-6.142-2.096-.847 0-1.7.107-2.538.326-3.172.829-6.309 1.504-9.397 2.044l-37.598-72.807c8.117-8.485 18.309-16.795 30.632-24.126.087-.052.173-.1.26-.151 2.763 5.421 8.393 8.16 16.515 8.16 6.615 0 14.878-1.812 24.574-5.456 7.592-2.854 14.476-6.403 19.382-9.995 2.828-2.071 4.915-4.118 6.437-6.092 5.206 1.764 9.872 4.421 13.828 8.026 2.41 2.195 5.734 3.086 8.914 2.389 3.182-.696 5.83-2.893 7.102-5.892.872-2.054 2.203-4.124 3.959-6.149 5.382-6.21 16.417-8.855 22.326-9.116.581 5.887-.47 17.185-5.851 23.394-3.953 4.561-8.341 6.952-12.363 6.755-3.335-.171-6.522 1.321-8.53 3.98-2.007 2.659-2.566 6.141-1.491 9.294 2.487 7.296 5.221 16.215 6.499 20.851l31.626 154.293c.958 4.674 5.07 8.029 9.841 8.029h210.767c34.867 0 63.232 28.366 63.232 63.233 0 1.807-.094 3.592-.243 5.361-.079-.003-.157-.012-.237-.012h-407.901c-.149-1.765-.243-3.546-.243-5.349.001-16.442 6.297-32.026 17.73-43.879zm327.66 107.113h-282.157c-28.83 0-53.198-19.401-60.777-45.828h403.712c-7.58 26.426-31.947 45.828-60.778 45.828z"/><circle cx="115.887" cy="185.554" r="10.048"/><path d="m394.647 384.105c-3.329 0-6.028-2.699-6.028-6.028v-12.155c0-3.329 2.699-6.028 6.028-6.028s6.028 2.699 6.028 6.028v12.155c0 3.329-2.699 6.028-6.028 6.028z"/><path d="m360.743 400.582c-3.329 0-6.028-2.699-6.028-6.028v-12.155c0-3.329 2.699-6.028 6.028-6.028s6.028 2.699 6.028 6.028v12.155c-.001 3.329-2.699 6.028-6.028 6.028z"/><path d="m304.025 386.957c-3.329 0-6.028-2.699-6.028-6.028v-12.155c0-3.329 2.699-6.028 6.028-6.028s6.028 2.699 6.028 6.028v12.155c-.001 3.329-2.7 6.028-6.028 6.028z"/></g><path d="m180.949 451.968c-4.876 0-9.745-.021-14.841-.062-5.549-.045-10.01-4.578-9.966-10.126.045-5.52 4.535-9.965 10.044-9.965h.082c13.09.105 24.681.076 38.758-.099 5.583-.086 10.101 4.373 10.17 9.921s-4.373 10.101-9.921 10.17c-8.743.108-16.542.161-24.326.161z" fill="#fff"/><path d="m137.009 451.808h-6.154c-5.548 0-10.046-4.498-10.046-10.046s4.498-10.046 10.046-10.046h6.154c5.548 0 10.046 4.498 10.046 10.046s-4.499 10.046-10.046 10.046z" fill="#fff"/></g></g></svg>