<svg id="Capa_1" enable-background="new 0 0 512 512" height="512" viewBox="0 0 512 512" width="512" xmlns="http://www.w3.org/2000/svg"><g><g><path d="m403.432 501.741s36.639-17.191 41.074-48.53-20.356-48.432-20.356-48.432 50.168-16.059 45.06-85.606c-5.107-69.547-51.592-80.79-51.592-80.79s18.978-92.574-73.071-54.475c0 0 23.173-124.706-65.359-84.051l-23.893 223.053z" fill="#e8a284"/><path d="m422.367 404.497s54.088-15.583 49.675-88.406c-.794-13.096-10.881-31.779-14.053-41.271 3.746 103.962-72.253 140.032-138.591 74.099-3.56-3.538-19.985 31.097-24.715 29.688l103.959 126.75s39.586-17.092 44.827-49.744c5.241-32.653-21.102-51.116-21.102-51.116z" fill="#d57b84"/><path d="m361.151 381.742c-3.99-.749-7.412-.461-10.373.587 4.555-10.05 8.737-21.695 12.771-35.976l17.273-57.109c5.803-20.544 4.954-41.393-1.259-60.25 6.313-3.605 12.36-9.163 17.69-16.842 16.232-23.39 10.124-64.114 2.841-69.167-7.283-5.055-47.57 3.471-63.802 26.859-.641.924-1.239 1.847-1.816 2.769-7.623-4.551-15.959-8.192-24.911-10.72l-61.284-17.31c-4.577-1.292-9.072-2.186-13.477-2.737.964-5.809.932-12.312-.306-19.423-4.833-27.756-37.45-52.184-46.092-50.679-8.643 1.506-31.082 35.521-26.249 63.275 1.599 9.183 4.75 16.736 8.964 22.619-14.249 9.188-25.184 20.563-31.688 29.596-15.697 21.801-29.471 53.683-29.471 53.683-30.295 15.77-46.616 44.447-44.613 73.964 1.653 24.356 12.666 44.981 30.411 61.487 15.597 14.507 44.249 26.22 60.857 29.388l2.55 1.229c-3.415 11.339-6.396 23.829-8.827 36.202-2.741-4.949-4.774-8.801-5.209-9.903 0 0-5.161 7.85-20.481-3.307-7.7-5.608-18.884-46.883-44.068-35.43-25.184 11.453-11.217 47.591 12.744 73.005 15.196 16.119 33.78 22.748 50.594 20.501-.432 5.407-.655 10.293-.647 14.441h258.91c-8.037-21.643-18.541-40.775-30.77-57.087 12.687-28.186 13.938-59.123-10.262-63.665z" fill="#efc5b4"/><path d="m78.32 448.051c-13.372-21.725-16.926-44.778 2.262-53.505 20.851-9.483 32.105 17.178 39.73 29.817-13.977 7.94-27.679 16.367-41.992 23.688z" fill="#e8a284"/><path d="m295.007 187.607c.097-.45.175-.907.209-1.382 4.431-17.356 3.583-33.76-4.97-48.773 5.352-19.306 4.649-35.763-4.914-48.216.099-23.054-2.769-48.523-7.713-75.682-.416-4.085-6.204-4.507-7.209-.526-7.724 20.87-13.636 40.631-14.454 57.277-8.862 11.135-12.693 23.86-9.778 38.747-7.919 11.569-12.009 24.805-10.221 40.5-10.177 11.612-9.134 25.26-9.163 31.571 1.169 21.552 63.907 26.434 68.213 6.484z" fill="#f6e06e"/><path d="m295.007 187.607c.097-.45.175-.907.209-1.382 3.147-12.326 3.612-24.168.565-35.376-.35 3.315-.957 6.672-1.821 10.073-.027.406-.092.797-.174 1.181-3.635 17.033-58.762 12.398-59.945-6.046-.004-1.042-.045-2.32-.045-3.772-7.852 10.951-6.974 23.016-7.001 28.838 1.168 21.552 63.906 26.434 68.212 6.484z" fill="#dda86a"/><path d="m140.506 162.234c16.058-3.891 29.959-13.55 39.924-26.729 2.831-3.743 6.27-7.147 10.306-10.065 19.28-13.937 46.277-11.559 62.806 5.551 19.715 20.407 17.656 52.842-3.746 70.667-18.427 15.347-41.408 17.251-60.323 11.031-11.019-3.624-34.658-18.008-52.473-29.385-8.623-5.506-6.438-18.66 3.506-21.07z" fill="#e8a284"/><path d="m253.542 130.992c-16.529-17.109-43.526-19.488-62.806-5.551-4.037 2.918-7.476 6.321-10.306 10.065-9.965 13.178-23.866 22.838-39.924 26.729-9.944 2.41-12.129 15.564-3.505 21.071 17.815 11.377 41.453 25.76 52.473 29.384 18.915 6.221 41.896 4.317 60.323-11.031 21.401-17.825 23.46-50.26 3.745-70.667zm-10.777 44.545c-10.882 13.415-27.041 17.815-41.509 15.866-8.429-1.135-27.503-8.299-41.959-14.082-6.997-2.799-7.408-12.498-.654-15.537 10.906-4.906 19.404-13.654 24.556-24.399 1.463-3.052 3.414-5.942 5.864-8.563 11.704-12.519 31.38-14.387 45.776-4.333 17.17 11.992 20.565 35.467 7.926 51.048z" fill="#d57b84"/><path d="m171.779 369.279c-4.618.012-7.969-12.571-6.616-24.943 3.315-30.307-3.846-52.144 23.741-52.144 21.308 0 20.542 21.727 24.021 52.016 1.42 12.366-1.863 24.966-6.481 24.979z" fill="#d789b9"/><path d="m183.821 369.167c-3.327.015-5.73-8.851-4.744-17.577 2.413-21.372 9.166-36.761 17.143-36.797 7.977-.037 14.778 15.289 17.259 36.639.057.489.099.98.135 1.469.165-2.831 2.865-13.991 2.519-16.973-3.514-30.25-15.912-43.747-27.215-43.747-18.496 0-20.872 21.857-24.291 52.139-1.396 12.363 2.009 24.927 6.722 24.904l35.378-.163z" fill="#c668b9"/><path d="m309.609 429.174c4.025.427 8.174.215 11.655-1.834 3.626-2.136 5.762-5.906 7.599-9.558 4.963-9.866 8.39-20.011 16.261-28.118.578-.596 1.199-1.002 1.832-1.248 5.919-11.617 11.171-25.314 16.195-43.099l17.273-57.109c5.803-20.544 4.954-41.392-1.259-60.25 6.313-3.605 12.361-9.162 17.69-16.842 16.232-23.389 10.124-64.113 2.841-69.167-3.36-2.332-13.747-1.766-25.552 1.808 4.747 7.965 3.99 44.48-11.986 65.045-5.514 7.098-11.368 12.13-17.199 15.282 2.888 18.339.956 38.332-6.597 57.719l-21.97 53.837c-7.048 18.091-13.719 31.626-20.797 42.982-5.794 9.293-5.412 21.149 1.114 29.944 4.654 6.274 8.967 13.164 12.9 20.608z" fill="#d994b3"/><path d="m370.498 444.769c-4.888 13.418-13.194 25.538-24.772 34.167-14.248 10.62-31.277 12.581-47.018 6.941-1.355.145-2.744.196-4.168.117l-150.371-3.349c-1.094 9.599-1.308 13.179-1.294 19.847h258.91c-8.146-21.936-18.843-41.27-31.287-57.723z" fill="#d994b3"/><path d="m376.133 433.156c7.793-24.291 5.736-47.526-14.982-51.414-22.513-4.225-27.069 24.353-31.454 38.447 15.469 4.37 30.788 9.279 46.436 12.967z" fill="#e8a284"/><path d="m76.204 132.845-.55-59.628 55.134 24.323" fill="#f6e06e"/><path d="m51.957 205.142-20.984-32.001 36.072-8.786" fill="#f6e06e"/><path d="m465.976 46.746 8.426 23.691c.361 1.014 1.075 1.818 1.976 2.224l21.049 9.483c2.974 1.34 2.974 6.078 0 7.417l-21.049 9.483c-.901.406-1.615 1.21-1.976 2.224l-8.426 23.691c-1.19 3.347-5.4 3.347-6.59 0l-8.425-23.691c-.361-1.014-1.075-1.818-1.976-2.224l-21.049-9.483c-2.974-1.34-2.974-6.078 0-7.417l21.049-9.483c.901-.406 1.615-1.21 1.976-2.224l8.425-23.691c1.19-3.347 5.399-3.347 6.59 0z" fill="#fbf2aa"/><path d="m397.604 20.864c0 5.362-4.347 9.709-9.709 9.709s-9.709-4.347-9.709-9.709 4.347-9.709 9.709-9.709c5.362.001 9.709 4.347 9.709 9.709z" fill="#f7e16e"/></g><g><g fill="#3c122c"><path d="m171.773 373.741c-2.789 0-5.327-1.137-7.342-3.29-2.235-2.387-8.17-8.729-5.464-47.987 1.236-17.914 2.514-36.437 29.928-36.437 17.715 0 25.443 16.39 30.197 30.669 3.867 11.613 3.252 41.743-4.198 52.104-3.025 4.207-6.667 4.844-8.57 4.849l-34.525.092c-.007 0-.017 0-.026 0zm17.123-75.406c-14.553 0-16.23 4.412-17.649 24.976-1.683 24.404.245 35.147 1.775 38.118l32.114-.086c3.609-5.158 5.685-30.528 2.278-40.759-6.509-19.553-12.747-22.249-18.518-22.249z"/><path d="m272.943 262.203c-.895-3.28-4.279-5.218-7.557-4.317l-24.42 6.662c-3.279.895-5.212 4.277-4.318 7.556 1.323 4.847 4.453 8.89 8.816 11.382 2.881 1.646 6.071 2.486 9.301 2.486 1.662 0 3.334-.222 4.98-.671 4.848-1.322 8.89-4.453 11.383-8.817 2.493-4.362 3.137-9.434 1.815-14.281z"/><path d="m146.382 234.599c-2.384-2.42-6.28-2.451-8.703-.067-3.58 3.526-5.573 8.234-5.611 13.258s1.882 9.763 5.407 13.343 8.234 5.573 13.258 5.611c.05.001.099.001.149.001 4.969 0 9.65-1.917 13.195-5.409 2.422-2.385 2.451-6.281.066-8.702z"/><path d="m242.951 251.195c-2.497 0-4.845-1.531-5.768-4.008-1.186-3.185.434-6.729 3.618-7.915l16.287-6.068c3.184-1.191 6.729.433 7.916 3.618 1.186 3.185-.434 6.729-3.618 7.915l-16.287 6.068c-.708.264-1.434.39-2.148.39z"/><path d="m306.735 254.383c-1.586 0-3.172-.609-4.376-1.826-2.39-2.417-2.368-6.313.048-8.703l7.421-7.34c1.176-1.163 1.688-2.827 1.371-4.45l-1.644-8.406c-.652-3.335 1.523-6.569 4.859-7.221 3.339-.656 6.568 1.525 7.221 4.859l1.644 8.406c1.109 5.677-.683 11.495-4.795 15.563l-7.422 7.34c-1.199 1.186-2.764 1.778-4.327 1.778z"/><path d="m315.4 271.753c-1.668 0-3.329-.674-4.543-2.001-2.293-2.509-2.119-6.401.39-8.695.027-.025 2.776-2.539 4.026-3.775l5.645-5.584c4.951-4.897 12.304-6.334 18.736-3.664l7.333 3.047c1.064.442 3.812 1.313 5.295 1.759 3.255.978 5.101 4.408 4.124 7.664-.977 3.254-4.412 5.093-7.663 4.125-.454-.136-4.488-1.354-6.477-2.181l-7.334-3.047c-1.839-.766-3.942-.354-5.357 1.048l-5.645 5.584c-1.422 1.406-4.257 4-4.377 4.11-1.183 1.077-2.67 1.61-4.153 1.61z"/><path d="m351.481 245.634c-.787 0-1.587-.152-2.358-.473l-9.336-3.878c-5.342-2.219-9.194-6.933-10.304-12.611l-1.738-8.887c-.652-3.335 1.523-6.569 4.859-7.221 3.339-.652 6.568 1.525 7.221 4.859l1.738 8.887c.318 1.624 1.419 2.972 2.946 3.606l9.336 3.878c3.139 1.304 4.626 4.905 3.322 8.044-.983 2.368-3.274 3.796-5.686 3.796z"/><path d="m456.081 395.068c12.263-13.092 26.269-37.016 23.359-76.646-4.243-57.767-34.991-79.387-50.536-86.687 1.29-13.027 1.466-37.634-12.414-53.359.185-3.346.191-6.354.117-8.842-.197-6.62-1.63-28.771-11.802-35.829-10.173-7.061-31.424-.652-37.694 1.479-2.785.947-6.212 2.254-9.945 3.969-1.485-18.663-6.792-38.238-20.896-49.231-10.609-8.268-24.261-10.473-40.727-6.648-.339-20.952-2.888-44.344-7.78-71.283-.905-6.484-6.2-11.475-12.778-11.955-6.52-.464-12.425 3.608-14.324 9.789-8.916 24.142-13.524 41.852-14.732 56.736-6.979 9.681-10.622 20.164-10.932 31.306-5.263-8.81-11.681-15.744-16.173-20.03-4.751-4.534-21.194-19.161-33.316-17.051-12.121 2.111-22.652 21.436-25.591 27.308-4.802 9.597-12.357 28.57-9.003 47.832.875 5.024 2.181 9.721 3.889 14.078-4.974 2.803-10.266 4.922-15.746 6.25-7.035 1.704-12.145 7.197-13.336 14.335-.743 4.454.165 8.798 2.433 12.383-12.576 18.189-23.448 41.255-27.287 49.743-31.253 17.66-49.144 48.774-46.889 82.008 1.759 25.924 12.878 48.686 33.022 67.684-3.532.261-7.106 1.185-10.664 2.804-10.136 4.61-16.587 12.616-18.657 23.152-4.355 22.169 11.704 48.746 28.185 66.226 11.723 12.433 27.964 20.296 46.093 22.419-.052 1.638-.08 3.199-.077 4.655.012 5.657 4.602 10.235 10.256 10.235h.023c5.664-.012 10.247-4.614 10.235-10.279-.043-20.114 5.727-60.224 15.457-92.529 1.456-4.834-.822-10.009-5.37-12.199l-2.55-1.228c-.803-.387-1.653-.667-2.528-.833-14.217-2.714-41.517-13.545-55.794-26.825-16.611-15.451-25.75-33.844-27.163-54.669-1.771-26.101 13.217-50.691 39.116-64.172 2.091-1.088 3.744-2.865 4.679-5.028.127-.296 12.315-28.323 26.311-48.799 20.564 12.772 35.017 20.576 43.001 23.202 7.4 2.433 14.96 3.626 22.419 3.626 15.892-.001 31.325-5.414 43.764-15.774.336-.279.655-.577.984-.863 1.712.243 3.417.453 5.089.586 2.116.168 4.294.257 6.492.257 15.303 0 31.56-4.364 34.621-17.06.02-.07.036-.14.053-.211.014-.063.034-.122.047-.185 0-.002.001-.003.001-.005.008-.035.01-.064.017-.099.021-.107.039-.214.054-.322.078-.408.158-.815.202-1.199 1.452-5.8 2.31-11.428 2.579-16.875l1.764.499c7.891 2.229 15.441 5.477 22.439 9.656 4.79 2.859 10.989 1.368 13.95-3.361.578-.922 1.071-1.675 1.552-2.367 11.853-17.079 40.333-24.611 49.264-23.901 3.802 8.111 6.697 37.435-5.155 54.513-4.263 6.142-9.091 10.779-14.35 13.783-4.235 2.418-6.182 7.484-4.655 12.116 5.785 17.561 6.185 36.287 1.154 54.163l-17.246 57.017c-.018.061-.036.121-.053.182-3.626 12.84-7.437 23.71-11.761 33.399-3.348 2.332-6.355 5.438-8.921 9.322-5.359 8.109-8.135 18.128-10.367 26.177-.861 3.108-2.028 7.318-2.742 8.728-2.6 2.956-4.741 3.183-7.135 2.604-2.612-.634-5.026-2.296-5.737-2.883l.081.068c-11.083-9.58-24.498 5.94-13.415 15.52 1.063.918 10.748 8.954 23.078 7.975 7.249-.574 13.836-4.149 19.05-10.339.892-1.059 1.639-2.258 2.31-3.576l27 6.921c-1.847 4.674-4.084 9.397-6.687 13.999-14.147 25.016-48.286 33.334-68.218 23.798-5.11-2.445-11.235-.285-13.679 4.825-2.445 5.111-.284 11.235 4.826 13.68 8.1 3.875 17.461 5.83 27.272 5.829 7.898 0 16.088-1.266 24.138-3.816 17.05-5.4 31.237-15.763 40.531-29.447 7.496 12.144 13.965 25.439 19.266 39.714 1.535 4.133 5.452 6.689 9.617 6.689.265 0 .531-.014.797-.035.526.083 1.058.135 1.595.135 1.459 0 2.942-.312 4.35-.974 1.701-.798 41.721-19.966 46.873-56.378 3.062-21.638-5.381-37.551-13.22-47.242 4.5-2.952 9.612-6.972 14.64-12.34zm-371.659 42.986c-5.315-9.893-7.891-19.245-6.615-25.738.782-3.979 2.947-6.58 7.02-8.433 7.42-3.375 12.913 1.354 23.516 20.233.165.294.319.565.48.852zm16.367 22.461c-3.627-3.846-6.928-7.898-9.838-11.995l24.563-13.173c.967 1.119 1.978 2.104 3.097 2.92 6.203 4.518 13.042 6.453 19.849 5.64-2.154 11.461-3.819 22.658-4.936 32.672-12-1.576-23.911-6.704-32.735-16.064zm43.378-42.669-1.592 1.653c-.549.74-1.662 1.978-4.047 3.218-2.185 1.136-4.317 1.427-7.55-.824-1.029-1.198-3.169-5.008-4.748-7.821-1.834-3.265-3.885-6.887-6.216-10.486 8.984 4.138 17.923 7.356 25.399 9.446-.425 1.592-.839 3.199-1.246 4.814zm121.96-346.284c.025-.207.049-.415.062-.623.003-.044.011-.087.013-.131.446-9.067 2.676-19.339 5.493-29.21 1.734 13 2.791 25.028 3.195 36.268l-8.777-6.161c.006-.047.008-.096.014-.143zm-6.085 10.919 16.096 11.298c.018.038.041.073.06.11.084.165.175.326.267.486.075.129.15.257.231.385.106.165.219.325.333.483.058.08.106.163.167.241 5.181 6.747 5.868 15.416 2.159 29.195l-22.938-15.99c-.02-.532-.068-1.069-.173-1.608-1.764-9.014-.551-16.974 3.798-24.6zm-70.933-1.017c6.476 2.432 21.382 14.205 29.352 28.786-10.965.079-21.956 3.427-31.33 10.203-4.441 3.209-8.347 7.025-11.61 11.34-1.145 1.515-2.346 2.972-3.595 4.372-.3-1.22-.577-2.465-.802-3.76-3.508-20.144 11.2-45.179 17.985-50.941zm56.748 115.467c-14.996 12.49-35.357 16.196-54.461 9.912-8.114-2.667-26.255-12.869-51.083-28.724-2.826-1.805-2.59-4.67-2.451-5.505.139-.832.845-3.611 4.093-4.398h.001c16.94-4.105 32.347-14.404 43.383-28.998 2.525-3.339 5.554-6.296 9.003-8.79 7.338-5.305 15.955-7.898 24.538-7.898 11.087 0 22.115 4.33 30.236 12.738 8.27 8.56 12.472 19.779 11.833 31.589-.631 11.651-6.132 22.612-15.092 30.074zm18.778-2.894c2.873-4.468 5.077-9.345 6.55-14.461l15.364 9.901c-3.846 2.79-11.826 4.811-21.914 4.56zm26.116-16.493-17.477-11.264c.474-14.806-4.923-28.816-15.306-39.564-2.868-2.969-6.019-5.542-9.372-7.718.264-.067.532-.127.787-.211l36.486 25.436c.398.277.821.483 1.252.655 4.428 9.78 5.624 20.558 3.63 32.666zm39.594-19.064c-6.128-3-12.532-5.449-19.13-7.313l-9.733-2.75c-1.118-3.928-2.613-7.729-4.484-11.395.181-.393.346-.796.48-1.219 3.102-9.847 5.829-21.457 4.244-32.913 9.36-1.913 16.708-.858 21.927 3.203 10.478 8.154 13.331 27.867 13.329 45.784-2.324 2.007-4.561 4.2-6.633 6.603zm10.652 259.551c.088-.316.172-.616.262-.942 5.783-20.866 9.988-26.776 17.999-25.267 4.398.825 7.122 2.834 8.832 6.511 2.79 6.001 2.525 15.697-.272 26.574zm80.026-23.021c-3.724 1.193-6.475 4.379-7.047 8.248s1.076 7.707 4.296 9.926c.799.568 19.533 14.176 16.078 38.59-2.464 17.414-18.04 30.03-27.66 36.274-6.605-15.738-14.582-30.305-23.761-43.491 7.378-18.332 11.023-39.262 3.762-54.874-4.309-9.265-11.929-15.349-22.088-17.686 2.696-7.223 5.221-15.02 7.651-23.617l17.246-57.02c.018-.061.036-.121.053-.182 5.458-19.327 5.713-39.478.803-58.743 5.204-4.077 9.955-9.194 14.184-15.289 1.451-2.09 2.731-4.255 3.864-6.462 1.319 10.053.204 20.469-.837 25.639-1.109 5.412 2.267 10.73 7.637 12.029.392.095 39.267 10.195 43.775 71.572 4.418 60.132-36.29 74.526-37.956 75.086z"/><path d="m73.438 138.956c-5.621 0-10.202-4.53-10.254-10.162l-.55-59.627c-.032-3.484 1.706-6.746 4.616-8.662 2.91-1.914 6.593-2.223 9.781-.817l55.134 24.322c5.183 2.287 7.531 8.342 5.245 13.524-2.286 5.183-8.34 7.532-13.524 5.245l-40.593-17.907.404 43.732c.053 5.665-4.498 10.299-10.162 10.352-.032 0-.065 0-.097 0z"/><path d="m46.126 212.585c-3.134 0-6.228-1.431-8.241-4.141l-23.517-31.652c-2.078-2.797-2.594-6.457-1.371-9.718 1.223-3.262 4.019-5.68 7.423-6.422l38.937-8.474c5.532-1.199 10.999 2.307 12.204 7.841 1.205 5.535-2.306 10.999-7.841 12.204l-23.406 5.093 14.037 18.893c3.379 4.548 2.431 10.972-2.116 14.351-1.838 1.366-3.983 2.025-6.109 2.025z"/></g><path d="m198.226 163.658c-2.484 0-4.973-.896-6.944-2.711-4.167-3.837-4.436-10.326-.6-14.493 14.126-15.345 30.146-15.583 31.937-15.553 13.242.179 12.964 20.691-.277 20.512h.183c-.356.009-8.812.311-16.75 8.934-2.022 2.197-4.782 3.311-7.549 3.311z" fill="#fff"/></g></g></svg>