<svg id="Capa_1" enable-background="new 0 0 512 512" height="512" viewBox="0 0 512 512" width="512" xmlns="http://www.w3.org/2000/svg"><g><g><path d="m106.529 504.689c-7.82 0-15.461-3.922-19.887-11.055-19.644-31.659-30.027-68.16-30.027-105.556 0-53.547 20.852-103.888 58.715-141.751s88.204-58.715 141.751-58.715 103.888 20.852 141.751 58.715 58.715 88.205 58.715 141.751c0 37.395-10.383 73.895-30.027 105.556-6.808 10.971-21.217 14.346-32.19 7.539-10.971-6.807-14.346-21.219-7.539-32.19 15.047-24.252 23.001-52.229 23.001-80.906 0-84.757-68.955-153.712-153.712-153.712s-153.711 68.954-153.711 153.712c0 28.678 7.954 56.655 23.001 80.905 6.807 10.971 3.432 25.383-7.538 32.19-3.838 2.382-8.097 3.517-12.303 3.517z" fill="#9781dd"/><g fill="#8962de"><path d="m126.37 468.983c-2.369-3.819-4.542-7.74-6.556-11.731.507 7.661-3.254 15.337-10.478 19.668-3.656 2.191-1.171 2.438-5.178 2.438-5.643 0-11.184-2.074-15.374-5.932-.341 7.129-.967 14.254-1.334 21.383 4.51 6.377 11.706 9.88 19.078 9.88 4.206 0 8.466-1.135 12.303-3.516 10.971-6.807 14.347-21.219 7.539-32.19z"/><path d="m430.273 287.022c-3.866 1.152-7.758 2.157-11.681 2.853 13.02 25.214 19.911 53.187 19.911 82.187 0 34.408-9.89 67.992-28.601 97.123-5.448 8.482-16.004 12.004-25.44 9.205-1.099 8.782 2.855 17.811 10.869 22.783 10.972 6.807 25.382 3.432 32.189-7.539 19.644-31.661 30.027-68.161 30.027-105.556.001-36.094-9.495-70.719-27.274-101.056z"/><path d="m132.066 298.744c-3.827-1.155-7.611-2.456-11.414-3.696-16.307 22.423-26.045 49.189-26.045 77.812 0 17.472 3.348 34.651 9.759 50.746.576-2.495 1.09-5.008 1.576-7.527-1.699-9.186-2.573-18.554-2.573-28.002.001-33.29 10.643-64.139 28.697-89.333z"/></g><path d="m296.208 184.586c.063-.453.107-.913.107-1.387 3.129-17.552 1.088-33.772-8.5-48.05 3.901-19.555 2-35.839-8.402-47.5-1.587-22.891-6.296-47.962-13.189-74.559-.712-4.024-6.488-4.02-7.194.005-6.142 21.281-10.564 41.328-10.16 57.91-7.982 11.701-10.855 24.611-6.873 39.176-7.015 12.063-10.107 25.5-7.184 40.948-9.253 12.27-7.219 25.742-6.787 32.008 2.735 21.308 65.366 21.566 68.182 1.449z" fill="#96b4eb"/><path d="m435.082 201.603c-17.704 30.748-45.709 37.898-67.84 25.156s-30.007-40.551-12.304-71.3c17.704-30.748 66.84-45.563 76.415-40.05 9.576 5.513 21.433 55.446 3.729 86.194z" fill="#c1e5ef"/><path d="m431.354 115.409c-1.14-.657-2.855-1.016-4.997-1.103 6.647 11.234 14.883 31.862 2.644 53.119-14.127 24.535-36.473 30.24-54.132 20.073-15.977-9.199-22.641-28.239-13.305-49.953-1.404 1.871-2.7 3.807-3.856 5.814-17.704 30.748-12.596 70.658 9.535 83.4s50.136 5.593 67.84-25.156c17.703-30.748 5.846-80.681-3.729-86.194z" fill="#a6aaed"/><path d="m89.881 198.642c15.915 31.297 43.222 39.802 65.748 28.348s31.74-38.532 15.825-69.828c-15.915-31.297-63.712-48.463-73.457-43.507-9.745 4.954-24.031 53.69-8.116 84.987z" fill="#c1e5ef"/><path d="m171.454 157.161c-15.915-31.297-63.712-48.463-73.457-43.507-1.092.555-2.241 1.664-3.398 3.232 12.892.314 32.289 1.906 43.591 24.131 12.913 25.395 5.437 47.366-12.84 56.66-16.686 8.485-36.602 3.463-49.769-16.795.754 2.025 13.33 15.851 14.301 17.76 15.915 31.297 43.222 39.802 65.748 28.348 22.525-11.455 31.739-38.532 15.824-69.829z" fill="#a6aaed"/><path d="m452.025 228.313c-.682-.689-1.403-1.312-2.143-1.9l.132-24.884-25.24-.134c-.829-1.236-1.775-2.418-2.861-3.515-9.277-9.376-24.398-9.457-33.775-.18-1.097 1.086-2.055 2.258-2.898 3.485l-23.372-.124-.121 22.702c-1.169.8-2.293 1.698-3.336 2.73-9.376 9.277-9.457 24.398-.18 33.775 1.032 1.043 2.146 1.952 3.306 2.765l-.139 26.174 25.73.137c.392.46.782.921 1.214 1.358 9.277 9.376 24.398 9.457 33.774.18.437-.432.833-.889 1.229-1.345l26.198.139.137-25.709c.746-.581 1.474-1.196 2.163-1.878 9.379-9.278 9.459-24.399.182-33.776z" fill="#e8a284"/><path d="m313.469 218.453c.621-.716 1.211-1.471 1.755-2.274 7.4-10.919 4.547-25.769-6.372-33.169-.804-.545-1.631-1.028-2.474-1.462l-4.692-24.424-24.778 4.76c-1.054-1.053-2.218-2.025-3.497-2.892-10.919-7.4-25.769-4.547-33.169 6.372-.867 1.279-1.587 2.614-2.176 3.982l-22.943 4.408 4.28 22.279c-.994 1.013-1.916 2.124-2.74 3.341-7.399 10.919-4.546 25.769 6.373 33.169 1.217.825 2.484 1.515 3.783 2.088l4.935 25.688 25.248-4.851c.476.378.964.746 1.475 1.093 10.919 7.4 25.769 4.546 33.169-6.373.347-.511.663-1.034.965-1.562l25.707-4.939z" fill="#e8c2d8"/><path d="m176.468 246.204 10.262-22.655-22.983-10.411c-.253-1.469-.643-2.934-1.187-4.38-4.647-12.344-18.421-18.584-30.766-13.937-1.446.545-2.805 1.219-4.076 1.997l-21.281-9.64-9.361 20.665c-1.396.254-2.79.63-4.166 1.147-12.344 4.647-18.584 18.421-13.937 30.766.518 1.375 1.155 2.671 1.885 3.888l-10.793 23.826 23.419 10.609c.17.583.356 1.165.574 1.743 4.647 12.344 18.422 18.584 30.766 13.937.578-.218 1.138-.462 1.689-.718l23.845 10.801 10.603-23.407c.92-.226 1.837-.502 2.746-.845 12.344-4.647 18.584-18.421 13.937-30.765-.342-.908-.74-1.78-1.176-2.621z" fill="#faf1a9"/><path d="m386.777 16.07 6.423 18.061c.275.773.82 1.386 1.507 1.696l16.047 7.23c2.267 1.021 2.267 4.633 0 5.655l-16.047 7.23c-.687.31-1.232.922-1.507 1.696l-6.423 18.062c-.907 2.552-4.117 2.552-5.024 0l-6.423-18.062c-.275-.773-.819-1.386-1.507-1.696l-16.047-7.23c-2.267-1.021-2.267-4.634 0-5.655l16.047-7.23c.687-.31 1.232-.922 1.507-1.696l6.423-18.061c.908-2.552 4.117-2.552 5.024 0z" fill="#c2b2eb"/><path d="m48.44 56.81 6.424 18.062c.275.773.819 1.386 1.507 1.696l16.047 7.23c2.267 1.021 2.267 4.633 0 5.655l-16.047 7.23c-.687.31-1.232.922-1.507 1.696l-6.424 18.062c-.907 2.552-4.117 2.552-5.024 0l-6.423-18.062c-.275-.773-.819-1.386-1.507-1.696l-16.047-7.23c-2.267-1.021-2.267-4.633 0-5.655l16.047-7.23c.687-.31 1.231-.922 1.507-1.696l6.423-18.062c.907-2.552 4.117-2.552 5.024 0z" fill="#c2b2eb"/><ellipse cx="486.105" cy="122.82" fill="#9781dd" rx="8.157" ry="8.156" transform="matrix(.16 -.987 .987 .16 287.006 582.974)"/><circle cx="157.574" cy="43.944" fill="#9781dd" r="14.3"/></g><g><path d="m453.241 295.739 2.317.012.154-29.004c.128-.122.259-.238.385-.362 5.683-5.622 8.836-13.121 8.878-21.115.042-7.993-3.03-15.525-8.652-21.207-.125-.126-.255-.244-.381-.367l.15-28.178-7.143-.038c6.457-17.876 5.743-36.793 4.508-47.583-.642-5.611-4.485-33.968-17.075-41.217-12.589-7.249-39.045 3.665-44.219 5.926-12.063 5.271-34.073 17.195-45.953 37.827-7.221 12.542-10.804 25.28-10.975 37.183-6.049-2.219-12.2-4.171-18.448-5.823-1.362-1.383-2.876-2.655-4.543-3.785-.147-.1-.298-.189-.446-.286l-5.317-27.673-1.031.198c-1.549-6.037-3.892-11.753-7.036-17.124 3.351-20.464.264-37.05-9.199-49.405-1.733-21.473-6.047-45.359-13.17-72.89-1.358-6.307-6.919-10.828-13.417-10.828h-.011c-6.438.004-11.952 4.448-13.37 10.662-7.089 24.626-10.367 42.542-10.472 57.401-7.859 12.774-10.349 26.427-7.454 40.679-6.502 12.685-8.871 26.113-7.067 40.026-3.838 6.285-5.594 12.631-6.325 18.293l-9.885 1.899 2.37 12.335c-7.119 1.809-14.122 3.988-20.988 6.521.036-11.189-2.887-23.209-8.995-35.221-10.692-21.027-31.852-33.956-43.514-39.791-5.006-2.506-30.629-14.672-43.489-8.13-12.86 6.539-18.124 34.41-19.05 39.931-2.154 12.86-4.172 37.575 6.521 58.602.747 1.469 1.524 2.894 2.324 4.287-3.925 2.971-7.073 6.888-9.161 11.497-3.299 7.281-3.564 15.411-.748 22.893.254.674.537 1.33.834 1.978l-12.086 26.62 18.753 8.495c-18.742 31.912-28.752 68.353-28.752 106.338 0 39.275 10.907 77.612 31.541 110.868 6.146 9.904 16.78 15.817 28.446 15.817 6.22 0 12.311-1.739 17.614-5.03 15.672-9.724 20.512-30.387 10.787-46.061-14.057-22.655-21.487-48.795-21.487-75.594 0-28.935 8.612-55.89 23.391-78.461l11.011 4.988 11.968-26.419c.166-.059.334-.113.499-.175 9.332-3.513 15.878-11.22 18.321-20.176 11.878-7.778 24.967-13.848 38.924-17.852l3.876 20.176 28.65-5.505c5.006 3.245 10.636 4.817 16.221 4.817 9.408 0 18.654-4.429 24.46-12.633l16.799-3.228c15.577 5.87 29.867 14.377 42.339 24.967l-.103 19.404 19.134.102c19.868 24.642 31.786 55.95 31.786 89.996 0 26.799-7.43 52.939-21.487 75.594-4.711 7.593-6.184 16.565-4.146 25.265s7.342 16.085 14.935 20.796c15.672 9.722 36.333 4.884 46.059-10.788 20.635-33.257 31.542-71.594 31.542-110.867.003-31.488-6.879-61.911-19.902-89.577zm-222.777-112.285c-2.409.49-4.716 1.259-6.884 2.285l-1.381-7.188 7.941-1.526c-.12 2.128-.019 4.28.324 6.429zm29.575-22.524c3.443 0 6.922.994 9.981 3.066 3.218 2.181 5.487 5.238 6.723 8.638-11.988-3.319-25.015-.451-34.498 7.73-.376-4.095.664-8.159 3.001-11.608v-.001c3.445-5.083 9.07-7.825 14.793-7.825zm-14.325 33.557c2.941-4.34 7.004-7.47 11.539-9.288l-5.391 14.109-10.522 9.345c.004-5.018 1.497-9.92 4.374-14.166zm16.386 11.896 2.711-7.096 5.321 5.962 5.955 1.991-4.398 4.142-3.049 7.405-5.668-5.816-5.744-2.26zm4.697-23.026c4.885.008 9.817 1.419 14.157 4.359v.001c4.24 2.873 7.44 6.865 9.303 11.516l-13.245-4.428zm-7.875-111.866c.009-.199.018-.398.016-.598-.001-.045.004-.089.003-.135-.226-9.236 1.306-19.853 3.451-30.061 2.758 13.101 4.74 25.243 5.982 36.617l-9.456-5.649c.003-.057.001-.116.004-.174zm-5.189 11.158 17.04 10.179c.104.174.22.339.335.506.058.084.11.171.171.254.197.27.405.531.628.779 6.375 7.154 8.765 17.297 7.27 30.835l-27.175-16.116c-.02-.18-.033-.361-.063-.54-.015-.088-.04-.176-.057-.264-.046-.241-.094-.481-.158-.718-.004-.013-.005-.026-.009-.039-2.429-8.885-1.794-16.931 2.018-24.876zm-5.818 38.068 30.524 18.103c.025.064.047.129.073.193.068.162.148.318.224.476.066.138.124.277.197.413.157.292.327.576.512.852.003.004.005.008.007.012 2.776 4.135 4.817 8.559 6.168 13.291l-6.935 1.332c-.607-.485-1.231-.956-1.885-1.4-8.833-5.986-19.749-6.596-28.864-2.592l-3.158-1.721c-.01-.066-.026-.132-.037-.198-.012-.074-.017-.148-.031-.222-1.894-10.022-.841-19.412 3.205-28.539zm-145.247 2.123c9.353-.41 47.026 13.754 59.807 38.887 7.796 15.332 8.891 29.75 3.831 40.791-3.097-5.542-7.859-9.938-13.749-12.606-7.28-3.298-15.411-3.564-22.893-.748-.738.278-1.457.589-2.163.919l-24.076-10.906-5.679 12.537c-11.008-25.133-.745-61.778 4.922-68.874zm41.188 88.545c-6.049-2.74-12.567-3.798-19.005-3.175 1.983-3.428 5.084-6.231 9.072-7.732 2.063-.777 4.181-1.145 6.265-1.145 7.216 0 14.025 4.412 16.714 11.554 1.335 3.546 1.488 7.333.515 10.919-3.606-4.425-8.208-7.996-13.561-10.421zm9.241 39.959-8.262-11.26-1.737-15.257c4.096 2.898 7.24 6.944 9.047 11.743 1.804 4.793 2.114 9.9.952 14.774zm-58.057-36.698c2.046-.77 4.172-1.154 6.293-1.154 2.017 0 4.026.364 5.961 1.055-5.639 3.828-10.138 9.139-13.021 15.505-2.279 5.032-3.396 10.387-3.351 15.751-2.769-1.978-5.005-4.759-6.292-8.177-3.465-9.206 1.205-19.514 10.41-22.98zm11.389-12.801 3.02-6.667 7.365 3.336c-1.325 1.669-2.484 3.485-3.445 5.438-2.249-.991-4.577-1.693-6.94-2.107zm-2.72 37.788 7.644 11.645 2.37 14.932c-4.108-2.899-7.262-6.95-9.073-11.76-1.809-4.807-2.115-9.93-.941-14.817zm4.006-8.825c2.898-4.095 6.943-7.238 11.743-9.045 2.909-1.095 5.933-1.64 8.951-1.64 1.965 0 3.927.24 5.853.701l-12.565 8.425zm18.259 10.126 6.31-4.23.905 7.94 3.714 5.062-5.982.845-6.763 4.288-1.273-8.022-3.387-5.16zm-47.909 23.524 4.471-9.813c1.948 1.565 4.104 2.898 6.44 3.956.116.053.234.097.351.148-1.41 3.014-2.319 6.26-2.671 9.601zm20.756 120.857c0 30.556 8.477 60.369 24.514 86.216 3.868 6.234 1.944 14.452-4.29 18.32-2.111 1.31-4.529 2.002-6.992 2.002-4.648 0-8.882-2.353-11.327-6.293-18.653-30.063-28.513-64.728-28.513-100.245 0-32.751 8.231-64.23 23.687-92.102 2.369 2.227 5.112 4.074 8.161 5.455 3.943 1.786 8.133 2.683 12.336 2.683 2.021 0 4.041-.236 6.04-.654-14.977 24.712-23.616 53.672-23.616 84.618zm23.873-97.212c-4.458 1.679-9.304 1.521-13.646-.446-4.341-1.966-7.655-5.505-9.334-9.964-1.142-3.032-1.388-6.179-.889-9.163 3.684 4.744 8.487 8.555 14.114 11.104 4.935 2.236 10.181 3.358 15.441 3.358.525 0 1.051-.013 1.577-.036-1.89 2.234-4.335 4.045-7.263 5.147zm-.183-17.907 12.681-8.04 13.9-1.962c-2.899 4.104-6.948 7.254-11.755 9.064-4.811 1.809-9.937 2.114-14.826.938zm24.835 25.646-8.996-4.075c1.948-2.106 3.601-4.501 4.898-7.138 2.63 1.157 5.368 1.915 8.142 2.285zm14.232-21.907c-3.154 1.188-6.499 1.437-9.725.796 4.54-3.637 8.199-8.311 10.669-13.763 2.621-5.787 3.707-12.001 3.252-18.165 2.808 2.03 4.965 4.835 6.214 8.152 3.465 9.205-1.205 19.514-10.41 22.98zm13.453-39.208c-2.188-1.913-4.668-3.515-7.39-4.748-.108-.049-.219-.09-.327-.138.05-.108.106-.212.155-.32 1.035-2.285 1.771-4.655 2.207-7.061l9.054 4.102zm10.492 6.135 9.206-20.324-12.234-5.542c.596-1.052 1.152-2.126 1.673-3.219 7.792-3.522 15.818-6.508 24.03-8.947-1.753 4.95-2.173 10.295-1.156 15.589.787 4.095 2.388 7.898 4.672 11.24-9.105 2.984-17.861 6.743-26.191 11.203zm40.903-13.322c-8.143-5.518-10.278-16.632-4.76-24.774 2.393-3.531 5.892-6.027 9.954-7.159-2.398 6.383-3.009 13.318-1.69 20.183 1.045 5.437 3.23 10.465 6.373 14.826-3.499-.019-6.915-1.069-9.877-3.076zm10.122 25.703-2.037-10.604c.618.039 1.238.069 1.859.069 1.896 0 3.806-.181 5.709-.546.122-.023.24-.055.361-.08.589 3.276 1.722 6.451 3.365 9.382zm15.936-23.516c-4.252-2.882-7.458-6.889-9.319-11.558l12.963 5.1 10.556 10.831c-5.029.003-9.944-1.489-14.2-4.373zm34.157 17.071c-5.518 8.143-16.63 10.28-24.775 4.76-2.686-1.821-4.708-4.254-6.024-6.985 3.545 1.073 7.192 1.599 10.821 1.599 8.22 0 16.345-2.699 22.976-7.819-.259 2.994-1.266 5.889-2.998 8.445zm1.083-23.841c-2.884 4.255-6.895 7.462-11.567 9.323l5.717-13.884 10.223-9.627c.002 5.025-1.491 9.935-4.373 14.188zm1.726-49.457c-.457-2.557-1.25-5.05-2.352-7.418l9.793-1.881 1.699 8.843c-3.063-.314-6.147-.159-9.14.456zm12.092 67.256c.377-2.851.344-5.768-.122-8.677 2.764-.563 5.45-1.512 7.968-2.83l1.853 9.643zm8.678-27.968c-1.93 2.848-4.547 4.948-7.479 6.251 1.607-5.587 1.897-11.511.768-17.385-1.198-6.233-3.894-11.93-7.816-16.698 3.374.04 6.772 1.028 9.768 3.058 8.143 5.518 10.277 16.632 4.759 24.774zm77.641 14.542c3.65-3.611 8.199-5.977 13.137-6.898l-8.039 12.82-12.12 7.119c.955-4.79 3.296-9.354 7.022-13.041zm-.664-14.538c.426-4.086 2.234-7.868 5.193-10.795v-.001c3.364-3.328 7.815-5.158 12.544-5.158h.097c4.764.026 9.234 1.904 12.586 5.292 2.665 2.693 4.35 6.088 4.923 9.76-5.099-2.569-10.757-3.953-16.634-3.985-.068-.001-.136-.001-.205-.001-6.591.002-12.922 1.704-18.504 4.888zm14.433 29.386 4.035-6.436 4.064 6.881 5.455 3.107-5.116 3.21-4.427 6.673-4.434-6.805-5.196-3.33zm17.068 15.618 11.883-7.454c-.952 4.798-3.295 9.371-7.027 13.063-3.654 3.615-8.219 5.992-13.16 6.909zm-.194-24.086-7.81-13.227c4.924.976 9.444 3.391 13.052 7.037 3.68 3.72 5.971 8.301 6.878 13.092zm15.495-26.222 9.939.053-.048 8.965c-2.777-.855-5.695-1.306-8.683-1.322-.054 0-.109 0-.163 0-.065 0-.129.006-.194.006.002-.119.012-.236.013-.354.013-2.509-.281-4.972-.864-7.348zm1.221 67.532c2.82-.016 5.639-.427 8.366-1.234l-.052 9.813-9.875-.053c.921-2.721 1.454-5.585 1.561-8.526zm3.809-12.545c5.587-10.902 5.489-23.994-.32-34.825 3.4.706 6.522 2.39 9.02 4.915 3.352 3.387 5.183 7.876 5.158 12.641s-1.904 9.234-5.292 12.586c-2.45 2.424-5.431 3.977-8.566 4.683zm-75.36-101.99c13.771-23.918 50.379-36.206 61.41-36.206.417 0 .797.018 1.137.053 5.412 7.448 14.004 45.591 1.079 70.489-.355-.402-.704-.809-1.085-1.193-5.623-5.682-13.121-8.835-21.114-8.877-.055-.001-.109-.001-.164-.001-7.932 0-15.401 3.069-21.043 8.652-.561.555-1.09 1.132-1.601 1.722l-26.43-.141-.002.34c-1.898-10.275.631-22.364 7.813-34.838zm12.298 46.695c-.529 2.063-.848 4.194-.928 6.367-2.458.013-4.871.321-7.197.907l.039-7.317zm-53.581 25.655-2.466-12.835c.101-.144.207-.283.307-.429 2.952-4.355 4.593-9.218 5.023-14.121 4.981 1.731 9.879 3.68 14.693 5.825 2.533 5.636 6.08 10.783 10.587 15.282-3.585 5.231-5.329 11.356-5.219 17.46-7.303-4.292-14.958-8.047-22.925-11.182zm40.278-2.046c3.036-3.003 6.975-4.796 11.173-5.1-6.59 10.673-7.34 23.969-2.209 35.239-3.342-.678-6.525-2.31-9.099-4.912-6.918-6.992-6.857-18.309.135-25.227zm4.813 52.405.057-10.814c2.512.663 5.094 1.002 7.678 1.002.065 0 .13-.004.195-.004-.002.122-.011.244-.012.366-.017 3.277.497 6.474 1.488 9.5zm13.305-33.116 11.714 7.507 8.255 12.672c-4.935-.972-9.466-3.388-13.082-7.043-3.691-3.731-5.985-8.328-6.887-13.136zm7.299 28.362c5.301 2.833 11.245 4.357 17.427 4.389h.205c5.903 0 11.597-1.368 16.731-3.938-.835 2.882-2.384 5.523-4.575 7.692-6.991 6.917-18.308 6.858-25.228-.134-2.236-2.259-3.777-5.014-4.56-8.009zm36.405 207.12c-3.867 6.233-12.086 8.157-18.319 4.29-3.019-1.874-5.129-4.81-5.939-8.27-.811-3.46-.225-7.028 1.649-10.048 16.038-25.848 24.515-55.661 24.515-86.216 0-29.663-7.945-57.496-21.794-81.516.242.006.484.017.726.017 7.42 0 14.84-2.744 20.605-8.222l4.706.025c14.605 27.271 22.365 57.885 22.365 89.695 0 35.517-9.861 70.181-28.514 100.245z" fill="#3c122c"/><g><path d="m109.974 180.021c-4.546 0-8.67-3.098-9.784-7.712-3.484-14.435 1.432-28.079 2.004-29.588 1.973-5.201 7.786-7.821 12.991-5.846 5.187 1.967 7.805 7.757 5.863 12.947-.095.262-3.311 9.319-1.274 17.76 1.305 5.408-2.021 10.851-7.429 12.156-.794.191-1.588.283-2.371.283z" fill="#fff"/></g></g></g></svg>