<svg id="Capa_1" enable-background="new 0 0 512 512" height="512" viewBox="0 0 512 512" width="512" xmlns="http://www.w3.org/2000/svg"><g><g><path d="m473.693 431.581c1.858-8.345 2.844-16.939 2.844-25.724 0-78.913-78.169-142.884-174.596-142.884l-.779.824c-.088-20.329-10.573-41.32-16.375-43.316-7.322-2.52-39.166 14.213-47.258 37.729-.319.929-.603 1.847-.869 2.758-7.489-2.016-15.361-3.098-23.486-3.098h-55.628c-4.154 0-8.145.317-11.98.899-.569-5.112-2.14-10.573-4.869-16.256-10.653-22.185-43.872-34.976-50.781-31.659-6.908 3.318-17.696 37.24-7.043 59.425 3.525 7.34 7.967 12.941 12.907 16.887-9.797 11.107-16.288 23.266-19.612 32.404-8.019 22.054-12.029 52.126-12.029 52.126-16.618 15.644-24.557 35.695-23.485 55.151-17.201 1.718-30.632 16.232-30.632 33.886v4.681c0 18.809 15.248 34.057 34.057 34.057h45.832c5.396 0 10.495-1.259 15.029-3.493 13.56 3.064 28.079 4.037 37.557 3.213 10.066-.323 25.543-.566 42.93-1.794 5.483 1.358 11.186 2.075 16.989 2.075h199.046c1.237 0 2.467-.04 3.694-.104 4.989 2.865 10.766 4.512 16.932 4.512h45.832c18.809 0 34.057-15.248 34.057-34.057v-4.682c.001-16.84-12.225-30.817-28.284-33.56z" fill="#c1e5ef"/><path d="m200.479 250.969c4.473 1.698 8.963 3.392 13.406 5.165 3.86 1.538 7.681 3.811 11.815 4.531 6.961 1.215 9.397-12.312 12.047-16.868 3.07-5.282 7.068-10.101 11.43-14.545-8.553-22.168-26.538-37.88-64.185-14.35l1.102 31.638c4.857 1.035 9.635 2.626 14.385 4.429z" fill="#faf1a9"/><path d="m331.802 322.387s3-47.467-28.424-52.98c-.848 3.9-2.134 7.669-4.076 11.076-3.914 6.866-10.577 10.266-8.561 19.114 1.511 6.636 5.015 12.628 8.012 18.667 3.289 6.629 5.917 13.54 7.432 20.799 3.477 16.662 2.058 33.658-.284 50.365-2.202 15.707-4.452 31.396-6.6 47.111-.994 7.272-2.128 14.669-3.926 21.868 12.644-.58 87.144-6.667 94.978-69.606 7.869-63.241-58.551-66.414-58.551-66.414z" fill="#faf1a9"/><path d="m34.12 428.811c-14.048 5.044-24.098 18.478-24.098 34.263 0 20.101 16.296 36.398 36.398 36.398h6.323c3.059 0 5.54-2.481 5.54-5.54v-22.299c-10.968-12.583-19.922-26.897-24.163-42.822z" fill="#f6e06e"/><path d="m354.102 441.164s42.349-24.772 28.462-86.971c-2.498-11.186-13.784-25.903-17.834-33.651 13.206 66.804-17.414 106.039-61.622 102.776-4.377-.323-8.703 32.553 4.275 33.418 15.753 1.051 46.719-15.572 46.719-15.572z" fill="#dfb5a7"/><path d="m300.697 414.109 1.654-13.988.961-52.11c0-18.649-5.663-35.974-15.363-50.351 4.451-4.529 8.215-10.637 10.872-18.359 8.092-23.516-6.712-56.3-14.035-58.82-3.455-1.189-4.442-.441-13.745 5.634 5.764 10.816 9.722 24.738 8.264 42.237-.918 11.018-15.167 22.677-18.894 26.986 8.122 13.679 17.79 50.076 20.839 74.852l.182 27.064c-5.687 39.256-7.663 25.427-17.764 42.843-1.393 2.401 9.753-5.573 32.393 21.247 8.159 9.667 4.636-47.235 4.636-47.235z" fill="#a6aaed"/><path d="m209.934 272.866c-.029-.401-.077-.803-.165-1.21-.563-15.637-5.314-29.176-16.182-39.651-.271-17.498-4.915-31.118-15.997-39.198-5.597-19.345-14.275-39.984-25.109-61.528-1.355-3.321-6.31-2.249-6.171 1.335-1.332 19.394-1.418 37.412 1.997 51.563-4.684 11.516-4.759 23.123 1.351 34.882-3.786 11.647-3.953 23.747 1.412 36.46-5.669 12.239-1.432 23.421.099 28.717 6.289 17.775 60.071 6.41 58.765-11.37z" fill="#e8c2d8"/><path d="m209.934 272.866c-.029-.401-.077-.803-.165-1.21-.4-11.105-2.927-21.144-8.242-29.787.523 2.864.842 5.828.955 8.891.078.347.12.691.145 1.032 1.15 15.171-46.193 24.868-51.728 9.702-.26-.872-.609-1.934-.966-3.15-3.883 11.112-.174 21.008 1.237 25.893 6.288 17.774 60.07 6.409 58.764-11.371z" fill="#d392d8"/><path d="m74.198 289.665c12.499-7.217 21.769-18.737 26.874-32.237 1.45-3.835 3.494-7.534 6.158-10.974 12.724-16.43 35.936-21.088 54.004-10.821 21.55 12.246 27.816 39.936 14.271 60.148-11.662 17.402-30.453 24.659-47.838 24.106-10.128-.322-33.482-6.553-51.216-11.699-8.583-2.491-9.993-14.054-2.253-18.523z" fill="#faf1a9"/><path d="m161.234 235.633c-18.068-10.267-41.279-5.609-54.004 10.821-2.664 3.44-4.708 7.14-6.158 10.975-5.105 13.499-14.375 25.02-26.874 32.236-7.741 4.469-6.331 16.032 2.253 18.523 17.733 5.146 41.088 11.376 51.216 11.699 17.385.553 36.176-6.704 47.838-24.106 13.545-20.212 7.28-47.902-14.271-60.148zm1.943 39.987c-5.815 13.923-18.273 21.592-30.88 23.523-7.344 1.125-25.094-.179-38.634-1.464-6.554-.622-9.288-8.649-4.376-12.86 7.932-6.799 12.898-16.224 14.569-26.498.474-2.918 1.397-5.821 2.805-8.621 6.725-13.375 22.754-19.788 37.296-14.909 17.345 5.82 25.974 24.657 19.22 40.829z" fill="#dfb5a7"/><path d="m120.391 278.065c-1.489 0-3-.333-4.425-1.035-4.964-2.448-7.003-8.457-4.556-13.421 8.261-16.753 22.054-21.024 23.599-21.456 14.732-4.117 20.127 15.186 5.395 19.303l.195-.057c-.28.091-6.905 2.34-11.212 11.074-1.745 3.54-5.3 5.592-8.996 5.592z" fill="#fff"/><path d="m465.581 431.084h-6.322c-3.06 0-5.54 2.48-5.54 5.54v61.717c0 3.059 2.48 5.54 5.54 5.54h6.322c20.102 0 36.398-16.296 36.398-36.398-.001-20.102-16.296-36.399-36.398-36.399z" fill="#f6e06e"/><path d="m234.235 500.474h6.322c3.059 0 5.54-2.48 5.54-5.54v-61.717c0-3.059-2.48-5.54-5.54-5.54h-6.322c-20.102 0-36.398 16.296-36.398 36.398 0 20.103 16.296 36.399 36.398 36.399z" fill="#f6e06e"/><path d="m438.271 363.123c4.824 14.795 10.278 52.228 3.826 66.787-.24.542-.493 1.072-.74 1.607 9.7.063 19.402.05 29.1.3 1.05.027 2.108.041 3.171.05 1.899-8.434 2.908-17.124 2.908-26.01 0-61.312-47.192-113.597-113.467-133.873 37.563 22.048 62.58 52.429 75.202 91.139z" fill="#a6aaed"/><path d="m240.477 473.85c-11.419-.69-22.911-1.33-34.23-1.779l3.319 29.305s11.988-.025 30.912-.065v-27.461z" fill="#dda86a"/><path d="m449.103 474.622c-26.072.83-48.684-.643-65.413-11.325-12.373 19.217-70.568 15.067-133.192 11.17v26.824c54.655-.115 150.205-.325 198.882-.473-.261-8.732-.437-17.463-.277-26.196z" fill="#a6aaed"/><path d="m459.136 474.211c-.173 8.86-.001 17.717.264 26.575 12.479-.042 20.076-.077 20.351-.101 5.66-.015 17.434-12.899 20.591-28.596-14.298.519-28.122 1.488-41.206 2.122z" fill="#dda86a"/><path d="m131.917 438.568c-5.23.012-9.008-6.614-7.459-13.134 3.794-15.97 14.411-27.47 26.953-27.497 12.542-.028 23.234 11.425 27.133 27.378 1.592 6.513-2.142 13.155-7.372 13.167z" fill="#d789b9"/><path d="m145.755 438.538c-3.691.008-6.357-4.668-5.264-9.27 2.678-11.271 10.171-19.387 19.022-19.406 8.852-.02 16.398 8.063 19.15 19.323.063.258.11.517.15.775.183-1.493.115-3.071-.269-4.644-3.899-15.953-14.592-27.406-27.133-27.378-12.542.028-23.159 11.527-26.952 27.497-1.549 6.52 2.229 13.146 7.459 13.134l39.255-.086z" fill="#c668b9"/><path d="m301.141 68.344c2.817 16.914 1.188 33.244-8.441 54.632-10.222 22.705-38.501 41.213-52.062 40.316-14.146-.935 2.947-18.742-7.878-42.475-4.84-10.611-35.903-31.663-33.004-63.531 2.391-26.284 24.501-46.271 50.836-44.53 26.335 1.742 46.016 28.375 50.549 55.588z" fill="#c1e5ef"/><path d="m301.141 68.345c-4.533-27.214-24.214-53.846-50.548-55.588-1.9-.125-3.774-.125-5.624-.03 18.396 3.884 31.89 23.275 35.188 43.072 2.215 13.3 1.301 27.974-6.271 44.794-7.3 16.216-20.838 42.898-34.018 12.363 3.654 18.863-11.42 49.532.771 50.338 13.561.896 41.84-17.611 52.062-40.316 9.628-21.389 11.257-37.72 8.44-54.633z" fill="#a6aaed"/><path d="m474.337 119.017 8.232 23.148c.352.991 1.05 1.776 1.931 2.173l20.566 9.266c2.905 1.309 2.905 5.938 0 7.247l-20.566 9.266c-.88.397-1.578 1.182-1.931 2.173l-8.232 23.148c-1.163 3.27-5.276 3.27-6.439 0l-8.232-23.148c-.353-.991-1.05-1.776-1.931-2.173l-20.566-9.266c-2.906-1.309-2.906-5.938 0-7.247l20.566-9.266c.881-.397 1.578-1.182 1.931-2.173l8.232-23.148c1.163-3.27 5.275-3.27 6.439 0z" fill="#e8c2d8"/><path d="m60.084 55.212 6.107 17.171c.261.735.779 1.318 1.432 1.612l15.256 6.873c2.155.971 2.155 4.405 0 5.376l-15.256 6.873c-.653.294-1.171.877-1.432 1.612l-6.107 17.171c-.863 2.426-3.914 2.426-4.776 0l-6.107-17.171c-.261-.735-.779-1.318-1.432-1.612l-15.256-6.873c-2.155-.971-2.155-4.405 0-5.376l15.256-6.873c.653-.294 1.171-.877 1.432-1.612l6.107-17.171c.862-2.426 3.913-2.426 4.776 0z" fill="#e8c2d8"/><g fill="#d789b9"><ellipse cx="363.439" cy="171.204" rx="12.214" ry="12.214" transform="matrix(.993 -.122 .122 .993 -18.195 45.689)"/><path d="m428.188 62.747c0 5.239-4.247 9.486-9.486 9.486s-9.486-4.247-9.486-9.486 4.247-9.486 9.486-9.486c5.238 0 9.486 4.247 9.486 9.486z"/></g></g><g fill="#3c122c"><path d="m485.091 425.186c.966-6.361 1.468-12.807 1.468-19.329 0-41.228-19.466-79.864-54.813-108.79-32.758-26.809-75.586-42.261-121.374-43.954-.818-5.627-2.103-10.533-3.227-14.105-1.775-5.639-8.398-24.322-19.096-28.004-10.223-3.517-25.94 6.051-31.562 9.833-4.337-9.312-10.446-17.465-19.066-22.496-11.83-6.904-26.059-6.865-42.422.022-2.055-4.135-4.861-8.01-8.687-11.391-5.476-18.077-13.591-37.731-24.757-59.96-2.567-5.654-8.728-8.773-14.838-7.451-6.053 1.31-10.341 6.6-10.428 12.729-1.518 22.349-1.027 38.335 1.597 51.153-4.788 13.805-3.827 27.327 2.88 40.237.096.184.208.353.316.527-.377-.004-.753-.003-1.129.003-7.31-7.745-15.819-13.013-21.363-15.946-5.181-2.741-22.874-11.308-33.012-6.442-10.135 4.868-14.512 24.033-15.611 29.79-1.783 9.336-3.652 27.336 3.873 43.006.995 2.071 2.078 4.024 3.222 5.893-1.869 1.449-3.829 2.769-5.87 3.947 0 0 0 0-.001.001-5.7 3.291-8.749 9.395-7.957 15.928.513 4.234 2.556 7.901 5.645 10.463-.776 1.776-1.493 3.545-2.13 5.297-6.754 18.574-10.713 42.007-12.043 50.759-15.751 16.002-24.168 36.12-24.19 56.354-17.674 5.634-30.516 22.192-30.516 41.71 0 24.144 19.643 43.787 43.787 43.787l424.426.616c24.144 0 43.786-19.643 43.786-43.787.001-18.166-11.119-33.779-26.908-40.4zm-184.829-126.683c3.284-4.62 5.976-9.955 8.036-15.941.27-.784.498-1.572.725-2.361.779.326 1.545.681 2.28 1.105 12.888 7.431 15.786 28.93 15.815 36.562-.008 4.949 3.643 9.169 8.534 9.925.253.039 25.436 4.15 38.325 24.971 12.779 20.641 1.231 52.675-4.188 61.391-7.276 11.705-18.047 20.675-32.014 26.66-8.5 3.643-20.999 6.016-30.316 7.396 3.393-14.034 4.908-29.174 4.913-47.997l.959-52.019c.001-.062.002-.123.002-.185.001-17.498-4.498-34.464-13.071-49.507zm-72.957-82.858c5.986 3.487 10.205 10.597 13.155 19.016-3.774 4.182-7.368 9.082-10.079 14.669-5.67-.984-11.429-1.481-17.207-1.481h-2.021c-2.593-6.629-6.251-12.536-10.97-17.676.065-.43.113-.865.121-1.311.067-3.456.024-7.112-.281-10.83 11.465-5.446 20.622-6.267 27.282-2.387zm-38.119 22.98 2.198.736c.366.122.735.198 1.104.249 5.749 6.756 9.258 15.007 10.64 24.982l-16.138-4.755c-3.352-12.539-11.39-22.955-22.785-29.431-.224-.127-.453-.242-.678-.365l21.646 7.242c1.198.712 2.556 1.184 4.013 1.342zm-111.059 63.788c-2.37-.687-2.856-2.658-2.955-3.473-.099-.812-.098-2.836 2.032-4.067v.001c13.313-7.687 23.786-20.229 29.492-35.319 1.269-3.358 3.049-6.527 5.288-9.418 10.904-14.083 30.801-18.069 46.279-9.275 8.883 5.048 15.061 13.27 17.393 23.151 2.302 9.748.426 20.107-5.147 28.421-9.368 13.979-25.313 21.99-42.651 21.444-7.408-.237-25.07-4.308-49.731-11.465zm110.499-29.558 13.572 3.999c-2.614 2.813-8.038 5.891-15.225 7.965 1.046-3.898 1.604-7.919 1.653-11.964zm-24.116-88.195-6.328-2.139c-.032-.19-.065-.38-.108-.567-.01-.043-.014-.085-.024-.128-1.471-6.094-2.184-13.116-2.447-20.234 3.454 8.054 6.407 15.717 8.907 23.068zm-8.905 9.684 14.231 4.812c.074.09.152.175.229.262.068.076.136.153.206.228.16.171.327.335.498.494.054.05.105.102.161.152.236.21.481.408.734.594.007.005.013.012.021.017 5.542 4.04 8.141 10.605 8.542 22.044l-21.071-7.05c-.165-.493-.357-.983-.605-1.458-3.451-6.643-4.42-13.156-2.946-20.095zm-61.086 26.098c4.666.621 13.825 4.202 22.167 10.054-5.385 3.046-10.245 7.157-14.21 12.277-2.971 3.837-5.336 8.053-7.028 12.529-1.187 3.139-2.619 6.141-4.271 8.979-6.237-15.323-.731-37.088 3.342-43.839zm-74.476 244.528c0-9.372 5.459-17.488 13.364-21.344.41 1.41.852 2.816 1.351 4.212 3.807 10.661 9.546 20.274 17 28.624v12.252h-7.97c-13.094 0-23.745-10.651-23.745-23.744zm43.741 22.697c.45.351.899.703 1.358 1.047h-1.358zm144.075-21.695c0-13.092 10.651-23.743 23.744-23.743h7.97v47.221l-13.021-.281c-10.674-2.322-18.693-11.837-18.693-23.197zm240.357-24.351v47.709s-21.724.003-21.917.003c-18.901-.001-28.847-7.474-32.209-24.173-1.093-5.428-6.378-8.938-11.803-7.847-5.426 1.093-8.939 6.377-7.847 11.803 1.355 6.73 3.831 13.919 8.179 20.334h-131.02v-47.221h12.396c5.534 0 10.022-4.487 10.022-10.022 0-5.534-4.487-10.022-10.022-10.022h-32.393c-24.144 0-43.787 19.642-43.787 43.786 0 8.516 2.452 16.466 6.675 23.198l-71.901-.456c-11.552-1.217-24.514-4.007-33.656-8.696-17.384-8.918-29.261-22.013-35.3-38.921-7.542-21.118-.885-44.915 17.375-62.103 1.676-1.579 2.759-3.688 3.064-5.971.039-.29 3.971-29.284 11.513-50.026.463-1.271 1.193-3.118 2.215-5.359 19.229 5.255 32.557 8.033 39.675 8.26.692.022 1.381.033 2.069.033 20.707 0 39.639-9.917 50.955-26.802.16-.238.304-.484.459-.725 1.41-.21 2.807-.45 4.163-.734 14.679-3.079 31.435-11.411 30.821-24.81 0-.092-.005-.184-.009-.276-.001-.023-.001-.045-.003-.069-.002-.029 0-.059-.002-.089-.003-.038-.01-.071-.013-.109-.009-.095-.02-.19-.033-.284-.035-.36-.069-.721-.124-1.053-.042-1.028-.102-2.043-.18-3.049 6.253.187 12.457 1.095 18.474 2.714 5.261 1.42 10.695-1.634 12.224-6.866.259-.888.49-1.623.726-2.308 5.525-16.054 26.415-28.882 34.321-30.935 4.97 6.484 13.543 29.451 8.018 45.504-2.074 6.026-4.948 10.937-8.544 14.596-3.339 3.398-3.825 8.679-1.16 12.629 8.913 13.21 13.632 28.65 13.65 44.655l-.959 52.015c-.001.062-.002.123-.002.185 0 23.201-2.436 40.004-8.147 56.182-1.842 5.219.896 10.944 6.115 12.785 1.307.461 2.647.634 3.949.553.49.074.987.123 1.495.123.291 0 .584-.013.88-.039 1.259-.109 31.04-2.769 49.051-10.488 17.813-7.634 31.655-19.242 41.141-34.501 8.679-13.962 21.787-54.124 4.207-82.523-12.728-20.56-33.165-29.094-44.412-32.384-1.03-8.752-3.979-22.949-12.4-34.264 75.349 12.141 132.307 65.945 132.307 130.291 0 5.372-.395 10.689-1.174 15.942h-15.036c-5.535 0-10.022 4.487-10.022 10.022.003 4.821 3.405 8.842 7.936 9.803zm19.998 47.708h-7.971v-47.487h7.971c13.092 0 23.743 10.651 23.743 23.743 0 13.093-10.651 23.744-23.743 23.744z"/><path d="m121.438 373.719c-.324-3.306-3.276-5.725-6.571-5.398l-21.469 2.103c-3.305.324-5.722 3.266-5.398 6.571.304 3.106 2.92 5.427 5.978 5.427.196 0 .394-.009.593-.028l21.469-2.103c3.304-.326 5.722-3.268 5.398-6.572z"/><path d="m230.992 371.938-21.419-2.575c-3.286-.4-6.291 1.955-6.687 5.253-.396 3.297 1.955 6.291 5.253 6.687l21.419 2.575c.244.029.485.044.725.044 3 0 5.595-2.243 5.962-5.297.396-3.297-1.956-6.29-5.253-6.687z"/><path d="m151.452 391.923c-.018 0-.037 0-.056 0-12.709.028-24.319 9.314-30.297 24.232-2.792 6.966-1.981 15.047 2.116 21.089 3.159 4.659 7.881 7.327 12.961 7.327h.032l30.697-.068c5.09-.011 9.81-2.701 12.948-7.382 4.065-6.063 4.828-14.152 1.989-21.109-6.067-14.865-17.706-24.089-30.39-24.089zm18.413 38.501c-.513.765-1.583 2.05-2.986 2.053l-30.698.068c-.001 0-.003 0-.005 0-1.405 0-2.488-1.285-3.008-2.051-1.52-2.242-2.39-6.162-.906-9.865 4.116-10.271 11.458-16.663 19.161-16.68h.029c7.697 0 15.074 6.361 19.255 16.606 1.51 3.7.665 7.622-.842 9.869z"/><path d="m223.642 124.976c4.188 9.181 2.97 17.148 1.896 24.177-.974 6.371-1.981 12.96 2.459 18.489 2.732 3.404 6.764 5.304 11.981 5.65.482.031.976.047 1.479.047 18.181 0 48.859-20.655 60.382-46.251 9.716-21.583 12.55-40.208 9.188-60.393-5.022-30.142-27.165-61.784-59.772-63.94-31.579-2.093-58.554 21.467-61.478 53.622-2.488 27.35 15.776 47.687 26.689 59.839 2.88 3.209 6.465 7.202 7.176 8.76zm-13.904-66.781c1.853-20.368 18.172-35.521 37.688-35.521.829 0 1.666.027 2.505.083 21.972 1.452 37.69 25.42 41.324 47.234 2.709 16.26.408 30.876-7.692 48.871-7.638 16.964-27.658 31-38.3 33.898.03-.198.06-.39.088-.576 1.272-8.325 3.195-20.906-3.472-35.524-1.984-4.35-5.743-8.535-10.501-13.834-9.849-10.967-23.336-25.986-21.64-44.631z"/><path d="m224.396 45.697c-4.446-.057-8.096 3.502-8.153 7.948-.056 4.445 3.502 8.096 7.947 8.152 4.446.057 8.096-3.502 8.153-7.948s-3.501-8.095-7.947-8.152z"/><path d="m265.701 65.181c6.053.077 11.022-4.767 11.099-10.82s-4.767-11.023-10.82-11.099c-6.053-.077-11.022 4.767-11.099 10.82-.078 6.053 4.767 11.022 10.82 11.099z"/><path d="m237.476 89.974 13.348-.202c3.189-.009 4.359-11.813 2.391-17.86-2.034-6.248-5.358-8.882-9.622-8.891-6.63-.016-7.997 3.637-8.503 10.976-.328 4.744-.804 15.986 2.386 15.977z"/></g></g></svg>