<svg id="Capa_1" enable-background="new 0 0 507.345 507.345" height="512" viewBox="0 0 507.345 507.345" width="512" xmlns="http://www.w3.org/2000/svg"><g><g><path d="m400.641 497.002s35.741-22.744 35.741-55.236-28.43-46.301-28.43-46.301 50.044-23.539 34.424-93.496c-15.62-69.956-65.852-74.698-65.852-74.698s6.141-96.826-84.404-44.861c0 0 5.774-130.09-80.718-76.032l8.016 230.159z" fill="#e8a284"/><path d="m407.952 395.465s50.044-23.539 34.424-93.496c-2.809-12.581-15.504-29.134-20.059-37.849 19.821 100.269-48.289 147.094-122.908 93.461-4.004-2.878-14.546 33.279-19.353 32.648l120.585 106.772s35.741-22.744 35.741-55.236c0-32.491-28.43-46.3-28.43-46.3z" fill="#d57b84"/><path d="m400.671 497.265c-11.865-43.189-33.211-88.212-67.076-115.621 6.364-18.033 9.805-37.484 9.805-66.942l1.081-58.61c0-20.975-6.37-40.461-17.28-56.631 5.006-5.094 9.24-11.964 12.229-20.649 9.101-26.449-7.549-63.323-15.785-66.157s-44.051 15.986-53.153 42.435c-.36 1.045-.678 2.077-.978 3.102-8.423-2.267-17.277-3.484-26.416-3.484h-62.567c-4.672 0-9.161.356-13.474 1.011-.64-5.749-2.407-11.891-5.476-18.284-11.982-24.952-49.345-39.339-57.115-35.608s-19.903 41.886-7.921 66.838c3.964 8.256 8.96 14.555 14.516 18.994-11.019 12.492-18.32 26.167-22.058 36.446-9.02 24.805-13.53 58.628-13.53 58.628-24.433 23.001-32.207 54.474-22.43 81.848 8.067 22.587 23.988 39.148 45.174 50.014 12.389 6.355 29.909 9.994 45.124 11.296-26.432 28.667-35.625 57.841 3.473 67.919-.178 1.166-.354 2.326-.523 3.455z" fill="#efc5b4"/><path d="m312.553 298.827c0 20.425-8.76 48.191-13.506 67.223-2.767 11.099-4.313 21.073 3.983 28.949 11.154 10.59 19.792 20.78 27.221 39.53 8.27 20.872-7.185 43.508-29.636 43.508h-121.17c-8.504 7.105-17.506 13.649-27.039 19.228h248.735c-11.865-43.189-33.211-88.212-67.076-115.621 6.364-18.033 9.805-37.484 9.805-66.942l1.081-58.61c0-20.975-6.37-40.461-17.28-56.631 5.006-5.094 9.24-11.964 12.229-20.649 9.101-26.449-7.549-63.323-15.785-66.157-3.886-1.337-4.996-.497-15.46 6.337 6.483 12.165 10.935 27.823 9.294 47.505-1.033 12.393-17.059 25.506-21.251 30.353 9.135 15.385 16.128 67.14 16.128 87.096z" fill="#d994b3"/><path d="m239.454 171.573c-.033-.451-.087-.904-.186-1.361-.633-17.588-5.977-32.815-18.2-44.597-.305-19.681-5.527-35-17.992-44.088-6.295-21.759-16.055-44.972-28.242-69.202-1.524-3.735-7.097-2.53-6.941 1.502-1.498 21.813-1.595 42.078 2.247 57.995-5.268 12.952-5.353 26.008 1.52 39.233-4.259 13.1-4.447 26.709 1.589 41.008-6.376 13.766-1.61 26.342.111 32.299 7.072 19.992 67.563 7.209 66.094-12.789z" fill="#f6e06e"/><path d="m239.454 171.573c-.033-.451-.087-.904-.186-1.361-.449-12.491-3.292-23.782-9.27-33.503.588 3.222.946 6.555 1.074 10 .087.39.134.777.163 1.161 1.293 17.063-51.955 27.97-58.181 10.912-.292-.981-.685-2.174-1.087-3.543-4.367 12.498-.196 23.628 1.392 29.123 7.073 19.992 67.564 7.209 66.095-12.789z" fill="#dda86a"/><path d="m86.787 190.468c14.058-8.117 24.485-21.074 30.226-36.258 1.631-4.313 3.93-8.474 6.926-12.343 14.312-18.48 40.419-23.719 60.74-12.171 24.238 13.773 31.285 44.918 16.051 67.651-13.117 19.573-34.251 27.735-53.805 27.113-11.391-.363-37.659-7.37-57.604-13.158-9.654-2.802-11.24-15.807-2.534-20.834z" fill="#e8a284"/><path d="m184.68 129.696c-20.322-11.547-46.429-6.309-60.741 12.171-2.996 3.869-5.295 8.03-6.926 12.343-5.742 15.183-16.169 28.14-30.226 36.258-8.706 5.027-7.12 18.032 2.534 20.833 19.945 5.788 46.213 12.795 57.604 13.158 19.554.622 40.688-7.541 53.805-27.113 15.236-22.733 8.188-53.877-16.05-67.65zm2.185 44.975c-6.54 15.66-20.553 24.286-34.731 26.458-8.26 1.266-28.225-.201-43.453-1.647-7.372-.7-10.446-9.728-4.922-14.464 8.921-7.647 14.507-18.247 16.386-29.803.534-3.283 1.571-6.547 3.155-9.697 7.564-15.043 25.592-22.257 41.948-16.769 19.508 6.546 29.213 27.733 21.617 45.922z" fill="#d57b84"/><path d="m260.431 406.477c11.917-9.435 18.346-31.161 11.275-39.572-7.071-8.41-31.398-6.902-43.032 2.88-11.635 9.782 25.761 41.439 31.757 36.692z" fill="#e8a284"/><path d="m154.621 415.242c-12.335-7.457-23.49-31.498-17.84-40.252 5.651-8.754 32.069-10.762 44.179-2.945 12.111 7.816-20.134 46.949-26.339 43.197z" fill="#e8a284"/><path d="m37.897 29.056 6.093 17.133c.261.734.777 1.315 1.429 1.609l15.222 6.858c2.151.969 2.151 4.395 0 5.364l-15.221 6.859c-.652.294-1.168.875-1.429 1.608l-6.093 17.133c-.861 2.421-3.905 2.421-4.766 0l-6.093-17.133c-.261-.734-.777-1.315-1.429-1.608l-15.222-6.858c-2.151-.969-2.151-4.395 0-5.364l15.222-6.858c.652-.294 1.168-.875 1.429-1.609l6.093-17.133c.86-2.422 3.905-2.422 4.765-.001z" fill="#fbf2aa"/><circle cx="356.466" cy="43.877" fill="#f7e16e" r="12.187"/><path d="m465.735 63.861 8.214 23.098c.352.989 1.048 1.772 1.927 2.168l20.521 9.246c2.899 1.306 2.899 5.925 0 7.232l-20.521 9.246c-.879.396-1.575 1.179-1.927 2.168l-8.214 23.098c-1.161 3.263-5.265 3.263-6.425 0l-8.214-23.098c-.352-.989-1.048-1.773-1.927-2.168l-20.521-9.246c-2.899-1.306-2.899-5.925 0-7.232l20.521-9.246c.879-.396 1.575-1.18 1.927-2.168l8.214-23.098c1.16-3.264 5.264-3.264 6.425 0z" fill="#fbf2aa"/></g><g><path d="m142.604 288.438c0 6.868-5.567 12.435-12.435 12.435s-12.435-5.567-12.435-12.435 5.567-12.435 12.435-12.435c6.867 0 12.435 5.567 12.435 12.435z" fill="#3c122c"/><circle cx="256.309" cy="288.438" fill="#3c122c" r="12.435"/><path d="m138.743 176.226c-1.497 0-3.017-.335-4.45-1.041-4.992-2.461-7.043-8.504-4.581-13.495 9.063-18.379 24.109-23.038 25.795-23.509 0 0 11.267-4.889 15.449 5.217 4.397 10.625-9.855 14.143-9.855 14.143-.333.107-8.22 2.736-13.313 13.062-1.755 3.559-5.329 5.623-9.045 5.623z" fill="#fff"/><g fill="#3c122c"><path d="m201.446 336.982c-2.652 0-5.085-1.758-5.825-4.438-1.615-5.846-7.09-9.453-12.211-8.037-2.674.739-4.857 2.771-5.987 5.577-1.248 3.096-4.771 4.598-7.869 3.347-3.097-1.248-4.596-4.771-3.348-7.868 2.551-6.329 7.648-10.962 13.984-12.712 11.544-3.193 23.696 4.2 27.086 16.473.889 3.219-.999 6.549-4.218 7.438-.537.149-1.079.22-1.612.22z"/><path d="m425.506 395.617c4.331-3.659 9.184-8.529 13.688-14.768 10.843-15.024 21.903-41.284 13.018-81.076-8.784-39.342-28.193-59.62-42.928-69.703-8.717-5.966-16.819-9.185-22.683-10.908-.584-14.438-4.473-42.821-25.228-55.734-2.903-1.806-5.992-3.225-9.259-4.266-.333-10.24-2.603-19.405-4.462-25.311-1.955-6.207-9.224-26.767-20.728-30.727-11.505-3.959-29.886 7.775-35.246 11.465-.113.078-.238.168-.354.249-5.333-12.054-12.531-20.787-21.557-26.054-13.215-7.714-29.216-7.51-47.705.534-2.33-4.995-5.612-9.665-10.222-13.676-6.14-20.359-15.276-42.513-27.879-67.6-2.651-5.861-9.023-9.099-15.357-7.728-6.272 1.357-10.712 6.844-10.789 13.196-1.715 25.226-1.151 43.197 1.835 57.563-5.396 15.318-4.369 30.318 3.068 44.63.306.589.677 1.117 1.075 1.617-.019.096-.03.192-.048.288-1.329-.056-2.658-.067-3.985-.025-8.08-8.536-17.47-14.37-23.603-17.615-5.703-3.017-25.157-12.46-36.055-7.224-10.896 5.232-15.692 26.316-16.902 32.653-1.978 10.355-4.055 30.313 4.26 47.629 1.185 2.469 2.475 4.799 3.846 7.015-2.387 1.921-4.901 3.665-7.542 5.19-6.159 3.557-9.454 10.15-8.598 17.209.598 4.933 3.114 9.158 6.903 11.936-.932 2.107-1.782 4.206-2.537 6.283-7.664 21.076-12.116 47.763-13.545 57.247-24.834 25.044-33.441 59.242-22.434 90.063 8.679 24.3 25.523 43.004 50.065 55.592 10.725 5.502 24.229 8.996 37.121 10.949-9.725 12.372-17.018 25.762-14.778 36.405 2.956 14.04 12.568 22.165 20.265 26.556.094 4.824 3.641 9.021 8.573 9.76 5.388.808 10.406-2.815 11.39-8.13 12.6-6.214 32.361-18.574 52.587-33.672 2.328 1.53 4.666 3.065 7.013 4.604 13.661 8.96 26.565 17.425 37.715 25.479 1.071.773 2.309 1.145 3.535 1.145 1.875 0 3.724-.87 4.906-2.507 1.956-2.706 1.346-6.486-1.361-8.442-11.371-8.213-24.385-16.749-38.163-25.787-18.646-12.231-39.634-25.999-55.947-39.088l25.654-38.318c19.78 10.844 41.944 28.167 62.76 44.437 10.853 8.484 21.105 16.497 31.037 23.671 2.707 1.953 6.486 1.345 8.442-1.362 1.955-2.706 1.346-6.486-1.361-8.442-9.747-7.039-19.91-14.984-30.671-23.395-.001 0-.001-.001-.002-.001 10.58-12.192 18.165-24.112 20.34-34.54 1.89-9.061-.186-16.991-6.003-22.932-11.353-11.593-33.276-9.205-63.401 6.909-3.939 2.107-7.953 4.431-11.996 6.913-2.795-1.605-5.563-3.106-8.297-4.487-27.009-13.636-46.687-13.19-60.158 1.354-4.838 5.224-6.961 11.532-6.141 18.242 1.052 8.61 6.849 17.557 15.807 26.789-13.471-1.305-28.896-4.518-39.668-10.043-19.832-10.173-33.385-25.123-40.283-44.437-8.645-24.207-1.04-51.458 19.847-71.121 1.686-1.587 2.774-3.708 3.081-6.004.044-.328 4.482-33.062 13.011-56.518.56-1.541 1.461-3.817 2.746-6.598 22.149 6.085 37.431 9.296 45.514 9.553.771.025 1.539.036 2.305.036 23.05 0 44.122-11.036 56.715-29.828.236-.353.452-.716.68-1.074 1.684-.245 3.35-.531 4.967-.869 16.245-3.406 34.796-12.563 34.099-27.203 0-.089-.005-.177-.009-.265-.004-.058-.001-.113-.006-.171 0-.001 0-.002 0-.004v-.001c-.004-.058-.011-.11-.016-.167-.003-.033-.006-.066-.01-.099-.041-.465-.093-.91-.165-1.331-.065-1.598-.182-3.163-.323-4.712 7.423.151 14.79 1.187 21.924 3.107 5.289 1.426 10.755-1.644 12.292-6.905.297-1.018.562-1.86.834-2.649 6.646-19.314 31.562-34.058 40.196-35.755 5.762 6.652 16.33 33.605 9.684 52.919-2.391 6.946-5.717 12.62-9.888 16.865-3.358 3.418-3.846 8.727-1.166 12.699 10.16 15.059 15.538 32.659 15.556 50.904l-1.08 58.515c-.001.062-.001.124-.001.186 0 26.24-2.76 45.256-9.23 63.588-1.42 4.022-.153 8.504 3.163 11.188 27.659 22.385 50.281 61.613 63.699 110.458 1.229 4.473 5.286 7.41 9.711 7.41.884 0 1.782-.117 2.675-.363 1.823-.501 3.383-1.479 4.601-2.753 8.04-5.618 38.519-29.117 38.519-62.463.002-22.588-11.341-37.537-20.952-46.149zm-168.378-30.805c4.821 0 8.535 1.186 10.901 3.601 1.879 1.919 4.214 5.25 2.805 12.001-1.471 7.051-6.356 15.355-13.433 24.2l-27.709-32.361c11.003-4.91 20.401-7.441 27.436-7.441zm-38.621 12.97 15.038 17.562c-6.951-5.132-13.863-10.013-20.664-14.435 1.867-1.075 3.744-2.114 5.626-3.127zm-20.321 80.649c-19.386 14.282-38.246 25.942-50.276 31.225-4.768-1.747-17.236-7.55-20.116-21.233-1.681-7.985 9.019-24.343 26.344-41.972 12.255 10.36 27.609 21.04 44.048 31.98zm-56.495-79.573c9.175-9.907 23.166-8.826 39.502-1.745l-24.008 35.858c-10.485-9.443-17.613-18.264-18.504-25.556-.391-3.198.565-5.917 3.01-8.557zm48.39-305.156-9.98-3.375c-.007-.046-.018-.092-.026-.138-.034-.203-.068-.405-.114-.606-.01-.042-.014-.084-.024-.127-2.093-8.672-2.836-18.972-2.917-29.056 5.238 11.775 9.567 22.82 13.061 33.302zm-12.715 8.466 18.302 6.189c.015.016.033.031.048.048.163.174.333.341.507.503.053.049.102.099.156.147.238.211.484.412.74.599.007.005.013.011.02.016 6.754 4.925 9.804 12.906 10.126 26.923l-26.053-8.717c-.166-.496-.36-.988-.609-1.467-4.162-8.009-5.225-15.848-3.237-24.241zm-68.335 29.165c5.299.446 17.004 4.923 27.322 12.432-6.544 3.444-12.447 8.271-17.194 14.401-3.297 4.257-5.922 8.936-7.801 13.906-1.587 4.197-3.569 8.174-5.881 11.89-8.448-18.114-1.294-45.414 3.554-52.629zm86.677 82.647c-10.675 15.929-28.852 25.081-48.589 24.436-8.389-.268-28.317-4.857-56.113-12.923-3.163-.917-3.735-3.683-3.835-4.508-.1-.824-.205-3.638 2.639-5.281 14.83-8.564 26.5-22.541 32.859-39.356 1.454-3.845 3.49-7.471 6.05-10.779 12.483-16.12 35.256-20.683 52.973-10.616 10.167 5.777 17.237 15.188 19.907 26.498 2.634 11.156.487 23.013-5.891 32.529zm16.898-7.93c1.47-5.008 2.197-10.216 2.167-15.447l17.227 5.076c-2.85 3.696-9.812 7.812-19.394 10.371zm.452-28.559c-3.656-14.089-12.625-25.799-25.391-33.052-3.527-2.004-7.21-3.556-10.974-4.678.231-.136.466-.267.684-.417l41.441 13.866c.451.152.907.227 1.362.27 6.883 7.993 10.997 17.821 12.473 29.786zm50.08-11.055c-6.595-1.201-13.305-1.806-20.04-1.806h-2.587c-3.015-8.06-7.414-15.18-13.198-21.292.062-.42.107-.845.115-1.281.079-4.094.018-8.443-.385-12.855 13.632-6.63 24.564-7.673 32.553-3.018 7.201 4.196 12.198 12.653 15.623 22.603-4.561 4.958-8.919 10.868-12.081 17.649zm142.856 333.428c-10.769-33.437-29.342-73.546-60.704-101.503 5.704-18.538 8.181-38.017 8.187-63.565l1.08-58.519c.001-.062.001-.124.001-.186 0-19.731-5.14-38.852-14.928-55.757 3.832-5.243 6.957-11.352 9.329-18.244.247-.719.473-1.441.688-2.164.353.19.704.383 1.046.595 14.658 9.083 16.355 36.379 15.774 46.112-.344 5.433 3.609 10.151 9.03 10.663 1.763.195 43.341 5.495 57.044 66.868 13.567 60.762-27.194 81.362-28.878 82.182-3.512 1.652-5.791 5.161-5.815 9.043-.024 3.881 2.156 7.418 5.647 9.114.932.466 22.81 11.723 22.81 37.262 0 16.059-11.329 29.757-20.311 38.099z"/><path d="m224.507 265.191c-1.706 0-3.402-.717-4.598-2.116-2.171-2.538-1.873-6.355.664-8.526l12.977-11.101c2.538-2.17 6.355-1.874 8.525.664 2.171 2.538 1.873 6.354-.664 8.525l-12.977 11.101c-1.139.976-2.537 1.453-3.927 1.453z"/></g></g></g></svg>