<svg id="Capa_1" enable-background="new 0 0 512 512" height="512" viewBox="0 0 512 512" width="512" xmlns="http://www.w3.org/2000/svg"><g><g><path d="m425.161 449.401c2.052-11.736 3.141-23.884 3.141-36.333 0-22.243-3.439-43.543-9.725-63.209-8.247-25.798-11.597-52.918-8.992-79.877.447-4.623.659-9.315.624-14.063-.205-27.912-9.061-53.881-24.001-75.346 2.433-16.032 9.294-69.889-6.96-77.697-12.113-5.819-36.171 14.369-52.194 29.966-15.222-6.317-31.832-9.912-49.22-10.148-20.801-.282-40.53 4.174-58.187 12.346-15.937-15.809-41.74-38.262-54.431-32.164-19.132 9.192-6.236 82.198-6.236 82.198l5.212-2.504c-14.189 21.288-22.468 46.853-22.468 74.356 0 3.558.139 7.084.411 10.571 2.089 26.773-.992 53.694-9.61 79.128-6.965 20.556-10.795 42.973-10.795 66.443 0 13.93 1.355 27.487 3.908 40.506-19.86-.265-35.935-16.501-35.935-36.424v-24.669c0-13.36-10.83-24.19-24.19-24.19s-24.19 10.83-24.19 24.19v24.669c0 46.764 38.045 84.809 84.809 84.809.317 0 .634-.006.95-.019l14.359-.564c.037.078.072.158.11.236h266.931c.098-.202.188-.41.285-.613v.494c19.05 0 34.494-12.405 34.494-27.708-.001-10.536-7.322-19.697-18.1-24.384z" fill="#e8c2d8"/><path d="m290.634 241.715c0 9.379-6.992 16.982-15.618 16.982s-15.618-7.603-15.618-16.982l15.444-12.426z" fill="#d789b9"/><path d="m425.161 449.402c2.052-11.736 3.141-23.884 3.141-36.333 0-22.244-3.439-43.545-9.726-63.21-8.363-26.16-11.285-53.69-8.883-81.049.373-4.243.548-8.543.516-12.89-.205-27.912-9.061-53.881-24.001-75.346 2.433-16.032 9.294-69.889-6.96-77.697-6.405-3.077-16.151 1.12-26.282 8.063 5.791 16.047 1.585 48.941-.124 60.3 13.055 18.92 20.794 41.809 20.973 66.412.03 4.185-.155 8.321-.545 12.396-2.276 23.762.65 47.667 7.857 70.405 5.494 17.333 8.492 35.744 10.012 55.29.84 10.801.112 28.6-.449 39.062-.56 10.462-7.598 39.301-31.324 39.301l-171.135.105c-33.732 0-62.139-25.465-65.529-59.027-.039-.383-.076-.767-.113-1.152-.561 6.257-.859 12.605-.859 19.036 0 32.19 7.208 62.401 19.821 88.544h266.931c.098-.202.188-.41.285-.613v.494c19.05 0 34.494-12.405 34.494-27.708-.001-10.536-7.322-19.698-18.1-24.383z" fill="#d392d8"/><path d="m250.605 150.261c-.006-.342.003-.687.047-1.038-.728-13.299 2.258-25.142 10.663-34.859-1.118-14.854 1.769-26.758 10.541-34.461 3.254-16.83 9.021-34.994 16.546-54.092.893-2.92 5.176-2.393 5.334.656 2.623 16.338 4.084 31.605 2.279 43.865 4.858 9.401 5.816 19.235 1.542 29.674 4.107 9.582 5.181 19.826 1.611 31.017 5.748 9.938 3.018 19.743 2.129 24.351-3.963 15.552-50.43 10.06-50.692-5.113z" fill="#f6e06e"/><path d="m250.605 143.43c-.006-.342.003-.687.047-1.038-.517-9.445.853-18.15 4.693-25.886-.223 2.468-.264 5.005-.125 7.61-.039.3-.048.595-.044.886.194 12.949 41.074 17.523 44.598 4.24.153-.759.367-1.686.577-2.745 4.147 9.121 1.766 17.795.946 22.046-3.963 15.553-50.43 10.061-50.692-5.113z" fill="#dda86a"/><path d="m55.253 6.348 8.631 24.269c.37 1.039 1.101 1.863 2.024 2.279l21.562 9.714c3.046 1.373 3.046 6.226 0 7.598l-21.562 9.715c-.923.416-1.655 1.239-2.024 2.278l-8.631 24.269c-1.219 3.429-5.532 3.429-6.751 0l-8.631-24.269c-.369-1.039-1.101-1.862-2.024-2.278l-21.562-9.715c-3.046-1.372-3.046-6.226 0-7.598l21.562-9.714c.923-.416 1.655-1.239 2.024-2.279l8.631-24.269c1.219-3.428 5.532-3.428 6.751 0z" fill="#e9c3d9"/><path d="m472.407 37.972 6.402 18.002c.274.771.817 1.382 1.502 1.69l15.994 7.206c2.26 1.018 2.26 4.618 0 5.636l-15.994 7.206c-.685.308-1.228.919-1.502 1.69l-6.402 18.002c-.904 2.543-4.103 2.543-5.008 0l-6.402-18.002c-.274-.771-.817-1.382-1.501-1.69l-15.994-7.206c-2.26-1.018-2.26-4.618 0-5.636l15.994-7.206c.685-.308 1.227-.919 1.501-1.69l6.402-18.002c.905-2.544 4.103-2.544 5.008 0z" fill="#e9c3d9"/><g fill="#d88aba"><ellipse cx="204.827" cy="40.418" rx="8.13" ry="8.13" transform="matrix(.16 -.987 .987 .16 132.122 236.126)"/><ellipse cx="84.778" cy="160.328" rx="14.254" ry="14.253" transform="matrix(.993 -.122 .122 .993 -18.954 11.56)"/></g></g><g><g fill="#3c122c"><ellipse cx="212.179" cy="230.268" rx="12.389" ry="12.389" transform="matrix(.23 -.973 .973 .23 -60.678 383.865)"/><ellipse cx="337.854" cy="230.268" rx="12.389" ry="12.389" transform="matrix(.707 -.707 .707 .707 -63.869 306.343)"/><path d="m302.126 239.538c0-3.327-2.697-6.024-6.024-6.024-8.228 0-14.921-6.694-14.921-14.922 0-3.327-2.697-6.024-6.024-6.024-.047 0-.093.006-.14.007-.047-.001-.092-.007-.14-.007-3.327 0-6.024 2.697-6.024 6.024 0 8.228-6.694 14.922-14.921 14.922-3.327 0-6.024 2.697-6.024 6.024 0 3.242 2.564 5.879 5.774 6.012 1.723 10.867 10.632 19.172 21.336 19.172s19.613-8.306 21.335-19.172c3.209-.133 5.773-2.77 5.773-6.012zm-27.109 13.136c-4.922 0-8.987-4.258-9.528-9.718 3.726-1.775 6.98-4.381 9.528-7.576 2.548 3.195 5.802 5.801 9.528 7.576-.542 5.459-4.606 9.718-9.528 9.718z"/><path d="m230.017 404.99c-12.64.001-25.701-8.538-32.462-22.568-1.445-2.997-.186-6.598 2.811-8.042 2.998-1.445 6.598-.186 8.042 2.811 5.994 12.437 18.521 18.869 27.923 14.339 9.402-4.531 12.175-18.337 6.181-30.775-1.444-2.997-.185-6.598 2.812-8.043 2.993-1.442 6.598-.186 8.042 2.812 8.878 18.423 3.583 39.444-11.804 46.86-3.669 1.769-7.586 2.606-11.545 2.606z"/><path d="m356.696 395.103c-4.429 0-8.976-1.059-13.407-3.172-8.027-3.827-14.759-10.731-18.954-19.437-1.444-2.997-.185-6.598 2.812-8.043 2.994-1.441 6.597-.186 8.042 2.812 3.008 6.243 7.726 11.142 13.286 13.792 5.112 2.438 10.31 2.632 14.637.547s7.414-6.272 8.691-11.789c1.39-6 .498-12.742-2.511-18.986-1.444-2.997-.185-6.598 2.811-8.042 2.996-1.443 6.599-.186 8.043 2.811 4.196 8.706 5.402 18.272 3.395 26.936-2.119 9.146-7.517 16.221-15.199 19.924-3.665 1.766-7.606 2.647-11.646 2.647z"/></g><path d="m170.238 351.083c-1.331 0-2.685-.266-3.985-.829-5.088-2.204-7.427-8.115-5.224-13.203 1.754-4.049 3.685-8.036 5.74-11.85 2.63-4.882 8.72-6.707 13.602-4.076s6.707 8.72 4.076 13.602c-1.785 3.312-3.464 6.778-4.99 10.304-1.641 3.787-5.338 6.052-9.219 6.052z" fill="#fff"/><path d="m156.912 432.443c-5.109 0-9.479-3.883-9.982-9.074-1.648-17.027-.44-34.869 3.591-53.029 1.201-5.413 6.564-8.83 11.977-7.626 5.413 1.202 8.827 6.564 7.626 11.977-3.572 16.095-4.652 31.822-3.207 46.743.534 5.519-3.507 10.427-9.027 10.961-.328.033-.655.048-.978.048z" fill="#fff"/><path d="m436.17 444.062c1.436-10.187 2.172-20.598 2.172-30.994 0-22.795-3.433-45.09-10.202-66.266-8.097-25.328-10.978-50.849-8.561-75.855.482-4.993.707-10.074.67-15.101-.204-27.713-8.33-54.479-23.545-77.671 1.349-9.637 3.083-24.881 3.072-39.541-.02-25.276-5.16-39.513-16.18-44.807-8.501-4.084-23.766-5.48-58.859 27.347-3.612-1.309-7.268-2.454-10.956-3.461.734-8.185-.331-16.349-3.203-24.412 3.65-11.379 2.961-22.799-2.073-34.04 1.332-12.15.433-27.045-2.854-47.623-.639-5.996-5.313-10.794-11.363-11.539-6.111-.757-11.869 2.852-13.888 8.62-8.474 21.536-14.35 40.446-17.921 57.679-8.899 9.326-13.116 22.578-12.543 39.507-2.406 3.231-4.428 6.682-6.089 10.334-7.49 1.703-14.843 3.997-22.02 6.912-36.501-34.819-52.23-33.517-60.959-29.325-12.229 5.875-17.305 23.042-15.976 54.026.851 19.835 4.064 38.196 4.2 38.968.009.049.018.098.027.147l.166.864c-11.526 21.103-17.601 44.907-17.601 69.094 0 3.78.148 7.6.441 11.353 2.03 26.018-1.034 51.293-9.109 75.124-7.516 22.181-11.326 45.62-11.326 69.665 0 9.104.584 18.172 1.693 27.135-8.112-4.521-13.639-13.175-13.639-23.053v-24.669c0-18.875-15.356-34.23-34.23-34.23s-34.23 15.356-34.23 34.23v24.669c0 52.3 42.55 94.85 94.85 94.85.447 0 283.471-.405 284.014-.496 23.919-.622 43.155-17.297 43.155-37.719-.002-12.058-6.716-22.806-17.133-29.722zm-384.806-26.912v-5.372h28.299v5.372c0 4.179.563 8.235 1.614 12.098h-28.92c-.644-3.941-.993-7.978-.993-12.098zm14.149-38.818c7.802 0 14.15 6.347 14.15 14.15v7.248h-28.299v-7.248c0-7.803 6.347-14.15 14.149-14.15zm60.62 113.587c-32.779 0-60.679-21.212-70.745-50.623h31.112c6.723 10.955 17.85 18.964 30.881 21.477 2.318 9.981 5.334 19.729 9.019 29.141-.089.002-.178.005-.267.005zm168.587-355.284c1.505 5.215.485 10.202-.313 14.061-.053.258-.105.507-.154.748-1.071 1.067-6.37 3.368-16.377 2.679-7.762-.535-13.4-2.505-16.598-4.239zm-5.758-92.099c.137 5.235-.041 10.34-.718 14.931-.007.047-.007.092-.013.138-.021.155-.034.31-.048.466l-4.086 1.809c1.37-5.563 2.983-11.329 4.865-17.344zm-10.625 34.423c.702-.647 1.349-1.359 1.853-2.174l11.554-5.113c1.74 5.997 1.343 11.827-1.169 17.961-.191.493-.366.993-.473 1.511l-20.08 8.811c.433-9.563 3.173-16.481 8.315-20.996zm-10.58 36.776c.593-.687 1.086-1.458 1.476-2.276l23.416-10.276c1.893 7.04 1.701 14.019-.585 21.183-.036.137-.073.273-.118.407l-33.292 13.189c.837-8.818 3.842-16.145 9.103-22.227zm141.01 375.718c-.501 0-.989.049-1.471.12h-116.507c3.357-5.304 5.267-11.359 5.267-17.787 0-20.815-19.978-37.748-44.535-37.748-5.545 0-10.04 4.495-10.04 10.04s4.496 10.04 10.04 10.04c13.255 0 24.454 8.091 24.454 17.668s-11.198 17.668-24.454 17.668c-.501 0-.989.049-1.471.12h-102.074c-10.616-24.123-16.205-51.127-16.205-78.504 0-21.85 3.453-43.12 10.264-63.221 8.951-26.419 12.353-54.388 10.11-83.13-.253-3.236-.38-6.53-.38-9.791 0-21.924 5.794-43.476 16.754-62.325 1.219-2.095 1.638-4.561 1.18-6.941l-.843-4.391c-.199-1.15-3.032-17.764-3.86-35.331-1.468-31.153 4.545-35.992 4.527-35.994 2.451-.804 15.637 3.029 43.053 30.225 2.979 2.955 7.481 3.746 11.288 1.984 4.779-2.212 9.657-4.091 14.614-5.662-.175 2.821-.197 5.722-.058 8.702-.028.487-.038.994-.026 1.512.249 12.843 13.847 22.706 34.659 25.132 2.941.343 5.78.51 8.497.51 17.033 0 29.291-6.581 32.141-17.775.15-.61.235-1.148.379-1.809.715-3.458 1.857-9.006 1.389-15.545 2.605.88 5.19 1.838 7.746 2.898 3.709 1.539 7.975.721 10.851-2.079 26.026-25.332 38.555-28.861 40.805-28.131.05.032 4.97 3.927 4.831 27.845-.089 15.235-2.176 31.172-3.411 39.316-.385 2.54.218 5.133 1.685 7.242 14.341 20.605 22.018 44.701 22.202 69.685.032 4.337-.162 8.719-.577 13.023-2.68 27.733.49 55.961 9.422 83.9 6.137 19.197 9.249 39.435 9.249 60.152 0 7.906-.465 15.818-1.379 23.608-2.634-.413-5.344-.64-8.116-.64-5.545 0-10.04 4.495-10.04 10.04s4.496 10.04 10.04 10.04c13.255 0 24.454 8.091 24.454 17.668 0 9.575-11.199 17.666-24.454 17.666z" fill="#3c122c"/></g></g></svg>