<svg id="Capa_1" enable-background="new 0 0 512 512" height="512" viewBox="0 0 512 512" width="512" xmlns="http://www.w3.org/2000/svg"><g><g><path d="m401.67 501.562s36.069-22.953 36.069-55.743-28.691-46.726-28.691-46.726 50.503-23.755 34.74-94.354c-15.763-70.598-66.457-75.384-66.457-75.384s6.197-97.715-85.179-45.273c0 0 5.827-131.284-81.459-76.73l8.089 232.271z" fill="#a1e8c3"/><path d="m409.047 399.093s50.503-23.755 34.74-94.354c-2.835-12.697-15.646-29.402-20.242-38.196 20.003 101.19-48.732 148.444-124.036 94.319-4.041-2.905-14.679 33.584-19.531 32.948l121.692 107.752s36.069-22.953 36.069-55.743-28.692-46.726-28.692-46.726z" fill="#85adc2"/><path d="m401.7 501.827c-11.974-43.585-33.516-89.022-67.692-116.682 6.423-18.198 9.895-37.828 9.895-67.556l1.091-59.148c0-21.167-6.428-40.832-17.438-57.151 5.052-5.141 9.325-12.074 12.341-20.838 9.185-26.692-7.619-63.904-15.93-66.764-8.312-2.86-44.456 16.133-53.641 42.825-.363 1.055-.684 2.096-.987 3.131-8.5-2.288-17.436-3.516-26.658-3.516h-63.141c-4.715 0-9.245.359-13.598 1.02-.646-5.802-2.429-12-5.527-18.452-12.092-25.181-49.798-39.7-57.639-35.935-7.841 3.766-20.085 42.27-7.994 67.451 4.001 8.332 9.043 14.689 14.65 19.168-11.12 12.607-18.488 26.408-22.26 36.78-9.102 25.032-13.654 59.166-13.654 59.166-24.658 23.212-32.503 54.974-22.636 82.599 8.141 22.794 24.208 39.507 45.589 50.473 18.792 9.639 49.289 13.094 65.99 11.642-9.281 20.417-14.182 49.808-17.475 71.787z" fill="#ccf3e2"/><path d="m334.008 385.145c6.423-18.198 9.895-37.828 9.895-67.556l1.091-59.148c0-21.167-6.428-40.832-17.438-57.151 5.052-5.141 9.325-12.074 12.341-20.838 9.185-26.692-7.619-63.904-15.93-66.764-3.922-1.35-5.042-.501-15.602 6.395 6.543 12.277 11.035 28.079 9.38 47.942-1.042 12.507-17.216 25.739-21.446 30.631 9.219 15.526 16.276 67.756 16.276 87.896l-.276 15.017c0 20.613-8.841 48.633-13.629 67.84-2.793 11.201-4.352 21.267 4.019 29.215 11.256 10.687 19.973 20.971 27.471 39.892 8.346 21.063-7.251 43.907-29.908 43.907h-152.135c-1.201 6.797-2.23 13.383-3.132 19.404h256.715c-11.974-43.585-33.516-89.022-67.692-116.682z" fill="#b1b6e1"/><path d="m239.003 173.147c-.034-.455-.088-.912-.187-1.373-.639-17.749-6.032-33.117-18.367-45.007-.307-19.862-5.578-35.321-18.157-44.492-6.353-21.958-16.203-45.384-28.501-69.837-1.538-3.77-7.162-2.553-7.004 1.515-1.512 22.013-1.609 42.465 2.267 58.527-5.317 13.071-5.402 26.247 1.534 39.593-4.298 13.22-4.487 26.954 1.603 41.385-6.434 13.892-1.625 26.583.112 32.595 7.137 20.176 68.183 7.276 66.7-12.906z" fill="#c2b2eb"/><path d="m239.003 173.147c-.034-.455-.088-.912-.187-1.373-.453-12.605-3.322-24-9.355-33.811.594 3.251.955 6.615 1.084 10.091.088.394.136.784.165 1.172 1.305 17.22-52.432 28.227-58.715 11.012-.295-.99-.691-2.195-1.097-3.576-4.407 12.613-.198 23.845 1.405 29.391 7.137 20.176 68.183 7.276 66.7-12.906z" fill="#ae85ea"/><path d="m84.936 192.215c14.187-8.191 24.709-21.267 30.504-36.59 1.646-4.353 3.966-8.552 6.99-12.456 14.443-18.65 40.789-23.937 61.298-12.283 24.46 13.899 31.572 45.33 16.198 68.272-13.237 19.752-34.566 27.99-54.299 27.362-11.496-.366-38.005-7.438-58.133-13.279-9.744-2.828-11.344-15.953-2.558-21.026z" fill="#a1e8c3"/><path d="m183.727 130.885c-7.331-4.165-15.407-6.155-23.419-6.155-.011 1.363-.078 2.729-.136 4.133 1.321.281 2.639.629 3.945 1.068 19.687 6.605 29.481 27.986 21.815 46.343-6.601 15.804-20.741 24.509-35.05 26.701-8.336 1.277-28.484-.204-43.852-1.662-7.439-.707-10.542-9.817-4.967-14.597 2.001-1.715 3.825-3.584 5.489-5.571-1.624-1.262-3.243-2.532-4.863-3.8-5 5.883-10.95 10.944-17.752 14.872-8.786 5.073-7.186 18.198 2.557 21.025 20.128 5.84 46.637 12.913 58.133 13.279 19.733.628 41.062-7.61 54.299-27.362 15.373-22.944 8.261-54.374-16.199-68.274z" fill="#85adc2"/><path d="m472.07 90.635 8.354 23.49c.358 1.006 1.066 1.803 1.959 2.205l20.87 9.403c2.948 1.328 2.948 6.026 0 7.354l-20.87 9.403c-.894.403-1.602 1.199-1.959 2.205l-8.354 23.49c-1.18 3.319-5.354 3.319-6.534 0l-8.354-23.49c-.358-1.006-1.066-1.803-1.959-2.205l-20.87-9.403c-2.948-1.328-2.948-6.026 0-7.354l20.87-9.403c.894-.403 1.602-1.2 1.959-2.205l8.354-23.49c1.18-3.318 5.354-3.318 6.534 0z" fill="#c2b2eb"/><path d="m79.636 3.179 6.197 17.425c.265.746.791 1.337 1.453 1.636l15.481 6.975c2.187.985 2.187 4.47 0 5.455l-15.481 6.975c-.663.299-1.188.89-1.453 1.636l-6.197 17.425c-.875 2.462-3.972 2.462-4.847 0l-6.197-17.425c-.265-.746-.791-1.337-1.453-1.636l-15.481-6.975c-2.187-.985-2.187-4.47 0-5.455l15.481-6.975c.663-.299 1.188-.89 1.453-1.636l6.197-17.425c.876-2.461 3.972-2.461 4.847 0z" fill="#c2b2eb"/><g fill="#9781dd"><ellipse cx="18.93" cy="113.901" rx="12.395" ry="12.395" transform="matrix(.123 -.993 .993 .123 -96.432 118.729)"/><path d="m404.278 64.973c0 5.317-4.31 9.627-9.627 9.627s-9.627-4.31-9.627-9.627 4.31-9.626 9.627-9.626 9.627 4.309 9.627 9.626z"/></g></g><g><path d="m426.762 399.247c4.37-3.693 9.268-8.607 13.813-14.903 10.942-15.162 22.104-41.663 13.138-81.82-8.865-39.702-28.452-60.167-43.322-70.342-8.797-6.021-16.973-9.269-22.891-11.008-.589-14.571-4.514-43.214-25.46-56.246-2.929-1.822-6.047-3.253-9.344-4.304-.336-10.335-2.627-19.584-4.504-25.545-1.972-6.264-9.309-27.013-20.918-31.008-11.611-3.996-30.161 7.846-35.569 11.57-.115.079-.242.171-.359.252-5.381-12.166-12.645-20.979-21.753-26.295-13.338-7.785-29.485-7.586-48.146.532-2.351-5.038-5.663-9.749-10.312-13.796-6.197-20.548-15.416-42.906-28.134-68.221-2.675-5.915-9.108-9.181-15.498-7.799-6.329 1.37-10.81 6.906-10.888 13.317-1.731 25.459-1.161 43.596 1.852 58.091-5.446 15.459-4.409 30.596 3.096 45.04.309.594.683 1.127 1.085 1.632-.019.097-.034.194-.053.291-1.339-.056-2.678-.067-4.015-.025-8.153-8.617-17.632-14.502-23.822-17.778-5.755-3.046-25.389-12.568-36.385-7.292-10.996 5.282-15.837 26.559-17.058 32.955-1.996 10.45-4.092 30.591 4.299 48.066 1.196 2.491 2.494 4.846 3.876 7.084-2.407 1.936-4.943 3.695-7.606 5.233-6.216 3.589-9.541 10.243-8.677 17.367.603 4.977 3.14 9.239 6.962 12.043-.938 2.128-1.794 4.247-2.557 6.344-7.734 21.27-12.227 48.201-13.669 57.772-25.062 25.274-33.748 59.785-22.64 90.889 8.758 24.523 25.757 43.398 50.525 56.102 16.152 8.286 38.557 12.074 55.822 12.889-5.977 18.405-9.762 40.215-12.723 59.984-.832 5.555 2.996 10.732 8.551 11.564 5.553.83 10.732-2.996 11.564-8.551 3.58-23.898 8.362-50.795 16.676-69.084 1.496-3.291 1.133-7.129-.954-10.081-2.087-2.951-5.582-4.569-9.185-4.261-14.297 1.253-43.265-1.735-60.467-10.558-20.014-10.266-33.692-25.354-40.653-44.845-8.724-24.429-1.049-51.93 20.03-71.774 1.702-1.602 2.8-3.742 3.11-6.059.044-.331 4.523-33.365 13.131-57.036.566-1.556 1.473-3.852 2.77-6.659 22.353 6.141 37.776 9.381 45.933 9.641.778.025 1.553.037 2.325.037 23.262 0 44.527-11.137 57.236-30.101.238-.355.456-.723.685-1.083 1.701-.246 3.38-.537 5.013-.88 16.394-3.437 35.115-12.679 34.411-27.452-.205-2.277-.342-4.569-.533-6.812 7.491.152 14.926 1.198 22.125 3.135 5.337 1.437 10.853-1.658 12.405-6.968.3-1.027.568-1.877.842-2.674 6.707-19.491 31.852-34.369 40.566-36.084 5.814 6.713 16.479 33.914 9.772 53.404-2.411 7.01-5.769 12.736-9.978 17.02-3.389 3.449-3.881 8.807-1.176 12.816 10.253 15.197 15.681 32.959 15.699 51.371l-1.09 59.052c-.001.062-.001.125-.001.188 0 26.481-2.786 45.672-9.315 64.171-1.433 4.059-.154 8.582 3.192 11.29 27.912 22.59 50.742 62.179 64.283 111.471 1.24 4.514 5.335 7.478 9.801 7.478.892 0 1.799-.118 2.7-.366 1.84-.505 3.414-1.493 4.643-2.778 8.114-5.67 38.872-29.384 38.872-63.036-.002-22.79-11.448-37.876-21.148-46.567zm-237.585-324.869-10.072-3.406c-.007-.046-.018-.093-.026-.139-.034-.205-.069-.409-.115-.611-.01-.043-.014-.085-.024-.128-2.112-8.75-2.862-19.146-2.943-29.323 5.284 11.882 9.654 23.028 13.18 33.607zm-12.832 8.543 18.47 6.246c.015.016.033.031.048.048.165.176.336.345.512.507.053.049.103.1.157.148.24.213.489.416.747.605.007.005.013.011.02.016 6.815 4.97 9.894 13.024 10.219 27.17l-26.293-8.798c-.167-.501-.363-.997-.614-1.481-4.199-8.08-5.272-15.99-3.266-24.461zm-68.962 29.433c5.347.449 17.16 4.968 27.574 12.546-6.605 3.476-12.562 8.346-17.353 14.532-3.327 4.296-5.976 9.018-7.872 14.033-1.601 4.235-3.602 8.249-5.935 11.999-8.526-18.279-1.305-45.829 3.586-53.11zm87.473 83.407c-10.773 16.075-29.122 25.33-49.035 24.659-8.466-.27-28.577-4.901-56.627-13.041-3.192-.926-3.77-3.716-3.871-4.55-.101-.831-.207-3.672 2.664-5.329 14.966-8.641 26.743-22.746 33.161-39.717 1.467-3.88 3.522-7.54 6.106-10.878 12.598-16.267 35.578-20.873 53.459-10.713 10.26 5.83 17.395 15.326 20.089 26.741 2.657 11.258.49 23.223-5.946 32.828zm17.053-8.004c1.484-5.054 2.216-10.31 2.186-15.589l17.385 5.123c-2.876 3.729-9.902 7.882-19.571 10.466zm.457-28.821c-3.69-14.218-12.741-26.035-25.624-33.356-3.56-2.022-7.276-3.589-11.075-4.721.233-.137.471-.27.691-.421l41.822 13.993c.455.153.915.229 1.374.272 6.946 8.067 11.098 17.985 12.588 30.06zm50.538-11.157c-6.656-1.212-13.427-1.822-20.224-1.822h-2.61c-3.043-8.134-7.481-15.318-13.319-21.487.062-.424.108-.854.116-1.293.079-4.132.018-8.521-.389-12.974 13.757-6.691 24.789-7.743 32.851-3.045 7.268 4.235 12.305 12.774 15.762 22.815-4.601 5.003-8.997 10.966-12.187 17.806zm144.168 336.488c-10.867-33.744-29.612-74.22-61.261-102.435 5.757-18.708 8.256-38.366 8.262-64.148l1.09-59.056c.001-.062.001-.125.001-.188 0-19.912-5.187-39.209-15.065-56.267 3.867-5.294 7.022-11.457 9.415-18.412.249-.724.476-1.451.693-2.179.356.192.712.382 1.057.596 14.793 9.166 16.505 36.713 15.918 46.536-.348 5.483 3.642 10.244 9.113 10.761 1.779.197 43.738 5.546 57.567 67.481 13.692 61.32-27.444 82.109-29.143 82.936-3.545 1.668-5.844 5.208-5.869 9.126-.024 3.917 2.176 7.486 5.699 9.198.94.471 23.019 11.831 23.019 37.604 0 16.205-11.432 30.028-20.496 38.447z" fill="#3c122c"/><path d="m137.368 177.843c-1.511 0-3.044-.338-4.49-1.051-5.038-2.484-7.108-8.581-4.624-13.619 9.146-18.548 24.33-23.251 26.031-23.726 0 0 10.144-2.782 12.671 6.878s-7.025 12.66-7.025 12.66c-.336.108-8.296 2.761-13.435 13.183-1.77 3.593-5.378 5.675-9.128 5.675z" fill="#fff"/><g fill="#3c122c"><path d="m111.95 309.04c-3.37 0-6.102-2.732-6.102-6.102v-13.61c0-3.37 2.732-6.102 6.102-6.102h29.943c3.37 0 6.102 2.732 6.102 6.102s-2.732 6.102-6.102 6.102h-23.841v7.508c0 3.37-2.732 6.102-6.102 6.102z"/><path d="m240.075 309.04c-3.37 0-6.102-2.732-6.102-6.102v-13.61c0-3.37 2.732-6.102 6.102-6.102h29.942c3.37 0 6.102 2.732 6.102 6.102s-2.732 6.102-6.102 6.102h-23.84v7.508c0 3.37-2.733 6.102-6.102 6.102z"/><path d="m196.915 344.649c-2.116 0-4.174-1.102-5.301-3.071-1.179-2.06-3.381-3.298-5.751-3.251-1.978.046-3.799.978-4.996 2.559-2.035 2.686-5.863 3.212-8.548 1.18-2.686-2.035-3.215-5.863-1.18-8.549 3.458-4.566 8.723-7.259 14.443-7.39 6.862-.197 13.217 3.437 16.624 9.386 1.674 2.925.661 6.653-2.263 8.328-.957.547-1.999.808-3.028.808z"/></g></g></g></svg>