<svg id="Capa_1" enable-background="new 0 0 503.442 503.442" height="512" viewBox="0 0 503.442 503.442" width="512" xmlns="http://www.w3.org/2000/svg"><g><g><path d="m444.674 493.181s35.466-22.569 35.466-54.811-28.212-45.945-28.212-45.945 49.659-23.358 34.16-92.777-65.346-74.124-65.346-74.124 6.094-96.082-83.755-44.516c0 0 5.73-129.09-80.098-75.447l94.943 388.352z" fill="#ccf3e2"/><path d="m451.929 392.424s49.659-23.358 34.159-92.777c-2.788-12.484-15.384-28.91-19.904-37.558 19.668 99.498-47.918 145.963-121.963 92.743-3.974-2.856 4.339 139.706-.432 139.08l100.885-.732s35.466-22.569 35.466-54.811-28.211-45.945-28.211-45.945z" fill="#b1b6e1"/><path d="m390.018 494.328c0-26.719-12.752-63.155-36.435-83.194 13.614-9.475 30.585-59.152 34.322-95.322l1.073-58.16c0-20.813-6.321-40.15-17.147-56.196 4.968-5.055 9.169-11.872 12.135-20.49 9.031-26.246-7.491-62.836-15.664-65.648s-43.713 15.863-52.744 42.109c-.357 1.037-.673 2.061-.97 3.079-8.358-2.25-17.144-3.457-26.213-3.457h-62.086c-4.637 0-9.091.353-13.371 1.003-.635-5.705-2.388-11.799-5.434-18.143-11.89-24.76-48.966-39.037-56.676-35.335-7.71 3.703-19.75 41.564-7.86 66.324 3.934 8.192 8.891 14.443 14.405 18.848-10.934 12.396-18.179 25.966-21.888 36.165-8.95 24.614-13.426 58.177-13.426 58.177-24.246 22.824-31.959 54.055-22.258 81.219 8.005 22.413 24.669 37.305 44.827 49.63 5.422 3.315 19.045 10.011 24.476 11.447-9.126 20.076-13.945 48.976-17.183 70.587" fill="#fff"/><path d="m353.583 411.134c13.614-9.475 30.585-59.152 34.322-95.322l1.073-58.16c0-20.813-6.321-40.15-17.147-56.196 4.968-5.055 9.169-11.872 12.135-20.49 9.031-26.246-7.491-62.836-15.664-65.648-3.952-1.36-9.353-.465-20.012 6.651 5.126 13.433 8.699 33.049 3.86 48.851-2.587 8.449-11.204 17.912-15.538 22.869 9.445 15.731 14.96 34.688 14.96 55.094l-.936 57.019c-2.518 27.389-16.465 64.258-28.157 83.905-4.577 7.691-3.882 17.386 1.753 24.339 8.341 10.294 15.75 22.381 20.885 34.641 6.423 15.335-4.877 32.283-21.502 32.491l-169.561 2.115c-.793 4.762-1.506 9.369-2.151 13.679l238.117-2.643c-.002-26.721-12.754-63.156-36.437-83.195z" fill="#e1bdfc"/><path d="m284.727 170.254c-.033-.447-.086-.897-.184-1.35-.628-17.453-5.931-32.563-18.06-44.255-.302-19.53-5.485-34.73-17.854-43.749-6.246-21.591-15.932-44.626-28.024-68.67-1.512-3.707-7.042-2.51-6.887 1.49-1.487 21.645-1.583 41.755 2.229 57.549-5.228 12.852-5.312 25.808 1.508 38.932-4.226 12.999-4.412 26.504 1.576 40.693-6.327 13.66-1.598 26.139.11 32.051 7.017 19.838 67.043 7.153 65.586-12.691z" fill="#f6e06e"/><path d="m284.727 170.254c-.033-.447-.086-.897-.184-1.35-.446-12.395-3.267-23.599-9.199-33.245.584 3.197.939 6.504 1.066 9.923.087.387.133.771.162 1.152 1.283 16.932-51.555 27.755-57.733 10.828-.29-.974-.68-2.158-1.079-3.516-4.333 12.402-.194 23.446 1.381 28.899 7.017 19.838 67.043 7.153 65.586-12.691z" fill="#dda86a"/><path d="m133.234 189.004c13.95-8.055 24.296-20.912 29.994-35.979 1.618-4.28 3.899-8.409 6.873-12.248 14.202-18.338 40.108-23.537 60.274-12.078 24.052 13.667 31.045 44.572 15.927 67.131-13.016 19.422-33.988 27.522-53.391 26.904-11.304-.36-37.37-7.314-57.161-13.057-9.582-2.78-11.155-15.685-2.516-20.673z" fill="#ccf3e2"/><path d="m230.374 128.699c-20.165-11.459-46.072-6.26-60.273 12.078-2.973 3.839-5.254 7.968-6.873 12.248-5.698 15.067-16.044 27.924-29.994 35.979-8.639 4.988-7.066 17.893 2.515 20.673 19.792 5.743 45.858 12.697 57.161 13.057 19.403.617 40.375-7.482 53.391-26.905 15.118-22.558 8.125-53.463-15.927-67.13zm2.167 44.629c-6.49 15.54-20.395 24.099-34.464 26.254-8.197 1.256-28.008-.2-43.119-1.634-7.315-.695-10.366-9.653-4.884-14.353 8.852-7.588 14.395-18.107 16.26-29.574.53-3.257 1.559-6.496 3.131-9.622 7.505-14.928 25.396-22.086 41.626-16.64 19.358 6.496 28.989 27.519 21.45 45.569z" fill="#b1b6e1"/><path d="m211.043 347.291c-5.735.013-9.877-7.252-8.179-14.401 4.16-17.511 15.801-30.119 29.552-30.149s25.475 12.527 29.751 30.019c1.745 7.141-2.349 14.424-8.083 14.437z" fill="#d789b9"/><path d="m226.216 347.258c-4.047.009-6.971-5.118-5.772-10.164 2.936-12.359 11.152-21.257 20.857-21.278 9.705-.022 17.98 8.841 20.997 21.187.069.283.121.566.165.849.201-1.637.126-3.368-.295-5.092-4.275-17.492-15.999-30.049-29.751-30.019s-25.392 12.639-29.552 30.149c-1.699 7.149 2.444 14.414 8.178 14.401l43.041-.094z" fill="#c668b9"/><path d="m62.614 58.69 6.093 17.133c.261.734.777 1.315 1.429 1.609l15.222 6.858c2.151.969 2.151 4.395 0 5.364l-15.222 6.858c-.652.294-1.168.875-1.429 1.608l-6.093 17.133c-.861 2.421-3.905 2.421-4.766 0l-6.093-17.133c-.261-.734-.777-1.315-1.429-1.608l-15.222-6.858c-2.151-.969-2.151-4.395 0-5.364l15.222-6.858c.652-.294 1.168-.875 1.429-1.609l6.093-17.133c.861-2.421 3.906-2.421 4.766 0z" fill="#fbf2aa"/><circle cx="16.567" cy="162.977" fill="#f7e16e" r="12.187"/><path d="m455.077 20.813 8.214 23.098c.352.989 1.048 1.772 1.927 2.168l20.521 9.246c2.899 1.306 2.899 5.925 0 7.232l-20.521 9.246c-.879.396-1.575 1.179-1.927 2.169l-8.214 23.097c-1.161 3.263-5.264 3.263-6.425 0l-8.214-23.097c-.352-.989-1.048-1.773-1.927-2.169l-20.521-9.246c-2.899-1.306-2.899-5.925 0-7.232l20.521-9.246c.879-.396 1.575-1.18 1.927-2.168l8.214-23.098c1.16-3.264 5.264-3.264 6.425 0z" fill="#fbf2aa"/></g><g><g fill="#3c122c"><path d="m469.348 392.574c4.297-3.63 9.112-8.462 13.582-14.653 10.759-14.908 21.734-40.967 12.918-80.452-8.716-39.039-27.976-59.161-42.598-69.168-8.649-5.919-16.689-9.113-22.509-10.824-.579-14.326-4.438-42.491-25.034-55.306-2.878-1.791-5.948-3.18-9.186-4.214-.329-10.169-2.583-19.27-4.429-25.134-1.939-6.159-9.153-26.562-20.568-30.49-11.417-3.929-29.656 7.715-34.975 11.377-.112.077-.236.167-.351.247-5.292-11.963-12.436-20.628-21.392-25.855-13.116-7.654-28.992-7.462-47.343.521-2.312-4.954-5.568-9.585-10.139-13.562-6.094-20.205-15.158-42.188-27.665-67.081-2.631-5.816-8.957-9.031-15.24-7.667-6.223 1.347-10.628 6.791-10.704 13.094-1.702 25.031-1.143 42.865 1.821 57.12-5.356 15.2-4.336 30.085 3.045 44.287.303.583.671 1.108 1.066 1.604-.019.096-.032.191-.05.287-1.318-.056-2.635-.067-3.951-.024-8.018-8.47-17.337-14.259-23.422-17.479-5.658-2.995-24.964-12.36-35.777-7.17-10.812 5.193-15.572 26.115-16.773 32.404-1.962 10.275-4.022 30.08 4.229 47.265 1.175 2.448 2.447 4.77 3.806 6.967-2.365 1.902-4.857 3.631-7.474 5.142-6.111 3.528-9.381 10.071-8.532 17.075.593 4.897 3.091 9.09 6.853 11.848-.923 2.091-1.772 4.173-2.521 6.233-7.604 20.914-12.022 47.395-13.44 56.807-24.644 24.853-33.185 58.787-22.261 89.37 10.166 28.465 32.849 44.907 49.028 54.799 3.311 2.023 10.208 5.644 16.657 8.552-6.775 18.97-10.882 42.398-14.038 63.469-.818 5.462 2.946 10.553 8.408 11.371.502.075 1.001.111 1.494.111 4.867 0 9.134-3.56 9.877-8.52 3.52-23.498 8.221-49.945 16.396-67.932 1.219-2.681 1.193-5.762-.068-8.423-1.262-2.661-3.633-4.63-6.479-5.383-4.042-1.068-16.645-7.149-21.816-10.31-21.896-13.388-34.425-27.1-40.626-44.462-8.579-24.02-1.032-51.062 19.694-70.574 1.674-1.576 2.754-3.681 3.058-5.96.044-.324 4.431-32.757 12.911-56.081.557-1.53 1.448-3.786 2.725-6.547 21.979 6.039 37.145 9.224 45.165 9.479.766.024 1.529.036 2.29.036 22.872 0 43.781-10.951 56.276-29.598.234-.349.448-.709.673-1.063 1.674-.241 3.325-.528 4.931-.865 16.119-3.379 34.524-12.464 33.836-26.988 0-.095-.005-.189-.009-.283-.003-.048-.001-.094-.005-.142-.001-.006 0-.012-.001-.018-.004-.057-.011-.107-.016-.164-.004-.034-.006-.068-.01-.102-.041-.467-.093-.906-.164-1.323-.064-1.584-.181-3.135-.32-4.672 7.366.15 14.676 1.178 21.754 3.083 5.25 1.415 10.67-1.628 12.197-6.847.301-1.03.564-1.865.829-2.634 6.595-19.166 31.319-33.796 39.888-35.481 5.717 6.602 16.203 33.348 9.608 52.513-2.372 6.893-5.673 12.523-9.812 16.735-3.332 3.392-3.816 8.66-1.157 12.602 10.082 14.942 15.419 32.407 15.436 50.513l-1.062 57.636c-3.798 35.857-20.627 81.175-30.045 87.729-2.55 1.775-4.13 4.634-4.276 7.737s1.158 6.098 3.53 8.104c21.596 18.273 32.895 51.843 32.895 75.56 0 5.522 4.478 10 10 10s10-4.478 10-10c0-24.81-10.216-59.973-32.453-83.668 14.924-20.823 27.377-65.654 30.287-93.82.028-.28.046-.561.051-.843l1.072-58.16c.001-.062.002-.123.002-.185 0-19.579-5.1-38.555-14.813-55.328 3.803-5.203 6.904-11.265 9.258-18.103.245-.712.468-1.428.682-2.144.35.188.7.376 1.039.587 14.545 9.013 16.23 36.1 15.651 45.758-.342 5.392 3.661 10.081 9.041 10.589.426.04 42.77 4.735 56.525 66.348 13.463 60.294-26.984 80.735-28.655 81.549-3.486 1.64-5.72 5.135-5.744 8.986-.023 3.852 2.166 7.375 5.631 9.058.227.109 22.581 11.265 22.581 36.949 0 26.108-30.191 45.957-30.845 46.381-4.652 2.968-6.022 9.142-3.059 13.8 1.906 2.995 5.141 4.632 8.446 4.632 1.836 0 3.694-.505 5.359-1.564 1.637-1.042 40.098-25.945 40.098-63.248.001-22.42-11.254-37.253-20.792-45.8zm-233.615-319.438-9.903-3.349c-.008-.049-.02-.098-.028-.146-.033-.197-.066-.393-.111-.586-.01-.044-.014-.087-.025-.131-2.077-8.604-2.814-18.826-2.895-28.833 5.198 11.682 9.494 22.643 12.962 33.045zm-12.618 8.4 18.162 6.142c.015.016.032.03.047.046.162.173.33.339.504.5.052.048.101.098.153.144.236.21.481.409.736.595.007.005.013.011.02.016 6.702 4.887 9.729 12.808 10.048 26.717l-25.853-8.65c-.165-.493-.357-.981-.604-1.456-4.131-7.947-5.185-15.726-3.213-24.054zm-67.809 28.942c5.258.442 16.87 4.886 27.108 12.338-6.492 3.417-12.347 8.205-17.057 14.287-3.271 4.226-5.876 8.868-7.741 13.8-1.575 4.165-3.542 8.112-5.837 11.8-8.382-17.976-1.283-45.067 3.527-52.225zm86.01 82.011c-10.593 15.807-28.601 24.875-48.216 24.247-8.323-.265-28.098-4.818-55.681-12.822-3.139-.91-3.706-3.655-3.806-4.475-.099-.817-.203-3.61 2.619-5.239 14.717-8.498 26.297-22.367 32.606-39.054 1.442-3.815 3.463-7.415 6.005-10.696 7.959-10.278 20.134-15.822 32.485-15.822 6.87 0 13.796 1.717 20.079 5.287 10.09 5.733 17.105 15.071 19.754 26.295 2.615 11.07.485 22.835-5.845 32.279zm16.769-7.869c1.459-4.969 2.18-10.138 2.151-15.328l17.094 5.038c-2.829 3.666-9.738 7.75-19.245 10.29zm.449-28.34c-3.629-13.98-12.529-25.6-25.196-32.799-3.499-1.988-7.153-3.528-10.888-4.642.229-.135.462-.265.678-.414l41.121 13.759c.448.15.9.226 1.351.268 6.831 7.932 10.914 17.683 12.378 29.557zm49.694-10.969c-6.544-1.191-13.202-1.792-19.886-1.792h-2.567c-2.992-7.998-7.356-15.063-13.096-21.128.061-.416.106-.839.114-1.271.078-4.068.018-8.391-.384-12.774 13.533-6.582 24.375-7.599 32.303-2.978 7.146 4.164 12.102 12.559 15.503 22.43-4.526 4.92-8.85 10.785-11.987 17.513z"/><ellipse cx="176.281" cy="286.22" rx="12.339" ry="12.339" transform="matrix(.973 -.23 .23 .973 -61.044 48.158)"/><path d="m301.451 273.88c-6.815 0-12.339 5.524-12.339 12.339s5.525 12.339 12.339 12.339c6.815 0 12.34-5.524 12.34-12.339 0-6.814-5.525-12.339-12.34-12.339z"/><path d="m232.465 296.74c-.02 0-.041 0-.061 0-13.689.03-26.208 10.068-32.672 26.197-2.988 7.458-2.122 16.105 2.261 22.568 3.352 4.942 8.351 7.774 13.72 7.774h.033l33.661-.073c5.382-.012 10.377-2.867 13.706-7.834 4.282-6.388 5.114-15.255 2.121-22.59-6.557-16.069-19.109-26.042-32.769-26.042zm20.681 41.952c-.628.938-1.953 2.512-3.765 2.516l-33.66.073c-.001 0-.001 0-.001 0-.002 0-.005 0-.007 0-1.814 0-3.152-1.571-3.788-2.51-1.755-2.588-2.762-7.106-1.054-11.369 4.605-11.491 12.866-18.643 21.559-18.661h.035c8.685 0 16.981 7.114 21.659 18.577 1.737 4.256.761 8.78-.978 11.374z"/><path d="m189.712 241.205c-6.824-5.897-17.129-5.896-23.967-.007-2.511 2.163-2.794 5.951-.632 8.462 1.188 1.378 2.863 2.085 4.55 2.085 1.386 0 2.779-.478 3.912-1.453 2.331-2.007 5.974-2.01 8.291-.007 2.51 2.169 6.297 1.89 8.463-.617 2.167-2.508 1.89-6.297-.617-8.463z"/><path d="m309.321 249.362c2.454-2.227 2.64-6.02.413-8.476-2.228-2.454-6.021-2.64-8.476-.413-2.277 2.067-5.92 2.164-8.289.22-2.565-2.101-6.344-1.726-8.444.837-2.101 2.562-1.726 6.344.837 8.444 3.357 2.751 7.485 4.117 11.609 4.117 4.444.001 8.884-1.584 12.35-4.729z"/></g><path d="m184.789 174.871c-1.485 0-2.993-.332-4.415-1.033-4.953-2.442-6.988-8.438-4.546-13.392 8.993-18.236 23.922-22.862 25.595-23.329 14.349-4.01 19.731 15.252 5.383 19.262l.171-.05c-.331.106-8.157 2.715-13.211 12.963-1.742 3.531-5.288 5.579-8.977 5.579z" fill="#fff"/></g></g></svg>