<svg id="Capa_1" enable-background="new 0 0 512 512" height="512" viewBox="0 0 512 512" width="512" xmlns="http://www.w3.org/2000/svg"><g><g><path d="m376.261 449.446 80.943-10.949-89.32-48.639-76.313 62.036-32.136 13.217 62.297 15.435 11.704-2.434 7.056 7.082 15.135-3.72 6.473 9.073 57.953 14.359c4.158 1.029 7.046-4.052 4.035-7.098z" fill="#f6e06e"/><path d="m381.936 371.471 76.421 49.351c5.58 3.604 7.182 11.048 3.579 16.628-3.603 5.58-11.048 7.183-16.628 3.579l-76.421-49.351c-5.58-3.604-7.182-11.048-3.579-16.628 3.603-5.581 11.048-7.183 16.628-3.579z" fill="#faf1a9"/><g fill="#e8a284"><ellipse cx="398.917" cy="420.659" rx="10.651" ry="20.893" transform="matrix(.024 -1 1 .024 -31.051 809.524)"/><ellipse cx="378.633" cy="474.722" rx="10.651" ry="20.893" transform="matrix(.085 -.996 .996 .085 -126.446 811.797)"/><ellipse cx="319.31" cy="453.685" rx="10.651" ry="20.893" transform="matrix(.085 -.996 .996 .085 -159.785 733.43)"/></g><path d="m341.513 406.623-81.312 40.792c-5.937 2.978-8.336 10.206-5.357 16.143 2.979 5.937 10.206 8.336 16.143 5.357l81.313-40.792c5.937-2.979 8.336-10.206 5.357-16.144-2.979-5.936-10.207-8.334-16.144-5.356z" fill="#faf1a9"/><path d="m303.969 398.416s29.032-13.239 32.42-37.476-16.379-37.502-16.379-37.502 39.785-12.34 35.428-66.152c-4.356-53.812-41.332-62.588-41.332-62.588s14.678-71.586-58.282-42.265c0 0 17.873-96.437-52.282-65.132l-18.021 172.52z" fill="#c2b2eb"/><path d="m320.408 319.407s40.305-15.556 32.028-70.937c-1.489-9.96-10.459-23.565-13.523-30.609 9.864 79.234-45.814 111.929-100.973 65.985-2.96-2.466-13.186 25.122-16.897 24.363l88.018 89.909s29.116-15.733 30.924-41.051c1.807-25.318-19.577-37.66-19.577-37.66z" fill="#ae85ea"/><path d="m315.153 397.194c-4.347-33.454-34.449-62.488-56.852-86.465 6.628-12.788 18.908-32.293 21.98-54.267l6.918-43.607c2.187-15.645-.532-30.845-6.984-44.045 4.266-3.279 8.14-7.961 11.275-14.127 9.547-18.781.972-48.023-4.876-50.996s-34.527 7.331-44.074 26.112c-.377.742-.722 1.478-1.053 2.212-6.047-2.57-12.524-4.4-19.342-5.354l-46.671-6.524c-3.485-.487-6.871-.689-10.156-.651.122-4.355-.555-9.121-2.178-14.209-6.336-19.862-32.706-34.49-38.891-32.517s-19.214 29.169-12.879 49.031c2.096 6.572 5.166 11.791 8.848 15.682-9.522 8.169-16.395 17.609-20.254 24.886-9.315 17.563-16.206 42.322-16.206 42.322-20.624 14.61-29.705 37.276-25.267 58.715 3.662 17.69 13.811 31.703 28.482 42.018 12.895 9.067 37.171 17.414 49.665 18.066-26.876-1.993-62.911 44.374-67.616 60.279l-.39 1.367c-3.508 12.613-10.274 27.057-4.836 42.731 1.047 3.016 2.278 5.861 3.671 8.553-16.927 17.168-26.739 40.659-9.905 49.663 17.727 9.482 27.766-19.927 33.612-23.634.263-.166.516-.315.769-.464 19.364 11.708 45.495 16.218 73.034 17.111-1.938 8.59.032 16.145 8.031 20.424 17.727 9.482 20.748-14.235 26.594-17.942 1.929-1.223 3.417-2.299 4.591-3.255 2.469-.155 4.931-.322 7.379-.505 52.983-3.957 104.109-29.254 103.704-78.928z" fill="#fff"/><path d="m58.421 447.163c-10.712 15.129-14.366 31.681-.859 38.905 14.677 7.85 24.084-10.957 30.204-19.766-9.765-6.411-19.308-13.162-29.345-19.139z" fill="#9781dd"/><path d="m217.669 138.858c.022-.34.03-.683.003-1.034 1.362-13.185-1.037-25.102-8.926-35.165 1.825-14.713-.473-26.684-8.824-34.763-2.427-16.887-7.287-35.22-13.85-54.566-.747-2.945-5.03-2.627-5.334.396-3.392 16.115-5.577 31.222-4.372 43.495-5.28 9.112-6.705 18.842-2.957 29.424-4.543 9.327-6.102 19.46-3.091 30.756-6.191 9.604-3.948 19.482-3.285 24.105 3.19 15.65 49.646 12.423 50.636-2.648z" fill="#c1e5ef"/><path d="m217.669 138.858c.022-.34.03-.683.003-1.034.967-9.364.024-18.083-3.422-25.958.103 2.464.023 4.988-.241 7.571.024.3.019.593.001.883-.815 12.863-41.672 15.446-44.537 2.073-.116-.762-.284-1.693-.441-2.756-4.561 8.868-2.61 17.605-1.999 21.87 3.19 15.649 49.646 12.422 50.636-2.649z" fill="#a6aaed"/><path d="m101.818 137.033c11.333-4.589 20.462-13.167 26.328-23.894 1.666-3.047 3.815-5.911 6.453-8.485 12.603-12.293 32.623-13.478 46.578-2.745 16.644 12.801 18.653 36.768 4.918 52.137-11.825 13.232-28.442 17.117-42.962 14.614-8.46-1.458-27.323-9.425-41.597-15.822-6.91-3.097-6.736-12.964.282-15.805z" fill="#c2b2eb"/><path d="m181.178 101.908c-13.955-10.733-33.975-9.547-46.578 2.745-2.639 2.574-4.787 5.438-6.453 8.485-5.866 10.727-14.995 19.305-26.328 23.894-7.018 2.842-7.192 12.708-.282 15.804 14.274 6.397 33.138 14.364 41.597 15.822 14.521 2.503 31.137-1.382 42.962-14.614 13.735-15.368 11.725-39.334-4.918-52.136zm-3.061 33.777c-6.512 11-17.864 15.972-28.666 16.114-6.293.083-21.033-3.093-32.242-5.76-5.426-1.291-6.778-8.346-2.163-11.302 7.452-4.774 12.724-12.099 15.331-20.523.741-2.393 1.855-4.719 3.365-6.904 7.211-10.433 21.411-13.934 33.04-8.134 13.868 6.917 18.898 23.733 11.335 36.509z" fill="#ae85ea"/><path d="m143.106 134.395c-1.952 0-3.924-.565-5.66-1.745-4.606-3.131-5.802-9.403-2.671-14.009 9.286-13.661 22.004-15.728 23.424-15.919 0 0 10.203-1.277 11.349 8.661 1.147 9.938-8.577 11.323-8.417 11.292-.221.041-5.455 1.096-9.674 7.304-1.952 2.87-5.124 4.416-8.351 4.416z" fill="#fff"/><path d="m185.659 447.159c1.265-1.18 2.678-2.427 4.199-3.716-52.769 3.007-110.142-1.697-125.472-44.172-.008-.024-.015-.047-.024-.071-2.501 8.93-4.077 18.534-.567 28.651 13.248 38.185 55.252 49.751 101.178 51.236 2.355-10.446 10.497-22.427 20.686-31.928z" fill="#e1bdfc"/><path d="m315.153 397.194c-4.347-33.453-34.449-62.488-56.852-86.465 6.628-12.787 18.908-32.293 21.98-54.267l6.918-43.607c2.187-15.645-.532-30.845-6.984-44.045 4.266-3.279 8.14-7.961 11.275-14.127 9.547-18.78.972-48.023-4.876-50.996-4.926-2.504-26.055 4.415-38.299 17.887 6.116-2.304 16.469-6.492 18.538-5.464 5.222 2.594 8.811 23.561.372 39.781-2.771 5.325-6.207 9.364-9.996 12.185 5.798 11.448 7.342 32.404 5.45 45.938l-6.005 37.715c-1.976 14.136-13.823 35.801-22.174 50.518-4.224 7.443-2.263 16.903 4.63 21.976 20.116 14.802 38.818 25.087 42.132 49.11l.114 1.456c.149 11.798-2.655 22.007-7.755 30.692-8.693 17.951-17.222 46.243-62.009 64.742-3.757 1.552-1.517 3.277-7.419 8.087 2.469-.155 4.931-.322 7.379-.505 52.983-3.957 104.109-29.254 103.704-78.928z" fill="#e1bdfc"/><path d="m173.866 460.6c-10.712 15.129-14.366 31.681-.86 38.905 14.677 7.85 24.084-10.957 30.204-19.766-9.764-6.411-19.307-13.162-29.344-19.139z" fill="#9781dd"/><path d="m201.364 401.128c-20.308-3.541-36.163-13.735-31.169-30.02 5.426-17.696 27.588-10.23 39.32-8.077-2.679 12.71-4.917 25.515-8.151 38.097z" fill="#9781dd"/><ellipse cx="88.579" cy="345.065" fill="#9781dd" rx="20.067" ry="22.372" transform="matrix(.502 -.865 .865 .502 -254.266 248.249)"/><path d="m187.536 254.671c-3.788 2.825-15.55 6.819-18.375 3.031s4.357-13.923 8.145-16.748 9.149-2.045 11.974 1.743c2.824 3.788 2.044 9.149-1.744 11.974z" fill="#d789b9"/><path d="m435.651 59.225 8.284 23.293c.355.997 1.057 1.787 1.943 2.187l20.695 9.324c2.924 1.317 2.924 5.976 0 7.293l-20.695 9.324c-.886.399-1.588 1.189-1.943 2.187l-8.284 23.293c-1.17 3.291-5.309 3.291-6.479 0l-8.284-23.293c-.355-.997-1.057-1.788-1.943-2.187l-20.695-9.324c-2.924-1.317-2.924-5.976 0-7.293l20.695-9.324c.886-.399 1.588-1.189 1.943-2.187l8.284-23.293c1.17-3.29 5.308-3.29 6.479 0z" fill="#c1e5ef"/><path d="m89.166 7.545 6.145 17.278c.263.74.784 1.326 1.441 1.622l15.351 6.917c2.169.977 2.169 4.433 0 5.41l-15.351 6.916c-.657.296-1.178.882-1.441 1.622l-6.145 17.279c-.868 2.441-3.938 2.441-4.806 0l-6.145-17.279c-.263-.74-.784-1.326-1.441-1.622l-15.351-6.916c-2.169-.977-2.169-4.433 0-5.41l15.351-6.917c.657-.296 1.178-.882 1.441-1.622l6.145-17.278c.868-2.441 3.938-2.441 4.806 0z" fill="#c1e5ef"/><ellipse cx="28.969" cy="117.338" fill="#96b4eb" rx="12.291" ry="12.291" transform="matrix(.973 -.231 .231 .973 -26.318 9.864)"/><path d="m353.191 36.825c0 5.272-4.274 9.546-9.546 9.546s-9.546-4.274-9.546-9.546 4.274-9.546 9.546-9.546c5.272.001 9.546 4.274 9.546 9.546z" fill="#96b4eb"/><path d="m470.758 172.873 6.145 17.279c.263.74.784 1.326 1.441 1.622l15.351 6.917c2.169.977 2.169 4.433 0 5.41l-15.351 6.916c-.657.296-1.178.882-1.441 1.622l-6.145 17.279c-.868 2.441-3.938 2.441-4.806 0l-6.145-17.279c-.263-.74-.784-1.326-1.441-1.622l-15.351-6.916c-2.169-.977-2.169-4.433 0-5.41l15.351-6.917c.657-.296 1.178-.882 1.441-1.622l6.145-17.279c.868-2.441 3.938-2.441 4.806 0z" fill="#c1e5ef"/></g><g fill="#3c122c"><path d="m469.507 427.121c-1.016-4.72-3.81-8.763-7.866-11.383l-76.421-49.35c-4.056-2.62-8.891-3.505-13.611-2.487-4.721 1.015-8.764 3.809-11.383 7.866-2.62 4.057-3.503 8.89-2.487 13.611.291 1.352.743 2.639 1.314 3.863l-12.385 10.068c-2.701.034-5.381.66-7.867 1.908v-.001l-13.664 6.855c.165-3.002.248-6.085.222-9.275-.001-.215-.01-.428-.026-.643l-.111-1.549c9.172-7.562 19.023-19.002 21.156-34.264 2.26-16.166-3.579-28.393-9.637-36.361 3.146-2.184 6.55-4.963 9.899-8.457 10.008-10.445 21.404-29.516 18.85-61.047-3.578-44.197-27.202-61.808-40.338-68.248.994-11.799.338-32.602-14.092-44.644-1.711-1.427-3.549-2.656-5.498-3.71 1.605-19.352-4.878-40.343-14.378-45.174-7.955-4.047-20.528.581-27.416 3.757-2.671-7.916-6.867-15.074-13.312-20.151-9.275-7.306-21.267-9.148-35.76-5.563-1.007-2.509-2.226-4.928-3.657-7.222 1.013-25.781-6.962-42.564-15.918-56.751-2.672-5.944-9.598-9.163-15.18-8.729-5.537.412-9.878 4.176-10.963 9.33-4.415 15.288-5.713 29.528-3.901 42.468-5.01 9.249-6.003 20.314-2.942 32.342-12.37-14.329-31.058-24.181-40.951-21.032-9.519 3.036-15.492 17.914-17.618 24.17-2.654 7.809-6.418 23.069-1.803 37.534.52 1.631 1.099 3.207 1.729 4.728-1.286.68-2.6 1.3-3.944 1.845-5.531 2.24-9.034 7.336-9.143 13.3-.061 3.369.97 6.5 2.858 9.028-.786 1.293-1.525 2.587-2.209 3.876-7.734 14.583-13.749 33.38-16.029 40.973-21.467 16.687-31.553 41.986-26.409 66.834 4.015 19.395 15.273 36.071 32.556 48.223.436.306.91.613 1.371.919-9.066 1.132-17.306 6.06-22.025 14.179-4.152 7.144-4.983 15.573-2.339 23.736 1.668 5.151 4.616 9.79 8.543 13.576-3.686 5.919-6.289 11.172-7.397 14.921l-.408 1.431c-2.996 10.772-8.448 30.398-3.112 51.762-10.267 11.88-18.634 27.187-16.814 41.14 1.107 8.492 6.014 15.467 13.816 19.641 4.788 2.56 9.184 3.602 13.186 3.602 12.622 0 21.335-10.352 26.12-16.038.643-.763 1.449-1.72 2.194-2.559 2.402.957 4.895 1.826 7.511 2.577 13.518 3.882 29 4.806 45.548 4.806 2.285-.001 4.595-.021 6.92-.051.039.488.086.975.149 1.46 1.108 8.492 6.014 15.467 13.816 19.641 4.788 2.56 9.184 3.601 13.187 3.601 12.621 0 21.335-10.353 26.12-16.039 1.253-1.488 3.13-3.719 3.949-4.342 4.576-2.424 9.468-4.055 13.637-4.612 22.798-.364 41.445-3.748 56.244-10.231l35.048 8.671c1.449.36 2.987.164 4.303-.536 4.029-2.144 9.364-3.692 10.977-3.179 2.601.82 3.782 2.741 3.993 3.118.636 1.566 1.848 2.667 3.438 3.26 1.61.6 3.344.353 4.866-.446 2.261-1.186 7.639-3.073 10.432-2.272 1.505.429 3.017 4.119 3.393 6.437.364 2.42 2.149 4.382 4.524 4.972l56.413 14.023c.843.21 1.688.31 2.521.31 3.613 0 6.979-1.908 8.843-5.186 2.294-4.034 1.643-8.961-1.62-12.261l-39.427-39.869 53.678-7.261c2.833 1.644 5.946 2.442 9.033 2.442 5.938 0 11.761-2.917 15.215-8.266 2.621-4.06 3.504-8.894 2.489-13.615zm-125.28-15.089s.001 0 .001-.001c.844-.423 1.756-.637 2.674-.637.633 0 1.269.102 1.887.307 1.515.503 2.744 1.566 3.46 2.993 1.478 2.946.283 6.544-2.662 8.021l-30.369 15.234c1.836-4.802 3.266-9.963 4.274-15.515zm-10.162 42.908c-.791 1.313-6.219 4.091-15.145 3.33-3.733-.317-6.74-1.142-9.035-2.097l13.19-6.617c6.779 1.249 10.507 4.148 10.99 5.384zm-36.906-240.504c.01-.062.019-.123.028-.184 2.044-14.62.352-29.321-4.891-42.942 2.791-3.085 5.262-6.667 7.426-10.67 7.171 8.373 5.691 26.107 4.506 32.033-1.108 5.407 2.12 10.649 7.505 11.828 1.893.514 30.037 8.913 33.655 53.599 3.614 44.635-27.136 55.301-28.364 55.707-3.71 1.15-6.463 4.307-7.025 8.15s1.1 7.644 4.325 9.809c.594.414 14.52 10.323 12.079 27.778-.708 5.067-3.041 9.585-6.046 13.48-7.916-26.668-23.377-47.249-48.88-65.515 6.963-12.835 16.029-30.044 18.778-49.555zm-79.677-116.438c.281-1.765.451-3.53.537-5.289 7.364-2.042 14.927-2.515 19.948 1.432 4.128 3.246 6.642 8.952 8.092 15.593-3.247 2.798-6.42 6.088-9.12 9.901-4.37-1.337-8.851-2.33-13.397-2.965l-1.309-.183c-1.375-5.161-3.515-9.948-6.416-14.335.834-1.205 1.419-2.61 1.665-4.154zm-11.169 11.726c3.569 5.744 5.43 12.325 5.638 19.9l-11.118-5.038c-1.186-8.746-5.007-16.696-11.016-23.015l15.792 7.859c.232.115.467.211.704.294zm2.498 31.763c-2.264 1.366-5.811 2.688-10.287 3.492.884-2.348 1.553-4.773 2.006-7.244zm-23.912-109.441c3.256 7.26 5.384 15.042 5.926 24.347-.32.259-.632.532-.926.835-.265.274-.508.561-.736.857l-2.726-1.368c-.033-.643-.124-1.292-.287-1.941-1.723-6.897-2.14-14.5-1.251-22.73zm-4.059 35.404 10.447 5.24c4.575 5.102 6.967 12.211 6.564 19.362l-14.536-7.235c-.096-.515-.22-1.03-.4-1.539-1.578-4.455-2.92-10.278-2.075-15.828zm-53.247 15.79c3.491 1.297 9.125 4.611 14.335 9.155-4.189 1.928-8.11 4.569-11.554 7.927-3.011 2.938-5.547 6.273-7.537 9.913-.845 1.545-1.772 3.028-2.76 4.456-1.66-11.7 3.83-26.034 7.516-31.451zm-23.504 59.401c12.275-4.971 22.705-14.418 29.366-26.6 1.413-2.585 3.22-4.96 5.369-7.056 10.463-10.206 27.085-11.185 38.664-2.28 6.648 5.113 10.735 12.498 11.508 20.793.774 8.305-1.858 16.301-7.412 22.516-9.278 10.381-23.27 15.125-37.423 12.683-6.111-1.054-20.37-6.516-40.151-15.381-1.337-.599-1.518-1.742-1.506-2.37.011-.626.232-1.757 1.585-2.305zm-26.134 196.25c1.681-2.892 4.932-4.433 8.538-4.433 2.327 0 4.804.642 7.101 1.977 5.858 3.405 8.373 10.047 5.608 14.805-2.766 4.76-9.782 5.859-15.64 2.456-3.015-1.752-5.215-4.387-6.197-7.419-.494-1.529-1.075-4.52.59-7.386zm-15.637 138.285c-2.451-1.312-3.103-2.733-3.329-4.463-.494-3.79 1.464-10.015 5.833-16.961 3.305 5.29 7.247 9.885 11.855 13.789-7.842 9.319-9.989 9.973-14.359 7.635zm129.808 5.798c-7.845 9.32-9.991 9.975-14.362 7.639-2.451-1.311-3.103-2.733-3.329-4.463-.454-3.478 1.164-9.014 4.809-15.273l15.158 9.432c-.76.863-1.513 1.758-2.276 2.665zm37.083-16.234c-.499-.077-1.006-.128-1.526-.128-.049 0-.1 0-.15.001-8.981.131-17.392 3.277-22.82 5.858l-18.398-11.448c1.861-2.172 3.928-4.349 6.221-6.488 9.449-8.811 23.732-13.99 33.956-12.321 5.496.898 10.682-2.828 11.58-8.326.898-5.497-2.829-10.681-8.326-11.58-16.403-2.68-36.882 4.343-50.965 17.476-7.802 7.275-15.638 16.98-20.303 27.255-45.864.72-72.681-2.541-82.503-35.511-4.669-15.676-1.388-30.185 2.355-43.641l.362-1.272c.85-2.874 2.942-6.86 5.887-11.364 1.998.364 4.002.556 5.986.556 10.613 0 20.66-5.117 26.075-14.433 3.992-6.868 4.746-14.794 2.765-22.182 4.692-2.993 9.259-5.024 13.365-5.554.665.104 1.349.144 2.047.11.262-.009 26.492-1.115 50.527 9.036 1.281.542 2.611.798 3.919.798 3.932 0 7.668-2.314 9.294-6.164 2.167-5.131-.235-11.047-5.366-13.214-22.286-9.413-45.378-10.62-54.893-10.673-.301-.05-.605-.092-.915-.114-.246-.018-.492-.034-.739-.046-10.567-.756-32.538-8.242-43.871-16.212-13.197-9.278-21.409-21.328-24.407-35.813-3.721-17.972 4.411-36.533 21.22-48.441 1.891-1.339 3.263-3.291 3.886-5.523.066-.237 6.723-23.943 15.4-40.304.462-.872 1.141-2.081 2.041-3.53 14.879 6.344 25.353 10.066 31.192 11.073 3.148.543 6.29.809 9.398.809 14.955 0 29.105-6.165 39.105-17.354.07-.079.134-.161.203-.24 1.078-.018 2.148-.054 3.196-.125 13.046-.885 28.522-6.148 29.655-18.038.011-.078.017-.155.024-.232.005-.063.015-.124.02-.187 0-.003 0-.006 0-.008.002-.035 0-.067.002-.102.004-.092.006-.182.007-.274.012-.298.027-.597.021-.876.027-.282.043-.559.067-.838 4.724.883 9.334 2.264 13.74 4.135 5.046 2.143 10.886-.138 13.139-5.14.266-.591.543-1.185.847-1.784 5.915-11.634 22.857-19.501 30.107-20.889 3.15 6.676 6.779 25 .865 36.633-2.338 4.598-5.175 8.2-8.431 10.702-3.802 2.922-5.021 8.117-2.915 12.425 5.787 11.839 7.885 25.022 6.07 38.132l-6.903 43.511c-.01.062-.019.123-.028.184-2.328 16.656-10.634 31.944-17.308 44.229-1.303 2.399-2.534 4.665-3.637 6.793-2.386 4.605-.891 10.269 3.457 13.095 32.371 21.046 47.545 43.965 52.312 79.048l.075 1.043c.131 22.177-5.054 38.056-15.845 48.542-12.071 11.728-31.851 17.962-60.139 18.925zm87.983 6.427-20.621-5.101c1.362-1.009 2.674-2.06 3.939-3.151.084.053.161.11.246.163 4.558 2.833 10.644 4.699 17.139 5.25 1.366.116 2.705.172 4.015.172 1.047 0 2.066-.048 3.071-.119-3.076.759-5.885 1.905-7.789 2.786zm34.594-.727c-.02.236-.027.471-.033.704-3.153.16-6.185.947-8.57 1.774-1.792-1.785-4.34-3.628-7.824-4.727-1.504-.475-3.122-.647-4.767-.613 8.869-1.968 15-6.972 15.565-13.611.437-5.141-2.586-10.125-8.294-13.673-.047-.03-.099-.055-.146-.084l15.292-7.672 23.112 23.372c-13.412-.032-23.599 5.871-24.335 14.53zm63.463 25.037-26.568-6.604c5.796-1.072 10.536-3.396 13.492-6.619zm-21.861-21.501c-.791 1.314-6.218 4.093-15.144 3.331-8.924-.759-13.807-4.411-14.366-5.838.791-1.313 6.217-4.092 15.145-3.33 8.924.758 13.807 4.41 14.365 5.837zm-14.947-32.931-16.109-16.289c3.118-5.146 3.624-11.725.733-17.488-.914-1.823-2.119-3.435-3.536-4.82l7.96-6.47 14.37 9.279c-.05.024-.104.045-.153.069-6.058 2.911-9.603 7.538-9.725 12.697-.122 5.158 3.2 9.948 9.114 13.141 4.722 2.551 10.911 4.039 17.427 4.192.387.01.771.014 1.154.014 8.263 0 15.384-2.129 20.107-5.621l7.305 4.717zm5.672-22.736c.614-1.175 4.633-3.666 11.502-4.168l12.404 8.01c-2.383.698-5.468 1.191-9.211 1.107-8.954-.212-14.051-3.559-14.695-4.949zm72.74 13.858c-.866 1.341-2.202 2.264-3.763 2.6-1.559.34-3.157.044-4.5-.821l-76.421-49.351c-1.341-.867-2.265-2.203-2.6-3.763-.336-1.561-.044-3.158.822-4.5.866-1.341 2.202-2.264 3.763-2.6.423-.092.847-.136 1.269-.136 1.137 0 2.252.326 3.23.957l76.421 49.35c2.77 1.789 3.567 5.496 1.779 8.264z"/><path d="m269.328 367.277c-5.089-2.262-11.05.029-13.312 5.119-5.678 12.777-18.604 20.272-34.659 20.009-3.911-.06-7.72-.314-11.351-.733l4.269-18.061c1.077-.023 2.118-.129 3.129-.352 9.372-2.065 21.316-7.691 24.995-22.758l.054-.22c1.364-5.4-1.908-10.884-7.307-12.247-5.4-1.362-10.883 1.908-12.247 7.307l-.092.375c-.503 2.06-1.43 5.858-9.231 7.727-1.305-.089-4.422-.761-6.742-1.263-6.72-1.45-15.086-3.258-23.183-2.438-11.614 1.175-19.817 7.712-23.096 18.408-2.704 8.818-1.415 17.218 3.729 24.29 12.783 17.573 43.954 19.932 56.762 20.131.375.006.745.009 1.117.009 23.86-.002 43.356-11.903 52.285-31.993 2.262-5.088-.031-11.048-5.12-13.31zm-71.253 22.267c-8.414-2.116-14.787-5.262-17.482-8.966-1.006-1.384-1.794-3.13-.756-6.513 1.371-4.469 5.093-5.95 22.425-2.235z"/><path d="m128.335 207.385-20.835-1.641c-3.349-.271-6.245 2.226-6.507 5.557s2.226 6.245 5.557 6.507l20.835 1.641c.162.013.323.019.482.019 3.126 0 5.776-2.406 6.026-5.576.262-3.331-2.227-6.245-5.558-6.507z"/><path d="m130.903 192.719-20.835-1.641c-3.354-.272-6.245 2.225-6.507 5.557-.262 3.331 2.226 6.245 5.557 6.507l20.835 1.641c.162.013.322.019.482.019 3.126 0 5.776-2.406 6.026-5.576.262-3.331-2.227-6.245-5.558-6.507z"/><path d="m215.008 236.049 19.991 6.094c.588.179 1.182.265 1.766.265 2.593 0 4.991-1.68 5.786-4.288.975-3.197-.827-6.579-4.023-7.553l-19.991-6.094c-3.198-.974-6.577.828-7.552 4.023-.975 3.197.826 6.579 4.023 7.553z"/><path d="m217.982 221.461 19.991 6.094c.588.179 1.182.265 1.766.265 2.593 0 4.991-1.68 5.786-4.288.974-3.197-.827-6.579-4.024-7.553l-19.991-6.094c-3.196-.972-6.578.827-7.552 4.023-.974 3.197.828 6.579 4.024 7.553z"/><path d="m184.526 233.357c-3.861-.562-7.709.413-10.838 2.746-2.67 1.992-5.962 5.957-8.191 9.867-2.312 4.055-3.076 7.285-3.015 9.828-2.287 1.658-5.1 2.322-7.816 1.571-5.12-1.419-7.967-7.332-6.346-13.181.892-3.22-.995-6.555-4.215-7.447-3.22-.891-6.555.994-7.447 4.215-3.403 12.279 3.225 24.874 14.776 28.076 1.824.505 3.662.746 5.48.746 4.872 0 9.579-1.75 13.43-4.789 1.021.213 2.085.322 3.18.322 7.086 0 15.195-3.974 17.629-5.788.001-.001.001-.001.001-.001 6.456-4.816 7.791-13.986 2.976-20.441-2.332-3.129-5.743-5.161-9.604-5.724zm-.608 16.464c-1.741 1.298-5.684 2.7-8.493 3.209 1.289-2.548 3.758-5.928 5.498-7.226.537-.401 1.09-.496 1.496-.496.141 0 .264.012.363.026.384.056 1.107.258 1.648.982.825 1.106.596 2.679-.512 3.505z"/></g></g></svg>