<svg id="Capa_1" enable-background="new 0 0 512 512" height="512" viewBox="0 0 512 512" width="512" xmlns="http://www.w3.org/2000/svg"><g><g><path d="m413.888 501.563s36.069-22.953 36.069-55.743-28.691-46.726-28.691-46.726 50.503-23.755 34.74-94.354c-15.763-70.598-66.457-75.384-66.457-75.384s6.197-97.715-85.179-45.273c0 0 5.827-131.284-81.459-76.73l8.089 232.271z" fill="#ccf3e2"/><path d="m421.266 399.094s50.503-23.755 34.74-94.354c-2.835-12.697-15.646-29.402-20.242-38.196 20.003 101.19-48.732 148.444-124.036 94.319-4.041-2.905-14.679 33.584-19.531 32.948l121.692 107.752s36.069-22.953 36.069-55.743c-.001-32.79-28.692-46.726-28.692-46.726z" fill="#b1b6e1"/><path d="m413.918 501.828c-11.974-43.585-33.516-89.022-67.692-116.682 6.423-18.198 9.895-37.828 9.895-67.556l1.091-59.148c0-21.167-6.428-40.832-17.438-57.151 5.052-5.141 9.325-12.074 12.341-20.838 9.185-26.692-7.619-63.905-15.93-66.764-8.312-2.86-44.456 16.133-53.641 42.825-.363 1.055-.684 2.096-.987 3.131-8.5-2.288-17.435-3.516-26.658-3.516h-63.141c-4.715 0-9.245.359-13.598 1.02-.646-5.802-2.429-12-5.527-18.451-12.092-25.181-49.798-39.7-57.639-35.935-7.841 3.766-20.086 42.27-7.994 67.451 4.001 8.332 9.043 14.689 14.65 19.168-11.12 12.607-18.489 26.408-22.26 36.78-9.102 25.032-13.654 59.166-13.654 59.166-24.658 23.211-32.502 54.972-22.636 82.598 8.141 22.794 24.208 39.507 45.589 50.474 18.793 9.639 49.289 13.094 65.99 11.641-9.281 20.417-14.182 49.808-17.475 71.787z" fill="#fff"/><path d="m346.226 385.146c6.423-18.198 9.895-37.828 9.895-67.556l1.091-59.148c0-21.167-6.428-40.832-17.438-57.151 5.052-5.141 9.325-12.074 12.341-20.838 9.185-26.692-7.619-63.905-15.93-66.764-3.922-1.35-5.042-.501-15.602 6.395 6.543 12.277 11.035 28.079 9.38 47.942-1.042 12.507-17.216 25.739-21.446 30.631 9.219 15.526 16.276 67.756 16.276 87.896l-.276 15.017c0 20.613-8.841 48.633-13.629 67.84-2.793 11.201-4.352 21.267 4.019 29.215 11.256 10.687 19.973 20.971 27.471 39.892 8.346 21.063-7.251 43.907-29.908 43.907h-152.134c-1.201 6.797-2.23 13.383-3.132 19.404h256.715c-11.975-43.586-33.517-89.022-67.693-116.682z" fill="#e1bdfc"/><path d="m251.222 173.147c-.033-.455-.087-.912-.187-1.373-.639-17.749-6.032-33.117-18.367-45.007-.307-19.862-5.578-35.321-18.157-44.492-6.353-21.958-16.203-45.384-28.501-69.838-1.538-3.769-7.162-2.553-7.004 1.516-1.512 22.013-1.609 42.465 2.267 58.527-5.317 13.071-5.402 26.247 1.534 39.594-4.298 13.22-4.487 26.954 1.603 41.385-6.434 13.892-1.625 26.583.112 32.595 7.136 20.175 68.182 7.275 66.7-12.907z" fill="#f6e06e"/><path d="m251.222 173.147c-.033-.455-.087-.912-.187-1.373-.454-12.605-3.322-24-9.355-33.811.594 3.251.955 6.615 1.084 10.092.088.394.135.784.165 1.172 1.305 17.22-52.432 28.227-58.715 11.012-.295-.99-.691-2.195-1.097-3.576-4.407 12.613-.198 23.845 1.405 29.391 7.136 20.175 68.182 7.275 66.7-12.907z" fill="#dda86a"/><path d="m97.154 192.216c14.187-8.192 24.709-21.267 30.504-36.591 1.646-4.353 3.966-8.552 6.99-12.456 14.443-18.649 40.79-23.937 61.298-12.283 24.46 13.899 31.572 45.33 16.198 68.272-13.237 19.752-34.566 27.99-54.299 27.362-11.496-.366-38.005-7.438-58.133-13.279-9.744-2.828-11.344-15.952-2.558-21.025z" fill="#ccf3e2"/><path d="m195.945 130.886c-20.508-11.653-46.855-6.367-61.298 12.283-3.024 3.905-5.344 8.104-6.99 12.457-5.794 15.323-16.317 28.399-30.504 36.591-8.786 5.073-7.186 18.197 2.558 21.025 20.128 5.841 46.637 12.913 58.133 13.279 19.733.628 41.062-7.61 54.299-27.362 15.375-22.944 8.263-54.373-16.198-68.273zm2.205 45.388c-6.601 15.804-20.741 24.509-35.05 26.701-8.336 1.277-28.484-.203-43.852-1.662-7.439-.706-10.542-9.817-4.967-14.597 9.003-7.717 14.64-18.415 16.537-30.077.539-3.313 1.586-6.607 3.184-9.786 7.633-15.182 25.827-22.461 42.333-16.923 19.686 6.606 29.481 27.987 21.815 46.344z" fill="#b1b6e1"/><path d="m217.323 317.795c4.783.006 8.21 5.673 6.767 11.234-3.534 13.622-13.289 23.406-24.757 23.392s-21.199-9.823-24.699-23.453c-1.429-5.565 2.012-11.224 6.795-11.218z" fill="#d789b9"/><ellipse cx="278.674" cy="349.493" fill="#e8c2d8" rx="31.423" ry="25.604"/><ellipse cx="118.431" cy="349.493" fill="#e8c2d8" rx="31.423" ry="25.604"/><path d="m295.784 263.849c-.443-9.933-8.634-17.851-18.676-17.851-7.96 0-14.753 4.976-17.451 11.985-2.698-7.009-9.492-11.985-17.451-11.985-9.864 0-17.938 7.64-18.642 17.324-3.316 19.263 35.425 50.526 35.425 50.526s39.843-31.189 36.795-49.999z" fill="#e8a284"/><path d="m295.784 263.849c-.443-9.933-8.634-17.851-18.676-17.851-3.244 0-7.868 4.379-10.526 5.833 10.912-3.587 15.981 2.965 16.336 10.808 1.618 9.859-11.106 23.165-20.521 31.793-5.072 4.648-11.707 4.453-17.19.299-4.933-3.737-9.705-7.551-13.752-13.303.957 3.151.942 4.163 2.439 7.094 10.505 13.55 25.094 25.327 25.094 25.327s39.844-31.19 36.796-50z" fill="#d57b84"/><path d="m177.376 263.849c-.443-9.933-8.634-17.851-18.676-17.851-7.96 0-14.753 4.976-17.451 11.985-2.698-7.009-9.492-11.985-17.451-11.985-9.864 0-17.938 7.64-18.642 17.324-3.316 19.263 28.099 50.526 35.425 50.526s39.843-31.189 36.795-49.999z" fill="#e8a284"/><path d="m177.376 263.849c-.443-9.933-8.634-17.851-18.676-17.851-3.244 0-7.868 4.379-10.526 5.833 10.912-3.587 15.982 2.965 16.336 10.808 1.618 9.859-11.105 23.165-20.521 31.793-5.072 4.648-11.707 4.453-17.19.299-4.933-3.737-9.705-7.551-13.752-13.303.957 3.151.942 4.163 2.439 7.094 10.505 13.55 25.095 25.327 25.095 25.327s39.843-31.19 36.795-50z" fill="#d57b84"/><path d="m467.524 120.208 8.354 23.49c.358 1.006 1.066 1.803 1.959 2.205l20.87 9.403c2.948 1.328 2.948 6.026 0 7.354l-20.87 9.403c-.894.403-1.602 1.199-1.959 2.205l-8.354 23.49c-1.18 3.319-5.354 3.319-6.534 0l-8.354-23.49c-.358-1.006-1.066-1.803-1.959-2.205l-20.87-9.403c-2.948-1.328-2.948-6.026 0-7.354l20.87-9.403c.894-.403 1.602-1.2 1.959-2.205l8.354-23.49c1.18-3.319 5.354-3.319 6.534 0z" fill="#fbf2aa"/><path d="m70.306 20.746 6.197 17.425c.265.746.791 1.337 1.453 1.636l15.481 6.975c2.187.985 2.187 4.47 0 5.455l-15.481 6.975c-.663.299-1.188.89-1.453 1.636l-6.197 17.425c-.875 2.462-3.972 2.462-4.847 0l-6.197-17.425c-.265-.746-.791-1.337-1.453-1.636l-15.481-6.975c-2.187-.985-2.187-4.47 0-5.455l15.481-6.975c.663-.299 1.188-.89 1.453-1.636l6.197-17.425c.875-2.462 3.971-2.462 4.847 0z" fill="#fbf2aa"/><g fill="#f7e16e"><ellipse cx="23.476" cy="126.805" rx="12.395" ry="12.395" transform="matrix(.123 -.993 .993 .123 -105.251 134.564)"/><path d="m399.732 94.546c0 5.317-4.31 9.627-9.627 9.627s-9.627-4.31-9.627-9.627 4.31-9.627 9.627-9.627 9.627 4.31 9.627 9.627z"/></g></g><g><g fill="#3c122c"><path d="m199.357 358.523c-.011 0-.021 0-.032 0-11.803-.014-22.627-8.11-28.247-21.127-2.604-6.03-2.006-13.14 1.56-18.556 3.008-4.568 7.633-7.187 12.692-7.187h.018l28.071.035c5.066.007 9.693 2.637 12.693 7.219 3.551 5.424 4.132 12.536 1.513 18.559-5.646 12.991-16.476 21.056-28.268 21.057zm-14.026-34.666c-1.204 0-2.083 1.061-2.499 1.694-.996 1.513-1.737 4.255-.549 7.008 3.661 8.479 10.197 13.752 17.058 13.76h.016c6.855 0 13.397-5.255 17.075-13.718 1.195-2.749.461-5.494-.531-7.009-.415-.635-1.292-1.699-2.497-1.7l-28.071-.035c-.001 0-.002 0-.002 0z"/><path d="m278.674 381.199c-20.691 0-37.525-14.224-37.525-31.706s16.834-31.706 37.525-31.706 37.525 14.223 37.525 31.706-16.833 31.706-37.525 31.706zm0-51.208c-13.962 0-25.321 8.748-25.321 19.502 0 10.753 11.359 19.502 25.321 19.502s25.321-8.749 25.321-19.502-11.358-19.502-25.321-19.502z"/><path d="m118.431 381.199c-20.692 0-37.525-14.224-37.525-31.706s16.834-31.706 37.525-31.706c20.692 0 37.525 14.223 37.525 31.706s-16.833 31.706-37.525 31.706zm0-51.208c-13.962 0-25.321 8.748-25.321 19.502 0 10.753 11.359 19.502 25.321 19.502s25.321-8.749 25.321-19.502-11.359-19.502-25.321-19.502z"/><path d="m258.988 319.95c-9.239 0-22.734-15.461-25.345-18.56-5.66-6.718-18.503-23.882-16.142-38.805 1.08-12.747 11.874-22.689 24.705-22.689 6.628 0 12.883 2.705 17.451 7.216 4.568-4.51 10.823-7.216 17.451-7.216 13.181 0 23.988 10.221 24.754 23.332 1.968 13.593-9.104 28.993-15.921 37.004-1.718 2.018-17.065 19.718-26.953 19.718zm-16.783-67.85c-6.565 0-12.081 5.124-12.556 11.665-.014.199-.039.396-.072.592-1.073 6.234 3.15 16.171 11.296 26.58 7.649 9.775 15.419 15.749 18.126 16.73 2.751-.964 10.757-6.913 18.774-16.692 8.357-10.194 12.95-20.215 11.988-26.152-.038-.233-.062-.468-.073-.704-.301-6.741-5.827-12.021-12.58-12.021-5.173 0-9.897 3.245-11.757 8.075-.907 2.356-3.171 3.91-5.695 3.91s-4.788-1.554-5.695-3.91c-1.858-4.828-6.583-8.073-11.756-8.073z"/><path d="m438.98 399.246c4.37-3.692 9.268-8.606 13.813-14.903 10.942-15.161 22.104-41.663 13.138-81.82-8.865-39.703-28.452-60.167-43.322-70.343-8.797-6.02-16.974-9.269-22.892-11.008-.589-14.57-4.514-43.214-25.46-56.246-2.928-1.822-6.047-3.248-9.343-4.298-.335-10.337-2.627-19.589-4.504-25.55-1.972-6.264-9.309-27.014-20.917-31.008-11.608-3.999-30.16 7.846-35.57 11.57-.112.077-.235.166-.349.245-5.382-12.169-12.653-20.972-21.763-26.288-13.332-7.78-29.483-7.558-48.137.553-2.352-5.047-5.666-9.765-10.322-13.816-6.198-20.548-15.417-42.906-28.134-68.22-2.675-5.916-9.104-9.184-15.5-7.799-6.329 1.37-10.809 6.907-10.886 13.318-1.731 25.457-1.162 43.593 1.852 58.09-5.446 15.46-4.409 30.596 3.097 45.039.309.594.683 1.127 1.084 1.632-.019.098-.034.195-.053.293-1.341-.056-2.681-.068-4.019-.024-8.154-8.614-17.629-14.503-23.818-17.778-5.755-3.046-25.387-12.57-36.385-7.292-10.996 5.281-15.837 26.559-17.058 32.955-1.996 10.45-4.092 30.591 4.299 48.067 1.196 2.491 2.495 4.846 3.879 7.082-2.408 1.937-4.944 3.697-7.608 5.235-6.216 3.589-9.541 10.243-8.677 17.367.604 4.981 3.145 9.246 6.972 12.049-.94 2.125-1.804 4.243-2.566 6.337-7.734 21.27-12.228 48.201-13.67 57.772-25.062 25.275-33.748 59.786-22.64 90.89 8.758 24.522 25.757 43.398 50.525 56.102 16.153 8.285 38.558 12.072 55.822 12.888-5.977 18.405-9.762 40.215-12.723 59.984-.832 5.554 2.996 10.732 8.551 11.564 5.55.835 10.733-2.996 11.564-8.551 3.58-23.899 8.362-50.796 16.675-69.085 1.496-3.291 1.133-7.128-.954-10.08-2.087-2.951-5.586-4.577-9.185-4.261-14.295 1.246-43.264-1.735-60.467-10.559-20.014-10.266-33.692-25.354-40.653-44.845-8.724-24.428-1.049-51.931 20.03-71.774 1.702-1.602 2.8-3.743 3.11-6.059.021-.159 1.064-7.835 3.088-18.384.969 12.336 10.23 25.191 16.256 32.343 1.666 1.977 16.534 19.318 25.419 19.318 9.521 0 26.404-19.71 27.118-20.549 8.208-9.644 17.557-23.708 15.757-36.172-.765-13.113-11.572-23.333-24.755-23.333-6.628 0-12.883 2.705-17.451 7.216-4.569-4.51-10.823-7.216-17.451-7.216-9.092 0-17.158 4.996-21.473 12.442 1.831-7.653 4.04-15.599 6.623-22.703.566-1.555 1.475-3.854 2.77-6.658 22.353 6.142 37.776 9.381 45.933 9.641.779.025 1.553.037 2.327.037 23.26-.001 44.526-11.138 57.235-30.1.242-.361.462-.732.695-1.097 1.696-.246 3.376-.523 5.004-.865 16.394-3.437 35.114-12.679 34.41-27.453-.205-2.276-.341-4.569-.533-6.811 7.492.152 14.926 1.197 22.124 3.135 5.34 1.441 10.851-1.656 12.404-6.964.305-1.042.573-1.893.844-2.678 6.707-19.491 31.852-34.369 40.565-36.084 5.814 6.713 16.479 33.914 9.772 53.405-2.412 7.01-5.769 12.736-9.978 17.019-3.39 3.449-3.882 8.808-1.177 12.817 10.253 15.197 15.681 32.958 15.699 51.371l-1.089 59.052c-.001.063-.001.125-.001.188 0 26.48-2.786 45.672-9.315 64.172-1.433 4.06-.154 8.581 3.192 11.29 27.911 22.59 50.741 62.178 64.283 111.471 1.24 4.515 5.335 7.478 9.8 7.478.892 0 1.799-.118 2.7-.366 1.84-.505 3.413-1.492 4.642-2.777 8.113-5.67 38.873-29.384 38.873-63.037.001-22.795-11.445-37.881-21.146-46.573zm-327.811-134.889c.034-.196.058-.394.072-.592.475-6.541 5.991-11.665 12.556-11.665 5.173 0 9.897 3.245 11.757 8.075.907 2.356 3.171 3.91 5.695 3.91s4.788-1.554 5.695-3.91c1.859-4.83 6.584-8.075 11.757-8.075 6.754 0 12.28 5.28 12.58 12.02.01.236.035.471.072.704 2.199 13.569-23.316 39.313-30.756 42.722-7.341-3.456-31.864-29.042-29.428-43.189zm90.227-189.979-10.072-3.406c-.052-.293-.105-.586-.166-.878-2.111-8.751-2.862-19.146-2.943-29.323 5.284 11.882 9.654 23.028 13.181 33.607zm-12.833 8.544 18.472 6.246c.457.482.947.932 1.483 1.324 6.815 4.969 9.893 13.024 10.218 27.169l-26.292-8.797c-.167-.501-.363-.997-.614-1.48-4.2-8.081-5.272-15.992-3.267-24.462zm-68.962 29.433c5.348.449 17.166 4.964 27.582 12.542-6.607 3.476-12.567 8.348-17.36 14.536-3.328 4.296-5.977 9.018-7.873 14.034-1.602 4.235-3.602 8.249-5.935 11.999-8.526-18.28-1.305-45.831 3.586-53.111zm87.473 83.406c-10.773 16.076-29.124 25.296-49.036 24.66-8.466-.27-28.576-4.901-56.627-13.04-3.192-.926-3.77-3.717-3.871-4.55-.1-.831-.206-3.673 2.664-5.33 14.967-8.642 26.743-22.747 33.16-39.716 1.467-3.881 3.522-7.541 6.107-10.878 8.095-10.453 20.476-16.09 33.037-16.09 6.987 0 14.031 1.745 20.421 5.376 10.26 5.83 17.395 15.327 20.09 26.74 2.659 11.258.492 23.223-5.945 32.828zm17.054-8.004c1.484-5.054 2.216-10.309 2.187-15.588l17.384 5.123c-2.877 3.729-9.903 7.882-19.571 10.465zm.456-28.821c-3.69-14.218-12.741-26.035-25.624-33.356-3.559-2.023-7.276-3.589-11.075-4.721.233-.137.471-.27.691-.421l41.822 13.994c.455.152.915.229 1.374.272 6.947 8.066 11.099 17.984 12.588 30.06zm50.539-11.156c-6.656-1.211-13.427-1.822-20.224-1.822h-2.61c-3.043-8.134-7.482-15.319-13.319-21.488.062-.424.108-.853.116-1.293.079-4.132.018-8.521-.389-12.973 13.758-6.692 24.79-7.744 32.852-3.046 7.267 4.234 12.302 12.777 15.758 22.818-4.601 5.003-8.996 10.965-12.184 17.804zm144.167 336.487c-10.868-33.744-29.612-74.22-61.261-102.434 5.757-18.709 8.256-38.367 8.262-64.149l1.089-59.056c.001-.062.002-.125.002-.187 0-19.912-5.187-39.21-15.065-56.269 3.867-5.292 7.021-11.456 9.414-18.411.251-.728.479-1.459.697-2.192.357.192.708.394 1.054.608 14.793 9.166 16.505 36.713 15.918 46.536-.348 5.484 3.642 10.244 9.113 10.76 1.779.198 43.738 5.547 57.568 67.483 13.691 61.319-27.444 82.108-29.143 82.935-3.545 1.667-5.844 5.209-5.868 9.126s2.176 7.486 5.699 9.198c.94.471 23.02 11.83 23.02 37.604-.002 16.206-11.434 30.029-20.499 38.448z"/></g><path d="m149.586 177.844c-1.511 0-3.044-.338-4.491-1.051-5.037-2.484-7.108-8.581-4.623-13.619 9.146-18.547 24.33-23.25 26.031-23.726 0 0 9.883-3.458 13.099 6.504s-7.452 13.035-7.452 13.035c-.336.108-8.296 2.761-13.435 13.183-1.771 3.59-5.379 5.673-9.129 5.674z" fill="#fff"/></g></g></svg>