<svg id="Capa_1" enable-background="new 0 0 512 512" height="512" viewBox="0 0 512 512" width="512" xmlns="http://www.w3.org/2000/svg"><g><g><g><path d="m7.889 428.527 205.753-411.225h85.63l204.839 409.398z" fill="#c2b2eb"/><ellipse cx="245.483" cy="448.766" fill="#9781dd" rx="49.965" ry="143.296" transform="matrix(.006 -1 1 .006 -204.617 691.795)"/><path d="m157.37 202.981c9.192-3.558 16.657-10.359 21.518-18.933 1.381-2.435 3.148-4.717 5.307-6.759 10.311-9.752 26.463-10.458 37.578-1.634 13.257 10.525 14.578 29.869 3.316 42.086-9.696 10.519-23.138 13.444-34.811 11.245-6.801-1.281-21.906-7.937-33.333-13.27-5.53-2.581-5.268-10.532.425-12.735z" fill="#faf1a9"/><path d="m221.773 175.656c-11.115-8.825-27.267-8.118-37.578 1.634-2.159 2.042-3.926 4.324-5.307 6.759-4.862 8.574-12.327 15.374-21.518 18.932-5.693 2.204-5.955 10.154-.424 12.736 11.426 5.334 26.532 11.989 33.333 13.27 11.673 2.198 25.115-.727 34.811-11.246 11.261-12.217 9.94-31.56-3.317-42.085zm-2.887 27.187c-5.385 8.785-14.597 12.653-23.307 12.632-5.074-.011-16.915-2.755-25.917-5.043-4.358-1.108-5.36-6.811-1.603-9.137 6.066-3.755 10.406-9.594 12.613-16.352.626-1.92 1.554-3.781 2.798-5.523 5.942-8.32 17.432-10.965 26.732-6.146 11.094 5.748 14.94 19.365 8.684 29.569z" fill="#dfb5a7"/><path d="m262.284 190.524c-.02-.274-.053-.549-.113-.826-.384-10.679-3.629-19.925-11.051-27.079-.185-11.95-3.356-21.251-10.924-26.769-3.822-13.211-9.748-27.306-17.148-42.018-.926-2.268-4.309-1.536-4.214.912-.91 13.244-.968 25.549 1.364 35.213-3.199 7.864-3.25 15.791.923 23.822-2.586 7.954-2.7 16.217.965 24.899-3.871 8.358-.978 15.994.067 19.611 4.294 12.139 41.023 4.378 40.131-7.765z" fill="#e8c2d8"/><path d="m378.693 397.43c-1.032-30.453-16.097-71.672-53.433-94.922 1.073-6.72 1.636-14.335 1.636-23.581l.656-35.587c0-12.735-3.868-24.567-10.492-34.385 3.04-3.093 5.61-7.265 7.425-12.538 5.526-16.058-4.584-38.448-9.585-40.169s-26.747 9.707-32.273 25.766c-.218.634-.412 1.261-.594 1.883-5.114-1.377-10.49-2.115-16.039-2.115h-37.989c-2.837 0-5.562.216-8.181.613-.389-3.49-1.461-7.219-3.325-11.101-7.275-15.15-29.961-23.886-34.679-21.621-4.718 2.266-12.085 25.432-4.81 40.583 2.407 5.013 5.441 8.838 8.814 11.533-6.691 7.585-11.124 15.888-13.393 22.128-5.477 15.061-8.215 35.598-8.215 35.598-14.835 13.965-19.555 33.074-13.619 49.697 4.898 13.714 14.565 23.769 27.429 30.367 8.464 4.341 20.873 6.597 30.793 7.09-4.704 9.548-12.054 21.801-19.554 23.78-6.31 1.666-33.077-10.246-37.886 8.088-4.189 15.972 14.428 24.258 35.073 24.98l-4.054 21.82c-2.594 13.964 3.027 27.255 12.555 29.684l2.372.605c9.528 2.43 19.356-6.921 21.951-20.885l6.322-34.027c.416-2.238.618-4.457.63-6.619 1.471-1.04 2.9-2.189 4.285-3.465-2.434 17.24-4.054 34.828 5.273 52.868 12.977 25.1 47.059 28.304 86.267 22.538 39.436-5.797 58.093-25.726 56.64-68.606z" fill="#c1e5ef"/><path d="m219.598 433.005.872-4.694c.422-2.272-.492-4.433-2.042-4.829l-31.265-7.972c-1.55-.395-3.148 1.126-3.57 3.397l-.872 4.694c-2.773 14.924 3.234 29.128 13.418 31.725 10.183 2.597 20.686-7.396 23.459-22.321z" fill="#f6e06e"/><path d="m374.839 371.883c-5.578 5.142-11.476 9.941-16.839 15.313-.364 31.459-15.533 46.357-46.01 50.839-31.822 4.679-59.484 2.079-70.016-18.293-8.408-16.263-5.856-32.076-3.611-47.549l-6.057 5.772c-2.768 21.277-8.142 43.054 3.48 65.535 12.977 25.1 47.059 28.304 86.267 22.537 39.437-5.798 58.094-25.728 56.641-68.61-.271-7.948-1.524-16.637-3.855-25.544z" fill="#a6aaed"/><path d="m360.415 352.63c0 19.728-25.361 31.044-25.361 31.044s-41.02 3.975-50.897-16.718c-9.876-20.693-.5-38.683-.5-38.683s-19.325-10.691-24.481-24.481c-8.005-21.409-5.967-30.068-1.042-40.622 0 0-31.662-9.85-18.294-43.624 0 0 .178-23.425-21.812-33.773-11.961-5.629 67.546-40.809 114.688 60.51 26.324 56.577 27.699 106.347 27.699 106.347z" fill="#a6aaed"/><path d="m374.538 328.498s30.46-17.461 20.976-59.937-47.457-42.519-47.457-42.519 3.729-58.791-51.248-27.239c0 0 3.506-78.987-49.01-46.165l-29.793 24.642 31.898 13.753 4.888 47.049 24.441 15.886-.611 49.493 24.441 26.884 1.116 13.575c-1.957 7.602-2.411 16.462 1.575 24.814.174.365.36.722.552 1.074l.423 5.142 5.099 1.611c11.345 9.91 31.302 12.085 39.775 12.561l5.802 1.832s26.998-14.946 26.998-34.675c-.001-19.729-9.865-27.781-9.865-27.781z" fill="#faf1a9"/><path d="m369.439 326.374s29.646-23.61 25.596-49.934c-3.898-25.338-12.344-32.485-17.542-38.332 15.593 72.117-90.308 106.55-99.404 35.084-.028-.219-9.745 24.039 12.344 46.129 5.687 5.687 13.495 9.807 12.994 11.695-8.446 31.835 5.964 44.365 4.548 44.18 13.155 14.59 35.084 14.293 49.98 11.152 0 0 23.9-12.038 23.9-31.767 0-19.73-12.416-28.207-12.416-28.207z" fill="#dfb5a7"/><path d="m178.828 402.884c-17.326-2.292-31.112-10.376-27.449-24.345 3.981-15.18 23.014-9.627 33.027-8.211-1.827 10.86-3.277 21.785-5.578 32.556z" fill="#f6e06e"/></g><g fill="#3c122c"><path d="m381.541 425.52c2.245-8.242 3.313-17.615 3.204-28.153-.081-7.772-1.092-16.024-3.063-24.411 3.63-5.101 6.225-11.236 6.225-18.376 0-12.978-4.105-21.734-7.665-26.886 3.082-2.624 6.943-6.496 10.468-11.723 6.641-9.847 13.43-26.631 8.062-50.676-5.42-24.278-19.557-35.789-30.462-41.172-6.434-3.176-12.508-4.623-16.775-5.282-.434-8.915-2.957-25.551-15.261-33.206-1.777-1.105-3.671-1.967-5.672-2.601-.191-6.228-1.558-11.805-2.688-15.395-1.184-3.761-5.588-16.22-12.543-18.613-4.731-1.625-13.42 1.375-21.625 7.114-2.922-6.563-7.103-12.332-13.09-15.827-8.019-4.68-17.737-4.535-28.966.361-1.416-3.06-3.423-5.918-6.248-8.37-3.729-12.368-9.258-25.811-16.912-41.046-1.595-3.529-5.433-5.481-9.25-4.656-3.779.818-6.453 4.123-6.499 7.95-1.042 15.324-.699 26.234 1.117 34.954-2.991 8.479-2.724 16.792.772 24.778-.315 1.178-.573 2.354-.785 3.528-4.909-5.19-10.624-8.736-14.352-10.71-3.456-1.828-15.242-7.55-21.831-4.384-8.194 3.935-14.968 28.042-9.053 45.209-3.778 4.185-8.377 7.437-13.464 9.406-4.932 1.909-8.107 6.378-8.285 11.663-.175 5.207 2.763 9.997 7.486 12.201 3.26 1.522 6.312 2.914 9.174 4.189-3.631 11.737-5.785 24.725-6.539 29.729-15.074 15.19-20.298 35.934-13.621 54.631 5.264 14.738 15.481 26.082 30.366 33.717 5.762 2.955 14.821 4.879 23.973 6.031-.696 1.201-1.37 2.414-2.034 3.617-2.647 4.797-5.38 9.753-8.809 11.737-1.291.068-4.567-.469-6.998-.873-2.047-.341-4.445-.737-7.007-1.02l1.781-6.601c.871-3.227-1.039-6.55-4.267-7.421-3.229-.865-6.549 1.04-7.42 4.266l-2.689 9.966c-6.588 1.281-12.449 4.985-14.77 13.832-1.897 7.232-.395 13.985 4.342 19.529.347.406.725.796 1.105 1.185l-1.98 7.338c-2.246.678-4.464 1.37-6.602 2.103-29.739 10.188-46.165 24.675-46.253 40.792v.001c-.088 16.118 16.18 30.783 45.805 41.296 27.636 9.805 64.299 15.323 103.235 15.535.777.004 1.552.006 2.328.006 38.07 0 73.883-5.101 101.07-14.413 29.739-10.189 46.165-24.676 46.253-40.793.046-8.561-4.542-16.716-13.288-24.056zm-70.194-264.797c2.49 2.841 6.467 11.945 7.115 21.208-5.516.532-11.598 2.291-18.232 5.295-.264-5.32-.937-12.082-2.513-18.911 5.249-4.269 10.85-7.062 13.63-7.592zm-62.617-4.82c11.138-6.902 19.823-8.63 25.817-5.139 12.525 7.298 14.113 35.735 13.668 46.071-.098 2.206 1.013 4.29 2.898 5.438 1.886 1.151 4.246 1.179 6.161.081 10.186-5.845 24.107-11.71 32.588-6.452 8.929 5.532 9.963 22.138 9.608 28.059-.105 1.665.495 3.299 1.634 4.518 1.14 1.218 2.744 1.912 4.413 1.918 1.35.005 33.182.539 41.443 37.537 8.341 37.355-17.47 52.881-18.547 53.509-1.755.999-2.93 2.781-3.076 4.795-.146 2.015.689 3.942 2.281 5.184.334.277 8.185 6.963 8.185 23.159 0 .01.001.019.001.029 0 .007-.002.014-.002.021-.024 7.984-5.753 14.478-11.328 18.91-5.534 4.4-12.519 6.563-19.585 6.308-12.45-.448-28.976-3.379-33.831-13.55-8.378-17.554-.903-32.673-.596-33.278 1.516-2.908.434-6.496-2.431-8.09-4.84-2.691-18.179-11.765-21.747-21.308-7.655-20.474-6.763-32.493 3.532-47.635 1.503-2.213 1.395-5.203-.41-7.339-1.115-1.319-2.782-2.038-4.507-2.119-4.779-.225-17.894-2.422-23.511-9.996-2.808-3.786-3.574-8.599-2.339-14.664.385-.6.674-1.275.83-2.013.163-.774 3.866-19.117-6.582-32.433-5.63-7.175-14.038-11.385-25.032-12.548 3.921-4.742 12.012-12.321 20.465-18.973zm-17.32-27.62-5.803-1.962c-.93-4.86-1.27-10.367-1.301-15.759 2.776 6.219 5.132 12.103 7.104 17.721zm-7.32 10.301 14.919 5.046c.195.066.392.102.588.147.566.822 1.045 1.747 1.454 2.767-.986.784-3.438 2.756-6.474 5.357l-9.068-3.035c-1.39-3.396-1.86-6.773-1.419-10.282zm-3.847 27.06c-.126.144-.242.284-.364.426-.104-.196-.202-.398-.309-.592.223.063.448.114.673.166zm-60.737 44.589c-.158-.074-.527-.246-.508-.826.02-.574.396-.72.557-.782 5.588-2.163 10.718-5.46 15.158-9.62.462.602.93 1.196 1.419 1.758-3.182 4.2-5.979 8.764-8.2 13.325-2.545-1.137-5.342-2.415-8.426-3.855zm30.745 166.285c.606-.168 1.191-.385 1.754-.671 6.923-3.516 10.841-10.618 14.298-16.884 1.952-3.537 3.795-6.879 5.853-9.077l.464-.495c6.358-6.805 13.567-14.518 28.449-11.54 3.274.648 6.466-1.47 7.121-4.748.656-3.277-1.47-6.466-4.747-7.122-18.851-3.77-29.917 5.125-36.938 12.277-10.402-.866-21.642-2.703-27.213-5.561-12.057-6.184-20.297-15.274-24.492-27.017-5.258-14.723-.634-31.296 12.068-43.255 1.013-.953 1.666-2.227 1.85-3.605.027-.199 2.723-20.081 7.904-34.329 1.174-3.23 4.718-11.662 12.244-20.195 1.096-1.242 1.635-2.879 1.491-4.529s-.958-3.169-2.252-4.202c-2.81-2.245-5.211-5.416-7.136-9.423-5.314-11.066-.883-27.892 2.092-32.262 5.272.411 21.172 7.473 26.485 18.538 1.51 3.144 2.44 6.224 2.766 9.152.182 1.637 1.024 3.128 2.331 4.131 1.306 1.003 2.964 1.427 4.594 1.182.926-.141 1.864-.246 2.806-.332.475.062.967.11 1.498.128 9.361.308 16.156 3.056 20.196 8.166 5.48 6.934 5.017 16.796 4.554 20.774-.22.413-.4.853-.523 1.326-.878 3.38-1.337 6.597-1.389 9.649-.105.447-.174.908-.174 1.388v42.074c0 3.342 2.71 6.052 6.052 6.052s6.053-2.71 6.053-6.052v-19.879c5.363 3.821 11.599 5.921 16.655 7.073-7.924 15.345-7.742 29.95-.016 50.612 4.236 11.327 16.072 20.454 22.666 24.841-2.475 7.583-5.296 22.429 2.522 38.809 8.601 18.021 34.855 20.475 48.526 20.475 4.719 0 7.942-.293 8.416-.339.65-.063 1.285-.23 1.882-.496.522-.233 6.24-2.84 12.457-7.692.755 4.8 1.177 9.512 1.224 14.034.381 36.87-14.345 55.501-47.748 60.413-46.805 6.886-74.196 1.262-83.732-17.183-8.022-15.516-6.228-30.692-4.328-46.759.149-1.258.299-2.527.444-3.803.041-.172.099-.337.126-.515.318-2.122.512-4.353.606-6.646.62-1.338 1.219-2.728 1.794-4.188 1.223-3.11-.306-6.624-3.416-7.847-3.11-1.228-6.625.304-7.848 3.416-6.15 15.631-13.968 20.992-33.463 22.946-2.999.298-5.991.391-8.909.309zm3.315 34.777.324-1.747c.797-.057 1.59-.099 2.393-.18 11.846-1.187 20.716-3.823 27.605-8.598-.172 1.707-.325 3.42-.451 5.14-4.135 1.908-7.026 6.076-9.035 10.697zm17.4 16.928c-.435 2.28-.692 4.219-.833 5.491-.757 6.076-3.035 10.813-6.252 12.997-2.072 1.407-4.457 1.732-7.295.994-.204-.053-.412-.096-.62-.127-6.369-1.982-6.888-12.124-5.364-20.331l.748-4.026zm-53.733-48.148c1.633-6.227 7.698-6.313 20.676-4.155.042.007.083.014.125.021l-3.912 20.227c-6.7-1.517-12.16-4.113-15.053-7.498-2.135-2.5-2.718-5.231-1.836-8.595zm187.42 98.849c-26.491 9.074-61.819 13.947-99.41 13.754-80.878-.442-137.115-23.892-137.002-44.661.056-10.11 13.864-20.92 36.99-29.028l-7.285 26.995c-.871 3.227 1.039 6.55 4.267 7.421.528.142 1.058.211 1.58.211 2.668 0 5.111-1.778 5.84-4.477l9.267-34.339c7.101-1.906 14.674-3.55 22.618-4.924l-2.816 15.16c-3.352 18.044 2.253 31.215 14.628 34.371.233.06.469.105.707.137 1.819.434 3.611.65 5.359.65 4.064 0 7.893-1.167 11.284-3.469 6.189-4.2 10.26-11.842 11.475-21.596.333-3.002.978-6.145 1.77-8.964.982 6.581 2.949 13.279 6.484 20.116 9.164 17.725 29.188 26.494 60.846 26.492 10.508 0 22.303-.966 35.4-2.892 24.689-3.631 41.37-14.246 50.308-32.175 3.773 3.932 5.783 7.934 5.762 11.81-.056 10.266-14.29 21.26-38.072 29.408z"/><path d="m196.855 216.306c-3.342 0-6.052 2.71-6.052 6.052v42.073c0 3.342 2.71 6.052 6.052 6.052s6.052-2.71 6.052-6.052v-42.073c0-3.342-2.71-6.052-6.052-6.052z"/><path d="m225.211 197.072c-3.342 0-6.052 2.71-6.052 6.052v59.967c0 3.342 2.71 6.052 6.052 6.052s6.052-2.71 6.052-6.052v-59.967c0-3.343-2.71-6.052-6.052-6.052z"/><path d="m501.919 432.407c-3.697 0-7.256-2.039-9.025-5.569l-203.023-405.015c-2.497-4.98-.484-11.042 4.497-13.538 4.982-2.497 11.042-.484 13.538 4.497l203.023 405.016c2.497 4.98.484 11.042-4.497 13.538-1.452.726-2.995 1.071-4.513 1.071z"/><path d="m10.081 434.215c-1.519 0-3.062-.344-4.513-1.072-4.98-2.496-6.993-8.557-4.497-13.538l203.929-406.823c2.497-4.98 8.556-6.998 13.538-4.497 4.98 2.496 6.993 8.557 4.497 13.538l-203.928 406.823c-1.77 3.53-5.329 5.569-9.026 5.569z"/></g><path d="m472.429 90.431 8.286 23.299c.355.998 1.057 1.788 1.943 2.187l20.7 9.326c2.924 1.317 2.924 5.977 0 7.294l-20.7 9.326c-.886.399-1.589 1.19-1.943 2.187l-8.286 23.299c-1.171 3.292-5.31 3.292-6.481 0l-8.286-23.299c-.355-.998-1.057-1.788-1.943-2.187l-20.7-9.326c-2.924-1.318-2.924-5.977 0-7.294l20.7-9.326c.886-.399 1.589-1.19 1.943-2.187l8.286-23.299c1.17-3.291 5.31-3.291 6.481 0z" fill="#e8c2d8"/><path d="m96.801 37.111 6.146 17.283c.263.74.784 1.326 1.441 1.623l15.355 6.918c2.169.977 2.169 4.434 0 5.411l-15.355 6.918c-.657.296-1.178.882-1.441 1.623l-6.146 17.283c-.868 2.442-3.939 2.442-4.808 0l-6.146-17.283c-.263-.74-.784-1.326-1.442-1.623l-15.355-6.918c-2.169-.977-2.169-4.434 0-5.411l15.355-6.918c.658-.296 1.178-.882 1.442-1.623l6.146-17.283c.869-2.442 3.94-2.442 4.808 0z" fill="#e8c2d8"/><g fill="#d789b9"><circle cx="47.946" cy="146.978" r="12.294"/><path d="m406.676 73.71c0 5.273-4.275 9.548-9.548 9.548s-9.548-4.275-9.548-9.548 4.275-9.548 9.548-9.548 9.548 4.275 9.548 9.548z"/></g></g></g></svg>