<svg id="Capa_1" enable-background="new 0 0 512 512" height="512" viewBox="0 0 512 512" width="512" xmlns="http://www.w3.org/2000/svg"><g><g><path d="m79.807 501.742s-36.639-17.191-41.074-48.53c-4.435-31.338 20.356-48.432 20.356-48.432s-50.168-16.059-45.06-85.606c5.107-69.547 51.592-80.79 51.592-80.79s-18.977-92.574 73.071-54.475c0 0-23.174-124.705 65.358-84.05l23.893 223.053z" fill="#e8a284"/><path d="m58.948 403.061s-53.922-16.15-48.745-88.922c.931-13.087 11.214-31.663 14.485-41.122-4.836 103.917 70.781 140.782 137.806 75.548 3.597-3.501 19.658 31.305 24.402 29.946l-105.283 125.653s-39.405-17.506-44.303-50.212c-4.898-32.705 21.638-50.891 21.638-50.891z" fill="#d57b84"/><path d="m82.193 501.641c15.144-40.782 39.048-72.655 66.747-93.524l.01.239c-11.222-15.902-19.974-34.003-28.123-62.856l-17.273-57.109c-5.803-20.544-4.954-41.393 1.259-60.25-6.313-3.605-12.361-9.162-17.69-16.842-16.231-23.389-10.123-64.113-2.84-69.167 7.283-5.055 47.57 3.472 63.802 26.86.641.924 1.239 1.847 1.816 2.768 7.623-4.551 15.959-8.192 24.91-10.72l61.283-17.309c4.577-1.293 9.071-2.186 13.477-2.738-.964-5.808-.933-12.312.306-19.423 4.833-27.755 37.45-52.183 46.092-50.678 8.643 1.505 31.082 35.52 26.249 63.275-1.599 9.183-4.75 16.735-8.964 22.62 14.249 9.188 25.184 20.563 31.688 29.596 15.697 21.8 29.471 53.682 29.471 53.682 30.295 15.77 46.616 44.447 44.613 73.964-1.653 24.355-12.666 44.98-30.411 61.486-15.597 14.507-44.25 26.22-60.857 29.389l-2.55 1.229c9.719 32.267 15.939 73.863 15.893 95.508" fill="#efc5b4"/><path d="m374.414 240.066s-13.775-31.882-29.471-53.683c-6.505-9.033-17.439-20.408-31.688-29.596 4.214-5.885 7.365-13.437 8.964-22.62 4.833-27.755-17.607-61.77-26.249-63.275-3.855-.671-12.479 3.826-21.28 11.466.633-.058 1.194-.039 1.668.067 7.744 1.724 26.582 33.4 21.045 58.27-1.832 8.229-4.997 14.919-9.052 20.057 12.485 8.901 21.884 19.638 27.379 28.073 13.261 20.357 24.361 49.739 24.361 49.739 26.704 15.525 40.239 42.119 37.184 68.701-2.52 21.933-13.339 40.101-30.067 54.264-9.695 8.208-22.519 18.61-35.583 23.565-10.125 3.841-19.426 9.763-18.125 20.827 1.485 12.627 1.943 34.708 3.08 48.752 1.052 12.995-9.545 23.956-22.568 23.348l-180.604-.448c-6.747 11.465-6.205 10.575-11.215 24.066h258.909c.046-21.645-6.174-63.242-15.893-95.508l2.55-1.229c16.607-3.169 45.259-14.882 60.857-29.389 17.745-16.505 28.759-37.13 30.411-61.485 2.003-29.516-14.318-58.192-44.613-73.962z" fill="#d994b3"/><path d="m188.231 187.609c-.097-.449-.175-.907-.209-1.382-4.431-17.356-3.583-33.76 4.97-48.773-5.352-19.306-4.649-35.763 4.913-48.216-.099-23.054 2.769-48.523 7.713-75.682.416-4.085 6.204-4.507 7.208-.526 7.725 20.87 13.636 40.631 14.454 57.276 8.862 11.135 12.693 23.86 9.778 38.747 7.919 11.569 12.009 24.805 10.22 40.5 10.177 11.612 9.134 25.26 9.163 31.571-1.166 21.553-63.904 26.435-68.21 6.485z" fill="#f6e06e"/><path d="m188.231 187.609c-.097-.449-.175-.907-.209-1.382-3.147-12.326-3.612-24.168-.565-35.376.35 3.315.957 6.672 1.821 10.073.027.406.092.797.174 1.181 3.635 17.033 58.762 12.398 59.945-6.046.004-1.042.044-2.32.044-3.772 7.852 10.951 6.974 23.016 7.001 28.838-1.167 21.552-63.905 26.434-68.211 6.484z" fill="#dda86a"/><path d="m342.732 162.236c-16.057-3.891-29.958-13.55-39.924-26.729-2.831-3.743-6.27-7.147-10.306-10.065-19.28-13.937-46.277-11.559-62.806 5.551-19.714 20.407-17.656 52.842 3.746 70.667 18.427 15.347 41.407 17.251 60.323 11.031 11.019-3.624 34.658-18.008 52.473-29.384 8.623-5.507 6.438-18.661-3.506-21.071z" fill="#e8a284"/><path d="m233.442 201.661c18.427 15.347 41.407 17.251 60.323 11.031 11.019-3.624 34.658-18.008 52.473-29.384 8.624-5.507 6.439-18.661-3.506-21.071-16.057-3.891-29.958-13.55-39.924-26.729-2.831-3.743-6.27-7.147-10.306-10.065-19.28-13.937-46.277-11.559-62.806 5.551-19.715 20.407-17.656 52.841 3.746 70.667zm14.957-77.169c14.396-10.054 34.072-8.186 45.776 4.333 2.451 2.621 4.401 5.511 5.864 8.563 5.153 10.744 13.65 19.492 24.556 24.398 6.754 3.039 6.343 12.737-.654 15.537-14.455 5.783-33.53 12.947-41.959 14.082-14.469 1.949-30.628-2.451-41.51-15.866-12.638-15.582-9.243-39.056 7.927-51.047z" fill="#d57b84"/><path d="m458.144 363.431c-2.782 2.782-4.338 6.791-3.786 11.146.75 5.924 5.534 10.706 11.458 11.455 7.809.988 14.486-4.802 14.993-12.285 2.724 2.19 6.322 3.336 10.193 2.806 5.808-.795 10.504-5.479 11.304-11.286.878-6.377-2.771-12.026-8.188-14.219 5.288-2.291 8.799-7.908 7.876-14.217-.861-5.883-5.719-10.552-11.628-11.211-8.032-.895-14.832 5.368-14.832 13.219l-19.307-14.37-18.484 23.427z" fill="#fff"/><path d="m473.46 122.849 8.426 23.691c.361 1.014 1.075 1.818 1.976 2.224l21.048 9.483c2.974 1.34 2.974 6.078 0 7.417l-21.048 9.483c-.901.406-1.615 1.21-1.976 2.224l-8.426 23.691c-1.19 3.347-5.4 3.347-6.59 0l-8.426-23.691c-.361-1.014-1.075-1.818-1.976-2.224l-21.049-9.483c-2.974-1.34-2.974-6.078 0-7.417l21.049-9.483c.901-.406 1.615-1.21 1.976-2.224l8.426-23.691c1.19-3.347 5.4-3.347 6.59 0z" fill="#fbf2aa"/><path d="m72.846 22.536 6.25 17.574c.268.752.797 1.349 1.466 1.65l15.613 7.035c2.206.994 2.206 4.508 0 5.502l-15.613 7.035c-.669.301-1.198.897-1.466 1.65l-6.25 17.574c-.883 2.483-4.005 2.483-4.888 0l-6.25-17.574c-.268-.752-.797-1.349-1.466-1.65l-15.613-7.035c-2.206-.994-2.206-4.508 0-5.502l15.613-7.035c.669-.301 1.198-.897 1.466-1.65l6.25-17.574c.882-2.483 4.005-2.483 4.888 0z" fill="#fbf2aa"/><g fill="#f7e16e"><circle cx="463.418" cy="48.428" r="12.501"/><path d="m387.715 85.385c0 5.362-4.347 9.709-9.709 9.709s-9.709-4.347-9.709-9.709 4.347-9.709 9.709-9.709 9.709 4.347 9.709 9.709z"/></g></g><g><g fill="#3c122c"><path d="m382.371 232.715c-3.84-8.488-14.711-31.554-27.288-49.743 2.268-3.584 3.176-7.927 2.433-12.381-1.19-7.138-6.3-12.631-13.336-14.336-5.477-1.327-10.767-3.445-15.738-6.245 1.705-4.359 3.006-9.061 3.88-14.084 3.354-19.261-4.201-38.235-9.003-47.831-2.939-5.873-13.47-25.197-25.591-27.308-12.109-2.104-28.564 12.517-33.315 17.051-4.493 4.287-10.909 11.229-16.172 20.041-.308-11.146-3.951-21.633-10.932-31.318-1.207-14.884-5.816-32.594-14.732-56.736-1.899-6.182-7.819-10.268-14.323-9.789-6.579.48-11.873 5.47-12.778 11.955-4.892 26.935-7.442 50.326-7.781 71.282-16.465-3.825-30.117-1.62-40.727 6.649-14.106 10.993-19.41 30.568-20.894 49.232-3.733-1.716-7.161-3.023-9.947-3.97-6.27-2.132-27.522-8.538-37.694-1.479-10.173 7.06-11.606 29.209-11.802 35.829-.074 2.488-.069 5.495.117 8.842-13.88 15.725-13.704 40.333-12.414 53.359-15.545 7.3-46.293 28.919-50.535 86.687-2.91 39.631 11.096 63.555 23.358 76.646 5.028 5.368 10.14 9.387 14.64 12.338-7.838 9.691-16.282 25.605-13.22 47.242 5.153 36.411 45.172 55.58 46.873 56.378 1.407.66 2.887.973 4.344.973.535 0 1.065-.052 1.59-.135.27.022.54.036.808.036 4.165 0 8.082-2.556 9.617-6.69 13.621-36.68 34.917-66.939 61.659-87.646 3.615-1.771 5.903-5.534 5.731-9.638l-.01-.239c-.107-2.549-1.153-4.918-2.867-6.694-10.873-15.789-18.581-33.347-25.623-58.282-.017-.061-.035-.122-.053-.182l-17.246-57.015c-5.03-17.875-4.631-36.602 1.154-54.163 1.527-4.632-.42-9.699-4.655-12.117-5.259-3.003-10.087-7.64-14.35-13.783-11.853-17.079-8.958-46.403-5.156-54.512 8.931-.725 37.412 6.824 49.263 23.9.481.693.974 1.445 1.552 2.368 2.962 4.727 9.161 6.22 13.949 3.361 7-4.179 14.55-7.428 22.441-9.656l1.764-.498c.27 5.446 1.128 11.074 2.579 16.873.045.383.124.789.202 1.197.016.11.034.219.055.328.006.028.008.053.014.081.001.005.001.01.003.015v.001.001c0 .001.001.001.001.003.014.064.033.125.048.189.017.069.033.138.053.207 3.061 12.697 19.317 17.062 34.622 17.061 2.198 0 4.377-.09 6.493-.258 1.68-.133 3.39-.323 5.109-.568.322.282.634.572.963.846 12.44 10.362 27.872 15.774 43.765 15.774 7.458 0 15.021-1.193 22.419-3.626 7.986-2.626 22.438-10.43 43.001-23.202 13.997 20.477 26.184 48.505 26.311 48.799.936 2.164 2.588 3.94 4.679 5.028 25.898 13.481 40.886 38.07 39.116 64.171-1.413 20.826-10.552 39.22-27.164 54.67-14.278 13.28-41.576 24.111-55.793 26.824-.876.167-1.727.448-2.531.835l-2.55 1.229c-4.546 2.192-6.823 7.365-5.367 12.198 9.73 32.301 15.5 72.411 15.458 92.528-.012 5.665 4.57 10.266 10.235 10.278 5.698.014 10.266-4.57 10.278-10.235.041-19.575-4.956-56.49-13.535-88.631 17.274-4.828 42.356-15.664 57.776-30.006 20.557-19.12 31.882-42.1 33.66-68.302 2.253-33.231-15.638-64.346-46.891-82.007zm-289.49-.279c-4.911 19.265-4.656 39.417.803 58.743.017.061.035.121.053.181l17.247 57.022c6.742 23.85 14.158 41.679 24.119 57.656-24.602 20.739-44.607 48.796-58.54 82.019-9.619-6.241-25.209-18.86-27.674-36.281-3.454-24.414 15.28-38.023 16.023-38.552 3.219-2.22 4.931-6.066 4.358-9.934s-3.26-7.064-6.985-8.256c-1.735-.583-42.443-14.975-38.027-75.108 4.45-60.594 42.257-71.174 43.774-71.572 5.369-1.299 8.746-6.617 7.637-12.029-.991-4.835-2.123-15.354-.792-25.55 1.122 2.176 2.388 4.311 3.82 6.374 4.23 6.093 8.98 11.21 14.184 15.287zm201.247-150.969c6.785 5.761 21.493 30.797 17.985 50.941-.225 1.295-.501 2.54-.799 3.762-1.25-1.401-2.451-2.86-3.597-4.374-3.261-4.314-7.167-8.129-11.61-11.341-9.374-6.776-20.365-10.122-31.33-10.202 7.971-14.581 22.875-26.355 29.351-28.786zm-82.584-39.868c2.816 9.871 5.047 20.143 5.492 29.21.002.045.01.087.013.132.013.209.037.417.063.626.006.046.008.093.014.139l-8.777 6.161c.403-11.24 1.46-23.268 3.195-36.268zm-5.504 53.886c.061-.079.11-.163.168-.242.114-.158.227-.316.332-.481.082-.128.157-.257.233-.387.092-.159.182-.319.266-.483.019-.038.042-.073.061-.111l16.096-11.298c4.35 7.625 5.562 15.586 3.797 24.599-.106.539-.154 1.075-.173 1.607l-22.938 15.991c-3.71-13.779-3.023-22.448 2.158-29.195zm-24.284 52.936-9.733 2.749c-6.597 1.863-13.002 4.313-19.13 7.312-2.072-2.403-4.308-4.595-6.631-6.602-.002-17.918 2.849-37.63 13.327-45.785 5.218-4.061 12.568-5.113 21.927-3.203-1.585 11.455 1.142 23.065 4.244 32.913.133.423.299.827.48 1.22-1.871 3.666-3.366 7.467-4.484 11.396zm14.36-3.541c.432-.172.855-.378 1.253-.656l36.486-25.436c.256.084.523.144.787.211-3.354 2.176-6.504 4.749-9.372 7.718-10.383 10.748-15.78 24.756-15.306 39.563l-17.477 11.264c-1.994-12.107-.798-22.883 3.629-32.664zm.573 44.599 15.365-9.902c1.473 5.116 3.677 9.993 6.55 14.462-10.094.251-18.072-1.77-21.915-4.56zm95.153 17.366c-19.104 6.283-39.464 2.576-54.461-9.913-8.96-7.462-14.46-18.424-15.091-30.074-.64-11.81 3.563-23.028 11.832-31.588 8.123-8.408 19.148-12.738 30.236-12.738 8.582 0 17.201 2.594 24.539 7.897 3.45 2.495 6.479 5.452 9.003 8.789 11.037 14.596 26.444 24.894 43.384 28.998v-.001c3.248.788 3.954 3.566 4.093 4.4.139.835.374 3.7-2.452 5.504-24.827 15.856-42.968 26.058-51.083 28.726z"/><path d="m211.747 277.067c-4.376 0-8.576-1.51-11.984-4.341-3.866-3.21-6.25-7.733-6.714-12.737-.313-3.384 2.176-6.382 5.561-6.695 3.389-.309 6.382 2.177 6.695 5.561.16 1.729.984 3.293 2.32 4.402s3.019 1.632 4.754 1.472c3.57-.331 6.205-3.505 5.874-7.075-.314-3.385 2.176-6.382 5.56-6.696 3.39-.303 6.382 2.176 6.696 5.56.957 10.328-6.666 19.509-16.994 20.466-.591.056-1.181.083-1.768.083z"/><path d="m323.173 265.218c-4.375 0-8.575-1.51-11.983-4.34-3.865-3.21-6.25-7.733-6.714-12.736-.314-3.385 2.176-6.382 5.56-6.696 3.386-.306 6.382 2.176 6.696 5.56.331 3.57 3.507 6.209 7.074 5.874 1.729-.16 3.293-.984 4.402-2.32 1.11-1.336 1.633-3.025 1.472-4.754-.313-3.385 2.176-6.382 5.56-6.696 3.385-.309 6.382 2.177 6.696 5.56.957 10.328-6.666 19.509-16.994 20.467-.591.054-1.182.081-1.769.081z"/><path d="m280.977 313.767c-3.399 0-6.154-2.756-6.154-6.154 0-12.959 9.918-23.503 22.109-23.503 6.69 0 12.947 3.165 17.165 8.683 2.064 2.7 1.548 6.562-1.152 8.627-2.699 2.064-6.562 1.549-8.627-1.152-1.87-2.446-4.562-3.849-7.386-3.849-5.404 0-9.801 5.022-9.801 11.194 0 3.399-2.755 6.154-6.154 6.154z"/></g><path d="m285.012 163.66c-2.768 0-5.527-1.113-7.549-3.311-7.953-8.64-16.451-8.934-16.566-8.934-5.646.094-10.318-4.452-10.395-10.117-.077-5.664 4.453-10.318 10.117-10.395 1.792-.012 17.812.207 31.937 15.553 3.836 4.168 3.568 10.657-.6 14.493-1.971 1.814-4.461 2.711-6.944 2.711z" fill="#fff"/><path d="m238.901 249.586c-.874 0-1.763-.187-2.607-.583l-15.739-7.374c-3.078-1.442-4.404-5.106-2.962-8.184 1.441-3.078 5.105-4.405 8.184-2.962l15.739 7.374c3.078 1.442 4.404 5.106 2.962 8.183-1.047 2.235-3.263 3.546-5.577 3.546z" fill="#3c122c"/><path d="m175.076 247.57c-1.733 0-3.456-.728-4.673-2.146l-6.799-7.921c-3.768-4.39-5.08-10.334-3.512-15.902l2.323-8.244c.921-3.271 4.318-5.175 7.592-4.254 3.271.921 5.176 4.321 4.254 7.592l-2.323 8.244c-.448 1.592-.073 3.292 1.005 4.548l6.798 7.921c2.214 2.579 1.918 6.464-.662 8.678-1.159.996-2.585 1.484-4.003 1.484z" fill="#d789b9"/><path d="m165.025 264.176c-1.651 0-3.297-.66-4.509-1.965-.111-.119-2.726-2.934-4.029-4.452l-5.172-6.026c-1.297-1.51-3.356-2.092-5.254-1.48l-7.557 2.439c-2.048.662-6.17 1.547-6.633 1.646-3.326.709-6.593-1.411-7.302-4.735s1.411-6.593 4.734-7.302c1.513-.323 4.323-.967 5.419-1.321l7.559-2.439c6.628-2.137 13.84-.107 18.374 5.177l5.171 6.025c1.145 1.334 3.68 4.063 3.705 4.09 2.314 2.49 2.171 6.383-.319 8.697-1.184 1.102-2.688 1.646-4.187 1.646z" fill="#d789b9"/><path d="m131.184 235.205c-2.599 0-5.014-1.659-5.855-4.266-1.044-3.234.732-6.703 3.966-7.747l9.621-3.105c1.574-.508 2.782-1.762 3.23-3.354l2.456-8.716c.922-3.271 4.32-5.178 7.593-4.254 3.271.921 5.176 4.321 4.254 7.592l-2.456 8.716c-1.569 5.567-5.792 9.951-11.296 11.729l-9.621 3.105c-.629.204-1.266.3-1.892.3z" fill="#d789b9"/><path d="m278.929 268.987c0 3.656-2.964 6.62-6.621 6.62-3.656 0-6.621-2.964-6.621-6.62s2.964-6.62 6.621-6.62c3.657-.001 6.621 2.963 6.621 6.62z" fill="#3c122c"/><path d="m297.963 265.677c0 3.656-2.964 6.62-6.621 6.62-3.656 0-6.62-2.964-6.62-6.62s2.964-6.621 6.62-6.621c3.657 0 6.621 2.964 6.621 6.621z" fill="#3c122c"/><path d="m504.07 350.918c3.255-4.123 4.813-9.512 4.014-14.978-1.274-8.701-8.279-15.461-17.037-16.437-5.527-.614-11.062 1.146-15.182 4.832-1.393 1.247-2.567 2.687-3.535 4.247l-2.88-2.43c-2.597-2.192-6.479-1.863-8.672.735-2.192 2.598-1.863 6.48.735 8.672l9.461 7.982c1.155.975 2.564 1.45 3.966 1.45.097 0 .193-.011.29-.016.102.005.202.016.304.016 3.399 0 6.154-2.755 6.154-6.154 0-2.031.869-3.975 2.385-5.331 1.536-1.375 3.532-2.006 5.611-1.772 3.149.351 5.765 2.868 6.221 5.985.555 3.798-1.726 6.593-4.233 7.68-2.276.986-3.737 3.241-3.707 5.721s1.546 4.7 3.844 5.63c3.044 1.232 4.853 4.388 4.401 7.674-.423 3.072-2.964 5.608-6.042 6.029-2 .272-3.954-.261-5.503-1.505-1.788-1.438-4.226-1.761-6.326-.84s-3.515 2.933-3.67 5.221c-.132 1.953-1.078 3.789-2.596 5.038-1.527 1.258-3.475 1.813-5.485 1.557-3.15-.398-5.726-2.974-6.125-6.123-.285-2.25.456-4.445 2.033-6.022.707-.708 1.181-1.551 1.471-2.44 1.618-2.712.924-6.256-1.685-8.137l-18.034-13.009c-2.757-1.988-6.602-1.365-8.592 1.391-1.988 2.757-1.366 6.603 1.391 8.592l13.289 9.585c-1.849 3.499-2.6 7.514-2.084 11.588 1.112 8.774 8.017 15.677 16.793 16.787.849.107 1.694.16 2.532.16 4.502 0 8.803-1.531 12.319-4.426 1.897-1.562 3.466-3.462 4.641-5.578 2.348.569 4.815.696 7.3.357 8.574-1.173 15.386-7.976 16.567-16.544.772-5.603-.908-11.073-4.334-15.187z" fill="#3c122c"/></g></g></svg>