<svg id="Capa_1" enable-background="new 0 0 512 512" height="512" viewBox="0 0 512 512" width="512" xmlns="http://www.w3.org/2000/svg"><g><g><path d="m396.967 501.562s36.069-22.953 36.069-55.743-28.691-46.726-28.691-46.726 50.503-23.755 34.74-94.353-66.456-75.383-66.456-75.383 6.197-97.714-85.178-45.273c0 0 5.827-131.283-81.459-76.729l8.09 232.27z" fill="#ccf3e2"/><path d="m403.007 399.67s50.503-23.755 34.74-94.353c-2.835-12.697-15.646-29.402-20.242-38.196 20.002 101.189-48.732 148.443-124.035 94.318-4.041-2.905-14.679 33.584-19.531 32.948l121.691 107.751s36.069-22.953 36.069-55.743c-.001-32.789-28.692-46.725-28.692-46.725z" fill="#b1b6e1"/><path d="m396.997 501.827c-11.974-43.585-33.516-89.022-67.692-116.682 6.423-18.198 9.895-37.828 9.895-67.556l1.091-59.148c0-21.167-6.428-40.832-17.438-57.151 5.052-5.141 9.325-12.074 12.341-20.838 9.185-26.691-7.619-63.904-15.93-66.764s-44.455 16.133-53.64 42.824c-.363 1.055-.684 2.096-.987 3.131-8.5-2.288-17.435-3.516-26.658-3.516h-63.141c-4.715 0-9.245.359-13.598 1.02-.646-5.802-2.428-12-5.526-18.451-12.092-25.181-49.798-39.7-57.638-35.935-7.841 3.766-20.085 42.27-7.994 67.451 4.001 8.332 9.042 14.689 14.649 19.168-11.12 12.607-18.488 26.408-22.26 36.78-9.102 25.032-13.654 59.166-13.654 59.166-24.658 23.213-32.503 54.974-22.637 82.6 8.141 22.794 24.208 39.506 45.589 50.473 18.792 9.639 49.289 13.094 65.989 11.642-9.281 20.417-14.182 49.808-17.475 71.786z" fill="#fff"/><path d="m329.305 385.145c6.423-18.198 9.895-37.828 9.895-67.556l1.091-59.148c0-21.167-6.428-40.832-17.438-57.151 5.052-5.141 9.325-12.074 12.341-20.838 9.185-26.691-7.619-63.904-15.93-66.764-3.922-1.35-5.042-.501-15.602 6.395 6.543 12.277 11.035 28.079 9.38 47.942-1.042 12.507-17.216 25.739-21.446 30.631 9.219 15.526 16.276 67.756 16.276 87.895l-.276 15.017c0 20.613-8.841 48.633-13.629 67.84-2.792 11.201-4.352 21.266 4.019 29.215 11.256 10.687 19.973 20.971 27.47 39.892 8.346 21.063-7.251 43.907-29.908 43.907h-152.133c-1.201 6.797-2.23 13.383-3.132 19.404h256.714c-11.974-43.584-33.516-89.021-67.692-116.681z" fill="#e1bdfc"/><path d="m234.301 173.148c-.033-.455-.087-.912-.187-1.373-.639-17.749-6.032-33.116-18.367-45.007-.307-19.862-5.578-35.32-18.157-44.492-6.353-21.958-16.203-45.384-28.501-69.837-1.538-3.769-7.162-2.553-7.004 1.516-1.512 22.013-1.609 42.464 2.267 58.527-5.316 13.071-5.402 26.246 1.534 39.593-4.298 13.22-4.487 26.954 1.603 41.385-6.434 13.892-1.625 26.583.112 32.595 7.137 20.175 68.183 7.275 66.7-12.907z" fill="#f6e06e"/><path d="m234.301 173.148c-.033-.455-.087-.912-.187-1.373-.454-12.605-3.322-24-9.355-33.81.594 3.251.955 6.615 1.084 10.091.088.394.136.784.165 1.172 1.305 17.22-52.432 28.227-58.714 11.012-.295-.99-.691-2.195-1.097-3.576-4.407 12.613-.198 23.845 1.405 29.391 7.136 20.175 68.182 7.275 66.699-12.907z" fill="#dda86a"/><path d="m80.234 192.217c14.187-8.192 24.709-21.267 30.504-36.59 1.646-4.352 3.966-8.552 6.99-12.456 14.443-18.65 40.789-23.937 61.298-12.283 24.46 13.899 31.572 45.33 16.198 68.271-13.237 19.752-34.565 27.99-54.298 27.362-11.496-.366-38.005-7.438-58.133-13.279-9.745-2.828-11.345-15.952-2.559-21.025z" fill="#ccf3e2"/><path d="m179.025 130.887c-20.508-11.653-46.855-6.366-61.298 12.283-3.024 3.905-5.344 8.104-6.99 12.457-5.794 15.323-16.317 28.399-30.504 36.59-8.786 5.073-7.186 18.197 2.558 21.024 20.128 5.841 46.637 12.913 58.132 13.279 19.733.628 41.061-7.61 54.298-27.362 15.376-22.942 8.264-54.371-16.196-68.271zm2.204 45.388c-6.6 15.804-20.741 24.509-35.05 26.701-8.336 1.277-28.484-.203-43.852-1.662-7.439-.706-10.542-9.817-4.967-14.596 9.003-7.717 14.64-18.415 16.537-30.077.539-3.313 1.586-6.606 3.184-9.785 7.633-15.182 25.827-22.461 42.333-16.923 19.687 6.604 29.482 27.985 21.815 46.342z" fill="#b1b6e1"/><path d="m194.427 322.006c5.832-.016 10.036 5.636 8.299 11.204-4.253 13.638-16.107 23.466-30.092 23.503-13.985.038-25.892-9.727-30.218-23.341-1.766-5.558 2.407-11.233 8.239-11.248z" fill="#d789b9"/><path d="m315.401 256.269c1.148 3.234 1.842 6.863 1.952 10.711.398 13.947-7.033 25.475-16.597 25.748s-17.639-10.813-18.037-24.76c-.099-3.487.29-6.823 1.081-9.869" fill="#96b4eb"/><path d="m458.134 120.641 8.354 23.49c.358 1.006 1.066 1.803 1.959 2.205l20.87 9.403c2.949 1.328 2.949 6.026 0 7.355l-20.87 9.403c-.893.403-1.602 1.199-1.959 2.205l-8.354 23.49c-1.18 3.319-5.354 3.319-6.534 0l-8.354-23.49c-.358-1.006-1.066-1.803-1.959-2.205l-20.87-9.403c-2.948-1.328-2.948-6.026 0-7.355l20.87-9.403c.894-.403 1.602-1.199 1.959-2.205l8.354-23.49c1.18-3.318 5.354-3.318 6.534 0z" fill="#fbf2aa"/><path d="m319.01 15.899 6.197 17.424c.265.746.791 1.337 1.453 1.636l15.481 6.975c2.187.985 2.187 4.47 0 5.455l-15.481 6.975c-.663.299-1.188.89-1.453 1.636l-6.197 17.425c-.875 2.462-3.971 2.462-4.847 0l-6.197-17.425c-.265-.746-.79-1.337-1.453-1.636l-15.481-6.975c-2.187-.985-2.187-4.47 0-5.455l15.481-6.975c.663-.299 1.188-.89 1.453-1.636l6.197-17.424c.876-2.462 3.972-2.462 4.847 0z" fill="#fbf2aa"/><g fill="#f7e16e"><circle cx="32.866" cy="59.239" r="12.395"/><path d="m425.747 64.615c0 5.317-4.31 9.627-9.627 9.627s-9.627-4.31-9.627-9.627c0-5.316 4.31-9.626 9.627-9.626s9.627 4.309 9.627 9.626z"/></g></g><g><path d="m422.059 399.247c4.37-3.692 9.267-8.607 13.813-14.903 10.943-15.161 22.104-41.663 13.139-81.819-8.865-39.702-28.452-60.166-43.323-70.342-8.797-6.02-16.973-9.269-22.891-11.008-.589-14.571-4.514-43.214-25.46-56.245-2.927-1.821-6.047-3.243-9.342-4.294-.335-10.338-2.627-19.591-4.504-25.554-1.972-6.264-9.309-27.013-20.918-31.008-11.617-3.997-30.16 7.846-35.569 11.57-.111.076-.234.165-.347.243-5.382-12.168-12.654-20.969-21.765-26.286-13.338-7.784-29.484-7.585-48.146.534-2.351-5.039-5.662-9.751-10.312-13.797-6.199-20.548-15.417-42.904-28.135-68.221-2.676-5.915-9.101-9.19-15.5-7.798-6.328 1.37-10.809 6.906-10.886 13.317-1.73 25.46-1.161 43.597 1.852 58.091-5.446 15.459-4.409 30.596 3.097 45.039.309.594.683 1.127 1.085 1.632-.019.097-.034.195-.052.292-1.34-.057-2.679-.068-4.017-.026-8.155-8.614-17.632-14.501-23.821-17.776-5.753-3.045-25.387-12.568-36.384-7.292-10.996 5.282-15.837 26.559-17.059 32.955-1.996 10.45-4.092 30.591 4.299 48.066 1.197 2.492 2.501 4.841 3.885 7.076-2.41 1.94-4.948 3.702-7.615 5.241-6.215 3.589-9.54 10.243-8.677 17.366.604 4.983 3.147 9.248 6.976 12.052-.94 2.125-1.807 4.242-2.568 6.334-7.736 21.27-12.229 48.202-13.67 57.773-25.062 25.274-33.749 59.785-22.64 90.889 8.758 24.523 25.757 43.398 50.524 56.101 16.153 8.286 38.558 12.073 55.822 12.889-5.978 18.404-9.762 40.214-12.724 59.984-.832 5.554 2.996 10.732 8.551 11.564 5.552.83 10.732-2.995 11.564-8.551 3.581-23.899 8.363-50.797 16.676-69.084 1.496-3.291 1.132-7.129-.954-10.081-2.087-2.952-5.58-4.565-9.185-4.261-14.292 1.245-43.264-1.735-60.467-10.558-20.013-10.266-33.691-25.353-40.653-44.845-8.724-24.429-1.049-51.93 20.03-71.773 1.701-1.602 2.8-3.743 3.11-6.059.045-.331 4.523-33.365 13.131-57.036.566-1.556 1.473-3.851 2.771-6.658 22.352 6.141 37.775 9.38 45.933 9.641.777.025 1.552.037 2.325.037 23.263 0 44.527-11.137 57.236-30.101.24-.359.46-.729.691-1.092 1.697-.247 3.378-.528 5.007-.87 16.393-3.436 35.111-12.676 34.411-27.447-.213-2.271-.335-4.577-.532-6.817 7.491.153 14.925 1.198 22.123 3.135 5.337 1.437 10.851-1.656 12.405-6.963.302-1.033.57-1.885.843-2.679 6.707-19.492 31.852-34.37 40.565-36.084 5.814 6.714 16.478 33.914 9.772 53.405-2.412 7.01-5.769 12.736-9.978 17.02-3.389 3.449-3.881 8.807-1.177 12.816 10.253 15.196 15.681 32.958 15.699 51.371l-1.089 59.052c-.001.062-.002.125-.002.188 0 26.48-2.786 45.671-9.315 64.171-1.433 4.059-.155 8.582 3.192 11.29 27.913 22.591 50.742 62.178 64.283 111.471 1.241 4.514 5.335 7.479 9.801 7.479.892 0 1.799-.118 2.7-.367 1.84-.505 3.413-1.493 4.642-2.778 8.112-5.669 38.872-29.382 38.872-63.037-.002-22.797-11.449-37.883-21.148-46.574zm-237.584-324.867-10.072-3.406c-.007-.049-.019-.096-.027-.145-.034-.202-.068-.403-.114-.603-.01-.044-.014-.087-.025-.131-2.111-8.75-2.862-19.143-2.944-29.322 5.286 11.882 9.656 23.029 13.182 33.607zm-12.832 8.543 18.471 6.246c.014.015.031.03.046.045.166.179.339.35.518.514.051.048.1.096.152.143.241.215.49.417.749.607.007.005.013.011.02.016 6.815 4.969 9.893 13.024 10.218 27.17l-26.293-8.797c-.167-.501-.363-.997-.614-1.481-4.2-8.081-5.273-15.992-3.267-24.463zm-68.961 29.433c5.347.45 17.154 4.974 27.567 12.549-6.602 3.476-12.557 8.346-17.346 14.529-3.327 4.297-5.976 9.019-7.873 14.034-1.601 4.235-3.601 8.249-5.935 11.998-8.526-18.279-1.305-45.83 3.587-53.11zm38.437 108.065c-8.467-.27-28.577-4.901-56.627-13.041-3.192-.926-3.77-3.717-3.871-4.551-.1-.83-.206-3.672 2.664-5.328h.001c14.967-8.643 26.743-22.747 33.159-39.717 1.467-3.88 3.522-7.541 6.107-10.878 12.596-16.268 35.577-20.873 53.459-10.713 10.26 5.83 17.395 15.327 20.088 26.741 2.658 11.258.491 23.224-5.946 32.828-10.773 16.075-29.081 25.285-49.034 24.659zm66.088-32.663c1.484-5.054 2.217-10.31 2.187-15.589l17.385 5.123c-2.877 3.73-9.903 7.883-19.572 10.466zm.457-28.82c-3.69-14.219-12.742-26.036-25.625-33.356-3.559-2.022-7.275-3.589-11.074-4.722.233-.137.47-.269.69-.421l41.821 13.994c.456.153.915.229 1.374.272 6.946 8.066 11.099 17.983 12.589 30.06zm50.538-11.157c-6.656-1.211-13.427-1.822-20.225-1.822h-2.61c-3.043-8.134-7.481-15.319-13.319-21.488.062-.424.108-.853.116-1.292.079-4.133.018-8.524-.39-12.978 13.758-6.69 24.789-7.741 32.852-3.041 7.267 4.234 12.31 12.769 15.767 22.809-4.602 5.003-9 10.968-12.191 17.812zm144.167 336.486c-10.867-33.743-29.611-74.22-61.261-102.434 5.756-18.708 8.256-38.366 8.262-64.149l1.089-59.055c.001-.063.002-.125.002-.188 0-19.912-5.187-39.21-15.065-56.268 3.867-5.292 7.022-11.456 9.415-18.411.249-.722.475-1.448.691-2.174.356.192.714.377 1.059.591 14.792 9.166 16.505 36.713 15.918 46.535-.349 5.483 3.642 10.244 9.112 10.761 1.78.197 43.74 5.546 57.568 67.481 13.691 61.319-27.444 82.108-29.144 82.935-3.545 1.668-5.844 5.208-5.867 9.126-.025 3.917 2.175 7.486 5.699 9.198.94.471 23.019 11.831 23.019 37.604-.001 16.205-11.433 30.029-20.497 38.448z" fill="#3c122c"/><path d="m128.427 297.186c-3.37 0-6.102-2.732-6.102-6.102 0-3.555-2.892-6.447-6.448-6.447-3.555 0-6.447 2.892-6.447 6.447 0 3.37-2.732 6.102-6.102 6.102s-6.102-2.732-6.102-6.102c0-10.284 8.366-18.65 18.651-18.65 10.284 0 18.651 8.366 18.651 18.65 0 3.37-2.732 6.102-6.101 6.102z" fill="#3c122c"/><path d="m255.723 297.186c-3.37 0-6.102-2.732-6.102-6.102 0-3.555-2.892-6.447-6.448-6.447-3.554 0-6.447 2.892-6.447 6.447 0 3.37-2.732 6.102-6.102 6.102s-6.102-2.732-6.102-6.102c0-10.284 8.366-18.65 18.65-18.65s18.652 8.366 18.652 18.65c.001 3.37-2.731 6.102-6.101 6.102z" fill="#3c122c"/><path d="m132.665 177.844c-1.511 0-3.044-.338-4.49-1.051-5.037-2.484-7.107-8.582-4.623-13.619 9.146-18.547 24.33-23.25 26.032-23.725 13.6-3.799 19.073 15.791 5.472 19.59l.174-.052c-.336.108-8.296 2.761-13.435 13.182-1.771 3.592-5.379 5.675-9.13 5.675z" fill="#fff"/><g fill="#3c122c"><path d="m172.555 362.815c-13.614.001-26.254-7.878-33.007-20.579-2.943-5.533-2.767-12.063.47-17.467 3.276-5.468 9.029-8.744 15.389-8.761l34.232-.092h.051c6.34 0 12.09 3.241 15.386 8.677 3.265 5.387 3.477 11.916.564 17.465-6.699 12.767-19.341 20.72-32.99 20.757-.031 0-.064 0-.095 0zm17.118-34.695-34.232.092c-2.947.008-4.445 1.98-4.953 2.828-.49.817-1.485 2.984-.164 5.466 4.627 8.705 13.141 14.105 22.231 14.105h.062c9.112-.025 17.626-5.475 22.217-14.224 1.306-2.49.299-4.652-.195-5.465-.51-.843-2.015-2.802-4.95-2.802-.005 0-.01 0-.016 0z"/><path d="m240.875 258.415c-5.804 0-11.51-2.682-15.107-7.587-1.993-2.717-1.406-6.536 1.311-8.529s6.536-1.406 8.529 1.311c1.843 2.513 5.451 3.335 8.222 1.879 2.979-1.574 6.671-.431 8.244 2.55 1.571 2.98.43 6.672-2.551 8.244-2.733 1.441-5.704 2.132-8.648 2.132z"/><path d="m114.756 256.582c-2.887 0-5.797-.665-8.486-2.055-2.993-1.548-4.165-5.229-2.618-8.223 1.548-2.993 5.228-4.164 8.223-2.618 2.768 1.432 6.37.565 8.199-1.971 1.972-2.734 5.785-3.35 8.518-1.382 2.734 1.971 3.352 5.785 1.382 8.518-3.597 4.989-9.359 7.731-15.218 7.731z"/><path d="m300.42 298.835c-6.42 0-12.609-3.462-17.053-9.561-4.125-5.663-6.521-13.167-6.749-21.132-.113-3.986.316-7.881 1.274-11.575.846-3.261 4.179-5.221 7.439-4.374 3.262.846 5.22 4.177 4.374 7.439-.669 2.581-.968 5.327-.887 8.163.155 5.446 1.763 10.656 4.413 14.294 1.267 1.738 3.876 4.676 7.35 4.54 3.445-.097 5.914-3.144 7.079-4.952 2.438-3.782 3.748-9.076 3.592-14.522-.089-3.125-.629-6.101-1.602-8.842-1.129-3.175.53-6.664 3.706-7.792 3.175-1.126 6.665.529 7.792 3.706 1.402 3.944 2.176 8.177 2.302 12.579.227 7.966-1.738 15.596-5.534 21.483-4.196 6.51-10.388 10.351-16.989 10.539-.167.004-.338.007-.507.007z"/></g></g></g></svg>