<svg id="Capa_1" enable-background="new 0 0 512 512" height="512" viewBox="0 0 512 512" width="512" xmlns="http://www.w3.org/2000/svg"><g><g><path d="m89.379 499.605c11.921-43.392 33.368-88.628 67.392-116.166-6.394-18.118-9.851-37.661-9.851-67.257l-1.086-58.886c0-21.074 6.4-40.652 17.361-56.898-5.03-5.118-9.284-12.021-12.286-20.746-9.144-26.574 7.585-63.622 15.86-66.469 8.275-2.848 44.259 16.062 53.403 42.635.361 1.05.681 2.087.982 3.117 8.463-2.278 17.358-3.5 26.54-3.5h62.862c4.694 0 9.204.358 13.538 1.016.643-5.776 2.418-11.947 5.502-18.37 12.038-25.07 49.577-39.524 57.384-35.776 7.806 3.749 19.997 42.083 7.958 67.152-3.983 8.295-9.003 14.624-14.585 19.083 11.071 12.551 18.407 26.291 22.162 36.618 9.062 24.921 13.593 58.904 13.593 58.904 24.549 23.11 32.358 54.731 22.536 82.234-8.105 22.694-24.101 39.332-45.387 50.25-18.709 9.597-49.071 13.036-65.698 11.59 9.24 20.327 14.119 49.588 17.397 71.469z" fill="#e8c2d8"/><path d="m416.109 284.062s-4.531-33.983-13.593-58.904c-3.755-10.327-11.091-24.067-22.162-36.618 5.582-4.459 10.602-10.788 14.585-19.083 12.038-25.069-.152-63.404-7.958-67.152-3.55-1.705-13.251.366-23.904 5.476 6.147 11.833 11.604 39.333 2.826 58.622-3.604 7.921-8.147 13.964-13.199 18.223 10.019 11.985 16.658 25.105 20.056 34.966 8.201 23.798 12.302 56.249 12.302 56.249 22.216 22.067 29.283 52.262 20.394 78.526-7.335 21.67-21.811 37.558-41.074 47.984-16.932 9.164-44.408 12.449-59.455 11.068 2.879 6.682 5.29 14.376 7.335 22.445 5.891 23.243-11.774 45.802-35.753 45.802h-181.661c-2.006 5.981-3.831 11.978-5.469 17.94h255.578c-3.278-21.881-8.158-51.143-17.397-71.469 16.627 1.445 46.988-1.993 65.698-11.59 21.286-10.918 37.282-27.556 45.387-50.25 9.823-27.505 2.013-59.125-22.536-82.235z" fill="#d392d8"/><path d="m182.015 422.321c-3.837-6.501-7.639-13.015-9.895-20.113-3.628-11.416 12.241-16.073 20.031-18.816 8.6-3.027 14.716-10.981 19.573-18.362 5.103-7.756 9.954-16.816 11.12-26.168 1.365-10.949-5.105-23.356-9.779-32.866-5.41-11.008-10.945-22.553-17.573-32.875-11.763-18.319-32.932-33.723-34.158-57.201-.286-5.468 1.111-10.821 1.28-16.266.173-5.552-1.389-10.716-3.415-15.825-2.147-5.414-4.34-10.594-5.805-15.942-43.614-.579-39.754 60.454-39.754 60.454s-62.835.072-78.528 70.358 34.71 99.179 34.71 99.179-16.322 13.322-16.322 45.967c0 32.644 43.461 57.378 43.461 57.378s.418.001 1.191-.013c.01.006.022.013.022.013l.014-.013c9.086-.165 66.21-2.454 81.239-33.944 7.145-14.969 5.673-30.932 1.753-44.158z" fill="#c1e5ef"/><path d="m215.436 148.244c1.139 2.879 1.975 8.916 5.19 10.393 3.796 1.745 10.751.318 14.776.438 5.956.177 13.539 1.383 18.841-2.083 3.273-2.14 5.554-6.189 7.875-9.248 2.611-3.44 5.229-6.875 7.834-10.32 2.197-2.904 4.508-5.653 5.563-9.205 1.097-3.695.85-7.635.491-11.424-.411-4.344-.997-8.542-1.243-12.766-43.606-24.815-62.415-.752-70.468 27.186 4.646 4.94 8.557 10.5 11.141 17.029z" fill="#c1e5ef"/><path d="m74.045 397.173s-37.295-19.336-39.022-63.374c-.508-12.942 2.332-26.648 6.908-35.403-12.089 110.527 147.207 87.747 154.662-14.138.102-1.398 35.306 69.401 2.025 94.968-10.553 8.107-27.486 16.113-26.041 19.003 23.347 46.693-4.781 74.265-2.437 73.958-21.768 24.143-49.383 37.1-77.093 24.223 0 0-39.548-19.92-39.548-52.565.001-32.645 20.546-46.672 20.546-46.672z" fill="#a6aaed"/><path d="m251.356 172.379c.033-.453.087-.908.186-1.367.636-17.671 6.006-32.97 18.286-44.808.306-19.774 5.553-35.164 18.077-44.295 6.324-21.861 16.131-45.183 28.375-69.528 1.531-3.753 7.13-2.541 6.973 1.509 1.505 21.916 1.602 42.277-2.257 58.268 5.293 13.013 5.378 26.13-1.527 39.418 4.279 13.161 4.467 26.835-1.596 41.202 6.406 13.83 1.618 26.466-.111 32.451-7.106 20.086-67.882 7.243-66.406-12.85z" fill="#c2b2eb"/><path d="m251.356 172.379c.033-.453.087-.908.186-1.367.452-12.549 3.308-23.894 9.314-33.661-.591 3.237-.951 6.585-1.079 10.047-.088.392-.135.78-.164 1.167-1.299 17.144 52.2 28.102 58.455 10.964.294-.986.688-2.185 1.092-3.56 4.388 12.557.197 23.739-1.398 29.261-7.106 20.085-67.882 7.242-66.406-12.851z" fill="#ae85ea"/><path d="m404.742 191.364c-14.124-8.155-24.6-21.173-30.369-36.429-1.638-4.333-3.948-8.514-6.959-12.401-14.379-18.567-40.609-23.831-61.027-12.229-24.352 13.838-31.433 45.129-16.126 67.969 13.179 19.665 34.413 27.866 54.058 27.241 11.445-.364 37.837-7.405 57.876-13.22 9.701-2.815 11.294-15.881 2.547-20.931z" fill="#c1e5ef"/><path d="m290.261 198.275c13.178 19.665 34.413 27.866 54.058 27.241 11.445-.365 37.837-7.405 57.876-13.22 9.7-2.815 11.293-15.881 2.546-20.932-14.124-8.156-24.6-21.174-30.369-36.429-1.639-4.333-3.948-8.514-6.959-12.401-14.379-18.567-40.609-23.83-61.027-12.229-24.351 13.838-31.431 45.129-16.125 67.97zm35.65-68.92c16.433-5.514 34.547 1.733 42.146 16.848 1.591 3.165 2.634 6.444 3.17 9.742 1.889 11.61 7.501 22.261 16.464 29.943 5.551 4.758 2.461 13.829-4.945 14.532-15.3 1.452-35.359 2.926-43.658 1.655-14.246-2.182-28.324-10.848-34.895-26.582-7.633-18.276 2.119-39.562 21.718-46.138z" fill="#a6aaed"/><path d="m337.688 349.852s4.387-15.353 14.258-15.355 15.355 15.355 15.355 15.355 4.935-16.451 13.666-16.451c8.73 0 13.753 15.355 13.753 15.355s-3.515 27.755-26.138 29.646c-19.013 1.589-25.078-9.769-30.894-28.55z" fill="#d789b9"/><path d="m222.88 254.725c.239-3.891 3.591-6.854 7.476-6.608l121.603 6.854 98.147-28.368c3.741-1.104 7.662 1.027 8.768 4.763l1.02 3.961c7.446 28.833-9.111 58.275-36.32 66.141-24.642 7.125-50.57-5.746-61.994-29.303-1.046-2.157-3.497-3.201-5.818-2.598-1.97.511-3.974.711-5.977.628-3.169-.132-5.931 2.027-6.829 5.068-7.317 24.759-32.911 42.053-62.099 40.125-32.381-2.139-58.431-26.772-58.055-56.103z" fill="#9781dd"/><g fill="#f6e06e"><path d="m221.757 312.104-11.783 21.544-21.543 11.782 21.543 11.783 11.783 21.544 11.783-21.544 21.544-11.783-21.544-11.782z"/><path d="m163.151 229.111-11.783 21.544-21.544 11.783 21.544 11.783 11.783 21.544 11.782-21.544 21.544-11.783-21.544-11.783z"/><path d="m62.399 358.614-11.783 21.544-21.544 11.783 21.544 11.783 11.783 21.544 11.782-21.544 21.544-11.783-21.544-11.783z"/></g><path d="m386.588 245.233s82.913-1.87 20.572 58.6c0 0 72.315-4.364 51.12-75.432z" fill="#8962de"/><path d="m87.071 9.187 8.317 23.386c.356 1.001 1.061 1.795 1.951 2.195l20.778 9.361c2.935 1.322 2.935 6 0 7.322l-20.778 9.361c-.89.401-1.595 1.194-1.951 2.196l-8.317 23.386c-1.175 3.304-5.33 3.304-6.505 0l-8.317-23.386c-.356-1.001-1.061-1.795-1.951-2.196l-20.778-9.36c-2.935-1.322-2.935-6 0-7.322l20.778-9.361c.89-.401 1.595-1.194 1.951-2.195l8.317-23.386c1.175-3.305 5.33-3.305 6.505-.001z" fill="#c2b2eb"/><path d="m477.875 80.047 6.169 17.348c.264.743.787 1.331 1.447 1.629l15.413 6.944c2.177.981 2.177 4.45 0 5.431l-15.413 6.944c-.66.297-1.183.886-1.447 1.629l-6.169 17.348c-.872 2.451-3.954 2.451-4.826 0l-6.169-17.348c-.264-.743-.787-1.331-1.447-1.629l-15.413-6.944c-2.177-.981-2.177-4.45 0-5.431l15.413-6.944c.66-.297 1.183-.886 1.447-1.629l6.169-17.348c.872-2.451 3.955-2.451 4.826 0z" fill="#c2b2eb"/><ellipse cx="21.803" cy="147.947" fill="#9781dd" rx="12.34" ry="12.34" transform="matrix(.071 -.998 .998 .071 -127.317 159.206)"/><path d="m411.958 50.392c0 5.293-4.291 9.584-9.584 9.584s-9.584-4.291-9.584-9.584 4.291-9.584 9.584-9.584 9.584 4.291 9.584 9.584z" fill="#9781dd"/></g><g><g fill="#3c122c"><path d="m365.256 384.619c1.228 0 2.505-.053 3.831-.164 21.773-1.82 30.229-23.649 31.658-34.937.114-.892.027-1.798-.253-2.652-.654-2-6.76-19.541-19.527-19.541-6.383 0-11.029 4.434-14.196 9.264-3.44-4.298-8.337-8.167-14.823-8.167-.001 0-.002 0-.003 0-14.046.003-19.52 17.738-20.099 19.76-.323 1.134-.31 2.338.039 3.466 5.189 16.75 12.076 32.971 33.373 32.971zm-13.309-44.047c4.13-.001 8.348 7.786 9.633 11.322.882 2.468 3.24 4.094 5.867 4.025 2.62-.063 4.907-1.805 5.67-4.312 1.827-6.01 5.788-12.132 7.85-12.132 2.201 0 5.622 5.033 7.499 9.839-.961 4.9-5.353 21.776-20.389 23.032-13.643 1.147-18.397-4.909-23.999-22.431 1.355-3.533 4.435-9.342 7.869-9.343z"/><path d="m465.777 233.813-1.019-3.961c-.018-.07-.038-.14-.057-.21-2.053-6.937-9.371-10.921-16.281-8.875l-33.481 9.677c-.914-2.978-1.878-5.916-2.908-8.747-.758-2.084-1.622-4.191-2.558-6.306 3.812-2.79 6.344-7.038 6.945-11.999.859-7.092-2.451-13.717-8.639-17.29-2.653-1.532-5.178-3.284-7.575-5.213 1.377-2.227 2.671-4.569 3.861-7.049 8.354-17.397 6.268-37.449 4.28-47.854-1.216-6.367-6.035-27.551-16.983-32.808-10.954-5.26-30.493 4.227-36.223 7.26-6.161 3.259-15.591 9.123-23.707 17.7-1.335-.043-2.672-.033-4.009.024-.019-.097-.031-.195-.051-.292.4-.502.772-1.033 1.079-1.625 7.473-14.381 8.506-29.45 3.083-44.84 3.001-14.432 3.567-32.489 1.844-57.832-.077-6.383-4.538-11.897-10.841-13.259-6.369-1.374-12.766 1.879-15.429 7.766-12.661 25.2-21.839 47.458-28.01 67.917-4.628 4.027-7.925 8.717-10.266 13.732-18.58-8.081-34.656-8.276-47.934-.528-9.068 5.293-16.3 14.066-21.658 26.179-.116-.081-.242-.172-.356-.25-5.385-3.707-23.855-15.497-35.411-11.519-11.558 3.976-18.863 24.634-20.826 30.87-1.869 5.937-4.15 15.148-4.484 25.44-3.281 1.045-6.387 2.463-9.302 4.276-20.359 12.666-24.566 40.15-25.299 54.945-7.063 1.098-17.087 3.497-27.7 8.736-18.067 8.917-41.487 27.988-50.467 68.204-8.853 39.648 2.258 67.379 13.213 83.72l-12.453 6.812c-1.948 1.065-3.16 3.109-3.16 5.329 0 2.221 1.212 4.264 3.16 5.33l19.983 10.928 2.68 4.899c-3.115 7.993-5.444 18.168-5.444 30.747 0 37.929 45.125 65.545 47.046 66.703 1.577.949 3.383 1.451 5.224 1.451h.012c3.025-.004 74.292-.547 93.165-40.089 13.108-27.466 1.848-56.887-6.547-72.695 9.839-3.843 23.135-10.476 32.442-20.669l1.709 3.125c1.065 1.949 3.109 3.16 5.33 3.16 2.22 0 4.265-1.212 5.33-3.16l10.929-19.983 19.982-10.929c1.949-1.065 3.16-3.109 3.16-5.329 0-2.221-1.211-4.265-3.16-5.329l-19.982-10.93-10.558-19.304c.002-.003.005-.006.007-.009-3.991-15.042-12.422-29.373-25.773-43.78-.069-.075-.138-.15-.208-.225.677-.992 1.068-2.172 1.068-3.416 0-2.221-1.212-4.264-3.16-5.33l-10.568-5.779c-10.753-13.362-19.285-27.602-19.732-41.336.799-1.327 1.626-2.641 2.496-3.931 2.693-3.991 2.203-9.326-1.172-12.759-4.189-4.264-7.532-9.965-9.934-16.944-6.677-19.404 3.941-46.485 9.729-53.169 8.675 1.707 33.709 16.519 40.387 35.924.268.78.535 1.628.839 2.668 1.546 5.283 7.028 8.361 12.349 6.932 7.167-1.929 14.568-2.969 22.027-3.121-.141 1.555-.259 3.125-.324 4.729-.073.423-.125.868-.167 1.343-.004.032-.006.064-.009.097-.005.058-.012.11-.016.169v.001l-.001.004c-.004.058-.002.114-.006.172-.004.088-.008.176-.009.265-.701 14.709 17.936 23.909 34.259 27.331 1.626.341 3.299.63 4.991.876.228.359.445.724.682 1.078 12.653 18.88 33.822 29.968 56.983 29.968.768 0 1.542-.012 2.315-.037 8.121-.259 23.477-3.483 45.733-9.598 1.291 2.795 2.191 5.078 2.755 6.629.872 2.4 1.697 4.901 2.483 7.449l-44.216 12.78-120.528-6.794c-3.507-.225-6.875.936-9.505 3.259-2.633 2.324-4.202 5.535-4.418 9.04-.005.089-.009.178-.01.267l-.08 4.588c-.203 15.825 6.407 30.993 18.611 42.708 11.942 11.464 27.965 18.401 45.118 19.535 1.587.105 3.164.156 4.735.156 29.483 0 55.781-18.194 63.59-44.622.126-.424.406-.747.753-.72 2.364.092 4.708-.114 6.984-.631 12.7 25.282 40.036 38.553 66.119 32.357 10.356 17.068 12.929 36.827 6.474 54.899-6.93 19.405-20.548 34.426-40.473 44.647-16.142 8.279-42.685 11.389-57.599 10.682-3.684-4.714-8.95-10.464-15.786-15.519-13.803-10.206-36.606-19.543-66.853-6.059-5.108 2.276-7.403 8.262-5.127 13.369 2.276 5.108 8.259 7.407 13.369 5.127 16.916-7.538 32.413-6.37 46.064 3.474 10.89 7.854 16.763 18.457 16.877 18.667.474.881 1.063 1.657 1.733 2.333 6.487 17.637 10.515 40.704 13.631 61.493.829 5.53 5.985 9.342 11.513 8.513 5.53-.829 9.342-5.984 8.513-11.513-2.95-19.683-6.717-41.396-12.667-59.719 17.187-.813 39.495-4.584 55.574-12.832 24.659-12.647 41.582-31.44 50.301-55.853 8.277-23.171 5.503-48.238-6.867-69.934 20.46-13.854 31.088-40.318 24.467-65.955zm-309.079 19.757 6.453-11.799 6.453 11.799c.558 1.019 1.396 1.858 2.415 2.415l11.798 6.452-11.798 6.454c-1.02.557-1.857 1.395-2.415 2.415l-6.453 11.799-6.453-11.799c-.558-1.019-1.396-1.858-2.415-2.415l-11.798-6.454 11.798-6.452c1.019-.557 1.857-1.395 2.415-2.415zm-114.966 138.371 11.798-6.454c1.019-.557 1.857-1.395 2.415-2.415l6.453-11.799 6.453 11.799c.558 1.019 1.396 1.858 2.415 2.415l11.798 6.454-11.798 6.452c-1.019.558-1.857 1.396-2.415 2.415l-6.453 11.799-6.453-11.799c-.558-1.019-1.396-1.858-2.415-2.415zm188.893-52.964 11.799 6.454-11.798 6.453c-1.019.557-1.857 1.395-2.415 2.415l-6.453 11.799-6.453-11.799c-.558-1.019-1.396-1.858-2.415-2.416l-11.798-6.452 11.798-6.454c1.019-.557 1.857-1.395 2.415-2.415l6.453-11.799 6.453 11.799c.557 1.02 1.395 1.858 2.414 2.415zm-21.352-16.707-3.774 6.902-19.982 10.93c-1.948 1.065-3.16 3.109-3.16 5.329 0 2.221 1.212 4.265 3.16 5.33l17.615 9.633c-7.447 12.885-29.96 21.164-38.591 23.378-3.26.827-5.896 3.217-7.037 6.381-1.14 3.164-.635 6.687 1.348 9.403.255.348 25.28 35.17 11.697 63.631-10.541 22.087-53.131 27.927-72.05 28.512-11.577-7.651-34.872-27.296-34.872-47.854 0-4.832.429-9.141 1.125-12.979 1.247-.524 2.307-1.456 2.978-2.685l10.929-19.983 19.982-10.928c1.948-1.066 3.16-3.11 3.16-5.33 0-2.221-1.212-4.265-3.16-5.329l-19.982-10.93-10.929-19.983c-1.065-1.949-3.109-3.16-5.33-3.16-2.22 0-4.265 1.212-5.33 3.16l-4.525 8.273c-8.099-14.249-13.736-35.03-7.384-63.48 13.649-61.13 66.237-62.019 68.425-62.027h.054c2.78 0 5.438-1.152 7.351-3.172 1.925-2.033 2.922-4.781 2.755-7.576-.585-9.797 1.12-37.222 15.846-46.347.343-.213.703-.389 1.057-.579.215.721.439 1.441.686 2.157 2.197 6.382 5.045 12.087 8.49 17.068-.304.777-.526 1.599-.631 2.466-1.298 10.707.648 20.982 4.71 30.875l-7.013 12.822-19.982 10.928c-1.948 1.066-3.16 3.11-3.16 5.33 0 2.221 1.212 4.265 3.16 5.329l19.982 10.93 10.929 19.983c1.065 1.949 3.109 3.16 5.33 3.16 2.22 0 4.265-1.212 5.33-3.16l10.929-19.983 4.256-2.328c1.053 1.162 2.107 2.325 3.174 3.476 13.046 14.078 20.435 27.868 22.434 42.427zm173.121-210.413c4.869 7.248 12.057 34.676 3.57 52.875-2.323-3.734-4.314-7.729-5.909-11.945-1.889-4.994-4.526-9.696-7.838-13.972-4.768-6.156-10.696-11.003-17.268-14.464 10.368-7.543 22.123-12.048 27.445-12.494zm-68.31-71.268c-.081 10.132-.827 20.48-2.931 29.192-.011.045-.015.089-.025.132-.045.197-.079.396-.112.594-.008.049-.021.099-.028.148l-10.027 3.392c3.511-10.532 7.862-21.629 13.123-33.458zm-20.213 49.501c.007-.005.013-.011.02-.016.258-.189.505-.391.745-.603.053-.048.103-.098.155-.146.176-.163.346-.331.51-.506.015-.016.032-.031.047-.047l18.389-6.219c1.997 8.433.929 16.309-3.252 24.354-.25.482-.445.976-.612 1.474l-26.176 8.759c.323-14.083 3.388-22.102 10.174-27.05zm-46.176 55.221c-6.768 0-13.508.608-20.135 1.813-3.156-6.769-7.499-12.673-12.049-17.635 3.435-10.05 8.422-18.613 15.596-22.799 8.026-4.686 19.015-3.639 32.719 3.025-.405 4.433-.467 8.802-.388 12.915.008.438.054.865.116 1.286-5.811 6.141-10.231 13.296-13.26 21.394h-2.599zm23.025-11.204c.457-.042.915-.119 1.369-.271l41.635-13.932c.219.15.456.283.688.419-3.782 1.127-7.482 2.687-11.025 4.7-12.826 7.288-21.838 19.052-25.512 33.209l-19.687 5.801c1.483-12.023 5.617-21.896 12.532-29.926zm-11.875 42.398 17.308-5.1c-.03 5.255.7 10.488 2.177 15.52-9.626-2.572-16.621-6.707-19.485-10.42zm85.282 42.938c-19.853.658-38.093-8.546-48.818-24.55-6.408-9.562-8.566-21.475-5.92-32.684 2.683-11.364 9.785-20.818 20-26.622 6.364-3.616 13.374-5.353 20.331-5.353 12.505 0 24.833 5.614 32.892 16.02 2.573 3.322 4.618 6.966 6.079 10.83 6.388 16.895 18.113 30.938 33.014 39.541 2.857 1.649 2.752 4.478 2.652 5.306-.101.829-.675 3.609-3.853 4.531-27.929 8.103-47.95 12.713-56.377 12.981zm22.918 50.071c-2.283-4.71-7.669-7.16-12.806-5.829-1.354.352-2.767.499-4.2.439-5.921-.237-11.199 3.626-12.909 9.417-6.63 22.435-30.136 37.5-55.873 35.784-29.211-1.93-52.709-24.343-52.382-49.935l.076-4.367c.039-.295.195-.49.324-.603.138-.122.369-.253.74-.239l121.603 6.854c.692.044 1.37-.039 2.029-.229l98.18-28.377c.504-.15 1.03.121 1.205.603l.981 3.813c6.56 25.398-7.852 51.769-32.126 58.786-21.43 6.194-44.497-4.787-54.842-26.117z"/><path d="m315.762 271.001-64.021-4.612c-3.641-.262-6.355 3.352-5.03 6.753 3.463 8.893 12.305 22.921 33.788 24.063 23.213 1.233 34.338-10.604 39.174-18.626 1.931-3.201-.182-7.309-3.911-7.578z"/><path d="m446.7 252.516c.459-3.921-3.017-7.395-6.425-6.404l-58.515 17.014c-3.328.968-4.321 5.575-1.818 8.595 6.542 7.897 19.855 19.209 39.332 13.086 21.045-6.615 26.276-22.466 27.426-32.291z"/></g><path d="m352.542 177.055c-3.735.001-7.326-2.073-9.089-5.649-5.117-10.376-13.042-13.017-13.376-13.125 0 0-11.484-4.478-7.704-13.573s13.326-5.879 13.326-5.879c1.694.473 16.811 5.154 25.917 23.621 2.473 5.015.412 11.086-4.603 13.559-1.441.71-2.968 1.046-4.471 1.046z" fill="#fff"/></g></g></svg>