<svg id="Capa_1" enable-background="new 0 0 512 512" height="512" viewBox="0 0 512 512" width="512" xmlns="http://www.w3.org/2000/svg"><g><g><path d="m415.237 501.562s36.069-22.953 36.069-55.743-28.691-46.726-28.691-46.726 50.503-23.755 34.74-94.354c-15.763-70.598-66.457-75.384-66.457-75.384s6.197-97.715-85.179-45.273c0 0 5.827-131.284-81.459-76.73l8.09 232.271z" fill="#c1e5ef"/><path d="m422.615 399.094s50.503-23.755 34.74-94.354c-2.835-12.697-15.646-29.402-20.243-38.197 20.003 101.19-48.732 148.444-124.036 94.319-4.041-2.905-14.679 33.584-19.531 32.948l121.692 107.752s36.069-22.953 36.069-55.743c0-32.789-28.691-46.725-28.691-46.725z" fill="#a6aaed"/><path d="m415.267 501.827c-11.974-43.585-33.516-89.022-67.692-116.682 6.423-18.198 9.895-37.828 9.895-67.556l1.091-59.148c0-21.167-6.428-40.832-17.438-57.151 5.052-5.141 9.325-12.074 12.341-20.838 9.185-26.692-7.619-63.904-15.93-66.764-8.312-2.86-44.456 16.133-53.641 42.825-.363 1.055-.684 2.096-.987 3.131-8.5-2.288-17.436-3.516-26.658-3.516h-63.141c-4.715 0-9.245.359-13.598 1.02-.646-5.802-2.429-12-5.526-18.452-12.092-25.181-49.798-39.7-57.639-35.935-7.841 3.766-20.086 42.27-7.994 67.451 4.001 8.332 9.043 14.689 14.65 19.168-11.12 12.607-18.488 26.408-22.26 36.78-9.102 25.032-13.654 59.166-13.654 59.166-24.658 23.212-32.502 54.974-22.636 82.6 8.141 22.794 24.208 39.507 45.589 50.473 18.793 9.639 49.289 13.094 65.99 11.642-9.281 20.417-14.182 49.808-17.475 71.787h256.713z" fill="#e8c2d8"/><path d="m347.576 385.145c6.423-18.198 9.895-37.828 9.895-67.556l1.091-59.148c0-21.167-6.428-40.832-17.438-57.151 5.052-5.141 9.325-12.074 12.341-20.838 9.185-26.692-7.619-63.904-15.93-66.764-3.922-1.35-5.042-.501-15.602 6.395 6.543 12.277 11.035 28.079 9.38 47.942-1.042 12.507-17.216 25.739-21.446 30.631 9.219 15.526 16.276 67.756 16.276 87.896l-.276 15.017c0 20.613-8.841 48.633-13.63 67.841-2.792 11.201-4.352 21.267 4.019 29.215 11.256 10.687 19.974 20.971 27.471 39.892 8.346 21.063-7.251 43.907-29.908 43.907h-152.133c-1.201 6.797-2.23 13.383-3.132 19.404h256.715c-11.975-43.586-33.518-89.023-67.693-116.683z" fill="#d392d8"/><path d="m252.571 173.147c-.033-.455-.087-.912-.187-1.373-.639-17.749-6.032-33.117-18.367-45.007-.307-19.862-5.578-35.321-18.157-44.492-6.353-21.958-16.203-45.384-28.501-69.838-1.538-3.769-7.162-2.553-7.004 1.516-1.512 22.013-1.609 42.465 2.267 58.528-5.316 13.071-5.402 26.246 1.534 39.593-4.298 13.22-4.487 26.955 1.603 41.385-6.434 13.892-1.625 26.584.112 32.595 7.136 20.175 68.182 7.275 66.7-12.907z" fill="#c2b2eb"/><path d="m252.571 173.147c-.033-.455-.087-.912-.187-1.373-.454-12.605-3.322-24-9.356-33.811.594 3.251.955 6.615 1.084 10.091.088.394.135.784.165 1.172 1.305 17.22-52.432 28.227-58.715 11.012-.295-.99-.691-2.194-1.097-3.576-4.407 12.613-.198 23.845 1.405 29.391 7.137 20.176 68.183 7.276 66.701-12.906z" fill="#ae85ea"/><path d="m98.503 192.215c14.187-8.192 24.71-21.267 30.504-36.591 1.646-4.352 3.966-8.552 6.99-12.456 14.443-18.649 40.79-23.937 61.298-12.283 24.46 13.899 31.573 45.33 16.198 68.272-13.237 19.752-34.566 27.99-54.299 27.362-11.496-.366-38.005-7.438-58.133-13.279-9.744-2.827-11.344-15.952-2.558-21.025z" fill="#c1e5ef"/><path d="m197.294 130.885c-20.508-11.653-46.855-6.366-61.298 12.283-3.024 3.905-5.344 8.104-6.99 12.457-5.794 15.323-16.317 28.399-30.504 36.591-8.786 5.073-7.186 18.197 2.558 21.025 20.128 5.841 46.637 12.913 58.133 13.279 19.733.628 41.062-7.61 54.299-27.362 15.375-22.943 8.263-54.373-16.198-68.273zm2.205 45.389c-6.6 15.804-20.741 24.509-35.05 26.701-8.336 1.277-28.484-.203-43.852-1.662-7.439-.706-10.542-9.817-4.967-14.596 9.003-7.717 14.64-18.415 16.537-30.077.539-3.313 1.586-6.607 3.184-9.786 7.633-15.182 25.827-22.461 42.333-16.923 19.687 6.605 29.481 27.986 21.815 46.343z" fill="#a6aaed"/><g fill="#d789b9"><path d="m218.673 317.794c4.782.006 8.21 5.673 6.767 11.234-3.534 13.622-13.289 23.406-24.757 23.392s-21.199-9.823-24.699-23.453c-1.429-5.565 2.013-11.224 6.795-11.218z"/><ellipse cx="286.675" cy="344.552" rx="34.032" ry="27.73"/><ellipse cx="113.128" cy="344.552" rx="34.032" ry="27.73"/></g><path d="m467.524 118.554 8.354 23.49c.358 1.006 1.066 1.803 1.959 2.205l20.87 9.403c2.948 1.328 2.948 6.026 0 7.354l-20.87 9.403c-.893.403-1.602 1.2-1.959 2.205l-8.354 23.49c-1.18 3.319-5.354 3.319-6.534 0l-8.354-23.49c-.358-1.006-1.066-1.803-1.959-2.205l-20.87-9.403c-2.948-1.328-2.948-6.026 0-7.354l20.87-9.403c.894-.403 1.602-1.199 1.959-2.205l8.354-23.49c1.18-3.319 5.354-3.319 6.534 0z" fill="#c2b2eb"/><path d="m70.306 19.092 6.197 17.425c.265.746.791 1.337 1.453 1.636l15.481 6.975c2.187.985 2.187 4.47 0 5.455l-15.481 6.975c-.663.299-1.188.89-1.453 1.636l-6.197 17.425c-.875 2.462-3.972 2.462-4.847 0l-6.197-17.425c-.265-.746-.791-1.337-1.453-1.636l-15.481-6.975c-2.187-.985-2.187-4.47 0-5.455l15.481-6.975c.663-.299 1.188-.89 1.453-1.636l6.197-17.425c.875-2.462 3.971-2.462 4.847 0z" fill="#c2b2eb"/><ellipse cx="23.476" cy="125.151" fill="#9781dd" rx="12.395" ry="12.395" transform="matrix(.973 -.23 .23 .973 -28.126 8.742)"/><path d="m399.732 92.892c0 5.317-4.31 9.627-9.627 9.627s-9.627-4.31-9.627-9.627 4.31-9.626 9.627-9.626c5.317-.001 9.627 4.309 9.627 9.626z" fill="#9781dd"/></g><g><path d="m440.33 399.246c4.37-3.693 9.267-8.606 13.813-14.903 10.943-15.161 22.104-41.663 13.139-81.819-8.865-39.703-28.452-60.167-43.322-70.343-8.797-6.02-16.974-9.269-22.892-11.008-.589-14.571-4.514-43.215-25.46-56.246-2.928-1.822-6.047-3.243-9.342-4.294-.335-10.339-2.627-19.592-4.504-25.555-1.972-6.264-9.309-27.014-20.918-31.007-11.617-4.001-30.16 7.846-35.569 11.57-.114.078-.239.169-.355.249-5.382-12.165-12.648-20.977-21.757-26.292-13.339-7.784-29.486-7.589-48.148.529-2.351-5.037-5.662-9.747-10.31-13.792-6.199-20.549-15.417-42.907-28.134-68.22-2.675-5.915-9.107-9.183-15.498-7.8-6.329 1.369-10.811 6.906-10.889 13.317-1.73 25.458-1.161 43.595 1.852 58.091-5.446 15.46-4.409 30.596 3.097 45.039.309.594.683 1.127 1.084 1.632-.019.097-.032.194-.051.291-1.338-.056-2.674-.068-4.009-.025-8.157-8.616-17.64-14.501-23.83-17.777-5.755-3.046-25.387-12.571-36.385-7.292-10.996 5.281-15.837 26.559-17.058 32.954-1.996 10.451-4.092 30.591 4.299 48.067 1.196 2.491 2.494 4.846 3.876 7.083-2.407 1.937-4.942 3.697-7.606 5.234-6.216 3.589-9.541 10.243-8.677 17.367.604 4.983 3.147 9.249 6.976 12.052-.94 2.124-1.808 4.241-2.569 6.334-7.735 21.27-12.228 48.201-13.67 57.772-25.062 25.274-33.749 59.785-22.64 90.889 8.758 24.522 25.757 43.398 50.525 56.102 16.153 8.285 38.558 12.073 55.822 12.889-5.979 18.407-9.762 40.215-12.723 59.984-.832 5.555 2.996 10.732 8.551 11.564 5.551.832 10.732-2.996 11.564-8.551 3.579-23.898 8.36-50.794 16.675-69.085 1.496-3.291 1.132-7.128-.954-10.08-2.087-2.951-5.579-4.573-9.185-4.26-14.297 1.242-43.261-1.734-60.468-10.559-20.014-10.266-33.692-25.354-40.653-44.845-8.724-24.429-1.049-51.931 20.03-71.774 1.701-1.602 2.8-3.743 3.109-6.059.044-.331 4.524-33.366 13.131-57.037.566-1.557 1.472-3.849 2.771-6.659 22.353 6.142 37.776 9.381 45.933 9.641.779.025 1.552.037 2.327.037 23.26-.001 44.526-11.138 57.235-30.1.24-.359.46-.729.691-1.092 1.698-.247 3.379-.529 5.009-.87 16.392-3.437 35.109-12.677 34.409-27.447 0-.097-.005-.192-.009-.288-.002-.028-.001-.056-.003-.084-.001-.022 0-.043-.001-.064 0-.003-.001-.005-.001-.008v-.001c-.002-.031-.008-.058-.01-.089-.01-.112-.024-.223-.04-.334-.039-.407-.077-.814-.141-1.191-.066-1.612-.184-3.192-.326-4.756 7.492.152 14.926 1.197 22.124 3.135 5.337 1.437 10.851-1.655 12.405-6.964.303-1.035.571-1.887.843-2.679 6.707-19.491 31.852-34.369 40.566-36.083 5.814 6.713 16.479 33.914 9.772 53.404-2.412 7.011-5.769 12.737-9.978 17.019-3.389 3.449-3.881 8.808-1.177 12.817 10.254 15.197 15.682 32.959 15.7 51.371l-1.09 59.052c-.001.062-.002.125-.002.188 0 26.48-2.786 45.671-9.315 64.172-1.433 4.06-.155 8.581 3.192 11.29 27.913 22.591 50.742 62.179 64.283 111.471 1.241 4.514 5.335 7.478 9.801 7.478.892 0 1.799-.118 2.7-.366 1.84-.506 3.413-1.492 4.642-2.778 8.112-5.668 38.873-29.383 38.873-63.036-.004-22.794-11.45-37.88-21.15-46.572zm-237.586-324.869-10.072-3.406c-.007-.047-.019-.093-.026-.139-.034-.205-.069-.408-.115-.609-.01-.043-.014-.086-.024-.129-2.111-8.751-2.861-19.145-2.944-29.323 5.286 11.882 9.654 23.028 13.181 33.606zm-12.832 8.545 18.471 6.246c.015.016.032.03.047.046.165.177.337.346.514.51.052.049.102.099.155.146.24.214.489.416.748.605.007.005.013.011.021.017 6.815 4.969 9.893 13.024 10.218 27.169l-26.293-8.798c-.167-.501-.363-.997-.614-1.48-4.2-8.08-5.273-15.991-3.267-24.461zm-68.961 29.433c5.347.45 17.159 4.967 27.572 12.546-6.604 3.476-12.561 8.345-17.351 14.531-3.327 4.297-5.976 9.019-7.873 14.035-1.602 4.235-3.602 8.248-5.935 11.998-8.525-18.279-1.305-45.83 3.587-53.11zm87.473 83.405c-10.773 16.075-29.079 25.3-49.035 24.66-8.466-.269-28.576-4.901-56.627-13.04-3.192-.927-3.77-3.717-3.871-4.55-.1-.831-.206-3.672 2.665-5.329v-.001c14.967-8.642 26.743-22.747 33.16-39.717 1.467-3.881 3.522-7.541 6.107-10.879 8.095-10.453 20.476-16.09 33.037-16.09 6.987 0 14.032 1.745 20.422 5.377 10.26 5.83 17.394 15.327 20.089 26.74 2.656 11.26.489 23.225-5.947 32.829zm17.053-8.003c1.484-5.054 2.216-10.309 2.186-15.588l17.385 5.123c-2.877 3.729-9.902 7.882-19.571 10.465zm.456-28.821c-3.691-14.218-12.742-26.035-25.624-33.355-3.559-2.023-7.275-3.589-11.074-4.721.232-.137.47-.269.69-.421l41.821 13.994c.456.153.915.229 1.374.272 6.947 8.066 11.099 17.983 12.589 30.059zm50.539-11.157c-6.656-1.211-13.427-1.822-20.225-1.822h-2.61c-3.042-8.134-7.482-15.32-13.319-21.488.062-.424.108-.853.116-1.293.079-4.132.018-8.522-.39-12.975 13.757-6.688 24.789-7.741 32.852-3.045 7.267 4.234 12.307 12.773 15.765 22.812-4.601 5.005-8.998 10.969-12.189 17.811zm144.167 336.488c-10.867-33.744-29.612-74.22-61.261-102.434 5.756-18.709 8.256-38.366 8.262-64.149l1.09-59.055c.001-.063.002-.125.002-.188 0-19.911-5.187-39.21-15.065-56.269 3.866-5.292 7.021-11.456 9.414-18.411.251-.729.479-1.46.697-2.193.357.192.708.395 1.053.609 14.792 9.166 16.505 36.713 15.918 46.536-.349 5.484 3.642 10.244 9.112 10.76 1.78.198 43.74 5.547 57.569 67.483 13.691 61.319-27.444 82.108-29.144 82.935-3.545 1.667-5.844 5.209-5.868 9.126-.025 3.917 2.175 7.487 5.699 9.198.94.471 23.02 11.83 23.02 37.605-.001 16.205-11.433 30.028-20.498 38.447z" fill="#3c122c"/><path d="m150.934 177.843c-1.511 0-3.044-.338-4.49-1.051-5.037-2.484-7.107-8.582-4.623-13.619 9.146-18.547 24.33-23.251 26.032-23.726 0 0 10.624-2.654 13.134 6.602s-7.487 12.937-7.487 12.937c-.337.108-8.297 2.761-13.436 13.183-1.771 3.591-5.378 5.674-9.13 5.674z" fill="#fff"/><g fill="#3c122c"><path d="m128.02 297.628c-3.073 0-5.717-2.316-6.058-5.441-.366-3.35 2.055-6.362 5.405-6.728l24.341-2.655c3.336-.361 6.361 2.054 6.728 5.404.365 3.35-2.055 6.363-5.405 6.728l-24.341 2.655c-.225.025-.448.037-.67.037z"/><path d="m127.778 280.185c-3.073 0-5.717-2.315-6.058-5.44-.366-3.35 2.055-6.363 5.405-6.728l24.341-2.655c3.342-.359 6.362 2.054 6.728 5.405.365 3.35-2.055 6.362-5.405 6.728l-24.341 2.655c-.225.023-.449.035-.67.035z"/><path d="m282.744 297.628c-.222 0-.445-.012-.669-.036l-24.342-2.655c-3.35-.366-5.77-3.378-5.405-6.728.365-3.351 3.392-5.767 6.728-5.405l24.342 2.655c3.35.366 5.77 3.378 5.405 6.728-.342 3.125-2.986 5.441-6.059 5.441z"/><path d="m282.986 280.185c-.221 0-.445-.012-.669-.036l-24.342-2.655c-3.35-.365-5.77-3.378-5.405-6.728s3.386-5.764 6.728-5.405l24.342 2.655c3.35.366 5.77 3.378 5.405 6.728-.341 3.126-2.986 5.441-6.059 5.441z"/><path d="m200.706 358.523c-.01 0-.021 0-.032 0-11.804-.015-22.627-8.111-28.246-21.128-2.603-6.029-2.005-13.139 1.559-18.555 3.008-4.569 7.633-7.188 12.693-7.188h.019l28.071.035c5.066.007 9.692 2.637 12.692 7.219 3.552 5.425 4.132 12.536 1.513 18.56-5.648 12.991-16.477 21.056-28.269 21.057zm-14.026-34.666c-1.205 0-2.084 1.061-2.5 1.694-.996 1.512-1.737 4.255-.548 7.007 3.66 8.48 10.196 13.752 17.057 13.761h.016c6.856 0 13.397-5.255 17.075-13.718 1.196-2.75.462-5.495-.53-7.009-.415-.635-1.292-1.699-2.498-1.7l-28.071-.035c.001 0 0 0-.001 0z"/><path d="m286.676 378.384c-22.131 0-40.135-15.177-40.135-33.832s18.004-33.832 40.135-33.832c22.13 0 40.134 15.177 40.134 33.832-.001 18.655-18.005 33.832-40.134 33.832zm0-55.459c-15.401 0-27.931 9.702-27.931 21.628 0 11.925 12.53 21.628 27.931 21.628s27.93-9.702 27.93-21.628c-.001-11.926-12.529-21.628-27.93-21.628z"/><path d="m113.128 378.384c-22.13 0-40.134-15.177-40.134-33.832s18.004-33.832 40.134-33.832c22.131 0 40.135 15.177 40.135 33.832-.001 18.655-18.005 33.832-40.135 33.832zm0-55.459c-15.401 0-27.93 9.702-27.93 21.628 0 11.925 12.529 21.628 27.93 21.628s27.931-9.702 27.931-21.628c-.001-11.926-12.53-21.628-27.931-21.628z"/></g></g></g></svg>