<svg id="Capa_1" enable-background="new 0 0 512 512" height="512" viewBox="0 0 512 512" width="512" xmlns="http://www.w3.org/2000/svg"><g><g><path d="m501.882 42.157-81.28 37.959-14.325-19.093.036-.186-.151.033-.139-.185-3.962 1.086-78.771 17.314-91.144 161.045-96.407 42.836 7.966-6.417-54.142-19.984-37.752 28.722-41.731-15.87 8.02 43.006 81.775-.567 10.989 7.597 9.649 150.524 79.308-96.454 102.336-45.47 50.39 116.765 12.997-176.127.143.022 25.445-130.196 32.86 38.088 43.716-33.704-28.837-38.435z" fill="#a1e8c3"/><path d="m281.039 300.367-91.733 40.759-64.018 82.808-1.635-9.319c-1.052 2.102-2.097 4.208-3.14 6.315l7.891 44.971 71.417-92.379 94.641-42.051z" fill="#85adc2"/><path d="m365.721 105.27-27.733 141.906-.129-.02-10.311 139.733 24.999 57.928 12.996-176.126.144.022 26.421-135.195c-8.472-9.738-17.78-18.672-26.387-28.248z" fill="#85adc2"/><circle cx="61.75" cy="50.844" fill="#a2e9c4" r="7.798"/><path d="m142.211 74.966 8.279 23.28c.354.997 1.056 1.786 1.942 2.186l20.683 9.319c2.922 1.317 2.922 5.972 0 7.289l-20.683 9.319c-.885.399-1.587 1.189-1.942 2.186l-8.279 23.28c-1.17 3.289-5.306 3.289-6.476 0l-8.279-23.28c-.354-.997-1.056-1.787-1.942-2.186l-20.683-9.319c-2.922-1.316-2.922-5.972 0-7.289l20.683-9.319c.886-.399 1.587-1.189 1.942-2.186l8.279-23.28c1.17-3.289 5.307-3.289 6.476 0z" fill="#cdf4e3"/><path d="m487.45 246.425 6.141 17.269c.263.739.784 1.325 1.44 1.621l15.343 6.912c2.168.977 2.168 4.43 0 5.407l-15.343 6.913c-.657.296-1.177.882-1.44 1.621l-6.141 17.269c-.868 2.44-3.936 2.44-4.804 0l-6.141-17.269c-.263-.739-.783-1.325-1.44-1.621l-15.343-6.913c-2.168-.977-2.168-4.43 0-5.407l15.343-6.912c.657-.296 1.177-.882 1.44-1.621l6.141-17.269c.868-2.439 3.936-2.439 4.804 0z" fill="#cdf4e3"/><circle cx="245.313" cy="44.271" fill="#a2e9c4" r="14.308"/></g><g><path d="m510.153 36.397c-2.802-4.023-8.093-5.447-12.536-3.372l-73.865 34.495-9.667-12.884c-2.393-3.189-6.444-4.668-10.328-3.772l-37.824 8.727c.029-.072.056-.145.085-.217l-44.891 9.867c-2.796.614-5.199 2.388-6.608 4.88l-90.893 160.601-75.904 32.607c-.177-.077-.345-.168-.527-.235l-54.141-19.984c-3.233-1.193-6.851-.652-9.593 1.434l-33.299 25.334-36.5-13.88c-3.407-1.296-7.247-.652-10.044 1.685-2.797 2.336-4.115 6.001-3.447 9.583l8.02 43.006c.89 4.774 5.057 8.231 9.907 8.231h.071l81.775-.567c1.077-.008 2.136-.193 3.143-.532l3.194 150.768c.089 4.208 2.784 7.917 6.758 9.303 1.087.38 2.207.562 3.316.562 2.945 0 5.81-1.293 7.761-3.646l79.028-95.316 92.643-41.163 47.549 106.999c1.638 3.686 5.279 5.987 9.206 5.987.573 0 1.153-.049 1.732-.15 4.553-.792 7.983-4.579 8.324-9.188l12.873-174.462c.036-.15.077-.298.107-.451l21.498-110.001 19.255 22.511c1.988 2.324 4.814 3.528 7.665 3.528 2.153 0 4.319-.687 6.149-2.098l43.717-33.704c4.367-3.367 5.218-9.619 1.908-14.031l-23.56-31.402 56.758-56.127c3.487-3.447 3.987-8.902 1.185-12.926zm-482.346 265.88-1.344.009-3.183-17.066 17.581 6.686zm19.614-.136 38.738-30.322 4.212 30.024zm282.425-214.178 18.958-4.167-68.012 141.529-21.496-6.781c-1.019-.322-2.062-.461-3.097-.454zm-231.659 182.529 25.354 9.358-21.6 17.4zm27.675 174.212-2.894-136.618.522-.145 64.735 61.546zm80.981-85.33-68.749-65.363 1.615-1.3 112.699-48.415 35.193 79.195zm138.608 44.656-70.895-159.535 80.787 25.485zm13.62-154.01-66.625-21.018 58.67-122.09 29.242 34.187zm66.353-87.246-58.732-68.663 7.236-15.677 27.969-6.453 51.778 69.012zm14.576-73.598-3.887-5.181 17.292-8.075z" fill="#3c122c"/><g fill="#fff"><path d="m220.107 290.164c-3.891 0-7.597-2.266-9.248-6.062-2.22-5.105.119-11.043 5.224-13.262l5.597-2.433c5.105-2.217 11.042.121 13.261 5.227 2.219 5.105-.122 11.042-5.227 13.261l-5.593 2.431c-1.308.569-2.672.838-4.014.838z"/><path d="m175.125 309.715c-3.891 0-7.598-2.267-9.248-6.064-2.219-5.105.121-11.043 5.225-13.261l22.55-9.801c5.105-2.22 11.042.12 13.261 5.225s-.121 11.043-5.226 13.261l-22.55 9.801c-1.307.57-2.671.839-4.012.839z"/></g></g></g></svg>