<svg id="Capa_1" enable-background="new 0 0 512 512" height="512" viewBox="0 0 512 512" width="512" xmlns="http://www.w3.org/2000/svg"><g><g><path d="m399.701 501.562s36.069-22.953 36.069-55.743-28.691-46.725-28.691-46.725 50.503-23.755 34.74-94.353-66.456-75.383-66.456-75.383 6.197-97.714-85.178-45.273c0 0 5.827-131.283-81.459-76.729l8.089 232.27z" fill="#e8c2d8"/><path d="m407.079 399.094s50.503-23.755 34.74-94.353c-2.835-12.696-15.646-29.402-20.242-38.196 20.003 101.189-48.732 148.443-124.035 94.319-4.041-2.905-14.679 33.584-19.531 32.948l121.691 107.751s36.069-22.953 36.069-55.743c-.001-32.79-28.692-46.726-28.692-46.726z" fill="#d392d8"/><path d="m399.731 501.827c-11.974-43.585-33.516-89.022-67.692-116.681 6.423-18.198 9.895-37.828 9.895-67.556l1.091-59.148c0-21.167-6.428-40.832-17.438-57.151 5.052-5.141 9.325-12.074 12.341-20.838 9.185-26.692-7.619-63.904-15.93-66.764s-44.456 16.133-53.64 42.825c-.363 1.055-.684 2.096-.987 3.131-8.5-2.288-17.435-3.516-26.658-3.516h-63.141c-4.715 0-9.245.359-13.598 1.02-.646-5.802-2.429-12-5.526-18.451-12.092-25.181-49.798-39.7-57.639-35.935-7.841 3.766-20.085 42.27-7.994 67.451 4.001 8.331 9.042 14.689 14.649 19.168-11.12 12.607-18.488 26.408-22.26 36.78-9.102 25.032-13.654 59.166-13.654 59.166-24.658 23.212-32.502 54.974-22.636 82.599 8.141 22.794 24.208 39.507 45.589 50.473 18.792 9.639 49.289 13.094 65.989 11.642-9.281 20.417-14.182 49.808-17.475 71.786h256.714z" fill="#fff"/><path d="m332.039 385.146c6.423-18.198 9.895-37.828 9.895-67.556l1.091-59.148c0-21.167-6.428-40.832-17.438-57.151 5.052-5.141 9.325-12.074 12.341-20.838 9.185-26.692-7.619-63.904-15.93-66.764-3.922-1.35-5.042-.501-15.602 6.395 6.543 12.277 11.035 28.079 9.38 47.942-1.042 12.507-17.216 25.739-21.446 30.631 9.219 15.526 16.276 67.756 16.276 87.895l-.276 15.017c0 20.613-8.841 48.633-13.629 67.84-2.793 11.201-4.352 21.266 4.019 29.215 11.256 10.687 19.973 20.971 27.471 39.892 8.346 21.063-7.251 43.907-29.908 43.907h-152.134c-1.201 6.797-2.23 13.383-3.132 19.404h256.714c-11.974-43.585-33.516-89.022-67.692-116.681z" fill="#e1bdfc"/><path d="m237.035 173.148c-.033-.455-.088-.912-.187-1.373-.639-17.749-6.032-33.117-18.367-45.007-.307-19.862-5.578-35.32-18.157-44.492-6.353-21.958-16.203-45.384-28.501-69.837-1.538-3.769-7.162-2.553-7.004 1.516-1.512 22.013-1.609 42.464 2.267 58.527-5.316 13.071-5.402 26.246 1.534 39.593-4.298 13.22-4.487 26.954 1.603 41.385-6.434 13.892-1.625 26.583.112 32.595 7.137 20.175 68.183 7.275 66.7-12.907z" fill="#e8a284"/><path d="m237.035 173.148c-.033-.455-.088-.912-.187-1.373-.454-12.605-3.322-24-9.355-33.811.594 3.251.955 6.615 1.084 10.091.088.394.136.784.165 1.172 1.305 17.22-52.432 28.227-58.714 11.012-.295-.99-.691-2.195-1.097-3.576-4.407 12.613-.198 23.845 1.404 29.391 7.137 20.176 68.183 7.276 66.7-12.906z" fill="#d57b84"/><path d="m82.968 192.216c14.187-8.192 24.709-21.267 30.504-36.59 1.646-4.353 3.966-8.552 6.99-12.456 14.443-18.65 40.789-23.937 61.298-12.283 24.46 13.899 31.572 45.33 16.198 68.271-13.237 19.752-34.566 27.99-54.299 27.362-11.496-.366-38.005-7.438-58.133-13.279-9.744-2.827-11.344-15.952-2.558-21.025z" fill="#e8c2d8"/><path d="m181.759 130.887c-20.508-11.653-46.855-6.367-61.298 12.283-3.024 3.905-5.344 8.104-6.99 12.456-5.794 15.323-16.317 28.399-30.504 36.59-8.786 5.073-7.186 18.197 2.558 21.025 20.128 5.841 46.637 12.913 58.133 13.279 19.733.628 41.061-7.61 54.299-27.362 15.374-22.942 8.262-54.372-16.198-68.271zm2.204 45.388c-6.6 15.804-20.741 24.509-35.05 26.701-8.336 1.277-28.484-.203-43.852-1.662-7.439-.706-10.542-9.817-4.967-14.597 9.003-7.717 14.64-18.415 16.537-30.076.539-3.313 1.586-6.607 3.184-9.785 7.633-15.182 25.827-22.461 42.333-16.923 19.687 6.604 29.482 27.985 21.815 46.342z" fill="#d392d8"/><path d="m467.523 102.653 8.354 23.49c.358 1.006 1.066 1.803 1.959 2.205l20.87 9.403c2.948 1.328 2.948 6.026 0 7.354l-20.87 9.403c-.893.403-1.602 1.199-1.959 2.205l-8.354 23.49c-1.18 3.319-5.354 3.319-6.534 0l-8.354-23.49c-.358-1.006-1.066-1.803-1.959-2.205l-20.87-9.403c-2.949-1.328-2.949-6.026 0-7.354l20.87-9.403c.894-.403 1.602-1.2 1.959-2.205l8.354-23.49c1.18-3.319 5.354-3.319 6.534 0z" fill="#efc5b4"/><path d="m70.307 3.191 6.197 17.425c.265.746.791 1.337 1.453 1.636l15.481 6.975c2.187.985 2.187 4.47 0 5.455l-15.481 6.975c-.663.299-1.188.89-1.453 1.636l-6.197 17.425c-.875 2.462-3.971 2.462-4.847 0l-6.197-17.425c-.265-.746-.791-1.337-1.453-1.636l-15.481-6.975c-2.187-.985-2.187-4.47 0-5.455l15.481-6.975c.663-.299 1.188-.89 1.453-1.636l6.197-17.425c.875-2.462 3.971-2.462 4.847 0z" fill="#efc5b4"/><g fill="#e8a284"><circle cx="23.477" cy="109.25" r="12.395"/><path d="m399.732 76.991c0 5.317-4.31 9.627-9.627 9.627s-9.627-4.31-9.627-9.627c0-5.316 4.31-9.626 9.627-9.626 5.317-.001 9.627 4.309 9.627 9.626z"/></g></g><g><path d="m424.793 399.247c4.371-3.693 9.268-8.607 13.814-14.903 10.942-15.162 22.104-41.663 13.137-81.819-8.865-39.702-28.452-60.166-43.322-70.342-8.797-6.02-16.973-9.269-22.891-11.008-.589-14.571-4.514-43.214-25.46-56.245-2.929-1.822-6.047-3.251-9.344-4.302-.336-10.335-2.627-19.585-4.504-25.546-1.972-6.264-9.309-27.013-20.918-31.008-11.602-3.996-30.159 7.847-35.569 11.57-.113.077-.237.167-.351.247-5.382-12.168-12.651-20.973-21.76-26.289-13.334-7.782-29.483-7.562-48.139.55-2.352-5.045-5.665-9.762-10.32-13.813-6.198-20.549-15.416-42.904-28.135-68.22-2.675-5.915-9.101-9.188-15.499-7.798-6.329 1.369-10.809 6.905-10.887 13.316-1.731 25.458-1.162 43.595 1.852 58.091-5.445 15.459-4.408 30.596 3.097 45.039.309.594.683 1.127 1.085 1.632-.019.097-.032.194-.051.291-1.339-.056-2.677-.068-4.012-.025-8.156-8.615-17.636-14.501-23.826-17.777-5.755-3.046-25.387-12.568-36.385-7.292-10.996 5.282-15.836 26.559-17.058 32.955-1.996 10.45-4.092 30.591 4.299 48.067 1.196 2.49 2.494 4.846 3.877 7.083-2.407 1.936-4.942 3.696-7.606 5.233-6.216 3.589-9.541 10.244-8.677 17.367.604 4.981 3.145 9.245 6.971 12.048-.939 2.126-1.803 4.243-2.564 6.338-7.734 21.27-12.228 48.201-13.67 57.772-25.062 25.275-33.748 59.785-22.639 90.889 8.757 24.522 25.757 43.398 50.524 56.102 16.152 8.286 38.557 12.074 55.822 12.889-5.977 18.405-9.762 40.214-12.723 59.984-.832 5.555 2.996 10.732 8.551 11.564 5.549.832 10.732-2.996 11.564-8.551 3.58-23.899 8.362-50.797 16.675-69.084 1.496-3.291 1.133-7.129-.954-10.081-2.087-2.951-5.579-4.569-9.185-4.261-14.297 1.253-43.264-1.735-60.467-10.558-20.015-10.266-33.692-25.354-40.652-44.845-8.725-24.429-1.05-51.93 20.029-71.773 1.702-1.603 2.801-3.743 3.11-6.061.044-.33 4.506-33.313 13.131-57.034.565-1.554 1.48-3.856 2.774-6.658 22.351 6.141 37.772 9.38 45.929 9.64.778.025 1.553.037 2.326.037 23.262 0 44.527-11.137 57.236-30.101.24-.358.459-.727.69-1.09 1.699-.247 3.38-.53 5.01-.872 16.393-3.438 35.113-12.679 34.409-27.453-.205-2.277-.341-4.569-.533-6.811 7.491.152 14.926 1.198 22.124 3.135 5.34 1.437 10.856-1.66 12.407-6.972.298-1.021.565-1.87.84-2.67 6.707-19.49 31.851-34.368 40.566-36.083 5.814 6.715 16.478 33.914 9.772 53.405-2.411 7.009-5.768 12.734-9.978 17.019-3.389 3.449-3.881 8.807-1.177 12.816 10.254 15.197 15.682 32.959 15.7 51.371l-1.09 59.052c-.001.063-.002.125-.002.188 0 26.481-2.786 45.671-9.315 64.171-1.433 4.06-.155 8.582 3.192 11.29 27.913 22.59 50.741 62.178 64.283 111.471 1.24 4.514 5.335 7.479 9.8 7.479.892 0 1.799-.118 2.7-.367 1.84-.505 3.413-1.492 4.642-2.778 8.112-5.669 38.872-29.383 38.872-63.037-.001-22.797-11.447-37.883-21.147-46.574zm-237.584-324.868-10.072-3.405c-.008-.052-.021-.103-.029-.155-.033-.198-.066-.394-.111-.589-.01-.045-.014-.089-.025-.134-2.112-8.752-2.862-19.146-2.944-29.323 5.285 11.881 9.655 23.028 13.181 33.606zm-12.832 8.543 18.47 6.245c.458.482.947.934 1.485 1.325 6.815 4.97 9.893 13.024 10.218 27.17l-26.292-8.797c-.167-.501-.363-.997-.614-1.481-4.2-8.08-5.273-15.991-3.267-24.462zm-68.961 29.434c5.346.449 17.152 4.974 27.565 12.55-6.601 3.475-12.555 8.344-17.343 14.528-3.328 4.297-5.977 9.019-7.873 14.034-1.601 4.236-3.602 8.25-5.935 12-8.526-18.281-1.306-45.832 3.586-53.112zm87.472 83.406c-10.773 16.075-29.116 25.329-49.035 24.659-8.466-.27-28.577-4.901-56.627-13.041-3.192-.926-3.77-3.716-3.871-4.55-.1-.831-.206-3.672 2.664-5.329 14.967-8.642 26.743-22.747 33.16-39.717 1.467-3.88 3.522-7.541 6.106-10.878 12.597-16.267 35.58-20.873 53.459-10.713 10.26 5.83 17.395 15.326 20.09 26.741 2.658 11.258.491 23.223-5.946 32.828zm17.053-8.004c1.484-5.054 2.216-10.31 2.187-15.589l17.385 5.123c-2.877 3.729-9.903 7.882-19.572 10.466zm.457-28.82c-3.69-14.218-12.741-26.036-25.624-33.356-3.559-2.023-7.276-3.589-11.074-4.721.233-.137.471-.27.691-.421l41.821 13.993c.455.153.915.229 1.374.272 6.946 8.067 11.098 17.985 12.588 30.06zm50.538-11.158c-6.656-1.211-13.426-1.822-20.224-1.822h-2.61c-3.043-8.134-7.482-15.319-13.319-21.487.062-.424.108-.853.117-1.293.079-4.138.018-8.533-.391-12.991 13.762-6.694 24.788-7.727 32.853-3.028 7.267 4.234 12.31 12.77 15.767 22.81-4.604 5.004-9.002 10.968-12.193 17.811zm144.167 336.487c-10.867-33.744-29.611-74.22-61.261-102.434 5.756-18.708 8.256-38.366 8.262-64.148l1.089-59.056c.001-.063.002-.125.002-.188 0-19.911-5.187-39.209-15.065-56.267 3.867-5.294 7.022-11.457 9.414-18.412.251-.728.479-1.459.697-2.192.357.192.709.394 1.054.609 14.792 9.166 16.505 36.713 15.917 46.535-.348 5.483 3.643 10.244 9.113 10.761 1.78.197 43.739 5.546 57.567 67.481 13.692 61.319-27.443 82.108-29.142 82.936-3.546 1.668-5.845 5.208-5.868 9.125-.025 3.917 2.175 7.487 5.699 9.199.939.471 23.018 11.829 23.018 37.604 0 16.205-11.432 30.028-20.496 38.447z" fill="#3c122c"/><path d="m135.4 177.844c-1.511 0-3.044-.338-4.49-1.051-5.038-2.484-7.108-8.581-4.624-13.619 9.146-18.548 24.33-23.251 26.031-23.725 0 0 9.932-3.695 13.572 6.082 3.665 9.844-7.926 13.457-7.926 13.457-.336.108-8.296 2.761-13.435 13.183-1.77 3.591-5.378 5.673-9.128 5.673z" fill="#fff"/><g fill="#3c122c"><path d="m161.487 347.361c-10.218 0-18.53-8.799-18.53-19.615 0-3.37 2.732-6.102 6.102-6.102s6.102 2.732 6.102 6.102c0 4.087 2.838 7.411 6.326 7.411s6.326-3.324 6.326-7.411c0-3.37 2.732-6.102 6.102-6.102s6.102 2.732 6.102 6.102c0 10.816-8.313 19.615-18.53 19.615z"/><path d="m256.019 274.773c-5.443-5.592-12.739-8.729-20.542-8.833-7.813-.115-15.18 2.836-20.771 8.279-5.592 5.444-8.729 12.74-8.833 20.543-.155 11.555 14.879 15.876 29 16.065.324.005.647.007.972.007 13.838-.001 28.303-3.998 28.455-15.291.104-7.802-2.837-15.178-8.281-20.77zm-20.977 23.852c-9.846-.131-15.805-2.624-16.961-4 .121-3.95 1.586-7.657 4.157-10.612 2.949 3.093 7.253 5.192 12.167 5.513 5.541.362 10.608-1.615 13.992-4.965 2.386 2.987 3.686 6.657 3.7 10.519-1.19 1.345-7.193 3.707-17.055 3.545z"/><path d="m123.291 256.338c-7.804-.079-15.174 2.872-20.752 8.33-5.578 5.457-8.698 12.76-8.784 20.563-.036 3.278 1.355 9.33 11.074 13.03 4.83 1.838 11.211 2.892 17.967 2.967.255.003.51.005.764.005 6.474 0 12.579-.909 17.265-2.575 9.798-3.486 11.322-9.506 11.358-12.783.086-7.803-2.872-15.173-8.329-20.752-5.457-5.58-12.76-8.699-20.563-8.785zm-.36 32.686c-9.844-.108-15.808-2.586-16.967-3.961.101-3.558 1.303-6.914 3.41-9.712 2.952 3.506 7.566 5.912 12.878 6.246 5.938.374 11.34-1.926 14.689-5.73 1.948 2.798 3.017 6.102 3.039 9.571-1.187 1.348-7.186 3.735-17.049 3.586z"/></g></g></g></svg>