<svg id="Capa_1" enable-background="new 0 0 512 512" height="512" viewBox="0 0 512 512" width="512" xmlns="http://www.w3.org/2000/svg"><g><g><path d="m382.876 501.741s36.639-17.191 41.074-48.53-20.356-48.432-20.356-48.432 50.168-16.059 45.06-85.606c-5.107-69.547-51.592-80.79-51.592-80.79s18.978-92.574-73.071-54.475c0 0 23.173-124.705-65.359-84.05l-23.893 223.052z" fill="#e8c2d8"/><path d="m401.811 404.497s54.088-15.583 49.675-88.405c-.794-13.096-10.881-31.779-14.053-41.271 3.746 103.962-72.253 140.032-138.59 74.099-3.56-3.538-19.985 31.097-24.715 29.688l103.959 126.75s39.586-17.092 44.827-49.744c5.24-32.654-21.103-51.117-21.103-51.117z" fill="#d392d8"/><path d="m380.489 501.64c-15.144-40.782-39.048-72.655-66.747-93.524l-.01.239c11.222-15.902 19.974-34.003 28.123-62.856l17.273-57.109c5.803-20.544 4.954-41.393-1.259-60.25 6.313-3.605 12.36-9.162 17.69-16.842 16.232-23.389 10.124-64.113 2.841-69.167-7.283-5.055-47.57 3.472-63.802 26.86-.641.924-1.239 1.847-1.816 2.768-7.623-4.551-15.959-8.192-24.91-10.72l-61.283-17.309c-4.577-1.293-9.072-2.186-13.477-2.738.964-5.808.933-12.312-.306-19.424-4.833-27.755-37.45-52.183-46.092-50.678-8.643 1.505-31.082 35.52-26.249 63.275 1.599 9.183 4.75 16.735 8.964 22.62-14.249 9.188-25.184 20.562-31.688 29.596-15.697 21.8-29.471 53.682-29.471 53.682-30.295 15.77-46.616 44.447-44.613 73.964 1.653 24.355 12.666 44.98 30.411 61.486 15.597 14.507 44.25 26.22 60.857 29.389l2.55 1.229c-9.719 32.267-15.939 73.863-15.893 95.508" fill="#fff"/><path d="m312.788 408.194c11.168-15.863 19.889-33.938 28.011-62.695l17.273-57.109c5.802-20.544 4.954-41.393-1.259-60.25 6.313-3.604 12.361-9.162 17.69-16.842 16.232-23.389 10.124-64.113 2.841-69.167-3.36-2.331-13.746-1.766-25.552 1.809 4.747 7.965 3.99 44.48-11.986 65.045-5.513 7.098-11.368 12.13-17.199 15.282 2.888 18.34.956 38.333-6.597 57.72l-21.97 53.837c-7.048 18.091-13.719 31.626-20.797 42.981-5.793 9.294-5.412 21.149 1.114 29.944 8.923 12.026 16.628 26.266 22.696 42.483 6.355 16.984-6.76 34.917-24.866 33.911l-150.37-3.349c-1.094 9.599-1.308 13.179-1.294 19.847h258.909c-15.124-40.734-38.989-72.577-66.644-93.447z" fill="#e1bdfc"/><path d="m274.452 187.608c.097-.449.175-.907.209-1.382 4.431-17.356 3.583-33.76-4.97-48.773 5.352-19.306 4.649-35.763-4.914-48.216.099-23.054-2.768-48.523-7.713-75.682-.416-4.085-6.204-4.507-7.208-.526-7.725 20.87-13.636 40.631-14.454 57.276-8.862 11.135-12.693 23.86-9.778 38.747-7.919 11.569-12.009 24.805-10.22 40.5-10.177 11.612-9.134 25.26-9.163 31.571 1.166 21.553 63.904 26.435 68.211 6.485z" fill="#e8a284"/><path d="m274.452 187.608c.097-.449.175-.907.209-1.382 3.147-12.326 3.612-24.168.565-35.377-.35 3.315-.957 6.672-1.821 10.073-.027.406-.092.797-.174 1.181-3.635 17.033-58.762 12.398-59.945-6.046-.004-1.042-.044-2.32-.044-3.772-7.852 10.951-6.974 23.016-7.001 28.838 1.166 21.553 63.904 26.435 68.211 6.485z" fill="#d57b84"/><path d="m119.951 162.235c16.057-3.891 29.958-13.55 39.924-26.729 2.831-3.743 6.27-7.147 10.306-10.065 19.28-13.937 46.277-11.559 62.806 5.551 19.714 20.407 17.656 52.842-3.746 70.667-18.427 15.347-41.407 17.251-60.323 11.031-11.019-3.624-34.658-18.008-52.473-29.384-8.623-5.507-6.439-18.661 3.506-21.071z" fill="#e8c2d8"/><path d="m232.987 130.992c-16.529-17.109-43.526-19.488-62.806-5.551-4.037 2.918-7.476 6.321-10.306 10.065-9.965 13.178-23.866 22.838-39.924 26.729-9.944 2.41-12.129 15.564-3.506 21.071 17.815 11.377 41.453 25.76 52.472 29.384 18.915 6.221 41.896 4.317 60.323-11.031 21.403-17.825 23.461-50.26 3.747-70.667zm-10.778 44.545c-10.882 13.415-27.041 17.815-41.509 15.866-8.429-1.135-27.503-8.299-41.959-14.082-6.997-2.799-7.408-12.498-.654-15.537 10.906-4.906 19.404-13.654 24.556-24.399 1.463-3.052 3.413-5.942 5.864-8.563 11.704-12.519 31.38-14.387 45.776-4.333 17.17 11.993 20.566 35.467 7.926 51.048z" fill="#d392d8"/><path d="m214.773 292.237c5.862.483 9.321 9.943 6.823 18.751-6.118 21.573-19.359 36.354-33.417 35.195-14.057-1.158-24.7-17.908-27.204-40.191-1.023-9.098 3.938-17.864 9.8-17.381z" fill="#d789b9"/><path d="m214.773 292.238-43.998-3.626c-5.862-.483-10.823 8.284-9.8 17.381 2.504 22.283 13.147 39.032 27.204 40.191 1.876.154 3.737.017 5.569-.375-6.751-2.542-12.646-8.748-13.881-19.742-.645-5.741 4.965-15.582 8.664-15.277l27.763 2.288c1.558.128 2.841 1.269 3.693 2.953.578-1.636 1.119-3.315 1.609-5.043 2.498-8.807-.961-18.268-6.823-18.75z" fill="#c668b9"/><path d="m66.64 163.456c-3.257-2.655-6.289-6.013-8.849-9.97-9.279-14.346-8.826-31.133 1.011-37.496s25.334.109 34.613 14.454c2.32 3.587 4.031 7.326 5.14 11.016" fill="#c1e5ef"/><path d="m48.28 212.23c-2.592-.106-5.334-.641-8.064-1.649-9.896-3.651-15.89-12.112-13.386-18.898 2.503-6.786 12.555-9.328 22.452-5.677 2.474.913 4.704 2.126 6.619 3.539" fill="#c1e5ef"/><path d="m458.205 46.128 8.426 23.691c.361 1.014 1.075 1.818 1.976 2.224l21.048 9.483c2.974 1.34 2.974 6.078 0 7.417l-21.048 9.483c-.901.406-1.615 1.21-1.976 2.224l-8.426 23.691c-1.19 3.347-5.4 3.347-6.59 0l-8.426-23.691c-.361-1.014-1.075-1.818-1.976-2.224l-21.049-9.483c-2.974-1.34-2.974-6.078 0-7.417l21.049-9.483c.901-.406 1.615-1.21 1.976-2.224l8.426-23.691c1.19-3.347 5.399-3.347 6.59 0z" fill="#efc5b4"/><g fill="#e8a284"><circle cx="69.886" cy="46.311" r="12.501"/><path d="m383.363 50.01c0 5.362-4.347 9.709-9.709 9.709s-9.709-4.347-9.709-9.709 4.347-9.709 9.709-9.709 9.709 4.347 9.709 9.709z"/></g></g><g><path d="m435.525 395.068c12.263-13.091 26.269-37.016 23.358-76.646-4.242-57.767-34.991-79.386-50.536-86.686 1.29-13.026 1.466-37.634-12.414-53.359.185-3.347.191-6.354.117-8.842-.197-6.621-1.63-28.771-11.802-35.83s-31.425-.652-37.695 1.479c-2.786.947-6.215 2.255-9.949 3.971-1.484-18.665-6.785-38.24-20.892-49.234-10.609-8.269-24.262-10.473-40.727-6.649-.339-20.951-2.888-44.341-7.78-71.28-.905-6.484-6.199-11.475-12.778-11.956-6.525-.472-12.425 3.607-14.324 9.789-8.916 24.141-13.524 41.852-14.731 56.736-6.98 9.683-10.624 20.169-10.932 31.313-5.262-8.814-11.68-15.75-16.173-20.037-4.751-4.533-21.195-19.164-33.316-17.051-12.12 2.111-22.651 21.436-25.59 27.309-4.802 9.596-12.357 28.57-9.004 47.83.875 5.024 2.183 9.72 3.891 14.078-4.974 2.803-10.267 4.923-15.748 6.251-7.035 1.704-12.144 7.197-13.335 14.335-.743 4.454.165 8.797 2.433 12.381-12.576 18.189-23.448 41.255-27.287 49.743-31.253 17.661-49.145 48.775-46.889 82.009 1.778 26.202 13.103 49.182 33.66 68.302 15.42 14.343 40.502 25.178 57.776 30.007-8.579 32.141-13.576 69.055-13.535 88.63.012 5.657 4.602 10.235 10.256 10.235h.022c5.665-.012 10.247-4.614 10.235-10.278-.043-20.117 5.728-60.227 15.458-92.528 1.456-4.833-.821-10.008-5.369-12.199-1.449-.676-3.494-1.827-5.08-2.063-14.217-2.712-41.515-13.544-55.793-26.824-16.611-15.45-25.75-33.844-27.164-54.67-1.771-26.102 13.217-50.691 39.116-64.172 2.091-1.088 3.744-2.865 4.679-5.028.127-.294 12.316-28.322 26.313-48.798 20.561 12.771 35.013 20.574 42.999 23.201 7.4 2.434 14.96 3.626 22.419 3.626 15.892 0 31.325-5.413 43.764-15.773.331-.275.645-.567.968-.85 1.718.245 3.427.44 5.106.573 2.117.168 4.293.258 6.491.258 15.303 0 31.561-4.365 34.621-17.061 1.391-6.357 2.747-12.84 2.954-18.896l1.764.498c7.891 2.229 15.44 5.477 22.44 9.656 4.791 2.86 10.991 1.366 13.951-3.364.571-.913 1.064-1.664 1.549-2.363 11.852-17.079 40.326-24.621 49.264-23.902 3.802 8.109 6.697 37.434-5.155 54.512-4.264 6.143-9.092 10.78-14.35 13.783-4.235 2.418-6.182 7.484-4.655 12.116 5.786 17.56 6.184 36.288 1.154 54.164l-17.245 57.015c-.018.06-.036.121-.053.182-7.043 24.936-14.751 42.494-25.623 58.282-1.714 1.776-2.761 4.145-2.867 6.694l-.01.239c-.172 4.104 2.115 7.867 5.731 9.638 26.742 20.706 48.038 50.965 61.659 87.646 1.535 4.134 5.451 6.689 9.617 6.689.264 0 .53-.014.795-.035.527.083 1.059.136 1.597.136 1.459 0 2.942-.313 4.35-.974 1.701-.798 41.721-19.966 46.873-56.378 3.062-21.638-5.381-37.551-13.22-47.242 4.501-2.95 9.613-6.97 14.641-12.338zm-189.954-323.505c.025-.207.049-.415.062-.622.003-.045.011-.087.013-.132.446-9.067 2.676-19.339 5.493-29.21 1.734 13.001 2.792 25.029 3.195 36.268l-8.777-6.161c.006-.048.008-.096.014-.143zm-6.084 10.919 16.097 11.298c.018.036.04.07.058.106.086.168.178.333.273.495.073.126.146.251.225.375.108.169.224.333.342.495.056.077.103.157.161.233 5.181 6.747 5.868 15.417 2.159 29.197l-22.938-15.991c-.02-.532-.068-1.068-.174-1.607-1.765-9.015-.553-16.975 3.797-24.601zm-70.933-1.017c6.476 2.431 21.384 14.205 29.356 28.785-10.967.079-21.96 3.426-31.335 10.203-4.442 3.212-8.349 7.027-11.609 11.341-1.148 1.518-2.351 2.978-3.604 4.382-.297-1.224-.568-2.475-.794-3.77-3.507-20.143 11.201-45.18 17.986-50.941zm56.748 115.466c-14.998 12.489-35.358 16.194-54.461 9.913-8.116-2.669-26.257-12.87-51.083-28.725-2.826-1.804-2.591-4.669-2.451-5.505.139-.833.845-3.611 4.094-4.399 16.94-4.105 32.347-14.403 43.383-28.998 2.523-3.338 5.552-6.294 9.002-8.789 7.338-5.305 15.956-7.898 24.538-7.898 11.087 0 22.115 4.33 30.236 12.738 8.27 8.56 12.471 19.779 11.832 31.589-.63 11.65-6.131 22.612-15.09 30.074zm18.778-2.894c2.873-4.468 5.077-9.345 6.549-14.461l15.364 9.901c-3.846 2.79-11.827 4.809-21.913 4.56zm26.116-16.494-17.477-11.264c.474-14.807-4.923-28.815-15.306-39.563-2.869-2.969-6.019-5.542-9.372-7.718.264-.067.531-.127.787-.211l36.486 25.436c.398.277.821.483 1.252.655 4.427 9.781 5.623 20.557 3.63 32.665zm39.593-19.062c-6.128-3-12.533-5.45-19.129-7.313l-9.733-2.749c-1.118-3.928-2.612-7.73-4.484-11.396.181-.393.346-.796.48-1.219 3.102-9.848 5.829-21.458 4.243-32.914 9.361-1.913 16.709-.857 21.927 3.204 10.479 8.156 13.329 27.868 13.327 45.786-2.324 2.006-4.559 4.199-6.631 6.601zm90.677 236.529c-3.724 1.192-6.447 4.398-7.019 8.267-.572 3.868 1.104 7.726 4.324 9.945.196.135 19.528 13.78 16.022 38.551-2.465 17.421-18.055 30.04-27.673 36.281-13.934-33.223-33.938-61.281-58.54-82.019 9.96-15.976 17.377-33.807 24.119-57.658l17.247-57.02c.018-.06.036-.121.053-.181 5.458-19.326 5.714-39.478.803-58.743 5.203-4.076 9.954-9.194 14.184-15.289 1.449-2.088 2.728-4.249 3.859-6.452 1.319 10.049.208 20.46-.832 25.628-1.109 5.412 2.267 10.731 7.637 12.029.392.095 39.267 10.195 43.775 71.572 4.416 60.136-36.292 74.528-37.959 75.089z" fill="#3c122c"/><path d="m177.671 163.659c-2.483 0-4.973-.896-6.944-2.711-4.168-3.836-4.436-10.325-.6-14.493 14.124-15.345 30.137-15.576 31.937-15.553 0 0 8.528-.399 9.13 9.488.688 10.661-9.224 11.024-9.224 11.024-.356.008-8.812.311-16.75 8.934-2.023 2.198-4.782 3.311-7.549 3.311z" fill="#fff"/><g fill="#3c122c"><path d="m189.78 352.403c-.701 0-1.401-.029-2.106-.087-14.39-1.186-25.964-14.273-30.961-35.008-2.397-9.945.023-21.333 6.021-28.336 3.714-4.337 8.452-6.506 13.342-6.099l34.408 2.835c0 .001 0 .001.001.001 4.889.403 9.209 3.315 12.162 8.201 4.771 7.891 5.294 19.52 1.302 28.939-7.917 18.675-20.571 29.554-34.169 29.554zm-14.839-57.268c-1.151 0-2.374 1.279-2.859 1.844-2.95 3.445-5.067 10.543-3.404 17.445 3.636 15.089 11.302 24.909 20.006 25.625 8.694.711 17.873-7.714 23.931-22.005 2.771-6.536 1.845-13.885-.502-17.766-.399-.66-1.455-2.205-2.641-2.303l-34.408-2.835c-.041-.003-.082-.005-.123-.005z"/><path d="m137.446 270.097c-2.428 0-4.729-1.446-5.701-3.834-1.282-3.148.23-6.739 3.378-8.021 4.35-1.784 9.061-4.744 10.432-6.482-.941-1.837-4.595-5.394-8.114-7.82-2.796-1.928-3.505-5.758-1.58-8.556 1.925-2.797 5.75-3.51 8.549-1.59 4.886 3.352 15.954 12.122 13.199 21.149-2.402 7.872-14.264 13.24-17.842 14.698-.761.309-1.547.456-2.321.456zm8.309-17.833h.01z"/><path d="m255.246 283.417c-1.12 0-2.254-.307-3.272-.949-3.709-2.339-15.647-10.748-13.533-20.756 2.025-9.585 15.675-14.487 18.391-15.373 3.231-1.054 6.704.712 7.759 3.944 1.053 3.231-.712 6.705-3.944 7.759-4.817 1.591-9.469 4.619-10.121 6.105.378 1.679 4.258 5.523 8.022 7.916 2.865 1.82 3.719 5.62 1.903 8.488-1.172 1.851-3.166 2.866-5.205 2.866z"/><path d="m66.636 169.61c-1.367 0-2.742-.453-3.885-1.384-3.868-3.153-7.275-6.988-10.128-11.398-5.155-7.971-7.872-16.938-7.648-25.25.243-9.039 4.064-16.604 10.483-20.756 6.419-4.151 14.887-4.534 23.23-1.05 7.672 3.204 14.737 9.358 19.893 17.329 2.584 3.995 4.558 8.23 5.867 12.589.978 3.255-.869 6.687-4.124 7.664-3.253.98-6.687-.868-7.664-4.124-.975-3.246-2.459-6.424-4.413-9.444-3.764-5.82-8.977-10.433-14.301-12.656-2.668-1.115-7.752-2.593-11.801.027-4.051 2.62-4.786 7.861-4.864 10.753-.156 5.768 1.914 12.413 5.679 18.233 2.153 3.329 4.7 6.203 7.57 8.543 2.634 2.147 3.029 6.024.881 8.658-1.217 1.492-2.989 2.266-4.775 2.266z"/><path d="m48.284 218.384c-.085 0-.17-.001-.255-.005-3.325-.136-6.67-.817-9.943-2.024-5.94-2.191-10.996-5.916-14.235-10.489-3.683-5.199-4.701-11.144-2.795-16.312s6.542-9.027 12.719-10.589c5.433-1.372 11.697-.923 17.637 1.268 2.963 1.093 5.703 2.561 8.143 4.361 2.734 2.019 3.315 5.872 1.297 8.606-2.019 2.735-5.871 3.314-8.606 1.297-1.506-1.111-3.219-2.025-5.093-2.716-3.581-1.321-7.357-1.643-10.361-.883-1.032.261-3.506 1.067-4.188 2.915-.682 1.849.676 4.069 1.291 4.938 1.791 2.528 4.871 4.736 8.451 6.056 2.065.762 4.146 1.19 6.185 1.274 3.396.139 6.036 3.004 5.898 6.4-.136 3.31-2.862 5.903-6.145 5.903z"/></g></g></g></svg>