<svg id="Capa_1" enable-background="new 0 0 512 512" height="512" viewBox="0 0 512 512" width="512" xmlns="http://www.w3.org/2000/svg"><g><g><g fill="#6cbff8"><path d="m253.028 8.731-28.831 28.831c-1.642 1.642-1.642 4.303 0 5.944l28.831 28.831c1.642 1.642 4.303 1.642 5.944 0l28.831-28.831c1.642-1.642 1.642-4.303 0-5.944l-28.831-28.831c-1.641-1.641-4.303-1.641-5.944 0z"/><path d="m40.373 134.94 10.553 39.384c.601 2.242 2.906 3.573 5.148 2.972l39.384-10.553c2.242-.601 3.573-2.906 2.972-5.148l-10.553-39.384c-.601-2.242-2.906-3.573-5.148-2.972l-39.384 10.553c-2.242.6-3.573 2.905-2.972 5.148z"/><path d="m43.345 382.208 39.384 10.553c2.242.601 4.547-.73 5.148-2.972l10.553-39.384c.601-2.242-.73-4.547-2.972-5.148l-39.384-10.553c-2.242-.601-4.547.73-5.148 2.972l-10.553 39.384c-.601 2.243.73 4.548 2.972 5.148z"/><path d="m258.972 503.269 28.831-28.831c1.642-1.642 1.642-4.303 0-5.944l-28.831-28.831c-1.642-1.642-4.303-1.642-5.944 0l-28.831 28.831c-1.642 1.642-1.642 4.303 0 5.944l28.831 28.831c1.641 1.641 4.303 1.641 5.944 0z"/><path d="m471.627 377.06-10.553-39.384c-.601-2.242-2.906-3.573-5.148-2.972l-39.384 10.553c-2.242.601-3.573 2.906-2.972 5.148l10.553 39.384c.601 2.242 2.906 3.573 5.148 2.972l39.384-10.553c2.242-.6 3.573-2.905 2.972-5.148z"/><path d="m468.655 129.792-39.384-10.553c-2.242-.601-4.547.73-5.148 2.972l-10.553 39.384c-.601 2.242.73 4.547 2.972 5.148l39.384 10.553c2.242.601 4.547-.73 5.148-2.972l10.553-39.384c.601-2.243-.73-4.548-2.972-5.148z"/><path d="m253.482 189.423-53.881 31.108c-1.558.899-2.518 2.562-2.518 4.36v62.217c0 1.799.96 3.461 2.518 4.36l53.881 31.108c1.558.899 3.477.899 5.035 0l53.881-31.108c1.558-.899 2.518-2.562 2.518-4.36v-62.217c0-1.799-.96-3.461-2.518-4.36l-53.881-31.108c-1.557-.9-3.477-.9-5.035 0z"/></g><path d="m312.399 220.531-15.679-9.052c.16.498.253 1.02.253 1.558v63.218c0 1.828-.975 3.517-2.558 4.431l-54.749 31.609c-.875.505-1.862.721-2.838.667l16.654 9.615c1.558.899 3.477.899 5.035 0l53.881-31.108c1.558-.899 2.518-2.562 2.518-4.36v-62.217c0-1.799-.959-3.461-2.517-4.361z" fill="#5fa7ee"/></g><path d="m468.324 335.738c-.81-3.021-2.746-5.545-5.453-7.108-2.708-1.563-5.861-1.977-8.882-1.169 0 0-40.051 10.755-40.373 10.873l-23.243-13.417 67.149-20.507c3.962-1.21 6.193-5.402 4.983-9.363-1.211-3.962-5.404-6.193-9.363-4.983l-80.538 24.596-22.716-13.113 14.855-8.379c3.608-2.035 4.883-6.61 2.848-10.217-2.034-3.608-6.611-4.883-10.217-2.848l-22.575 12.734-12.38-7.146v-59.381l12.38-7.146 22.575 12.734c3.607 2.036 8.183.759 10.217-2.848 2.035-3.608.761-8.182-2.848-10.217l-14.855-8.379 22.716-13.113 80.538 24.596c3.937 1.204 8.147-.998 9.363-4.983 1.21-3.962-1.021-8.154-4.983-9.363l-67.149-20.507 23.243-13.417c1.087.397-1.469-.363 40.373 10.873 6.247 1.672 12.66-2.024 14.334-8.276l10.553-39.383c.81-3.02.396-6.175-1.168-8.883-1.564-2.707-4.087-4.644-7.106-5.453l-39.385-10.553c-3.019-.81-6.175-.396-8.882 1.169-2.707 1.563-4.644 4.087-5.452 7.106-11.193 41.859-10.578 39.284-10.774 40.413l-23.24 13.415 15.817-68.412c.933-4.036-1.583-8.064-5.618-8.997-4.03-.929-8.064 1.582-8.997 5.618l-18.969 82.048-22.712 13.111.171-17.051c.041-4.142-3.283-7.533-7.425-7.575-.025 0-.051 0-.077 0-4.107 0-7.456 3.309-7.498 7.425l-.26 25.911-12.386 7.15-51.415-29.685v-14.298l22.312-13.181c3.566-2.107 4.75-6.706 2.643-10.273-2.107-3.566-6.705-4.748-10.272-2.643l-14.683 8.674v-26.227l61.57-57.45c3.029-2.826 3.193-7.572.367-10.6-2.824-3.028-7.57-3.193-10.6-.367l-51.337 47.901v-26.833c.267-.223.528-.455.776-.704l28.832-28.832c2.21-2.21 3.428-5.15 3.428-8.276s-1.218-6.065-3.428-8.276l-28.832-28.832c-4.563-4.562-11.989-4.561-16.552 0l-28.832 28.833c-2.21 2.21-3.428 5.15-3.428 8.276s1.218 6.065 3.428 8.276c0 0 29.341 29.312 29.608 29.536v26.833l-51.337-47.901c-3.029-2.827-7.776-2.662-10.6.367-2.826 3.028-2.662 7.775.367 10.6l61.57 57.45v26.227l-14.683-8.674c-3.566-2.106-8.164-.923-10.272 2.643-2.107 3.566-.924 8.166 2.643 10.273l22.312 13.181v14.298l-12.629 7.292c-3.587 2.071-4.817 6.658-2.745 10.245 2.072 3.588 6.661 4.817 10.245 2.745l12.629-7.293 51.417 29.686v59.371l-51.417 29.687-51.417-29.686v-59.371l8.229-4.751c3.587-2.071 4.817-6.658 2.745-10.245-2.071-3.587-6.66-4.817-10.245-2.745l-8.225 4.749-12.386-7.149-.26-25.911c-.042-4.116-3.392-7.425-7.498-7.425-.026 0-.052 0-.077 0-4.142.042-7.466 3.433-7.425 7.575l.171 17.051-22.712-13.113-18.969-82.048c-.934-4.036-4.963-6.552-8.997-5.618-4.035.933-6.551 4.961-5.618 8.997l15.817 68.412-23.24-13.415c-.06-.343-.129-.686-.22-1.028l-10.553-39.384c-.81-3.021-2.746-5.545-5.453-7.108-2.709-1.564-5.86-1.978-8.881-1.169l-39.387 10.553c-3.019.809-5.542 2.746-7.106 5.453-1.564 2.708-1.978 5.863-1.169 8.879l.415 1.551c1.07 4.001 5.181 6.377 9.185 5.306 3.44-.921 5.679-4.089 5.558-7.503l33.202-8.896 8.847 33.016-33.016 8.846-.224-.836c-1.072-4.001-5.191-6.374-9.186-5.304-4.001 1.072-6.376 5.184-5.305 9.185l1.077 4.021c.81 3.021 2.746 5.545 5.453 7.108 1.804 1.041 3.805 1.573 5.833 1.573 1.017 0 2.04-.134 3.049-.404 0 0 40.051-10.755 40.373-10.873l23.243 13.417-67.149 20.508c-3.962 1.21-6.193 5.402-4.983 9.363.987 3.232 3.958 5.312 7.17 5.312.726 0 1.464-.106 2.193-.329l80.537-24.596 22.716 13.113-14.855 8.379c-3.608 2.035-4.883 6.61-2.848 10.217 1.378 2.443 3.921 3.817 6.539 3.817 1.248 0 2.514-.312 3.678-.969l22.575-12.734 12.38 7.146v59.381l-12.38 7.146-22.575-12.734c-3.606-2.035-8.182-.76-10.217 2.848s-.761 8.182 2.848 10.217l14.855 8.379-22.716 13.113-80.536-24.595c-3.959-1.211-8.154 1.021-9.363 4.983-1.21 3.962 1.021 8.154 4.983 9.363l67.149 20.507-23.243 13.417c-.323-.118-.65-.229-.989-.32l-39.385-10.553c-3.022-.809-6.175-.394-8.882 1.169s-4.644 4.088-5.452 7.107l-10.554 39.383c-.81 3.02-.396 6.175 1.168 8.883 1.564 2.707 4.087 4.644 7.106 5.453l39.385 10.553c6.244 1.674 12.66-2.023 14.334-8.275l10.554-39.386c.092-.342.161-.685.22-1.027l23.24-13.415-15.817 68.412c-.933 4.036 1.583 8.064 5.618 8.997 4.053.937 8.068-1.6 8.997-5.618l18.969-82.048 22.712-13.111-.171 17.051c-.041 4.142 3.283 7.533 7.425 7.575h.077c4.107 0 7.456-3.309 7.498-7.425l.26-25.911 12.386-7.15 51.414 29.684v14.298l-22.312 13.181c-3.566 2.107-4.75 6.706-2.643 10.273s6.706 4.748 10.272 2.643l14.683-8.674v26.227l-61.57 57.45c-3.029 2.826-3.193 7.572-.367 10.6 2.825 3.029 7.571 3.194 10.6.367l51.337-47.901v26.833c-.267.223-.528.455-.776.704l-28.832 28.832c-2.21 2.211-3.428 5.15-3.428 8.276s1.218 6.065 3.428 8.276l28.833 28.833c2.282 2.28 5.279 3.42 8.276 3.42s5.995-1.141 8.276-3.421l28.832-28.833c2.21-2.211 3.428-5.15 3.428-8.276s-1.218-6.065-3.428-8.276c0 0-29.341-29.313-29.608-29.536v-26.833l51.337 47.901c3.041 2.838 7.787 2.648 10.6-.367 2.826-3.028 2.662-7.775-.367-10.6l-61.57-57.45v-26.227l14.683 8.674c3.574 2.111 8.169.916 10.272-2.643 2.107-3.566.924-8.166-2.643-10.273l-22.312-13.179v-14.298l51.414-29.684 12.386 7.149.26 25.911c.042 4.116 3.392 7.425 7.498 7.425h.077c4.142-.042 7.466-3.433 7.425-7.575l-.171-17.051 22.712 13.111 18.969 82.048c.802 3.467 3.888 5.813 7.301 5.812.56 0 1.128-.063 1.696-.194 4.035-.933 6.551-4.961 5.618-8.997l-15.817-68.412 23.24 13.415c.06.343.129.686.22 1.028l10.553 39.384c.81 3.021 2.746 5.545 5.453 7.108 1.804 1.042 3.805 1.573 5.833 1.573 2.29 0 3.644-.629 5.92-1.173 4.002-1.071 6.377-5.183 5.306-9.185-1.044-3.898-4.978-6.249-8.874-5.381l-8.849-33.023 33.016-8.846 8.851 33.032c-3.708 1.261-5.851 5.201-4.823 9.039 1.073 4.002 5.183 6.376 9.186 5.304 1.246-.524 6.673-.749 9.808-6.176 1.564-2.708 1.978-5.863 1.168-8.881zm-37.806-208.405 33.016 8.846-8.847 33.016-33.016-8.846zm-198.687-86.803 24.169-24.171 24.169 24.17-24.169 24.171zm-150.349 344.137-33.016-8.846 8.847-33.016 33.016 8.846zm198.688 86.803-24.17 24.171-24.17-24.17 24.17-24.171z"/></g></svg>