<svg id="Capa_1" enable-background="new 0 0 512 512" height="512" viewBox="0 0 512 512" width="512" xmlns="http://www.w3.org/2000/svg"><g><g><path d="m125.767 81.684h-6.058c-5.12-25.16-27.372-44.094-54.043-44.094s-48.924 18.934-54.044 44.094c-.723 3.574-1.106 7.269-1.106 11.055 0 12.459 4.13 23.951 11.096 33.182 1.383 1.833 3.579 2.87 5.875 2.87h98.802c6.503 0 12.396-2.638 16.658-6.9 4.335-4.335 6.989-10.349 6.898-16.991-.181-12.963-11.114-23.216-24.078-23.216z" fill="#ddebfd"/><path d="m479.871 163.345c-51.422 7.891-100.36-26.881-109.825-78.037-4.572-24.71.66-48.894 12.896-68.622 2.855-4.604-1.335-10.325-6.585-8.989-16.509 4.202-32.304 12.29-45.976 24.375-45.52 40.237-49.93 110.442-9.853 156.102 40.044 45.623 109.46 50.551 155.559 10.853 10.228-8.808 18.452-19.077 24.631-30.232 2.613-4.717-1.895-10.18-7.05-8.601-4.45 1.364-9.055 2.423-13.797 3.151z" fill="#ebb34c"/><path d="m493.669 160.195c-4.45 1.363-9.056 2.422-13.797 3.15-51.422 7.891-100.36-26.881-109.825-78.037-4.572-24.71.66-48.894 12.896-68.622 2.855-4.604-1.335-10.325-6.585-8.989-12.21 3.108-24.027 8.348-34.886 15.752.186-.048.371-.103.558-.151 5.25-1.336 9.44 4.385 6.585 8.989-12.236 19.728-17.468 43.912-12.896 68.622 9.465 51.156 58.403 85.928 109.825 78.037 4.742-.728 9.347-1.787 13.797-3.15 5.156-1.579 9.663 3.884 7.05 8.601-6.18 11.155-14.403 21.425-24.631 30.232-3.224 2.776-6.565 5.326-9.999 7.667 15.869-4.127 31.064-11.847 44.327-23.268 10.228-8.808 18.452-19.078 24.631-30.232 2.613-4.717-1.895-10.18-7.05-8.601z" fill="#e69642"/><path d="m411.836 277.958c-5.436-5.436-12.953-8.799-21.243-8.799h-42.638c5.072-12.36 7.921-25.872 8.048-40.029.532-59.488-47.733-108.593-107.222-109.039-58.606-.44-106.512 45.767-108.802 103.703-.079 2.004-1.726 3.585-3.732 3.586-8.552.001-29.173.003-29.173.003-28.126 0-50.927 22.801-50.927 50.927s22.801 50.926 50.927 50.926h283.033c16.338 0 30.062-12.849 30.517-29.181.24-8.627-3.166-16.475-8.788-22.097z" fill="#ddebfd"/><path d="m328.877 229.129c-.115 12.858-2.476 25.185-6.709 36.6-.617 1.664.609 3.429 2.383 3.429h23.405c5.072-12.36 7.921-25.872 8.048-40.029.532-59.488-47.733-108.593-107.222-109.039-4.892-.037-9.707.259-14.429.852 53.506 6.75 95.017 52.996 94.524 108.187z" fill="#bed9fd"/><path d="m411.836 277.958c-5.436-5.436-12.953-8.799-21.243-8.799h-27.127c8.29 0 15.807 3.363 21.242 8.799 5.622 5.622 9.027 13.47 8.788 22.097-.454 16.332-14.179 29.181-30.517 29.181h27.127c16.338 0 30.062-12.849 30.517-29.181.241-8.627-3.165-16.475-8.787-22.097z" fill="#bed9fd"/><g fill="#6cbff8"><path d="m279.447 478.797c0 14.196-11.508 25.703-25.703 25.703-14.196 0-25.703-11.508-25.703-25.703 0-19.835 21.354-42.6 25.703-42.6 4.348 0 25.703 22.765 25.703 42.6z"/><g><path d="m378.914 426.97c0 14.196-11.508 25.703-25.703 25.703s-25.703-11.508-25.703-25.703c0-19.835 21.354-42.6 25.703-42.6s25.703 22.765 25.703 42.6z"/><path d="m179.98 426.97c0 14.196-11.508 25.703-25.703 25.703s-25.703-11.508-25.703-25.703c0-19.835 21.354-42.6 25.703-42.6s25.703 22.765 25.703 42.6z"/></g></g></g><g><path d="m157.347 104.791c-.233-16.88-14.399-30.613-31.577-30.613h-.246c-8.023-25.885-32.278-44.094-59.856-44.094-6.682 0-13.262 1.048-19.557 3.115-3.936 1.292-6.078 5.53-4.786 9.465s5.53 6.079 9.465 4.786c4.782-1.57 9.787-2.366 14.877-2.366 22.565 0 42.203 16.019 46.694 38.09.711 3.494 3.784 6.004 7.349 6.004h6.059c9.021 0 16.457 7.097 16.578 15.82.125 9.055-7.179 16.287-16.056 16.287h-98.776c-6.213-8.283-9.497-18.154-9.497-28.552 0-9.673 2.869-19.188 8.67-27.417 2.387-3.386 1.577-8.065-1.809-10.451-3.385-2.386-8.065-1.577-10.451 1.809-7.676 10.89-11.41 23.455-11.41 36.06 0 13.733 4.36 26.77 12.609 37.7 2.766 3.665 7.2 5.853 11.862 5.853h98.803c17.209-.001 31.296-14.031 31.055-31.496z"/><path d="m505.962 157.438c-3.495-4.307-9.179-6.039-14.477-4.415-4.138 1.265-8.427 2.244-12.744 2.91-22.93 3.52-46.074-2.015-65.164-15.581s-31.926-33.599-36.145-56.414c-4.061-21.91.161-44.391 11.889-63.3 2.926-4.716 2.7-10.65-.576-15.119-3.274-4.464-8.86-6.461-14.226-5.094-18.314 4.659-34.833 13.413-49.099 26.02-26.523 23.445-40.866 57.301-39.714 92.468-39.036-13.543-84.923-5.568-117.623 25.714-20.888 19.982-33.372 46.588-35.394 75.251h-25.61c-32.217 0-58.428 26.212-58.428 58.429s26.211 58.427 58.428 58.427h213.936c4.142 0 7.5-3.358 7.5-7.5s-3.358-7.5-7.5-7.5h-213.938c-23.946 0-43.428-19.481-43.428-43.427s19.482-43.429 43.428-43.429h29.176c6.055-.001 10.985-4.743 11.224-10.791 1.033-26.132 12.033-50.502 30.973-68.621 19.001-18.176 43.955-28.054 70.279-27.88 26.661.2 51.871 10.867 70.81 30.119 34.334 34.903 38.118 87.851 11.716 126.783-2.325 3.429-1.43 8.092 1.999 10.417 3.45 2.34 8.107 1.408 10.417-1.999 3.495-5.154 6.569-10.604 9.187-16.251h37.742c6.021 0 11.682 2.345 15.94 6.603 4.426 4.426 6.768 10.317 6.594 16.586-.335 12.07-10.662 21.89-23.02 21.89h-34.1c-4.142 0-7.5 3.358-7.5 7.5s3.358 7.5 7.5 7.5h34.1c20.402 0 37.455-16.362 38.014-36.473.29-10.433-3.61-20.238-10.982-27.609-7.091-7.091-16.519-10.996-26.546-10.996h-32.018c3.364-11.108 5.11-23.137 4.917-35.359 13.097 4.753 26.73 7.099 40.301 7.099 27.768 0 55.251-9.79 77.191-28.686 10.671-9.19 19.518-20.049 26.3-32.284 2.667-4.824 2.146-10.706-1.329-14.988zm-34.759 35.905c-30.335 26.126-72.788 32.309-109.185 16.208-3.797-23.387-14.739-45.039-31.784-62.366-8.657-8.801-18.459-16.04-29.062-21.586-3.366-33.249 9.239-65.868 34.18-87.915 11.53-10.189 24.74-17.496 39.313-21.752-12.244 21.403-16.5 46.374-11.984 70.737 4.932 26.667 19.921 50.074 42.206 65.911 22.284 15.836 49.317 22.292 76.133 18.179 3.799-.585 7.578-1.379 11.28-2.369-5.641 9.362-12.725 17.744-21.097 24.953z"/><path d="m253.749 428.696c-7.532 0-16.894 11.875-20.57 16.98-4.719 6.554-12.634 19.572-12.634 33.12 0 18.308 14.895 33.203 33.204 33.203 18.308 0 33.203-14.895 33.203-33.203 0-13.548-7.916-26.566-12.634-33.12-3.675-5.105-13.037-16.98-20.569-16.98zm0 68.304c-10.038 0-18.204-8.166-18.204-18.203 0-13.109 12.424-28.803 18.204-33.951 5.78 5.148 18.203 20.843 18.203 33.951 0 10.037-8.166 18.203-18.203 18.203z"/><path d="m353.217 376.869c-7.532 0-16.894 11.875-20.57 16.98-4.718 6.554-12.634 19.572-12.634 33.12 0 18.309 14.895 33.204 33.204 33.204 18.308 0 33.203-14.895 33.203-33.204 0-13.548-7.916-26.566-12.634-33.12-3.676-5.106-13.038-16.98-20.569-16.98zm0 68.304c-10.038 0-18.204-8.166-18.204-18.204 0-13.108 12.424-28.803 18.204-33.951 5.78 5.148 18.203 20.842 18.203 33.951 0 10.038-8.166 18.204-18.203 18.204z"/><path d="m154.281 376.869c-9.749 0-33.203 27.326-33.203 50.1 0 18.309 14.895 33.204 33.203 33.204 18.309 0 33.204-14.895 33.204-33.204-.001-22.898-23.523-50.1-33.204-50.1zm0 68.304c-10.037 0-18.203-8.166-18.203-18.204 0-13.108 12.423-28.803 18.203-33.951 5.779 5.147 18.204 20.841 18.204 33.951-.001 10.038-8.167 18.204-18.204 18.204z"/></g></g></svg>