<svg id="Capa_1" enable-background="new 0 0 512 512" height="512" viewBox="0 0 512 512" width="512" xmlns="http://www.w3.org/2000/svg"><g><g><path d="m301.733 96.693-134.015-20.642c-1.817-.28-3.457 1.126-3.457 2.965v146.84c0 1.839 1.639 3.245 3.457 2.965l81.745-12.591c3.887-.599 7.824.737 10.544 3.578l154.083 160.909c2.29 2.392 5.983 2.755 8.695.855l25.035-17.533c2.712-1.899 3.633-5.493 2.169-8.463l-115.938-235.178c-6.261-12.7-18.324-21.55-32.318-23.705z" fill="#df646e"/><path d="m432.027 369.861-165.147-172.462c-2.916-3.045-7.133-4.476-11.299-3.834l-87.615 13.495c-1.948.3-3.705-1.207-3.705-3.178v21.974c0 1.839 1.639 3.245 3.457 2.965l81.745-12.591c3.887-.599 7.824.737 10.544 3.578l154.083 160.909c2.29 2.392 5.983 2.755 8.695.855l13.626-9.543c-1.621-.184-3.183-.914-4.384-2.168z" fill="#cd5668"/><path d="m355.18 163.25-89.399 62.59-5.774-6.032c-2.72-2.84-6.654-4.178-10.544-3.578l-12.653 1.95v-131.49l64.923 10.003c14 2.16 26.058 11.005 32.318 23.705z" fill="#ddebfd"/><path d="m282.743 213.964-15.863-16.565c-2.916-3.045-7.133-4.476-11.299-3.834l-18.771 2.891v21.724c12.537-1.836 12.834-2.197 15.214-2.053 2.519.152 4.941 1.077 6.908 2.687.991.81 1.029.987 6.849 7.026z" fill="#bed9fd"/><path d="m420.08 294.91-52.769 36.959-50.76-53.01 71.079-49.779z" fill="#ddebfd"/><path d="m367.311 331.869 16.961-11.879-50.761-53.009-16.96 11.878z" fill="#bed9fd"/><path d="m61.319 33.287v-3.337c0-12.399 10.051-22.45 22.45-22.45h3.364c12.399 0 22.451 10.051 22.451 22.451v3.337c0 5.52-4.475 9.996-9.996 9.996h-28.274c-5.52-.001-9.995-4.476-9.995-9.997z" fill="#df646e"/><path d="m70.472 225.837v273.663c0 2.761 2.239 5 5 5h19.958c2.761 0 5-2.239 5-5v-273.663z" fill="#5d91b9"/><path d="m61.319 73.648v157.576c0 2.204 1.787 3.991 3.991 3.991h40.283c2.204 0 3.991-1.787 3.991-3.991v-157.576c0-2.204-1.787-3.991-3.991-3.991h-40.283c-2.205 0-3.991 1.786-3.991 3.991z" fill="#6cbff8"/></g><g><path d="m456.707 352.26-115.939-235.179c-13.211-26.798-41.26-28.12-42.095-28.446-4.092-.627-7.923 2.18-8.553 6.273-.629 4.094 2.18 7.923 6.273 8.553 1.239.469 21.23.596 30.92 20.252l18.282 37.084-78.856 55.208-1.327-1.385c-4.409-4.604-10.805-6.773-17.102-5.803l-4.011.618v-113.998l17.275 2.661c4.092.63 7.924-2.177 8.554-6.271s-2.177-7.923-6.271-8.554l-95.01-14.635c-3.029-.469-6.106.411-8.434 2.408s-3.664 4.902-3.664 7.97v10.224l-39.677 11.465v-27.058c0-6.336-5.155-11.491-11.491-11.491h-12.639v-11.373h6.637c9.647 0 17.496-7.849 17.496-17.496v-3.336c0-16.515-13.436-29.951-29.951-29.951h-3.364c-16.515 0-29.951 13.436-29.951 29.951v3.336c0 9.647 7.849 17.496 17.496 17.496h6.637v11.374h-12.642c-6.336 0-11.491 5.155-11.491 11.491v157.577c0 5.534 3.934 10.167 9.152 11.25v257.025c0 6.893 5.607 12.5 12.5 12.5h19.96c6.893 0 12.5-5.607 12.5-12.5v-129.26c0-4.142-3.358-7.5-7.5-7.5s-7.5 3.358-7.5 7.5v126.76h-14.96v-254.285h14.96v92.525c0 4.142 3.358 7.5 7.5 7.5s7.5-3.358 7.5-7.5v-92.766c5.219-1.083 9.154-5.715 9.154-11.251v-27.059l39.677 11.465v10.225c0 6.438 5.742 11.356 12.098 10.378l81.745-12.591c1.47-.226 2.958.28 3.985 1.352l154.084 160.91c4.902 5.118 12.647 5.849 18.414 1.811l25.035-17.533c5.784-4.049 7.716-11.587 4.594-17.921zm-387.898-318.973v-3.336c0-8.244 6.707-14.951 14.951-14.951h3.364c8.244 0 14.951 6.707 14.951 14.951v3.336c0 1.376-1.12 2.496-2.496 2.496h-28.274c-1.376 0-2.496-1.119-2.496-2.496zm0 43.87h33.266v150.558h-1.557c-.033 0-.064-.005-.097-.005s-.064.004-.097.005h-29.766c-.033 0-.064-.005-.097-.005s-.064.004-.097.005h-1.555zm48.266 111.395v-72.233l39.677-11.465v95.163zm54.677-104.29 57.549 8.865v118.619l-57.549 8.864zm156.255 195.724 56.753-39.746 25.742 52.216-42.23 29.577zm24.3-105.575 25.742 52.217-60.538 42.397-40.273-42.057zm66.722 200.629-40.261-42.045 38.444-26.926 25.742 52.216z"/><path d="m165.526 320.89h63.309c4.142 0 7.5-3.358 7.5-7.5s-3.358-7.5-7.5-7.5h-63.309c-4.142 0-7.5 3.358-7.5 7.5s3.358 7.5 7.5 7.5z"/><path d="m308.075 345.241h-119.909c-4.142 0-7.5 3.358-7.5 7.5s3.358 7.5 7.5 7.5h119.909c4.142 0 7.5-3.358 7.5-7.5s-3.358-7.5-7.5-7.5z"/><path d="m228.835 384.592h-63.309c-4.142 0-7.5 3.358-7.5 7.5s3.358 7.5 7.5 7.5h63.309c4.142 0 7.5-3.358 7.5-7.5s-3.358-7.5-7.5-7.5z"/></g></g></svg>