<svg id="Capa_1" enable-background="new 0 0 512 512" height="512" viewBox="0 0 512 512" width="512" xmlns="http://www.w3.org/2000/svg"><g><g><path d="m367.016 371.039c.001 73.708-59.752 133.461-133.461 133.461s-133.461-59.752-133.461-133.461c0-93.248 110.644-217.82 133.461-217.82 18.314 0 133.459 124.572 133.461 217.82z" fill="#6cbff8"/><path d="m233.555 153.219c-2.87 0-7.13 1.978-12.385 5.61 35.176 30.151 110.829 127.171 110.83 202.976.001 71.859-56.47 130.112-126.129 130.112-15.245 0-29.858-2.79-43.386-7.902 20.579 12.973 44.945 20.486 71.069 20.486 73.708 0 133.462-59.752 133.461-133.461-.001-93.249-115.146-217.821-133.46-217.821z" fill="#5fa7ee"/><path d="m317.519 242.036c-33.627-50.262-73.776-88.817-83.964-88.817-12.693 0-52.56 38.556-85.444 88.817z" fill="#ddebfd"/><path d="m263.981 175.977c-5.308-5.308-11.718-11.312-17.686-15.908-2.783-2.141-9.221-6.85-12.74-6.85-3.748 0-9.308 3.476-12.385 5.61 17.407 14.921 44.721 46.217 67.877 83.207h28.472c-17.826-26.642-37.482-49.994-53.538-66.059z" fill="#bed9fd"/><path d="m104.045 199.098c0 26.197-21.237 47.434-47.434 47.434s-47.434-21.237-47.434-47.434c0-33.142 39.325-74.315 47.434-74.315 6.509 0 47.434 41.173 47.434 74.315z" fill="#ddebfd"/><path d="m56.611 124.783c-1.429 0-3.83 1.283-6.811 3.571 14.246 14.266 34.042 41.198 34.042 64.249 0 26.197-21.237 47.434-47.434 47.434-1.372 0-2.727-.071-4.07-.186 7.102 4.24 15.401 6.682 24.274 6.682 26.197 0 47.435-21.237 47.434-47.434-.001-33.143-40.926-74.316-47.435-74.316z" fill="#bed9fd"/></g><g><path d="m267.391 168.791c-23.484-23.071-31.005-23.071-33.836-23.071-22.83 0-82.485 68.606-113.878 130.256-1.879 3.691-.411 8.207 3.28 10.087 3.689 1.877 8.206.411 10.087-3.28 5.555-10.91 12.041-22.133 19.166-33.246h161.279c20.647 31.497 46.026 78.886 46.027 121.502 0 69.616-56.337 125.961-125.961 125.961-69.455 0-125.961-56.506-125.961-125.961 0-16.985 3.93-36.196 11.68-57.099 1.44-3.884-.541-8.2-4.425-9.64-3.883-1.439-8.2.542-9.64 4.425-8.371 22.578-12.615 43.543-12.615 62.314 0 77.726 63.235 140.961 140.961 140.961 77.903 0 140.963-63.045 140.961-140.961-.001-67.308-59.417-155.377-107.125-202.248zm-105.115 65.746c9.288-13.272 19.318-26.104 29.589-37.726 23.138-26.183 37.753-35.492 41.491-36.068 6.092 1.728 35.626 26.018 69.443 73.204.137.191.281.397.42.59z"/><path d="m246.407 414.829c0 15.581 12.676 28.257 28.257 28.257s28.257-12.676 28.257-28.257-12.676-28.257-28.257-28.257-28.257 12.676-28.257 28.257zm41.514 0c0 7.31-5.947 13.257-13.257 13.257-7.311 0-13.258-5.947-13.258-13.257s5.947-13.257 13.258-13.257c7.31 0 13.257 5.947 13.257 13.257z"/><path d="m192.446 298.992c-15.581 0-28.257 12.676-28.257 28.257s12.676 28.257 28.257 28.257 28.257-12.676 28.257-28.257-12.676-28.257-28.257-28.257zm0 41.514c-7.31 0-13.257-5.947-13.257-13.257s5.947-13.257 13.257-13.257 13.257 5.947 13.257 13.257-5.947 13.257-13.257 13.257z"/><path d="m276.696 317.291-96.889 96.89c-2.929 2.929-2.929 7.678 0 10.606 1.464 1.464 3.384 2.197 5.303 2.197s3.839-.732 5.303-2.197l96.89-96.89c2.929-2.929 2.929-7.678 0-10.606-2.931-2.93-7.679-2.928-10.607 0z"/><path d="m111.545 199.098c0-25.393-21.358-55.987-39.695-72.88-8.546-7.874-12.5-8.935-15.239-8.935-9.259 0-23.237 15.875-28.817 22.701-2.622 3.207-2.147 7.932 1.06 10.554s7.931 2.147 10.554-1.06c7.461-9.126 13.948-14.703 17-16.642 9.148 6.143 40.137 39.605 40.137 66.263 0 10.667-4.154 20.695-11.696 28.238s-17.571 11.697-28.238 11.697c-22.02 0-39.935-17.915-39.935-39.935 0-6.41 1.775-13.73 5.276-21.757 1.656-3.797-.08-8.217-3.876-9.873-3.798-1.655-8.217.08-9.873 3.876-4.331 9.93-6.527 19.268-6.527 27.754 0 30.291 24.644 54.935 54.935 54.935 14.673 0 28.469-5.714 38.845-16.09 10.375-10.377 16.09-24.173 16.089-38.846z"/><path d="m451.096 59.25c-37.064-37.049-88.164-59.25-143.042-59.25-68.08 0-130.495 34.056-167.739 89.183-2.319 3.433-1.416 8.095 2.016 10.414 3.433 2.318 8.095 1.416 10.414-2.016 5.367-7.945 11.285-15.392 17.675-22.317l24.468 24.468c1.464 1.464 3.384 2.197 5.303 2.197s3.839-.732 5.303-2.197c2.929-2.929 2.929-7.678 0-10.606l-24.459-24.459c32.432-29.941 74.654-47.711 119.518-49.499v34.583c0 4.142 3.357 7.5 7.5 7.5s7.5-3.358 7.5-7.5v-34.588c45.992 1.821 87.77 20.301 119.456 49.566l-24.397 24.397c-2.929 2.929-2.929 7.678 0 10.606 1.465 1.464 3.385 2.197 5.304 2.197s3.839-.732 5.304-2.197l24.397-24.397c29.265 31.686 47.744 73.463 49.565 119.456h-34.588c-4.143 0-7.5 3.358-7.5 7.5s3.357 7.5 7.5 7.5h34.583c-1.788 44.864-19.558 87.086-49.499 119.518l-24.459-24.459c-2.93-2.929-7.678-2.929-10.607 0s-2.929 7.678 0 10.606l24.469 24.469c-6.924 6.39-14.371 12.308-22.315 17.675-3.433 2.319-4.335 6.981-2.017 10.414 1.449 2.145 3.814 3.302 6.222 3.302 1.444 0 2.904-.417 4.191-1.286 105.628-71.36 119.687-221.027 29.934-310.78z"/></g></g></svg>