<svg id="Capa_1" enable-background="new 0 0 512 512" height="512" viewBox="0 0 512 512" width="512" xmlns="http://www.w3.org/2000/svg"><g><g><g><path d="m474.874 76.157h-8.276c-6.439-31.642-34.424-55.453-67.965-55.453s-61.526 23.811-67.965 55.453c-.91 4.495-1.391 9.141-1.391 13.903 0 17.337 6.359 33.184 16.873 45.34h128.725c8.178 0 15.589-3.318 20.949-8.677 5.36-5.36 8.677-12.762 8.677-20.949-.001-16.356-13.271-29.617-29.627-29.617z" fill="#ddebfd"/><path d="m454.82 236.182c-6.836-6.836-16.29-11.066-26.715-11.066h-53.622c6.378-15.544 9.961-32.537 10.121-50.341.669-74.813-60.029-136.568-134.844-137.129-73.704-.553-133.951 57.557-136.831 130.419-.1 2.52-2.171 4.509-4.693 4.509-10.755.002-36.689.004-36.689.004-35.372 0-64.047 28.675-64.047 64.047s28.675 64.046 64.047 64.046h355.946c20.547 0 37.807-16.16 38.378-36.698.302-10.851-3.981-20.721-11.051-27.791z" fill="#ddebfd"/><g fill="#bed9fd"><path d="m454.82 236.182c-6.836-6.836-16.29-11.066-26.715-11.066h-34.115c10.425 0 19.879 4.23 26.715 11.066 7.07 7.07 11.353 16.94 11.051 27.79-.571 20.539-17.831 36.698-38.378 36.698h34.115c20.547 0 37.807-16.16 38.378-36.698.302-10.85-3.981-20.72-11.051-27.79z"/><path d="m350.488 174.775c-.145 16.171-3.114 31.673-8.437 46.029-.776 2.092.766 4.312 2.997 4.312h29.434c6.378-15.544 9.961-32.537 10.121-50.341.669-74.813-60.029-136.568-134.844-137.129-6.152-.046-12.207.325-18.146 1.071 67.291 8.488 119.496 66.648 118.875 136.058z"/></g></g><path d="m346.599 400.697c.001 50.037-40.563 90.599-90.599 90.599s-90.599-40.563-90.599-90.599c0-63.301 75.11-147.866 90.599-147.866 12.433 0 90.598 84.565 90.599 147.866z" fill="#6cbff8"/><path d="m256 252.831c-1.245 0-2.879.553-4.825 1.591 27.241 26.826 71.037 86.12 71.037 133.504.001 50.037-40.563 90.599-90.599 90.599-10.252 0-20.105-1.705-29.295-4.844 15.025 11.07 33.587 17.615 53.681 17.615 50.037 0 90.6-40.563 90.599-90.599.001-63.301-78.165-147.866-90.598-147.866z" fill="#5fa7ee"/><g fill="#6cbff8"><path d="m466.369 416.049c0 20.022-16.231 36.254-36.254 36.254s-36.254-16.231-36.254-36.254c0-25.33 30.056-59.17 36.254-59.17 4.975 0 36.254 33.84 36.254 59.17z"/><path d="m118.139 416.049c0 20.022-16.231 36.254-36.254 36.254s-36.254-16.231-36.254-36.254c0-25.33 30.056-59.17 36.254-59.17 4.975 0 36.253 33.84 36.254 59.17z"/></g></g><g><path d="m474.87 68.662h-2.398c-9.405-32.479-39.526-55.46-73.842-55.46-29.246 0-55.711 16.641-68.63 42.274-59.363-40.998-138.946-30.924-186.714 20.861-2.809 3.044-2.617 7.79.428 10.598 3.044 2.809 7.789 2.618 10.598-.428 49.105-53.233 133.552-56.023 185.806-2.905 21.291 21.644 34.057 49.383 36.54 79.213 2.411 29.016-4.912 58.083-21.584 82.67-2.324 3.429-1.43 8.092 1.999 10.417 1.29.875 2.754 1.293 4.202 1.293 2.403 0 4.765-1.153 6.215-3.292 4.568-6.738 8.556-13.881 11.91-21.285h48.705c16.933 0 30.749 13.92 30.27 31.147-.451 16.215-14.304 29.407-30.881 29.407h-46.752c-4.143 0-7.5 3.358-7.5 7.5s3.357 7.5 7.5 7.5h46.752c24.621 0 45.2-19.734 45.875-43.99.35-12.583-4.354-24.41-13.245-33.301-8.553-8.553-19.924-13.263-32.019-13.263h-42.895c7.498-23.248 9.151-49.298 3.601-74.716h86.059c9.915 0 19.239-3.863 26.254-10.877 7.014-7.015 10.876-16.338 10.876-26.253 0-20.462-16.656-37.11-37.13-37.11zm15.648 52.756c-4.182 4.181-9.738 6.483-15.647 6.483h-90.208c-7.945-23.598-22.328-45.675-42.518-63.054 9.866-22.111 31.964-36.645 56.486-36.645 29.294 0 54.788 20.799 60.62 49.456.711 3.494 3.784 6.004 7.35 6.004h8.271c12.202 0 22.13 9.918 22.13 22.11-.002 5.909-2.305 11.466-6.484 15.646z"/><path d="m345.74 308.172c4.143 0 7.5-3.358 7.5-7.5s-3.357-7.5-7.5-7.5h-37.754c-8.892-11.739-18.448-22.761-27.329-31.487-16.645-16.353-22.26-16.353-24.657-16.353-13.772 0-38.834 28.734-53.183 47.839h-131.267c-31.182 0-56.55-25.368-56.55-56.55 0-31.176 25.368-56.54 56.55-56.54 0 0 25.936 0 36.69-.01 6.572 0 11.924-5.145 12.184-11.713.769-19.409 5.751-37.896 14.81-54.948 1.943-3.658.554-8.199-3.104-10.142-3.657-1.944-8.197-.552-10.142 3.105-9.705 18.269-15.224 38.002-16.421 58.7-11.843.008-34.017.008-34.017.008-39.453 0-71.55 32.093-71.55 71.54 0 39.453 32.097 71.55 71.55 71.55h120.728c-15.081 22.895-34.377 58.784-34.377 92.527 0 54.092 44.007 98.099 98.1 98.099s98.1-44.007 98.1-98.099c-.001-33.353-19.877-69.436-35.398-92.527h27.037zm-89.74 175.626c-45.821 0-83.1-37.278-83.1-83.099 0-14.561 4.77-45.791 36.715-91.36 20.369-29.057 40.157-46.619 46.137-48.845 5.932 2.807 26.063 21.465 46.063 49.617 13.924 19.601 37.283 57.433 37.284 90.587.001 45.822-37.278 83.1-83.099 83.1z"/><path d="m430.115 349.381c-11.622 0-43.754 38.411-43.754 66.67 0 24.126 19.628 43.754 43.754 43.754s43.754-19.628 43.754-43.754c0-27.752-32.932-66.67-43.754-66.67zm0 95.424c-15.854 0-28.754-12.899-28.754-28.754 0-18.695 20.608-44.419 28.552-50.717 8.202 6.745 28.956 32.627 28.956 50.717 0 15.855-12.899 28.754-28.754 28.754z"/><path d="m94.904 357.214c-6.617-6.501-9.99-7.833-13.02-7.833-9.274 0-22.673 17.782-26.559 23.232-6.422 9.008-17.195 26.629-17.195 43.438 0 24.126 19.628 43.754 43.754 43.754s43.754-19.628 43.754-43.754c0-16.639-11.085-34.39-17.692-43.491-4.137-5.699-8.769-11.149-13.042-15.346zm-13.019 87.591c-15.854 0-28.754-12.899-28.754-28.754 0-18.695 20.607-44.419 28.552-50.717 8.202 6.745 28.956 32.628 28.956 50.717 0 15.855-12.9 28.754-28.754 28.754z"/><path d="m283.907 408.834c-11.905 0-21.592 9.686-21.592 21.591s9.687 21.591 21.592 21.591 21.591-9.686 21.591-21.591-9.685-21.591-21.591-21.591zm0 28.182c-3.635 0-6.592-2.957-6.592-6.591s2.957-6.591 6.592-6.591c3.634 0 6.591 2.957 6.591 6.591s-2.957 6.591-6.591 6.591z"/><path d="m249.685 370.972c0-11.905-9.687-21.591-21.592-21.591s-21.591 9.686-21.591 21.591 9.686 21.591 21.591 21.591 21.592-9.686 21.592-21.591zm-28.183 0c0-3.634 2.957-6.591 6.591-6.591 3.635 0 6.592 2.957 6.592 6.591s-2.957 6.591-6.592 6.591c-3.634 0-6.591-2.957-6.591-6.591z"/><path d="m294.19 362.509c-2.93-2.929-7.678-2.929-10.607 0l-65.773 65.773c-2.929 2.929-2.929 7.678 0 10.606 2.93 2.929 7.678 2.929 10.607 0l65.773-65.773c2.929-2.928 2.929-7.677 0-10.606z"/></g></g></svg>