<svg id="Capa_1" enable-background="new 0 0 512 512" height="512" viewBox="0 0 512 512" width="512" xmlns="http://www.w3.org/2000/svg"><g><g><g><path d="m499.781 46.885c-1.206-3.428-3.897-6.119-7.326-7.326-29.226-10.286-63.046-3.762-86.418 19.609-23.372 23.372-29.895 57.192-19.61 86.418 1.206 3.428 3.897 6.119 7.326 7.326 29.226 10.286 63.046 3.762 86.418-19.61 23.372-23.371 29.895-57.191 19.61-86.417z" fill="#70c6db"/><path d="m499.781 46.885c-1.016-2.886-3.091-5.237-5.766-6.633 4.348 25.642-3.358 52.925-23.149 72.716-23.371 23.372-57.192 29.895-86.418 19.61-.542-.191-1.058-.431-1.56-.693.786 4.639 1.964 9.225 3.539 13.702 1.206 3.428 3.897 6.119 7.326 7.326 29.226 10.286 63.046 3.762 86.418-19.61s29.895-57.192 19.61-86.418z" fill="#64b0cb"/></g><g><path d="m353.233 472.44c3.428-1.207 6.119-3.897 7.326-7.326 10.286-29.226 3.762-63.046-19.609-86.418-23.372-23.372-57.192-29.895-86.418-19.61-3.428 1.207-6.119 3.897-7.326 7.326-10.286 29.226-3.762 63.046 19.61 86.418 23.37 23.373 57.191 29.896 86.417 19.61z" fill="#70c6db"/><path d="m353.233 472.44c2.886-1.016 5.237-3.091 6.633-5.766-25.642 4.348-52.925-3.358-72.716-23.149-23.372-23.371-29.895-57.192-19.61-86.418.191-.542.431-1.058.693-1.56-4.639.786-9.225 1.964-13.702 3.539-3.428 1.207-6.119 3.897-7.326 7.326-10.286 29.226-3.762 63.046 19.61 86.418s57.192 29.896 86.418 19.61z" fill="#64b0cb"/></g></g><g><path d="m12.749 282.277c7.515-7.358 15.305-13.592 23.153-18.528 3.506-2.206 4.561-6.837 2.356-10.343-2.207-3.507-6.839-4.561-10.343-2.356-8.75 5.503-17.383 12.403-25.661 20.506-2.96 2.898-3.01 7.647-.112 10.607 1.469 1.501 3.414 2.254 5.361 2.254 1.892.001 3.785-.711 5.246-2.14z"/><path d="m383.831 248.971c-29.196 29.399-60.829 45.188-94.021 46.929-28.212 1.478-57.836-6.671-90.537-24.918-41.111-22.939-89-46.423-137.11-34.649-4.024.985-6.487 5.045-5.503 9.069.984 4.023 5.045 6.486 9.069 5.503 42.823-10.482 87.614 11.629 126.234 33.177 74.767 41.719 142.181 36.21 202.512-24.54 2.919-2.939 2.903-7.689-.036-10.608-2.94-2.919-7.689-2.904-10.608.037z"/><path d="m12.457 204.392c46.137-40.626 92.322-20.292 141.218 1.235 24.968 10.993 50.787 22.36 76.8 25.223 31.314 3.447 57.383-6.212 80.376-26.458 3.11-2.738 3.41-7.477.673-10.587-2.737-3.108-7.477-3.411-10.586-.672-46.139 40.625-92.323 20.291-141.218-1.235-24.968-10.993-50.787-22.36-76.8-25.223-30.113-3.315-56.394 5.341-80.376 26.458-3.11 2.738-3.41 7.477-.673 10.587 2.738 3.108 7.477 3.411 10.586.672z"/><path d="m180.2 147.619c16.81 8.123 38.344 16.989 60.888 16.989 30.2 0 62.019-19.439 76.259-42.627 9.489-15.453 11.369-32.227 5.437-48.508-5.251-14.416-19.541-25.76-35.559-28.23-13.947-2.149-28.091 2.587-36.914 12.36-9.8 10.853-11.854 27.476-4.885 39.526 3.992 6.903 11.32 12.194 19.605 14.155 7.788 1.842 15.467.63 21.62-3.415 3.461-2.276 4.422-6.927 2.147-10.388-2.275-3.462-6.926-4.422-10.388-2.147-3.602 2.369-7.763 1.865-9.924 1.353-4.279-1.013-8.139-3.721-10.074-7.067-3.739-6.465-2.434-15.907 3.034-21.964 5.395-5.977 14.614-8.955 23.494-7.586 23.119 3.564 34.42 29.966 19.624 54.061-12.198 19.862-37.705 32.861-55.512 35.007-11.64 1.403-29.239.962-62.323-15.025-3.735-1.806-8.217-.239-10.018 3.49-1.803 3.729-.241 8.214 3.489 10.016z"/><path d="m151.754 294.945c-19.223-9.289-44.628-19.552-70.645-16.412-21.829 2.632-51.682 17.92-66.501 42.051-9.489 15.453-11.37 32.226-5.438 48.508 5.252 14.415 19.543 25.759 35.56 28.23 2.226.343 4.454.511 6.668.511 11.654 0 22.83-4.657 30.247-12.871 9.799-10.855 11.853-27.477 4.884-39.525-3.992-6.902-11.319-12.194-19.604-14.155-7.788-1.845-15.468-.631-21.621 3.415-3.461 2.276-4.422 6.927-2.147 10.388 2.276 3.461 6.927 4.422 10.388 2.147 6.213-4.084 16.291-.696 19.997 5.714 3.739 6.464 2.435 15.906-3.033 21.963-5.397 5.978-14.619 8.958-23.494 7.586-10.604-1.635-20.37-9.258-23.751-18.538-4.371-11.996-2.982-23.947 4.126-35.523 12.198-19.862 37.705-32.861 55.512-35.007 11.634-1.404 29.235-.963 62.324 15.025 3.732 1.803 8.215.238 10.017-3.49 1.803-3.729.241-8.214-3.489-10.017z"/><path d="m506.907 44.405c-1.939-5.512-6.375-9.965-11.911-11.913-16.123-5.674-33.468-6.685-50.167-2.922-4.041.911-6.58 4.925-5.669 8.966.91 4.042 4.927 6.578 8.966 5.669 11.887-2.678 24.163-2.45 35.863.605l-92.276 92.276c-6.681-25.735.71-53.644 19.668-72.603 2.588-2.588 5.374-5 8.28-7.172 3.319-2.48 3.998-7.18 1.519-10.499-2.479-3.318-7.178-3.998-10.498-1.519-3.48 2.6-6.813 5.487-9.908 8.581-24.508 24.508-32.901 61.492-21.383 94.219.112.319.259.617.386.928l-20.182 20.182c-2.929 2.929-2.929 7.678 0 10.608 2.93 2.929 7.678 2.929 10.608 0l20.185-20.185c.306.125.6.27.914.38 9.745 3.43 19.862 5.094 29.919 5.093 23.723-.001 47.091-9.265 64.302-26.476 24.509-24.506 32.902-61.49 21.384-94.218zm-31.992 83.612c-18.956 18.956-46.857 26.348-72.589 19.672l92.262-92.262c6.675 25.732-.715 53.634-19.673 72.59z"/><path d="m252.066 352.052c-.318.112-.616.258-.926.385l-20.181-20.181c-2.93-2.929-7.679-2.929-10.608 0s-2.929 7.678 0 10.608l20.185 20.185c-.125.306-.27.601-.38.915-11.519 32.729-3.125 69.713 21.382 94.22 17.214 17.213 40.578 26.476 64.302 26.476 10.056 0 20.177-1.665 29.918-5.093 5.571-1.96 9.99-6.451 11.912-11.912 11.519-32.729 3.124-69.713-21.383-94.22-24.508-24.508-61.494-32.901-94.221-21.383zm73.737 117.617c-19.796-.001-39.297-7.731-53.658-22.092-18.956-18.956-26.348-46.857-19.672-72.59l92.269 92.269c-6.237 1.619-12.602 2.413-18.939 2.413zm29.546-13.023-92.279-92.279c25.779-6.696 53.678.744 72.608 19.675 18.96 18.96 26.352 46.869 19.671 72.604z"/></g></g></svg>