<svg id="Capa_1" enable-background="new 0 0 512 512" height="512" viewBox="0 0 512 512" width="512" xmlns="http://www.w3.org/2000/svg"><g><g><ellipse cx="256" cy="323.276" fill="#ddebfd" rx="181.225" ry="181.225" transform="matrix(.707 -.707 .707 .707 -153.61 275.705)"/><path d="m316.647 152.459c54.637 31.212 91.466 90.036 91.466 157.465 0 100.088-81.137 181.225-181.225 181.225-21.273 0-41.684-3.677-60.647-10.411 26.463 15.117 57.101 23.76 89.759 23.76 100.088 0 181.225-81.137 181.225-181.225 0-78.813-50.318-145.866-120.578-170.814z" fill="#bed9fd"/><path d="m437.225 323.275c0 49.528-19.876 94.406-52.081 127.118l-31.584-32.791c23.618-24.423 38.151-57.677 38.151-94.325 0-74.956-60.755-135.72-135.711-135.72v-45.507c100.087.001 181.225 81.138 181.225 181.225z" fill="#df646e"/><path d="m436.947 313.29c-4.07-74.965-53.675-137.226-120.282-160.82 54.627 31.214 91.448 90.033 91.448 157.455 0 45.311-16.63 86.738-44.118 118.511l21.149 21.957c10.064-10.222 18.925-21.635 26.351-34.003 18.288-30.47 27.466-66.026 25.452-103.1z" fill="#cd5668"/><path d="m256 142.051v45.507c-74.956 0-135.711 60.764-135.711 135.72 0 36.647 14.533 69.902 38.151 94.325l-31.584 32.791c-32.205-32.712-52.081-77.59-52.081-127.118 0-100.087 81.138-181.225 181.225-181.225z" fill="#6cbff8"/><circle cx="256" cy="323.275" fill="#6bbdd5" r="20.158"/><path d="m145.223 74.275v120.215c0 2.382 1.271 4.583 3.334 5.774l104.109 60.107c2.063 1.191 4.605 1.191 6.668 0l104.109-60.107c2.063-1.191 3.334-3.392 3.334-5.774v-120.215c0-2.382-1.271-4.583-3.334-5.774l-104.109-60.108c-2.063-1.191-4.605-1.191-6.668 0l-104.109 60.108c-2.063 1.191-3.334 3.392-3.334 5.774z" fill="#5d91b9"/><circle cx="256" cy="134.383" fill="#dcf2f6" r="20.321"/><path d="m363.443 68.501-19.989-11.541c.206.651.326 1.333.326 2.035v122.155c0 2.421-1.291 4.657-3.388 5.868l-105.79 61.078c-.608.351-1.259.588-1.925.735l19.989 11.541c2.063 1.191 4.605 1.191 6.668 0l104.109-60.107c2.063-1.191 3.334-3.392 3.334-5.774v-120.216c0-2.382-1.271-4.583-3.334-5.774z" fill="#4980ac"/></g><g><path d="m444.727 323.278c0-57.627-25.637-111.004-70.454-147.058v-101.95c0-5.045-2.714-9.747-7.084-12.269l-104.109-60.108c-4.37-2.524-9.799-2.524-14.169 0l-26.444 15.267c-3.587 2.071-4.816 6.658-2.745 10.245 2.071 3.588 6.659 4.818 10.245 2.745l26.027-15.027 103.279 59.628v119.255l-103.279 59.628-103.278-59.628v-119.255l46.07-26.598c3.587-2.071 4.816-6.658 2.745-10.245-2.071-3.588-6.658-4.817-10.245-2.745l-46.485 26.837c-4.37 2.522-7.084 7.224-7.084 12.27v101.96c-44.81 36.046-70.444 89.42-70.444 147.048 0 104.001 84.621 188.722 188.722 188.722 28.317 0 55.539-6.116 80.911-18.177 3.741-1.778 5.332-6.253 3.553-9.994-1.778-3.74-6.253-5.334-9.994-3.553-23.343 11.097-48.399 16.724-74.47 16.724-45.77 0-87.454-17.801-118.516-46.832l26.357-27.367c2.802-2.909 2.797-7.514-.011-10.417-23.241-24.029-36.041-55.674-36.041-89.107 0-38.867 17.072-74.744 47.003-99.209l74.125 42.796c4.371 2.523 9.798 2.522 14.167 0l74.124-42.796c29.931 24.465 47.003 60.342 47.003 99.209 0 33.432-12.799 65.078-36.041 89.107-2.808 2.903-2.813 7.508-.011 10.417l26.41 27.422c-4.923 4.606-10.109 8.93-15.531 12.93-3.333 2.459-4.042 7.154-1.583 10.488 2.447 3.316 7.139 4.054 10.488 1.583 22.726-16.766 42.367-39.364 55.856-65.485 13.695-26.518 20.933-56.417 20.933-86.461zm-331.943 0c0 34.92 12.503 68.097 35.352 94.203l-21.174 21.985c-27.763-30.802-44.688-71.554-44.688-116.188 0-48.916 20.06-94.507 55.528-127.331.468 4.479 3.056 8.533 7 10.81l16.197 9.351c-30.77 27.18-48.215 65.646-48.215 107.17zm272.29 116.235-21.219-22.032c22.849-26.106 35.352-59.283 35.352-94.203 0-41.524-17.446-79.989-48.214-107.17l16.196-9.351c3.948-2.279 6.536-6.337 7.002-10.819 35.473 32.831 55.537 78.425 55.537 127.34 0 28.055-6.48 54.83-19.26 79.58-6.827 13.218-15.406 25.567-25.394 36.655z"/><path d="m204.375 404.046c0 12.814 10.425 23.239 23.239 23.239s23.239-10.425 23.239-23.239-10.425-23.239-23.239-23.239-23.239 10.425-23.239 23.239zm31.478 0c0 4.543-3.696 8.239-8.239 8.239s-8.239-3.696-8.239-8.239 3.696-8.239 8.239-8.239 8.239 3.696 8.239 8.239z"/><path d="m274.635 417.546h16.017c1.082 0 1.962.88 1.962 1.962 0 4.142 3.358 7.5 7.5 7.5s7.5-3.358 7.5-7.5c0-9.353-7.609-16.963-16.963-16.963h-16.017c-9.353 0-16.963 7.609-16.963 16.963v25.475c0 9.353 7.609 16.962 16.963 16.962h16.017c9.353 0 16.963-7.609 16.963-16.962 0-4.142-3.358-7.5-7.5-7.5s-7.5 3.358-7.5 7.5c0 1.082-.88 1.962-1.962 1.962h-16.017c-1.082 0-1.962-.88-1.962-1.962v-25.475c0-1.081.88-1.962 1.962-1.962z"/><path d="m283.654 323.272c0-15.251-12.407-27.658-27.659-27.658-15.251 0-27.658 12.407-27.658 27.658 0 1.298.097 2.573.27 3.824l-66.33 30.176c-3.77 1.715-5.436 6.162-3.721 9.933 1.257 2.763 3.981 4.396 6.831 4.396 1.039 0 2.094-.217 3.102-.675l66.151-30.095c5.077 6.164 12.764 10.1 21.354 10.1 15.252 0 27.66-12.408 27.66-27.659zm-40.317 0c0-6.98 5.678-12.658 12.658-12.658s12.658 5.678 12.658 12.658-5.678 12.658-12.658 12.658c-7.005.001-12.658-5.709-12.658-12.658z"/><path d="m207.777 106.54-13.99 3.154c-4.041.911-6.578 4.925-5.667 8.966.786 3.485 3.88 5.852 7.31 5.852.546 0 1.101-.06 1.656-.185l19.058-4.296 12.897 7.446c-.566 2.208-.867 4.52-.867 6.902s.302 4.694.867 6.902l-12.897 7.446-19.058-4.296c-4.045-.912-8.055 1.626-8.966 5.667s1.626 8.055 5.667 8.966l13.99 3.154-4.264 13.693c-1.232 3.955.976 8.159 4.931 9.391 3.946 1.23 8.157-.968 9.391-4.931l5.809-18.653 12.916-7.457c3.293 3.22 7.379 5.627 11.935 6.905v14.9l-13.25 14.357c-2.809 3.044-2.619 7.789.425 10.598s7.789 2.619 10.598-.425l9.726-10.539 9.726 10.539c2.81 3.045 7.555 3.234 10.598.425 3.044-2.81 3.234-7.554.425-10.598l-13.25-14.357v-14.9c4.556-1.278 8.642-3.685 11.935-6.905l12.916 7.457 5.808 18.653c1.235 3.969 5.45 6.16 9.39 4.931 3.955-1.231 6.163-5.436 4.932-9.39l-4.264-13.694 13.99-3.154c4.041-.911 6.578-4.925 5.667-8.966s-4.923-6.576-8.966-5.667l-19.058 4.296-12.897-7.446c.566-2.208.867-4.52.867-6.901 0-2.382-.302-4.694-.867-6.902l12.898-7.446 19.058 4.296c.556.125 1.11.185 1.656.185 3.429 0 6.524-2.367 7.31-5.852.911-4.041-1.626-8.055-5.667-8.966l-13.99-3.154 4.263-13.693c1.232-3.955-.976-8.159-4.931-9.391s-8.16.977-9.391 4.931l-5.808 18.653-12.916 7.457c-3.293-3.22-7.379-5.627-11.935-6.905v-14.9l13.25-14.357c2.809-3.044 2.619-7.789-.425-10.598s-7.789-2.619-10.598.425l-9.726 10.539-9.726-10.539c-2.809-3.044-7.554-3.234-10.598-.425-3.044 2.81-3.234 7.554-.425 10.598l13.25 14.357v14.9c-4.556 1.277-8.642 3.685-11.935 6.905l-12.916-7.457-5.809-18.653c-1.23-3.955-5.437-6.162-9.391-4.931-3.955 1.231-6.163 5.436-4.931 9.391zm48.218 15.017c7.069 0 12.821 5.752 12.821 12.821s-5.752 12.821-12.821 12.821c-7.07 0-12.821-5.752-12.821-12.821s5.751-12.821 12.821-12.821z"/></g></g></svg>