<svg id="Capa_1" enable-background="new 0 0 512 512" height="512" viewBox="0 0 512 512" width="512" xmlns="http://www.w3.org/2000/svg"><g><g><ellipse cx="256" cy="323.276" fill="#ddebfd" rx="181.225" ry="181.225" transform="matrix(.707 -.707 .707 .707 -153.61 275.705)"/><path d="m316.647 152.459c54.637 31.212 91.466 90.036 91.466 157.465 0 100.088-81.137 181.225-181.225 181.225-21.273 0-41.684-3.677-60.647-10.411 26.463 15.117 57.101 23.76 89.759 23.76 100.088 0 181.225-81.137 181.225-181.225 0-78.813-50.318-145.866-120.578-170.814z" fill="#bed9fd"/><path d="m437.225 323.275c0 49.528-19.876 94.406-52.081 127.118l-31.584-32.791c23.618-24.423 38.151-57.677 38.151-94.325 0-74.956-60.755-135.72-135.711-135.72v-45.507c100.087.001 181.225 81.138 181.225 181.225z" fill="#df646e"/><path d="m436.947 313.29c-4.07-74.965-53.675-137.226-120.282-160.82 54.627 31.214 91.448 90.033 91.448 157.455 0 45.311-16.63 86.738-44.118 118.511l21.149 21.957c10.064-10.222 18.925-21.635 26.351-34.003 18.288-30.47 27.466-66.026 25.452-103.1z" fill="#cd5668"/><path d="m256 142.051v45.507c-74.956 0-135.711 60.764-135.711 135.72 0 36.647 14.533 69.902 38.151 94.325l-31.584 32.791c-32.205-32.712-52.081-77.59-52.081-127.118 0-100.087 81.138-181.225 181.225-181.225z" fill="#6cbff8"/><circle cx="256" cy="323.275" fill="#6bbdd5" r="20.158"/><path d="m145.223 74.275v120.215c0 2.382 1.271 4.583 3.334 5.774l104.109 60.107c2.063 1.191 4.605 1.191 6.668 0l104.109-60.107c2.063-1.191 3.334-3.392 3.334-5.774v-120.215c0-2.382-1.271-4.583-3.334-5.774l-104.109-60.108c-2.063-1.191-4.605-1.191-6.668 0l-104.109 60.108c-2.063 1.191-3.334 3.392-3.334 5.774z" fill="#5d91b9"/><path d="m363.443 68.501-19.989-11.541c.206.651.326 1.333.326 2.035v122.155c0 2.421-1.291 4.657-3.388 5.868l-105.79 61.078c-.608.351-1.259.588-1.925.735l19.989 11.541c2.063 1.191 4.605 1.191 6.668 0l104.109-60.107c2.063-1.191 3.334-3.392 3.334-5.774v-120.216c0-2.382-1.271-4.583-3.334-5.774z" fill="#4980ac"/><circle cx="256" cy="134.383" fill="#ecc52e" r="32.118"/></g><g><path d="m351.823 367.204c1.715-3.771.049-8.217-3.721-9.933l-64.822-29.49c.242-1.469.374-2.974.374-4.51 0-15.251-12.407-27.658-27.659-27.658-15.251 0-27.658 12.407-27.658 27.658s12.407 27.659 27.658 27.659c8.341 0 15.825-3.716 20.901-9.574l64.995 29.568c1.007.458 2.063.675 3.102.675 2.848.001 5.573-1.632 6.83-4.395zm-95.828-31.273c-6.98 0-12.658-5.678-12.658-12.658s5.678-12.658 12.658-12.658 12.658 5.678 12.658 12.658c0 6.979-5.678 12.658-12.658 12.658z"/><path d="m204.376 404.046c0 12.814 10.425 23.239 23.239 23.239s23.239-10.425 23.239-23.239-10.425-23.239-23.239-23.239-23.239 10.425-23.239 23.239zm31.477 0c0 4.543-3.696 8.238-8.239 8.238s-8.238-3.696-8.238-8.238c0-4.543 3.696-8.239 8.238-8.239 4.543 0 8.239 3.696 8.239 8.239z"/><path d="m274.635 417.546h16.017c1.082 0 1.962.88 1.962 1.962 0 4.142 3.358 7.5 7.5 7.5s7.5-3.358 7.5-7.5c0-9.353-7.609-16.963-16.962-16.963h-16.017c-9.353 0-16.962 7.609-16.962 16.963v25.475c0 9.353 7.609 16.962 16.962 16.962h16.017c9.353 0 16.962-7.609 16.962-16.962 0-4.142-3.358-7.5-7.5-7.5s-7.5 3.358-7.5 7.5c0 1.082-.88 1.962-1.962 1.962h-16.017c-1.082 0-1.962-.88-1.962-1.962v-25.475c0-1.081.88-1.962 1.962-1.962z"/><path d="m444.727 323.278c0-57.628-25.637-111.005-70.454-147.058v-101.95c0-5.045-2.714-9.747-7.084-12.269l-104.109-60.108c-4.37-2.524-9.799-2.524-14.169 0l-26.444 15.267c-3.587 2.071-4.816 6.658-2.745 10.245 2.071 3.588 6.659 4.818 10.245 2.745l26.028-15.027 103.278 59.628v119.255l-103.278 59.628-103.278-59.628v-119.255l46.07-26.598c3.587-2.071 4.816-6.658 2.745-10.245-2.071-3.588-6.658-4.817-10.245-2.745l-46.486 26.837c-4.37 2.523-7.085 7.224-7.085 12.27v101.96c-44.811 36.046-70.444 89.419-70.444 147.048.001 105.137 85.572 188.722 188.723 188.722 28.317 0 55.539-6.116 80.911-18.177 3.741-1.778 5.332-6.253 3.553-9.994-1.778-3.74-6.252-5.334-9.994-3.553-23.343 11.097-48.399 16.724-74.47 16.724-45.77 0-87.454-17.801-118.516-46.832l26.357-27.367c2.802-2.909 2.797-7.514-.011-10.417-23.241-24.029-36.041-55.674-36.041-89.107 0-38.867 17.073-74.744 47.003-99.209l74.124 42.796c2.185 1.261 4.634 1.892 7.084 1.892 2.449 0 4.899-.631 7.084-1.892l74.124-42.796c29.931 24.465 47.003 60.342 47.003 99.209 0 33.433-12.799 65.078-36.041 89.107-2.808 2.903-2.813 7.508-.011 10.417l26.411 27.422c-4.923 4.606-10.109 8.93-15.531 12.93-3.333 2.459-4.042 7.154-1.583 10.488 1.471 1.993 3.741 3.048 6.041 3.048 1.546 0 3.107-.477 4.447-1.465 22.726-16.766 42.367-39.364 55.856-65.485 13.694-26.518 20.932-56.417 20.932-86.461zm-331.943 0c0 34.92 12.503 68.097 35.352 94.203l-21.174 21.985c-27.763-30.802-44.688-71.554-44.688-116.188 0-48.915 20.06-94.506 55.528-127.331.468 4.479 3.056 8.533 7 10.81l16.197 9.351c-30.77 27.18-48.215 65.646-48.215 107.17zm272.29 116.235-21.22-22.033c22.849-26.105 35.352-59.282 35.352-94.203 0-41.524-17.446-79.989-48.214-107.17l16.196-9.351c3.948-2.279 6.537-6.337 7.002-10.819 35.473 32.83 55.537 78.425 55.537 127.34 0 28.056-6.48 54.83-19.26 79.58-6.826 13.219-15.404 25.568-25.393 36.656z"/><path d="m216.377 134.379c0 21.845 17.773 39.618 39.618 39.618s39.618-17.773 39.618-39.618-17.772-39.619-39.618-39.619-39.618 17.773-39.618 39.619zm39.618-24.618c13.574 0 24.618 11.044 24.618 24.618s-11.044 24.618-24.618 24.618-24.618-11.044-24.618-24.618 11.044-24.618 24.618-24.618z"/><path d="m263.495 80.849v-5.812c0-4.142-3.358-7.5-7.5-7.5s-7.5 3.358-7.5 7.5v5.812c0 4.142 3.358 7.5 7.5 7.5s7.5-3.358 7.5-7.5z"/><path d="m212.841 101.831c1.464 1.464 3.384 2.197 5.303 2.197s3.839-.732 5.303-2.197c2.929-2.929 2.929-7.678 0-10.607l-4.109-4.109c-2.929-2.929-7.678-2.929-10.607 0s-2.929 7.678 0 10.607z"/><path d="m202.466 126.878h-5.812c-4.142 0-7.5 3.358-7.5 7.5s3.358 7.5 7.5 7.5h5.812c4.142 0 7.5-3.358 7.5-7.5s-3.358-7.5-7.5-7.5z"/><path d="m214.035 183.839c1.919 0 3.838-.732 5.303-2.196l4.109-4.109c2.929-2.929 2.929-7.678 0-10.607-2.93-2.928-7.677-2.929-10.607 0l-4.109 4.109c-2.929 2.929-2.929 7.678 0 10.607 1.465 1.463 3.384 2.196 5.304 2.196z"/><path d="m248.495 187.908v5.811c0 4.142 3.358 7.5 7.5 7.5s7.5-3.358 7.5-7.5v-5.811c0-4.142-3.358-7.5-7.5-7.5s-7.5 3.358-7.5 7.5z"/><path d="m299.149 166.926c-2.93-2.929-7.678-2.928-10.607 0-2.929 2.929-2.928 7.678 0 10.607l4.109 4.109c1.465 1.464 3.384 2.196 5.303 2.196s3.839-.732 5.304-2.197c2.929-2.929 2.928-7.678 0-10.607z"/><path d="m315.336 141.879c4.142 0 7.5-3.358 7.5-7.5s-3.358-7.5-7.5-7.5h-5.812c-4.142 0-7.5 3.358-7.5 7.5s3.358 7.5 7.5 7.5z"/><path d="m292.652 87.115-4.109 4.109c-2.929 2.929-2.929 7.678 0 10.607 1.464 1.464 3.384 2.197 5.303 2.197s3.839-.732 5.303-2.197l4.109-4.109c2.929-2.929 2.929-7.678 0-10.607-2.928-2.929-7.677-2.929-10.606 0z"/></g></g></svg>