<svg id="Capa_1" enable-background="new 0 0 512 512" height="512" viewBox="0 0 512 512" width="512" xmlns="http://www.w3.org/2000/svg"><g><g><g fill="#ecc52e"><path d="m364.851 281.778-31.276 87.88c-1.419 3.986 1.914 8.05 6.1 7.439l28.535-4.161c2.838-.414 5.086 2.358 4.094 5.049l-21.784 59.126c-1.321 3.585 3.477 6.187 5.761 3.123l71.114-95.388c2.866-3.844-.221-9.257-4.988-8.749l-26.913 2.868c-4.332.462-7.509-3.982-5.671-7.932l28.765-61.808z"/><path d="m77.461 281.778-31.276 87.88c-1.419 3.986 1.914 8.05 6.1 7.439l28.535-4.161c2.838-.414 5.086 2.358 4.094 5.049l-21.784 59.127c-1.321 3.585 3.477 6.187 5.761 3.123l71.114-95.388c2.866-3.844-.221-9.257-4.988-8.749l-26.913 2.868c-4.332.462-7.509-3.982-5.671-7.932l28.765-61.808z"/></g><path d="m226.559 251.158 51.52 4.291-30.67 64.555c-1.385 2.915.893 6.239 4.111 6.001l34.505-2.557c4.299-.319 7.299 4.178 5.354 8.025l-36.308 71.829c-1.308 2.587.862 5.569 3.726 5.119l25.768-4.041c3.99-.626 6.667 3.977 4.152 7.136l-67.756 85.095c-2.382 2.992-7.135.437-5.953-3.201l14.682-45.185c.639-1.965-.987-3.926-3.037-3.663l-33.027 4.239c-3.564.457-6.259-3.155-4.806-6.441l31.588-71.425c1.321-2.987-1.117-6.275-4.359-5.878l-34.926 4.276c-3.851.471-6.806-3.344-5.388-6.955l41.55-105.735c1.334-3.85 5.257-6.171 9.274-5.485z" fill="#e69642"/><path d="m474.874 69.511h-8.276c-6.439-31.642-34.424-55.453-67.965-55.453s-61.526 23.811-67.965 55.453c-.91 4.495-1.391 9.141-1.391 13.903 0 17.337 6.359 33.184 16.873 45.34h128.725c8.178 0 15.589-3.318 20.949-8.677 5.36-5.36 8.677-12.762 8.677-20.949-.001-16.356-13.271-29.617-29.627-29.617z" fill="#ddebfd"/><path d="m454.82 229.536c-6.836-6.836-16.29-11.066-26.715-11.066h-53.622c6.378-15.544 9.961-32.537 10.121-50.341.668-74.813-60.03-136.568-134.844-137.129-73.704-.553-133.951 57.557-136.831 130.419-.1 2.52-2.171 4.509-4.693 4.509-10.755.002-36.689.004-36.689.004-35.372 0-64.047 28.675-64.047 64.047s28.675 64.046 64.047 64.046h355.946c20.547 0 37.807-16.16 38.378-36.698.302-10.851-3.981-20.72-11.051-27.791z" fill="#ddebfd"/><g fill="#bed9fd"><path d="m454.82 229.536c-6.836-6.836-16.29-11.066-26.715-11.066h-34.115c10.425 0 19.879 4.23 26.715 11.066 7.07 7.07 11.353 16.94 11.051 27.79-.571 20.539-17.831 36.698-38.378 36.698h34.115c20.547 0 37.807-16.16 38.378-36.698.302-10.85-3.981-20.719-11.051-27.79z"/><path d="m350.488 168.129c-.145 16.171-3.114 31.673-8.437 46.029-.776 2.092.766 4.312 2.997 4.312h29.434c6.378-15.544 9.961-32.537 10.121-50.341.669-74.813-60.029-136.568-134.843-137.129-6.152-.046-12.207.325-18.146 1.071 67.29 8.488 119.495 66.648 118.874 136.058z"/></g></g><path d="m474.87 62.011h-2.398c-9.404-32.474-39.525-55.45-73.842-55.45-29.288 0-55.747 16.653-68.652 42.311-23.453-16.281-51.138-25.156-80.162-25.374-.366-.002-.731-.004-1.096-.004-43.037 0-83.353 19.021-110.754 52.297-2.633 3.197-2.176 7.924 1.022 10.557 3.198 2.634 7.924 2.175 10.557-1.022 24.747-30.052 61.296-47.114 100.159-46.828 34.625.26 66.612 14.258 90.414 38.455 43.857 44.585 48.646 112.186 14.956 161.883-2.324 3.428-1.429 8.092 1.999 10.417 3.415 2.313 8.082 1.445 10.417-2 4.568-6.739 8.556-13.882 11.911-21.285h48.705c8.088 0 15.692 3.15 21.411 8.87 5.946 5.946 9.093 13.858 8.858 22.278-.451 16.215-14.304 29.407-30.881 29.407h-355.948c-31.18 0-56.546-25.366-56.546-56.546s25.367-56.548 56.547-56.548h36.69c6.573-.001 11.926-5.148 12.186-11.715.67-16.95 4.597-33.308 11.67-48.617 1.737-3.76.097-8.217-3.663-9.954-3.76-1.736-8.216-.097-9.954 3.663-7.529 16.297-11.868 33.651-12.91 51.624h-34.02c-39.45-.002-71.546 32.096-71.546 71.546 0 36.444 27.397 66.589 62.672 70.976l-23.561 66.203c-1.551 4.377-.714 9.132 2.24 12.72 2.948 3.581 7.444 5.315 12.011 4.636l22.35-3.258-19.622 53.269c-1.873 5.095.233 10.665 5.006 13.245 4.784 2.586 10.59 1.276 13.806-3.054l71.11-95.38c3.09-4.145 3.432-9.723.871-14.211-2.559-4.486-7.528-7.032-12.657-6.479l-23.579 2.505 13.792-29.625h67.154l-22.833 58.112c-1.644 4.179-.985 8.792 1.762 12.342 2.748 3.55 7.054 5.343 11.509 4.798l29.173-3.575-29.246 66.128c-1.765 3.992-1.237 8.646 1.375 12.145 2.611 3.497 6.926 5.322 11.25 4.766l25.686-3.298-12.394 38.151c-1.662 5.112.487 10.461 5.224 13.007 4.733 2.546 10.38 1.386 13.726-2.818l67.765-85.106c3.084-3.881 3.463-9.155.966-13.436-2.494-4.277-7.269-6.54-12.148-5.77l-18.177 2.85 4.871-9.636c1.869-3.697.387-8.208-3.31-10.077-3.696-1.868-8.208-.386-10.077 3.31l-8.339 16.498c-1.882 3.721-1.528 8.126.924 11.496 2.454 3.372 6.538 5.061 10.659 4.418l17.977-2.818-48.857 61.359 7.739-23.822c1.102-3.375.409-7.024-1.854-9.762-2.267-2.744-5.732-4.113-9.271-3.666l-27.944 3.588 29.517-66.742c1.7-3.837 1.204-8.319-1.294-11.696-2.501-3.381-6.646-5.171-10.835-4.665l-30.954 3.792 23.526-59.876h40.173l-7.254 15.272c-1.804 3.815-1.455 8.167.932 11.642 2.384 3.471 6.313 5.354 10.511 5.043l31.047-2.294-10.613 21.002c-1.869 3.697-.387 8.208 3.311 10.077 3.705 1.871 8.213.379 10.076-3.311l12.184-24.107c2.113-4.192 1.806-9.219-.803-13.121-2.606-3.899-7.133-6.109-11.797-5.754l-28.863 2.132 7.875-16.581h85.37l-23.359 65.633c-1.551 4.376-.714 9.129 2.237 12.716 2.949 3.583 7.453 5.319 12.023 4.64l22.339-3.257-19.621 53.269c-1.872 5.095.234 10.665 5.008 13.244 4.79 2.589 10.594 1.271 13.806-3.054l71.129-95.392c3.079-4.147 3.413-9.724.85-14.208-2.562-4.481-7.532-7.022-12.653-6.472l-23.579 2.505 13.791-29.625h15.663c24.621 0 45.2-19.734 45.875-43.99.35-12.583-4.354-24.41-13.245-33.301-8.553-8.553-19.924-13.263-32.019-13.263h-42.893c7.563-23.427 9.116-49.486 3.601-74.717h86.059c9.915 0 19.239-3.863 26.254-10.877 7.014-7.012 10.876-16.332 10.876-26.241 0-20.468-16.656-37.119-37.13-37.119zm-379.238 265.852c-1.994 4.279-1.524 9.322 1.225 13.16 2.747 3.836 7.365 5.902 12.036 5.395l22.354-2.375-51.08 68.515 11.773-31.964c1.4-3.766.729-7.879-1.794-11.005-2.526-3.13-6.412-4.658-10.408-4.079l-25.439 3.708 24.092-67.695h29.504zm287.389.001c-1.993 4.279-1.523 9.322 1.226 13.161 2.746 3.835 7.371 5.897 12.035 5.394l22.365-2.376-51.095 68.523 11.777-31.972c1.399-3.766.729-7.88-1.794-11.005-2.526-3.129-6.409-4.655-10.408-4.079l-25.439 3.709 24.092-67.696h29.503zm107.497-213.097c-4.182 4.181-9.738 6.483-15.647 6.483h-90.221c-6.852-20.318-18.297-39.017-33.839-54.816-2.806-2.853-5.714-5.566-8.706-8.152 9.843-22.159 31.949-36.722 56.525-36.722 29.295 0 54.789 20.795 60.62 49.446.711 3.494 3.784 6.004 7.35 6.004h8.271c12.202 0 22.13 9.923 22.13 22.12-.001 5.903-2.304 11.456-6.483 15.637z"/></g></svg>