<svg id="Capa_1" enable-background="new 0 0 512 512" height="512" viewBox="0 0 512 512" width="512" xmlns="http://www.w3.org/2000/svg"><g><g><g><path d="m281.777 131.495-18.674-15.009c-11.455-9.207-17.424-23.618-15.835-38.228l2.591-23.817c.704-6.466-4.755-11.925-11.221-11.221l-23.817 2.591c-14.61 1.59-29.021-4.38-38.228-15.835l-15.009-18.674c-4.075-5.07-11.794-5.07-15.869 0l-15.009 18.674c-9.206 11.455-23.618 17.424-38.228 15.835l-23.817-2.591c-6.466-.704-11.925 4.755-11.221 11.221l2.591 23.817c1.59 14.61-4.38 29.022-15.835 38.228l-18.674 15.009c-5.07 4.075-5.07 11.794 0 15.869l18.674 15.009c11.455 9.207 17.424 23.618 15.835 38.228l-2.591 23.817c-.704 6.466 4.755 11.925 11.221 11.221l23.817-2.591c14.61-1.59 29.022 4.38 38.228 15.835l15.009 18.674c4.075 5.07 11.794 5.07 15.869 0l15.009-18.674c9.207-11.455 23.619-17.424 38.228-15.835l23.817 2.591c6.466.704 11.925-4.755 11.221-11.221l-2.591-23.817c-1.59-14.61 4.38-29.022 15.835-38.228l18.674-15.009c5.07-4.075 5.07-11.794 0-15.869z" fill="#ecc52e"/><circle cx="153.65" cy="139.43" fill="#e69642" r="65.33"/><path d="m170.949 76.433c14.234 11.984 23.287 29.926 23.287 49.99 0 36.081-29.249 65.33-65.33 65.33-5.991 0-11.787-.823-17.299-2.333 11.363 9.567 26.026 15.34 42.043 15.34 36.081 0 65.33-29.249 65.33-65.33 0-30.09-20.349-55.412-48.031-62.997z" fill="#e27c48"/></g><path d="m471.073 66.671h-4.832c-4.085-20.068-21.834-35.171-43.107-35.171s-39.022 15.102-43.106 35.171c-.577 2.851-.882 5.798-.882 8.818 0 9.938 3.294 19.104 8.851 26.467 1.103 1.462 2.855 2.29 4.686 2.29h78.807c5.187 0 9.887-2.104 13.286-5.504 3.457-3.457 5.575-8.255 5.502-13.553-.144-10.34-8.865-18.518-19.205-18.518z" fill="#ddebfd"/><path d="m417.775 237.587c-4.625-4.624-11.019-7.486-18.072-7.486h-36.273c4.315-10.515 6.739-22.01 6.846-34.054.453-50.609-40.608-92.384-91.217-92.763-49.858-.374-90.613 38.935-92.562 88.224-.067 1.705-1.469 3.05-3.175 3.051-7.276.001-24.819.003-24.819.003-23.928 0-43.325 19.397-43.325 43.325s19.397 43.325 43.325 43.325h240.787c13.899 0 25.575-10.931 25.962-24.825.203-7.34-2.694-14.017-7.477-18.8z" fill="#ddebfd"/><path d="m347.199 196.048c-.098 10.939-2.106 21.426-5.707 31.137-.525 1.415.518 2.917 2.027 2.917h19.911c4.315-10.515 6.739-22.01 6.846-34.054.453-50.609-40.608-92.384-91.217-92.763-4.162-.031-8.258.22-12.275.725 45.52 5.741 80.835 45.084 80.415 92.038z" fill="#bed9fd"/><path d="m417.775 237.587c-4.625-4.624-11.019-7.486-18.072-7.486h-23.077c7.052 0 13.447 2.861 18.072 7.486 4.783 4.783 7.68 11.46 7.476 18.799-.386 13.894-12.062 24.825-25.962 24.825h23.077c13.899 0 25.575-10.931 25.962-24.825.204-7.339-2.693-14.016-7.476-18.799z" fill="#bed9fd"/><circle cx="270.22" cy="421.241" fill="#6cbff8" r="27.678"/></g><g><path d="m143.865 331.269-8.695 2.825v-9.143c0-4.142-3.357-7.5-7.5-7.5s-7.5 3.358-7.5 7.5v9.143l-8.694-2.825c-3.935-1.28-8.17.876-9.45 4.815s.876 8.171 4.815 9.451l8.695 2.825-5.373 7.396c-2.435 3.351-1.692 8.042 1.659 10.476 1.331.967 2.873 1.433 4.402 1.433 2.318 0 4.606-1.072 6.073-3.092l5.373-7.396 5.374 7.396c1.468 2.02 3.754 3.092 6.073 3.092 1.528 0 3.071-.466 4.402-1.433 3.352-2.435 4.094-7.125 1.659-10.476l-5.374-7.396 8.695-2.825c3.939-1.28 6.096-5.511 4.815-9.451-1.278-3.939-5.515-6.095-9.449-4.815z"/><path d="m422.945 331.269-8.695 2.825v-9.143c0-4.142-3.357-7.5-7.5-7.5s-7.5 3.358-7.5 7.5v9.143l-8.695-2.825c-3.933-1.28-8.17.876-9.45 4.815s.876 8.171 4.815 9.451l8.695 2.825-5.374 7.396c-2.435 3.351-1.692 8.041 1.659 10.476 1.331.967 2.873 1.433 4.402 1.433 2.318 0 4.606-1.072 6.073-3.092l5.374-7.397 5.374 7.397c1.468 2.02 3.754 3.092 6.073 3.092 1.528 0 3.071-.466 4.402-1.433 3.352-2.435 4.094-7.125 1.659-10.476l-5.374-7.396 8.695-2.825c3.939-1.28 6.096-5.511 4.815-9.451-1.277-3.939-5.513-6.095-9.448-4.815z"/><path d="m471.988 59.189c-6.918-20.712-26.565-35.186-48.854-35.186-24.382 0-45.601 17.316-50.456 41.182-2.815 13.906.03 28.964 9.333 41.292 2.492 3.3 6.481 5.27 10.672 5.27h78.807c7.021 0 13.623-2.734 18.59-7.701 5.063-5.063 7.797-11.797 7.697-18.96-.194-13.987-11.678-25.422-25.789-25.897zm-.498 37.559h-78.017c-17.137-23.831-.184-57.745 29.661-57.745 17.28 0 32.318 12.266 35.757 29.166.711 3.494 3.784 6.004 7.35 6.004h4.832c6.369 0 11.621 4.989 11.706 11.121.087 6.363-5.043 11.454-11.289 11.454z"/><path d="m351.053 404.902c.556.125 1.11.185 1.656.185 3.429 0 6.523-2.367 7.31-5.852.911-4.041-1.626-8.055-5.667-8.966l-21.925-4.942 6.683-21.458c1.231-3.955-.977-8.159-4.932-9.391-3.955-1.233-8.158.977-9.391 4.931l-8.227 26.419-20.34 11.743c-4.828-5.298-11.251-9.113-18.499-10.694v-23.474l18.767-20.333c2.809-3.044 2.619-7.789-.425-10.598-3.044-2.81-7.79-2.62-10.599.424l-15.243 16.516-15.242-16.516c-2.809-3.043-7.554-3.234-10.599-.425-3.044 2.81-3.233 7.554-.425 10.598l18.766 20.333v23.474c-7.249 1.581-13.672 5.396-18.499 10.694l-20.34-11.743-8.226-26.418c-1.232-3.955-5.437-6.164-9.391-4.932-3.955 1.231-6.163 5.436-4.932 9.391l6.682 21.459-21.925 4.942c-4.041.911-6.578 4.925-5.667 8.966.786 3.485 3.88 5.852 7.31 5.852.546 0 1.101-.06 1.656-.185l26.992-6.085 20.327 11.736c-2.22 6.944-2.222 14.425 0 21.376l-20.327 11.736-26.992-6.085c-4.045-.911-8.055 1.627-8.966 5.667-.911 4.041 1.626 8.055 5.667 8.966l21.925 4.942-6.682 21.459c-1.231 3.955.977 8.159 4.932 9.391.742.231 1.493.341 2.231.341 3.196 0 6.158-2.06 7.159-5.272l8.226-26.418 20.34-11.743c4.828 5.298 11.251 9.113 18.499 10.694v23.474l-18.766 20.334c-2.809 3.044-2.619 7.789.425 10.598 3.043 2.808 7.788 2.619 10.599-.425l15.242-16.516 15.243 16.516c1.479 1.602 3.493 2.414 5.514 2.414 1.818 0 3.643-.658 5.085-1.989 3.044-2.809 3.233-7.554.425-10.598l-18.767-20.334v-23.474c7.249-1.581 13.672-5.396 18.499-10.694l20.34 11.743 8.227 26.419c1.001 3.212 3.962 5.272 7.159 5.272.738 0 1.489-.11 2.231-.341 3.955-1.231 6.163-5.436 4.932-9.391l-6.683-21.458 21.925-4.942c4.041-.911 6.578-4.925 5.667-8.966-.911-4.04-4.918-6.577-8.966-5.667l-26.992 6.085-20.327-11.736c2.22-6.944 2.222-14.425 0-21.376l20.327-11.736zm-80.832 36.517c-11.126 0-20.178-9.052-20.178-20.178s9.052-20.178 20.178-20.178 20.178 9.052 20.178 20.178-9.052 20.178-20.178 20.178z"/><path d="m432.749 256.596c.252-9.054-3.272-17.915-9.67-24.311-6.244-6.244-14.545-9.682-23.374-9.682h-25.742c13.607-47.421-9.838-98.067-55.362-118.3-19.643-8.754-41.075-10.523-60.764-6.401-2.712-5.856-3.814-12.381-3.109-18.829l2.59-23.823c.58-5.353-1.27-10.605-5.073-14.409-3.804-3.805-9.06-5.653-14.413-5.075l-23.821 2.59c-12.126 1.32-23.927-3.569-31.571-13.072l-15.01-18.677c-3.371-4.199-8.393-6.607-13.778-6.607-5.386 0-10.408 2.408-13.777 6.604l-15.011 18.681c-2.79 3.475-6.183 6.366-10.083 8.595-3.597 2.055-4.846 6.636-2.791 10.233 2.056 3.596 6.639 4.846 10.232 2.791 5.54-3.166 10.363-7.279 14.336-12.224l15.012-18.683c.696-.868 1.604-.998 2.082-.998s1.385.129 2.083 1l15.013 18.683c10.869 13.514 27.654 20.462 44.884 18.585l23.816-2.59c1.687-.189 3.143 1.23 2.957 2.953l-2.59 23.815c-.919 8.407.323 16.906 3.508 24.677-7.62 2.865-14.878 6.674-21.623 11.365-10.599-27.739-37.59-46.887-68.047-46.887-40.158 0-72.83 32.671-72.83 72.83 0 27.874 15.494 52.582 39.607 64.845-5.559 6.291-9.583 13.961-11.492 22.428-5.632-1.353-11.473-1.74-17.265-1.109l-23.816 2.59c-1.104.121-1.851-.429-2.188-.768-.339-.339-.889-1.073-.769-2.185l2.59-23.819c1.876-17.237-5.072-34.016-18.588-44.888l-18.683-15.012c-.868-.696-.997-1.603-.997-2.081 0-.479.129-1.385 1-2.083l18.683-15.012c13.513-10.87 20.461-27.649 18.585-44.885l-2.59-23.816c-.12-1.115.43-1.85.769-2.188.338-.338 1.078-.888 2.187-.768l15.771 1.71c4.117.443 7.819-2.531 8.265-6.648.446-4.118-2.529-7.818-6.647-8.265l-15.772-1.71c-5.349-.58-10.604 1.27-14.409 5.075-3.804 3.804-5.653 9.056-5.073 14.412l2.59 23.821c1.319 12.125-3.568 23.928-13.072 31.572l-18.677 15.007c-4.198 3.371-6.606 8.393-6.606 13.779 0 5.385 2.408 10.407 6.604 13.776l18.677 15.008c9.507 7.646 14.395 19.45 13.075 31.575l-2.59 23.823c-.58 5.353 1.27 10.605 5.073 14.409 3.805 3.805 9.061 5.654 14.413 5.075l23.822-2.59c4.912-.535 9.87-.024 14.565 1.462 2.087 26.121 23.997 46.743 50.647 46.743h184.822c4.143 0 7.5-3.358 7.5-7.5s-3.357-7.5-7.5-7.5h-184.827c-19.754 0-35.825-16.071-35.825-35.824 0-19.754 16.071-35.827 35.826-35.827h24.817c5.755 0 10.441-4.505 10.669-10.255 2.892-73.168 92.501-108.553 144.461-55.731 28.525 29 32.222 73.431 9.839 106.443-2.325 3.428-1.431 8.092 1.998 10.417 3.442 2.335 8.102 1.415 10.416-1.999 2.873-4.237 5.421-8.704 7.608-13.333h31.389c9.991 0 18.338 8.196 18.05 18.577-.269 9.667-8.552 17.533-18.464 17.533h-20.962c-4.143 0-7.5 3.358-7.5 7.5s3.357 7.5 7.5 7.5h20.962c17.957-.002 32.966-14.409 33.458-32.118zm-253.493-69.534h-20.749c-9.078 0-17.601 2.405-24.985 6.593-22.678-8.373-37.699-29.762-37.699-54.223 0-31.887 25.942-57.83 57.83-57.83 25.93 0 48.695 17.471 55.644 42.087-17.517 16.912-28.09 39.263-30.041 63.373z"/></g></g></svg>