<svg id="Capa_1" enable-background="new 0 0 512 512" height="512" viewBox="0 0 512 512" width="512" xmlns="http://www.w3.org/2000/svg"><g><g><path d="m176.57 281.016v18.565c0 3.688 1.571 7.202 4.319 9.662l23.46 21c2.228 1.994 3.501 4.843 3.501 7.832v154.58c0 6.541 5.303 11.844 11.844 11.844h72.614c6.541 0 11.844-5.303 11.844-11.844v-154.58c0-2.99 1.273-5.838 3.501-7.832l23.459-21c2.748-2.46 4.319-5.974 4.319-9.662v-18.565c0-1.737-1.408-3.145-3.145-3.145h-152.57c-1.738.001-3.146 1.409-3.146 3.145z" fill="#ddebfd"/><path d="m332.285 277.872h-25.725c1.737 0 3.145 1.408 3.145 3.145v18.565c0 3.688-1.571 7.202-4.319 9.662l-23.459 21c-2.228 1.994-3.501 4.843-3.501 7.833v154.58c0 6.541-5.303 11.844-11.844 11.844h25.725c6.541 0 11.844-5.303 11.844-11.844v-154.58c0-2.99 1.273-5.838 3.501-7.832l23.459-21c2.748-2.46 4.319-5.974 4.319-9.662v-18.565c0-1.738-1.408-3.146-3.145-3.146z" fill="#bed9fd"/><path d="m207.849 465.065v27.591c0 6.541 5.302 11.844 11.844 11.844h72.614c6.541 0 11.844-5.303 11.844-11.844v-27.591z" fill="#6cbff8"/><path d="m278.426 492.656c0 6.541-5.303 11.844-11.844 11.844h25.725c4.497 0 8.409-2.506 10.414-6.198.912-1.678 1.429-3.601 1.429-5.645v-27.591h-25.725v27.59z" fill="#5fa7ee"/><g><path d="m447.564 56.034h-7.243c-5.636-27.694-30.13-48.534-59.486-48.534s-53.849 20.84-59.485 48.534c-.796 3.934-1.218 8.001-1.218 12.169 0 15.174 5.565 29.044 14.768 39.683h112.663c7.158 0 13.644-2.904 18.335-7.595s7.595-11.169 7.595-18.335c0-14.315-11.614-25.922-25.929-25.922z" fill="#ddebfd"/><path d="m430.012 181.267c-5.983-5.983-14.257-9.685-23.382-9.685h-46.931c5.583-13.605 8.718-28.477 8.858-44.06.585-65.478-52.539-119.527-118.019-120.019-64.507-.484-117.237 50.376-119.758 114.146-.087 2.205-1.9 3.946-4.107 3.947-9.413.002-32.111.004-32.111.004-30.958 0-56.055 25.097-56.055 56.055s25.097 56.054 56.055 56.054h311.533c17.983 0 33.09-14.143 33.589-32.119.264-9.496-3.484-18.134-9.672-24.323z" fill="#ddebfd"/><g fill="#bed9fd"><path d="m430.012 181.267c-5.983-5.983-14.257-9.685-23.382-9.685h-29.858c9.125 0 17.398 3.702 23.382 9.685 6.188 6.188 9.936 14.827 9.672 24.322-.5 17.976-15.607 32.119-33.59 32.119h29.858c17.983 0 33.09-14.143 33.589-32.119.265-9.495-3.483-18.133-9.671-24.322z"/><path d="m338.699 127.522c-.127 14.153-2.725 27.721-7.384 40.285-.679 1.831.67 3.774 2.623 3.774h25.761c5.583-13.605 8.718-28.477 8.858-44.06.585-65.477-52.54-119.526-118.019-120.018-5.384-.04-10.684.285-15.882.937 58.894 7.431 104.586 58.333 104.043 119.082z"/></g></g><path d="m300.313 202.432c0 24.473-19.84 44.313-44.313 44.313s-44.313-19.84-44.313-44.313c0-30.961 36.737-72.323 44.313-72.323 6.081 0 44.313 41.362 44.313 72.323z" fill="#6cbff8"/></g><g><path d="m447.559 48.533h-1.402c-8.568-28.458-35.113-48.53-65.317-48.53-21.168 0-41.138 9.971-53.959 26.493-21.807-16.975-48.343-26.283-76.285-26.493-.315-.002-.622-.003-.937-.003-35.206 0-69.037 14.79-92.938 40.664-2.812 3.042-2.623 7.788.42 10.598 3.042 2.811 7.788 2.623 10.598-.42 21.069-22.807 50.885-35.842 81.919-35.842.274 0 .551.001.826.003 29.765.223 56.734 11.282 78.465 33.371 38.056 38.684 42.251 97.343 12.987 140.51-2.325 3.428-1.431 8.092 1.998 10.417 3.449 2.34 8.107 1.408 10.417-1.999 3.915-5.774 7.346-11.886 10.252-18.22h42.025c6.833 0 13.251 2.66 18.077 7.494 5.022 5.022 7.678 11.7 7.476 18.808-.381 13.69-12.086 24.828-26.093 24.828h-106.385c5.125-8.035 8.11-17.562 8.11-27.778 0-19.867-13.35-41.219-21.307-52.178-5.006-6.893-10.603-13.48-15.761-18.548-8.137-7.994-11.896-9.096-14.745-9.096-2.953 0-7.084 1.076-15.334 9.055-5.151 4.982-10.752 11.603-15.771 18.642-7.733 10.848-20.708 32.045-20.708 52.125 0 10.216 2.984 19.743 8.11 27.778h-117.735c-26.771 0-48.55-21.784-48.55-48.56 0-26.771 21.779-48.55 48.55-48.55h32.109c6.249 0 11.346-4.894 11.604-11.155.604-15.389 4.297-30.185 10.976-43.975 1.806-3.728.247-8.214-3.481-10.019-3.727-1.806-8.215-.247-10.019 3.481-7.113 14.689-11.244 30.379-12.295 46.668h-28.894c-35.041 0-63.55 28.508-63.55 63.55 0 35.047 28.509 63.56 63.55 63.56h132.246c8.319 5.695 18.372 9.035 29.193 9.035s20.874-3.339 29.193-9.035h120.896c22.051 0 40.482-17.68 41.087-39.406.32-11.27-3.893-21.866-11.859-29.832-7.654-7.668-17.843-11.892-28.688-11.892h-36.263c.043-.14.08-.281.123-.422 4.849-15.745 6.486-32.262 5.093-48.268h71.977c8.93 0 17.326-3.479 23.643-9.796 6.312-6.311 9.787-14.704 9.787-23.634-.002-18.432-14.998-33.429-33.431-33.429zm-228.371 153.901c0-24.294 27.257-57.51 36.533-64.064 3.715 2.913 11.92 11 20.334 23.07 10.807 15.501 16.758 30.06 16.758 40.994 0 20.298-16.514 36.813-36.813 36.813s-36.812-16.515-36.812-36.813zm241.407-107.444c-3.483 3.484-8.113 5.403-13.036 5.403h-74.199c-4.922-23.401-16.46-44.996-33.718-62.538-.48-.488-.969-.964-1.455-1.444 9.977-13.33 25.829-21.408 42.652-21.408 25.188 0 47.111 17.885 52.13 42.526.712 3.494 3.784 6.003 7.35 6.003h7.24c10.162 0 18.43 8.268 18.43 18.43-.001 4.924-1.916 9.55-5.394 13.028z"/><path d="m332.284 270.373h-152.568c-5.869 0-10.645 4.775-10.645 10.645v18.565c0 5.814 2.484 11.373 6.816 15.25l23.458 21c.638.571 1.004 1.389 1.004 2.245v154.58c0 10.666 8.678 19.343 19.344 19.343h72.613c10.666 0 19.344-8.678 19.344-19.344v-77.634c0-4.142-3.357-7.5-7.5-7.5s-7.5 3.358-7.5 7.5v42.543h-81.3v-21.435h16.926c4.143 0 7.5-3.358 7.5-7.5s-3.357-7.5-7.5-7.5h-16.926v-21.435h16.926c4.143 0 7.5-3.358 7.5-7.5s-3.357-7.5-7.5-7.5h-16.926v-21.434h16.926c4.143 0 7.5-3.358 7.5-7.5s-3.357-7.5-7.5-7.5h-16.926v-10.185c0-5.116-2.187-10.008-5.999-13.42l-23.459-21c-1.156-1.036-1.82-2.521-1.82-4.074v-14.209h143.857v14.209c0 1.553-.664 3.038-1.82 4.074l-23.46 21c-3.812 3.413-5.998 8.304-5.998 13.42v41.946c0 4.142 3.357 7.5 7.5 7.5s7.5-3.358 7.5-7.5v-41.946c0-.855.366-1.674 1.003-2.245l23.459-21c4.332-3.877 6.816-9.436 6.816-15.25v-18.565c0-5.869-4.776-10.644-10.645-10.644zm-35.634 202.192v20.091c0 2.395-1.948 4.344-4.344 4.344h-72.613c-2.396 0-4.344-1.948-4.344-4.343v-20.091h81.301z"/></g></g></svg>