<svg id="Capa_1" enable-background="new 0 0 512 512" height="512" viewBox="0 0 512 512" width="512" xmlns="http://www.w3.org/2000/svg"><g><g><g><path d="m446.821 55.846h-7.215c-5.614-27.586-30.012-48.346-59.254-48.346s-53.641 20.76-59.254 48.346c-.793 3.919-1.213 7.97-1.213 12.121 0 15.115 5.544 28.931 14.711 39.529h112.226c7.13 0 13.591-2.892 18.264-7.565s7.565-11.126 7.565-18.264c-.001-14.26-11.57-25.821-25.83-25.821z" fill="#ddebfd"/><path d="m429.337 195.361c-5.96-5.96-14.202-9.648-23.291-9.648h-46.749c5.561-13.552 8.685-28.367 8.824-43.889.583-65.225-52.336-119.064-117.562-119.554-64.258-.482-116.783 50.18-119.294 113.703-.087 2.197-1.893 3.931-4.091 3.932-9.377.002-31.987.004-31.987.004-30.838 0-55.838 24.999-55.838 55.838s24.999 55.837 55.838 55.837h310.325c17.913 0 32.961-14.088 33.459-31.995.264-9.459-3.47-18.064-9.634-24.228z" fill="#ddebfd"/><g fill="#bed9fd"><path d="m429.337 195.361c-5.96-5.96-14.202-9.648-23.291-9.648h-29.742c9.089 0 17.331 3.688 23.291 9.648 6.164 6.164 9.898 14.769 9.635 24.228-.498 17.906-15.546 31.995-33.459 31.995h29.742c17.913 0 32.961-14.088 33.459-31.995.263-9.459-3.471-18.064-9.635-24.228z"/><path d="m338.378 141.824c-.126 14.098-2.715 27.614-7.356 40.129-.676 1.824.668 3.76 2.613 3.76h25.661c5.561-13.552 8.685-28.367 8.824-43.889.584-65.225-52.335-119.064-117.561-119.554-5.363-.04-10.643.284-15.82.934 58.666 7.401 104.18 58.106 103.639 118.62z"/></g></g><g fill="#6cbff8"><path d="m229.7 445.953v24.051c0 1.955 1.043 3.761 2.736 4.738l20.829 12.025c1.693.977 3.778.977 5.471 0l20.829-12.025c1.693-.977 2.736-2.784 2.736-4.738v-24.051c0-1.955-1.043-3.761-2.736-4.738l-20.829-12.025c-1.693-.977-3.778-.977-5.471 0l-20.829 12.025c-1.693.977-2.736 2.783-2.736 4.738z"/><circle cx="381.73" cy="483.283" r="21.217"/><circle cx="130.27" cy="483.283" r="21.217"/></g></g><g><path d="m446.82 48.35h-1.374c-8.545-28.356-34.997-48.35-65.096-48.35-25.526 0-48.622 14.301-60.211 36.431-20.41-13.906-44.397-21.473-69.523-21.661-32.607-.217-63.641 11.928-87.355 34.278-3.015 2.841-3.155 7.587-.314 10.602 2.84 3.013 7.587 3.155 10.602.314 20.891-19.687 48.214-30.415 76.956-30.194 30.217.227 57.787 12.542 78.147 33.24 38.142 38.774 41.866 97.25 12.929 139.919-2.325 3.428-1.43 8.092 1.998 10.417 3.45 2.34 8.106 1.408 10.417-1.998 3.896-5.746 7.312-11.831 10.207-18.135h41.845c14.228 0 25.831 11.694 25.429 26.167-.379 13.622-12.025 24.703-25.962 24.703h-69.306c-4.142 0-7.5 3.358-7.5 7.5s3.358 7.5 7.5 7.5h69.306c21.981 0 40.354-17.624 40.956-39.286.638-22.927-17.741-41.584-40.423-41.584h-36.084c.041-.132.075-.265.116-.397 6.318-20.522 7.163-42.352 2.896-62.816h73.846c8.89 0 17.259-3.466 23.574-9.767 6.291-6.292 9.756-14.66 9.756-23.563-.002-18.373-14.954-33.32-33.332-33.32zm12.973 46.271c-3.477 3.469-8.084 5.379-12.973 5.379h-77.966c-7.153-20.831-19.749-39.461-36.611-54.201 8.569-18.61 27.301-30.799 48.107-30.799 25.081 0 46.913 17.81 51.911 42.347.711 3.493 3.784 6.003 7.349 6.003h7.21c10.107 0 18.33 8.218 18.33 18.32 0 4.897-1.905 9.498-5.357 12.951z"/><path d="m301.208 244.083h-206.02c-26.653 0-48.337-21.684-48.337-48.337 0-26.654 21.684-48.34 48.338-48.34h31.988c6.249-.001 11.337-4.894 11.584-11.137.717-18.149 5.938-35.993 15.096-51.603 2.096-3.573.899-8.168-2.673-10.264-3.574-2.097-8.168-.9-10.264 2.673-9.852 16.792-15.691 35.856-16.974 55.331h-28.758c-34.924 0-63.337 28.415-63.337 63.339s28.413 63.337 63.337 63.337h206.02c4.142 0 7.5-3.358 7.5-7.5s-3.358-7.499-7.5-7.499z"/><path d="m283.314 434.72-20.828-12.025c-4-2.31-8.971-2.31-12.972 0l-20.828 12.025c-4.001 2.309-6.487 6.614-6.487 11.234v24.051c0 4.619 2.485 8.923 6.486 11.233l20.828 12.025c2 1.155 4.243 1.732 6.486 1.732 2.242 0 4.485-.578 6.485-1.732l20.829-12.025c4-2.31 6.485-6.614 6.485-11.233v-24.051c.002-4.621-2.484-8.926-6.484-11.234zm-8.514 34.113-18.8 10.853-18.8-10.854v-21.708l18.8-10.854 18.799 10.854v21.709z"/><path d="m381.729 454.566c-15.834 0-28.717 12.882-28.717 28.717s12.882 28.717 28.717 28.717 28.717-12.882 28.717-28.717c.001-15.835-12.882-28.717-28.717-28.717zm0 42.434c-7.563 0-13.717-6.153-13.717-13.717 0-7.563 6.153-13.717 13.717-13.717s13.717 6.153 13.717 13.717c.001 7.564-6.153 13.717-13.717 13.717z"/><path d="m389.229 428.457v-127.076c0-4.142-3.358-7.5-7.5-7.5s-7.5 3.358-7.5 7.5v127.076c0 4.142 3.358 7.5 7.5 7.5s7.5-3.358 7.5-7.5z"/><path d="m130.271 454.566c-15.834 0-28.717 12.882-28.717 28.717s12.882 28.717 28.717 28.717 28.717-12.882 28.717-28.717-12.883-28.717-28.717-28.717zm0 42.434c-7.563 0-13.717-6.153-13.717-13.717 0-7.563 6.153-13.717 13.717-13.717s13.717 6.153 13.717 13.717-6.154 13.717-13.717 13.717z"/><path d="m137.771 428.457v-127.076c0-4.142-3.358-7.5-7.5-7.5s-7.5 3.358-7.5 7.5v127.076c0 4.142 3.358 7.5 7.5 7.5s7.5-3.358 7.5-7.5z"/><path d="m256 403.976c4.142 0 7.5-3.358 7.5-7.5v-95.095c0-4.142-3.358-7.5-7.5-7.5s-7.5 3.358-7.5 7.5v95.095c0 4.142 3.358 7.5 7.5 7.5z"/><path d="m318.865 293.881c-4.142 0-7.5 3.358-7.5 7.5v66.645c0 4.142 3.358 7.5 7.5 7.5s7.5-3.358 7.5-7.5v-66.645c0-4.142-3.358-7.5-7.5-7.5z"/><path d="m193.135 293.881c-4.142 0-7.5 3.358-7.5 7.5v66.645c0 4.142 3.358 7.5 7.5 7.5s7.5-3.358 7.5-7.5v-66.645c0-4.142-3.358-7.5-7.5-7.5z"/></g></g></svg>