<svg id="Capa_1" enable-background="new 0 0 512 512" height="512" viewBox="0 0 512 512" width="512" xmlns="http://www.w3.org/2000/svg"><g><g><path d="m348.022 326.918 37.225-181.034h52.611l37.224 181.034z" fill="#df646e"/><path d="m437.858 145.884h-26.306l37.225 181.034h26.305z" fill="#cd5668"/><path d="m462.675 266.577h-102.242l12.408-60.353h77.426z" fill="#ddebfd"/><path d="m423.96 206.224 12.409 60.353h26.306l-12.408-60.353z" fill="#bed9fd"/><path d="m499.5 326.918h-236.177l-69.624 131.705h305.801c2.761 0 5-2.239 5-5v-121.705c0-2.761-2.239-5-5-5z" fill="#5d91b9"/><path d="m499.5 326.918h-21.626c2.761 0 5 2.238 5 5v121.705c0 2.761-2.239 5-5 5h21.626c2.761 0 5-2.239 5-5v-121.705c0-2.762-2.239-5-5-5z" fill="#4980ac"/><path d="m385.247 99.625h52.612v46.259h-52.612z" fill="#ebb34c"/><path d="m385.247 99.625v-19.941c0-14.528 11.777-26.306 26.306-26.306 14.528 0 26.306 11.777 26.306 26.306v19.942h-52.612z" fill="#5d91b9"/><path d="m317.863 371.085c0 46.775-28.517 87.538-98.504 87.538h-206.859c-2.761 0-5-2.239-5-5v-75.381c0-2.761 2.239-5 5-5h37.074c13.681 0 25.799-6.262 33.204-15.855.952-1.233 2.773-1.232 3.723.002 7.388 9.592 19.506 15.853 33.196 15.853 13.68 0 25.798-6.262 33.194-15.854.951-1.233 2.772-1.233 3.723 0 7.397 9.592 19.514 15.854 33.194 15.854 19.056 0 37.179-12.46 33.977-34.426-17.157-2.652-30.302-17.483-30.302-35.393 0-19.786 16.043-35.819 35.818-35.819 49.754-.001 88.562 51.718 88.562 103.481z" fill="#75cff9"/><path d="m229.303 267.603c-3.677 0-7.224.556-10.564 1.586 42.369 9.036 73.625 55.444 73.625 101.896 0 46.775-28.517 87.538-98.504 87.538h25.499c69.988 0 98.504-40.763 98.504-87.538 0-51.763-38.808-103.482-88.56-103.482z" fill="#6cbff8"/></g><g><path d="m499.5 319.421h-18.302l-34.14-166.037h7.703c4.142 0 7.5-3.358 7.5-7.5s-3.358-7.5-7.5-7.5h-9.402v-58.7c0-18.641-15.166-33.806-33.806-33.806s-33.806 15.165-33.806 33.806v58.7h-9.402c-4.142 0-7.5 3.358-7.5 7.5s3.358 7.5 7.5 7.5h7.703l-34.14 166.037h-28.535c-3.797-7.946-8.419-15.486-13.818-22.356-2.56-3.258-7.274-3.822-10.531-1.264-3.257 2.56-3.823 7.274-1.264 10.531 14.365 18.282 22.604 41.883 22.604 64.753 0 22.888-7.205 42.264-20.836 56.032-15.77 15.928-39.377 24.005-70.167 24.005h-204.361v-70.38h34.575c13.296 0 25.996-5.207 35.061-14.165 9.053 8.958 21.753 14.165 35.062 14.165 13.299 0 25.998-5.208 35.056-14.165 9.059 8.958 21.756 14.165 35.056 14.165 13.337 0 25.863-5.276 33.505-14.113 4.895-5.66 7.666-12.448 8.227-19.949 8.614-.433 16.771-3.366 23.709-8.561 3.316-2.482 3.992-7.183 1.509-10.499-2.481-3.316-7.183-3.993-10.499-1.509-18.527 13.869-45.276.546-45.276-22.689 0-15.615 12.704-28.319 28.319-28.319 11.979 0 23.595 3.306 34.523 9.827 3.555 2.122 8.161.96 10.284-2.598 2.122-3.557.959-8.161-2.598-10.284-13.285-7.926-27.486-11.945-42.209-11.945-23.886 0-43.319 19.433-43.319 43.319 0 19.138 12.316 35.921 30.649 41.445-.208 4.595-1.769 8.6-4.666 11.95-4.833 5.588-13.117 8.925-22.159 8.925-10.821 0-21.01-4.835-27.255-12.934-1.884-2.443-4.728-3.845-7.801-3.845s-5.917 1.402-7.801 3.846c-6.245 8.099-16.433 12.934-27.254 12.934-10.83 0-21.018-4.833-27.253-12.929-1.883-2.445-4.728-3.848-7.802-3.85-3.071 0-5.916 1.4-7.801 3.841-6.254 8.102-16.447 12.938-27.267 12.938h-37.075c-6.893 0-12.5 5.607-12.5 12.5v75.381c0 6.893 5.607 12.499 12.5 12.499h404.09c4.142 0 7.5-3.359 7.5-7.501s-3.358-7.5-7.5-7.5h-133.793c6.423-3.782 12.241-8.25 17.389-13.451 16.471-16.637 25.177-39.662 25.177-66.585 0-12.283-2.097-24.739-5.993-36.665h177.63v116.7h-45.41c-4.142 0-7.5 3.358-7.5 7.5s3.358 7.5 7.5 7.5h47.91c6.893 0 12.5-5.607 12.5-12.5v-121.7c0-6.893-5.607-12.5-12.5-12.5zm-120.546-105.697h65.197l9.325 45.353h-83.847zm51.404-75.34h-37.612v-31.259h37.612zm1.386 15 9.323 45.34h-59.028l9.323-45.34zm-38.997-73.7c0-10.37 8.436-18.806 18.806-18.806s18.806 8.436 18.806 18.806v12.441h-37.612zm-26.203 194.393h90.016l9.324 45.344h-108.663z"/><path d="m64.137 236.028h88.388c17.401 0 31.557-14.156 31.557-31.557s-14.156-31.558-31.557-31.558c-13.137 0-24.81 8.117-29.468 20.249-1.485 3.867.446 8.205 4.313 9.69 3.867 1.486 8.206-.446 9.69-4.313 2.405-6.26 8.467-10.625 15.465-10.625 9.13 0 16.557 7.428 16.557 16.558 0 9.129-7.427 16.557-16.557 16.557h-88.388c-4.142 0-7.5 3.358-7.5 7.5s3.358 7.499 7.5 7.499z"/><path d="m7.5 266.199h63.708c4.142 0 7.5-3.358 7.5-7.5s-3.358-7.5-7.5-7.5h-63.708c-4.142 0-7.5 3.358-7.5 7.5s3.358 7.5 7.5 7.5z"/><path d="m136.951 258.699c0-4.142-3.358-7.5-7.5-7.5h-22.887c-4.142 0-7.5 3.358-7.5 7.5s3.358 7.5 7.5 7.5h22.887c4.142 0 7.5-3.358 7.5-7.5z"/><path d="m35.804 281.371c-4.142 0-7.5 3.358-7.5 7.5s3.358 7.5 7.5 7.5h80.413c4.142 0 7.5-3.358 7.5-7.5s-3.358-7.5-7.5-7.5z"/><path d="m234.563 408.401c-4.271 4.485-10.034 6.956-16.227 6.956-6.711 0-13.016-2.974-17.296-8.156-1.73-2.097-4.281-3.3-6.998-3.3-2.716 0-5.267 1.202-6.999 3.299-4.28 5.184-10.581 8.157-17.287 8.157-6.712 0-13.017-2.973-17.296-8.155-1.73-2.097-4.281-3.3-6.998-3.3-2.715 0-5.267 1.202-6.998 3.298-4.28 5.184-10.585 8.157-17.297 8.157-6.192 0-11.955-2.47-16.227-6.956-2.856-3-7.604-3.116-10.603-.259-3 2.856-3.116 7.604-.259 10.603 7.027 7.379 16.9 11.612 27.089 11.612 9.007 0 17.572-3.205 24.294-8.955 6.722 5.75 15.288 8.955 24.294 8.955 9.002 0 17.564-3.205 24.285-8.956 6.723 5.75 15.288 8.956 24.294 8.956 10.188 0 20.063-4.232 27.089-11.612 2.856-3 2.741-7.747-.259-10.603-2.997-2.859-7.745-2.742-10.601.259z"/></g></g></svg>