<svg id="Capa_1" enable-background="new 0 0 512 512" height="512" viewBox="0 0 512 512" width="512" xmlns="http://www.w3.org/2000/svg"><g><g><path d="m467.228 62.323h-8.182c-6.366-31.282-34.033-54.823-67.193-54.823s-60.828 23.541-67.193 54.823c-.899 4.444-1.375 9.037-1.375 13.745 0 17.14 6.286 32.808 16.681 44.825h127.263c8.085 0 15.412-3.28 20.711-8.579s8.579-12.617 8.579-20.711c-.001-16.169-13.121-29.28-29.291-29.28z" fill="#ddebfd"/><path d="m466.489 220.531c-6.759-6.759-16.105-10.941-26.411-10.941h-53.013c6.306-15.368 9.848-32.168 10.006-49.769.662-73.964-59.348-135.017-133.312-135.572-72.867-.547-132.43 56.903-135.277 128.938-.098 2.491-2.146 4.458-4.64 4.458-10.633.002-36.272.004-36.272.004-34.97 0-63.319 28.349-63.319 63.319s28.349 63.318 63.319 63.318h351.904c20.313 0 37.378-15.976 37.942-36.282.297-10.725-3.937-20.483-10.927-27.473z" fill="#ddebfd"/><g fill="#bed9fd"><path d="m466.489 220.531c-6.759-6.759-16.105-10.941-26.411-10.941h-33.727c10.307 0 19.653 4.182 26.411 10.941 6.99 6.99 11.224 16.748 10.926 27.474-.565 20.306-17.629 36.282-37.942 36.282h33.727c20.313 0 37.378-15.976 37.942-36.282.298-10.726-3.936-20.484-10.926-27.474z"/><path d="m363.343 159.821c-.143 15.987-3.079 31.314-8.341 45.506-.767 2.068.757 4.263 2.963 4.263h29.1c6.306-15.368 9.848-32.168 10.006-49.769.662-73.964-59.348-135.017-133.312-135.572-6.082-.046-12.069.322-17.94 1.059 66.525 8.392 118.138 65.891 117.524 134.513z"/></g></g><g><path d="m221.475 251.521c-4.14.137-7.384 3.604-7.248 7.745 2.578 77.82-11.547 188.961-30.844 242.697-1.4 3.898.625 8.193 4.524 9.593 3.875 1.392 8.185-.603 9.593-4.524 19.823-55.199 34.348-168.89 31.719-248.264-.137-4.138-3.574-7.357-7.744-7.247z"/><path d="m287.489 259.266c.137-4.14-3.108-7.607-7.248-7.744-4.106-.131-7.606 3.107-7.744 7.248-2.629 79.375 11.896 193.066 31.719 248.263 1.1 3.061 3.983 4.967 7.059 4.967 5.172 0 8.817-5.142 7.059-10.037-19.299-53.734-33.423-164.876-30.845-242.697z"/><path d="m162.628 251.563c-4.117.457-7.085 4.164-6.629 8.28 8.14 73.471-2.603 168.164-57.168 213.594-13.72 11.422-35.697 16.78-51.122 12.468-10.02-2.803-18.613-9.993-22.423-18.764-3.94-9.07-2.729-20.006 3.014-27.212 9.432-11.834 27.946-10.234 37.607.731 2.738 3.108 7.477 3.409 10.585.67 3.108-2.738 3.408-7.478.67-10.585-15.563-17.667-45.08-19.63-60.594-.165-9.248 11.604-11.226 28.301-5.041 42.537 5.649 13.003 17.664 23.184 32.141 27.232 20.435 5.717 47.629-1.123 64.76-15.386 28.09-23.387 47.434-59.162 57.495-106.329 7.779-36.47 9.549-79.244 4.984-120.443-.456-4.117-4.171-7.08-8.279-6.628z"/><path d="m456.803 416.739c-12.237-.315-24.259 4.936-32.25 14.006-2.738 3.108-2.438 7.847.67 10.585 3.11 2.738 7.848 2.438 10.586-.67 5.094-5.782 12.807-9.123 20.624-8.926 6.875.169 12.906 3.08 16.982 8.195 5.743 7.206 6.955 18.142 3.015 27.212-3.811 8.771-12.403 15.961-22.424 18.764-15.419 4.313-37.402-1.045-51.122-12.468-54.564-45.43-65.308-140.123-57.169-213.594.456-4.117-2.512-7.824-6.628-8.28-4.118-.449-7.824 2.511-8.28 6.629-4.564 41.199-2.794 83.974 4.984 120.443 10.061 47.167 29.405 82.942 57.495 106.329 13.227 11.013 32.075 17.396 49.166 17.395 22.773 0 40.463-12.503 47.735-29.242 6.185-14.238 4.206-30.934-5.042-42.537-6.889-8.645-16.955-13.561-28.342-13.841z"/><path d="m87.587 291.786h42.451c4.142 0 7.5-3.358 7.5-7.5s-3.358-7.5-7.5-7.5h-42.451c-30.779 0-55.819-25.04-55.819-55.818 0-30.779 25.04-55.821 55.819-55.821h36.273c6.544-.001 11.873-5.125 12.132-11.664 1-25.307 9.441-49.464 24.41-69.86 2.451-3.339 1.73-8.033-1.609-10.484s-8.034-1.731-10.484 1.609c-16.203 22.078-25.568 48.093-27.171 75.399h-33.551c-39.05 0-70.819 31.771-70.819 70.821.001 39.049 31.77 70.818 70.819 70.818z"/><path d="m389.213 148.776c.306 3.932 3.591 6.919 7.47 6.919.194 0 .392-.008.589-.023 4.13-.321 7.217-3.929 6.896-8.059-.505-6.502-1.46-12.923-2.839-19.224h65.918c20.179 0 36.79-16.308 36.79-36.79 0-20.281-16.504-36.78-36.79-36.78h-2.311c-9.333-32.106-39.13-54.819-73.069-54.819-25.338 0-48.794 12.573-62.883 33.259-19.935-10.605-42.208-16.338-65.152-16.51-.354-.002-.704-.004-1.057-.004-32.319 0-63.888 11.115-89.001 31.359-3.225 2.6-3.731 7.321-1.132 10.546 2.6 3.226 7.321 3.731 10.546 1.132 22.697-18.296 51.292-28.259 80.53-28.033 31.849.239 62.267 12.457 85.651 34.403 23.921 22.449 37.373 50.804 39.844 82.624zm2.654-133.776c28.92 0 54.091 20.53 59.85 48.816.712 3.494 3.784 6.003 7.35 6.003h8.18c12.015 0 21.79 9.77 21.79 21.78 0 12.142-9.85 21.79-21.79 21.79h-70.089c-7.423-21.941-20.213-41.93-37.522-58.176-5.583-5.24-11.529-9.979-17.769-14.203 11.361-16.193 29.946-26.01 50-26.01z"/><path d="m439.49 276.786h-67.813c-4.143 0-7.5 3.358-7.5 7.5s3.357 7.5 7.5 7.5h67.813c24.388 0 44.771-19.547 45.439-43.574.346-12.464-4.313-24.179-13.12-32.986-8.472-8.471-19.734-13.137-31.714-13.137h-42.295c.051-.159.095-.321.146-.481 1.51-4.748 3.386-12.212 4.298-17.171.75-4.074-1.944-7.984-6.019-8.734-4.067-.748-7.984 1.944-8.733 6.018-3.096 16.82-9.643 33.167-19.67 47.955-2.324 3.428-1.43 8.092 1.999 10.416 3.433 2.329 8.095 1.424 10.417-1.999 4.508-6.649 8.445-13.699 11.76-21.006h48.097c16.695 0 30.311 13.721 29.84 30.706-.444 15.988-14.102 28.993-30.445 28.993z"/></g></g></svg>