<svg id="Capa_1" enable-background="new 0 0 512 512" height="512" viewBox="0 0 512 512" width="512" xmlns="http://www.w3.org/2000/svg"><g><g><path d="m207.499 167.383c-2.95-2.95-7.03-4.776-11.53-4.776h-23.142c2.753-6.709 4.299-14.042 4.368-21.726.289-32.288-25.907-58.94-58.195-59.182-31.809-.239-57.81 24.84-59.053 56.286-.043 1.088-.937 1.946-2.025 1.946-4.642.001-15.834.002-15.834.002-15.266 0-27.641 12.375-27.641 27.641s12.375 27.641 27.641 27.641h153.618c8.867 0 16.317-6.974 16.563-15.838.13-4.683-1.718-8.942-4.77-11.994z" fill="#ddebfd"/><g><g fill="#bed9fd"><path d="m154.695 140.881c-.053 5.984-1.003 11.757-2.721 17.187-.711 2.248.946 4.54 3.304 4.54h17.549c3.357-8.181 4.92-17.292 4.196-26.834-2.146-28.296-24.71-51.22-52.968-53.822-5.799-.534-11.44-.211-16.82.84 27.16 5.297 47.716 29.471 47.46 58.089z"/><path d="m207.499 167.383c-2.95-2.95-7.03-4.776-11.53-4.776h-22.5c4.499 0 8.579 1.825 11.53 4.776 3.052 3.052 4.9 7.311 4.769 11.993-.246 8.864-7.696 15.838-16.563 15.838h22.5c8.867 0 16.317-6.974 16.563-15.838.131-4.682-1.717-8.941-4.769-11.993z"/></g></g><path d="m504.5 400.559v70.414c0 2.761-2.239 5-5 5h-487c-2.761 0-5-2.239-5-5v-70.414c0-.839.972-1.306 1.623-.775 8.144 6.654 18.546 10.647 29.885 10.647 13.02 0 24.803-5.27 33.352-13.79 1.559-1.554 4.074-1.554 5.633.001 8.543 8.52 20.326 13.789 33.346 13.789s24.803-5.27 33.352-13.79c1.559-1.554 4.074-1.554 5.633.001 8.543 8.52 20.326 13.789 33.346 13.789s24.803-5.27 33.352-13.79c1.559-1.554 4.074-1.554 5.633.001 8.543 8.52 20.326 13.789 33.346 13.789s24.803-5.27 33.346-13.789c1.559-1.555 4.073-1.555 5.633-.001 8.548 8.52 20.332 13.79 33.352 13.79s24.803-5.27 33.346-13.789c1.559-1.555 4.073-1.555 5.633-.001 8.548 8.52 20.332 13.79 33.352 13.79s24.803-5.27 33.346-13.789c1.559-1.555 4.073-1.555 5.633-.001 8.548 8.52 20.332 13.79 33.352 13.79 11.339 0 21.742-3.994 29.885-10.647.649-.531 1.621-.065 1.621.775z" fill="#75cff9"/><path d="m502.877 399.784c-5.503 4.496-12.04 7.771-19.198 9.427v40.798c0 2.762-2.239 5-5 5h-471.179v15.964c0 2.761 2.239 5 5 5h487c2.761 0 5-2.239 5-5v-70.414c0-.84-.972-1.306-1.623-.775z" fill="#5fa7ee"/><path d="m487.363 134.495-9.324-7.494c-5.719-4.597-8.7-11.792-7.906-19.087l1.294-11.892c.351-3.229-2.374-5.954-5.603-5.603l-11.892 1.294c-7.294.794-14.49-2.187-19.087-7.906l-7.494-9.324c-2.035-2.531-5.889-2.531-7.923 0l-7.494 9.324c-4.597 5.719-11.792 8.7-19.087 7.906l-11.892-1.294c-3.229-.351-5.954 2.374-5.603 5.603l1.294 11.892c.794 7.294-2.187 14.49-7.906 19.087l-9.324 7.494c-2.531 2.035-2.531 5.889 0 7.923l9.324 7.494c5.719 4.597 8.7 11.792 7.906 19.087l-1.294 11.892c-.351 3.229 2.374 5.954 5.603 5.603l11.892-1.294c7.294-.794 14.49 2.187 19.087 7.906l7.494 9.324c2.035 2.531 5.889 2.531 7.923 0l7.494-9.324c4.597-5.719 11.792-8.7 19.087-7.906l11.892 1.294c3.229.351 5.954-2.374 5.603-5.603l-1.294-11.892c-.794-7.294 2.187-14.49 7.906-19.087l9.324-7.494c2.531-2.035 2.531-5.889 0-7.923z" fill="#ecc52e"/><circle cx="423.391" cy="138.456" fill="#e69642" r="21.879"/></g><g><path d="m42.087 202.715h153.618c12.913 0 23.706-10.376 24.061-23.13.366-13.217-10.201-24.477-23.796-24.477h-12.923c1.053-4.618 1.605-9.352 1.648-14.159.157-17.628-6.605-34.3-19.045-46.945-12.432-12.638-28.979-19.671-46.594-19.804-13.813-.093-27.062 4.003-38.338 11.876-3.396 2.371-4.228 7.046-1.856 10.443 2.371 3.396 7.048 4.228 10.442 1.856 8.712-6.082 18.96-9.237 29.639-9.175 13.604.102 26.395 5.543 36.014 15.323 9.626 9.786 14.86 22.675 14.738 36.292-.058 6.558-1.339 12.932-3.807 18.946-.949 2.313-.684 4.947.709 7.024s3.729 3.323 6.229 3.323h23.143c4.89 0 8.942 4.016 8.802 9.061-.131 4.712-4.198 8.546-9.066 8.546h-153.618c-11.105 0-20.141-9.035-20.141-20.141s9.035-20.142 20.142-20.142h15.833c5.136 0 9.316-4.02 9.52-9.15.221-5.572 1.334-11.02 3.31-16.191 1.479-3.869-.46-8.204-4.329-9.683-3.872-1.48-8.205.459-9.683 4.329-1.934 5.059-3.229 10.319-3.87 15.695h-10.782c-19.377 0-35.141 15.765-35.141 35.142 0 19.377 15.764 35.141 35.141 35.141z"/><path d="m507.141 392.878c-2.95-1.399-6.486-.965-9.008 1.098-7.069 5.775-15.998 8.956-25.141 8.956-10.587 0-20.551-4.121-28.057-11.601-4.473-4.461-11.751-4.459-16.224 0-7.502 7.481-17.464 11.601-28.051 11.601-10.586 0-20.55-4.121-28.058-11.603-4.474-4.458-11.751-4.457-16.223.003-7.501 7.48-17.463 11.6-28.05 11.6s-20.551-4.121-28.059-11.603c-4.471-4.456-11.75-4.457-16.223.003-7.501 7.48-17.463 11.6-28.05 11.6s-20.549-4.12-28.051-11.601c-4.472-4.458-11.749-4.46-16.223-.001-7.507 7.482-17.471 11.603-28.058 11.603s-20.549-4.12-28.049-11.6c-4.474-4.46-11.751-4.462-16.225-.003-7.507 7.482-17.471 11.603-28.057 11.603-10.587 0-20.549-4.12-28.05-11.6-4.474-4.461-11.75-4.463-16.224-.003-7.507 7.482-17.471 11.603-28.058 11.603-9.143 0-18.071-3.181-25.137-8.953-2.526-2.066-6.063-2.498-9.012-1.101-2.946 1.398-4.853 4.413-4.853 7.68v70.414c0 6.893 5.607 12.5 12.5 12.5h394.78c4.143 0 7.5-3.358 7.5-7.5s-3.357-7.5-7.5-7.5h-392.28v-56.089c7.433 3.62 15.656 5.548 24.008 5.548 13.446 0 26.162-4.823 36.167-13.652 10.001 8.828 22.717 13.652 36.164 13.652 13.445 0 26.162-4.825 36.167-13.653 10 8.829 22.715 13.653 36.163 13.653 13.446 0 26.163-4.825 36.168-13.653 10 8.829 22.715 13.653 36.163 13.653s26.164-4.825 36.163-13.653c10.005 8.829 22.722 13.653 36.168 13.653 13.448 0 26.163-4.824 36.163-13.653 10.005 8.829 22.722 13.653 36.167 13.653 13.447 0 26.162-4.823 36.163-13.652 10.005 8.828 22.722 13.652 36.168 13.652 8.352 0 16.574-1.928 24.008-5.549v56.09h-54.72c-4.143 0-7.5 3.358-7.5 7.5s3.357 7.5 7.5 7.5h57.22c6.893 0 12.5-5.607 12.5-12.5v-70.414c0-3.267-1.907-6.282-4.859-7.681z"/><path d="m354.721 148.264 9.323 7.494c3.743 3.009 5.668 7.656 5.148 12.43l-1.294 11.891c-.415 3.81.901 7.548 3.61 10.258 2.711 2.71 6.451 4.026 10.26 3.612l11.892-1.294c4.771-.525 9.421 1.405 12.43 5.149l7.494 9.323c2.4 2.987 5.975 4.7 9.808 4.7 3.832 0 7.406-1.713 9.807-4.7l7.494-9.324c3.008-3.743 7.652-5.67 12.429-5.148l11.893 1.294c3.803.414 7.549-.903 10.259-3.612 2.709-2.71 4.025-6.449 3.61-10.257l-1.293-11.893c-.52-4.774 1.404-9.421 5.147-12.429l9.325-7.494c2.986-2.401 4.699-5.976 4.699-9.807 0-3.832-1.713-7.407-4.7-9.808l-9.324-7.493c-3.743-3.009-5.668-7.656-5.148-12.431l1.293-11.89c.415-3.81-.901-7.549-3.611-10.259s-6.455-4.026-10.258-3.611l-11.893 1.293c-4.771.52-9.42-1.405-12.429-5.148l-7.494-9.323c-2.4-2.987-5.975-4.7-9.807-4.7-3.833 0-7.407 1.713-9.808 4.7l-7.494 9.324c-3.01 3.743-7.651 5.668-12.431 5.148l-11.891-1.293c-3.81-.412-7.548.902-10.259 3.611-2.71 2.71-4.026 6.449-3.611 10.259l1.294 11.892c.52 4.773-1.405 9.42-5.148 12.43l-9.324 7.494c-2.986 2.401-4.699 5.976-4.699 9.808.001 3.828 1.713 7.403 4.701 9.804zm18.72-15.418c7.753-6.232 11.739-15.856 10.663-25.744l-.969-8.901 8.901.968c9.891 1.071 19.513-2.91 25.744-10.663l5.61-6.979 5.609 6.979c6.231 7.753 15.857 11.738 25.742 10.664l8.902-.968-.968 8.901c-1.076 9.888 2.91 19.512 10.663 25.745l6.979 5.609-6.979 5.609c-7.753 6.231-11.739 15.855-10.663 25.743l.968 8.902-8.901-.969c-9.886-1.07-19.511 2.911-25.743 10.664l-5.61 6.979-5.609-6.979c-5.56-6.918-13.82-10.837-22.561-10.837-1.056 0-2.118.057-3.184.173l-8.901.969.969-8.901c1.076-9.888-2.91-19.512-10.664-25.744l-6.979-5.609z"/><path d="m423.391 167.835c16.199 0 29.379-13.179 29.379-29.378s-13.18-29.378-29.379-29.378-29.378 13.179-29.378 29.378 13.178 29.378 29.378 29.378zm0-43.757c7.929 0 14.379 6.45 14.379 14.378s-6.45 14.378-14.379 14.378c-7.928 0-14.378-6.45-14.378-14.378s6.45-14.378 14.378-14.378z"/><path d="m389.289 291.441c2.711-3.089 4.204-7.055 4.204-11.167v-8.409l9.106 7.273c3.234 2.585 7.955 2.056 10.541-1.18 2.585-3.237 2.057-7.956-1.18-10.541l-21.287-17.002c-2.771-2.211-6.696-2.151-9.361 0l-21.286 17.002c-3.236 2.585-3.765 7.305-1.18 10.541 1.481 1.854 3.663 2.82 5.865 2.82 1.641 0 3.294-.537 4.676-1.64l9.105-7.273v8.409c0 .47-.17.922-.473 1.268l-2.183 2.481c-5.619 6.371-5.619 15.98-.012 22.339l9.07 10.332c.63.714.627 1.797-.008 2.52l-9.06 10.31c-2.734 3.112-2.429 7.851.684 10.584 1.424 1.252 3.189 1.866 4.947 1.866 2.082 0 4.154-.862 5.637-2.549l9.059-10.309c5.605-6.375 5.602-15.98.004-22.33l-9.071-10.333c-.631-.715-.631-1.794.007-2.517z"/><path d="m464.084 291.441c2.711-3.088 4.203-7.054 4.203-11.167v-8.409l9.106 7.273c1.382 1.104 3.034 1.64 4.676 1.64 2.202 0 4.384-.966 5.865-2.82 2.585-3.237 2.057-7.956-1.18-10.541l-21.287-17.002c-1.3-1.037-2.989-1.64-4.682-1.64-1.739.001-3.402.615-4.68 1.64l-21.285 17.002c-3.236 2.585-3.765 7.304-1.18 10.541 2.586 3.237 7.305 3.766 10.541 1.179l9.104-7.272v8.409c0 .471-.169.923-.471 1.266l-2.186 2.484c-5.616 6.37-5.616 15.979-.011 22.338l9.071 10.333c.63.714.627 1.796-.009 2.519l-9.06 10.31c-2.734 3.112-2.429 7.851.684 10.584 1.424 1.252 3.189 1.866 4.947 1.866 2.082 0 4.154-.862 5.637-2.549l9.058-10.308c5.607-6.376 5.604-15.982.005-22.331l-9.07-10.332c-.631-.715-.631-1.795.005-2.516z"/><path d="m81.616 254.925c0-4.142-3.357-7.5-7.5-7.5s-7.5 3.358-7.5 7.5v4c0 4.142 3.357 7.5 7.5 7.5s7.5-3.358 7.5-7.5z"/><path d="m81.616 293.373c0-4.142-3.357-7.5-7.5-7.5s-7.5 3.358-7.5 7.5v4c0 4.142 3.357 7.5 7.5 7.5s7.5-3.358 7.5-7.5z"/><path d="m74.116 324.321c-4.143 0-7.5 3.358-7.5 7.5v4c0 4.142 3.357 7.5 7.5 7.5s7.5-3.358 7.5-7.5v-4c0-4.142-3.357-7.5-7.5-7.5z"/><path d="m120.86 254.925c0-4.142-3.357-7.5-7.5-7.5s-7.5 3.358-7.5 7.5v4c0 4.142 3.357 7.5 7.5 7.5s7.5-3.358 7.5-7.5z"/><path d="m120.86 293.373c0-4.142-3.357-7.5-7.5-7.5s-7.5 3.358-7.5 7.5v4c0 4.142 3.357 7.5 7.5 7.5s7.5-3.358 7.5-7.5z"/><path d="m113.36 324.321c-4.143 0-7.5 3.358-7.5 7.5v4c0 4.142 3.357 7.5 7.5 7.5s7.5-3.358 7.5-7.5v-4c0-4.142-3.357-7.5-7.5-7.5z"/><path d="m160.104 254.925c0-4.142-3.357-7.5-7.5-7.5s-7.5 3.358-7.5 7.5v4c0 4.142 3.357 7.5 7.5 7.5s7.5-3.358 7.5-7.5z"/><path d="m160.104 293.373c0-4.142-3.357-7.5-7.5-7.5s-7.5 3.358-7.5 7.5v4c0 4.142 3.357 7.5 7.5 7.5s7.5-3.358 7.5-7.5z"/><path d="m152.604 324.321c-4.143 0-7.5 3.358-7.5 7.5v4c0 4.142 3.357 7.5 7.5 7.5s7.5-3.358 7.5-7.5v-4c0-4.142-3.357-7.5-7.5-7.5z"/><path d="m231.152 60.117 14.528 19.633c2.465 3.33 7.162 4.031 10.49 1.567 3.33-2.464 4.032-7.161 1.567-10.49l-5.676-7.671h42.759c4.143 0 7.5-3.358 7.5-7.5s-3.357-7.5-7.5-7.5h-42.757l5.674-7.666c2.464-3.329 1.763-8.026-1.566-10.49-3.328-2.464-8.026-1.763-10.49 1.566-2.723 3.68-14.163 19.125-14.577 19.706-1.943 2.687-1.856 6.262.048 8.845z"/><path d="m237.18 296.922h42.759l-5.677 7.672c-2.464 3.33-1.762 8.026 1.568 10.49 1.342.993 2.905 1.472 4.455 1.472 2.297 0 4.563-1.051 6.035-3.039 15.723-21.261 14.741-19.853 15.146-20.627 1.238-2.356 1.172-5.437-.568-7.848-.019-.026-.031-.055-.051-.082l-14.528-19.627c-2.465-3.329-7.161-4.029-10.49-1.566-3.329 2.464-4.03 7.161-1.566 10.491l5.674 7.665h-42.757c-4.143 0-7.5 3.358-7.5 7.5s3.357 7.499 7.5 7.499z"/></g></g></svg>