<svg id="Capa_1" enable-background="new 0 0 512 512" height="512" viewBox="0 0 512 512" width="512" xmlns="http://www.w3.org/2000/svg"><g><g><path d="m468.079 54.389h-6.998c-5.445-26.755-29.108-46.889-57.469-46.889s-52.024 20.134-57.469 46.889c-.769 3.801-1.176 7.729-1.176 11.756 0 14.659 5.377 28.06 14.267 38.338h108.845c6.915 0 13.181-2.805 17.714-7.337 4.532-4.532 7.337-10.791 7.337-17.713-.001-13.831-11.221-25.044-25.051-25.044z" fill="#ddebfd"/><path d="m481.68 212.916c-7.073-7.073-16.854-11.449-27.64-11.449h-55.479c6.599-16.083 10.306-33.664 10.471-52.084.693-77.405-62.108-141.298-139.513-141.879-76.256-.572-138.59 59.55-141.569 134.935-.103 2.607-2.246 4.665-4.855 4.666-11.128.002-37.959.004-37.959.004-36.597 0-66.264 29.668-66.264 66.264s29.668 66.263 66.264 66.263h368.272c21.258 0 39.116-16.719 39.707-37.969.311-11.224-4.12-21.436-11.435-28.751z" fill="#ddebfd"/><path d="m481.68 212.916c-7.073-7.073-16.854-11.449-27.64-11.449h-35.296c10.786 0 20.567 4.376 27.64 11.449 7.315 7.315 11.746 17.527 11.434 28.752-.591 21.25-18.449 37.969-39.707 37.969h35.296c21.258 0 39.116-16.719 39.707-37.969.312-11.225-4.119-21.437-11.434-28.752z" fill="#bed9fd"/><path d="m373.736 149.382c-.15 16.731-3.222 32.77-8.729 47.623-.803 2.165.792 4.462 3.101 4.462h30.453c6.599-16.083 10.306-33.664 10.471-52.084.693-77.405-62.108-141.298-139.513-141.879-6.365-.048-12.63.337-18.775 1.108 69.621 8.783 123.635 68.956 122.992 140.77z" fill="#bed9fd"/><g fill="#75cff9"><path d="m427.862 416.498c-12.537 0-26.291-5.94-40.853-12.229-9.853-4.255-22.115-9.551-27.899-9.551-5.782 0-18.043 5.296-27.894 9.551-14.56 6.288-28.312 12.229-40.849 12.229-12.536 0-26.29-5.941-40.85-12.229-9.852-4.255-22.113-9.551-27.896-9.551-5.782 0-18.042 5.296-27.893 9.551-14.56 6.288-28.312 12.229-40.849 12.229-12.536 0-26.289-5.941-40.848-12.229-9.851-4.255-22.111-9.551-27.893-9.551-9.022 0-16.335-7.314-16.335-16.335s7.314-16.335 16.335-16.335c12.536 0 26.289 5.941 40.848 12.229 9.851 4.255 22.111 9.551 27.893 9.551s18.043-5.296 27.894-9.551c14.559-6.288 28.311-12.229 40.848-12.229 12.536 0 26.29 5.941 40.85 12.229 9.852 4.255 22.113 9.551 27.896 9.551 5.782 0 18.043-5.296 27.894-9.551 14.56-6.288 28.312-12.229 40.849-12.229s26.291 5.94 40.853 12.229c9.853 4.255 22.116 9.551 27.9 9.551 9.022 0 16.335 7.314 16.335 16.335s-7.315 16.335-16.336 16.335z"/><path d="m427.862 504.5c-12.537 0-26.291-5.94-40.853-12.229-9.853-4.255-22.115-9.551-27.899-9.551-5.782 0-18.043 5.296-27.894 9.551-14.56 6.288-28.312 12.229-40.849 12.229-12.536 0-26.29-5.941-40.85-12.229-9.852-4.255-22.113-9.551-27.896-9.551-5.782 0-18.042 5.296-27.893 9.551-14.56 6.288-28.312 12.229-40.849 12.229-12.536 0-26.289-5.941-40.848-12.229-9.851-4.255-22.111-9.551-27.893-9.551-9.022 0-16.335-7.314-16.335-16.335 0-9.022 7.314-16.335 16.335-16.335 12.536 0 26.289 5.941 40.848 12.229 9.851 4.255 22.111 9.551 27.893 9.551s18.043-5.296 27.894-9.551c14.559-6.288 28.311-12.229 40.848-12.229 12.536 0 26.29 5.941 40.85 12.229 9.852 4.255 22.113 9.551 27.896 9.551 5.782 0 18.043-5.296 27.894-9.551 14.56-6.288 28.312-12.229 40.849-12.229s26.291 5.94 40.853 12.229c9.853 4.255 22.116 9.551 27.9 9.551 9.022 0 16.335 7.314 16.335 16.335s-7.315 16.335-16.336 16.335z"/></g></g><g><path d="m454.04 193.966h-44.737c8.416-25.843 9.675-54.557 2.77-81.985h56.008c8.696 0 16.869-3.383 23.019-9.532 6.146-6.16 9.531-14.335 9.531-23.019 0-17.942-14.602-32.54-32.55-32.54h-1.169c-8.362-27.507-34.06-46.89-63.302-46.89-20.42 0-39.758 9.619-52.2 25.54-24.017-16.393-52.256-25.314-81.835-25.536-.385-.003-.768-.004-1.153-.004-40.323 0-77.973 15.887-106.124 44.809-2.889 2.969-2.825 7.717.144 10.605 2.967 2.89 7.715 2.825 10.605-.143 25.302-25.995 59.136-40.271 95.379-40.271 35.217 0 69.078 13.756 94.764 39.869 25.892 26.32 39.719 61.474 38.23 98.702-.606 15.104-3.731 30.262-9.798 45.048-3.458 8.417-7.807 16.514-12.927 24.065-2.325 3.428-1.43 8.092 1.998 10.416 3.457 2.345 8.112 1.401 10.417-1.998 4.749-7.002 8.891-14.432 12.372-22.136h50.558c8.437 0 16.37 3.286 22.337 9.254 6.202 6.202 9.484 14.455 9.24 23.239-.471 16.916-14.92 30.678-32.21 30.678h-368.272c-32.403 0-58.765-26.361-58.765-58.764s26.362-58.766 58.766-58.766h37.958c6.662 0 12.086-5.216 12.35-11.872.846-21.39 6.917-42.465 17.557-60.946 2.066-3.59.832-8.176-2.758-10.242-3.59-2.067-8.175-.832-10.242 2.758-11.424 19.844-18.117 42.372-19.422 65.302h-35.444c-40.674 0-73.765 33.092-73.765 73.766s33.091 73.764 73.765 73.764h368.272c25.334 0 46.51-20.304 47.204-45.261.36-12.948-4.48-25.116-13.628-34.264-8.8-8.799-20.5-13.646-32.943-13.646zm-90.698-159.364c9.648-12.377 24.278-19.602 40.268-19.602 24.226 0 45.304 17.194 50.12 40.884.71 3.495 3.783 6.006 7.35 6.006h7c9.677 0 17.55 7.868 17.55 17.54 0 4.684-1.829 9.096-5.144 12.417-3.311 3.311-7.717 5.134-12.407 5.134h-60.653c-7.191-19.445-18.513-37.351-33.543-52.631-3.38-3.438-6.9-6.686-10.541-9.748z"/><path d="m427.861 376.328c-4.229 0-17.681-5.809-24.928-8.938-15.293-6.605-29.738-12.844-43.825-12.844-14.082 0-28.52 6.235-43.84 12.852-7.225 3.121-20.674 8.93-24.903 8.93s-17.681-5.81-24.939-8.944c-15.286-6.602-29.725-12.837-43.807-12.837-14.083 0-28.521 6.235-43.841 12.853-7.225 3.12-20.672 8.929-24.9 8.929-4.227 0-17.673-5.808-24.935-8.943-15.286-6.603-29.724-12.838-43.806-12.838-13.143 0-23.835 10.692-23.835 23.836 0 13.143 10.692 23.835 23.835 23.835 4.231 0 17.689 5.813 24.927 8.94 15.289 6.603 29.729 12.84 43.814 12.84s28.526-6.237 43.823-12.844c7.23-3.123 20.688-8.937 24.919-8.937 4.234 0 17.691 5.813 24.931 8.941 15.289 6.603 29.73 12.839 43.814 12.839 14.085 0 28.527-6.237 43.823-12.844 7.229-3.123 20.686-8.937 24.919-8.937 4.235 0 17.694 5.813 24.926 8.938 15.292 6.604 29.737 12.843 43.827 12.843 13.143 0 23.835-10.692 23.835-23.835s-10.691-23.835-23.834-23.835zm0 32.67c-10.989 0-24.051-5.642-37.879-11.613-13.782-5.953-24.064-10.167-30.874-10.167-6.809 0-17.089 4.214-30.874 10.169-13.826 5.972-26.885 11.611-37.869 11.611s-24.042-5.64-37.876-11.613c-13.78-5.953-24.06-10.167-30.87-10.167-6.807 0-17.087 4.214-30.875 10.17-13.825 5.971-26.883 11.61-37.867 11.61s-24.042-5.64-37.874-11.613c-13.78-5.953-24.06-10.167-30.867-10.167-4.872 0-8.835-3.964-8.835-8.835 0-4.872 3.963-8.836 8.835-8.836 10.982 0 24.037 5.639 37.896 11.624 13.77 5.947 24.042 10.157 30.844 10.157 6.803 0 17.077-4.21 30.883-10.173 13.822-5.97 26.876-11.608 37.858-11.608 10.981 0 24.037 5.639 37.891 11.621 13.774 5.949 24.05 10.16 30.854 10.16s17.078-4.211 30.884-10.174c13.822-5.969 26.877-11.607 37.858-11.607 10.986 0 24.048 5.642 37.899 11.623 13.774 5.948 24.049 10.158 30.854 10.158 4.872 0 8.835 3.963 8.835 8.835s-3.959 8.835-8.831 8.835z"/><path d="m427.861 464.329c-4.232 0-17.689-5.811-24.926-8.936-15.292-6.605-29.735-12.845-43.827-12.845-14.087 0-28.53 6.238-43.828 12.847-7.229 3.122-20.684 8.934-24.915 8.934s-17.689-5.813-24.923-8.937c-15.292-6.605-29.736-12.844-43.822-12.844-14.087 0-28.53 6.239-43.83 12.848-7.228 3.122-20.682 8.933-24.912 8.933-4.229 0-17.682-5.81-24.919-8.936-15.292-6.605-29.734-12.845-43.822-12.845-13.143 0-23.835 10.692-23.835 23.836 0 13.143 10.692 23.835 23.835 23.835 4.229 0 17.682 5.81 24.919 8.936 15.293 6.606 29.736 12.845 43.823 12.845s28.531-6.239 43.833-12.849c7.227-3.122 20.68-8.932 24.909-8.932 4.231 0 17.689 5.813 24.923 8.937 15.292 6.606 29.735 12.844 43.822 12.844s28.531-6.239 43.825-12.846c7.229-3.122 20.686-8.935 24.917-8.935 1.271 0 4.953.632 15.315 4.862 3.833 1.563 8.213-.274 9.778-4.108 1.566-3.835-.274-8.213-4.108-9.778-10.259-4.188-16.535-5.976-20.985-5.976-6.806 0-17.086 4.213-30.868 10.166-13.827 5.973-26.888 11.615-37.874 11.615s-24.047-5.642-37.88-11.616c-13.779-5.951-24.059-10.164-30.866-10.164-6.804 0-17.081 4.211-30.867 10.166-13.827 5.972-26.888 11.614-37.874 11.614s-24.046-5.642-37.885-11.619c-13.775-5.95-24.052-10.161-30.856-10.161-4.872 0-8.835-3.964-8.835-8.835 0-4.872 3.963-8.836 8.835-8.836 10.986 0 24.046 5.642 37.885 11.619 13.775 5.95 24.052 10.161 30.856 10.161 6.805 0 17.083-4.212 30.868-10.166 13.827-5.973 26.888-11.614 37.874-11.614s24.047 5.642 37.88 11.616c13.779 5.951 24.059 10.164 30.866 10.164 6.806 0 17.084-4.212 30.869-10.166 13.828-5.973 26.888-11.614 37.874-11.614 10.991 0 24.051 5.642 37.888 11.618 13.779 5.95 24.059 10.162 30.865 10.162 4.872 0 8.835 3.964 8.835 8.836s-3.965 8.835-8.837 8.835c-4.501 0-9.696-.952-15.879-2.911-3.948-1.253-8.164.937-9.415 4.884-1.251 3.949.936 8.164 4.885 9.415 7.671 2.431 14.347 3.612 20.41 3.612 13.143 0 23.835-10.692 23.835-23.835 0-13.144-10.693-23.836-23.836-23.836z"/></g></g></svg>