<svg id="Capa_1" enable-background="new 0 0 512 512" height="512" viewBox="0 0 512 512" width="512" xmlns="http://www.w3.org/2000/svg"><g><g><g><path d="m469.488 61.589h-8.072c-6.281-30.864-33.577-54.089-66.293-54.089s-60.013 23.225-66.293 54.089c-.887 4.384-1.357 8.916-1.357 13.561 0 16.91 6.202 32.368 16.458 44.224h125.557c7.977 0 15.205-3.236 20.433-8.464s8.464-12.448 8.464-20.433c0-15.954-12.944-28.888-28.897-28.888z" fill="#ddebfd"/><path d="m449.927 201.155c-6.668-6.668-15.889-10.794-26.057-10.794h-52.303c6.221-15.162 9.716-31.737 9.872-49.102.652-72.973-58.553-133.208-131.526-133.755-71.89-.539-130.655 56.14-133.464 127.21-.097 2.458-2.118 4.398-4.577 4.399-10.491.002-35.786.004-35.786.004-34.501 0-62.47 27.969-62.47 62.47s27.969 62.47 62.47 62.47h347.187c20.041 0 36.877-15.762 37.434-35.795.294-10.584-3.884-20.211-10.78-27.107z" fill="#ddebfd"/><g fill="#bed9fd"><path d="m449.927 201.155c-6.668-6.668-15.889-10.794-26.057-10.794h-33.275c10.169 0 19.389 4.126 26.057 10.794 6.896 6.896 11.074 16.523 10.779 27.106-.557 20.033-17.393 35.795-37.434 35.795h33.275c20.041 0 36.877-15.762 37.434-35.795.295-10.583-3.883-20.21-10.779-27.106z"/><path d="m348.163 141.259c-.141 15.773-3.037 30.894-8.229 44.896-.757 2.041.747 4.206 2.923 4.206h28.71c6.221-15.162 9.716-31.737 9.872-49.102.652-72.973-58.553-133.208-131.526-133.755-6.001-.045-11.907.317-17.7 1.045 65.635 8.279 116.556 65.008 115.95 132.71z"/></g></g><g><path d="m239.35 202.391-157.772 273.27c-7.4 12.817 1.85 28.839 16.65 28.839h315.545c14.8 0 24.05-16.022 16.65-28.839l-157.774-273.272c-7.4-12.817-25.899-12.815-33.299.002z" fill="#df646e"/><path d="m430.422 475.661-157.773-273.272c-7.4-12.817-25.905-12.818-33.299.003l-.097.168 151.079 261.676c2.041 3.536-.51 7.956-4.593 7.956h-287.511c-4.746 0-8.917-1.653-12.155-4.315l-4.495 7.785c-7.4 12.817 1.85 28.839 16.65 28.839 59.178 0 322.224 0 315.545 0 14.799-.001 24.05-16.023 16.649-28.84z" fill="#cd5668"/><g fill="#ddebfd"><circle cx="256" cy="444.417" r="19.121"/><path d="m227.992 301.546 12.121 84.532c.641 4.472 4.472 7.793 8.99 7.793h13.793c4.518 0 8.349-3.321 8.99-7.793l12.121-84.532c1.051-7.333-4.638-13.896-12.046-13.896h-31.924c-7.407-.001-13.096 6.563-12.045 13.896z"/></g></g></g><g><path d="m469.49 54.09h-2.204c-9.24-31.683-38.658-54.09-72.166-54.09-23.608 0-45.864 11.267-59.968 29.883-24.282-19.143-53.94-29.644-85.183-29.879-.356-.003-.704-.004-1.059-.004-40.675 0-79.225 17.595-105.897 48.372-2.712 3.131-2.374 7.867.756 10.58 3.131 2.713 7.867 2.374 10.58-.756 23.818-27.486 58.238-43.196 94.561-43.196.315 0 .631.001.947.004 33.314.25 64.591 13.6 88.059 37.455 23.408 23.794 36.185 55.109 36.021 88.222-.119 24.17-7.115 48.295-21.454 69.442-2.324 3.429-1.429 8.093 1.999 10.417 3.415 2.314 8.082 1.444 10.417-1.999 4.438-6.548 8.316-13.488 11.583-20.68h47.388c16.413 0 29.805 13.492 29.34 30.191-.437 15.717-13.866 28.503-29.937 28.503h-37.8c-4.143 0-7.5 3.357-7.5 7.5s3.357 7.5 7.5 7.5h37.8c24.114 0 44.271-19.328 44.931-43.086.7-25.105-19.424-45.608-44.334-45.608h-41.586c.055-.17.1-.343.154-.513 5.44-17.17 7.703-36.101 5.886-55.478h81.167c20.118 0 36.39-16.272 36.39-36.39-.001-20.065-16.325-36.39-36.391-36.39zm0 57.78h-83.404c-5.37-26.173-18.2-50.334-37.476-69.931-.711-.723-1.431-1.433-2.155-2.138 11.251-15.43 29.399-24.801 48.665-24.801 28.488 0 53.28 20.223 58.95 48.086.711 3.493 3.784 6.004 7.35 6.004h8.07c11.794 0 21.39 9.596 21.39 21.391 0 11.824-9.562 21.389-21.39 21.389z"/><path d="m256 417.796c-14.679 0-26.621 11.942-26.621 26.621s11.942 26.621 26.621 26.621 26.621-11.942 26.621-26.621-11.942-26.621-26.621-26.621zm0 38.242c-6.408 0-11.621-5.213-11.621-11.621s5.213-11.621 11.621-11.621 11.621 5.213 11.621 11.621-5.213 11.621-11.621 11.621z"/><path d="m286.825 286.936c-3.738-4.313-9.156-6.786-14.863-6.786h-31.924c-5.708 0-11.125 2.474-14.863 6.786s-5.417 10.025-4.607 15.675l12.121 84.531c1.163 8.111 8.22 14.229 16.415 14.229h13.793c8.194 0 15.251-6.116 16.414-14.229l12.121-84.531c.81-5.65-.869-11.363-4.607-15.675zm-10.241 13.545-12.121 84.53c-.111.774-.784 1.358-1.566 1.358h-13.793c-.782 0-1.455-.583-1.566-1.357l-12.121-84.531c-.263-1.836.572-3.119 1.094-3.721s1.673-1.611 3.528-1.611h31.924c1.854 0 3.007 1.01 3.528 1.611s1.356 1.886 1.093 3.721z"/><path d="m321.245 271.56h29.225c4.143 0 7.5-3.357 7.5-7.5s-3.357-7.5-7.5-7.5h-37.885l-33.441-57.921c-4.83-8.366-13.481-13.361-23.142-13.361-9.662 0-18.316 4.996-23.147 13.364l-33.439 57.918h-123.326c-30.311 0-54.97-24.659-54.97-54.97s24.659-54.97 54.973-54.97c0 0 25.288-.01 35.777-.01 6.506 0 11.809-5.094 12.074-11.604.674-17.028 4.714-33.416 12.005-48.708 1.783-3.739.197-8.216-3.542-9.998-3.739-1.784-8.215-.197-9.998 3.541-7.772 16.3-12.247 33.704-13.316 51.769-11.593.002-33.004.01-33.004.01-38.582 0-69.97 31.389-69.97 69.97s31.388 69.97 69.97 69.97h114.666l-89.517 155.049c-2.071 3.587-.842 8.174 2.745 10.245 3.586 2.069 8.173.842 10.245-2.745l131.616-227.967c2.12-3.672 5.917-5.864 10.157-5.864 4.237 0 8.032 2.191 10.151 5.861l157.774 273.272c2.119 3.671 2.119 8.055-.001 11.727-2.119 3.671-5.915 5.862-10.154 5.862h-315.543c-4.239 0-8.035-2.191-10.155-5.863-2.12-3.671-2.12-8.055 0-11.726l8.658-14.996c2.071-3.587.842-8.174-2.745-10.245-3.588-2.071-8.174-.843-10.245 2.745l-8.658 14.996c-4.831 8.367-4.831 18.358 0 26.726 4.83 8.368 13.482 13.363 23.145 13.363h315.545c9.661 0 18.313-4.995 23.145-13.362s4.832-18.358.001-26.727z"/></g></g></svg>