<svg id="Capa_1" enable-background="new 0 0 512 512" height="512" viewBox="0 0 512 512" width="512" xmlns="http://www.w3.org/2000/svg"><g><g><g><path d="m429.058 45.762h-5.71c-4.443-21.832-23.753-38.262-46.895-38.262-23.143 0-42.453 16.43-46.896 38.262-.628 3.101-.96 6.307-.96 9.593 0 11.962 4.387 22.897 11.642 31.284h88.818c5.643 0 10.756-2.289 14.454-5.987s5.987-8.806 5.987-14.454c.002-11.286-9.155-20.436-20.44-20.436z" fill="#ddebfd"/><path d="m440.157 175.121c-5.772-5.772-13.753-9.343-22.554-9.343h-45.271c5.385-13.123 8.41-27.47 8.545-42.501.565-63.162-50.681-115.3-113.844-115.774-62.226-.467-113.09 48.593-115.522 110.108-.084 2.127-1.833 3.807-3.962 3.807-9.08.002-30.975.003-30.975.003-29.863 0-54.072 24.209-54.072 54.072s24.209 54.072 54.072 54.072h300.513c17.347 0 31.919-13.643 32.401-30.983.254-9.159-3.362-17.492-9.331-23.461z" fill="#ddebfd"/><g fill="#cde2ff"><path d="m440.157 175.121c-5.772-5.772-13.753-9.343-22.554-9.343h-28.803c8.802 0 16.783 3.571 22.555 9.343 5.969 5.969 9.585 14.302 9.33 23.462-.482 17.34-15.054 30.983-32.401 30.983h28.802c17.347 0 31.919-13.643 32.401-30.983.255-9.16-3.361-17.493-9.33-23.462z"/><path d="m352.074 123.277c-.122 13.653-2.629 26.741-7.123 38.86-.655 1.766.647 3.641 2.53 3.641h24.85c5.385-13.124 8.41-27.47 8.545-42.501.565-63.162-50.681-115.3-113.844-115.774-5.194-.039-10.306.275-15.32.904 56.811 7.167 100.886 56.269 100.362 114.87z"/></g></g><path d="m255.998 149.091c-57.67 0-104.421 46.751-104.421 104.421s46.751 104.421 104.421 104.421 104.422-46.751 104.422-104.422-46.752-104.42-104.422-104.42z" fill="#ddebfd"/><path d="m188.873 333.494 21.328-25.413c-15.557-13.07-25.453-32.66-25.453-54.569 0-39.351 31.9-71.25 71.25-71.25s71.251 31.898 71.251 71.249c0 21.909-9.9 41.499-25.457 54.569l21.329 25.413c22.8-19.155 37.299-47.873 37.299-79.981 0-57.67-46.752-104.42-104.422-104.42s-104.421 46.751-104.421 104.421c0 32.108 14.496 60.826 37.296 79.981z" fill="#6cbff8"/><path d="m360.42 253.511c0 32.11-14.499 60.831-37.299 79.981l-21.329-25.413c15.56-13.07 25.457-32.659 25.457-54.569z" fill="#df646e"/><circle cx="255.998" cy="253.512" fill="#6bbdd5" r="16.858"/></g><g><path d="m417.601 158.285h-34.618c6.225-20.167 7.229-42.591 2.137-64.141h43.941c15.431 0 27.941-12.503 27.941-27.94 0-15.388-12.502-27.911-27.883-27.941-7.312-22.498-28.554-38.26-52.668-38.26-16.656 0-32.449 7.65-42.879 20.376-19.593-13.077-42.503-20.193-66.486-20.376-.313-.002-.622-.003-.934-.003-31.091 0-60.68 11.654-83.403 32.873-3.027 2.827-3.19 7.573-.362 10.601 2.827 3.026 7.572 3.191 10.601.362 19.932-18.614 45.887-28.836 73.166-28.836 28.059 0 55.444 10.892 76.333 32.128 32.788 33.335 39.926 82.818 19.444 123.382-1.867 3.697-.384 8.209 3.314 10.075 3.697 1.869 8.209.384 10.075-3.314.664-1.313 1.3-2.646 1.917-3.986h40.364c6.522 0 12.651 2.537 17.257 7.144 4.787 4.786 7.321 11.161 7.136 17.945-.369 13.07-11.54 23.703-24.903 23.703h-53.673c-13.62-46.455-56.618-80.48-107.42-80.48s-93.8 34.025-107.42 80.48h-32.009c-25.679 0-46.571-20.896-46.571-46.581 0-25.679 20.892-46.57 46.571-46.57h30.98c6.191 0 11.222-4.845 11.454-11.017.668-16.992 5.2-33.114 13.473-47.915 2.021-3.616.728-8.186-2.888-10.206-3.618-2.022-8.186-.729-10.206 2.888-8.75 15.657-13.971 33.301-15.186 51.25h-27.627c-33.951 0-61.571 27.621-61.571 61.57 0 33.956 27.621 61.581 61.571 61.581h28.717c-.794 5.368-1.21 10.857-1.21 16.442 0 61.71 50.22 111.923 111.923 111.923 38.518 0 73.86-19.435 94.539-51.988 2.221-3.496 1.187-8.131-2.31-10.353-3.495-2.219-8.131-1.187-10.353 2.31-4.052 6.379-8.76 12.171-13.997 17.324l-11.748-13.997c12.707-12.904 20.545-29.717 22.258-47.719h18.238c-.365 4.769-1.072 9.497-2.126 14.127-.92 4.039 1.608 8.059 5.647 8.979 4.036.92 8.059-1.608 8.979-5.647 3.048-13.381 3.643-27.48 1.585-41.4h50.381c21.404 0 39.301-17.172 39.897-38.286.299-10.952-3.794-21.24-11.524-28.969-7.44-7.441-17.336-11.538-27.864-11.538zm-72.066-128.817c7.608-9.038 18.952-14.465 30.915-14.465 19.107 0 35.741 13.567 39.551 32.258.712 3.493 3.784 6.002 7.349 6.002h5.71c7.136 0 12.941 5.805 12.941 12.941 0 7.14-5.797 12.94-12.941 12.94h-48.528c-5.95-15.701-15.18-30.161-27.352-42.535-2.461-2.503-5.015-4.879-7.645-7.141zm-186.46 224.05c0-53.442 43.479-96.922 96.923-96.922 50.92 0 92.794 39.469 96.635 89.421h-18.249c-3.79-39.917-37.492-71.249-78.385-71.249-43.424 0-78.751 35.327-78.751 78.75 0 20.797 8.161 40.538 22.617 55.219l-11.697 13.938c-17.944-17.6-29.093-42.099-29.093-69.157zm137.893 48.826c-3.171 2.663-3.583 7.393-.921 10.564l16.354 19.486c-16.179 11.595-35.763 18.047-56.404 18.047-21.001 0-40.461-6.717-56.352-18.111l16.299-19.421c2.661-3.172 2.25-7.901-.921-10.564-14.476-12.162-22.778-29.96-22.778-48.827 0-35.152 28.598-63.75 63.751-63.75s63.751 28.598 63.751 63.749c.001 18.868-8.302 36.664-22.779 48.827z"/><path d="m255.997 229.16c-3.986 0-7.748.969-11.073 2.673l-11.912-11.912c-2.93-2.928-7.678-2.928-10.608 0-2.929 2.93-2.929 7.678 0 10.608l11.91 11.91c-1.707 3.326-2.676 7.09-2.676 11.079 0 13.432 10.927 24.359 24.359 24.359 13.431 0 24.358-10.927 24.358-24.359 0-13.431-10.927-24.358-24.358-24.358zm0 33.717c-5.16 0-9.359-4.198-9.359-9.359s4.198-9.358 9.359-9.358c5.16 0 9.358 4.197 9.358 9.358s-4.197 9.359-9.358 9.359z"/><path d="m280.636 478.127-17.137 11.985v-79.542c0-4.143-3.357-7.5-7.5-7.5s-7.5 3.357-7.5 7.5v79.542l-17.137-11.985c-3.395-2.374-8.07-1.546-10.445 1.849-2.373 3.394-1.546 8.07 1.849 10.445l28.935 20.236c.011.007.022.012.033.02 2.526 1.751 5.957 1.782 8.529 0 .011-.007.023-.012.033-.02l28.935-20.236c3.395-2.374 4.222-7.051 1.849-10.445-2.373-3.395-7.049-4.223-10.444-1.849z"/><path d="m422.708 478.127-17.137 11.985v-140.25c0-4.143-3.357-7.5-7.5-7.5s-7.5 3.357-7.5 7.5v140.25l-17.138-11.985c-3.396-2.374-8.07-1.544-10.445 1.849-2.373 3.395-1.546 8.07 1.849 10.445l28.936 20.236c.011.007.022.012.033.02 2.536 1.758 5.97 1.774 8.529 0 .011-.007.022-.012.033-.02l28.935-20.236c3.395-2.374 4.222-7.051 1.849-10.445-2.373-3.395-7.049-4.223-10.444-1.849z"/><path d="m138.565 478.127-17.137 11.985v-140.25c0-4.143-3.357-7.5-7.5-7.5s-7.5 3.357-7.5 7.5v140.25l-17.138-11.985c-3.394-2.374-8.07-1.546-10.445 1.849-2.373 3.394-1.546 8.07 1.849 10.445l28.935 20.236c.011.007.022.012.033.02 2.579 1.787 6.011 1.745 8.529 0 .011-.007.023-.012.033-.02l28.935-20.236c3.395-2.374 4.222-7.051 1.849-10.445-2.373-3.395-7.05-4.223-10.443-1.849z"/></g></g></svg>