<svg id="Capa_1" enable-background="new 0 0 512.003 512.003" height="512" viewBox="0 0 512.003 512.003" width="512" xmlns="http://www.w3.org/2000/svg"><g><g><path d="m495.189 324.726c-4.85-48.969-27.702-95.953-63.23-130.002-25.297-24.244-46.503-38.584-77.387-55.213-17.604-9.479-74.839-24.336-98.571-24.336-.022 0-.045 0-.067 0-2.456.001-3.819-2.864-2.209-4.72 43.217-49.819 117.114-63.476 175.486-30.707 11.089 6.226 25.109 1.162 29.55-10.755 3.507-9.41-.221-20.044-8.921-25.06-37.557-21.653-81.952-31.395-125.115-27.119-48.969 4.85-95.953 27.702-130.002 63.23-24.244 25.297-49.148 60.19-61.254 93.111-2.72 7.398-18.296 59.114-18.296 82.847v.063c.001 2.457-2.899 3.793-4.755 2.182-49.634-43.087-63.346-116.639-30.973-174.912 5.852-10.535 2.264-24.005-8.568-29.285-9.835-4.795-21.59-1.173-26.944 8.113-21.653 37.557-31.395 81.951-27.119 125.114 4.85 48.969 27.702 95.953 63.23 130.002 25.297 24.244 59.162 48.287 92.082 60.393 7.398 2.72 60.143 19.156 83.875 19.156h.067c2.456-.001 3.819 2.864 2.209 4.72-43.217 49.819-117.114 63.476-175.486 30.707-11.089-6.226-25.109-1.162-29.55 10.755-3.507 9.41.221 20.044 8.921 25.06 37.557 21.653 81.952 31.395 125.115 27.119 48.969-4.85 95.953-27.702 130.002-63.23 24.244-25.297 46.434-50.466 58.54-83.387 2.72-7.398 21.01-68.838 21.01-92.571v-.063c-.001-2.457 2.899-3.793 4.755-2.182 49.636 43.087 63.348 116.639 30.975 174.912-5.852 10.534-2.264 24.005 8.568 29.285 9.835 4.795 21.59 1.173 26.944-8.113 21.652-37.557 31.394-81.951 27.118-125.114z" fill="#ddebfd"/><g fill="#bed9fd"><path d="m330.324 409.439c-34.578 35.528-82.292 58.38-132.023 63.23-43.834 4.275-88.919-5.466-127.061-27.119-5.021-2.851-8.405-7.517-9.743-12.741-3.643 2.308-6.609 5.782-8.256 10.201-3.507 9.41.221 20.044 8.921 25.06 37.557 21.653 81.952 31.395 125.115 27.119 48.969-4.85 95.953-27.702 130.002-63.23 15.023-15.676 31.685-31.842 41.737-50.871-7.199 10.576-19.644 19.054-28.692 28.351z"/><path d="m409.439 181.679c35.528 34.578 58.38 82.292 63.23 132.023 4.275 43.834-5.466 88.919-27.119 127.061-2.851 5.021-7.517 8.405-12.741 9.743 2.308 3.643 5.782 6.609 10.201 8.256 9.41 3.507 20.044-.221 25.06-8.921 21.653-37.557 31.395-81.952 27.119-125.115-4.85-48.969-27.702-95.953-63.23-130.002-15.676-15.023-31.337-26.66-48.817-38.64 10.576 7.2 17 16.547 26.297 25.595z"/><path d="m181.68 102.564c34.578-35.528 82.292-58.38 132.023-63.23 43.834-4.275 88.919 5.466 127.061 27.119 5.021 2.851 8.405 7.517 9.743 12.741 3.643-2.308 6.609-5.782 8.256-10.201 3.507-9.41-.221-20.044-8.921-25.06-37.557-21.653-81.952-31.395-125.115-27.119-48.969 4.85-95.953 27.702-130.002 63.23-15.023 15.676-28.456 32.771-39.751 50.695 7.198-10.575 17.657-18.878 26.706-28.175z"/><path d="m102.564 330.323c-35.528-34.578-58.38-82.292-63.23-132.023-4.275-43.834 5.466-88.919 27.12-127.06 2.851-5.021 7.517-8.405 12.741-9.743-2.308-3.643-5.782-6.609-10.201-8.256-9.41-3.507-20.044.221-25.06 8.921-21.654 37.557-31.395 81.952-27.12 125.115 4.85 48.969 28.801 94.843 63.23 130.002 15.443 15.771 32.043 29.805 51.072 39.857-10.576-7.199-19.255-17.764-28.552-26.813z"/></g><circle cx="256.002" cy="256.001" fill="#cde2ff" r="68.777"/><path d="m304.734 207.474c3.281 8.025 5.104 16.801 5.104 26.007 0 37.984-30.792 68.777-68.776 68.777-19.044 0-36.278-7.743-48.732-20.249 10.258 25.087 34.894 42.769 63.673 42.769 37.984 0 68.776-30.792 68.776-68.776-.001-18.94-7.659-36.09-20.045-48.528z" fill="#bed9fd"/></g><g><path d="m337.518 15.819c-.298-4.131-3.889-7.247-8.021-6.94-1.843.133-3.698.292-5.511.472-52.348 5.186-101.481 29.109-134.804 65.639-42.321 46.396-54.35 74.547-65.676 106.529-8.903 25.14-13.983 46.286-15.412 64.289-4.267-4.304-8.175-8.869-11.758-13.632-8.531-39.714-5.226-151.889 107.985-218.202 3.574-2.094 4.774-6.688 2.681-10.263-2.094-3.575-6.689-4.772-10.263-2.681-50.214 29.413-86.54 72.104-105.054 123.457-10.465 29.033-13.429 54.893-13.466 74.794-13.64-35.93-11.736-77.17 7.782-112.303 3.921-7.058 4.796-15.468 2.401-23.075-2.315-7.354-7.372-13.246-14.239-16.595-13.271-6.469-29.406-1.59-36.727 11.109-22.52 39.06-32.495 85.085-28.086 129.599 5.001 50.486 28.876 99.574 65.504 134.678 29.546 28.316 61.14 49.158 91.363 60.273 6.402 2.354 51.828 17.249 79.87 20.664-4.37 4.361-9.002 8.365-13.846 12.017-39.679 8.548-151.914 5.3-218.269-107.968-2.095-3.574-6.69-4.771-10.263-2.681-3.574 2.094-4.774 6.688-2.681 10.263 29.422 50.222 72.122 86.551 123.484 105.06 29.076 10.479 54.977 13.439 74.887 13.465-36.126 13.765-77.625 11.752-112.939-8.073-7.224-4.056-15.818-4.749-23.579-1.906-7.722 2.83-13.797 8.874-16.67 16.582-4.823 12.946.309 27.32 12.203 34.177 32.953 18.999 71.054 29.104 108.919 29.103 5.79 0 11.578-.236 17.338-.713 4.128-.342 7.197-3.966 6.855-8.094-.342-4.129-3.968-7.188-8.094-6.855-40.418 3.349-82.153-6.041-117.526-26.436-5.523-3.184-7.896-9.89-5.639-15.943 1.359-3.65 4.121-6.397 7.774-7.736 3.642-1.334 7.678-1.005 11.075.902 22.615 12.695 47.503 18.828 72.225 18.827 42.061-.002 83.626-17.76 112.6-51.159 2.683-3.093 3.292-7.33 1.59-11.056-1.688-3.693-5.401-6.078-9.523-6.078-.003 0-.006 0-.009 0-21.464 0-74.796-16.832-84.606-20.439-28.301-10.407-58.096-30.127-86.162-57.025-34.085-32.666-56.302-78.346-60.955-125.326-4.104-41.421 5.185-84.261 26.152-120.629 3.404-5.902 10.94-8.146 17.16-5.118 3.128 1.525 5.438 4.23 6.504 7.616 1.164 3.698.725 7.812-1.206 11.285-33.857 60.947-20.142 138.423 32.615 184.22 3.056 2.651 7.411 3.279 11.097 1.596 3.691-1.685 6.076-5.393 6.074-9.506 0-18.049 5.037-41.424 14.972-69.476 11.112-31.377 22.108-57.019 62.619-101.428 30.857-33.828 76.491-55.996 125.203-60.821 1.681-.167 3.4-.314 5.109-.438 4.134-.298 7.241-3.889 6.943-8.021z"/><path d="m510.973 196.741c-29.422-50.222-72.122-86.551-123.484-105.06-29.085-10.482-54.983-13.435-74.896-13.46 36.129-13.769 77.633-11.759 112.947 8.067 7.226 4.056 15.82 4.75 23.58 1.906 7.722-2.83 13.797-8.874 16.67-16.582 4.823-12.946-.309-27.32-12.203-34.177-26.659-15.371-57.063-25.084-87.927-28.09-4.118-.392-7.789 2.615-8.191 6.738-.401 4.122 2.615 7.79 6.738 8.191 28.75 2.8 57.066 11.844 81.888 26.155 5.523 3.184 7.896 9.89 5.639 15.943-1.359 3.65-4.121 6.397-7.774 7.736-3.64 1.336-7.677 1.007-11.075-.902-61.093-34.295-138.821-20.698-184.824 32.332-2.683 3.094-3.292 7.33-1.59 11.056 1.688 3.693 5.401 6.078 9.523 6.078h.009c21.483 0 78.149 16.846 87.457 20.269 33.987 12.499 62.376 37.132 83.312 57.196 34.084 32.666 56.302 78.346 60.955 125.326 4.104 41.421-5.185 84.261-26.153 120.629-3.402 5.903-10.938 8.148-17.159 5.118-3.128-1.525-5.438-4.23-6.504-7.616-1.164-3.698-.725-7.812 1.206-11.285 33.857-60.947 20.142-138.423-32.615-184.22-3.055-2.651-7.41-3.279-11.097-1.596-3.691 1.685-6.076 5.393-6.074 9.506 0 21.778-16.233 76.938-19.531 85.908-9.938 27.024-28.347 53.989-57.934 84.86-25.673 26.788-58.49 45.978-94.903 55.492-4.007 1.048-6.407 5.146-5.36 9.153.882 3.372 3.922 5.605 7.252 5.605.627 0 1.266-.079 1.901-.246 39.097-10.216 74.348-30.835 101.94-59.626 31.065-32.414 50.506-61.032 61.182-90.063 2.577-7.008 16.572-53.056 19.792-81.133 4.361 4.376 8.348 9.025 11.999 13.879 8.53 39.718 5.22 151.887-107.986 218.197-3.574 2.094-4.774 6.688-2.681 10.263 1.396 2.383 3.903 3.71 6.479 3.71 1.288 0 2.593-.332 3.784-1.029 50.214-29.413 86.54-72.104 105.054-123.457 10.466-29.031 13.431-54.89 13.468-74.79 13.639 35.929 11.735 77.167-7.783 112.3-3.92 7.058-4.795 15.468-2.4 23.075 2.315 7.354 7.372 13.247 14.239 16.595 13.274 6.469 29.406 1.588 36.727-11.109 22.521-39.061 32.495-85.086 28.086-129.6-5.001-50.486-28.876-99.574-65.504-134.678-21.988-21.072-51.92-46.987-88.513-60.444-7.258-2.669-54.554-17.164-82.71-20.504 4.368-4.357 8.996-8.358 13.836-12.006 39.679-8.549 151.913-5.299 218.267 107.968 1.396 2.383 3.903 3.71 6.479 3.71 1.288 0 2.593-.332 3.784-1.029 3.572-2.09 4.772-6.685 2.678-10.259z"/><path d="m256.114 332.276c-29.124 0-56.987-16.761-69.683-45-5.733-12.755-7.857-26.797-6.144-40.609.511-4.111 4.269-7.027 8.367-6.519 4.11.51 7.029 4.256 6.519 8.366-1.376 11.086.332 22.362 4.939 32.611 10.197 22.685 32.584 36.148 55.979 36.15 8.388.001 16.901-1.729 25.034-5.386 30.817-13.854 44.618-50.195 30.765-81.013-13.853-30.817-50.195-44.617-81.013-30.765-9.306 4.183-17.468 10.654-23.604 18.715-2.508 3.295-7.215 3.934-10.511 1.425-3.296-2.51-3.934-7.215-1.425-10.511 7.647-10.045 17.811-18.105 29.39-23.311 38.364-17.243 83.6-.064 100.845 38.296 17.244 38.36.065 83.6-38.296 100.845-10.122 4.552-20.724 6.705-31.162 6.706z"/></g></g></svg>