<svg id="Capa_1" enable-background="new 0 0 512 512" height="512" viewBox="0 0 512 512" width="512" xmlns="http://www.w3.org/2000/svg"><g><g><path d="m318.204 68.435c-99.071-65.931-206.269-80.653-239.434-32.882-12.727 18.333-12.689 43.208-2.226 70.626-2.817 3.449-5.176 7.192-7.018 11.238-7.705 16.924-5.515 36.85 4.66 57.459-1.196 2.433-2.23 4.949-3.075 7.556-5.473 16.889-2.701 35.274 6.667 53.348-43.632 58.931 28.593 129.69 109.72 157.279 99.274 33.76 160.853 62.396 167.773 96.675 1.719 8.516 8.982 14.767 17.67 14.767 8.826 0 16.432-6.401 17.741-15.129 6.139-40.949-16.63-65.586-52.019-88.729-27.799-18.179-39.219-38.751-18.406-64.096 24.413-4.751 44.504-14.417 57.475-28.398 9.133-2.503 17.315-5.882 24.355-10.122 15.309-4.427 27.508-12.274 35.452-23.716 33.164-47.773-20.264-139.946-119.335-205.876z" fill="#ddebfd"/><path d="m318.204 68.435c-7.854-5.227-15.758-10.128-23.673-14.706 91.419 66.247 140.847 155.562 111.28 205.149-7.487 12.556-19.369 21.416-34.493 26.724-6.868 4.804-14.911 8.727-23.939 11.745-12.411 15.462-32.107 26.562-56.317 32.552-19.799 27.931-7.576 49.562 20.921 68.026 36.278 23.506 60.002 49.077 55.482 93.195-.41 3.998-1.981 7.579-4.322 10.409 2.824 1.876 6.183 2.97 9.797 2.97 8.826 0 16.432-6.401 17.741-15.129 6.139-40.949-16.63-65.586-52.019-88.729-27.799-18.179-39.219-38.751-18.406-64.096 24.413-4.751 44.504-14.417 57.475-28.398 9.133-2.503 17.316-5.882 24.355-10.122 15.309-4.427 27.508-12.274 35.452-23.716 33.165-47.771-20.263-139.943-119.334-205.874z" fill="#bed9fd"/><ellipse cx="272.859" cy="144.527" fill="#9ec8fc" rx="27.786" ry="149.252" transform="matrix(.554 -.833 .833 .554 1.375 291.62)"/></g><g><path d="m453.124 222.905c-9.928-52.073-60.033-113.663-130.763-160.733-48.84-32.503-101.249-53.906-147.573-60.268-37.934-5.211-82.528-1.23-103.331 31.063-.187.289-.992 1.596-1.053 1.698-12.675 21.154-10.529 46.774-2.318 70.232-11.86 16.858-15.628 40.688-2.185 70.034-8.213 19.373-5.911 40.63 3.166 60.203-12.168 18.51-15.098 39.394-8.447 60.68 12.967 41.503 62.984 83.432 124.459 104.338 31.48 10.706 56.783 20.107 77.354 28.741 3.821 1.603 8.216-.193 9.818-4.014 1.603-3.819-.194-8.215-4.013-9.819-20.895-8.769-46.517-18.292-78.329-29.111-26.859-9.134-52.949-23.314-73.464-39.927-21.389-17.323-35.742-36.231-41.507-54.683-4.501-14.405-3.575-28.14 2.689-40.979 22.821 34.5 67.011 65.538 121.208 83.102 3.923 1.272 8.165-.867 9.447-4.822 1.277-3.941-.882-8.17-4.823-9.448-55.456-17.972-100.67-51.641-118.94-86.665-.034-.07-.056-.144-.092-.213-6.984-13.477-9.731-26.737-8.141-38.867 15.441 23.335 39.357 46.153 69.58 66.311 7.238 4.826 14.862 9.504 22.661 13.904 3.607 2.035 8.183.76 10.218-2.847 2.035-3.609.761-8.183-2.847-10.218-7.476-4.217-14.78-8.699-21.708-13.319-30.308-20.214-54.639-44.017-68.51-67.027-10.328-17.131-17.386-38.073-10.549-56.765.06-.162.117-.324.179-.485.062-.162.135-.319.199-.481 9.076 18.724 22.477 38.329 39.942 57.906 2.758 3.089 7.5 3.36 10.59.604 3.091-2.758 3.361-7.499.604-10.59-80.187-89.882-63.448-168.716 46.102-153.675 44.126 6.06 94.309 26.62 141.303 57.895 66.473 44.236 115.278 103.529 124.339 151.054.849 4.453 1.338 8.725 1.469 12.809 1.584 49.397-46.924 61.327-96.299 54.545-44.127-6.06-94.309-26.621-141.303-57.896-17.875-11.895-34.614-24.912-49.754-38.693-.609-.554-1.215-1.11-1.818-1.666-3.046-2.807-7.79-2.615-10.598.429-2.808 3.045-2.616 7.79.429 10.599.627.579 1.259 1.157 1.892 1.733 15.696 14.287 33.037 27.774 51.539 40.087 48.84 32.502 101.25 53.907 147.573 60.268 8.125 1.116 15.908 1.744 23.325 1.899-24.927 19.665-63.758 24.103-95.355 22.171-4.132-.239-7.69 2.897-7.943 7.03-.252 4.135 2.895 7.691 7.03 7.944 12.235.746 24.641.602 36.832-.66-2.984 6.985-3.979 13.936-2.93 20.784 2.159 14.087 12.653 27.112 32.082 39.818 33.292 21.771 54.317 43.936 48.709 81.344-.747 4.983-5.185 8.741-10.324 8.741-5.035 0-9.278-3.599-10.319-8.751-4.138-20.501-23.884-39.067-62.143-58.429-3.695-1.871-8.208-.392-10.079 3.305-1.87 3.696-.391 8.208 3.305 10.079 33.367 16.887 51.1 32.592 54.213 48.014 2.432 12.041 12.955 20.782 25.023 20.782 12.504 0 23.32-9.25 25.158-21.518 3.182-21.226-.61-39.637-11.593-56.287-9.013-13.662-22.503-25.947-43.74-39.837-15.442-10.097-24.009-20.035-25.465-29.535-1.028-6.711 1.309-13.758 7.139-21.482 20.834-4.416 42.251-13.229 57.301-28.542 8.627-2.519 16.426-5.802 23.23-9.776 38.836-11.583 55.614-42.964 48.149-82.118z"/><path d="m252.837 173.574c28.019 18.673 102.303 64.291 135.724 64.291 8.667 0 12.468-3.146 14.658-6.296 1.495-2.151 3.061-5.856 2.029-11.286-4.5-23.685-59.678-69.718-112.368-104.834-33.545-22.356-66.814-41.002-93.678-52.5-41.81-17.897-52.386-11.708-56.706-5.493-1.495 2.15-3.061 5.855-2.029 11.286 4.503 23.685 59.681 69.718 112.37 104.832zm-55.051-94.873c25.228 11.266 56.045 28.749 86.776 49.231 30.563 20.369 58.372 41.929 78.302 60.706 20.995 19.779 26.81 30.503 27.619 34.146-3.694.673-15.936-.575-42.553-12.462-25.227-11.265-56.044-28.749-86.776-49.231-30.564-20.369-58.373-41.928-78.304-60.705-20.995-19.78-26.809-30.503-27.618-34.147 3.692-.663 15.936.575 42.554 12.462z"/></g></g></svg>