<svg id="Capa_1" enable-background="new 0 0 512 512" height="512" viewBox="0 0 512 512" width="512" xmlns="http://www.w3.org/2000/svg"><g><g><path d="m421.329 209.398-24.096-19.367c-14.78-11.88-22.483-30.476-20.432-49.328l3.344-30.733c.908-8.344-6.135-15.387-14.479-14.479l-30.733 3.344c-18.852 2.051-37.448-5.652-49.328-20.432l-19.367-24.096c-5.258-6.542-15.219-6.542-20.477 0l-19.367 24.096c-11.88 14.78-30.476 22.483-49.328 20.432l-30.733-3.344c-8.344-.908-15.387 6.135-14.479 14.479l3.344 30.733c2.051 18.852-5.652 37.448-20.432 49.328l-24.096 19.367c-6.542 5.258-6.542 15.219 0 20.477l24.096 19.367c14.78 11.88 22.483 30.476 20.432 49.328l-3.344 30.733c-.908 8.344 6.135 15.387 14.479 14.479l30.733-3.344c18.852-2.051 37.448 5.652 49.328 20.432l19.367 24.096c5.258 6.542 15.219 6.542 20.477 0l19.367-24.096c11.88-14.78 30.476-22.483 49.328-20.432l30.733 3.344c8.344.908 15.387-6.135 14.479-14.479l-3.344-30.733c-2.051-18.852 5.652-37.448 20.432-49.328l24.096-19.367c6.542-5.258 6.542-15.219 0-20.477z" fill="#ecc52e"/><circle cx="256" cy="219.637" fill="#e69642" r="83.133"/><path d="m311.661 157.891c8.884 13.23 14.07 29.152 14.07 46.286 0 45.913-37.22 83.133-83.133 83.133-21.408 0-40.925-8.095-55.661-21.387 14.923 22.222 40.284 36.847 69.063 36.847 45.913 0 83.133-37.22 83.133-83.133 0-24.505-10.604-46.531-27.472-61.746z" fill="#e27c48"/><path d="m442.371 337.001c-31.065 0-31.065-20.632-62.129-20.632-31.063 0-31.063 20.632-62.126 20.632-31.062 0-31.062-20.632-62.124-20.632-31.061 0-31.061 20.632-62.121 20.632-31.062 0-31.062-20.632-62.124-20.632s-31.062 20.632-62.125 20.632c-28.403 0-30.833-17.252-54.791-20.205-3.899-.481-7.331 2.605-7.331 6.534v134.265c0 2.761 2.239 5 5 5h487c2.761 0 5-2.239 5-5v-134.265c0-3.929-3.431-7.015-7.331-6.534-23.961 2.952-26.392 20.205-54.798 20.205z" fill="#6cbff8"/><path d="m497.169 316.796c-8.598 1.06-14.421 3.963-19.669 7.247v133.552c0 2.761-2.239 5-5 5h-460.001.001 487c2.761 0 5-2.239 5-5v-134.265c0-3.929-3.431-7.015-7.331-6.534z" fill="#5fa7ee"/><path d="m504.5 382.298v75.3c0 2.76-2.24 5-5 5h-487c-2.76 0-5-2.24-5-5v-75.3c31.06 0 31.06 20.63 62.12 20.63s31.06-20.63 62.13-20.63c31.06 0 31.06 20.63 62.12 20.63s31.06-20.63 62.12-20.63 31.06 20.63 62.13 20.63c31.06 0 31.06-20.63 62.12-20.63 31.07 0 31.07 20.63 62.13 20.63 31.07 0 31.07-20.63 62.13-20.63z" fill="#5fa7ee"/><path d="m477.5 457.595c0 2.761-2.239 5-5 5h27c2.761 0 5-2.239 5-5v-75.297c-12.851 0-20.383 3.533-27 7.674z" fill="#518fcc"/></g><g><path d="m312.521 281.058c3.066 2.783 7.81 2.556 10.595-.511 15.165-16.701 23.517-38.332 23.517-60.909 0-49.976-40.657-90.633-90.633-90.633-49.975 0-90.633 40.657-90.633 90.633 0 22.762 8.472 44.524 23.855 61.279 1.479 1.611 3.5 2.428 5.526 2.428 1.813 0 3.63-.653 5.07-1.976 3.051-2.801 3.254-7.546.452-10.597-12.835-13.98-19.904-32.141-19.904-51.135 0-41.704 33.929-75.633 75.633-75.633s75.633 33.929 75.633 75.633c0 18.841-6.969 36.891-19.622 50.825-2.783 3.068-2.555 7.811.511 10.596z"/><path d="m507.239 312.769c-3.008-2.659-7.014-3.909-10.987-3.415-26.045 3.207-28.564 20.148-53.881 20.148-26.237 0-28.082-18.28-56.882-20.427l-1.233-11.316c-1.782-16.394 4.824-32.346 17.672-42.673l24.103-19.362c4.896-3.938 7.705-9.801 7.705-16.085 0-6.283-2.809-12.146-7.707-16.085l-24.1-19.37c-12.848-10.327-19.455-26.276-17.673-42.664l3.34-30.737c.681-6.242-1.474-12.371-5.912-16.815-4.441-4.445-10.573-6.604-16.826-5.934l-30.738 3.35c-16.388 1.784-32.337-4.824-42.663-17.672l-19.371-24.103c-3.938-4.896-9.801-7.705-16.085-7.705-6.284 0-12.147 2.809-16.086 7.707l-19.371 24.102c-8.384 10.435-20.86 16.938-34.23 17.845-4.133.279-7.256 3.856-6.976 7.989s3.852 7.242 7.99 6.976c17.54-1.188 33.909-9.723 44.91-23.414l19.368-24.099c1.474-1.832 3.387-2.105 4.396-2.105s2.922.273 4.394 2.104l19.37 24.101c13.55 16.859 34.48 25.528 55.978 23.188l30.732-3.349c2.346-.256 3.883.907 4.596 1.621.712.713 1.868 2.256 1.613 4.591l-3.34 30.74c-2.338 21.501 6.33 42.427 23.188 55.977l24.098 19.369c1.832 1.473 2.105 3.386 2.105 4.395 0 1.01-.273 2.923-2.103 4.394l-24.101 19.361c-16.858 13.55-25.527 34.479-23.188 55.988l1.111 10.194c-11.688 1.758-18.911 6.536-25.425 10.862-7.322 4.863-13.646 9.063-26.913 9.063-4.143 0-7.5 3.357-7.5 7.5s3.357 7.5 7.5 7.5c17.795 0 27.048-6.146 35.212-11.568 7.322-4.863 13.646-9.063 26.914-9.063 27.686 0 28.594 20.632 62.129 20.632 30.365 0 34.463-17.11 54.629-20.113v50.823c-13.052 1.446-20.786 6.554-27.714 11.156-7.322 4.863-13.646 9.063-26.915 9.063s-19.593-4.2-26.915-9.063c-8.164-5.423-17.418-11.569-35.214-11.569s-27.049 6.146-35.213 11.569c-7.322 4.863-13.646 9.063-26.913 9.063-4.143 0-7.5 3.357-7.5 7.5s3.357 7.5 7.5 7.5c17.795 0 27.048-6.146 35.212-11.569 7.322-4.863 13.646-9.063 26.914-9.063 13.269 0 19.593 4.2 26.915 9.063 8.164 5.423 17.418 11.569 35.214 11.569s27.05-6.146 35.214-11.569c5.785-3.842 10.96-7.261 19.415-8.531v64.765h-38.993c-4.143 0-7.5 3.357-7.5 7.5s3.357 7.5 7.5 7.5h41.492c6.893 0 12.5-5.607 12.5-12.5v-134.267c0-4.037-1.735-7.887-4.761-10.563z"/><path d="m423.007 455.096h-408.007v-64.764c8.453 1.271 13.628 4.689 19.411 8.531 8.164 5.423 17.417 11.569 35.211 11.569 33.682 0 34.264-20.633 62.125-20.633 13.267 0 19.59 4.2 26.912 9.063 8.164 5.423 17.417 11.569 35.212 11.569 4.142 0 7.5-3.357 7.5-7.5s-3.358-7.5-7.5-7.5c-13.267 0-19.59-4.2-26.912-9.063-8.164-5.423-17.417-11.569-35.211-11.569-33.379 0-34.541 20.633-62.125 20.633-13.267 0-19.59-4.2-26.911-9.063-6.927-4.602-14.661-9.71-27.711-11.156v-50.823c8.443 1.259 13.543 4.646 19.411 8.545 8.164 5.422 17.417 11.568 35.211 11.568 33.683 0 34.264-20.632 62.125-20.632 13.267 0 19.59 4.2 26.912 9.063 8.164 5.422 17.417 11.568 35.212 11.568 4.142 0 7.5-3.357 7.5-7.5s-3.358-7.5-7.5-7.5c-13.267 0-19.59-4.2-26.913-9.063-6.512-4.326-13.732-9.101-25.412-10.861l1.111-10.198c2.339-21.507-6.33-42.436-23.189-55.987l-24.099-19.358c-1.832-1.473-2.105-3.386-2.105-4.395 0-1.01.274-2.923 2.104-4.395l24.1-19.37c16.857-13.55 25.525-34.476 23.188-55.977l-3.341-30.743c-.254-2.331.902-3.875 1.614-4.588.712-.715 2.258-1.88 4.586-1.622l5.49.6c4.121.446 7.82-2.523 8.27-6.642s-2.523-7.82-6.641-8.271l-5.499-.601c-6.245-.672-12.377 1.488-16.818 5.935-4.438 4.443-6.594 10.572-5.913 16.813l3.34 30.74c1.782 16.388-4.825 32.337-17.673 42.664l-24.102 19.372c-4.896 3.938-7.705 9.801-7.705 16.085 0 6.283 2.809 12.146 7.708 16.086l24.099 19.359c12.849 10.328 19.456 26.28 17.673 42.672l-1.233 11.317c-28.71 2.136-30.719 20.428-56.889 20.428-13.267 0-19.59-4.2-26.911-9.063-6.725-4.467-14.348-9.53-26.963-11.085-3.973-.492-7.979.755-10.986 3.415-3.028 2.676-4.763 6.525-4.763 10.563v134.265c0 6.893 5.607 12.5 12.5 12.5h410.507c4.143 0 7.5-3.357 7.5-7.5s-3.358-7.501-7.5-7.501z"/><path d="m261.119 361.112c-2.883-2.691-7.357-2.691-10.238 0l-27.094 25.302c-3.027 2.827-3.19 7.573-.363 10.601 2.83 3.03 7.577 3.187 10.6.362l21.976-20.522 21.975 20.521c3.029 2.829 7.774 2.664 10.601-.362 2.827-3.027 2.665-7.773-.362-10.601z"/><path d="m288.213 334.287-27.094-25.302c-2.883-2.691-7.357-2.691-10.238 0l-27.094 25.302c-3.027 2.827-3.19 7.573-.363 10.601 2.83 3.03 7.577 3.187 10.6.362l21.976-20.522 21.975 20.521c3.029 2.829 7.774 2.664 10.601-.362 2.826-3.027 2.664-7.773-.363-10.6z"/><path d="m288.213 282.16-27.094-25.302c-2.883-2.691-7.357-2.691-10.238 0l-27.094 25.302c-3.027 2.827-3.19 7.573-.363 10.601 1.477 1.581 3.477 2.381 5.483 2.381 1.833 0 3.672-.668 5.117-2.019l21.976-20.522 21.975 20.521c3.029 2.829 7.774 2.664 10.601-.362 2.826-3.027 2.664-7.773-.363-10.6z"/></g></g></svg>