<svg id="Capa_1" enable-background="new 0 0 512 512" height="512" viewBox="0 0 512 512" width="512" xmlns="http://www.w3.org/2000/svg"><g><g><path d="m406 504.5h-300c-5.523 0-10-4.477-10-10v-477c0-5.523 4.477-10 10-10h300c5.523 0 10 4.477 10 10v477c0 5.523-4.477 10-10 10z" fill="#5d91b9"/><path d="m406 7.5h-32.826c5.523 0 10 4.477 10 10v477c0 5.523-4.477 10-10 10h32.826c5.523 0 10-4.477 10-10v-477c0-5.523-4.477-10-10-10z" fill="#407194"/><path d="m406 504.5h-300c-5.523 0-10-4.477-10-10v-42.736h320v42.736c0 5.523-4.477 10-10 10z" fill="#6cbff8"/><path d="m406 504.5h-32.826c5.523 0 10-4.477 10-10v-42.736h32.826v42.736c0 5.523-4.477 10-10 10z" fill="#5fa7ee"/><path d="m406 7.5h-300c-5.523 0-10 4.477-10 10v42.736h320v-42.736c0-5.523-4.477-10-10-10z" fill="#6cbff8"/><path d="m406 7.5h-32.826c5.523 0 10 4.477 10 10v42.736h32.826v-42.736c0-5.523-4.477-10-10-10z" fill="#5fa7ee"/><g><path d="m293.259 214.749-10.36-8.327c-6.355-5.108-9.667-13.103-8.785-21.208l1.438-13.214c.39-3.587-2.638-6.616-6.225-6.225l-13.213 1.438c-8.105.882-16.1-2.43-21.208-8.785l-8.327-10.36c-2.261-2.813-6.543-2.813-8.804 0l-8.327 10.36c-5.108 6.355-13.103 9.667-21.208 8.785l-13.213-1.438c-3.587-.39-6.616 2.638-6.225 6.225l1.438 13.213c.882 8.105-2.43 16.101-8.785 21.208l-10.36 8.327c-2.813 2.261-2.813 6.543 0 8.804l10.36 8.327c6.355 5.108 9.667 13.103 8.785 21.208l-1.438 13.213c-.39 3.587 2.638 6.616 6.225 6.225l13.213-1.438c8.105-.882 16.101 2.43 21.208 8.785l8.327 10.36c2.261 2.813 6.543 2.813 8.804 0l8.327-10.36c5.108-6.355 13.103-9.667 21.208-8.785l13.213 1.438c3.587.39 6.616-2.638 6.225-6.225l-1.438-13.213c-.882-8.105 2.43-16.101 8.785-21.208l10.36-8.327c2.813-2.26 2.813-6.543 0-8.803z" fill="#ecc52e"/><circle cx="222.177" cy="219.151" fill="#e69642" r="28.773"/><path d="m358.719 281.818c-2.654-2.654-6.325-4.297-10.372-4.297h-20.819c2.477-6.035 3.868-12.633 3.929-19.545.26-29.047-23.307-53.024-52.354-53.242-28.616-.215-52.008 22.347-53.126 50.636-.039.978-.843 1.751-1.822 1.751-4.176.001-14.245.002-14.245.002-13.733 0-24.867 11.133-24.867 24.867 0 13.733 11.133 24.866 24.867 24.866h138.199c7.977 0 14.679-6.274 14.901-14.248.117-4.212-1.546-8.044-4.291-10.79z" fill="#ddebfd"/></g></g><g><path d="m226.175 470.632c-4.143 0-7.5 3.357-7.5 7.5s3.357 7.5 7.5 7.5h59.65c4.143 0 7.5-3.357 7.5-7.5s-3.357-7.5-7.5-7.5z"/><path d="m406 0h-213.746c-4.143 0-7.5 3.357-7.5 7.5s3.357 7.5 7.5 7.5h213.746c1.379 0 2.5 1.121 2.5 2.5v35.236h-305v-35.236c0-1.379 1.121-2.5 2.5-2.5h51.254c4.143 0 7.5-3.357 7.5-7.5s-3.357-7.5-7.5-7.5h-51.254c-9.649 0-17.5 7.851-17.5 17.5v477c0 9.649 7.851 17.5 17.5 17.5h241.557c4.143 0 7.5-3.357 7.5-7.5s-3.357-7.5-7.5-7.5h-241.557c-1.379 0-2.5-1.121-2.5-2.5v-35.236h305v35.236c0 1.379-1.121 2.5-2.5 2.5h-23.443c-4.143 0-7.5 3.357-7.5 7.5s3.357 7.5 7.5 7.5h23.443c9.649 0 17.5-7.851 17.5-17.5v-477c0-9.649-7.851-17.5-17.5-17.5zm-302.5 444.264v-376.528h305v376.527h-305z"/><path d="m257.5 41.368c4.143 0 7.5-3.357 7.5-7.5s-3.357-7.5-7.5-7.5h-3c-4.143 0-7.5 3.357-7.5 7.5s3.357 7.5 7.5 7.5z"/><path d="m364.022 276.515c-4.188-4.188-9.755-6.493-15.676-6.493h-10.689c.827-3.914 1.263-7.917 1.3-11.978.282-31.543-23.84-57.486-54.241-60.504-2.451-3.279-3.6-7.351-3.149-11.517l1.439-13.211c.434-3.989-.946-7.902-3.787-10.735-2.837-2.826-6.739-4.193-10.695-3.752l-13.223 1.43c-12.868 1.4-16.979-10.586-22.876-16.383-2.504-3.115-6.233-4.904-10.23-4.908h-.016c-3.997 0-7.729 1.783-10.257 4.911l-8.314 10.354c-8.115 10.084-20.214 4.531-27.746 4.599-3.979-.438-7.893.925-10.73 3.753-2.84 2.831-4.22 6.742-3.787 10.733-.07 8.158 5.507 19.645-4.593 27.763l-10.361 8.331c-3.118 2.508-4.907 6.241-4.907 10.244 0 4.002 1.789 7.735 4.908 10.244l10.361 8.332c4.384 3.522 6.639 8.963 6.032 14.55l-1.44 13.214c-.433 3.981.944 7.889 3.775 10.721 2.489 2.489 5.81 3.854 9.283 3.854.478 0 .959-.026 1.44-.078l1.784-.195c-.049.727-.083 1.459-.083 2.198 0 17.847 14.52 32.366 32.366 32.366h138.199c12.02 0 22.067-9.663 22.397-21.539.17-6.072-2.193-12.014-6.484-16.304zm-187.517-11.69 1.191-10.927c1.161-10.704-3.155-21.12-11.547-27.863l-8.563-6.886 8.562-6.883c8.393-6.744 12.709-17.161 11.548-27.869l-1.19-10.914 10.925 1.183c10.693 1.158 21.115-3.15 27.867-11.54l6.878-8.564 6.887 8.564c6.736 8.389 17.144 12.713 27.854 11.54l10.927-1.182-1.19 10.92c-.512 4.736.047 9.414 1.563 13.751-4.808.841-9.469 2.256-13.899 4.217-6.147-11.689-18.474-19.493-32.138-19.493-20.005 0-36.279 16.271-36.279 36.271 0 13.192 7.083 24.758 17.645 31.105-8.571 1.716-15.926 6.828-20.605 13.868zm44.406-24.469c-11.142-.662-20.01-9.905-20.01-21.205 0-11.729 9.546-21.271 21.279-21.271 8.332 0 15.802 4.95 19.243 12.256-1.511 1.192-2.972 2.462-4.379 3.808-7.693 7.36-13.19 16.444-16.133 26.412zm127.198 59h-138.199c-9.576 0-17.366-7.79-17.366-17.366s7.79-17.367 17.367-17.367h14.244c5.028 0 9.12-3.937 9.315-8.956.086-2.177.329-4.31.704-6.392.052-.216.086-.437.124-.658 3.425-20.028 21.899-36.384 44.393-36.384.117 0 .237.001.354.002 24.913.186 45.135 20.74 44.911 45.674-.052 5.806-1.186 11.446-3.368 16.765-.949 2.313-.684 4.948.709 7.024 1.393 2.077 3.729 3.323 6.229 3.323h20.819c1.914 0 3.715.746 5.068 2.101 1.408 1.407 2.153 3.282 2.098 5.278-.105 3.835-3.426 6.956-7.402 6.956z"/><path d="m259.756 326.967c-3.752-1.754-8.216-.134-9.971 3.617l-1.268 2.711c-1.755 3.752-.135 8.216 3.617 9.971 1.027.48 2.108.708 3.172.708 2.821 0 5.524-1.601 6.799-4.325l1.268-2.711c1.755-3.752.135-8.216-3.617-9.971z"/><path d="m245.929 356.536c-3.755-1.753-8.217-.134-9.971 3.619l-1.267 2.71c-1.754 3.753-.133 8.217 3.619 9.971 1.027.479 2.107.707 3.171.707 2.822 0 5.525-1.601 6.8-4.326l1.267-2.71c1.754-3.753.133-8.217-3.619-9.971z"/><path d="m289.635 326.967c-3.755-1.753-8.217-.134-9.971 3.619l-1.267 2.71c-1.754 3.753-.133 8.217 3.619 9.971 1.027.479 2.107.707 3.171.707 2.822 0 5.525-1.601 6.8-4.326l1.267-2.71c1.754-3.753.133-8.217-3.619-9.971z"/><path d="m275.812 356.537c-3.75-1.754-8.217-.136-9.972 3.616l-1.268 2.71c-1.755 3.752-.136 8.216 3.616 9.972 1.027.48 2.108.708 3.173.708 2.821 0 5.524-1.6 6.799-4.324l1.268-2.71c1.755-3.752.135-8.216-3.616-9.972z"/><path d="m319.518 326.968c-3.75-1.754-8.217-.137-9.972 3.616l-1.268 2.71c-1.755 3.752-.136 8.216 3.616 9.972 1.027.48 2.108.708 3.173.708 2.821 0 5.524-1.6 6.799-4.324l1.268-2.71c1.755-3.752.136-8.216-3.616-9.972z"/><path d="m305.689 356.536c-3.754-1.753-8.217-.134-9.971 3.619l-1.267 2.71c-1.754 3.753-.133 8.217 3.619 9.971 1.027.479 2.107.707 3.171.707 2.822 0 5.525-1.601 6.8-4.326l1.267-2.71c1.755-3.753.133-8.217-3.619-9.971z"/></g></g></svg>