<svg id="Capa_1" enable-background="new 0 0 512 512" height="512" viewBox="0 0 512 512" width="512" xmlns="http://www.w3.org/2000/svg"><g><g><path d="m405.856 285.206h-28.969v-58.412h28.969c2.761 0 5 2.239 5 5v48.412c0 2.761-2.238 5-5 5z" fill="#5fa7ee"/><path d="m346.031 110.935-15.822-25.453c-5.91-9.508-9.042-20.48-9.042-31.675v-36.307c0-5.523-4.477-10-10-10h-144.303c-5.523 0-10 4.477-10 10v36.307c0 11.195-3.132 22.167-9.042 31.675l-15.822 25.453-.002 290.128 15.824 25.455c5.91 9.508 9.041 20.479 9.041 31.674v36.308c0 5.523 4.477 10 10 10h144.303c5.523 0 10-4.477 10-10v-36.307c0-11.195 3.131-22.167 9.041-31.675l15.824-25.455z" fill="#6cbff8"/><path d="m330.209 85.482c-5.91-9.508-9.042-20.48-9.042-31.675v-36.307c0-5.523-4.477-10-10-10h-30.856c5.523 0 10 4.477 10 10v36.307c0 11.195 3.132 22.167 9.042 31.675l15.822 25.453v290.13l-15.822 25.453c-5.91 9.508-9.042 20.48-9.042 31.675v36.307c0 5.523-4.477 10-10 10h30.856c5.523 0 10-4.477 10-10v-36.307c0-11.195 3.131-22.167 9.041-31.675l15.824-25.455-.001-290.129z" fill="#5fa7ee"/><path d="m101.144 119.741v272.518c0 11.046 8.954 20 20 20h235.743c11.046 0 20-8.954 20-20v-272.518c0-11.046-8.954-20-20-20h-235.743c-11.046 0-20 8.954-20 20z" fill="#5d91b9"/><path d="m356.887 99.741h-27.657c11.046 0 20 8.954 20 20v272.518c0 11.046-8.954 20-20 20h27.657c11.046 0 20-8.954 20-20v-272.518c0-11.046-8.954-20-20-20z" fill="#5d91b9"/><g><path d="m276.274 214.749-10.36-8.327c-6.355-5.108-9.667-13.103-8.785-21.208l1.438-13.214c.39-3.587-2.638-6.616-6.225-6.225l-13.213 1.438c-8.105.882-16.101-2.43-21.208-8.785l-8.327-10.36c-2.261-2.813-6.543-2.813-8.804 0l-8.327 10.36c-5.108 6.355-13.103 9.667-21.208 8.785l-13.213-1.438c-3.587-.39-6.616 2.638-6.225 6.225l1.438 13.213c.882 8.105-2.43 16.101-8.785 21.208l-10.36 8.327c-2.813 2.261-2.813 6.543 0 8.804l10.36 8.327c6.355 5.108 9.667 13.103 8.785 21.208l-1.438 13.213c-.39 3.587 2.638 6.616 6.225 6.225l13.213-1.438c8.105-.882 16.101 2.43 21.208 8.785l8.327 10.36c2.261 2.813 6.543 2.813 8.804 0l8.327-10.36c5.108-6.355 13.103-9.667 21.208-8.785l13.213 1.438c3.587.39 6.616-2.638 6.225-6.225l-1.438-13.213c-.882-8.105 2.43-16.101 8.785-21.208l10.36-8.327c2.813-2.26 2.813-6.543 0-8.803z" fill="#ecc52e"/><circle cx="205.192" cy="219.151" fill="#e69642" r="28.773"/><path d="m341.734 281.818c-2.654-2.654-6.325-4.297-10.372-4.297h-20.819c2.476-6.035 3.868-12.633 3.929-19.545.26-29.047-23.307-53.024-52.354-53.242-28.616-.215-52.008 22.347-53.126 50.636-.039.978-.843 1.751-1.822 1.751-4.176.001-14.245.002-14.245.002-13.733 0-24.867 11.133-24.867 24.867 0 13.733 11.133 24.866 24.867 24.866h138.199c7.977 0 14.679-6.274 14.901-14.248.117-4.212-1.546-8.044-4.291-10.79z" fill="#ddebfd"/></g></g><g><path d="m405.856 219.294h-21.47v-99.553c0-15.163-12.337-27.5-27.5-27.5h-13.646l-6.66-10.72c-5.175-8.327-7.91-17.91-7.91-27.712v-36.309c0-9.649-7.851-17.5-17.5-17.5h-92.9c-4.143 0-7.5 3.357-7.5 7.5s3.357 7.5 7.5 7.5h92.9c1.379 0 2.5 1.121 2.5 2.5v36.31c0 12.603 3.517 24.923 10.17 35.629l1.741 2.803h-173.132l1.741-2.802c6.653-10.707 10.17-23.027 10.17-35.63v-36.31c0-1.379 1.121-2.5 2.5-2.5h16.409c4.143 0 7.5-3.357 7.5-7.5s-3.357-7.5-7.5-7.5h-16.409c-9.649 0-17.5 7.851-17.5 17.5v36.31c0 9.802-2.735 19.385-7.91 27.713l-6.66 10.719h-13.646c-15.164 0-27.5 12.337-27.5 27.5v272.518c0 15.163 12.336 27.5 27.5 27.5h13.646l6.66 10.72c5.175 8.327 7.91 17.91 7.91 27.712v36.31c0 9.649 7.851 17.5 17.5 17.5h88.159c4.143 0 7.5-3.357 7.5-7.5s-3.357-7.5-7.5-7.5h-88.159c-1.379 0-2.5-1.121-2.5-2.5v-36.31c0-12.603-3.517-24.923-10.17-35.629l-1.741-2.803h173.132l-1.741 2.802c-6.653 10.707-10.17 23.027-10.17 35.63v36.31c0 1.379-1.121 2.5-2.5 2.5h-21.15c-4.143 0-7.5 3.357-7.5 7.5s3.357 7.5 7.5 7.5h21.15c9.649 0 17.5-7.851 17.5-17.5v-36.31c0-9.802 2.735-19.385 7.91-27.713l6.66-10.719h13.646c15.163 0 27.5-12.337 27.5-27.5v-25.265c0-4.143-3.357-7.5-7.5-7.5s-7.5 3.357-7.5 7.5v25.265c0 6.893-5.607 12.5-12.5 12.5h-235.742c-6.893 0-12.5-5.607-12.5-12.5v-272.519c0-6.893 5.607-12.5 12.5-12.5h235.743c6.893 0 12.5 5.607 12.5 12.5v212.253c0 4.143 3.357 7.5 7.5 7.5s7.5-3.357 7.5-7.5v-39.288h21.47c6.893 0 12.5-5.607 12.5-12.5v-48.412c-.001-6.893-5.608-12.5-12.501-12.5zm-2.5 58.412h-18.97v-43.412h18.97z"/><path d="m353.521 292.817c.343-12.31-9.498-22.796-22.159-22.796h-10.689c.827-3.914 1.263-7.917 1.299-11.978.282-31.601-23.902-57.493-54.242-60.505-2.448-3.281-3.595-7.352-3.144-11.516l1.44-13.214c.433-3.988-.947-7.899-3.787-10.73-2.838-2.829-6.753-4.2-10.706-3.755l-13.212 1.43c-12.882 1.404-16.997-10.596-22.887-16.383-2.508-3.12-6.242-4.908-10.245-4.908-4.002 0-7.736 1.788-10.244 4.907l-8.333 10.363c-8.081 10.063-20.151 4.525-27.741 4.593-3.979-.44-7.888.923-10.723 3.75-2.839 2.831-4.219 6.744-3.784 10.73l1.431 13.221c1.409 12.846-11.076 17.476-16.384 22.878-3.12 2.508-4.909 6.242-4.909 10.245 0 4.002 1.789 7.736 4.908 10.244 5.772 5.874 17.796 10.011 16.384 22.889l-1.43 13.205c-.434 3.984.941 7.894 3.773 10.726 2.486 2.487 5.804 3.851 9.274 3.851.478 0 .958-.026 1.44-.078l1.789-.195c-.049.728-.083 1.459-.083 2.199 0 17.847 14.52 32.366 32.367 32.366h138.198c12.022 0 22.069-9.663 22.399-21.539zm-193.998-27.993 1.182-10.916c1.174-10.696-3.138-21.115-11.535-27.873l-8.563-6.886c3.324-3.76 22.534-12.562 20.099-34.746l-1.182-10.919 10.926 1.182c10.705 1.162 21.12-3.15 27.854-11.536l6.886-8.563 6.887 8.564c6.745 8.384 17.168 12.693 27.859 11.534l10.928-1.183-1.19 10.92c-.512 4.734.045 9.412 1.559 13.749-4.812.841-9.475 2.257-13.906 4.219-6.147-11.688-18.473-19.491-32.136-19.491-20 0-36.271 16.271-36.271 36.271 0 13.192 7.082 24.758 17.641 31.105-8.571 1.716-15.927 6.828-20.606 13.868zm44.403-24.468c-11.139-.66-20.006-9.904-20.006-21.206 0-11.729 9.542-21.271 21.271-21.271 8.333 0 15.804 4.952 19.244 12.261-9.647 7.616-16.916 18.049-20.509 30.216zm-28.367 41.634c0-9.576 7.791-17.367 17.368-17.367h14.243c5.028 0 9.121-3.937 9.316-8.956.088-2.231.337-4.416.73-6.547.021-.098.037-.198.055-.298 4.008-20.988 22.327-36.589 44.437-36.589.117 0 .237.001.354.002 24.912.186 45.134 20.74 44.91 45.675-.052 5.805-1.185 11.444-3.367 16.764-.949 2.313-.684 4.948.709 7.024 1.393 2.077 3.729 3.323 6.229 3.323h20.819c3.999 0 7.279 3.285 7.165 7.379-.106 3.835-3.428 6.956-7.403 6.956h-138.198c-9.576 0-17.367-7.79-17.367-17.366z"/><path d="m235.15 343.266c1.027.48 2.108.708 3.172.708 2.821 0 5.524-1.601 6.799-4.325l1.268-2.711c1.755-3.752.135-8.216-3.617-9.971-3.753-1.754-8.216-.134-9.971 3.617l-1.268 2.711c-1.755 3.752-.135 8.216 3.617 9.971z"/><path d="m228.944 356.536c-3.755-1.753-8.217-.134-9.971 3.619l-1.267 2.71c-1.754 3.753-.133 8.217 3.619 9.971 1.027.479 2.107.707 3.171.707 2.822 0 5.525-1.601 6.8-4.326l1.267-2.71c1.754-3.753.133-8.217-3.619-9.971z"/><path d="m265.029 343.266c1.027.48 2.108.708 3.173.708 2.821 0 5.524-1.6 6.799-4.324l1.268-2.71c1.755-3.752.136-8.216-3.616-9.972-3.751-1.754-8.217-.137-9.972 3.616l-1.268 2.71c-1.755 3.752-.136 8.216 3.616 9.972z"/><path d="m251.204 372.835c1.027.48 2.108.708 3.173.708 2.821 0 5.524-1.6 6.799-4.324l1.268-2.71c1.755-3.752.136-8.216-3.616-9.972-3.75-1.754-8.216-.136-9.972 3.616l-1.268 2.71c-1.755 3.752-.136 8.216 3.616 9.972z"/><path d="m294.912 343.267c1.027.479 2.107.707 3.171.707 2.822 0 5.525-1.601 6.8-4.326l1.267-2.71c1.754-3.753.133-8.217-3.619-9.971-3.755-1.753-8.217-.134-9.971 3.619l-1.267 2.71c-1.754 3.753-.133 8.217 3.619 9.971z"/><path d="m281.084 372.835c1.027.48 2.108.708 3.173.708 2.821 0 5.524-1.6 6.799-4.324l1.268-2.71c1.755-3.752.136-8.216-3.616-9.972-3.751-1.754-8.217-.136-9.972 3.616l-1.268 2.71c-1.755 3.752-.136 8.216 3.616 9.972z"/></g></g></svg>