<svg id="Capa_1" enable-background="new 0 0 512 512" height="512" viewBox="0 0 512 512" width="512" xmlns="http://www.w3.org/2000/svg"><g><g><path d="m474.918 104.137-14.554-11.698c-8.927-7.175-13.58-18.407-12.341-29.793l2.02-18.562c.548-5.04-3.706-9.294-8.745-8.745l-18.562 2.02c-11.386 1.239-22.618-3.414-29.793-12.341l-11.697-14.554c-3.176-3.951-9.192-3.951-12.368 0l-11.697 14.554c-7.175 8.927-18.407 13.58-29.793 12.341l-18.562-2.02c-5.04-.548-9.294 3.706-8.745 8.745l2.02 18.562c1.239 11.386-3.414 22.618-12.341 29.793l-14.554 11.697c-3.951 3.176-3.951 9.192 0 12.368l14.554 11.698c8.927 7.175 13.58 18.407 12.341 29.793l-2.02 18.562c-.548 5.04 3.706 9.294 8.745 8.745l18.562-2.02c11.386-1.239 22.618 3.414 29.794 12.341l11.697 14.554c3.176 3.951 9.192 3.951 12.368 0l11.697-14.554c7.175-8.927 18.407-13.58 29.794-12.341l18.562 2.02c5.04.548 9.294-3.706 8.745-8.745l-2.02-18.562c-1.239-11.386 3.414-22.618 12.341-29.794l14.554-11.698c3.949-3.174 3.949-9.19-.002-12.366z" fill="#ecc52e"/><circle cx="375.06" cy="110.321" fill="#e69642" r="43.785"/><path d="m413.172 89.601c.048.84.078 1.684.078 2.535 0 24.182-19.603 43.785-43.785 43.785-16.686 0-31.188-9.335-38.578-23.066 1.314 23.001 20.377 41.25 43.707 41.25 24.182 0 43.785-19.603 43.785-43.785.001-7.496-1.887-14.55-5.207-20.719z" fill="#e27c48"/><path d="m43.161 453.41c-.902-.52-1.514-1.431-1.654-2.462-1.384-10.17 2.942-20.718 12.036-26.829s20.494-6.131 29.388-1.007c.902.52 1.514 1.431 1.654 2.462 1.384 10.17-2.942 20.718-12.036 26.829-9.095 6.111-20.495 6.131-29.388 1.007z" fill="#70c6db"/><path d="m149.886 190.475-27.839 314.025h62.943l-27.839-314.025c-.393-4.433-6.872-4.433-7.265 0z" fill="#8c5e5e"/><path d="m157.151 190.475c-.393-4.433-6.872-4.433-7.265 0l-6.243 70.424 21.596 243.601h19.751z" fill="#785252"/><g fill="#70c6db"><path d="m249.45 272.509c-.097-1.036-.671-1.972-1.551-2.529-8.673-5.489-20.064-5.942-29.404-.214s-14.1 16.087-13.14 26.306c.097 1.036.671 1.972 1.551 2.529 8.673 5.489 20.064 5.942 29.404.214s14.1-16.087 13.14-26.306z"/><path d="m34.246 330.222c.097-1.036.671-1.972 1.551-2.529 8.673-5.489 20.064-5.942 29.404-.214s14.1 16.087 13.14 26.306c-.097 1.036-.671 1.972-1.551 2.529-8.673 5.489-20.064 5.942-29.404.214s-14.101-16.088-13.14-26.306z"/></g></g><g><path d="m323.518 275.762c0-7.934-3.628-12.339-6.029-15.253-1.612-1.957-2.275-2.813-2.514-4.375-.626-4.095-4.455-6.911-8.547-6.281-4.095.626-6.907 4.452-6.281 8.547.872 5.706 3.699 9.139 5.764 11.646 1.844 2.238 2.607 3.165 2.607 5.717 0 2.551-.763 3.478-2.607 5.716-2.4 2.915-6.028 7.32-6.028 15.254 0 7.933 3.628 12.337 6.028 15.252 1.844 2.238 2.607 3.165 2.607 5.716s-.763 3.478-2.607 5.716c-2.4 2.915-6.028 7.319-6.028 15.252s3.628 12.337 6.028 15.252c1.844 2.238 2.607 3.165 2.607 5.716s-.763 3.477-2.606 5.715c-2.401 2.915-6.029 7.319-6.029 15.252 0 7.934 3.628 12.338 6.028 15.253 1.844 2.238 2.607 3.165 2.607 5.716 0 4.143 3.358 7.5 7.5 7.5s7.5-3.357 7.5-7.5c0-7.934-3.628-12.338-6.028-15.253-1.844-2.238-2.607-3.165-2.607-5.716s.763-3.477 2.606-5.715c2.401-2.915 6.029-7.319 6.029-15.252 0-7.934-3.628-12.338-6.029-15.253-1.843-2.238-2.606-3.164-2.606-5.715s.763-3.477 2.606-5.715c2.401-2.915 6.029-7.319 6.029-15.253s-3.628-12.338-6.029-15.253c-1.843-2.238-2.606-3.164-2.606-5.715 0-2.552.763-3.479 2.607-5.718 2.401-2.915 6.028-7.321 6.028-15.253z"/><path d="m386.878 275.762c0-7.934-3.628-12.339-6.029-15.253-1.611-1.957-2.275-2.813-2.514-4.375-.625-4.095-4.454-6.904-8.547-6.281-4.095.626-6.907 4.452-6.281 8.547.872 5.706 3.699 9.139 5.764 11.646 1.844 2.238 2.607 3.165 2.607 5.717 0 2.551-.763 3.478-2.607 5.716-2.4 2.915-6.028 7.32-6.028 15.254 0 7.933 3.628 12.337 6.028 15.252 1.844 2.238 2.607 3.165 2.607 5.716s-.763 3.478-2.607 5.716c-2.4 2.915-6.028 7.319-6.028 15.252s3.628 12.337 6.028 15.252c1.844 2.238 2.607 3.165 2.607 5.716s-.763 3.477-2.606 5.715c-2.401 2.915-6.029 7.319-6.029 15.252 0 7.934 3.628 12.338 6.028 15.253 1.844 2.238 2.607 3.165 2.607 5.716 0 4.143 3.358 7.5 7.5 7.5s7.5-3.357 7.5-7.5c0-7.934-3.628-12.338-6.028-15.253-1.844-2.238-2.607-3.165-2.607-5.716s.763-3.477 2.606-5.715c2.401-2.915 6.029-7.319 6.029-15.252 0-7.934-3.628-12.338-6.029-15.253-1.843-2.238-2.606-3.164-2.606-5.715s.763-3.477 2.606-5.715c2.401-2.915 6.029-7.319 6.029-15.253s-3.628-12.338-6.029-15.253c-1.843-2.238-2.606-3.164-2.606-5.715 0-2.552.763-3.479 2.607-5.718 2.401-2.915 6.028-7.321 6.028-15.253z"/><path d="m450.238 275.762c0-7.934-3.628-12.339-6.029-15.253-1.612-1.957-2.275-2.813-2.514-4.375-.626-4.095-4.452-6.911-8.547-6.281-4.095.626-6.907 4.452-6.281 8.547.872 5.706 3.699 9.139 5.764 11.646 1.844 2.238 2.607 3.165 2.607 5.717 0 6.155-8.635 7.998-8.635 20.97 0 7.933 3.628 12.337 6.028 15.252 1.844 2.238 2.607 3.165 2.607 5.716 0 6.143-8.635 8.025-8.635 20.968 0 7.933 3.628 12.337 6.028 15.252 1.844 2.238 2.607 3.165 2.607 5.716s-.763 3.477-2.606 5.715c-2.401 2.915-6.029 7.319-6.029 15.252 0 7.934 3.628 12.338 6.028 15.253 1.844 2.238 2.607 3.165 2.607 5.716 0 4.143 3.358 7.5 7.5 7.5s7.5-3.357 7.5-7.5c0-7.934-3.628-12.338-6.028-15.253-1.844-2.238-2.607-3.165-2.607-5.716s.763-3.477 2.606-5.715c2.401-2.915 6.029-7.319 6.029-15.252 0-7.934-3.628-12.338-6.029-15.253-8.487-10.305 6.029-10.566 6.029-26.683 0-7.934-3.628-12.338-6.029-15.253-1.843-2.238-2.606-3.164-2.606-5.715 0-2.552.763-3.479 2.607-5.718 2.4-2.915 6.028-7.321 6.028-15.253z"/><path d="m270.505 122.352 5.815 4.673c3.23 2.594 7.951 2.081 10.544-1.148 2.595-3.229 2.081-7.95-1.148-10.545l-5.814-4.672c-.053-.042-.162-.13-.162-.338 0-.209.109-.297.162-.339l14.554-11.697c10.977-8.823 16.621-22.45 15.098-36.451l-2.02-18.562c-.007-.066-.022-.207.125-.354s.287-.133.354-.125l18.562 2.02c14.001 1.521 27.628-4.12 36.451-15.099l11.698-14.553c.042-.053.13-.162.337-.162.208 0 .295.109.338.163l11.698 14.552c8.823 10.978 22.45 16.62 36.45 15.099l18.562-2.02c.067-.009.207-.022.354.125.147.146.132.287.125.354l-2.02 18.562c-1.523 14.001 4.121 27.628 15.099 36.451l14.553 11.697c.053.042.162.13.162.339 0 .208-.109.296-.162.338l-14.553 11.697c-10.978 8.822-16.622 22.448-15.099 36.45l2.02 18.563c.007.066.022.207-.125.354-.147.146-.286.131-.354.124l-18.562-2.02c-14.003-1.525-27.627 4.121-36.45 15.099l-11.698 14.554c-.042.052-.13.162-.338.162s-.295-.11-.338-.162l-11.697-14.554c-8.823-10.977-22.448-16.622-36.45-15.099l-18.563 2.02c-.067.006-.207.021-.353-.124-.147-.146-.132-.287-.125-.354l2.02-18.563c.416-3.817.294-7.67-.361-11.451-.707-4.081-4.585-6.816-8.67-6.109-4.081.707-6.817 4.589-6.11 8.67.416 2.399.493 4.845.229 7.268l-2.02 18.563c-.508 4.674 1.106 9.26 4.431 12.584 3.324 3.322 7.908 4.939 12.582 4.429l18.563-2.02c8.887-.97 17.537 2.616 23.137 9.583l11.697 14.554c2.944 3.664 7.329 5.766 12.029 5.766 4.701 0 9.085-2.102 12.03-5.766l11.698-14.553c5.601-6.968 14.252-10.554 23.137-9.584l18.561 2.02c9.81 1.072 18.078-7.217 17.013-17.013l-2.02-18.563c-.967-8.887 2.616-17.536 9.583-23.136l14.554-11.697c7.694-6.184 7.678-17.889 0-24.06l-14.554-11.697c-6.968-5.601-10.55-14.25-9.583-23.137l2.02-18.562c.508-4.673-1.106-9.26-4.43-12.583-3.323-3.324-7.912-4.94-12.583-4.431l-18.563 2.02c-8.885.973-17.536-2.614-23.136-9.584l-11.699-14.552c-2.944-3.664-7.329-5.766-12.03-5.766s-9.085 2.102-12.029 5.766l-11.697 14.553c-5.6 6.968-14.246 10.559-23.137 9.583l-18.563-2.02c-4.674-.511-9.259 1.106-12.582 4.431-3.324 3.323-4.938 7.91-4.43 12.583l2.02 18.562c.967 8.887-2.616 17.536-9.583 23.137l-14.554 11.697c-3.664 2.944-5.765 7.329-5.765 12.03 0 4.699 2.101 9.084 5.765 12.03z"/><path d="m375.061 161.606c28.279 0 51.285-23.007 51.285-51.286 0-28.278-23.006-51.285-51.285-51.285s-51.286 23.007-51.286 51.285c0 28.28 23.007 51.286 51.286 51.286zm0-87.571c20.008 0 36.285 16.277 36.285 36.285s-16.277 36.286-36.285 36.286-36.286-16.278-36.286-36.286 16.278-36.285 36.286-36.285z"/><path d="m76.732 458.628c11.257-7.565 17.113-20.618 15.283-34.063-.45-3.311-2.447-6.283-5.342-7.95-11.758-6.775-26.056-6.285-37.315 1.28-11.257 7.565-17.113 20.618-15.283 34.063.45 3.311 2.447 6.283 5.342 7.951 11.78 6.787 26.077 6.27 37.315-1.281zm-19.007-28.283c5.891-3.959 13.234-4.549 19.605-1.683.246 6.981-3.073 13.557-8.964 17.516s-13.233 4.547-19.605 1.683c-.246-6.982 3.072-13.557 8.964-17.516z"/><path d="m477.881 497h-286.027l-5.638-63.599 28.229-20.438 44.201 6.116c4.145.569 7.894-2.336 8.457-6.401.568-4.104-2.298-7.89-6.401-8.458l-28.696-3.971 23.837-17.259h19.05c4.142 0 7.5-3.357 7.5-7.5s-3.358-7.5-7.5-7.5h-21.48c-1.58 0-3.119.499-4.398 1.425l-8.231 5.959 2.753-25.854c.438-4.119-2.545-7.813-6.664-8.252-4.115-.424-7.813 2.546-8.252 6.664l-4.182 39.276-39.764 28.79-3.072-34.657c-.365-4.126-4.004-7.169-8.133-6.809-4.126.366-7.174 4.007-6.809 8.133l10.134 114.335h-46.554l23.277-262.566 10.042 113.272c.366 4.127 4.011 7.173 8.133 6.809 4.126-.366 7.174-4.007 6.809-8.133l-1.959-22.098 29.043-17.815c5.102 2.647 10.644 3.986 16.193 3.986 6.371 0 12.746-1.747 18.452-5.246 11.561-7.092 17.954-19.889 16.685-33.398-.312-3.328-2.184-6.382-5.007-8.168-11.467-7.257-25.773-7.359-37.336-.27-10.674 6.548-16.928 17.961-16.828 30.309l-22.682 13.914-10.442-117.783c-.521-5.888-5.191-10.162-11.103-10.162-5.911 0-10.582 4.273-11.104 10.162l-6.474 73.029-47.796-47.796c-2.929-2.928-7.678-2.928-10.606 0-2.929 2.93-2.929 7.678 0 10.607l15.293 15.293h-17.58c-4.142 0-7.5 3.357-7.5 7.5s3.358 7.5 7.5 7.5h32.581l26.382 26.382-8.296 93.581-39.968-24.516c.1-12.347-6.154-23.76-16.828-30.307-11.561-7.09-25.867-6.989-37.335.27-2.823 1.786-4.696 4.838-5.008 8.164-1.27 13.513 5.124 26.311 16.686 33.401 10.427 6.395 23.392 7.097 34.644 1.259l46.33 28.418-9.256 104.402h-81.059c-4.142 0-7.5 3.357-7.5 7.5s3.358 7.5 7.5 7.5h443.757c4.142 0 7.5-3.357 7.5-7.5s-3.358-7.5-7.5-7.5zm-255.465-220.84c6.051-3.711 13.412-3.993 19.658-.867-.044 6.986-3.633 13.418-9.684 17.129-6.052 3.711-13.413 3.993-19.658.867.044-6.986 3.633-13.418 9.684-17.129zm-171.11 73.974c-6.051-3.711-9.64-10.142-9.685-17.128 6.248-3.129 13.607-2.845 19.658.867 6.051 3.711 9.64 10.143 9.685 17.128-6.248 3.128-13.607 2.845-19.658-.867z"/></g></g></svg>