<svg id="Capa_1" enable-background="new 0 0 512 512" height="512" viewBox="0 0 512 512" width="512" xmlns="http://www.w3.org/2000/svg"><g><g><path d="m382.368 23.255 19.338-14.817c2.523-1.933 6.201-.738 7.106 2.309l6.936 23.354c2.082 7.01 8.607 11.751 15.917 11.565l24.354-.621c3.178-.081 5.451 3.048 4.392 6.045l-8.116 22.97c-2.436 6.895.057 14.566 6.08 18.712l20.068 13.813c2.618 1.802 2.618 5.669 0 7.472l-20.068 13.813c-6.023 4.146-8.516 11.817-6.08 18.712l8.116 22.97c1.059 2.997-1.214 6.126-4.392 6.045l-24.354-.621c-7.31-.186-13.836 4.555-15.917 11.565l-6.936 23.354c-.905 3.047-4.583 4.242-7.106 2.309l-19.338-14.817c-5.804-4.447-13.871-4.447-19.675 0l-19.338 14.817c-2.523 1.933-6.201.738-7.106-2.309l-6.936-23.354c-2.082-7.01-8.607-11.751-15.917-11.565l-24.354.621c-3.178.081-5.451-3.048-4.392-6.045l8.116-22.97c2.436-6.895-.057-14.566-6.08-18.712l-20.068-13.813c-2.618-1.802-2.618-5.669 0-7.472l20.068-13.813c6.023-4.146 8.516-11.817 6.08-18.712l-8.116-22.97c-1.059-2.997 1.214-6.126 4.392-6.045l24.354.621c7.31.186 13.836-4.555 15.917-11.565l6.936-23.354c.905-3.047 4.583-4.242 7.106-2.309l19.338 14.817c5.804 4.447 13.87 4.447 19.675 0z" fill="#ecc52e"/><path d="m147.356 190.475-27.839 314.025h62.943l-27.839-314.025c-.393-4.433-6.872-4.433-7.265 0z" fill="#8c5e5e"/><path d="m154.621 190.475c-.393-4.433-6.872-4.433-7.265 0l-6.243 70.424 21.596 243.601h19.751z" fill="#785252"/><ellipse cx="372.53" cy="110.321" fill="#e69642" rx="43.785" ry="43.785" transform="matrix(.999 -.041 .041 .999 -4.187 15.276)"/><path d="m411.108 89.601c.048.84.078 1.684.078 2.535 0 24.182-19.603 43.785-43.785 43.785-16.686 0-31.188-9.335-38.578-23.066 1.314 23.001 20.377 41.25 43.707 41.25 24.182 0 43.785-19.603 43.785-43.785.001-7.496-1.886-14.55-5.207-20.719z" fill="#e27c48"/></g><g><path d="m372.531 161.605c28.279 0 51.286-23.007 51.286-51.286 0-28.278-23.007-51.285-51.286-51.285s-51.285 23.007-51.285 51.285c0 28.279 23.006 51.286 51.285 51.286zm0-87.572c20.008 0 36.286 16.277 36.286 36.285s-16.278 36.286-36.286 36.286-36.285-16.278-36.285-36.286 16.277-36.285 36.285-36.285z"/><path d="m482.696 100.406-20.068-13.814c-3.224-2.219-4.564-6.346-3.26-10.035l8.116-22.971c1.319-3.735.717-7.879-1.611-11.084-2.329-3.203-6.075-5.044-10.043-4.957 0 0-24.502.623-24.576.623-3.822 0-7.222-2.524-8.315-6.204l-6.936-23.354c-1.127-3.797-4.05-6.796-7.817-8.021-3.768-1.224-7.895-.517-11.041 1.893l-19.338 14.818c-3.106 2.381-7.445 2.379-10.552 0l-19.339-14.819c-3.145-2.409-7.272-3.116-11.039-1.892-3.767 1.225-6.689 4.223-7.818 8.021l-1.388 4.674c-1.179 3.971 1.084 8.146 5.055 9.324 3.972 1.181 8.145-1.083 9.325-5.055l.162-.545 15.919 12.197c8.478 6.496 20.32 6.496 28.798 0l15.919-12.197 5.709 19.226c2.983 10.045 12.261 16.935 22.693 16.934.201 0 20.653-.518 20.653-.518l-6.681 18.908c-3.558 10.071.102 21.334 8.899 27.389l16.52 11.371-16.521 11.371c-8.797 6.057-12.456 17.318-8.898 27.388l6.681 18.91-20.049-.512c-10.712-.244-20.257 6.69-23.297 16.928l-5.709 19.225-15.919-12.196c-8.477-6.498-20.32-6.498-28.798 0l-15.919 12.197-5.71-19.227c-3.04-10.236-12.618-17.24-23.298-16.926l-20.048.511 6.682-18.909c3.558-10.07-.102-21.333-8.899-27.389l-16.52-11.371 16.519-11.371c8.798-6.055 12.458-17.317 8.899-27.389l-6.681-18.908 20.047.51c2.234.061 4.47-.201 6.633-.771 4.006-1.054 6.399-5.155 5.346-9.161s-5.157-6.404-9.161-5.345c-.792.207-1.616.3-2.434.281l-24.353-.62c-3.968-.072-7.715 1.752-10.044 4.957s-2.931 7.349-1.611 11.085l8.116 22.97c1.304 3.689-.037 7.816-3.261 10.035l-20.066 13.813c-3.263 2.245-5.212 5.951-5.212 9.913s1.947 7.668 5.211 9.915l20.067 13.813c3.224 2.22 4.565 6.346 3.261 10.035l-8.116 22.971c-1.32 3.735-.718 7.879 1.611 11.084s6.065 5.072 10.044 4.957l24.353-.62c3.91-.112 7.423 2.451 8.538 6.201l6.936 23.356c1.128 3.798 4.051 6.796 7.819 8.02 1.217.396 2.471.589 3.718.589 2.613 0 5.192-.852 7.32-2.482l19.338-14.816c3.107-2.381 7.446-2.38 10.551 0l19.338 14.816c3.145 2.41 7.272 3.118 11.039 1.894 3.768-1.225 6.691-4.223 7.818-8.021l6.936-23.354c1.093-3.681 4.494-6.205 8.316-6.205.073 0 24.574.623 24.574.623 3.972.107 7.715-1.751 10.043-4.957 2.329-3.205 2.931-7.349 1.611-11.083l-8.116-22.972c-1.304-3.689.037-7.816 3.26-10.035l20.069-13.813c3.263-2.247 5.211-5.954 5.21-9.915 0-3.962-1.948-7.667-5.21-9.912z"/><path d="m475.352 497h-286.028l-5.638-63.601 28.227-20.437 44.203 6.117c.349.048.695.071 1.037.071 3.686 0 6.9-2.719 7.42-6.473.568-4.104-2.298-7.89-6.401-8.458l-28.698-3.971 23.837-17.258h19.05c4.142 0 7.5-3.357 7.5-7.5s-3.358-7.5-7.5-7.5h-21.48c-1.58 0-3.119.499-4.398 1.425l-8.228 5.957 2.752-25.852c.438-4.119-2.545-7.814-6.664-8.252-4.112-.424-7.813 2.546-8.252 6.664l-4.182 39.274-39.765 28.791-3.072-34.655c-.365-4.126-4.006-7.169-8.133-6.809-4.126.366-7.174 4.007-6.809 8.133l10.136 114.334h-46.555l23.277-262.57 10.042 113.276c.366 4.127 4.012 7.173 8.133 6.809 4.126-.366 7.174-4.007 6.809-8.133l-1.959-22.098 33.502-20.549 44.866 6.604c.371.055.738.081 1.102.081 3.659 0 6.862-2.682 7.411-6.409.604-4.098-2.23-7.908-6.328-8.512l-27.116-3.991 1.342-.823c3.531-2.166 4.638-6.784 2.472-10.315-2.165-3.53-6.784-4.637-10.314-2.472l-48.415 29.697-10.442-117.782c-.522-5.889-5.192-10.162-11.104-10.162-5.911 0-10.581 4.273-11.103 10.162l-6.474 73.03-47.788-47.796c-2.929-2.93-7.678-2.929-10.606-.001-2.929 2.929-2.93 7.678-.001 10.606l15.291 15.294h-17.587c-4.142 0-7.5 3.357-7.5 7.5s3.358 7.5 7.5 7.5h32.584l26.379 26.383-8.296 93.577-9.865-6.05-13.921-47.834c-1.158-3.978-5.32-6.266-9.297-5.105-3.977 1.157-6.263 5.319-5.105 9.297l9.307 31.981-20.317-12.459c-1.18-.724-2.537-1.106-3.921-1.106h-29.46c-4.142 0-7.5 3.357-7.5 7.5s3.358 7.5 7.5 7.5h27.343l53.755 32.965-9.255 104.405h-81.059c-4.142 0-7.5 3.357-7.5 7.5s3.358 7.5 7.5 7.5h443.759c4.142 0 7.5-3.357 7.5-7.5s-3.358-7.5-7.5-7.5z"/><path d="m304.582 414.383c1.35 1.013 2.929 1.502 4.495 1.501 2.28 0 4.532-1.035 6.005-2.999l21.546-28.719c3.433-4.576 3.433-10.969 0-15.545l-18.169-24.218 18.168-24.213c3.434-4.576 3.434-10.97 0-15.546l-18.168-24.214 20.622-27.484c2.486-3.313 1.815-8.014-1.498-10.5-3.313-2.487-8.014-1.815-10.501 1.498l-21.545 28.714c-3.434 4.576-3.434 10.969 0 15.545l18.168 24.214-18.168 24.214c-3.434 4.575-3.434 10.968-.001 15.545l18.169 24.218-20.624 27.489c-2.483 3.314-1.812 8.015 1.501 10.5z"/><path d="m356.03 414.383c1.35 1.013 2.929 1.502 4.495 1.501 2.28 0 4.532-1.035 6.005-2.999l21.545-28.719c3.434-4.576 3.434-10.969 0-15.545l-18.169-24.218 18.167-24.212c3.436-4.576 3.436-10.97.001-15.547l-18.168-24.214 20.622-27.484c2.486-3.313 1.815-8.014-1.498-10.5-3.314-2.487-8.014-1.815-10.501 1.498l-21.545 28.714c-3.434 4.576-3.434 10.969 0 15.545l18.168 24.214-18.168 24.214c-3.434 4.576-3.435 10.969-.001 15.545l18.169 24.218-20.623 27.489c-2.483 3.314-1.812 8.015 1.501 10.5z"/><path d="m407.477 414.383c1.35 1.013 2.929 1.502 4.495 1.501 2.28 0 4.532-1.035 6.005-2.999l21.545-28.719c3.434-4.576 3.434-10.969 0-15.545l-18.169-24.218 18.168-24.213c3.434-4.576 3.434-10.97 0-15.546l-18.167-24.214 20.622-27.484c2.486-3.313 1.815-8.014-1.498-10.5-3.314-2.487-8.015-1.815-10.501 1.498l-21.545 28.714c-3.434 4.576-3.434 10.969 0 15.545l18.168 24.214-18.168 24.214c-3.434 4.576-3.434 10.969 0 15.545l18.169 24.218-20.623 27.489c-2.485 3.314-1.814 8.015 1.499 10.5z"/></g></g></svg>