<svg id="Capa_1" enable-background="new 0 0 512 512" height="512" viewBox="0 0 512 512" width="512" xmlns="http://www.w3.org/2000/svg"><g><g><path d="m451.225 504.5v-12.262c0-12.918-10.472-23.39-23.391-23.39h-27.367c.226-1.296.351-2.627.351-3.988 0-12.741-10.329-23.07-23.07-23.07-5.508 0-10.562 1.933-14.529 5.154-3.196-21.765-21.94-38.475-44.592-38.475-24.896 0-45.079 20.183-45.079 45.079 0 2.42.196 4.793.563 7.11-.188-.002-.374-.014-.563-.014-24.222 0-43.857 19.636-43.858 43.858h221.535z" fill="#ddebfd"/><path d="m182.728 504.5h-62.94l11.92-134.48h39.1z" fill="#8c5e5e"/><circle cx="379.214" cy="108.365" fill="#75cff9" r="33.531"/><path d="m244.039 425.655h-185.565c-9.2 0-15.096-9.787-10.796-17.92l92.782-175.513c4.585-8.673 17.008-8.673 21.593 0l92.782 175.513c4.3 8.134-1.596 17.92-10.796 17.92z" fill="#70c6db"/><path d="m254.835 407.736-92.782-175.513c-4.585-8.673-17.008-8.673-21.593 0l-3.963 7.497 88.819 168.017c4.299 8.133-1.597 17.92-10.797 17.92h29.519c9.201-.002 15.097-9.788 10.797-17.921z" fill="#64b0cb"/><path d="m221.88 312.688h-141.247c-8.11 0-13.308-8.627-9.518-15.797l70.623-133.596c4.042-7.646 14.993-7.646 19.035 0l70.623 133.596c3.792 7.17-1.406 15.797-9.516 15.797z" fill="#94d8e6"/><path d="m231.398 296.891-70.623-133.596c-4.042-7.646-14.993-7.646-19.035 0l-5.242 9.916 65.382 123.68c3.79 7.17-1.408 15.797-9.518 15.797h29.519c8.109 0 13.307-8.627 9.517-15.797z" fill="#70c6db"/><path d="m208.752 243.566c3.011 0 4.941-3.203 3.534-5.865l-41.993-79.436c-3.74-7.074-11.033-11.47-19.035-11.47s-15.296 4.395-19.035 11.469l-41.993 79.437c-1.407 2.662.523 5.865 3.534 5.865h44.386c3.3 0 5.975 2.675 5.975 5.975v16.07c0 9.49 7.693 17.184 17.184 17.184 9.49 0 17.184-7.693 17.184-17.184v-16.07c0-3.3 2.675-5.975 5.975-5.975z" fill="#ddebfd"/><path d="m212.285 237.701-41.993-79.436c-3.74-7.074-11.033-11.47-19.035-11.47-3.652 0-7.152.924-10.239 2.593 3.676 1.987 6.764 5.032 8.797 8.877l41.993 79.436c1.407 2.662-.522 5.865-3.533 5.865h20.478c3.01 0 4.939-3.203 3.532-5.865z" fill="#bed9fd"/><path d="m164.026 342.174c-1.338-1.854-4.1-1.854-5.439 0-4.977 6.895-15.044 21.754-15.044 29.14 0 9.811 7.953 17.763 17.763 17.763 9.811 0 17.763-7.953 17.763-17.763.001-7.386-10.066-22.245-15.043-29.14z" fill="#cde2ff"/></g><g><path d="m476.619 497h-17.894v-4.763c0-17.033-13.857-30.891-30.891-30.891h-19.717c-2.214-19.276-21.712-31.555-39.964-25.507l-.017.005c-1.854-5.181-4.521-10.068-7.909-14.449-2.536-3.276-7.248-3.875-10.521-1.344-3.276 2.535-3.878 7.245-1.344 10.521 3.172 4.101 5.44 8.826 6.695 13.824-4.894 5.422-7.88 12.599-7.88 20.461 0 4.125.81 8.129 2.406 11.902 1.211 2.86 3.988 4.579 6.91 4.579 5.326 0 9.007-5.456 6.904-10.425-.811-1.914-1.221-3.951-1.221-6.057 0-6.403 3.911-12.014 9.602-14.375 10.251-4.269 21.538 3.325 21.538 14.375 0 2.664-1.329 5.56 1.409 8.815 1.425 1.694 3.526 2.673 5.74 2.673h27.367c8.762 0 15.891 7.129 15.891 15.891v4.765h-205.754c3.467-16.46 18.107-28.854 35.627-28.854 0 0 .294.009.438.011h.078c4.63 0 8.126-4.142 7.407-8.674-.313-1.972-.471-3.969-.471-5.936 0-20.721 16.857-37.579 37.578-37.579 1.665 0 3.34.109 4.979.325 4.096.549 7.874-2.349 8.415-6.456.541-4.106-2.35-7.874-6.456-8.415-2.285-.302-4.62-.454-6.938-.454-28.991 0-52.578 23.587-52.578 52.579v.142c-22.326 3.282-40.022 20.985-43.304 43.312h-33.151l-5.66-63.84h60.105c6.975 0 13.289-3.567 16.889-9.544 3.598-5.974 3.801-13.22.542-19.381l-44.432-84.045h4.842c6.462 0 12.311-3.305 15.646-8.841s3.524-12.252.504-17.965l-23.267-44.023c1.537-.945 2.862-2.243 3.836-3.861 2.099-3.484 2.217-7.711.316-11.305l-41.993-79.437c-5.043-9.54-14.877-15.466-25.666-15.466-10.79 0-20.624 5.926-25.666 15.465l-12.038 22.771c-1.936 3.661-.537 8.199 3.125 10.136 3.661 1.935 8.2.537 10.136-3.126l12.038-22.771c2.437-4.61 7.19-7.475 12.405-7.475 5.214 0 9.967 2.864 12.405 7.476l39.275 74.296h-18.471c-7.43 0-13.475 6.045-13.475 13.476v16.07c0 5.34-4.344 9.684-9.684 9.684-5.339 0-9.684-4.344-9.684-9.684v-16.07c0-7.431-6.045-13.476-13.475-13.476h-38.57l10.88-20.583c1.936-3.662.537-8.199-3.125-10.136-3.661-1.935-8.2-.535-10.135 3.126l-13.598 25.723c-1.901 3.596-1.784 7.821.315 11.306.975 1.619 2.302 2.918 3.84 3.863l-23.265 44.021c-6.433 12.172 2.386 26.806 16.141 26.806h4.842l-44.422 84.043c-3.26 6.163-3.058 13.41.542 19.386 3.599 5.975 9.908 9.541 16.878 9.541h60.115l-5.66 63.84h-80.062c-4.142 0-7.5 3.357-7.5 7.5s3.358 7.5 7.5 7.5h443.757c4.143 0 7.5-3.357 7.5-7.5s-3.357-7.501-7.5-7.501zm-398.869-196.605 26.071-49.329h32.802v14.546c0 13.61 11.073 24.684 24.684 24.684s24.684-11.073 24.684-24.684v-14.546h12.707l26.071 49.329c1.156 2.187-.425 4.796-2.889 4.796h-141.251c-2.472 0-4.031-2.616-2.879-4.796zm-23.31 115.484c-.413-.686-1.253-2.511-.13-4.634l48.128-91.055h97.632l48.138 91.057c1.122 2.12.282 3.944-.131 4.63-.414.687-1.635 2.283-4.039 2.283h-185.569c-2.397.001-3.616-1.594-4.029-2.281zm79.203 17.282h35.231l5.66 63.84h-46.551z"/><path d="m326.693 270.382c4.143 0 7.5-3.357 7.5-7.5v-5.459c0-4.143-3.357-7.5-7.5-7.5s-7.5 3.357-7.5 7.5v5.459c0 4.143 3.358 7.5 7.5 7.5z"/><path d="m319.193 316.453c0 4.143 3.357 7.5 7.5 7.5s7.5-3.357 7.5-7.5v-5.46c0-4.143-3.357-7.5-7.5-7.5s-7.5 3.357-7.5 7.5z"/><path d="m319.193 370.022c0 4.143 3.357 7.5 7.5 7.5s7.5-3.357 7.5-7.5v-5.459c0-4.143-3.357-7.5-7.5-7.5s-7.5 3.357-7.5 7.5z"/><path d="m379.214 270.382c4.143 0 7.5-3.357 7.5-7.5v-5.459c0-4.143-3.357-7.5-7.5-7.5s-7.5 3.357-7.5 7.5v5.459c0 4.143 3.357 7.5 7.5 7.5z"/><path d="m371.714 316.453c0 4.143 3.357 7.5 7.5 7.5s7.5-3.357 7.5-7.5v-5.46c0-4.143-3.357-7.5-7.5-7.5s-7.5 3.357-7.5 7.5z"/><path d="m371.714 370.022c0 4.143 3.357 7.5 7.5 7.5s7.5-3.357 7.5-7.5v-5.459c0-4.143-3.357-7.5-7.5-7.5s-7.5 3.357-7.5 7.5z"/><path d="m431.733 270.382c4.143 0 7.5-3.357 7.5-7.5v-5.459c0-4.143-3.357-7.5-7.5-7.5s-7.5 3.357-7.5 7.5v5.459c0 4.143 3.358 7.5 7.5 7.5z"/><path d="m424.233 316.453c0 4.143 3.357 7.5 7.5 7.5s7.5-3.357 7.5-7.5v-5.46c0-4.143-3.357-7.5-7.5-7.5s-7.5 3.357-7.5 7.5z"/><path d="m424.233 370.022c0 4.143 3.357 7.5 7.5 7.5s7.5-3.357 7.5-7.5v-5.459c0-4.143-3.357-7.5-7.5-7.5s-7.5 3.357-7.5 7.5z"/><path d="m477.487 129.706-33.305 7.509-26.289-15.178c3.048-8.597 3.221-18.256 0-27.343l26.289-15.178 33.305 7.509c4.057.913 8.057-1.64 8.966-5.667.911-4.041-1.626-8.055-5.667-8.966l-28.237-6.366 8.605-27.637c1.231-3.954-.977-8.159-4.932-9.391-3.956-1.229-8.158.977-9.391 4.932l-10.15 32.596-26.309 15.19c-5.982-6.984-14.261-11.938-23.659-13.682v-30.358l23.154-25.089c2.809-3.044 2.619-7.789-.425-10.599s-7.789-2.619-10.599.425l-19.631 21.271-19.63-21.27c-2.809-3.043-7.553-3.232-10.599-.425-3.044 2.81-3.233 7.555-.425 10.599l23.155 25.089v30.357c-9.398 1.744-17.678 6.697-23.66 13.682l-26.308-15.19-10.151-32.596c-1.232-3.955-5.436-6.161-9.391-4.932-3.955 1.231-6.163 5.437-4.932 9.391l8.606 27.637-28.237 6.366c-4.041.911-6.578 4.925-5.667 8.966.909 4.031 4.914 6.58 8.966 5.667l33.305-7.509 26.288 15.178c-3.048 8.597-3.221 18.257 0 27.343l-26.288 15.178-33.305-7.509c-4.047-.91-8.055 1.627-8.966 5.667-.911 4.041 1.626 8.055 5.667 8.966l28.237 6.366-8.606 27.637c-1.231 3.954.977 8.159 4.932 9.391 3.966 1.232 8.161-.984 9.391-4.932l10.151-32.596 26.309-15.19c5.982 6.984 14.262 11.938 23.66 13.682v30.357l-23.155 25.089c-2.809 3.044-2.619 7.789.425 10.599 3.051 2.815 7.795 2.612 10.599-.425l19.632-21.271 19.631 21.271c2.81 3.044 7.554 3.233 10.599.425 3.044-2.81 3.233-7.555.425-10.599l-23.154-25.089v-30.357c9.398-1.744 17.677-6.697 23.659-13.682l26.309 15.19 10.15 32.596c1.001 3.213 3.962 5.272 7.159 5.272 5.05 0 8.666-4.905 7.163-9.731l-8.605-27.637 28.237-6.366c4.041-.911 6.578-4.925 5.667-8.966-.913-4.04-4.927-6.574-8.968-5.667zm-98.273 4.69c-14.354 0-26.031-11.678-26.031-26.031s11.678-26.03 26.031-26.03 26.03 11.677 26.03 26.03-11.677 26.031-26.03 26.031z"/><path d="m161.307 333.284c-3.477 0-6.767 1.683-8.801 4.501-10.924 15.133-16.463 26.413-16.463 33.529 0 13.93 11.333 25.263 25.263 25.263 13.931 0 25.264-11.333 25.264-25.263 0-7.114-5.539-18.396-16.462-33.528-2.034-2.82-5.324-4.502-8.801-4.502zm0 48.293c-5.659 0-10.263-4.604-10.263-10.263 0-1.803 2.239-8.131 10.263-19.953 8.024 11.823 10.264 18.151 10.264 19.953-.001 5.659-4.605 10.263-10.264 10.263z"/></g></g></svg>