<svg id="Capa_1" enable-background="new 0 0 512 512" height="512" viewBox="0 0 512 512" width="512" xmlns="http://www.w3.org/2000/svg"><g><g><g fill="#9ec8fc"><path d="m411.125 438.143 30.759 58.498c.93 1.768 2.763 2.875 4.761 2.875h37.921c1.619 0 2.658-1.72 1.904-3.153l-30.613-58.22z"/><path d="m100.875 438.143-30.759 58.498c-.93 1.768-2.763 2.875-4.761 2.875h-37.921c-1.619 0-2.657-1.72-1.904-3.153l30.613-58.22z"/></g><path d="m7.5 363.744v65.793c0 4.753 3.853 8.606 8.606 8.606h479.789c4.753 0 8.606-3.853 8.606-8.606v-65.793z" fill="#6cbff8"/><path d="m468.116 429.537c0 4.753-3.853 8.606-8.605 8.606h36.384c3.564 0 6.623-2.167 7.929-5.256.109-.257.206-.521.289-.791.251-.809.387-1.668.387-2.559v-65.793h-36.384z" fill="#5fa7ee"/><path d="m495.894 390.812h-479.788c-4.753 0-8.606-3.853-8.606-8.606v-300.29c0-4.753 3.853-8.606 8.606-8.606h479.789c4.753 0 8.606 3.853 8.606 8.606v300.29c-.001 4.753-3.854 8.606-8.607 8.606z" fill="#5d91b9"/><path d="m495.894 73.311h-36.384c4.753 0 8.606 3.853 8.606 8.606v308.896h27.778c4.753 0 8.606-3.853 8.606-8.606v-300.291c0-4.662-3.795-8.605-8.606-8.605z" fill="#407194"/><g><path d="m296.08 187.687-11.144-8.957c-6.836-5.494-10.398-14.095-9.45-22.814l1.546-14.214c.42-3.859-2.838-7.116-6.697-6.697l-14.214 1.546c-8.719.949-17.319-2.614-22.814-9.45l-8.957-11.144c-2.432-3.026-7.038-3.026-9.47 0l-8.957 11.144c-5.494 6.836-14.095 10.398-22.814 9.45l-14.214-1.546c-3.859-.42-7.116 2.838-6.696 6.697l1.546 14.214c.949 8.719-2.614 17.319-9.45 22.814l-11.144 8.957c-3.026 2.432-3.026 7.038 0 9.47l11.144 8.957c6.836 5.494 10.398 14.095 9.45 22.814l-1.546 14.214c-.42 3.859 2.838 7.116 6.697 6.697l14.214-1.546c8.719-.949 17.319 2.614 22.814 9.45l8.957 11.144c2.432 3.026 7.038 3.026 9.47 0l8.957-11.144c5.494-6.836 14.095-10.398 22.814-9.45l14.214 1.546c3.859.42 7.116-2.838 6.697-6.697l-1.546-14.214c-.949-8.719 2.614-17.319 9.45-22.814l11.144-8.957c3.024-2.431 3.024-7.038-.001-9.47z" fill="#ecc52e"/><ellipse cx="219.616" cy="192.423" fill="#e69642" rx="30.951" ry="30.951" transform="matrix(1 -.019 .019 1 -3.584 4.169)"/><path d="m366.495 259.834c-2.855-2.855-6.803-4.622-11.157-4.622h-22.395c2.664-6.492 4.16-13.589 4.227-21.025.28-31.246-25.071-57.038-56.317-57.272-30.782-.231-55.945 24.039-57.147 54.469-.042 1.052-.907 1.883-1.96 1.883-4.492.001-15.323.002-15.323.002-14.773 0-26.749 11.976-26.749 26.749s11.976 26.749 26.749 26.749h148.661c8.581 0 15.79-6.749 16.029-15.327.123-4.53-1.665-8.653-4.618-11.606z" fill="#ddebfd"/></g></g><g><path d="m149.602 172.885-11.152 8.962c-3.219 2.589-5.064 6.444-5.064 10.579 0 4.134 1.846 7.989 5.067 10.58l11.148 8.96c4.86 3.907 7.362 9.948 6.693 16.15l-1.55 14.212c-.447 4.111.974 8.146 3.897 11.07 2.57 2.569 5.997 3.979 9.583 3.979.494 0 .992-.027 1.491-.082l2.596-.284c-.087.992-.14 1.994-.14 3.008 0 18.885 15.364 34.248 34.249 34.248h148.661c12.625 0 23.179-10.146 23.525-22.618.356-12.847-9.903-23.937-23.271-23.937h-12.202c.979-4.392 1.493-8.891 1.534-13.457.152-17.124-6.417-33.319-18.5-45.604-10.737-10.914-24.635-17.511-39.609-18.934-2.815-3.678-4.123-8.286-3.613-12.991l1.54-14.216c.447-4.109-.973-8.143-3.896-11.064s-6.959-4.344-11.059-3.894l-14.225 1.54c-6.204.676-12.245-1.824-16.154-6.694l-8.952-11.131c-2.589-3.229-6.448-5.081-10.586-5.081-4.139 0-7.998 1.852-10.579 5.072l-8.966 11.146c-3.904 4.864-9.941 7.369-16.152 6.688l-14.206-1.54c-4.113-.44-8.15.973-11.074 3.897-2.921 2.921-4.341 6.952-3.894 11.062l1.549 14.212c.672 6.213-1.829 12.254-6.689 16.162zm131.193 11.531c27.113.202 49.117 22.569 48.874 49.705-.056 6.316-1.289 12.455-3.665 18.244-.949 2.313-.684 4.948.709 7.024 1.393 2.077 3.729 3.323 6.229 3.323h22.395c4.63 0 8.408 3.805 8.276 8.521-.123 4.43-3.95 8.034-8.531 8.034h-148.661c-10.614 0-19.249-8.635-19.249-19.248 0-10.614 8.635-19.25 19.25-19.25h15.322c5.098 0 9.251-3.991 9.454-9.088.095-2.411.317-4.781.786-7.075.034-.165.065-.33.094-.497 3.835-22.02 23.981-39.884 48.717-39.693zm-84.625 8.004c0-12.931 10.52-23.45 23.45-23.45 9.34 0 17.703 5.648 21.408 13.934-1.737 1.35-3.418 2.79-5.027 4.329-8.318 7.958-14.228 17.81-17.332 28.614-12.491-.503-22.499-10.816-22.499-23.427zm-37.171-7.844c8.865-7.126 13.429-18.14 12.207-29.469l-1.357-12.451 12.449 1.35c11.327 1.232 22.343-3.332 29.466-12.206l7.852-9.76 7.845 9.754c7.128 8.88 18.144 13.452 29.468 12.212l12.455-1.349-1.349 12.454c-.568 5.24.108 10.416 1.885 15.184-5.536.911-10.906 2.519-15.983 4.813-6.433-12.656-19.651-21.139-34.316-21.139-21.201 0-38.45 17.249-38.45 38.45 0 14.536 8.109 27.211 20.04 33.746-9.807 1.503-18.25 7.186-23.466 15.162l-7.896.863 1.359-12.457c1.221-11.321-3.343-22.334-12.209-29.46l-9.767-7.85z"/><path d="m252.083 325.419c1.027.48 2.107.708 3.172.708 2.821 0 5.524-1.601 6.799-4.324l1.363-2.915c1.755-3.753.136-8.217-3.617-9.972-3.75-1.754-8.216-.135-9.971 3.616l-1.363 2.915c-1.755 3.753-.136 8.217 3.617 9.972z"/><path d="m244.928 340.723c-3.753-1.755-8.218-.135-9.971 3.617l-1.363 2.916c-1.755 3.753-.135 8.217 3.617 9.971 1.027.48 2.108.708 3.172.708 2.821 0 5.525-1.601 6.799-4.325l1.363-2.916c1.755-3.753.135-8.217-3.617-9.971z"/><path d="m284.227 325.42c1.027.479 2.107.707 3.171.707 2.822 0 5.525-1.601 6.8-4.326l1.362-2.915c1.753-3.753.133-8.217-3.619-9.971-3.755-1.752-8.216-.134-9.971 3.619l-1.362 2.915c-1.754 3.753-.133 8.217 3.619 9.971z"/><path d="m277.069 340.723c-3.752-1.755-8.218-.135-9.971 3.617l-1.363 2.916c-1.755 3.753-.135 8.217 3.617 9.971 1.027.48 2.108.708 3.172.708 2.821 0 5.525-1.601 6.799-4.325l1.363-2.916c1.755-3.753.135-8.217-3.617-9.971z"/><path d="m316.367 325.419c1.027.48 2.107.708 3.172.708 2.821 0 5.524-1.601 6.799-4.324l1.363-2.915c1.755-3.753.136-8.217-3.617-9.972-3.75-1.754-8.216-.135-9.971 3.616l-1.363 2.915c-1.755 3.753-.136 8.217 3.617 9.972z"/><path d="m309.212 340.723c-3.754-1.755-8.217-.135-9.971 3.617l-1.363 2.916c-1.755 3.753-.135 8.217 3.617 9.971 1.027.48 2.108.708 3.172.708 2.821 0 5.525-1.601 6.799-4.325l1.363-2.916c1.755-3.753.135-8.217-3.617-9.971z"/><path d="m495.895 65.81h-181.319l48.024-48.023c2.929-2.93 2.929-7.678 0-10.607-2.93-2.928-7.678-2.928-10.607 0l-58.632 58.63h-74.723l-58.63-58.631c-2.93-2.928-7.678-2.928-10.607 0-2.929 2.93-2.929 7.678 0 10.607l48.023 48.023h-181.319c-8.88.001-16.105 7.227-16.105 16.108v15.683c0 4.143 3.357 7.5 7.5 7.5s7.5-3.357 7.5-7.5v-15.683c0-.61.496-1.106 1.105-1.106h479.789c.609 0 1.105.496 1.105 1.106v300.29c0 .609-.496 1.105-1.105 1.105h-479.789c-.609 0-1.105-.496-1.105-1.105v-249.607c0-4.143-3.357-7.5-7.5-7.5s-7.5 3.358-7.5 7.5v296.937c0 8.881 7.225 16.106 16.105 16.106h27.621l-24.832 47.227c-1.589 3.019-1.484 6.563.278 9.483s4.852 4.663 8.263 4.663h37.921c4.799 0 9.167-2.639 11.399-6.886l28.65-54.487h239.778c4.143 0 7.5-3.357 7.5-7.5s-3.357-7.5-7.5-7.5h-329.078c-.609 0-1.105-.496-1.105-1.106v-31.281c.367.025.732.056 1.105.056 0 0 480.528-.031 480.895-.056v31.281c0 .61-.496 1.106-1.105 1.106h-115.711c-4.143 0-7.5 3.357-7.5 7.5s3.357 7.5 7.5 7.5h26.411l28.65 54.487c2.232 4.247 6.601 6.886 11.399 6.886h37.921c7.266 0 11.922-7.723 8.543-14.144l-24.834-47.229h27.621c8.881 0 16.105-7.226 16.105-16.106v-347.62c0-8.881-7.225-16.107-16.105-16.107zm-435.221 379.833h27.784l-24.383 46.373h-27.786zm415.037 46.373h-27.785l-24.383-46.373h27.784z"/></g></g></svg>