<svg id="Capa_1" enable-background="new 0 0 512 512" height="512" viewBox="0 0 512 512" width="512" xmlns="http://www.w3.org/2000/svg"><g><g><path d="m468.35 248.426v77.96h-48.01v-77.96c0-84.76-68.97-153.73-153.73-153.73-84.77 0-153.74 68.97-153.74 153.73v151.841h-48.01v-151.841c0-111.25 90.5-201.74 201.75-201.74 111.24 0 201.74 90.49 201.74 201.74z" fill="#df646e"/><path d="m420.34 248.426v77.96h-48.019v-77.959c0-58.29-47.425-105.728-105.715-105.728-58.3 0-105.718 47.438-105.718 105.728v151.84h-48.018v-151.841c0-84.76 68.97-153.73 153.74-153.73 84.76 0 153.73 68.97 153.73 153.73z" fill="#ecc52e"/><path d="m372.321 248.427v77.959h-48.003v-77.958c0-31.876-25.838-57.714-57.714-57.714s-57.714 25.838-57.714 57.714v151.84h-48.003v-151.84c0-58.294 47.424-105.728 105.718-105.728s105.716 47.433 105.716 105.727z" fill="#70c6db"/><path d="m470.78 293.175h-8.587c-7.187-35.319-38.425-61.898-75.864-61.898s-68.677 26.579-75.864 61.898c-1.015 5.017-1.553 10.203-1.553 15.519 0 13.176 3.29 25.58 9.094 36.439 4.68 8.754 13.854 14.17 23.781 14.17h129.643c9.128 0 17.401-3.703 23.383-9.686 6.124-6.124 9.859-14.636 9.68-24.032-.346-18.112-15.597-32.41-33.713-32.41z" fill="#ddebfd"/><path d="m470.78 293.175h-8.587c-7.187-35.319-38.425-61.898-75.864-61.898-5.615 0-11.086.609-16.362 1.745 30.063 6.588 53.71 31.32 59.842 62.69h8.587c18.116 0 33.367 14.884 33.714 33.739.18 9.781-3.556 18.642-9.68 25.017-1.76 1.832-3.722 3.451-5.841 4.835h14.842c9.128 0 17.401-3.703 23.383-9.686 6.124-6.124 9.859-14.636 9.68-24.032-.347-18.112-15.598-32.41-33.714-32.41z" fill="#bed9fd"/><path d="m325.76 419.431c-4.864-4.864-11.59-7.873-19.007-7.873h-38.151c4.538-11.059 7.087-23.15 7.201-35.817.476-53.228-42.71-97.166-95.939-97.565-52.439-.394-95.304 40.951-97.353 92.791-.071 1.793-1.545 3.208-3.339 3.208-7.652.001-26.104.003-26.104.003-25.166 0-45.568 20.401-45.568 45.568s20.401 45.567 45.568 45.567h253.25c14.619 0 26.899-11.497 27.305-26.11.215-7.72-2.832-14.742-7.863-19.772z" fill="#ddebfd"/><g><g fill="#bed9fd"><path d="m247.439 375.741c-.087 9.747-1.617 19.152-4.385 28.009-1.212 3.877 1.719 7.808 5.781 7.808h19.767c4.709-11.475 7.276-24.061 7.203-37.248-.285-51.474-41.525-94.115-92.963-96.066-6.121-.232-12.117.114-17.947.974 46.89 6.937 82.979 47.84 82.544 96.523z"/><path d="m325.76 419.431c-4.864-4.864-11.59-7.873-19.007-7.873h-28.364c7.417 0 14.143 3.01 19.007 7.873 5.031 5.031 8.078 12.053 7.863 19.772-.406 14.613-12.687 26.11-27.305 26.11h28.364c14.619 0 26.899-11.497 27.305-26.11.215-7.72-2.832-14.742-7.863-19.772z"/></g></g></g><path d="m475.849 285.996v-37.567c0-115.375-93.864-209.24-209.239-209.24-37.658 0-74.602 10.155-106.84 29.367-3.558 2.121-4.724 6.724-2.604 10.282 2.121 3.558 6.724 4.724 10.282 2.604 29.916-17.829 64.206-27.253 99.161-27.253 107.103 0 194.239 87.136 194.239 194.24v19.577c-7.812-14.237-19.554-25.894-33.627-33.66-3.393-39.024-20.841-75.312-49.426-102.574-2.999-2.858-7.743-2.748-10.604.251-2.858 2.998-2.746 7.745.251 10.604 23.948 22.841 39.274 52.657 43.902 84.954-7.954-2.469-16.362-3.804-25.016-3.804-3.087 0-6.133.176-9.136.499-5.172-23.66-17.889-45.209-36.368-61.286-20.596-17.92-46.953-27.79-74.215-27.79-62.43 0-113.22 50.795-113.22 113.23v25.45c-11.78 2.985-22.938 8.016-33.02 14.919v-40.369c0-80.631 65.603-146.23 146.24-146.23 26.008 0 51.564 6.945 73.908 20.084 3.569 2.1 8.166.908 10.267-2.663 2.1-3.57.907-8.167-2.663-10.267-24.646-14.494-52.831-22.155-81.511-22.155-88.908 0-161.24 72.328-161.24 161.23v52.871c-17.602 17.635-28.202 40.625-30.12 65.374h-2.89v-118.245c0-56.434 24.585-110.025 67.452-147.032 3.135-2.707 3.482-7.443.776-10.579-2.707-3.135-7.443-3.483-10.579-.776-46.169 39.86-72.649 97.59-72.649 158.387v118.247h-4.292c-29.262-.001-53.068 23.806-53.068 53.068 0 29.261 23.806 53.067 53.068 53.067h253.249c18.679 0 34.291-14.984 34.803-33.402.53-19.05-14.695-35.354-34.367-35.354h-27.591c5.081-17.393 5.554-37.319.724-55.625-1.057-4.005-5.153-6.394-9.166-5.338-4.005 1.057-6.395 5.161-5.338 9.166 6.303 23.883 2.526 50.593-12.38 72.574-2.325 3.428-1.431 8.092 1.998 10.416 1.29.875 2.753 1.294 4.203 1.294 2.403 0 4.764-1.153 6.214-3.292 3.057-4.507 5.76-9.265 8.074-14.195h33.263c10.838 0 19.681 8.909 19.373 19.937-.288 10.377-9.175 18.819-19.809 18.819h-253.25c-20.991 0-38.068-17.077-38.068-38.067 0-20.991 17.077-38.068 38.068-38.069 2.678 0-9.669.004 26.105-.001 5.842-.001 10.6-4.575 10.832-10.413.916-23.176 10.672-44.79 27.47-60.86 39.957-38.224 102.892-30.678 134.028 12.528 2.422 3.362 7.111 4.121 10.469 1.7 3.36-2.422 4.122-7.109 1.7-10.47-12.024-16.686-28.589-29.263-47.283-36.496v-29.235c0-27.691 22.529-50.22 50.22-50.22 27.685 0 50.21 22.529 50.21 50.22v11.574c-9.694 13.797-15.408 30.584-15.408 48.69 0 13.938 3.451 27.761 9.98 39.975 5.979 11.186 17.626 18.135 30.395 18.135h129.644c10.836 0 21.023-4.22 28.687-11.883 7.87-7.871 12.088-18.34 11.875-29.478-.387-20.242-16.174-36.987-36.143-39.445zm-209.239-102.787c-35.962 0-65.22 29.258-65.22 65.22v24.689c-7.002-1.554-14.195-2.389-21.47-2.444-3.876-.027-7.723.164-11.53.554v-22.799c0-54.164 44.061-98.23 98.22-98.23 23.643 0 46.503 8.561 64.369 24.105 15.971 13.895 26.982 32.489 31.504 52.903-11.47 3.362-21.938 9.076-30.846 16.596-2.382-33.809-30.627-60.594-65.027-60.594zm222.901 161.103c-4.83 4.83-11.252 7.49-18.081 7.49h-129.642c-7.224 0-13.802-3.911-17.167-10.206-5.37-10.046-8.209-21.424-8.209-32.903 0-38.552 31.364-69.916 69.917-69.916 33.109 0 61.924 23.506 68.515 55.893.711 3.494 3.784 6.004 7.35 6.004h8.587c14.19 0 25.951 11.239 26.215 25.054.133 7.023-2.525 13.623-7.485 18.584z"/></g></svg>