<svg id="Capa_1" enable-background="new 0 0 512 512" height="512" viewBox="0 0 512 512" width="512" xmlns="http://www.w3.org/2000/svg"><g><g><path d="m247.362 345.852 90.97 90.97c1.977 1.977 5.183 1.977 7.161 0l75.074-75.074c1.977-1.977 1.977-5.183 0-7.161l-90.97-90.97c-1.977-1.977-5.183-1.977-7.161 0l-75.074 75.074c-1.978 1.977-1.978 5.183 0 7.161z" fill="#6cbff8"/><path d="m324.961 223.014-52.232-52.232c-1.977-1.977-1.977-5.183 0-7.161l138.384-138.382c1.977-1.977 5.183-1.977 7.161 0l52.232 52.232c1.977 1.977 1.977 5.183 0 7.161l-138.384 138.382c-1.977 1.978-5.183 1.978-7.161 0z" fill="#5d91b9"/><path d="m470.505 77.47-17-17c1.977 1.977 1.977 5.183 0 7.161l-138.383 138.383c-1.977 1.978-5.183 1.978-7.161 0l17 17c1.978 1.978 5.183 1.978 7.161 0l138.383-138.383c1.978-1.977 1.978-5.183 0-7.161z" fill="#407194"/><path d="m206.761 341.22-52.236-52.236c-1.976-1.976-5.18-1.976-7.156 0l-138.386 138.385c-1.977 1.977-1.977 5.183 0 7.161l52.232 52.232c1.977 1.977 5.183 1.977 7.161 0l138.386-138.386c1.975-1.976 1.975-5.18-.001-7.156z" fill="#5d91b9"/><path d="m206.761 341.22-17-17c1.976 1.976 1.976 5.18 0 7.156l-138.386 138.385c-1.977 1.977-5.183 1.977-7.16 0l17 17c1.977 1.977 5.183 1.977 7.161 0l138.386-138.386c1.975-1.976 1.975-5.179-.001-7.155z" fill="#407194"/><ellipse cx="166.572" cy="182.828" fill="#df646e" rx="23.801" ry="23.801" transform="matrix(.764 -.645 .645 .764 -78.654 150.63)"/><path d="m267.193 318.859-72.61-72.61c-3.905-3.905-3.905-10.237 0-14.142l21.268-21.268c3.905-3.905 10.237-3.905 14.142 0l72.61 72.61z" fill="#ddebfd"/><path d="m253.254 285.207h50.078v18.684h-50.078z" fill="#bed9fd" transform="matrix(.707 -.707 .707 .707 -126.767 283.054)"/><path d="m420.566 354.587-8.766-8.766c.06 1.401-.438 2.839-1.528 3.929l-76.777 76.777c-1.09 1.09-2.528 1.588-3.929 1.528l8.766 8.766c1.977 1.978 5.183 1.978 7.161 0l75.074-75.074c1.977-1.976 1.977-5.182-.001-7.16z" fill="#5fa7ee"/><path d="m388.424 436.948-33.685-9.372 56.582-56.582 9.371 33.685c.967 3.475-.013 7.201-2.563 9.751l-19.954 19.954c-2.55 2.551-6.277 3.53-9.751 2.564z" fill="#ddebfd"/><path d="m468.116 322.71-3.559 3.559c-4.933 4.933-4.933 12.931 0 17.863l13.57 13.57c1.399 1.399 3.668 1.399 5.067 0l16.356-16.356c1.399-1.399 1.399-3.668 0-5.067l-13.57-13.57c-4.934-4.931-12.931-4.931-17.864.001z" fill="#94d8e6"/></g><path d="m506.846 354.387-4.859-4.859 2.874-2.874c4.321-4.321 4.321-11.354 0-15.675l-13.571-13.571c-7.85-7.848-20.622-7.848-28.472 0l-3.56 3.56c-7.849 7.85-7.849 20.622 0 28.472l13.571 13.571c2.094 2.093 4.877 3.246 7.837 3.246 2.961 0 5.744-1.153 7.838-3.246l2.874-2.874 4.858 4.858c1.024 1.024 1.024 2.691 0 3.715l-64.731 64.731c-1.023 1.025-2.686 1.03-3.714 0l-9.028-9.028 4.673-4.673c4.454-4.455 6.173-10.993 4.485-17.066l-8.198-29.468 6.151-6.151c4.909-4.909 4.911-12.857 0-17.768l-90.972-90.971c-2.373-2.374-5.528-3.682-8.885-3.682-3.356 0-6.511 1.307-8.884 3.68l-14.529 14.529-22.814-22.814 30.79-30.79 9.079 9.079c2.449 2.448 5.666 3.673 8.883 3.673s6.435-1.225 8.885-3.673l138.389-138.388c4.898-4.899 4.898-12.87 0-17.768-26.38-26.38-32.392-32.392-52.233-52.233-4.901-4.898-12.87-4.898-17.767 0l-8.811 8.81c-2.93 2.929-2.93 7.678-.001 10.607s7.678 2.93 10.607.001l7.088-7.087 19.089 19.089-37.908 37.908-19.089-19.089 5.574-5.574c2.929-2.93 2.929-7.678 0-10.608-2.929-2.927-7.677-2.929-10.608 0l-104.331 104.332c-4.897 4.899-4.896 12.869.001 17.766l9.079 9.079-30.79 30.79-10.419-10.419c-3.306-3.305-7.7-5.125-12.375-5.125s-9.07 1.82-12.373 5.125l-5.331 5.331-11.855-11.855c7.268-12.035 5.719-27.941-4.657-38.318-12.205-12.203-32.063-12.203-44.269 0-12.204 12.205-12.204 32.063 0 44.269 6.103 6.102 14.119 9.154 22.134 9.154 5.614 0 11.226-1.503 16.184-4.497l11.855 11.855-5.33 5.33c-6.823 6.824-6.823 17.926 0 24.751l10.419 10.419-30.79 30.79-9.08-9.08c-4.907-4.911-12.853-4.912-17.765-.002l-44.938 44.938-93.453 93.451c-4.898 4.899-4.898 12.87 0 17.768l52.233 52.233c2.449 2.449 5.667 3.673 8.884 3.673s6.435-1.224 8.884-3.673c4.98-4.98 138.39-138.389 138.39-138.389 4.908-4.91 4.91-12.854 0-17.764l-9.081-9.081 30.79-30.79 22.815 22.815-14.527 14.527c-2.374 2.373-3.682 5.529-3.682 8.885s1.307 6.511 3.68 8.884l51.053 51.053c2.93 2.928 7.678 2.928 10.608 0 2.929-2.93 2.929-7.678 0-10.608l-49.331-49.33 18.1-18.1.01-.009.009-.01 35.392-35.392.01-.009.009-.01 18.1-18.1 87.527 87.527-71.63 71.63-13.45-13.451c-2.93-2.928-7.678-2.928-10.608 0-2.929 2.93-2.929 7.678 0 10.608l15.175 15.174c4.896 4.894 12.865 4.896 17.766-.001l6.151-6.151 29.467 8.198c1.544.43 3.117.639 4.679.639 4.582 0 9.064-1.801 12.387-5.123l4.674-4.674 9.027 9.027c3.329 3.33 7.755 5.164 12.464 5.164 4.708 0 9.135-1.834 12.465-5.163l64.731-64.731c6.873-6.872 6.874-18.055.002-24.929zm-36.978-15.555c-2.004-2.002-2.007-5.251 0-7.256l3.56-3.56c2.002-2.004 5.251-2.007 7.256 0l10.801 10.801-5.398 5.398-.01.009-.009.01-5.398 5.398zm-314.824-144.479c-6.357-6.356-6.357-16.698 0-23.053 3.178-3.179 7.352-4.768 11.527-4.768s8.349 1.589 11.527 4.768c6.357 6.356 6.357 16.698 0 23.053-6.356 6.357-16.698 6.357-23.054 0zm173.501 21.634c-7.244-7.244-12.099-12.099-19.09-19.09l37.909-37.909 19.09 19.09zm48.516-48.517-19.09-19.09 37.908-37.908 19.09 19.09zm67.335-105.514 19.089 19.089-37.908 37.908-19.089-19.089zm-59.124 37.909-37.908 37.908-19.089-19.089 37.909-37.908zm-67.605 29.426 19.089 19.089-37.909 37.909c-6.981-6.981-11.832-11.832-19.09-19.09zm-30.553 66.48 12.86 12.86-30.79 30.79-12.86-12.86zm-136.17 100.242 12.65 12.65.009.01.01.009 6.42 6.42-37.909 37.909-19.09-19.09zm-37.637 135.212-19.089-19.089 37.908-37.908 19.09 19.09zm-29.698-29.698-19.089-19.089 37.908-37.908 19.09 19.09zm-29.697-8.481 19.089 19.089-37.909 37.909-19.089-19.089zm10.878 86.695-19.089-19.089 37.909-37.908 19.089 19.089zm97.033-97.032-19.09-19.09 37.909-37.909 6.42 6.42.009.01.01.009 12.651 12.65zm30.552-66.48-6.427-6.427-6.432-6.432 30.79-30.79 12.86 12.86zm7.511-75.284c-.638-.637-.732-1.381-.732-1.768s.095-1.131.731-1.768c6.273-6.273 4.355-4.354 10.637-10.637l10.633-10.633c.637-.637 1.38-.731 1.767-.731s1.131.095 1.768.732l67.309 67.309-24.803 24.804zm190.552 188.782-21.307-5.927 38.413-38.413 5.928 21.306c.241.868-.005 1.803-.642 2.439l-19.955 19.955c-.634.636-1.568.883-2.437.64z"/></g></svg>