<svg id="Capa_1" enable-background="new 0 0 512 512" height="512" viewBox="0 0 512 512" width="512" xmlns="http://www.w3.org/2000/svg"><g><g><path d="m504.5 264.174c0-79.639-41.683-149.535-104.421-189.077-7.147-4.505-16.589-2.342-20.971 4.88l-21.628 35.648c-4.248 7.002-2.026 16.051 4.886 20.442 42.349 26.902 70.453 74.22 70.453 128.107s-28.104 101.204-70.454 128.106c-6.913 4.391-9.133 13.442-4.885 20.444l21.628 35.647c4.382 7.223 13.822 9.386 20.969 4.881 62.738-39.541 104.423-109.439 104.423-189.078z" fill="#70c6db"/><path d="m400.079 75.097c-7.147-4.504-16.589-2.342-20.971 4.88l-2.281 3.76c2.05.245 4.081.922 5.947 2.098 59.175 37.296 98.491 103.223 98.491 178.339s-39.317 141.044-98.492 178.34c-1.865 1.175-3.895 1.853-5.944 2.098l2.281 3.76c4.382 7.223 13.822 9.386 20.969 4.881 62.736-39.542 104.421-109.44 104.421-189.079 0-79.638-41.683-149.535-104.421-189.077z" fill="#64b0cb"/><path d="m504.5 264.174h-71.68c0-30.226-8.843-58.379-24.082-82.028l59.589-39.856c22.88 35.048 36.173 76.914 36.173 121.884z" fill="#ecc52e"/><path d="m504.5 264.174c-.476-3.027 3.399-61.266-36.173-121.883l-17.958 12.012c19.595 31.989 30.896 69.608 30.896 109.872h23.235z" fill="#e69824"/><path d="m468.327 386.058-59.589-39.856c15.239-23.648 24.082-51.802 24.082-82.028h71.68c0 44.971-13.293 86.838-36.173 121.884z" fill="#e69642"/><path d="m481.264 264.174c0 40.263-11.3 77.883-30.896 109.872l17.959 12.011c23.599-36.148 36.173-78.287 36.173-121.882 0 0 0 0 0-.001z" fill="#e27c48"/><path d="m379.109 448.372-21.628-35.647c-4.252-7.009-2.029-16.045 4.885-20.444 18.597-11.808 34.447-27.566 46.372-46.078l59.589 39.856c-17.628 27.016-40.949 49.978-68.249 67.196-7.147 4.503-16.591 2.337-20.969-4.883z" fill="#df646e"/><path d="m468.327 386.058-17.959-12.011c-16.963 27.691-40.14 51.163-67.596 68.468-1.865 1.175-3.895 1.853-5.944 2.098l2.281 3.76c1.095 1.806 2.507 3.294 4.119 4.442 4.838 3.443 11.49 3.817 16.849.439 27.174-17.137 50.547-40.066 68.25-67.196z" fill="#cd5668"/><path d="m446.834 204.321-104.392 30.582 29.057 50.328 78.681-75.115c2.609-2.492.116-6.809-3.346-5.795z" fill="#6cbff8"/><path d="m388.899 264.175c0-21.563-17.48-39.043-39.042-39.043s-39.043 17.48-39.043 39.043 17.48 39.043 39.043 39.043 39.042-17.481 39.042-39.043z" fill="#407194"/></g><g><path d="m301.215 171.746-21.091-16.952c-12.937-10.398-19.679-26.675-17.884-43.176l2.927-26.9c.795-7.303-5.37-13.468-12.673-12.673l-26.9 2.927c-16.501 1.795-32.778-4.947-43.176-17.884l-16.952-21.091c-4.602-5.726-13.321-5.726-17.923 0l-16.952 21.091c-10.398 12.937-26.675 19.679-43.176 17.884l-26.9-2.927c-7.303-.795-13.468 5.37-12.673 12.673l2.927 26.9c1.795 16.501-4.947 32.778-17.884 43.176l-21.091 16.952c-5.726 4.602-5.726 13.321 0 17.923l21.091 16.952c12.937 10.398 19.679 26.675 17.884 43.176l-2.927 26.9c-.795 7.303 5.37 13.468 12.673 12.673l26.9-2.927c16.501-1.795 32.778 4.947 43.176 17.884l16.952 21.091c4.602 5.726 13.321 5.726 17.923 0l16.952-21.091c10.398-12.937 26.675-19.679 43.176-17.884l26.9 2.927c7.303.795 13.468-5.37 12.673-12.673l-2.927-26.9c-1.795-16.501 4.947-32.778 17.884-43.176l21.091-16.952c5.726-4.603 5.726-13.321 0-17.923z" fill="#ecc52e"/><circle cx="156.505" cy="180.707" fill="#e69642" r="83.536"/><path d="m178.624 100.154c18.201 15.324 29.776 38.266 29.776 63.921 0 46.135-37.4 83.535-83.535 83.535-7.661 0-15.072-1.052-22.119-2.983 14.53 12.233 33.279 19.615 53.759 19.615 46.135 0 83.535-37.4 83.535-83.536 0-38.474-26.02-70.853-61.416-80.552z" fill="#e27c48"/></g></g><g><path d="m512 264.174c0-39.708-10.253-78.875-29.65-113.258-2.451-4.345-5.05-8.601-7.775-12.772l-.014-.023-.018-.023c-18.179-27.805-42.302-51.595-70.462-69.342-5.198-3.279-11.346-4.312-17.308-2.903-5.924 1.397-10.923 5.034-14.075 10.237l-21.629 35.647c-6.401 10.543-3.202 24.014 7.28 30.664 24.178 15.357 43.414 37.869 54.87 63.949l-47.748 13.984c-4.884-1.745-10.139-2.703-15.615-2.703-25.664 0-46.543 20.879-46.543 46.543 0 25.663 20.879 46.542 46.543 46.542 22.796 0 41.803-16.479 45.769-38.146l28.467-27.177c.807 6.202 1.227 12.479 1.227 18.776 0 27.896-7.915 54.5-22.296 77.179-.183.216-.359.442-.52.683-.182.272-.337.554-.479.84-11.093 17.011-25.849 31.754-43.673 43.075-10.486 6.651-13.685 20.121-7.285 30.663l21.63 35.65c3.158 5.204 8.161 8.84 14.086 10.235 5.905 1.393 12.06.401 17.294-2.901 41.843-26.368 75.601-66.783 93.531-115 1.444-3.883-.533-8.2-4.416-9.644-3.88-1.446-8.2.533-9.644 4.415-4.682 12.59-10.559 24.694-17.491 36.152l-47.113-31.511c12.6-21.735 19.981-46.433 21.18-72.332h56.729c-.407 11.85-1.76 23.653-4.069 35.183-.813 4.062 1.82 8.014 5.881 8.826 4.058.813 8.013-1.817 8.827-5.881 2.992-14.926 4.509-30.279 4.509-45.627zm-145.612-134.437c-3.521-2.234-4.619-6.722-2.496-10.217l21.632-35.654c1.052-1.736 2.719-2.949 4.693-3.415 2.013-.474 4.095-.123 5.864.993 24.275 15.299 45.334 35.401 61.797 58.812l-47.146 31.533c-11.895-16.637-26.969-31.017-44.344-42.052zm66.561 86.464-38.032 36.308c-2.148-8.292-6.535-15.689-12.468-21.518zm-83.093 79.516c-17.393 0-31.543-14.149-31.543-31.542s14.15-31.543 31.543-31.543c17.392 0 31.542 14.15 31.542 31.543s-14.149 31.542-31.542 31.542zm107.424-93.564c-2.529-4.379-7.688-6.451-12.558-5.03l-16.977 4.972c-2.584-6.085-5.552-11.998-8.873-17.704l47.212-31.577c1.092 1.809 2.162 3.631 3.201 5.472 16.91 29.974 26.377 63.841 27.577 98.389h-56.73c-.374-8.029-1.337-16.004-2.901-23.823l18.138-17.315c3.653-3.501 4.44-9.005 1.911-13.384zm.571 185.921c-16.432 23.36-37.446 43.503-61.772 58.832-3.66 2.307-8.382 1.159-10.557-2.427l-21.631-35.652c-2.122-3.493-1.025-7.979 2.5-10.216 17.71-11.249 32.677-25.558 44.423-41.997z"/><path d="m305.914 165.9-21.091-16.952c-10.998-8.84-16.653-22.492-15.126-36.519l2.927-26.9c1.315-12.096-8.911-22.26-20.941-20.94l-26.9 2.927c-14.031 1.521-27.679-4.13-36.519-15.126l-16.951-21.091c-3.625-4.51-9.022-7.097-14.807-7.097-5.785 0-11.183 2.587-14.807 7.097l-16.953 21.091c-6.657 8.282-16.125 13.613-26.658 15.011-4.106.544-6.993 4.314-6.449 8.421.545 4.105 4.313 7 8.421 6.448 14.374-1.906 27.292-9.181 36.376-20.483l16.952-21.091c1.6-1.989 4.626-1.997 6.231 0l16.952 21.092c12.063 15.007 30.694 22.725 49.833 20.641l26.9-2.927c2.541-.277 4.683 1.864 4.406 4.405l-2.927 26.9c-2.083 19.142 5.634 37.771 20.641 49.833l21.091 16.952c1.992 1.602 1.992 4.629 0 6.23l-21.091 16.952c-15.007 12.063-22.724 30.691-20.641 49.833l2.927 26.9c.278 2.56-1.892 4.689-4.407 4.405l-26.899-2.927c-19.139-2.084-37.77 5.634-49.833 20.642l-16.952 21.091c-1.044 1.299-2.4 1.493-3.115 1.493-.716 0-2.072-.194-3.116-1.493l-16.952-21.091c-12.062-15.007-30.689-22.73-49.833-20.642l-26.9 2.927c-1.654.187-2.752-.641-3.258-1.146-.506-.507-1.328-1.603-1.147-3.259l2.927-26.9c2.083-19.142-5.634-37.771-20.641-49.833l-21.091-16.953c-1.299-1.043-1.493-2.399-1.493-3.114s.194-2.071 1.493-3.115l21.091-16.952c15.007-12.063 22.724-30.691 20.641-49.833l-2.927-26.9c-.18-1.656.642-2.752 1.147-3.259 2.139-2.135 4.665-.664 6.909-.75 4.111.455 7.819-2.527 8.266-6.646.448-4.118-2.528-7.819-6.646-8.267-1.61.103-11.145-2.932-19.135 5.056-4.091 4.091-6.079 9.736-5.453 15.488l2.927 26.9c1.526 14.026-4.128 27.679-15.126 36.519l-21.091 16.952c-4.51 3.624-7.096 9.021-7.096 14.807s2.586 11.183 7.096 14.807l21.091 16.952c10.998 8.84 16.653 22.492 15.126 36.519l-2.927 26.9c-.625 5.752 1.362 11.397 5.453 15.488 4.092 4.092 9.741 6.078 15.487 5.452l26.9-2.927c14.031-1.522 27.68 4.13 36.519 15.126l16.952 21.091c3.625 4.51 9.022 7.097 14.808 7.097s11.183-2.587 14.807-7.097l16.952-21.09c8.84-10.998 22.489-16.654 36.52-15.127l26.899 2.927c12.047 1.322 22.255-8.861 20.941-20.94l-2.927-26.9c-1.526-14.026 4.128-27.679 15.126-36.519l21.09-16.952c9.47-7.61 9.452-22.018.001-29.614z"/><path d="m156.504 271.742c50.197 0 91.036-40.838 91.036-91.035s-40.838-91.035-91.036-91.035c-50.197 0-91.035 40.838-91.035 91.035s40.839 91.035 91.035 91.035zm0-167.07c41.926 0 76.036 34.109 76.036 76.035s-34.109 76.035-76.036 76.035c-41.926 0-76.035-34.109-76.035-76.035s34.11-76.035 76.035-76.035z"/><path d="m121.124 211.332h5.954c11.523 0 20.898-9.375 20.898-20.898v-32.852c0-4.143-3.358-7.5-7.5-7.5s-7.5 3.357-7.5 7.5v32.852c0 3.252-2.646 5.898-5.898 5.898h-5.954c-3.252 0-5.897-2.646-5.897-5.898v-32.852c0-4.143-3.358-7.5-7.5-7.5s-7.5 3.357-7.5 7.5v32.852c-.001 11.523 9.374 20.898 20.897 20.898z"/><path d="m177.25 202.654c1.521 4.26 5.427 7.012 9.95 7.013 4.522 0 8.429-2.753 9.951-7.013l15.195-42.55c1.393-3.901-.64-8.192-4.541-9.586s-8.193.64-9.585 4.541l-11.02 30.856-11.02-30.856c-1.394-3.901-5.687-5.93-9.585-4.541-3.901 1.394-5.934 5.685-4.541 9.586z"/><path d="m101.579 379.382c0-4.143-3.358-7.5-7.5-7.5s-7.5 3.357-7.5 7.5c0 6.255-1.728 9.017-4.12 12.839-2.854 4.56-6.405 10.234-6.405 20.797s3.551 16.238 6.404 20.799c2.392 3.822 4.12 6.584 4.12 12.841s-1.728 9.02-4.12 12.842c-2.854 4.561-6.404 10.235-6.404 20.799 0 4.143 3.358 7.5 7.5 7.5s7.5-3.357 7.5-7.5c0-6.257 1.728-9.02 4.12-12.842 2.854-4.561 6.404-10.235 6.404-20.799 0-10.563-3.551-16.237-6.404-20.798-2.392-3.822-4.12-6.585-4.12-12.842 0-6.256 1.728-9.018 4.12-12.84 2.853-4.56 6.405-10.235 6.405-20.796z"/><path d="m169.267 379.382c0-4.143-3.358-7.5-7.5-7.5s-7.5 3.357-7.5 7.5c0 6.255-1.728 9.017-4.12 12.839-2.854 4.56-6.405 10.234-6.405 20.797s3.551 16.238 6.404 20.799c2.392 3.822 4.12 6.584 4.12 12.841s-1.728 9.02-4.12 12.842c-2.854 4.561-6.404 10.235-6.404 20.799 0 4.143 3.358 7.5 7.5 7.5s7.5-3.357 7.5-7.5c0-6.257 1.728-9.02 4.12-12.842 2.854-4.561 6.404-10.235 6.404-20.799 0-10.563-3.551-16.237-6.404-20.798-2.392-3.822-4.12-6.585-4.12-12.842 0-6.256 1.728-9.018 4.12-12.84 2.853-4.56 6.405-10.235 6.405-20.796z"/><path d="m236.955 379.382c0-4.143-3.358-7.5-7.5-7.5s-7.5 3.357-7.5 7.5c0 6.255-1.728 9.017-4.12 12.839-2.854 4.56-6.405 10.234-6.405 20.797s3.551 16.238 6.404 20.799c2.392 3.822 4.12 6.584 4.12 12.841s-1.728 9.02-4.12 12.842c-2.854 4.561-6.404 10.235-6.404 20.799 0 4.143 3.358 7.5 7.5 7.5s7.5-3.357 7.5-7.5c0-6.257 1.728-9.02 4.12-12.842 2.854-4.561 6.404-10.235 6.404-20.799 0-10.563-3.551-16.237-6.404-20.798-2.392-3.822-4.12-6.585-4.12-12.842 0-6.256 1.728-9.018 4.12-12.84 2.853-4.56 6.405-10.235 6.405-20.796z"/></g></svg>