<svg id="Capa_1" enable-background="new 0 0 512 512" height="512" viewBox="0 0 512 512" width="512" xmlns="http://www.w3.org/2000/svg"><g><g><g><path d="m337.781 348.334-61.98 67.893-8.285-60.002c-2.161-15.654-15.53-27.304-31.328-27.304h-173.297c-15.795 0-29.169 11.654-31.33 27.301l-18.939 137.135c-.813 5.891 3.763 11.142 9.71 11.142h213.2c5.767 0 10.206-5.095 9.417-10.808l-5.181-37.506c6.749 21.367 34.155 27.334 49.175 10.697l81.274-89.268z" fill="#5d91b9"/><path d="m221.275 246.03c12.646-17.973 20.216-40.794 20.216-65.637 0-57.949-41.167-70.704-91.95-70.704s-91.95 12.755-91.95 70.704c0 24.843 7.571 47.664 20.216 65.637z" fill="#5d91b9"/><path d="m149.541 109.689c-4.236 0-8.404.091-12.488.288 44.875 2.158 79.462 17.301 79.462 70.416 0 24.843-7.571 47.663-20.216 65.637h24.976c12.646-17.974 20.216-40.794 20.216-65.637 0-57.949-41.167-70.704-91.95-70.704z" fill="#407194"/><path d="m206.372 201.292v73.689c0 12.636-10.243 22.879-22.879 22.879h-67.906c-12.636 0-22.879-10.243-22.879-22.879v-85.966c0-11.864 9.617-21.481 21.481-21.481h7.235c3.878 0 7.684.949 11.141 2.706 15.913 8.089 37.737 13.298 57.1 13.898 9.298.288 16.707 7.852 16.707 17.154z" fill="#ffcdbe"/><path d="m181.918 376.229 28.757-17.431c2.778-1.684 3.446-5.424 1.422-7.965l-17.447-21.913h-90.218l-17.447 21.913c-2.023 2.541-1.355 6.281 1.422 7.965l28.757 17.431-11.331 12.395c-3.395 3.714-4.078 9.164-1.703 13.6 11.718 21.884 45.389 84.768 45.411 84.798.022-.03 33.692-62.914 45.41-84.798 2.375-4.436 1.692-9.886-1.703-13.6z" fill="#ddebfd"/><g fill="#ebae9d"><path d="m169.695 297.861h-40.308v36.058l20.154 49.139 20.154-49.139z"/><path d="m223.13 259.729h-16.759v-45.035h16.759c10.14 0 18.361 8.22 18.361 18.361v8.313c0 10.141-8.22 18.361-18.361 18.361z"/><path d="m75.952 259.729h16.758v-45.035h-16.758c-10.14 0-18.361 8.22-18.361 18.361v8.313c0 10.141 8.22 18.361 18.361 18.361z"/></g><path d="m394.196 318.449c8.956 8.085 9.662 21.9 1.576 30.856l-25.556 28.309-32.436-29.28 25.56-28.309c8.086-8.956 21.9-9.661 30.856-1.576z" fill="#ffcdbe"/><path d="m355.675 364.487-81.076 89.051c-8.918 9.877-22.202 11.787-32.936 7.236 8.961 17.542 33.401 21.48 47.28 6.107l81.274-89.268z" fill="#407194"/><path d="m394.196 318.449c-2.528-2.283-5.449-3.839-8.514-4.733 2.736 7.384 1.388 15.996-4.254 22.245l-25.753 28.526 14.542 13.127 25.556-28.309c8.085-8.955 7.379-22.77-1.577-30.856z" fill="#ebae9d"/></g><path d="m414.085 91.705-12.681-10.193c-7.779-6.252-11.833-16.039-10.753-25.961l1.76-16.174c.478-4.391-3.229-8.098-7.62-7.62l-16.174 1.76c-9.921 1.079-19.708-2.974-25.961-10.753l-10.193-12.681c-2.767-3.443-8.009-3.443-10.777 0l-10.193 12.681c-6.252 7.779-16.039 11.833-25.961 10.753l-16.174-1.76c-4.391-.478-8.098 3.229-7.62 7.62l1.76 16.174c1.079 9.921-2.974 19.708-10.753 25.961l-12.681 10.193c-3.443 2.767-3.443 8.009 0 10.777l12.681 10.193c7.779 6.252 11.833 16.039 10.753 25.961l-1.76 16.174c-.478 4.391 3.229 8.098 7.62 7.62l16.174-1.76c9.921-1.079 19.709 2.974 25.961 10.753l10.193 12.681c2.767 3.443 8.009 3.443 10.777 0l10.193-12.681c6.252-7.779 16.039-11.833 25.961-10.753l16.174 1.76c4.391.478 8.098-3.229 7.62-7.62l-1.76-16.174c-1.079-9.921 2.974-19.709 10.753-25.961l12.681-10.193c3.443-2.768 3.443-8.01 0-10.777z" fill="#ecc52e"/><ellipse cx="327.074" cy="97.093" fill="#e69642" rx="35.22" ry="35.22" transform="matrix(1 -.019 .019 1 -1.77 6.175)"/><path d="m494.213 173.804c-3.249-3.249-7.742-5.259-12.697-5.259h-25.484c3.031-7.388 4.734-15.464 4.81-23.925.318-35.556-28.53-64.906-64.086-65.173-35.029-.263-63.662 27.355-65.031 61.983-.047 1.198-1.032 2.143-2.23 2.143-5.112.001-17.437.002-17.437.002-16.811 0-30.439 13.628-30.439 30.439s13.628 30.438 30.439 30.438h169.168c9.765 0 17.968-7.68 18.24-17.441.143-5.156-1.892-9.846-5.253-13.207z" fill="#ddebfd"/><g><g fill="#bed9fd"><path d="m439.252 144.62c-.076 8.461-1.779 16.537-4.81 23.925h21.59c3.031-7.388 4.734-15.464 4.81-23.925.318-35.556-28.53-64.905-64.086-65.173-3.852-.029-7.621.298-11.291.916 30.661 5.211 54.074 32.207 53.787 64.257z"/><path d="m494.213 173.804c-3.249-3.249-7.742-5.259-12.697-5.259h-21.59c4.955 0 9.448 2.01 12.697 5.259 3.36 3.36 5.396 8.051 5.252 13.208-.271 9.761-8.475 17.441-18.24 17.441h21.59c9.765 0 17.968-7.68 18.24-17.441.144-5.157-1.891-9.847-5.252-13.208z"/></g></g></g><g><path d="m132.066 217.343v-2.582c0-4.143-3.358-7.5-7.5-7.5s-7.5 3.357-7.5 7.5v2.582c0 4.143 3.358 7.5 7.5 7.5s7.5-3.358 7.5-7.5z"/><path d="m174.518 207.261c-4.142 0-7.5 3.357-7.5 7.5v2.582c0 4.143 3.358 7.5 7.5 7.5s7.5-3.357 7.5-7.5v-2.582c0-4.143-3.358-7.5-7.5-7.5z"/><path d="m163.51 248.313c-9.529 5.254-18.407 5.254-27.937 0-3.628-2.001-8.189-.682-10.189 2.946-2 3.627-.681 8.188 2.946 10.188 7.038 3.881 14.125 5.821 21.211 5.821s14.174-1.94 21.211-5.821c3.627-2 4.946-6.562 2.946-10.188-1.999-3.629-6.561-4.949-10.188-2.946z"/><path d="m399.223 312.883c-12.036-10.867-30.578-9.926-41.449 2.116l-76.732 84.365-6.101-44.17c-2.658-19.255-19.317-33.774-38.75-33.774h-58.995v-16.061h6.297c16.751 0 30.379-13.628 30.379-30.379v-7.752h9.259c14.26 0 25.861-11.601 25.861-25.86v-8.313c0-5.979-2.045-11.486-5.465-15.871 3.62-11.801 5.465-24.154 5.465-36.795 0-70.093-56.758-78.199-99.45-78.199s-99.45 8.106-99.45 78.199c0 12.641 1.844 24.994 5.465 36.796-3.419 4.385-5.464 9.892-5.464 15.87v8.313c0 14.26 11.601 25.86 25.861 25.86h9.256v7.752c0 16.751 13.628 30.379 30.379 30.379h6.3v16.061h-58.998c-19.439 0-36.102 14.52-38.759 33.773l-4.94 35.761c-.566 4.104 2.3 7.889 6.403 8.456.349.048.694.071 1.036.071 3.687 0 6.901-2.72 7.42-6.475l4.94-35.762c1.639-11.872 11.914-20.825 23.9-20.825h25.984l-7.756 9.741c-2.307 2.896-3.256 6.648-2.605 10.294s2.84 6.837 6.007 8.757l20.948 12.697-5.169 5.654c-5.533 6.053-6.649 14.975-2.779 22.2 31.996 59.758 41.554 77.608 44.521 83.096v8.142h-80.793l13.762-99.641c.566-4.104-2.3-7.889-6.404-8.456-4.093-.558-7.888 2.301-8.456 6.403l-14.045 101.694h-23.775c-1.399 0-2.471-1.231-2.28-2.613l9.22-66.761c.566-4.104-2.3-7.89-6.404-8.456-4.111-.568-7.889 2.301-8.456 6.403l-9.22 66.766c-1.43 10.397 6.654 19.661 17.14 19.661h213.2c10.298 0 18.264-9.105 16.85-19.336l-1.765-12.775c2.809 1.438 5.843 2.528 9.049 3.226 12.942 2.817 25.967-1.375 34.822-11.185l106.853-117.599c10.868-12.038 9.924-30.579-2.117-41.448zm-194.488 40.745-26.705 16.187c-1.919 1.164-3.217 3.126-3.536 5.348s.374 4.47 1.888 6.127l11.331 12.396c1.246 1.363 1.499 3.372.627 4.999-6.135 11.458-20.387 38.075-31.299 58.453v-72.6l19.594-47.772c.046-.113.081-.23.122-.345h14.277zm29.257-112.26c0 5.988-4.872 10.86-10.861 10.86h-9.259v-30.034h9.259c5.989 0 10.861 4.872 10.861 10.861zm-145.485-111.704c13.575-8.51 32.969-12.474 61.034-12.474s47.459 3.964 61.034 12.474c15.756 9.877 23.416 26.47 23.416 50.726 0 9.536-1.188 18.875-3.521 27.872-2.328-.69-4.79-1.067-7.339-1.067h-9.259v-5.902c0-13.406-10.531-24.234-23.975-24.65-18.512-.572-39.178-5.587-53.934-13.088-9.503-4.829-16.965-3.18-21.774-3.52-15.98 0-28.981 13.001-28.981 28.981v18.179h-9.256c-2.549 0-5.011.377-7.34 1.067-2.334-8.998-3.521-18.336-3.521-27.872 0-24.256 7.66-40.849 23.416-50.726zm-12.555 122.565c-5.989 0-10.861-4.872-10.861-10.86v-8.313c0-5.989 4.872-10.861 10.861-10.861h9.256v30.034zm24.257 22.751v-15.204c0-.016.002-.032.002-.048s-.002-.032-.002-.048v-44.938c0-.016.002-.032.002-.048s-.002-.032-.002-.048v-25.63c0-7.709 6.272-13.981 13.981-13.981 5.386.281 9.476-.904 14.978 1.892 16.597 8.437 39.689 14.072 60.266 14.708 5.293.164 9.439 4.406 9.439 9.658v73.688c0 8.479-6.899 15.379-15.379 15.379h-67.906c-8.48-.001-15.379-6.9-15.379-15.38zm61.987 30.379v23.464c0 .033-.005.064-.005.097s.004.064.005.097v3.424l-12.655 30.854-12.654-30.854v-3.443c0-.026.004-.051.004-.077s-.004-.051-.004-.077v-23.483h25.309zm-51.453 93.324c-.871-1.626-.619-3.635.627-4.998l11.331-12.396c1.515-1.657 2.208-3.905 1.888-6.127s-1.617-4.184-3.536-5.348l-26.705-16.187 13.701-17.208h14.277c.041.115.076.231.122.345l19.593 47.772v72.597c-9.847-18.387-22.715-42.42-31.298-58.45zm172.631 63.171c-5.228 5.791-12.899 8.261-20.521 6.603-7.453-1.621-13.301-6.851-15.756-14.033l-8.361-60.524c-.566-4.104-4.351-6.972-8.456-6.403-4.103.567-6.97 4.353-6.403 8.456l11.831 85.649c.003.019.007.036.01.054l1.804 13.063c.167 1.205-.766 2.281-1.991 2.281h-78.49v-8.131c2.925-5.415 12.439-23.184 44.522-83.104 3.871-7.227 2.754-16.148-2.779-22.201l-5.169-5.655 20.947-12.696c3.167-1.92 5.356-5.111 6.008-8.757.651-3.646-.299-7.397-2.605-10.294l-7.756-9.741h25.983c11.981 0 22.252 8.953 23.891 20.826l8.29 60.011c.398 2.881 2.426 5.272 5.204 6.136 2.779.863 5.804.043 7.765-2.105l56.952-62.391 21.311 19.236zm106.832-117.574-20.528 22.74-21.303-19.229 20.533-22.74c5.333-5.905 14.401-6.327 20.264-1.034 5.885 5.312 6.348 14.376 1.034 20.263z"/><path d="m481.517 161.045h-15.189c1.29-5.325 1.965-10.796 2.014-16.358.077-8.612-1.37-17.065-4.299-25.124-1.415-3.893-5.718-5.9-9.611-4.486-3.893 1.415-5.901 5.718-4.486 9.611 2.315 6.368 3.458 13.052 3.397 19.865-.065 7.319-1.495 14.434-4.249 21.146-.949 2.313-.683 4.947.709 7.023 1.393 2.077 3.729 3.323 6.229 3.323h25.484c5.773 0 10.619 4.736 10.452 10.759-.156 5.597-4.975 10.149-10.743 10.149h-169.166c-12.648 0-22.939-10.29-22.939-22.938s10.291-22.939 22.94-22.939h17.441c5.243-.004 9.512-4.111 9.719-9.349.109-2.75.414-5.466.905-8.132.017-.07.026-.143.041-.214 2.185-11.625 7.933-22.279 16.638-30.606 20.404-19.519 52.433-21.444 75.066-3.271 3.23 2.595 7.951 2.078 10.544-1.151 2.593-3.23 2.078-7.951-1.152-10.544-11.224-9.014-24.459-14.338-38.574-15.579-3.549-4.453-5.207-10.105-4.58-15.869l1.76-16.166c.477-4.364-1.03-8.648-4.135-11.754-3.105-3.105-7.39-4.614-11.751-4.138l-16.181 1.76c-7.407.806-14.622-2.187-19.302-8.002l-10.196-12.684c-2.751-3.417-6.845-5.377-11.232-5.377s-8.48 1.96-11.236 5.382l-10.191 12.681c-4.673 5.816-11.894 8.804-19.301 8.001l-16.167-1.76c-4.363-.471-8.648 1.031-11.754 4.138-3.105 3.105-4.613 7.39-4.136 11.75l1.76 16.17c.807 7.413-2.184 14.628-8.005 19.305l-12.673 10.193c-3.419 2.742-5.382 6.831-5.387 11.217-.004 4.392 1.955 8.489 5.382 11.25l12.676 10.187c5.819 4.682 8.812 11.902 8.005 19.314l-1.759 16.166c-.477 4.365 1.031 8.65 4.137 11.756 2.728 2.728 6.365 4.223 10.163 4.223 1.277 0 1.828-.135 5.822-.547-.182 1.506-.287 3.035-.287 4.589 0 20.919 17.02 37.938 37.939 37.938h169.167c13.812 0 25.357-11.095 25.737-24.733.392-14.105-10.882-26.175-25.446-26.175zm-154.741-36.243c-15.148-.16-27.424-12.526-27.424-27.712 0-15.285 12.435-27.72 27.72-27.72 11.328 0 21.457 7.009 25.657 17.215-2.179 1.657-4.287 3.43-6.293 5.349-9.531 9.117-16.241 20.446-19.66 32.868zm-57.5 30.093 1.681-15.444c1.362-12.522-3.69-24.719-13.518-32.627l-12.106-9.729 12.106-9.738c20.851-16.751 11.461-40.519 11.838-48.062l15.443 1.681c26.576 2.873 36.818-20.623 42.352-25.63l9.737 12.116c7.905 9.824 20.096 14.87 32.614 13.514l15.454-1.681-1.681 15.444c-.677 6.231.229 12.384 2.539 17.982-7 1.021-13.754 3.059-20.091 6.034-6.97-14.555-21.929-24.385-38.573-24.385-23.556 0-42.72 19.164-42.72 42.72 0 17.411 10.475 32.412 25.449 39.06-12.52.739-23.419 7.577-29.775 17.578z"/><path d="m367.629 245.206c2.821 0 5.525-1.601 6.799-4.325l1.551-3.317c1.754-3.752.135-8.216-3.617-9.971s-8.217-.135-9.971 3.617l-1.551 3.317c-1.754 3.752-.135 8.216 3.617 9.971 1.028.481 2.109.708 3.172.708z"/><path d="m350.706 281.402c2.822 0 5.525-1.601 6.799-4.326l1.551-3.317c1.754-3.752.134-8.216-3.618-9.97-3.755-1.757-8.217-.136-9.971 3.618l-1.551 3.317c-1.754 3.752-.134 8.216 3.618 9.97 1.028.481 2.109.708 3.172.708z"/><path d="m408.939 227.593c-3.751-1.755-8.216-.135-9.971 3.617l-1.551 3.317c-1.754 3.752-.135 8.216 3.617 9.971 1.027.48 2.108.708 3.172.708 2.821 0 5.525-1.601 6.799-4.325l1.551-3.317c1.754-3.752.135-8.216-3.617-9.971z"/><path d="m387.282 281.402c2.821 0 5.525-1.601 6.799-4.325l1.551-3.317c1.754-3.752.135-8.216-3.617-9.971-3.752-1.754-8.217-.135-9.971 3.617l-1.551 3.317c-1.754 3.752-.135 8.216 3.617 9.971 1.027.481 2.108.708 3.172.708z"/><path d="m445.515 227.593c-3.752-1.755-8.216-.135-9.971 3.617l-1.551 3.317c-1.754 3.752-.135 8.216 3.617 9.971 1.027.48 2.108.708 3.172.708 2.821 0 5.525-1.601 6.799-4.325l1.551-3.317c1.754-3.752.135-8.216-3.617-9.971z"/><path d="m428.591 263.789c-3.751-1.754-8.216-.135-9.971 3.617l-1.551 3.317c-1.754 3.752-.135 8.216 3.617 9.971 1.027.48 2.108.708 3.172.708 2.821 0 5.525-1.601 6.799-4.325l1.551-3.317c1.754-3.752.135-8.216-3.617-9.971z"/></g></g></svg>