<svg id="Capa_1" enable-background="new 0 0 512 512" height="512" viewBox="0 0 512 512" width="512" xmlns="http://www.w3.org/2000/svg"><g><g><path d="m152.122 66.671h-4.832c-4.084-20.068-21.833-35.171-43.106-35.171s-39.023 15.103-43.107 35.171c-.577 2.851-.882 5.798-.882 8.818 0 9.938 3.294 19.104 8.851 26.467 1.103 1.462 2.855 2.29 4.686 2.29h78.807c5.187 0 9.887-2.104 13.287-5.504 3.457-3.457 5.575-8.255 5.502-13.553-.144-10.34-8.865-18.518-19.206-18.518z" fill="#ddebfd"/><path d="m434.566 131.807c-41.016 6.294-80.05-21.441-87.599-62.244-3.647-19.709.527-38.999 10.286-54.735 2.277-3.672-1.065-8.236-5.252-7.17-13.168 3.352-25.767 9.803-36.672 19.442-36.308 32.094-39.826 88.092-7.859 124.512 31.94 36.39 87.308 40.321 124.079 8.657 8.158-7.025 14.718-15.217 19.647-24.114 2.084-3.762-1.511-8.12-5.624-6.86-3.55 1.086-7.224 1.931-11.006 2.512z" fill="#ebb34c"/><path d="m445.571 129.294c-3.55 1.087-7.223 1.932-11.005 2.513-41.016 6.294-80.05-21.441-87.599-62.245-3.647-19.709.527-38.999 10.286-54.735 2.277-3.672-1.065-8.235-5.252-7.17-11.741 2.989-23.027 8.449-33.066 16.429 3.031-1.138 6.107-2.109 9.216-2.9 4.188-1.066 7.53 3.498 5.252 7.17-9.76 15.735-13.933 35.025-10.286 54.735 7.549 40.803 46.584 68.539 87.599 62.244 3.782-.581 7.455-1.425 11.005-2.513 4.112-1.259 7.708 3.098 5.624 6.86-4.929 8.897-11.488 17.089-19.647 24.114-.908.782-1.836 1.525-2.766 2.263 9.476-3.554 18.5-8.803 26.616-15.792 8.158-7.025 14.718-15.217 19.647-24.114 2.084-3.761-1.511-8.118-5.624-6.859z" fill="#e69642"/><g><path d="m403.555 237.587c-4.625-4.624-11.019-7.486-18.072-7.486h-36.273c4.315-10.515 6.739-22.01 6.846-34.054.453-50.609-40.608-92.384-91.217-92.763-49.858-.374-90.613 38.935-92.562 88.224-.067 1.705-1.469 3.05-3.175 3.051-7.276.001-24.819.003-24.819.003-23.928 0-43.325 19.397-43.325 43.325s19.397 43.325 43.325 43.325h240.787c13.899 0 25.575-10.931 25.961-24.825.204-7.34-2.693-14.017-7.476-18.8z" fill="#ddebfd"/><g fill="#bed9fd"><path d="m332.979 196.048c-.098 10.939-2.106 21.426-5.707 31.137-.525 1.415.518 2.917 2.027 2.917h19.911c4.315-10.515 6.739-22.01 6.846-34.054.453-50.609-40.608-92.384-91.217-92.763-4.162-.031-8.258.22-12.275.725 45.52 5.741 80.835 45.084 80.415 92.038z"/><path d="m403.555 237.587c-4.625-4.624-11.019-7.486-18.072-7.486h-23.077c7.052 0 13.447 2.861 18.072 7.486 4.783 4.783 7.68 11.46 7.476 18.799-.386 13.894-12.062 24.825-25.962 24.825h23.077c13.899 0 25.575-10.931 25.961-24.825.205-7.339-2.692-14.016-7.475-18.799z"/></g></g><circle cx="256" cy="421.241" fill="#75cff9" r="27.678"/></g><g><path d="m129.649 331.267-8.695 2.825v-9.143c0-4.143-3.358-7.5-7.5-7.5s-7.5 3.357-7.5 7.5v9.143l-8.695-2.825c-3.939-1.28-8.171.877-9.45 4.815-1.28 3.939.876 8.171 4.815 9.45l8.695 2.825-5.374 7.397c-2.435 3.351-1.691 8.041 1.66 10.476 1.331.968 2.874 1.434 4.402 1.434 2.319 0 4.606-1.073 6.074-3.093l5.374-7.396 5.374 7.396c1.468 2.021 3.755 3.093 6.074 3.093 1.528 0 3.071-.466 4.402-1.434 3.351-2.435 4.094-7.125 1.66-10.476l-5.374-7.397 8.694-2.825c3.939-1.279 6.096-5.511 4.815-9.45-1.281-3.94-5.512-6.095-9.451-4.815z"/><path d="m408.732 331.267-8.695 2.825v-9.143c0-4.143-3.357-7.5-7.5-7.5s-7.5 3.357-7.5 7.5v9.143l-8.695-2.825c-3.938-1.277-8.171.877-9.45 4.815-1.28 3.939.876 8.171 4.815 9.45l8.695 2.825-5.374 7.397c-2.435 3.351-1.692 8.041 1.659 10.476 3.343 2.431 8.036 1.7 10.476-1.659l5.374-7.397 5.374 7.397c2.44 3.362 7.135 4.088 10.476 1.659 3.352-2.435 4.094-7.125 1.659-10.476l-5.374-7.397 8.695-2.825c3.939-1.279 6.096-5.511 4.815-9.45-1.279-3.94-5.516-6.092-9.45-4.815z"/><path d="m456.565 126.143c-3.179-3.927-8.359-5.506-13.187-4.025-3.248.997-6.592 1.763-9.937 2.276-36.84 5.64-72.313-19.565-79.089-56.203-3.17-17.112.126-34.659 9.276-49.407 2.664-4.289 2.458-9.689-.524-13.758-2.979-4.065-8.064-5.886-12.946-4.638-14.851 3.778-28.238 10.874-39.788 21.089-21.608 19.098-33.226 46.665-32.177 75.297-4.37-.62-8.806-.958-13.29-.992-21.068-.186-41.32 6.213-58.444 18.426-3.372 2.405-4.156 7.089-1.751 10.461 2.405 3.373 7.088 4.156 10.461 1.752 14.534-10.365 31.726-15.778 49.621-15.639 21.671.163 43.083 8.649 59.451 25.289 28.742 29.219 32.047 73.691 9.839 106.445-2.325 3.428-1.431 8.092 1.998 10.416 3.449 2.341 8.106 1.408 10.416-1.998 2.873-4.237 5.422-8.705 7.609-13.334h31.389c9.969 0 18.34 8.18 18.051 18.576-.27 9.669-8.553 17.534-18.465 17.534h-23.078c-4.143 0-7.5 3.357-7.5 7.5s3.357 7.5 7.5 7.5h23.077c17.956 0 32.966-14.407 33.459-32.116.511-18.352-14.165-33.994-33.045-33.994h-25.742c3.127-10.932 4.355-22.551 3.6-34.001 3.626.41 7.248.617 10.851.617 22.667 0 44.579-8.047 62.252-23.266 8.664-7.464 15.834-16.27 21.302-26.159 2.439-4.387 1.972-9.743-1.189-13.648zm-29.901 28.441c-18.283 15.744-41.939 22.386-65.568 18.572-4.046-17.795-12.981-34.204-26.162-47.603-11.769-11.964-25.991-20.584-41.519-25.378-2.161-25.563 7.688-50.487 26.89-67.459 8.072-7.14 17.202-12.472 27.216-15.903-8.539 16.605-11.353 35.569-7.919 54.11 4.008 21.664 16.182 40.678 34.279 53.537 18.097 12.858 40.053 18.103 61.834 14.762 1.825-.28 3.65-.622 5.464-1.023-4.043 6.06-8.907 11.555-14.515 16.385z"/><path d="m178.833 85.083c-.194-13.988-11.678-25.423-25.79-25.899-6.917-20.712-26.565-35.187-48.854-35.187-24.381 0-45.601 17.316-50.458 41.184-2.813 13.911.032 28.966 9.334 41.292 2.491 3.3 6.48 5.27 10.671 5.27h78.807c14.601 0 26.493-11.905 26.29-26.66zm-110.401-16.918c3.439-16.9 18.478-29.167 35.757-29.167s32.318 12.267 35.757 29.167c.711 3.493 3.784 6.004 7.35 6.004h4.833c6.37 0 11.621 4.989 11.705 11.121.089 6.343-5.021 11.453-11.289 11.453h-78.017c-6.1-8.483-8.064-18.85-6.096-28.578z"/><path d="m334.499 281.21c0-4.143-3.357-7.5-7.5-7.5h-182.708c-19.754 0-35.826-16.071-35.826-35.825s16.071-35.827 35.827-35.827h24.818c5.755 0 10.442-4.505 10.669-10.256.594-15.022 5.198-29.625 13.314-42.234 2.242-3.482 1.236-8.124-2.247-10.366-3.482-2.243-8.124-1.236-10.366 2.247-8.815 13.692-14.115 29.383-15.439 45.609h-20.751c-28.025 0-50.826 22.801-50.826 50.827s22.8 50.825 50.826 50.825h182.709c4.143 0 7.5-3.357 7.5-7.5z"/><path d="m336.84 404.901c.556.125 1.11.186 1.656.186 3.429 0 6.523-2.367 7.31-5.853.911-4.041-1.626-8.055-5.667-8.966l-21.925-4.943 6.682-21.459c1.231-3.955-.977-8.159-4.932-9.391-3.956-1.231-8.159.977-9.391 4.932l-8.226 26.419-20.341 11.744c-4.828-5.298-11.251-9.113-18.499-10.694v-23.474l18.766-20.334c2.809-3.045 2.619-7.789-.425-10.599-3.046-2.811-7.79-2.618-10.599.425l-15.243 16.518-15.243-16.518c-2.809-3.043-7.555-3.235-10.598-.425-3.044 2.81-3.234 7.554-.425 10.599l18.766 20.335v23.473c-7.249 1.581-13.672 5.396-18.5 10.694l-20.341-11.744-8.227-26.418c-1.231-3.955-5.435-6.157-9.391-4.932-3.955 1.231-6.163 5.437-4.931 9.391l6.682 21.459-21.925 4.943c-4.041.911-6.578 4.925-5.667 8.966.786 3.485 3.88 5.853 7.31 5.853.546 0 1.101-.061 1.656-.186l26.993-6.085 20.327 11.736c-2.22 6.943-2.222 14.425 0 21.377l-20.327 11.736-26.993-6.085c-4.044-.912-8.055 1.626-8.966 5.667s1.626 8.055 5.667 8.966l21.925 4.942-6.682 21.459c-1.232 3.954.976 8.159 4.931 9.391.743.23 1.494.341 2.232.341 3.196 0 6.158-2.06 7.158-5.272l8.227-26.418 20.341-11.744c4.828 5.298 11.251 9.113 18.5 10.694v23.474l-18.766 20.334c-2.809 3.044-2.619 7.789.425 10.599 3.043 2.81 7.788 2.618 10.598-.425l15.243-16.517 15.243 16.517c1.479 1.602 3.493 2.413 5.514 2.413 1.818 0 3.643-.658 5.085-1.988 3.044-2.81 3.233-7.555.425-10.599l-18.766-20.333v-23.475c7.248-1.581 13.671-5.396 18.499-10.694l20.341 11.744 8.226 26.419c1.001 3.213 3.963 5.272 7.159 5.272.738 0 1.489-.11 2.231-.341 3.955-1.231 6.163-5.436 4.932-9.391l-6.682-21.459 21.925-4.942c4.041-.911 6.578-4.925 5.667-8.966-.911-4.04-4.917-6.573-8.966-5.667l-26.992 6.085-20.327-11.736c2.22-6.944 2.222-14.425 0-21.377l20.327-11.736zm-80.833 36.517c-11.126 0-20.178-9.052-20.178-20.178s9.052-20.178 20.178-20.178 20.178 9.052 20.178 20.178-9.051 20.178-20.178 20.178z"/></g></g></svg>