<svg id="Capa_1" enable-background="new 0 0 512 512" height="512" viewBox="0 0 512 512" width="512" xmlns="http://www.w3.org/2000/svg"><g><g><g><path d="m460.072 61.589h-8.072c-6.281-30.864-33.577-54.089-66.293-54.089s-60.012 23.225-66.293 54.089c-.887 4.384-1.357 8.916-1.357 13.561 0 16.91 6.202 32.368 16.458 44.224h125.557c7.977 0 15.205-3.236 20.433-8.464s8.464-12.448 8.464-20.433c0-15.954-12.944-28.888-28.897-28.888z" fill="#ddebfd"/><g><path d="m459.343 201.155c-6.668-6.668-15.889-10.794-26.058-10.794h-52.303c6.221-15.162 9.716-31.737 9.872-49.102.653-72.973-58.552-133.208-131.525-133.755-71.89-.539-130.655 56.14-133.464 127.21-.097 2.458-2.118 4.398-4.577 4.399-10.491.002-35.786.004-35.786.004-34.501 0-62.47 27.969-62.47 62.47s27.969 62.47 62.47 62.47h347.187c20.041 0 36.877-15.762 37.434-35.795.294-10.584-3.884-20.211-10.78-27.107z" fill="#ddebfd"/><g fill="#bed9fd"><path d="m459.343 201.155c-6.668-6.668-15.889-10.794-26.058-10.794h-33.275c10.169 0 19.389 4.126 26.057 10.794 6.896 6.896 11.074 16.523 10.779 27.106-.557 20.033-17.393 35.795-37.434 35.795h33.275c20.041 0 36.877-15.762 37.434-35.795.296-10.583-3.882-20.21-10.778-27.106z"/><path d="m357.579 141.259c-.141 15.773-3.037 30.894-8.229 44.896-.757 2.041.747 4.206 2.923 4.206h28.71c6.221-15.162 9.716-31.737 9.872-49.102.652-72.973-58.553-133.208-131.526-133.755-6.001-.045-11.907.317-17.7 1.045 65.635 8.279 116.556 65.008 115.95 132.71z"/></g></g><path d="m373.073 477.242c6.032-.41 11.688-3.924 14.537-9.743 4.247-8.673.659-19.146-8.014-23.393s-19.146-.659-23.393 8.015c-.076.155-.139.313-.21.469l-205.95-100.844c.08-.152.166-.299.242-.454 4.247-8.673.659-19.146-8.014-23.393s-19.146-.659-23.393 8.015c-2.849 5.819-2.157 12.442 1.218 17.458-6.032.41-11.687 3.924-14.537 9.744-4.246 8.672-.658 19.146 8.015 23.392s19.146.659 23.393-8.014c.076-.156.14-.313.211-.47l205.95 100.844c-.08.152-.166.299-.242.455-4.246 8.672-.658 19.146 8.015 23.392 8.673 4.247 19.146.659 23.393-8.014 2.846-5.82 2.154-12.443-1.221-17.459z" fill="#b5adb7"/><g fill="#d4cfd5"><path d="m120.095 477.242c-6.032-.41-11.687-3.924-14.537-9.743-4.247-8.673-.659-19.146 8.014-23.393s19.146-.659 23.393 8.015c.076.155.139.313.21.469l205.949-100.844c-.08-.152-.166-.299-.242-.454-4.247-8.673-.659-19.146 8.014-23.393s19.146-.659 23.393 8.015c2.849 5.819 2.157 12.442-1.218 17.458 6.032.41 11.687 3.924 14.537 9.744 4.246 8.672.658 19.146-8.015 23.392-8.673 4.247-19.146.659-23.393-8.014-.076-.156-.14-.313-.211-.47l-205.946 100.844c.08.152.166.299.242.455 4.246 8.672.658 19.146-8.015 23.392-8.673 4.247-19.146.659-23.393-8.014-2.849-5.82-2.157-12.443 1.218-17.459z"/><path d="m246.584 141.883c-54.649 0-98.95 34.517-98.95 89.166 0 7.718.884 15.229 2.557 22.438 4.651 20.051 21.384 34.701 41.345 37.495 2.647.37 4.622 2.621 4.622 5.294v33.457c0 13.992 11.342 25.334 25.334 25.334h50.184c13.992 0 25.334-11.342 25.334-25.334v-33.457c0-2.673 1.975-4.923 4.622-5.294 19.961-2.794 36.694-17.444 41.345-37.495 1.672-7.209 2.557-14.72 2.557-22.438 0-54.649-44.301-89.166-98.95-89.166z"/></g></g><g fill="#766d78"><path d="m226.47 237.337c0 11.412-9.251 20.663-20.663 20.663-11.404 0-20.655-9.251-20.655-20.663 0-4.789 1.622-9.197 4.36-12.691l35.047 4.017c1.224 2.637 1.911 5.578 1.911 8.674z"/><path d="m266.698 237.337c0 11.412 9.251 20.663 20.663 20.663 11.404 0 20.655-9.251 20.655-20.663 0-4.789-1.622-9.197-4.36-12.691l-35.047 4.017c-1.224 2.637-1.911 5.578-1.911 8.674z"/></g></g><g><path d="m460.068 126.869c20.144 0 36.399-16.298 36.399-36.389 0-20.065-16.329-36.39-36.399-36.39h-2.204c-9.24-31.683-38.653-54.09-72.156-54.09-19.866 0-38.745 7.816-52.763 21.641-21.86-13.896-47.143-21.439-73.56-21.637-41.05-.323-80.051 17.321-106.956 48.368-2.713 3.131-2.374 7.867.756 10.58s7.866 2.374 10.58-.756c23.819-27.486 58.238-43.196 94.561-43.196.315 0 .631.001.946.004 33.934.255 63.967 12.963 88.058 37.455 23.479 23.867 36.183 55.217 36.02 88.221-.125 25.313-7.747 49.228-21.454 69.442-2.324 3.429-1.429 8.093 1.999 10.417 1.29.874 2.754 1.293 4.202 1.293 2.403 0 4.765-1.153 6.215-3.292 4.438-6.548 8.316-13.488 11.583-20.679h47.387c7.84 0 15.21 3.054 20.754 8.598 5.765 5.764 8.813 13.431 8.586 21.593-.436 15.717-13.866 28.503-29.936 28.503h-17.8c-4.143 0-7.5 3.357-7.5 7.5s3.357 7.5 7.5 7.5h17.8c24.114 0 44.27-19.328 44.93-43.085.344-12.324-4.264-23.908-12.972-32.618-8.378-8.377-19.514-12.99-31.361-12.99h-41.585c.055-.17.1-.343.154-.513 5.682-17.932 7.629-36.882 5.887-55.478h62.329zm-114.675-96.333c10.998-9.942 25.299-15.536 40.315-15.536 28.482 0 53.27 20.222 58.94 48.085.711 3.493 3.784 6.004 7.35 6.004h8.07c11.8 0 21.399 9.596 21.399 21.39 0 11.771-9.512 21.389-21.399 21.389h-64.568c-5.369-26.173-18.199-50.334-37.475-69.93-4.015-4.08-8.235-7.882-12.632-11.402z"/><path d="m382.896 437.369c-10.195-4.991-22.174-2.384-29.466 5.612l-56.531-27.675 56.532-27.681c7.289 7.996 19.263 10.607 29.463 5.614 12.372-6.059 17.51-21.052 11.452-33.425-2.437-4.978-6.446-8.927-11.275-11.342 1.054-5.296.393-10.884-2.045-15.861-6.058-12.371-21.051-17.511-33.427-11.451-10.194 4.992-15.476 16.052-13.63 26.715l-87.382 42.787-87.379-42.779c.72-4.099.396-8.334-.989-12.38-2.163-6.31-6.653-11.404-12.645-14.341-5.993-2.938-12.772-3.364-19.087-1.201-6.316 2.163-11.409 6.656-14.34 12.647-2.439 4.982-3.101 10.571-2.046 15.865-4.827 2.416-8.835 6.364-11.272 11.342-6.061 12.365-.928 27.36 11.453 33.429 10.202 4.984 22.178 2.369 29.459-5.626l56.525 27.683-56.526 27.678c-7.289-7.998-19.263-10.609-29.463-5.615-12.371 6.058-17.509 21.053-11.451 33.427 2.436 4.977 6.446 8.925 11.274 11.34-1.054 5.296-.393 10.884 2.045 15.861 4.332 8.848 13.233 13.995 22.479 13.995 3.684 0 7.423-.817 10.948-2.544 10.194-4.992 15.476-16.052 13.63-26.715l87.393-42.792 87.364 42.787c-.718 4.098-.394 8.333.991 12.377 2.164 6.318 6.66 11.412 12.65 14.338 3.474 1.703 7.21 2.561 10.969 2.561 2.725 0 5.461-.451 8.115-1.36 6.31-2.162 11.403-6.652 14.343-12.647 2.437-4.978 3.098-10.566 2.044-15.862 4.83-2.414 8.838-6.36 11.274-11.335 2.937-5.992 3.364-12.771 1.2-19.088-2.165-6.316-6.658-11.408-12.649-14.338zm-242.416-66.089c-3.698-1.813-8.166-.301-10.007 3.381-.08.16-.154.319-.235.501-.005.011-.01.021-.016.032-2.524 4.885-8.405 6.993-13.349 4.577-4.945-2.424-6.998-8.415-4.576-13.356 1.563-3.191 4.748-5.324 8.312-5.566 5.745-.39 8.948-6.876 5.71-11.677-1.995-2.957-2.264-6.776-.7-9.971 1.17-2.392 3.204-4.185 5.726-5.05s5.23-.693 7.625.479c2.396 1.175 4.192 3.211 5.057 5.733.969 2.831.611 5.4-.693 8.027-1.857 3.713-.345 8.251 3.41 10.091l82.786 40.531-16.213 7.939zm6.266 100.846c-1.823.894-3.207 2.486-3.834 4.417-.628 1.93-.447 4.032.502 5.826l.136.245c2.421 4.944.368 10.937-4.576 13.358-4.945 2.421-10.937.369-13.359-4.576-1.561-3.186-1.291-7.009.704-9.973 1.496-2.225 1.692-5.078.514-7.485-1.179-2.407-3.553-4.003-6.227-4.185-3.565-.243-6.75-2.373-8.309-5.559-2.421-4.945-.368-10.938 4.576-13.359 1.409-.69 2.903-1.017 4.376-1.017 3.694 0 7.25 2.056 8.976 5.585l.122.276c.838 1.848 2.387 3.276 4.295 3.962 1.909.686 4.012.568 5.834-.322l205.947-100.843c1.82-.891 3.202-2.48 3.831-4.406.63-1.926.452-4.025-.49-5.818l-.144-.263c-2.422-4.945-.369-10.938 4.575-13.359 4.946-2.426 10.937-.368 13.36 4.577 1.56 3.186 1.29 7.008-.705 9.972-3.217 4.784-.046 11.281 5.715 11.67 3.564.242 6.748 2.372 8.309 5.56 2.421 4.944.368 10.937-4.576 13.358-4.948 2.422-10.939.368-13.35-4.562l-.132-.298c-.84-1.842-2.39-3.266-4.296-3.948s-4.006-.564-5.825.326zm234.127-7.93c-1.56 3.185-4.745 5.313-8.313 5.557-2.675.182-5.049 1.777-6.227 4.185-1.179 2.408-.982 5.262.516 7.485 1.995 2.964 2.266 6.785.706 9.971-2.424 4.943-8.415 6.998-13.363 4.571-2.395-1.169-4.188-3.202-5.052-5.725-.848-2.473-.702-5.124.406-7.483l.193-.35c.962-1.795 1.153-3.904.528-5.843-.625-1.938-2.011-3.54-3.84-4.435l-82.781-40.542 16.196-7.93 72.849 35.664c1.842.901 3.972 1.01 5.894.3 1.923-.709 3.472-2.175 4.286-4.057l.11-.246c2.453-4.873 8.402-6.883 13.321-4.476 2.393 1.17 4.186 3.203 5.05 5.726.865 2.524.695 5.232-.479 7.628z"/><path d="m205.807 265.497c15.529 0 28.163-12.634 28.163-28.162 0-4.125-.878-8.106-2.609-11.834-1.1-2.369-3.352-3.995-5.948-4.292l-35.046-4.017c-2.58-.295-5.149.773-6.758 2.826-3.896 4.974-5.956 10.962-5.956 17.316-.001 15.53 12.63 28.163 28.154 28.163zm-12.304-32.846 25.348 2.904c.079.586.119 1.18.119 1.78 0 7.258-5.905 13.162-13.163 13.162-7.254 0-13.155-5.904-13.155-13.162 0-1.632.289-3.21.851-4.684z"/><path d="m287.361 265.497c15.524 0 28.155-12.634 28.155-28.162 0-6.354-2.06-12.343-5.956-17.316-1.607-2.053-4.167-3.129-6.758-2.826l-35.046 4.017c-2.596.297-4.849 1.923-5.948 4.292-1.731 3.727-2.609 7.709-2.609 11.834-.001 15.528 12.633 28.161 28.162 28.161zm-13.044-29.942 25.348-2.904c.562 1.474.851 3.052.851 4.685 0 7.258-5.901 13.162-13.155 13.162-7.258 0-13.163-5.904-13.163-13.162 0-.601.04-1.195.119-1.781z"/><path d="m188.659 298.119v31.61c0 18.104 14.729 32.834 32.834 32.834.1 0 52.472 0 50.183 0 18.104 0 32.834-14.729 32.834-32.834v-31.61c16.43-2.852 30.63-12.788 39.05-26.562h36.329c4.143 0 7.5-3.357 7.5-7.5s-3.357-7.5-7.5-7.5h-29.953c.119-.458.24-.915.347-1.377 1.825-7.866 2.751-15.985 2.751-24.133 0-28.043-11.216-53.169-31.581-70.752-19.353-16.71-45.942-25.912-74.868-25.912s-55.515 9.202-74.868 25.912c-27.787 23.99-36.804 60.519-28.83 94.886.107.462.229.919.347 1.377h-57.732c-30.31 0-54.969-24.659-54.969-54.969s24.659-54.969 54.972-54.969c0 0 25.298-.01 35.787-.01 6.505 0 11.807-5.093 12.074-11.607.664-17.004 4.703-33.39 12.005-48.704 1.783-3.738.197-8.215-3.542-9.997-3.736-1.783-8.214-.197-9.997 3.542-7.782 16.321-12.258 33.728-13.317 51.767-11.595.002-33.012.01-33.012.01-38.581 0-69.969 31.388-69.969 69.969s31.388 69.969 69.969 69.969h64.107c8.419 13.772 22.618 23.707 39.049 26.56zm-7.141-126.47c16.631-14.359 39.739-22.266 65.067-22.266s48.436 7.907 65.067 22.266c17.26 14.901 26.383 35.441 26.383 59.398 0 7.009-.795 13.987-2.362 20.743-3.852 16.6-17.948 29.365-35.077 31.762-6.319.884-11.085 6.352-11.085 12.722v33.456c0 9.689-7.77 17.581-17.405 17.812v-34.724c0-4.143-3.357-7.5-7.5-7.5s-7.5 3.357-7.5 7.5v34.746h-21.04v-34.746c0-4.143-3.357-7.5-7.5-7.5s-7.5 3.357-7.5 7.5v34.724c-9.635-.23-17.406-8.123-17.406-17.812v-33.456c0-6.369-4.766-11.838-11.083-12.722-17.131-2.397-31.227-15.162-35.079-31.762-6.658-28.697.077-59.47 24.02-80.141z"/></g></g></svg>