<svg id="Capa_1" enable-background="new 0 0 512 512" height="512" viewBox="0 0 512 512" width="512" xmlns="http://www.w3.org/2000/svg"><g><g><path d="m91.744 7.5h188.048c13.69 0 24.788 11.098 24.788 24.788v447.425c0 13.69-11.098 24.788-24.788 24.788h-188.048c-13.69 0-24.788-11.098-24.788-24.788v-447.425c0-13.69 11.098-24.788 24.788-24.788z" fill="#94d8e6"/><path d="m279.791 7.5h-3.069v447.212c0 13.69-11.098 24.788-24.788 24.788h-184.978v.212c0 13.69 11.098 24.788 24.788 24.788h188.048c13.69 0 24.788-11.098 24.788-24.788v-447.424c-.001-13.69-11.099-24.788-24.789-24.788z" fill="#70c6db"/><g><path d="m217.624 342.412v-251.913c0-17.594-14.263-31.857-31.857-31.857-17.594 0-31.857 14.263-31.857 31.857v251.913c-17.508 10.982-28.957 30.733-28.154 53.106 1.159 32.292 28.299 58.154 60.61 57.837 32.889-.322 59.45-27.083 59.45-60.047.002-21.46-11.263-40.278-28.192-50.896z" fill="#ddebfd"/><path d="m153.911 239.836v102.576c-17.508 10.982-28.957 30.733-28.154 53.106 1.159 32.292 28.299 58.154 60.61 57.837 32.889-.322 59.45-27.084 59.45-60.047 0-21.459-11.264-40.277-28.194-50.896v-102.576z" fill="#df646e"/></g><g><path d="m266.745 175.428v161.144c0 6.883 5.58 12.463 12.463 12.463h153.372c6.883 0 12.463-5.58 12.463-12.463v-161.144c0-6.883-5.58-12.463-12.463-12.463h-153.372c-6.883 0-12.463 5.58-12.463 12.463z" fill="#ddebfd"/><path d="m432.58 162.965h-20.747c6.883 0 12.463 5.58 12.463 12.463v161.144c0 6.883-5.58 12.463-12.463 12.463h20.747c6.883 0 12.463-5.58 12.463-12.463v-161.144c0-6.883-5.58-12.463-12.463-12.463z" fill="#bed9fd"/></g></g><g><path d="m225.125 90.499c0-21.701-17.655-39.356-39.357-39.356-21.701 0-39.356 17.655-39.356 39.356v247.921c-18.264 13.129-28.962 34.732-28.148 57.367 1.293 36.017 31.516 65.073 67.523 65.07.216 0 .438-.001.655-.003 36.876-.36 66.877-30.662 66.877-67.547 0-21.979-10.462-42.199-28.193-54.893v-247.915zm-39.358-24.356c13.431 0 24.357 10.927 24.357 24.356v141.837h-48.714v-141.837c.001-13.43 10.927-24.356 24.357-24.356zm52.551 327.165c0 28.694-23.338 52.267-52.023 52.547-.171.002-.34.003-.511.003-28.011-.001-51.525-22.599-52.531-50.609-.672-18.715 8.771-36.526 24.644-46.483 2.187-1.372 3.515-3.772 3.515-6.354v-95.075h48.714v95.075c0 2.581 1.328 4.981 3.515 6.354 15.451 9.692 24.677 26.343 24.677 44.542z"/><path d="m66.957 402.575c4.143 0 7.5-3.357 7.5-7.5v-85.21h27.657c4.143 0 7.5-3.357 7.5-7.5s-3.357-7.5-7.5-7.5h-27.657v-47.53h27.657c4.143 0 7.5-3.357 7.5-7.5s-3.357-7.5-7.5-7.5h-27.657v-47.53h27.657c4.143 0 7.5-3.357 7.5-7.5s-3.357-7.5-7.5-7.5h-27.657v-47.531h27.657c4.143 0 7.5-3.357 7.5-7.5s-3.357-7.5-7.5-7.5h-27.657v-74.987c0-9.532 7.754-17.287 17.287-17.287h188.048c9.532 0 17.287 7.755 17.287 17.287v18.413c0 4.143 3.357 7.5 7.5 7.5s7.5-3.357 7.5-7.5v-18.413c0-17.803-14.485-32.287-32.287-32.287h-188.048c-17.803 0-32.287 14.484-32.287 32.287v362.788c0 4.143 3.357 7.5 7.5 7.5z"/><path d="m432.581 155.465h-120.502v-69.765c0-4.143-3.357-7.5-7.5-7.5s-7.5 3.357-7.5 7.5v69.765h-17.871c-11.008 0-19.963 8.956-19.963 19.964v161.143c0 11.008 8.955 19.964 19.963 19.964h17.871v123.174c0 9.534-7.756 17.29-17.29 17.29h-188.04c-9.534 0-17.29-7.756-17.29-17.29v-49.64c0-4.143-3.357-7.5-7.5-7.5s-7.5 3.357-7.5 7.5v49.64c0 17.805 14.485 32.29 32.29 32.29h188.04c17.805 0 32.29-14.485 32.29-32.29v-123.175h120.502c11.008 0 19.963-8.956 19.963-19.964v-161.142c-.001-11.008-8.956-19.964-19.963-19.964zm4.962 181.106c0 2.737-2.227 4.964-4.963 4.964-23.739 0-129.361 0-153.373 0-2.736 0-4.963-2.227-4.963-4.964v-161.142c0-2.737 2.227-4.964 4.963-4.964h153.373c2.736 0 4.963 2.227 4.963 4.964z"/><path d="m407.711 220.978c4.143 0 7.5-3.357 7.5-7.5s-3.357-7.5-7.5-7.5h-39.395c-6.31 0-11.443 5.134-11.443 11.443v92.91c0 4.143 3.357 7.5 7.5 7.5s7.5-3.357 7.5-7.5v-37.985h34.607c4.143 0 7.5-3.357 7.5-7.5s-3.357-7.5-7.5-7.5h-34.607v-36.368z"/><path d="m319.612 194.169c-12.701 0-23.035 10.334-23.035 23.035s10.334 23.035 23.035 23.035 23.035-10.334 23.035-23.035-10.334-23.035-23.035-23.035zm0 31.07c-4.431 0-8.035-3.604-8.035-8.035s3.604-8.035 8.035-8.035 8.035 3.604 8.035 8.035-3.605 8.035-8.035 8.035z"/></g></g></svg>