<svg id="Capa_1" enable-background="new 0 0 512 512" height="512" viewBox="0 0 512 512" width="512" xmlns="http://www.w3.org/2000/svg"><g><g><path d="m239.438 73.389h33.124v163.119h-33.124z" fill="#ddebfd"/><path d="m211.742 226.018v269.117c0 4.865 3.943 8.808 8.808 8.808h70.901c4.865 0 8.808-3.944 8.808-8.808v-269.117c0-4.865-3.943-8.808-8.808-8.808h-70.901c-4.865 0-8.808 3.943-8.808 8.808z" fill="#df646e"/><path d="m291.451 217.21h-25.758c4.865 0 8.808 3.944 8.808 8.808v269.117c0 4.865-3.943 8.808-8.808 8.808h25.758c4.865 0 8.808-3.943 8.808-8.808v-269.117c-.001-4.865-3.944-8.808-8.808-8.808z" fill="#cd5668"/><path d="m136.011 407.731v-141.232c0-3.263 2.645-5.909 5.909-5.909h225.654c3.263 0 5.909 2.645 5.909 5.909v141.232c0 3.263-2.645 5.909-5.909 5.909h-225.654c-3.263 0-5.909-2.646-5.909-5.909z" fill="#70c6db"/><path d="m342.31 289.501h-175.125c-1.968 0-3.564 1.596-3.564 3.564v88.1c0 1.968 1.596 3.564 3.564 3.564h175.125c1.968 0 3.564-1.596 3.564-3.564v-88.1c0-1.968-1.595-3.564-3.564-3.564z" fill="#ddebfd"/><ellipse cx="441.909" cy="70.649" fill="#5d91b9" rx="62.591" ry="62.591" transform="matrix(.988 -.153 .153 .988 -5.606 68.413)"/><path d="m482.961 23.423c4.632 8.736 7.266 18.694 7.266 29.271 0 34.568-28.023 62.591-62.591 62.591-15.712 0-30.061-5.803-41.052-15.365 10.506 19.815 31.334 33.32 55.325 33.32 34.568 0 62.591-28.023 62.591-62.591 0-18.856-8.349-35.751-21.539-47.226z" fill="#407194"/><path d="m56.864 70.649c0 9.583 7.769 17.352 17.352 17.352h363.567c9.583 0 17.352-7.769 17.352-17.352s-7.769-17.352-17.352-17.352h-363.566c-9.584-.001-17.353 7.768-17.353 17.352z" fill="#ddebfd"/><ellipse cx="70.091" cy="70.649" fill="#5d91b9" rx="62.591" ry="62.591" transform="matrix(.707 -.707 .707 .707 -29.427 70.254)"/><circle cx="70.091" cy="70.649" fill="#407194" r="17.954"/><path d="m274.332 133.24c-34.568 0-62.591-28.023-62.591-62.591s28.023-62.591 62.591-62.591 34.568 125.182 0 125.182z" fill="#5d91b9"/><path d="m111.143 23.423c4.632 8.736 7.266 18.694 7.266 29.271 0 34.568-28.023 62.591-62.591 62.591-15.712 0-30.061-5.803-41.052-15.365 10.506 19.815 31.334 33.32 55.325 33.32 34.568 0 62.591-28.023 62.591-62.591 0-18.856-8.35-35.751-21.539-47.226z" fill="#407194"/></g><g><path d="m313.685 309.92h-115.37c-5.75 0-10.427 4.678-10.427 10.427v28.466c0 4.143 3.358 7.5 7.5 7.5s7.5-3.357 7.5-7.5v-23.893h15.307v5.773c0 4.143 3.358 7.5 7.5 7.5s7.5-3.357 7.5-7.5v-5.773h15.305v23.893c0 4.143 3.358 7.5 7.5 7.5s7.5-3.357 7.5-7.5v-23.893h15.307v5.773c0 4.143 3.358 7.5 7.5 7.5s7.5-3.357 7.5-7.5v-5.773h15.305v23.893c0 4.143 3.358 7.5 7.5 7.5s7.5-3.357 7.5-7.5v-28.466c0-5.749-4.677-10.427-10.427-10.427z"/><path d="m156.121 293.066v88.101c0 6.101 4.963 11.063 11.063 11.063h175.126c6.101 0 11.063-4.963 11.063-11.063v-88.101c0-6.101-4.963-11.063-11.063-11.063h-175.125c-6.101 0-11.064 4.963-11.064 11.063zm15 3.937h167.253v80.228h-167.253z"/><path d="m441.91.562c-29.149 0-55.334 18.339-65.557 45.239h-70.408c-1.176-7.679-2.904-14.727-5.13-20.773-7.446-20.224-18.511-24.469-26.482-24.469-29.9 0-55.474 18.826-65.525 45.242h-73.191c-10.052-26.416-35.626-45.242-65.526-45.242-38.649 0-70.091 31.442-70.091 70.09s31.442 70.091 70.091 70.091c29.899 0 55.472-18.825 65.524-45.239h73.194c4.7 12.349 12.788 23.035 23.131 30.917v83.293h-11.39c-8.993 0-16.31 7.316-16.31 16.311v27.07h-62.32c-7.394 0-13.409 6.015-13.409 13.408v141.232c0 7.394 6.015 13.408 13.409 13.408h62.32v17.291c0 4.143 3.358 7.5 7.5 7.5s7.5-3.357 7.5-7.5v-17.291h73.52v73.99c0 .723-.587 1.311-1.31 1.311h-70.9c-.722 0-1.31-.588-1.31-1.311v-21.699c0-4.143-3.358-7.5-7.5-7.5s-7.5 3.357-7.5 7.5v21.699c0 8.994 7.316 16.311 16.31 16.311h70.9c8.993 0 16.31-7.316 16.31-16.311v-73.99h59.815c7.394 0 13.409-6.015 13.409-13.408v-141.232c0-7.394-6.015-13.408-13.409-13.408h-12.843c-4.142 0-7.5 3.357-7.5 7.5s3.358 7.5 7.5 7.5h11.251v138.049h-222.471v-138.049h176.22c4.142 0 7.5-3.357 7.5-7.5s-3.358-7.5-7.5-7.5h-11.972v-27.07c0-8.994-7.316-16.311-16.31-16.311h-11.39v-69.739c7.005-1.926 14.971-7.992 20.755-23.701 2.226-6.046 3.954-13.093 5.13-20.771h70.408c10.223 26.901 36.408 45.24 65.557 45.24 7.037 0 13.991-1.044 20.67-3.104 3.958-1.221 6.178-5.419 4.957-9.377-1.221-3.959-5.419-6.175-9.377-4.957-5.246 1.617-10.713 2.438-16.25 2.438-20.935 0-39.916-12.037-49.167-30.24h45.037c13.708 0 24.86-11.147 24.86-24.85s-11.152-24.851-24.86-24.851h-45.037c9.252-18.202 28.232-30.239 49.167-30.239 30.376 0 55.09 24.713 55.09 55.09 0 13.177-4.722 25.923-13.295 35.889-2.702 3.141-2.346 7.876.794 10.577 3.167 2.723 7.898 2.32 10.577-.794 10.914-12.686 16.924-28.906 16.924-45.671 0-38.647-31.442-70.089-70.09-70.089zm-371.819 125.178c-30.377 0-55.091-24.714-55.091-55.091s24.714-55.091 55.091-55.091 55.091 24.714 55.091 55.091-24.714 55.091-55.091 55.091zm69.385-45.239c.917-6.486.965-12.873 0-19.7h65.471c-.916 6.486-.965 12.873 0 19.7zm151.974 144.21c.722 0 1.31.588 1.31 1.311v27.07h-73.52v-27.07c0-.723.587-1.311 1.31-1.311zm-44.51-15v-74.549c5.694 2.427 11.777 4.104 18.12 4.946v69.603zm39.799-98.622c-1.622 4.405-6.078 14.651-12.406 14.651-30.377 0-55.091-24.714-55.091-55.091s24.714-55.091 55.091-55.091c11.022 0 18.426 28.485 18.426 55.091-.001 15.31-2.195 30.05-6.02 40.44zm151.041-50.288c5.437 0 9.86 4.419 9.86 9.851 0 5.431-4.423 9.85-9.86 9.85h-130.296c.356-6.369.376-12.967 0-19.7h130.296z"/><path d="m70.091 45.195c-14.036 0-25.454 11.419-25.454 25.454 0 14.036 11.418 25.455 25.454 25.455s25.455-11.419 25.455-25.455c-.001-14.035-11.42-25.454-25.455-25.454zm0 35.909c-5.765 0-10.454-4.69-10.454-10.455s4.689-10.454 10.454-10.454 10.455 4.689 10.455 10.454-4.691 10.455-10.455 10.455z"/></g></g></svg>