<svg id="Capa_1" enable-background="new 0 0 512 512" height="512" viewBox="0 0 512 512" width="512" xmlns="http://www.w3.org/2000/svg"><g><g><path d="m400.676 504.497h-289.352c-3.029 0-5.386-2.676-4.96-5.674 10.426-73.307 73.453-129.69 149.635-129.69s139.21 56.382 149.635 129.69c.428 2.999-1.929 5.674-4.958 5.674z" fill="#6cbff8"/><path d="m172.784 484.038c-10.467-13.485-4.574-33.264 11.567-38.821l47.285-16.28c6.196-2.133 10.354-7.963 10.354-14.516 0-8.479-6.873-15.353-15.352-15.353h-42.398c-7.286 0-14.476.774-21.473 2.256-29.936 23.498-50.791 58.043-56.402 97.499-.426 2.999 1.931 5.674 4.96 5.674h77.341z" fill="#bae6ef"/><path d="m405.635 498.823c-10.425-73.307-73.453-129.69-149.635-129.69-4.724 0-9.397.218-14.01.642 69.786 6.417 125.846 60.286 135.626 129.048.426 2.999-1.931 5.674-4.96 5.674h28.019c3.03 0 5.387-2.675 4.96-5.674z" fill="#5fa7ee"/><g><path d="m351.671 100.085-13.943-11.207c-8.553-6.874-13.01-17.636-11.823-28.544l1.935-17.784c.525-4.828-3.55-8.904-8.379-8.379l-17.784 1.935c-10.909 1.187-21.67-3.271-28.544-11.823l-11.207-13.943c-3.043-3.786-8.807-3.786-11.849 0l-11.207 13.943c-6.874 8.553-17.636 13.01-28.544 11.823l-17.784-1.935c-4.828-.525-8.904 3.55-8.379 8.379l1.935 17.784c1.187 10.909-3.27 21.67-11.823 28.544l-13.943 11.207c-3.786 3.043-3.786 8.806 0 11.849l13.943 11.207c8.553 6.874 13.01 17.636 11.823 28.544l-1.935 17.784c-.525 4.828 3.55 8.904 8.379 8.379l17.784-1.935c10.909-1.187 21.67 3.271 28.544 11.823l11.207 13.943c3.043 3.786 8.807 3.786 11.849 0l11.207-13.943c6.874-8.553 17.636-13.01 28.544-11.823l17.784 1.935c4.828.525 8.904-3.55 8.379-8.379l-1.935-17.784c-1.187-10.909 3.271-21.67 11.823-28.544l13.943-11.207c3.785-3.042 3.785-8.806 0-11.849z" fill="#ecc52e"/><circle cx="255.955" cy="106.01" fill="#e69642" r="40.201"/><path d="m290.947 86.986c.044.771.072 1.546.072 2.328 0 22.203-17.999 40.201-40.201 40.201-15.32 0-28.635-8.571-35.42-21.177 1.207 21.118 18.708 37.873 40.129 37.873 22.202 0 40.201-17.998 40.201-40.201 0-6.883-1.732-13.36-4.781-19.024z" fill="#e27c48"/></g><path d="m284.586 480.586 9.778 3.47c6.884 2.443 11.157 9.331 10.286 16.584l-.463 3.861h55.188l-2.665-7.854c-5.183-15.275-17.161-27.28-32.425-32.494l-30.363-10.374c-7.325-2.502-15.304 1.325-17.937 8.604-2.678 7.402 1.181 15.57 8.601 18.203z" fill="#bae6ef"/></g><g><path d="m360.415 400.842c-28.898-25.285-65.98-39.21-104.415-39.21s-75.516 13.925-104.415 39.21c-28.621 25.043-47.318 59.464-52.645 96.922-.508 3.57.559 7.185 2.928 9.915 2.38 2.742 5.827 4.315 9.457 4.315h77.328l.018.001.012-.001h170.627c.021 0 .041.005.062.005.02 0 .04-.005.06-.005h41.243c7.597 0 13.453-6.728 12.385-14.229-5.327-37.459-24.024-71.88-52.645-96.923zm-48.229 96.153c-.665-9.004-6.509-16.885-15.314-20.01l-9.778-3.47c-3.502-1.243-5.321-5.091-4.056-8.585 1.232-3.409 5.027-5.228 8.458-4.059l30.363 10.376c12.276 4.193 22.216 13.733 26.98 25.747h-36.653zm52.562 0-.937-2.761c-5.889-17.356-19.76-31.256-37.102-37.181l-30.364-10.376c-11.12-3.798-23.418 2.102-27.413 13.15-4.096 11.325 1.796 23.796 13.145 27.824l9.778 3.47c2.71.962 4.625 3.205 5.215 5.873h-104.733l-13.628-17.558c-3.487-4.492-4.556-10.194-2.932-15.644 1.624-5.449 5.639-9.636 11.015-11.486l4.922-1.694c3.916-1.349 5.999-5.616 4.65-9.533s-5.615-5.998-9.533-4.65l-4.922 1.694c-10.01 3.446-17.484 11.241-20.508 21.387-3.023 10.146-1.034 20.762 5.457 29.125l6.489 8.36h-59.118c5.671-34.749 24.083-66.39 51.776-88.67 6.02-1.163 12.144-1.759 18.234-1.759h42.398c4.33 0 7.852 3.522 7.852 7.853 0 3.351-2.128 6.334-5.296 7.425l-9.268 3.19c-3.916 1.349-5.999 5.616-4.65 9.533 1.07 3.108 3.979 5.061 7.091 5.061 2.131 0 2.909-.694 11.711-3.602 9.218-3.175 15.412-11.858 15.412-21.607 0-12.601-10.251-22.852-22.852-22.852h-34.411c19.669-9.747 41.467-14.935 63.772-14.935 34.8 0 68.374 12.607 94.537 35.499 25.184 22.035 41.882 52.076 47.232 84.864z"/><path d="m356.369 94.239-7.05-5.666c-3.23-2.596-7.95-2.082-10.544 1.147-2.595 3.229-2.082 7.949 1.147 10.544l7.05 5.666v.158l-13.944 11.207c-10.602 8.521-16.052 21.681-14.581 35.202l1.935 17.783-.112.111-17.783-1.935c-13.52-1.467-26.68 3.979-35.202 14.581l-11.207 13.943h-.158l-11.207-13.943c-8.521-10.602-21.681-16.049-35.201-14.581l-17.784 1.935-.112-.111 1.935-17.783c1.471-13.521-3.979-26.681-14.581-35.202l-13.943-11.207v-.158l13.943-11.207c10.602-8.52 16.053-21.68 14.581-35.201l-1.935-17.784.111-.111 17.785 1.936c13.519 1.468 26.681-3.979 35.201-14.582l11.207-13.943h.158l11.207 13.943c8.52 10.602 21.679 16.051 35.202 14.582l17.784-1.936.111.111-1.935 17.784c-.262 2.409-.303 4.856-.121 7.272.311 4.131 3.896 7.22 8.042 6.916 4.13-.311 7.227-3.911 6.916-8.041-.113-1.504-.088-3.026.075-4.524l1.935-17.784c.498-4.572-1.083-9.06-4.334-12.311-3.252-3.253-7.743-4.836-12.312-4.335l-17.784 1.936c-8.406.915-16.589-2.475-21.887-9.066l-11.207-13.945c-2.881-3.584-7.171-5.64-11.77-5.64s-8.889 2.056-11.77 5.641l-11.207 13.943c-5.297 6.592-13.479 9.984-21.886 9.066l-17.785-1.936c-4.572-.498-9.06 1.082-12.311 4.335-3.252 3.252-4.832 7.739-4.334 12.311l1.935 17.784c.915 8.407-2.474 16.589-9.066 21.887l-13.943 11.207c-3.584 2.882-5.641 7.172-5.641 11.77s2.056 8.889 5.641 11.77l13.943 11.207c6.592 5.299 9.981 13.48 9.066 21.888l-1.935 17.783c-.498 4.572 1.083 9.061 4.334 12.312 3.252 3.251 7.739 4.832 12.311 4.334l17.784-1.935c8.401-.916 16.588 2.473 21.887 9.065l11.207 13.943c2.881 3.585 7.171 5.642 11.77 5.642s8.889-2.057 11.77-5.642l11.207-13.943c5.299-6.591 13.48-9.974 21.888-9.065l17.784 1.935c4.568.495 9.059-1.083 12.311-4.334 3.252-3.252 4.832-7.74 4.334-12.312l-1.935-17.783c-.915-8.407 2.475-16.589 9.066-21.888l13.943-11.207c3.584-2.882 5.641-7.172 5.641-11.77s-2.055-8.887-5.64-11.769z"/><path d="m255.956 58.308c-26.303 0-47.701 21.398-47.701 47.701s21.398 47.701 47.701 47.701c26.302 0 47.701-21.398 47.701-47.701s-21.399-47.701-47.701-47.701zm0 80.402c-18.031 0-32.701-14.67-32.701-32.701s14.67-32.701 32.701-32.701 32.701 14.67 32.701 32.701-14.67 32.701-32.701 32.701z"/><path d="m503.371 504.012c-5.737-88.839-59.21-168.167-139.55-207.029-3.73-1.803-8.214-.243-10.018 3.486s-.243 8.214 3.486 10.018c75.484 36.513 125.723 111.038 131.113 194.492.256 3.969 3.556 7.017 7.477 7.017.163 0 .326-.005.491-.016 4.133-.267 7.268-3.834 7.001-7.968z"/><path d="m154.71 310.486c3.729-1.804 5.29-6.289 3.486-10.018-1.803-3.728-6.289-5.29-10.018-3.486-80.339 38.862-133.812 118.191-139.549 207.03-.267 4.134 2.868 7.701 7.001 7.968.165.011.328.016.491.016 3.921 0 7.221-3.048 7.477-7.017 5.389-83.455 55.629-157.98 131.112-194.493z"/><path d="m427.067 383.062c-2.431-3.354-7.121-4.102-10.474-1.671-3.354 2.431-4.102 7.12-1.67 10.474l2.537 3.5-17.335.776-6.702-34.275c-1.219-6.223-6.91-10.615-13.265-10.244l-38.707 2.42-26.078-139.76c-.76-4.071-4.677-6.753-8.748-5.997-4.072.76-6.757 4.677-5.997 8.749l26.45 141.751c1.171 6.285 6.897 10.737 13.288 10.353l38.722-2.421 6.695 34.241c1.16 5.942 6.464 10.27 12.468 10.269.435 0-2.05.1 19.881-.878l-2.214 3.712c-2.121 3.558-.957 8.161 2.601 10.282 3.565 2.125 8.166.95 10.283-2.601l9.343-15.668c.012-.02.019-.042.031-.062 1.527-2.608 1.288-5.863-.4-8.181z"/><path d="m93.869 410.349s19.694.878 19.88.878c6.004 0 11.309-4.326 12.467-10.266l6.696-34.244 38.743 2.422c6.399.392 12.097-4.069 13.268-10.353l26.451-141.753c.76-4.072-1.925-7.989-5.997-8.749-4.069-.764-7.989 1.925-8.748 5.997l-26.079 139.76-38.724-2.421c-6.342-.403-12.029 4.023-13.249 10.248l-6.701 34.272-17.335-.776 2.537-3.5c2.431-3.354 1.683-8.043-1.67-10.474-3.354-2.431-8.043-1.684-10.474 1.671l-10.548 14.551c-1.891 2.438-2.094 5.779-.56 8.4.012.02.019.042.031.062l9.343 15.668c1.404 2.354 3.894 3.66 6.449 3.66 1.306 0 2.63-.342 3.834-1.06 3.558-2.121 4.722-6.725 2.601-10.282z"/></g></g></svg>