<svg id="Capa_1" enable-background="new 0 0 512 512" height="512" viewBox="0 0 512 512" width="512" xmlns="http://www.w3.org/2000/svg"><g><g><path d="m283.168 249.972c-8.752 1.572-17.764 2.395-26.969 2.395-9.345 0-18.49-.851-27.368-2.471 16.298 7.087 32.856 10.978 50.755 12.208 1.471-4.193 2.647-8.228 3.582-12.132z" fill="#56988c"/><circle cx="256" cy="351.444" fill="#6cbff8" r="153.056"/><path d="m283.644 200.884c54.175 23.568 92.061 77.559 92.061 140.407 0 84.531-68.525 153.056-153.056 153.056-9.439 0-18.677-.86-27.644-2.496 18.689 8.13 39.313 12.648 60.994 12.648 84.53 0 153.056-68.525 153.056-153.056.001-75.09-54.077-137.545-125.411-150.559z" fill="#5fa7ee"/><path d="m272.475 326.855c-8.888 3.342-13.935 12.737-11.7 21.966l.104.428c2.222 9.174 10.946 15.16 20.326 14.108 16.378-1.837 33.144-2.138 49.484-.862 5.94.464 11.157 4.354 12.926 10.044 5.76 18.525-4.043 39.537-15.282 54.287-8.951 11.747-19.472 22.409-26.705 35.286-6.547 11.656-10.012 24.936-10.353 38.295 67.524-15.929 117.781-76.574 117.781-148.963 0-12.816-1.584-25.26-4.552-37.157-44.129-7.283-90.127-3.184-132.029 12.568z" fill="#bae6ef"/><path d="m404.504 314.287c-10.524-1.737-21.156-2.819-31.812-3.257 1.963 9.785 3.013 19.899 3.013 30.262 0 58.141-32.419 108.71-80.165 134.617-2.627 7.887-4.052 16.177-4.265 24.498 52.511-12.389 94.672-51.87 110.749-102.986 8.362-26.592 9.363-55.548 2.48-83.134z" fill="#94d8e6"/><path d="m174.003 375.914c-30.007-23.501 36.274-22.717 20.996-61.776-9.755-24.94-53.525-19.391-83.894-12.121-5.288 15.506-8.16 32.13-8.16 49.426 0 15.176 2.22 29.831 6.333 43.671 22.873 14.081 51.038 32.5 67.316 47.12 5.891 5.291 8.804 13.116 7.799 20.97-.989 7.725-2.747 14.999-4.538 21.038 19.782 11.368 42.348 18.43 66.419 19.941 28.27-80.657-45.148-107.026-72.271-128.269z" fill="#bae6ef"/><path d="m340.449 204.114c4.512-8.593 8.339-17.53 11.266-26.789 7.253-23.011 8.603-48.322.832-71.157-7.18-21.069-22.084-39.514-42.244-48.445-1.597-.708-3.332.829-2.749 2.475 2.621 7.394.268 16.543-5.698 21.882-7.263 6.499-18.587 7.39-27.406 3.23-8.809-4.16-15.093-12.724-17.775-22.101-2.692-9.367-2.055-19.448.372-28.893 1.956-7.636 3.772-16.413 6.697-24.105.659-1.734-1.219-3.347-2.848-2.459-20.426 11.128-40.706 23.248-55.792 40.854-16.345 19.076-25.634 46.14-17.285 69.836 3.142 8.936 8.594 16.972 11.168 26.084 2.564 9.122 1.37 20.408-6.391 25.84-8.222 5.755-20.427 1.968-26.672-5.892-5.085-6.392-8.678-16.082-9.847-24.878-.254-1.909-2.757-2.415-3.733-.755-6.569 11.165-9.72 24.342-8.814 37.271.509 7.38 2.349 14.652 5.344 21.425-8.152-1.853-16.223-3.139-24.14-3.866-1.569-.144-2.688 1.46-2.011 2.883 8.894 18.695 21.619 35.226 37.142 48.581 25.82 22.208 59.412 35.627 96.135 35.627 20.339 0 39.709-4.121 57.337-11.559 33.35-14.082 60.444-40.078 75.941-72.65.669-1.406-.426-3.026-1.976-2.884-15.235 1.4-31.044 4.848-46.853 10.445z" fill="#ecc52e"/><g fill="#e69824"><path d="m308.251 70.447c11.315 9.994 19.818 23.485 24.719 38.234 7.771 23.417 6.421 49.372-.832 72.969-2.927 9.495-6.754 18.659-11.266 27.471 6.731-2.444 13.459-4.463 20.145-6.116 4.263-8.254 7.896-16.818 10.698-25.681 7.253-23.011 8.604-48.322.832-71.157-7.18-21.069-22.084-39.514-42.244-48.445-1.597-.708-3.332.829-2.749 2.475 1.146 3.238 1.341 6.809.697 10.25z"/><path d="m237.47 34.999c-2.427 9.686-3.064 20.024-.372 29.629 2.682 9.616 8.966 18.398 17.775 22.664 7.374 3.567 16.491 3.497 23.53-.513-1.355-.388-2.682-.87-3.952-1.469-8.809-4.16-15.093-12.724-17.775-22.101-2.692-9.367-2.055-19.448.372-28.893 1.957-7.636 3.772-16.413 6.697-24.105.659-1.734-1.219-3.347-2.848-2.459-6.557 3.572-13.095 7.249-19.455 11.175-1.49 5.435-2.704 10.998-3.972 16.072z"/><path d="m387.302 193.668c-12.099 1.112-24.562 3.539-37.097 7.284 5.901-1.151 11.752-1.999 17.52-2.542 1.55-.146 2.645 1.516 1.976 2.958-15.497 33.401-42.591 60.06-75.941 74.5-.01.004-.02.008-.03.013 6.735-1.777 13.285-4.011 19.607-6.679 33.35-14.082 60.444-40.078 75.941-72.65.669-1.405-.426-3.026-1.976-2.884z"/></g><path d="m284.43 240.457c0-20.204-11.565-37.696-28.43-46.251-16.865 8.555-28.43 26.046-28.43 46.251 0 16.11 7.357 30.489 18.885 39.995 3.156.202 6.338.31 9.545.31 3.21 0 6.393-.114 9.552-.316 11.524-9.506 18.878-23.883 18.878-39.989z" fill="#e27c48"/></g><g><path d="m370.367 83.579c0 4.142 3.357 7.5 7.5 7.5s7.5-3.357 7.5-7.5c0-3.223.885-4.452 2.647-6.9 2.311-3.209 5.474-7.604 5.474-15.664s-3.163-12.455-5.474-15.664c-1.763-2.448-2.647-3.678-2.647-6.9s.885-4.451 2.647-6.899c2.31-3.209 5.474-7.603 5.474-15.662 0-4.142-3.357-7.5-7.5-7.5s-7.5 3.357-7.5 7.5c0 3.221-.885 4.45-2.647 6.898-2.31 3.209-5.474 7.603-5.474 15.663s3.163 12.455 5.474 15.664c1.763 2.448 2.647 3.678 2.647 6.9 0 3.223-.885 4.452-2.647 6.9-2.311 3.209-5.474 7.605-5.474 15.664z"/><path d="m138.817 83.579c0 4.142 3.358 7.5 7.5 7.5s7.5-3.357 7.5-7.5c0-3.223.885-4.451 2.648-6.9 2.31-3.209 5.474-7.604 5.474-15.664s-3.164-12.455-5.474-15.664c-1.763-2.449-2.648-3.678-2.648-6.9s.885-4.451 2.647-6.899c2.31-3.209 5.474-7.603 5.474-15.662 0-4.142-3.358-7.5-7.5-7.5s-7.5 3.357-7.5 7.5c0 3.221-.885 4.45-2.647 6.898-2.31 3.209-5.474 7.603-5.474 15.663s3.164 12.455 5.474 15.664c1.763 2.449 2.647 3.678 2.647 6.9 0 3.223-.885 4.451-2.647 6.9-2.311 3.209-5.474 7.605-5.474 15.664z"/><path d="m438.483 173.576c0-5.394 1.31-7.759 3.122-11.031 2.227-4.022 4.999-9.028 4.999-18.297 0-4.142-3.357-7.5-7.5-7.5s-7.5 3.357-7.5 7.5c0 5.393-1.31 7.758-3.121 11.03-2.227 4.022-5 9.028-5 18.298s2.772 14.276 4.999 18.298c1.812 3.273 3.122 5.638 3.122 11.033s-1.31 7.761-3.122 11.034c-2.227 4.022-4.999 9.028-4.999 18.298 0 4.142 3.357 7.5 7.5 7.5s7.5-3.357 7.5-7.5c0-5.395 1.31-7.76 3.122-11.033 2.227-4.022 4.999-9.028 4.999-18.299 0-9.27-2.772-14.277-4.999-18.298-1.812-3.273-3.122-5.638-3.122-11.033z"/><path d="m88.517 144.247c0-4.142-3.358-7.5-7.5-7.5s-7.5 3.357-7.5 7.5c0 5.393-1.31 7.758-3.122 11.03-2.227 4.022-5 9.028-5 18.298 0 9.271 2.772 14.277 5 18.299 1.812 3.272 3.122 5.638 3.122 11.032 0 5.395-1.31 7.761-3.122 11.033-2.227 4.022-5 9.029-5 18.299 0 4.142 3.358 7.5 7.5 7.5s7.5-3.357 7.5-7.5c0-5.394 1.31-7.76 3.122-11.032 2.227-4.022 5-9.029 5-18.3s-2.772-14.277-5-18.299c-1.812-3.272-3.122-5.638-3.122-11.032s1.31-7.759 3.122-11.031c2.228-4.021 5-9.026 5-18.297z"/><path d="m369.963 238.367c10.493-11.379 19.314-24.355 26.084-38.586 1.47-3.089 1.167-6.75-.79-9.554-1.947-2.79-5.251-4.339-8.644-4.019-10.699.983-21.487 2.913-32.233 5.761 1.687-4.134 3.185-8.267 4.486-12.382 8.242-26.153 8.518-53.082.777-75.828-8.257-24.229-25.134-43.504-46.303-52.881-3.486-1.547-7.549-.864-10.353 1.731-2.783 2.577-3.767 6.543-2.505 10.106 1.617 4.561.057 10.488-3.629 13.787-4.704 4.209-12.781 5.065-19.202 2.036-6.366-3.006-11.512-9.504-13.768-17.389-2.097-7.296-1.953-15.692.429-24.959.465-1.815.922-3.693 1.388-5.606 1.465-6.017 2.98-12.24 5.054-17.695 1.427-3.75.392-7.88-2.635-10.52-3.035-2.649-7.28-3.118-10.81-1.19-10.129 5.517-21.941 12.203-32.744 19.946-3.367 2.412-4.14 7.097-1.728 10.465 2.413 3.366 7.099 4.142 10.465 1.727 6.268-4.491 12.817-8.56 19.324-12.332-.519 2.027-2.393 9.724-2.842 11.478-3.054 11.885-3.16 22.931-.318 32.822 3.424 11.969 11.567 21.996 21.785 26.821 12.011 5.667 26.317 3.887 35.607-4.424 5.248-4.697 8.447-11.42 9.125-18.345 13.263 8.647 23.754 22.507 29.463 39.259 6.719 19.744 6.405 43.355-.883 66.479-2.677 8.47-6.296 17.07-10.756 25.562-1.435 2.732-1.049 6.064.972 8.397 2.02 2.333 5.267 3.19 8.172 2.16 11.556-4.092 23.235-7.041 34.837-8.803-19.755 34.783-53.983 60.087-94.054 68.139 5.305-9.001 8.197-19.331 8.197-30.064 0-22.473-12.467-42.758-32.536-52.938-2.133-1.082-4.653-1.082-6.786 0-20.069 10.18-32.536 30.465-32.536 52.938 0 10.719 2.884 21.033 8.174 30.025-23.333-4.718-45.237-15.337-63.486-31.033-12.162-10.464-22.585-23.141-30.53-37.064 4.314.657 8.655 1.481 12.985 2.466 2.765.631 5.649-.356 7.451-2.545 1.803-2.189 2.217-5.208 1.07-7.802-2.686-6.075-4.275-12.436-4.722-18.917-.444-6.332.223-12.774 1.91-18.952 1.93 4.722 4.359 9.021 7.13 12.505 8.603 10.827 25.17 15.543 36.844 7.371 7.849-5.494 13.772-18.142 9.307-34.023-1.607-5.689-4.102-10.791-6.515-15.723-1.819-3.718-3.536-7.229-4.796-10.813-7.708-21.877 2.281-45.547 14.198-60.403 2.592-3.231 2.074-7.952-1.157-10.544-3.23-2.591-7.952-2.073-10.543 1.157-18.425 22.968-24.803 51.62-16.647 74.769 1.549 4.407 3.542 8.483 5.471 12.425 2.219 4.536 4.314 8.82 5.552 13.201 1.724 6.132 1.373 14.275-3.472 17.666-4.777 3.347-12.652.429-16.501-4.417-3.985-5.01-7.236-13.33-8.282-21.197-.536-4.027-3.566-7.273-7.541-8.078-3.975-.808-8.031 1.008-10.091 4.509-7.345 12.484-10.836 27.256-9.832 41.588.258 3.747.817 7.461 1.669 11.121-4.124-.656-8.234-1.173-12.299-1.547-3.405-.312-6.729 1.234-8.682 4.032-1.952 2.799-2.253 6.455-.785 9.543 6.758 14.205 15.512 27.116 26.104 38.57-29.822 30.06-46.614 70.9-46.614 113.091.001 88.51 72.04 160.553 160.557 160.553 60.562 0 115.354-33.512 142.992-87.458 1.889-3.686.432-8.206-3.255-10.095-3.685-1.891-8.207-.432-10.095 3.255-18.165 35.456-49.27 61.164-85.92 72.633 3.245-20.382 12.368-31.893 25.315-47.486 3.075-3.702 6.254-7.53 9.261-11.475 7.572-9.938 24.336-35.781 16.477-61.059-2.666-8.574-10.323-14.577-19.503-15.293-16.821-1.313-33.947-1.017-50.902.886-5.641.624-10.885-2.988-12.204-8.435l-.102-.413c-1.332-5.502 1.698-11.168 7.051-13.179 38.777-14.58 81.259-19.03 123.182-12.955 2.146 9.962 3.26 20.189 3.26 30.519 0 11.807-1.424 23.578-4.231 34.986-.99 4.022 1.468 8.086 5.489 9.075.603.148 1.205.22 1.799.22 3.371 0 6.434-2.289 7.276-5.709 3.097-12.58 4.667-25.557 4.667-38.571-.001-40.898-15.917-82.133-46.594-113.079zm-113.963-35.557c13.002 8.068 20.929 22.167 20.929 37.653 0 12.481-5.21 24.249-14.368 32.649-4.451.203-8.599.21-13.123-.002-9.158-8.398-14.367-20.166-14.367-32.647 0-15.488 7.927-29.585 20.929-37.653zm-79.046 259.444c-.422 3.297-1.023 6.7-1.787 10.178-21.832-14.634-39.498-35.015-50.825-58.96 21.1 13.638 37.24 25.361 47.241 34.344 4.055 3.642 6.063 9.039 5.371 14.438zm64.021 33.974c-18.703-1.927-36.363-7.416-52.299-15.765 1.424-5.585 2.484-11.049 3.157-16.304 1.317-10.287-2.506-20.568-10.226-27.502-16.389-14.719-44.38-33.06-65.895-46.382-3.427-12.367-5.268-25.388-5.268-38.831 0-14.731 2.265-29.248 6.565-43.085 21.594-4.801 63.29-11.216 71.008 8.517 5.425 13.87-1.877 19.856-14.241 28.475-7.335 5.114-14.921 10.402-15.16 19.035-.22 7.899 6.039 13.735 10.766 17.436 4.886 3.827 11.081 7.746 17.641 11.894 15.334 9.699 34.417 21.769 46.295 38.82 12.567 18.043 15.087 38.926 7.657 63.692zm28.861-176.389c-12.434 4.675-19.463 17.895-16.346 30.766l.101.413c3.09 12.758 15.319 21.276 28.451 19.795 16.013-1.796 32.185-2.077 48.063-.837 2.977.231 5.528 2.158 6.348 4.792 4.014 12.91-1.252 30.671-14.086 47.514-2.815 3.696-5.892 7.401-8.868 10.984-15.131 18.219-26.908 33.524-29.375 61.007-9.041 1.762-18.333 2.699-27.786 2.721 7.403-27.638 3.819-52.169-10.714-73.033-13.608-19.535-34.111-32.503-50.585-42.923-6.232-3.941-12.118-7.665-16.41-11.026-3.816-2.988-4.759-4.69-4.973-5.195.833-1.681 5.541-4.963 8.696-7.162 11.085-7.728 29.638-20.663 19.632-46.245-8.242-21.069-35.331-27.779-78.686-19.666 7.122-15.828 17.059-30.393 29.457-42.878.736.657 1.471 1.315 2.22 1.96 58.438 50.262 145.922 50.201 204.295-1.941 15.831 15.957 27.646 35.304 34.706 56.338-42.311-5.091-84.991-.1-124.14 14.616z"/></g></g></svg>