<svg id="Capa_1" enable-background="new 0 0 512 512" height="512" viewBox="0 0 512 512" width="512" xmlns="http://www.w3.org/2000/svg"><g><g><path d="m150.166 294.088-41.756 117.325c-1.214 3.41 1.637 6.887 5.219 6.364l42.783-6.239c2.805-.409 5.026 2.331 4.046 4.991l-30.671 83.246c-1.393 3.782 3.667 6.526 6.076 3.295l98.425-132.02c2.424-3.252-.187-7.832-4.22-7.402l-45.747 4.875c-3.212.342-5.568-2.953-4.205-5.881l39.449-84.765z" fill="#e69824"/><path d="m139.58 45.107h-5.167c-4.367-21.459-23.346-37.607-46.093-37.607s-41.725 16.148-46.092 37.607c-.617 3.048-.943 6.199-.943 9.429 0 10.626 3.522 20.427 9.464 28.3 1.18 1.563 3.052 2.448 5.011 2.448h84.266c5.546 0 10.572-2.25 14.207-5.885 3.697-3.697 5.961-8.827 5.883-14.492-.154-11.055-9.479-19.8-20.536-19.8z" fill="#ddebfd"/><path d="m452.282 146.833c-43.857 6.73-85.595-22.926-93.667-66.556-3.899-21.075.563-41.701 10.999-58.526 2.435-3.926-1.138-8.806-5.616-7.667-14.08 3.584-27.552 10.482-39.212 20.789-38.823 34.317-42.585 94.194-8.404 133.137 34.153 38.911 93.356 43.114 132.674 9.257 8.723-7.512 15.737-16.271 21.008-25.785 2.229-4.023-1.616-8.682-6.013-7.335-3.797 1.161-7.725 2.065-11.769 2.686z" fill="#ebb34c"/><path d="m464.05 144.146c-3.796 1.163-7.724 2.066-11.768 2.687-43.857 6.73-85.595-22.926-93.667-66.556-3.899-21.074.563-41.701 10.999-58.526 2.435-3.927-1.138-8.806-5.616-7.667-6.071 1.545-12.027 3.71-17.776 6.495 3.976.168 6.391 4.854 3.795 8.234-12.059 15.703-18.553 35.782-16.772 57.14 3.688 44.217 42.266 77.882 86.575 75.552 4.086-.215 8.084-.723 11.977-1.501 4.51-.902 7.871 4.117 5.253 7.898-6.192 8.941-14.043 16.958-23.471 23.564-4.288 3.005-8.741 5.596-13.31 7.797 17.453-2.384 34.444-9.646 48.787-21.997 8.723-7.512 15.737-16.271 21.008-25.785 2.227-4.023-1.617-8.682-6.014-7.335z" fill="#e69642"/><path d="m419.123 259.941c-4.945-4.945-11.783-8.004-19.324-8.004h-38.786c4.614-11.244 7.205-23.535 7.321-36.413.484-54.114-43.421-98.783-97.536-99.189-53.312-.4-96.89 41.632-98.974 94.335-.072 1.823-1.57 3.262-3.395 3.262-7.78.001-26.538.003-26.538.003-25.585 0-46.326 20.741-46.326 46.326s20.741 46.326 46.326 46.326h257.465c14.862 0 27.347-11.689 27.76-26.545.219-7.848-2.879-14.987-7.993-20.101z" fill="#ddebfd"/><g fill="#bed9fd"><path d="m343.658 215.524c-.105 11.697-2.252 22.91-6.103 33.294-.561 1.513.554 3.119 2.168 3.119h21.29c4.614-11.244 7.205-23.535 7.321-36.413.484-54.114-43.421-98.783-97.536-99.189-4.45-.033-8.83.235-13.126.775 48.673 6.139 86.435 48.208 85.986 98.414z"/><path d="m419.123 259.941c-4.945-4.945-11.783-8.004-19.324-8.004h-24.676c7.541 0 14.379 3.06 19.324 8.004 5.114 5.114 8.212 12.253 7.994 20.101-.413 14.856-12.898 26.545-27.76 26.545h24.676c14.862 0 27.347-11.689 27.76-26.545.218-7.848-2.88-14.987-7.994-20.101z"/></g></g><g><path d="m241.116 362.252c-2.393-4.192-7.03-6.565-11.836-6.059l-39.857 4.243 21.574-46.349h96.973c4.143 0 7.5-3.357 7.5-7.5s-3.357-7.5-7.5-7.5h-166.074c-21.409 0-38.826-17.417-38.826-38.825 0-21.409 17.417-38.829 38.826-38.829h26.538c5.873 0 10.656-4.598 10.889-10.467.575-14.559 4.701-28.907 11.932-41.496 2.063-3.592.823-8.176-2.769-10.239-3.593-2.063-8.177-.823-10.239 2.769-7.777 13.541-12.475 28.827-13.682 44.434h-22.669c-29.68 0-53.826 24.148-53.826 53.829 0 27.427 20.625 50.112 47.177 53.4l-33.901 95.241c-1.455 4.102-.676 8.56 2.085 11.926 2.759 3.363 6.974 4.997 11.286 4.374l36.523-5.328-28.479 77.301c-1.915 5.171.21 10.834 5.053 13.466 4.889 2.658 10.79 1.299 14.063-3.087l98.434-132.025c2.882-3.872 3.198-9.085.805-13.279zm-94.709 114.131 21.095-57.259c1.383-3.757.704-7.855-1.817-10.963s-6.388-4.617-10.354-4.041l-38.352 5.595 34.036-95.626h43.436l-21.121 45.377c-1.78 3.807-1.367 8.294 1.077 11.712 2.443 3.417 6.558 5.247 10.71 4.803l39.264-4.18z"/><path d="m475.396 141.107c-3.266-4.029-8.577-5.648-13.531-4.129-3.481 1.063-7.086 1.884-10.717 2.439-19.273 2.96-38.724-1.691-54.768-13.091-32.85-23.338-40.983-67.398-20.395-100.619 2.735-4.404 2.525-9.95-.536-14.127-3.059-4.176-8.278-6.048-13.297-4.768-15.78 4.023-30.022 11.571-42.335 22.439-23.139 20.455-35.512 50.045-34.203 80.728-4.848-.716-9.774-1.106-14.755-1.144-24.991-.157-49.243 8.475-68.396 24.39-3.186 2.647-3.622 7.377-.975 10.563 2.647 3.185 7.376 3.622 10.563.975 16.258-13.512 36.833-20.93 58.013-20.93 24.051 0 47.196 9.489 64.617 27.199 16.994 17.276 26.267 40.008 26.15 64.047-.09 17.919-5.378 35.393-15.571 50.426-2.324 3.429-1.43 8.092 1.999 10.417 3.415 2.314 8.082 1.444 10.417-1.999 3.12-4.603 5.875-9.459 8.231-14.485h33.896c5.296 0 10.275 2.063 14.021 5.809 3.894 3.894 5.953 9.074 5.8 14.589-.295 10.616-9.385 19.253-20.263 19.253h-56.391c-4.143 0-7.5 3.357-7.5 7.5s3.357 7.5 7.5 7.5h56.391c18.922 0 34.738-15.179 35.257-33.836.266-9.537-3.447-18.873-10.187-25.613-6.579-6.578-15.325-10.201-24.628-10.201h-28.216c3.459-11.781 4.904-24.52 3.973-37.471 4.069.485 8.133.734 12.175.734 24.109 0 47.416-8.559 66.227-24.75 9.21-7.942 16.835-17.309 22.66-27.831 2.502-4.508 2.02-10.008-1.226-14.014zm-31.224 30.48c-19.765 17.013-45.359 24.141-70.883 19.912-4.269-19.064-13.806-36.645-27.914-50.986-12.606-12.815-27.857-22.021-44.508-27.102-2.446-27.622 8.145-54.586 28.881-72.917 9.031-7.971 19.275-13.85 30.518-17.522-20.773 39.05-10.412 88.702 27.427 115.583 19.241 13.669 42.588 19.235 65.728 15.69 2.371-.363 4.735-.821 7.074-1.371-4.49 6.951-9.963 13.228-16.323 18.713z"/><path d="m55.763 92.785h84.267c7.368 0 14.297-2.87 19.511-8.082 5.313-5.314 8.182-12.381 8.078-19.898-.205-14.8-12.457-26.877-27.436-27.192-7.222-22.123-28.126-37.613-51.859-37.613-25.823 0-48.299 18.342-53.444 43.621-.725 3.584-1.092 7.257-1.092 10.915 0 11.953 3.796 23.302 10.977 32.818 2.566 3.4 6.677 5.431 10.998 5.431zm-6.182-46.181c3.727-18.313 20.021-31.604 38.743-31.604s35.017 13.291 38.742 31.603c.711 3.494 3.784 6.005 7.35 6.005h5.168c7.093 0 12.941 5.564 13.036 12.404.047 3.433-1.263 6.659-3.687 9.084-2.379 2.379-5.542 3.688-8.904 3.688h-83.686c-4.945-6.781-7.555-14.805-7.555-23.248 0-2.662.268-5.335.793-7.932z"/><path d="m74.947 105.095c-3.682-1.895-8.206-.448-10.102 3.234l-2.893 5.618c-1.896 3.684-.448 8.206 3.234 10.102 1.099.565 2.271.834 3.428.834 2.719 0 5.344-1.484 6.674-4.068l2.893-5.618c1.897-3.684.449-8.206-3.234-10.102z"/><path d="m53.87 146.034c-3.682-1.895-8.206-.448-10.102 3.234l-2.893 5.618c-1.896 3.684-.448 8.206 3.234 10.102 1.099.565 2.271.834 3.428.834 2.719 0 5.344-1.484 6.674-4.068l2.893-5.618c1.897-3.684.449-8.207-3.234-10.102z"/><path d="m105.712 108.33-2.892 5.618c-1.896 3.684-.446 8.206 3.236 10.102 1.099.564 2.271.833 3.427.833 2.72 0 5.344-1.485 6.675-4.069l2.892-5.618c1.896-3.684.446-8.206-3.236-10.102-3.685-1.892-8.205-.445-10.102 3.236z"/><path d="m95.081 161.753 2.892-5.618c1.896-3.684.446-8.206-3.236-10.102-3.684-1.892-8.204-.444-10.102 3.236l-2.892 5.618c-1.896 3.684-.446 8.206 3.236 10.102 1.099.564 2.271.833 3.427.833 2.72 0 5.344-1.485 6.675-4.069z"/><path d="m316.552 353.942c2.143-3.545 1.005-8.155-2.54-10.298-3.543-2.142-8.155-1.006-10.298 2.54l-4.324 7.155c-2.143 3.545-1.005 8.155 2.54 10.298 1.213.733 2.551 1.082 3.872 1.082 2.539 0 5.017-1.29 6.426-3.622z"/><path d="m285.041 406.083c2.143-3.545 1.005-8.155-2.54-10.298-3.543-2.144-8.155-1.006-10.298 2.54l-4.324 7.155c-2.143 3.545-1.005 8.155 2.54 10.298 1.213.733 2.551 1.082 3.872 1.082 2.539 0 5.017-1.29 6.426-3.622z"/><path d="m250.991 447.927c-3.544-2.143-8.155-1.006-10.298 2.54l-4.324 7.155c-2.143 3.545-1.005 8.155 2.54 10.298 1.213.733 2.551 1.082 3.872 1.082 2.539 0 5.017-1.29 6.426-3.622l4.324-7.155c2.142-3.545 1.005-8.155-2.54-10.298z"/><path d="m361.696 353.942c2.143-3.545 1.005-8.155-2.54-10.298-3.543-2.142-8.155-1.006-10.298 2.54l-4.324 7.155c-2.143 3.545-1.005 8.155 2.54 10.298 1.213.733 2.551 1.082 3.872 1.082 2.539 0 5.017-1.29 6.426-3.622z"/><path d="m330.185 406.083c2.143-3.546 1.005-8.156-2.54-10.298-3.546-2.144-8.155-1.006-10.298 2.54l-4.323 7.155c-2.143 3.546-1.005 8.156 2.54 10.298 1.214.733 2.551 1.082 3.872 1.082 2.539 0 5.017-1.29 6.426-3.622z"/><path d="m296.136 447.927c-3.544-2.143-8.155-1.006-10.298 2.54l-4.324 7.156c-2.143 3.545-1.005 8.156 2.54 10.298 1.213.733 2.551 1.082 3.872 1.082 2.539 0 5.017-1.29 6.426-3.622l4.324-7.156c2.142-3.545 1.004-8.156-2.54-10.298z"/><path d="m404.301 343.644c-3.543-2.142-8.156-1.006-10.298 2.54l-4.324 7.155c-2.143 3.545-1.005 8.155 2.54 10.298 1.213.733 2.551 1.082 3.872 1.082 2.539 0 5.017-1.29 6.426-3.622l4.324-7.155c2.143-3.545 1.005-8.156-2.54-10.298z"/><path d="m372.791 395.786c-3.544-2.144-8.155-1.006-10.298 2.54l-4.324 7.155c-2.143 3.545-1.005 8.155 2.54 10.298 1.213.733 2.551 1.082 3.872 1.082 2.539 0 5.017-1.29 6.426-3.622l4.324-7.155c2.143-3.545 1.005-8.156-2.54-10.298z"/><path d="m341.28 447.928c-3.547-2.143-8.155-1.005-10.298 2.54l-4.323 7.155c-2.143 3.546-1.005 8.156 2.54 10.298 1.214.733 2.551 1.082 3.872 1.082 2.539 0 5.017-1.29 6.426-3.622l4.323-7.155c2.143-3.546 1.005-8.156-2.54-10.298z"/></g></g></svg>