<svg id="Capa_1" enable-background="new 0 0 512 512" height="512" viewBox="0 0 512 512" width="512" xmlns="http://www.w3.org/2000/svg"><g><g><path d="m187.114 111.961c-24.649-28.008-64.984-42.165-101.148-32.993-36.165 9.173-65.566 42.618-67.402 79.882 5.104-6.56 13.857-10.761 21.968-12.574 8.112-1.813 16.842-.715 24.253 3.049-14.159 5.454-25.171 20.13-25.827 35.289 14.221-7.494 33.798-6.002 47.766 1.953-13.866 7.054-23.71 21.741-27.264 36.887 13.462-5.899 29.157 2.239 39.272 12.902s16.394 24.35 25.321 36.027c18.518 24.223 48.949 38.862 79.432 38.21l9.923-93.876c7.418-36.565-1.645-76.748-26.294-104.756z" fill="#e27c48"/><path d="m187.114 111.961c-24.648-28.008-64.984-42.165-101.148-32.993-2.523.64-5.008 1.41-7.458 2.279 27.585-1.182 55.832 9.226 76.183 28.158 27.316 25.413 40.076 64.494 36.338 101.616v94.398c-6.365.775-13.057.869-19.437.339 10.273 3.364 21.079 5.066 31.895 4.835l9.923-93.876c7.416-36.565-1.647-76.748-26.296-104.756z" fill="#df6937"/><path d="m318.672 8.914c-28.092-7.373-20.201 16.266-14.831 20.676-34.86-.856-56.944 19.284-65.313 36.483-2.621 5.386 1.398 11.674 7.38 11.373 26.616-1.342 60.189 11.431 62.433 48.7l55.896-25.34c11.97-44.554-7.099-81.795-45.565-91.892z" fill="#c95929"/><path d="m378.169 217.112c5.254 1.669 10.647 2.539 15.894 1.826 6.77-.921 13.361-4.756 17.189-11.451 9.636-16.852-3.374-29.88-14.269-39.044-6.549-5.508-14.53-14.765-12.032-25.258l-27.857 3.035c1.014 9.304 4.582 42.053 5.352 49.123.607 5.568-.052 14.887 4.864 17.296 3.483 1.707 7.136 3.291 10.859 4.473z" fill="#c95929"/><path d="m367.595 162.09v-49.899l54.197 20.719c3.883 1.484 3.883 6.977 0 8.461z" fill="#ecc52e"/><path d="m390.991 226.812c-10.504-6.545-17.09-17.851-17.09-30.227v-83.231c0-22.121-18.103-40.645-40.219-40.222-21.433.41-38.681 17.912-38.681 39.443v40.922c0 19.671-14.442 36.36-33.91 39.183l-39.293 5.699c-27.697 4.017-48.244 27.759-48.244 55.746 0 50.122 40.632 90.753 90.753 90.753h92.959c35.264 0 63.851-28.587 63.851-63.851 0-22.881-12.039-42.944-30.126-54.215z" fill="#e9a761"/><path d="m390.991 226.812c-10.504-6.545-17.09-17.851-17.09-30.227v-83.231c0-22.121-18.103-40.645-40.219-40.222-3.466.066-6.82.586-10.012 1.491 16.652 4.788 28.902 20.538 28.902 38.731v83.231c0 12.376 6.586 23.682 17.09 30.227 18.087 11.27 30.125 31.333 30.125 54.214 0 35.264-28.587 63.851-63.851 63.851h21.329c35.264 0 63.851-28.587 63.851-63.851.001-22.88-12.038-42.943-30.125-54.214z" fill="#e5936a"/><path d="m301.809 223.854h-3.297c-15.326 0-29.038 9.522-34.391 23.882l-5.103 13.689c-3.044 8.165-8.934 14.955-16.586 19.122l-17.03 9.272c-7.069 3.849-8.899 13.175-3.808 19.41 18.42 22.56 46.003 35.648 75.128 35.648h5.987c16.712 0 31.835-6.772 42.782-17.719 10.996-10.996 17.777-26.186 17.729-42.968-.095-33.498-27.912-60.336-61.411-60.336z" fill="#e27c48"/><g fill="#ecc52e"><path d="m436.412 365.243c-4.913 6.673 17.411 19.985 17.411 27.919s-22.324 21.246-17.411 27.919c8.956 12.165 57.024-13.728 57.024-27.919s-48.068-40.084-57.024-27.919z"/><path d="m109.318 373.226 13.294 17.956c.871 1.177.871 2.784 0 3.961l-13.294 17.956c-2.487 3.36-.089 8.119 4.091 8.119h40.897c3.314 0 6.535-1.099 9.158-3.126l26.192-20.238c3.072-2.374 3.072-7.01 0-9.383l-26.192-20.238c-2.623-2.026-5.843-3.126-9.158-3.126h-40.897c-4.18 0-6.578 4.759-4.091 8.119z"/></g><circle cx="300.873" cy="450.267" fill="#e69642" r="21.867"/></g><g><path d="m333.177 128.466v4.935c0 4.142 3.357 7.5 7.5 7.5s7.5-3.358 7.5-7.5v-4.935c0-4.142-3.357-7.5-7.5-7.5s-7.5 3.358-7.5 7.5z"/><path d="m458.89 357.227c-17.231-5.658-25.018-1.182-28.515 3.569-6.465 8.78 2.467 17.963 8.987 24.669.059.06.127.131.188.193h-111.537v-33.282h29.255c39.343 0 71.351-32.008 71.351-71.351 0-1.061-.023-2.139-.07-3.205-.183-4.138-3.68-7.342-7.823-7.163-4.138.182-7.345 3.685-7.163 7.823.038.844.057 1.692.057 2.544 0 31.072-25.279 56.351-56.351 56.351h-11.959c1.9-1.533 3.735-3.166 5.486-4.916 12.902-12.901 19.978-30.053 19.926-48.293-.105-37.207-30.87-67.816-68.911-67.816h-3.297c-18.361 0-35.006 11.559-41.419 28.763l-5.103 13.689c-2.413 6.471-7.081 11.853-13.146 15.155l-17.03 9.272c-11.206 6.103-14.085 20.877-6.031 30.741 5.533 6.776 11.805 12.746 18.651 17.841-31.188-12.034-53.381-42.309-53.381-77.689 0-24.091 17.98-44.866 41.821-48.324l39.293-5.699c22.994-3.335 40.334-23.371 40.334-46.605v-40.922c0-17.283 14.052-31.614 31.325-31.944 17.93-.366 32.576 14.84 32.576 32.724v83.231c0 14.866 7.71 28.546 20.623 36.592 6.611 4.12 12.428 9.699 16.821 16.134 2.335 3.42 7.003 4.301 10.423 1.966 3.421-2.335 4.301-7.002 1.966-10.423-4.176-6.117-9.192-11.465-14.958-15.979 6.948-2.423 12.779-7.191 16.484-13.664 13.547-23.695-7.885-41.724-15.956-48.515-1.302-1.094-2.791-2.475-4.215-4.046l26.867-10.272c4.708-1.792 7.75-6.203 7.75-11.24s-3.042-9.448-7.738-11.235l-43.251-16.537c-.633-7.413-3-14.615-6.858-20.965 5.637-42.09-15.696-76.749-53.787-86.748-17.559-4.607-24.748 1.285-27.686 7.04-2.155 4.22-2.188 9.254-1.052 13.901-31.305 3.446-51.67 22.972-60.05 40.195-2.421 4.98-2.045 10.705 1.004 15.316 3.01 4.553 8.067 7.118 13.501 6.834 13.639-.694 31.588 2.852 43.124 14.481-1.238 4.184-1.913 8.597-1.913 13.154v40.922c0 15.834-11.817 29.488-27.487 31.761l-36.605 5.309c-.183-31.307-11.114-61.333-30.674-83.566-1.607-1.824-3.273-3.594-4.949-5.261-2.937-2.919-7.685-2.905-10.607.033-2.92 2.938-2.905 7.687.032 10.607 1.443 1.435 2.881 2.962 4.267 4.534 17.877 20.322 27.541 48.191 26.901 77.131-25.544 9.145-42.327 33.263-42.327 60.081 0 16.421 4.055 31.91 11.207 45.529-18.667-5.344-35.629-16.615-47.251-31.828-3.404-4.453-6.403-9.223-9.577-14.273-4.782-7.607-9.728-15.472-16.258-22.35-8.04-8.486-20.437-16.543-33.443-17.195 4.452-9.148 11.354-16.665 19.389-20.752 2.458-1.251 4.032-3.749 4.098-6.506s-1.388-5.328-3.783-6.694c-12.325-7.028-27.39-9.381-40.828-6.894 3.684-7.47 10.237-13.893 17.868-16.832 2.764-1.064 4.643-3.655 4.795-6.613s-1.45-5.728-4.089-7.071c-9.022-4.59-19.425-5.898-29.285-3.686-3.431.766-6.72 1.832-9.793 3.154 8.093-26.269 31.011-48.853 58.711-55.875 20.076-5.091 42.266-2.54 62.485 7.189 3.732 1.797 8.214.226 10.011-3.506 1.796-3.733.226-8.214-3.507-10.01-23.385-11.252-49.195-14.167-72.676-8.212-19.155 4.856-37.067 16.151-50.439 31.805-13.623 15.948-21.656 35.472-22.619 54.975-.161 3.268 1.813 6.262 4.881 7.401 3.064 1.138 6.517.158 8.527-2.422 3.489-4.481 10.102-8.166 17.695-9.861 1.169-.262 2.358-.447 3.559-.555-8.375 8.341-13.765 19.627-14.264 31.246-.115 2.683 1.213 5.222 3.481 6.658 2.267 1.437 5.132 1.55 7.507.299 8.068-4.251 18.755-5.121 28.725-2.764-9.095 8.498-15.991 20.33-19.022 33.256-.648 2.765.32 5.659 2.503 7.476 2.183 1.818 5.203 2.246 7.806 1.107 9.864-4.319 22.588 2.512 30.824 11.203 5.509 5.802 9.849 12.704 14.443 20.012 3.215 5.113 6.538 10.4 10.358 15.397 16.827 22.025 43.208 36.97 71.064 40.406 18.038 21.41 45.032 35.039 75.153 35.039h9.429v33.282h-76.575c-.792-1.17-1.764-2.23-2.92-3.123l-26.192-20.238c-3.915-3.025-8.796-4.691-13.743-4.691h-40.897c-4.783 0-9.092 2.653-11.244 6.925s-1.722 9.313 1.124 13.157l11.456 15.474-11.456 15.474c-2.846 3.844-3.276 8.886-1.124 13.157s6.461 6.925 11.244 6.925h40.897c4.947 0 9.828-1.666 13.743-4.691l26.191-20.238c1.158-.895 2.132-1.957 2.925-3.129h96.206v21.216c-12.57 3.324-21.865 14.791-21.865 28.392 0 13.6 9.294 25.067 21.864 28.391v25.842c0 4.142 3.357 7.5 7.499 7.501 4.142 0 7.501-3.357 7.501-7.5v-25.843c12.572-3.323 21.87-14.79 21.87-28.391 0-13.602-9.297-25.069-21.869-28.393v-21.215h131.182c-.062.064-.132.136-.192.198-6.521 6.707-15.451 15.891-8.987 24.67 2.332 3.168 6.571 6.214 14.247 6.214 18.417 0 56.317-20.659 56.317-38.58-.002-15.637-27.389-31.12-42.051-35.935zm-66.736-183.049c14.523 12.217 17.935 20.237 12.59 29.584-3.242 5.663-9.598 9.143-19.067 7.499-2.753-4.362-4.273-9.408-4.273-14.677v-31.744l1.499-.573c2.916 4.148 6.419 7.531 9.251 9.911zm-10.75-25.397v-23.285l30.452 11.643zm-135.868-78.824c-.104.006-.146.007-.233-.126-.15-.227-.065-.401-.026-.481 9.096-18.693 30.913-32.938 58.381-32.264 3.21.109 6.134-1.851 7.25-4.852s.24-6.348-2.234-8.379c-1.689-1.654-3.248-7.041-2.442-8.324.019-.017 2.235-1.547 10.536.632 26.922 7.068 42.968 28.882 43.497 57.42-7.878-5.348-17.107-8.144-26.723-7.95-15.303.293-28.878 8.068-37.253 19.757-12.853-10.762-31.091-16.432-50.753-15.433zm69.706 380.31c0 7.921-6.445 14.365-14.368 14.365-7.921 0-14.365-6.444-14.365-14.365 0-7.922 6.444-14.367 14.365-14.367 7.923 0 14.368 6.445 14.368 14.367zm-87.838-145.782c-2.121-2.597-1.361-6.475 1.585-8.08l17.029-9.272c9.24-5.031 16.353-13.231 20.029-23.09l5.103-13.689c4.237-11.366 15.235-19.002 27.365-19.002.54.149 34.347-2.784 51.046 28.461h-26.461c-4.143 0-7.5 3.358-7.5 7.5s3.357 7.5 7.5 7.5h31.728c.568 3.052.886 6.189.895 9.398.013 4.513-.538 8.939-1.613 13.202h-52.205c-4.143 0-7.5 3.358-7.5 7.5s3.357 7.5 7.5 7.5h45.793c-2.116 3.379-4.618 6.551-7.509 9.441-10.01 10.01-23.32 15.523-37.479 15.523h-5.986c-26.987 0-52.253-11.988-69.32-32.892zm61.334 47.892h24.275v33.282h-24.275zm-129.859 59.78c-1.303 1.006-2.926 1.561-4.571 1.561h-36.116l10.449-14.113c2.853-3.855 2.853-9.033-.001-12.886l-10.448-14.113h36.116c1.646 0 3.269.554 4.571 1.561l24.583 18.995zm303.914-.8c-8.376 4.008-14.381 5.28-17.734 5.401 6.263-7.446 16.265-14.7 16.265-23.597 0-6.626-5.444-12.225-11.208-18.153-1.468-1.509-3.538-3.639-5.056-5.443 3.352.122 9.357 1.393 17.731 5.401 14.297 6.841 22.569 15.388 23.136 18.196-.566 2.807-8.837 11.353-23.134 18.195z"/></g></g></svg>