<svg id="Capa_1" enable-background="new 0 0 512 512" height="512" viewBox="0 0 512 512" width="512" xmlns="http://www.w3.org/2000/svg"><g><g><g><path d="m500.222 247.074-21.008-16.885c-12.886-10.357-19.602-26.57-17.814-43.006l2.915-26.794c.791-7.274-5.349-13.415-12.623-12.623l-26.794 2.915c-16.436 1.788-32.648-4.927-43.006-17.814l-16.885-21.008c-4.584-5.703-13.268-5.703-17.852 0l-16.885 21.008c-10.357 12.886-26.57 19.602-43.006 17.814l-26.794-2.915c-7.274-.791-13.415 5.349-12.623 12.623l2.915 26.794c1.788 16.436-4.927 32.648-17.814 43.006l-21.008 16.885c-5.703 4.584-5.703 13.268 0 17.852l21.008 16.885c12.886 10.357 19.602 26.57 17.814 43.006l-2.915 26.794c-.791 7.274 5.349 13.415 12.623 12.623l26.794-2.915c16.436-1.788 32.649 4.927 43.006 17.814l16.885 21.008c4.584 5.703 13.268 5.703 17.852 0l16.885-21.008c10.357-12.886 26.57-19.602 43.006-17.814l26.794 2.915c7.274.791 13.415-5.349 12.623-12.623l-2.915-26.794c-1.788-16.436 4.927-32.649 17.814-43.006l21.008-16.885c5.704-4.584 5.704-13.268 0-17.852z" fill="#ecc52e"/><circle cx="356.158" cy="256" fill="#e69642" r="80.257"/><path d="m426.869 218.022c.088 1.539.144 3.086.144 4.647 0 44.325-35.932 80.257-80.257 80.257-30.584 0-57.166-17.111-70.712-42.278 2.409 42.161 37.349 75.609 80.113 75.609 44.325 0 80.257-35.932 80.257-80.256 0-13.741-3.459-26.672-9.545-37.979z" fill="#e27c48"/></g><circle cx="234.019" cy="256" fill="#a29aa5" r="123.133"/><g fill="#8c818f"><path d="m287.744 145.179c27.296 22.585 44.688 56.718 44.688 94.914 0 68.004-55.128 123.133-123.133 123.133-19.262 0-37.489-4.427-53.725-12.313 21.302 17.626 48.636 28.22 78.445 28.22 68.004 0 123.133-55.128 123.133-123.133-.001-48.742-28.324-90.866-69.408-110.821z"/><path d="m122.867 202.962c3.424 13.317 15.511 23.158 29.898 23.158 17.048 0 30.868-13.82 30.868-30.868s-13.82-30.868-30.868-30.868c-.348 0-.692.015-1.037.026-11.98 10.771-21.835 23.855-28.861 38.552z"/><ellipse cx="177.899" cy="288.216" rx="23.401" ry="23.4" transform="matrix(.987 -.16 .16 .987 -43.87 32.218)"/><ellipse cx="271.726" cy="259.815" rx="24.723" ry="24.722" transform="matrix(.987 -.16 .16 .987 -38.109 46.88)"/></g></g><g><path d="m504.919 241.227-5.271-4.24c-3.229-2.596-7.949-2.084-10.545 1.143-2.597 3.228-2.085 7.948 1.143 10.545l5.272 4.242c1.979 1.591 1.975 4.58.002 6.167l-21.014 16.883c-14.954 12.028-22.642 30.595-20.565 49.666l2.92 26.787c.27 2.496-1.809 4.631-4.364 4.354l-26.788-2.91c-19.062-2.069-37.637 5.61-49.668 20.568l-16.874 21.004c-1.59 1.973-4.583 1.971-6.163.005l-16.888-21.008c-5.613-6.988-12.884-12.488-21.011-16.09 6.633-5.266 12.742-11.163 18.24-17.598 55.649 14.955 110.563-27.044 110.563-84.745 0-57.628-54.835-99.721-110.563-84.745-5.498-6.435-11.607-12.331-18.24-17.597 8.126-3.602 15.397-9.102 21.009-16.088l16.89-21.012c1.589-1.977 4.585-1.954 6.157-.001l16.883 21.015c12.028 14.953 30.595 22.64 49.663 20.564l26.8-2.911c2.524-.282 4.626 1.85 4.354 4.353l-2.92 26.793c-1.41 12.997 1.793 26.142 9.021 37.012 1.444 2.173 3.825 3.349 6.252 3.349 5.909 0 9.575-6.637 6.238-11.653-5.288-7.954-7.632-17.574-6.6-27.085l2.92-26.793c1.309-12.067-8.881-22.207-20.896-20.886l-26.792 2.91c-13.959 1.514-27.549-4.108-36.352-15.051l-16.886-21.018c-7.609-9.451-21.974-9.404-29.536.005l-16.892 21.014c-6.25 7.781-15.305 13.056-25.115 14.713-19.22-11.137-41.522-17.52-65.289-17.52-72.383 0-130.632 58.936-130.632 130.632 0 36.528 15.454 71.641 42.399 96.333 3.056 2.799 7.798 2.594 10.597-.462 2.799-3.054 2.592-7.798-.462-10.597-23.854-21.859-37.534-52.94-37.534-85.274 0-12.348 1.953-24.247 5.554-35.413 7.109 8.08 17.496 13.033 28.824 13.033 21.156 0 38.368-17.212 38.368-38.367 0-15.379-9.1-28.667-22.195-34.781 18.551-12.679 40.964-20.104 65.08-20.104 63.76 0 115.632 51.872 115.632 115.632s-51.872 115.632-115.632 115.632c-17.88 0-35.017-3.967-50.935-11.791-3.72-1.829-8.213-.294-10.039 3.422-1.827 3.718-.295 8.212 3.422 10.039 17.995 8.846 37.358 13.33 57.552 13.33 23.767 0 46.069-6.383 65.289-17.52 9.81 1.658 18.865 6.932 25.116 14.716l16.89 21.01c7.57 9.421 21.931 9.449 29.542-.001l16.877-21.007c8.805-10.946 22.388-16.584 36.356-15.055l26.78 2.909c12.075 1.32 22.21-8.855 20.905-20.888l-2.92-26.789c-1.52-13.958 4.108-27.549 15.052-36.352l21.012-16.881c9.456-7.598 9.441-21.963.007-29.547zm-328.787-45.974c0 12.885-10.483 23.367-23.368 23.367-9.778 0-18.394-6.059-21.813-15.008 6.061-11.876 14.116-22.57 23.72-31.643 11.995.974 21.461 11.042 21.461 23.284zm167.091-10.853c44.66-8.015 85.685 26.348 85.685 71.6 0 45.187-40.952 79.627-85.685 71.6 13.536-20.576 21.427-45.182 21.427-71.6s-7.891-51.023-21.427-71.6z"/><path d="m303.947 259.815c0-17.768-14.455-32.223-32.223-32.223s-32.223 14.455-32.223 32.223 14.455 32.222 32.223 32.222 32.223-14.454 32.223-32.222zm-49.445 0c0-9.497 7.726-17.223 17.223-17.223s17.223 7.726 17.223 17.223c0 9.496-7.726 17.222-17.223 17.222s-17.223-7.725-17.223-17.222z"/><path d="m177.898 272.315c8.768 0 15.9 7.133 15.9 15.9 0 7.521-5.336 14.072-12.688 15.577-4.058.831-6.675 4.794-5.844 8.852.727 3.551 3.852 5.998 7.34 5.998.498 0 1.005-.051 1.512-.154 14.301-2.927 24.681-15.658 24.681-30.272 0-17.038-13.862-30.9-30.9-30.9s-30.9 13.862-30.9 30.9c0 1.672.135 3.35.401 4.985.664 4.089 4.517 6.866 8.605 6.199 4.089-.664 6.864-4.518 6.199-8.605-.137-.844-.206-1.711-.206-2.579 0-8.768 7.133-15.901 15.9-15.901z"/><path d="m7.5 149.735h121.74c4.143 0 7.5-3.357 7.5-7.5s-3.357-7.5-7.5-7.5h-121.74c-4.143 0-7.5 3.357-7.5 7.5s3.357 7.5 7.5 7.5z"/><path d="m89.264 170.622h-81.764c-4.143 0-7.5 3.357-7.5 7.5s3.357 7.5 7.5 7.5h81.764c4.143 0 7.5-3.357 7.5-7.5s-3.358-7.5-7.5-7.5z"/><path d="m49.287 206.508h-41.787c-4.143 0-7.5 3.357-7.5 7.5s3.357 7.5 7.5 7.5h41.787c4.143 0 7.5-3.357 7.5-7.5s-3.357-7.5-7.5-7.5z"/></g></g></svg>