<svg id="Capa_1" enable-background="new 0 0 512 512" height="512" viewBox="0 0 512 512" width="512" xmlns="http://www.w3.org/2000/svg"><g><g><g><path d="m472.053 105.41-14.745-11.852c-9.045-7.27-13.758-18.65-12.503-30.186l2.046-18.807c.556-5.106-3.755-9.416-8.86-8.86l-18.807 2.046c-11.536 1.255-22.916-3.459-30.186-12.503l-11.852-14.745c-3.218-4.003-9.313-4.003-12.531 0l-11.852 14.745c-7.27 9.045-18.65 13.759-30.186 12.503l-18.807-2.046c-5.106-.556-9.416 3.755-8.86 8.86l2.046 18.807c1.255 11.536-3.459 22.916-12.503 30.186l-14.745 11.852c-4.003 3.218-4.003 9.313 0 12.531l14.745 11.852c9.045 7.27 13.758 18.65 12.503 30.186l-2.046 18.807c-.556 5.106 3.754 9.416 8.86 8.86l18.807-2.046c11.536-1.255 22.916 3.459 30.186 12.503l11.852 14.745c3.218 4.003 9.313 4.003 12.531 0l11.852-14.745c7.27-9.045 18.65-13.759 30.186-12.503l18.807 2.046c5.106.556 9.416-3.755 8.86-8.86l-2.046-18.807c-1.255-11.536 3.459-22.916 12.503-30.186l14.745-11.852c4.003-3.219 4.003-9.314 0-12.531z" fill="#ecc52e"/><circle cx="370.881" cy="111.675" fill="#e69642" r="48.666"/><path d="m383.767 64.747c10.603 8.927 17.347 22.293 17.347 37.239 0 26.877-21.788 48.666-48.666 48.666-4.463 0-8.78-.613-12.886-1.738 8.465 7.127 19.387 11.427 31.319 11.427 26.877 0 48.666-21.788 48.666-48.666-.001-22.415-15.159-41.278-35.78-46.928z" fill="#e27c48"/></g><path d="m246.202 504.5c-24.636 0-44.679-21.05-44.679-46.924v-40.459c0-7.424 5.73-13.443 12.8-13.443s12.8 6.019 12.8 13.443v40.459c0 11.048 8.558 20.037 19.078 20.037s19.079-8.989 19.079-20.037v-10.932c0-7.424 5.73-13.443 12.8-13.443s12.8 6.019 12.8 13.443v10.932c.001 25.874-20.042 46.924-44.678 46.924z" fill="#6bbdd5"/><path d="m200.025 104.246v48.917h30.997v-48.917c0-8.56-6.939-15.499-15.499-15.499-8.559 0-15.498 6.939-15.498 15.499z" fill="#6bbdd5"/><path d="m394.07 287.217c.316 2.301-2.153 3.976-4.174 2.832-12.842-7.272-27.682-11.423-43.495-11.423-24.536 0-46.732 9.99-62.758 26.125-1.483 1.493-3.877 1.493-5.36-.001-16.019-16.134-38.224-26.124-62.759-26.124s-46.74 9.99-62.759 26.124c-1.483 1.493-3.877 1.494-5.36.001-16.026-16.135-38.223-26.125-62.758-26.125-15.814 0-30.654 4.152-43.495 11.423-2.021 1.144-4.49-.531-4.174-2.832 12.073-87.815 87.413-155.456 178.547-155.456s166.473 67.641 178.545 155.456z" fill="#df646e"/><path d="m394.07 287.217c-12.073-87.815-87.413-155.456-178.547-155.456-4.521 0-9.001.173-13.439.5 82.838 6.107 150.103 68.202 164.105 148.592 8.424 1.927 16.391 5.052 23.707 9.195 2.021 1.146 4.491-.53 4.174-2.831z" fill="#cd5668"/><path d="m208.404 131.911c-28.306 10.597-51.297 81.333-57.73 173.902.764-.121 1.499-.469 2.089-1.063 16.019-16.134 38.224-26.124 62.759-26.124s46.74 9.99 62.759 26.124c.73.735 1.681 1.104 2.635 1.116-6.423-92.533-29.391-163.262-57.676-173.934-2.56-.108-5.132-.17-7.718-.17-2.384 0-4.755.057-7.118.149z" fill="#ddebfd"/></g><g><path d="m476.753 99.565-14.742-11.852c-7.085-5.691-10.73-14.49-9.751-23.53l2.051-18.811c.506-4.705-1.123-9.322-4.469-12.667-3.345-3.342-7.955-4.97-12.66-4.461l-18.813 2.05c-9.022.982-17.82-2.656-23.521-9.744l-11.855-14.744c-2.958-3.686-7.368-5.803-12.098-5.806h-.012c-4.731 0-9.146 2.113-12.115 5.803l-11.849 14.747c-5.7 7.087-14.485 10.733-23.522 9.744l-18.82-2.051c-4.707-.506-9.327 1.124-12.671 4.475-3.342 3.349-4.963 7.966-4.447 12.665l2.05 18.795c.979 9.045-2.666 17.844-9.753 23.537l-14.736 11.847c-3.693 2.966-5.813 7.381-5.813 12.113s2.119 9.147 5.809 12.11l14.636 11.766c-13.244-4.811-27.036-8.132-41.127-9.867v-21.434c0-12.682-10.317-23-23-23-6.157 0-11.937 2.396-16.273 6.747-4.338 4.354-6.727 10.126-6.727 16.253v21.442c-35.48 4.394-69.241 18.861-96.899 41.839-3.186 2.647-3.623 7.376-.976 10.562s7.377 3.623 10.562.976c23.034-19.137 50.671-31.86 79.919-37.098-7.724 10.401-14.718 25.026-20.913 43.801-9.51 28.821-16.346 65.304-19.954 106.135-16.901-13.459-37.681-20.781-59.614-20.781-13.386 0-26.619 2.804-38.768 8.167 5.364-27.969 17.629-54.241 35.765-76.455 2.62-3.208 2.143-7.934-1.066-10.553-3.208-2.619-7.933-2.143-10.553 1.066-21.802 26.705-35.799 58.81-40.478 92.844-1.162 8.448 7.881 14.584 15.299 10.38 12.072-6.836 25.835-10.45 39.801-10.45 21.724 0 42.121 8.492 57.438 23.912 4.463 4.492 11.635 4.397 16.004-.006 13.381-13.475 30.653-21.659 49.303-23.505v110.931c-7.785 2.932-13.368 10.625-13.368 19.659v40.458c0 30.009 23.407 54.424 52.179 54.424s52.179-24.415 52.179-54.424v-10.932c0-11.548-9.106-20.943-20.3-20.943s-20.301 9.395-20.301 20.943v10.932c0 6.913-5.194 12.537-11.578 12.537s-11.578-5.624-11.578-12.537v-40.458c0-8.591-5.043-15.982-12.232-19.208v-111.476c19.131 1.596 36.885 9.823 50.568 23.602 4.382 4.41 11.551 4.485 16.005.002 15.315-15.418 35.714-23.91 57.438-23.91 13.965 0 27.728 3.613 39.8 10.45 7.419 4.202 16.461-1.932 15.299-10.38-3.185-23.166-10.693-45.357-21.935-65.52 1.264-.855 2.428-1.887 3.421-3.126l11.86-14.75c5.7-7.088 14.484-10.731 23.526-9.744l18.801 2.039c4.69.515 9.31-1.103 12.657-4.443 3.353-3.345 4.984-7.965 4.477-12.684l-1.13-10.39c-.447-4.117-4.144-7.092-8.267-6.645-4.118.448-7.094 4.149-6.646 8.267l1.129 10.381c.008.073.028.266-.158.452-.178.177-.348.158-.436.15l-18.805-2.04c-14.14-1.542-27.913 4.157-36.839 15.256l-11.517 14.322c-9.032-13.505-19.841-25.897-32.245-36.797-11.075-9.732-23.174-18.04-36.014-24.84-2.204-8.701-7.166-16.459-14.23-22.14l-14.743-11.853c-.062-.049-.204-.163-.204-.417 0-.253.143-.368.207-.419l14.738-11.848c11.095-8.913 16.803-22.687 15.269-36.85l-2.051-18.805c-.008-.077-.028-.256.153-.438.184-.185.374-.166.438-.158l18.809 2.049c14.143 1.546 27.914-4.158 36.841-15.258l11.847-14.745c.044-.055.163-.203.426-.203.256 0 .365.136.416.2l11.86 14.75c8.924 11.098 22.703 16.799 36.837 15.256l18.803-2.049c.069-.008.255-.027.438.157.188.188.168.381.161.443l-2.05 18.806c-1.534 14.158 4.174 27.932 15.267 36.843l14.736 11.847c.056.045.203.164.203.422 0 .259-.147.378-.199.42-13.159 10.86-16.524 12.547-21.054 18.15-2.604 3.222-2.104 7.944 1.118 10.548s7.943 2.103 10.548-1.118c3.016-3.734 4.898-4.517 18.79-15.893 3.684-2.965 5.797-7.378 5.797-12.107-.002-4.728-2.116-9.141-5.803-12.109zm-269.23 4.685c0-2.131.836-4.144 2.353-5.666 1.5-1.505 3.506-2.334 5.647-2.334 4.411 0 8 3.589 8 8v20.187c-5.301-.225-10.418-.241-16-.002zm-29.062 86.222c9.126-27.661 20.567-46.161 31.546-51.112 4.114-.132 7.171-.137 11.624.02 10.975 4.986 22.407 23.506 31.525 51.169 8.86 26.879 15.324 60.85 18.901 99.004-16.312-11.952-35.909-18.427-56.532-18.427-.209 0-.419.013-.628.014l-.023.001c-20.138.133-39.276 6.428-55.298 17.982 3.59-38.015 10.046-71.863 18.885-98.651zm67.743 294.641c14.655 0 26.578-12.353 26.578-27.537v-10.932c0-3.277 2.378-5.943 5.301-5.943 2.922 0 5.3 2.666 5.3 5.943v10.932c0 21.738-16.679 39.424-37.179 39.424s-37.179-17.686-37.179-39.424v-40.458c0-3.277 2.378-5.943 5.3-5.943 2.923 0 5.301 2.666 5.301 5.943v40.458c0 15.184 11.923 27.537 26.578 27.537zm138.966-205.821c-12.148-5.362-25.382-8.167-38.767-8.167-21.714 0-42.302 7.169-59.109 20.371-3.614-40.625-10.427-76.93-19.892-105.643-6.183-18.759-13.163-33.381-20.871-43.792 30.607 5.576 59.314 19.348 82.965 40.131 28.933 25.425 48.483 59.634 55.674 97.1z"/><path d="m370.883 55.509c-30.97 0-56.166 25.196-56.166 56.166s25.196 56.166 56.166 56.166 56.165-25.196 56.165-56.166-25.195-56.166-56.165-56.166zm0 97.331c-22.699 0-41.166-18.467-41.166-41.166s18.467-41.166 41.166-41.166c22.698 0 41.165 18.467 41.165 41.166s-18.467 41.166-41.165 41.166z"/></g></g></svg>