<svg id="Capa_1" enable-background="new 0 0 512 512" height="512" viewBox="0 0 512 512" width="512" xmlns="http://www.w3.org/2000/svg"><g><g><path d="m261.676 504.5c-24.636 0-44.679-21.05-44.679-46.924v-40.459c0-7.424 5.73-13.443 12.8-13.443s12.8 6.019 12.8 13.443v40.459c0 11.048 8.558 20.037 19.078 20.037s19.079-8.989 19.079-20.037v-10.932c0-7.424 5.73-13.443 12.8-13.443s12.8 6.019 12.8 13.443v10.932c.002 25.874-20.042 46.924-44.678 46.924z" fill="#6bbdd5"/><path d="m215.499 104.246v48.917h30.997v-48.917c0-8.56-6.939-15.499-15.499-15.499-8.559 0-15.498 6.939-15.498 15.499z" fill="#6bbdd5"/><path d="m409.545 287.217c.316 2.301-2.153 3.976-4.174 2.832-12.842-7.272-27.682-11.423-43.495-11.423-24.536 0-46.732 9.99-62.758 26.125-1.483 1.493-3.877 1.493-5.36-.001-16.019-16.134-38.224-26.124-62.759-26.124s-46.74 9.99-62.759 26.124c-1.483 1.493-3.877 1.494-5.36.001-16.026-16.135-38.223-26.125-62.758-26.125-15.814 0-30.654 4.152-43.495 11.423-2.021 1.144-4.49-.531-4.174-2.832 12.073-87.815 87.413-155.456 178.547-155.456s166.472 67.641 178.545 155.456z" fill="#df646e"/><path d="m409.545 287.217c-12.073-87.815-87.413-155.456-178.547-155.456-3.543 0-7.058.114-10.551.316 82.663 4.872 150.075 67.77 163.719 149.39 7.501 1.949 14.617 4.851 21.205 8.581 2.021 1.146 4.49-.53 4.174-2.831z" fill="#cd5668"/><path d="m223.878 131.911c-28.306 10.597-51.297 81.333-57.73 173.902.764-.121 1.499-.469 2.089-1.063 16.019-16.134 38.224-26.124 62.759-26.124s46.74 9.99 62.759 26.124c.73.735 1.681 1.104 2.635 1.116-6.423-92.533-29.391-163.262-57.676-173.934-2.56-.108-5.132-.17-7.718-.17-2.384 0-4.755.057-7.118.149z" fill="#ddebfd"/><g fill="#6cbff8"><path d="m364.684 63.615c-1.451-2.577-5.154-2.577-6.605 0-6.263 11.124-19.245 35.992-19.245 50.998 0 12.452 10.095 22.547 22.547 22.547s22.547-10.095 22.547-22.547c.001-15.005-12.981-39.874-19.244-50.998z"/><path d="m440.333 9.433c-1.451-2.577-5.154-2.577-6.605 0-6.263 11.124-19.245 35.992-19.245 50.998 0 12.452 10.095 22.547 22.547 22.547s22.547-10.095 22.547-22.547c0-15.006-12.982-39.875-19.244-50.998z"/><path d="m440.333 117.798c-1.451-2.577-5.154-2.577-6.605 0-6.263 11.124-19.245 35.992-19.245 50.998 0 12.452 10.095 22.547 22.547 22.547s22.547-10.095 22.547-22.547c0-15.005-12.982-39.874-19.244-50.998z"/></g></g><g><path d="m351.308 167.872c-3.178-2.655-7.908-2.232-10.564.946s-2.232 7.908.946 10.564c30.781 25.721 51.491 60.933 58.955 99.911-12.148-5.363-25.383-8.167-38.769-8.167-21.713 0-42.302 7.17-59.109 20.372-3.614-40.625-10.427-76.931-19.891-105.644-6.179-18.747-13.154-33.362-20.857-43.771 18.196 3.313 35.804 9.506 52.002 18.401 3.63 1.996 8.19.667 10.184-2.963 1.994-3.631.667-8.19-2.963-10.184-20.775-11.409-43.674-18.745-67.241-21.652v-21.435c0-12.682-10.318-23-23-23s-23 10.318-23 23v21.434c-37.254 4.589-72.428 20.245-100.875 45.241-33.928 29.814-55.984 70.751-62.105 115.271-.538 3.91 1.16 7.717 4.429 9.936 3.213 2.179 7.373 2.423 10.871.444 12.072-6.836 25.834-10.45 39.8-10.45 1.725 0 3.467.055 5.178.163 4.144.248 7.697-2.88 7.957-7.014s-2.88-7.696-7.014-7.957c-2.023-.127-4.083-.192-6.121-.192-13.386 0-26.619 2.804-38.767 8.167 7.191-37.467 26.741-71.676 55.674-97.1 23.811-20.923 52.747-34.735 83.586-40.237-7.729 10.402-14.726 25.032-20.924 43.816-9.509 28.82-16.346 65.302-19.954 106.131-5.205-4.134-10.815-7.723-16.781-10.705-3.704-1.851-8.209-.349-10.062 3.356-1.852 3.705-.349 8.21 3.356 10.062 7.894 3.945 15.063 9.133 21.309 15.421 4.457 4.487 11.63 4.403 16.003-.002 13.383-13.479 30.656-21.662 49.31-23.507v110.93c-7.787 2.931-13.373 10.625-13.373 19.661v40.458c0 30.009 23.407 54.424 52.179 54.424s52.179-24.415 52.179-54.424v-10.932c0-11.548-9.106-20.943-20.3-20.943s-20.3 9.395-20.3 20.943v10.932c0 6.913-5.194 12.537-11.579 12.537-6.384 0-11.578-5.624-11.578-12.537v-40.458c0-8.589-5.041-15.979-12.228-19.206v-111.481c19.131 1.597 36.883 9.823 50.564 23.602.013.013.027.024.04.037 4.334 4.324 11.481 4.477 15.963-.034 15.315-15.419 35.714-23.911 57.438-23.911 13.965 0 27.728 3.613 39.8 10.45 3.434 1.943 7.598 1.774 10.869-.444 3.27-2.218 4.968-6.025 4.431-9.936-6.356-46.228-29.677-88.249-65.668-118.324zm-128.308-63.622c0-4.411 3.589-8 8-8s8 3.589 8 8v20.191c-.117-.004-.234-.002-.35-.003-4.352-.069-6.821-.35-15.157-.017-.017.001-.034.001-.05.002-.147.006-.295.009-.442.015v-20.188zm38.677 380.863c14.655 0 26.579-12.353 26.579-27.537v-10.932c0-3.277 2.378-5.943 5.3-5.943s5.3 2.666 5.3 5.943v10.932c0 21.738-16.679 39.424-37.179 39.424s-37.179-17.686-37.179-39.424v-40.458c0-3.277 2.378-5.943 5.3-5.943s5.3 2.666 5.3 5.943v40.458c0 15.184 11.923 27.537 26.579 27.537zm-86.637-196.011c3.59-38.015 10.054-71.842 18.893-98.63 9.127-27.662 20.568-46.162 31.546-51.112 4.137-.132 7.229-.137 11.62.019 10.976 4.984 22.41 23.505 31.529 51.17 8.858 26.875 15.329 60.828 18.907 98.975-33.468-24.517-79.246-24.403-112.495-.422z"/><path d="m361.382 144.661c16.568 0 30.047-13.479 30.047-30.047 0-7.014-2.626-23.445-20.209-54.678-1.998-3.548-5.767-5.753-9.838-5.753-4.07 0-7.84 2.205-9.838 5.753-17.583 31.232-20.209 47.664-20.209 54.678 0 16.568 13.479 30.047 30.047 30.047zm0-71.465c9.488 17.82 15.047 33.032 15.047 41.418 0 8.297-6.75 15.047-15.047 15.047s-15.047-6.75-15.047-15.047c0-8.386 5.559-23.598 15.047-41.418z"/><path d="m437.031 90.478c16.568 0 30.047-13.479 30.047-30.047 0-7.014-2.624-23.445-20.209-54.677-1.998-3.549-5.768-5.754-9.838-5.754s-7.84 2.205-9.838 5.753c-7.548 13.406-20.209 38.335-20.209 54.678-.001 16.568 13.478 30.047 30.047 30.047zm0-71.465c9.488 17.82 15.047 33.033 15.047 41.418 0 8.297-6.75 15.047-15.047 15.047s-15.047-6.75-15.047-15.047c-.001-8.387 5.558-23.599 15.047-41.418z"/><path d="m437.031 108.366c-4.07 0-7.84 2.205-9.838 5.753-7.548 13.406-20.209 38.335-20.209 54.678 0 16.568 13.479 30.047 30.047 30.047s30.047-13.479 30.047-30.047c0-7.014-2.624-23.445-20.209-54.677-1.998-3.55-5.768-5.754-9.838-5.754zm0 75.478c-8.297 0-15.047-6.75-15.047-15.047 0-8.387 5.559-23.599 15.047-41.418 9.488 17.82 15.047 33.033 15.047 41.418 0 8.297-6.75 15.047-15.047 15.047z"/></g></g></svg>