<svg id="Capa_1" enable-background="new 0 0 512 512" height="512" viewBox="0 0 512 512" width="512" xmlns="http://www.w3.org/2000/svg"><g><g><path d="m277.588 240.524c-70.976-1.11-128.883-59.047-129.951-130.024-.516-34.284 12.037-65.626 32.996-89.375 4.891-5.542.559-14.195-6.809-13.594-23.167 1.888-46.261 9.167-67.409 22.308-70.412 43.75-92.354 137.19-48.85 207.755 43.467 70.507 135.728 92.965 206.797 50.072 15.768-9.517 29.173-21.457 40.03-35.055 4.591-5.75-.227-14.127-7.524-13.178-6.298.818-12.736 1.193-19.28 1.091z" fill="#ebb34c"/><path d="m296.868 239.432c-6.298.819-12.735 1.194-19.28 1.092-70.976-1.11-128.883-59.047-129.951-130.024-.516-34.284 12.037-65.626 32.996-89.375 4.891-5.542.559-14.195-6.809-13.594-20.581 1.678-41.1 7.621-60.253 18.137 6.58-1.437 13.209-2.436 19.845-2.977 7.367-.601 11.7 8.052 6.809 13.594-20.959 23.75-33.512 55.091-32.996 89.375 1.068 70.977 58.975 128.915 129.951 130.024 6.545.102 12.982-.273 19.28-1.092 7.296-.949 12.114 7.429 7.523 13.178-10.857 13.597-24.262 25.538-40.03 35.055-1.816 1.096-3.649 2.138-5.492 3.15 15.79-3.445 31.293-9.494 45.9-18.31 15.768-9.517 29.173-21.457 40.03-35.055 4.591-5.749-.227-14.127-7.523-13.178z" fill="#e69642"/><g fill="#ebb34c"><path d="m260.003 109.222c-4.806 16.616-11.952 23.761-28.567 28.567-4.946 1.431-4.946 8.498 0 9.929 16.616 4.806 23.761 11.952 28.567 28.567 1.431 4.946 8.498 4.946 9.929 0 4.806-16.616 11.952-23.761 28.567-28.567 4.946-1.431 4.946-8.498 0-9.929-16.616-4.806-23.761-11.952-28.567-28.567-1.43-4.946-8.498-4.946-9.929 0z"/><path d="m334.486 11.707c-4.806 16.616-11.952 23.761-28.567 28.567-4.946 1.431-4.946 8.498 0 9.929 16.616 4.806 23.761 11.952 28.567 28.567 1.431 4.946 8.498 4.946 9.929 0 4.806-16.616 11.952-23.761 28.567-28.567 4.946-1.431 4.946-8.498 0-9.929-16.616-4.806-23.761-11.952-28.567-28.567-1.431-4.946-8.498-4.946-9.929 0z"/></g></g><g><path d="m200.032 316.354c4.127-.356 7.184-3.99 6.828-8.117-.355-4.127-3.979-7.187-8.117-6.828-26.141 2.255-52.426-2.687-76.019-14.291-24.21-11.908-44.523-30.393-58.742-53.458-41.442-67.22-20.616-155.798 46.425-197.453 19.644-12.206 41.198-19.34 64.061-21.204.2-.017.478-.039.686.376.209.418.025.627-.11.78-6.289 7.126-11.863 14.912-16.568 23.143-2.056 3.596-.807 8.178 2.789 10.234 3.597 2.056 8.178.807 10.234-2.789 4.2-7.347 9.177-14.299 14.792-20.662 4.264-4.832 5.156-11.672 2.273-17.426-2.882-5.752-8.889-9.13-15.315-8.607-25.263 2.059-49.07 9.936-70.759 23.413-74.041 46.006-97.044 143.83-51.277 218.068 15.703 25.472 38.142 45.89 64.89 59.046 21.94 10.791 45.991 16.363 70.282 16.363 4.544-.001 9.098-.195 13.647-.588z"/><path d="m159.002 77.629c1.022-4.014-1.403-8.097-5.417-9.119-4.015-1.025-8.097 1.403-9.119 5.417-3.036 11.921-4.48 24.264-4.293 36.686.546 36.288 15.091 70.525 40.955 96.404s60.093 40.443 96.381 41.01c6.815.108 13.661-.281 20.365-1.153.186-.025.5-.065.747.372.207.366.075.53-.051.689-10.586 13.258-23.386 24.466-38.045 33.314-9.015 5.441-18.598 9.889-28.481 13.22-3.925 1.323-6.035 5.578-4.713 9.503 1.323 3.927 5.579 6.035 9.503 4.713 10.915-3.679 21.494-8.588 31.442-14.592 16.183-9.767 30.319-22.147 42.016-36.797 3.992-5 4.541-11.835 1.397-17.412-3.167-5.621-9.35-8.715-15.749-7.883-5.988.778-12.105 1.126-18.196 1.03-32.368-.506-62.913-13.51-86.005-36.615-23.093-23.106-36.079-53.657-36.567-86.025-.168-11.102 1.121-22.124 3.83-32.762z"/><path d="m458.417 472.251c-48.787 42.958-97.545 21.492-149.168-1.235-26.272-11.567-53.438-23.526-80.775-26.535-31.588-3.475-59.179 5.607-84.351 27.771-3.108 2.737-3.41 7.477-.672 10.586 2.737 3.108 7.476 3.41 10.586.672 48.787-42.958 97.545-21.492 149.168 1.235 26.272 11.566 53.437 23.526 80.775 26.535 4.361.48 8.641.72 12.854.72 26.302 0 49.801-9.387 71.497-28.491 3.108-2.737 3.41-7.477.672-10.586-2.738-3.108-7.477-3.41-10.586-.672z"/><path d="m458.417 393.159c-48.787 42.958-97.545 21.492-149.168-1.235-26.272-11.567-53.438-23.526-80.775-26.535-31.588-3.475-59.179 5.607-84.351 27.771-3.108 2.737-3.41 7.477-.672 10.586 2.737 3.108 7.476 3.41 10.586.672 48.787-42.958 97.545-21.492 149.168 1.235 26.272 11.566 53.437 23.526 80.775 26.535 32.799 3.61 60.169-6.478 84.351-27.771 3.108-2.737 3.41-7.477.672-10.586-2.738-3.108-7.477-3.409-10.586-.672z"/><path d="m480.786 266.959c-5.484-15.051-20.409-26.896-37.14-29.476-14.558-2.246-29.319 2.695-38.523 12.891-10.208 11.306-12.35 28.618-5.095 41.164 4.15 7.176 11.774 12.679 20.394 14.72 8.095 1.916 16.072.658 22.461-3.542 3.461-2.276 4.422-6.926 2.147-10.387-2.276-3.461-6.926-4.421-10.387-2.147-2.905 1.91-6.729 2.435-10.765 1.48-4.61-1.091-8.773-4.016-10.864-7.632-4.021-6.953-2.627-17.099 3.244-23.602 5.772-6.393 15.623-9.58 25.103-8.118 11.305 1.743 21.722 9.879 25.332 19.785 4.647 12.755 3.173 25.46-4.381 37.762-12.913 21.027-39.913 34.788-58.763 37.06-12.311 1.485-30.925 1.022-65.867-15.863-3.73-1.802-8.214-.24-10.016 3.49s-.24 8.214 3.49 10.016c17.665 8.536 40.294 17.853 63.959 17.853 3.392 0 6.806-.191 10.229-.604 22.897-2.76 54.209-18.795 69.75-44.103 9.928-16.169 11.897-33.716 5.692-50.747z"/><path d="m229.389 154.925c14.107 4.08 19.367 9.34 23.447 23.447 1.579 5.459 6.469 9.126 12.169 9.126s10.591-3.667 12.169-9.126c4.08-14.107 9.34-19.367 23.447-23.447 5.459-1.579 9.126-6.469 9.126-12.169s-3.667-10.591-9.126-12.17c-14.108-4.08-19.367-9.34-23.447-23.447-1.579-5.459-6.469-9.126-12.169-9.126s-10.591 3.668-12.169 9.126c-4.081 14.107-9.34 19.367-23.447 23.447-5.459 1.579-9.126 6.469-9.126 12.17 0 5.7 3.667 10.59 9.126 12.169zm35.616-36.947c4.887 12.519 12.258 19.891 24.778 24.778-12.52 4.887-19.891 12.259-24.778 24.777-4.888-12.521-12.258-19.89-24.778-24.778 12.521-4.887 19.89-12.256 24.778-24.777z"/><path d="m303.873 57.408c14.107 4.08 19.367 9.34 23.447 23.447 1.579 5.459 6.469 9.126 12.169 9.126s10.591-3.667 12.169-9.126c4.08-14.107 9.34-19.367 23.447-23.447 5.459-1.579 9.126-6.469 9.126-12.169s-3.667-10.591-9.126-12.17c-14.108-4.08-19.367-9.34-23.447-23.446-1.579-5.459-6.469-9.127-12.169-9.127s-10.591 3.668-12.169 9.127c-4.081 14.107-9.34 19.366-23.447 23.446-5.459 1.579-9.126 6.469-9.126 12.17.001 5.699 3.668 10.59 9.126 12.169zm35.617-36.947c4.887 12.519 12.258 19.891 24.778 24.778-12.52 4.887-19.891 12.259-24.778 24.777-4.888-12.521-12.258-19.89-24.778-24.778 12.52-4.887 19.89-12.256 24.778-24.777z"/></g></g></svg>