<svg id="Capa_1" enable-background="new 0 0 512 512" height="512" viewBox="0 0 512 512" width="512" xmlns="http://www.w3.org/2000/svg"><g><g><path d="m474.874 89.672h-8.276c-6.439-31.642-34.424-55.453-67.965-55.453s-61.526 23.811-67.965 55.453c-.91 4.495-1.391 9.141-1.391 13.903 0 17.337 6.359 33.184 16.873 45.34h128.725c8.178 0 15.589-3.318 20.949-8.677 5.36-5.36 8.677-12.762 8.677-20.949-.001-16.356-13.271-29.617-29.627-29.617z" fill="#ddebfd"/><path d="m454.82 249.697c-6.836-6.836-16.29-11.066-26.715-11.066h-53.622c6.378-15.544 9.961-32.537 10.121-50.341.669-74.813-60.029-136.568-134.844-137.129-73.704-.553-133.951 57.557-136.831 130.419-.1 2.52-2.171 4.509-4.693 4.509-10.755.002-36.689.004-36.689.004-35.372 0-64.047 28.675-64.047 64.046s28.675 64.046 64.047 64.046h355.946c20.547 0 37.807-16.16 38.378-36.698.302-10.85-3.981-20.72-11.051-27.79z" fill="#ddebfd"/><path d="m454.82 249.697c-6.836-6.836-16.29-11.066-26.715-11.066h-34.115c10.425 0 19.879 4.23 26.715 11.066 7.07 7.07 11.353 16.94 11.051 27.79-.571 20.539-17.831 36.698-38.378 36.698h34.115c20.547 0 37.807-16.16 38.378-36.698.302-10.85-3.981-20.72-11.051-27.79z" fill="#bed9fd"/><path d="m350.488 188.29c-.145 16.171-3.114 31.673-8.437 46.029-.776 2.092.766 4.312 2.997 4.312h29.434c6.378-15.544 9.961-32.537 10.121-50.341.669-74.813-60.029-136.568-134.844-137.129-6.152-.046-12.207.325-18.146 1.071 67.291 8.488 119.496 66.647 118.875 136.058z" fill="#bed9fd"/><path d="m297.974 144.893h-65.894c-5.811 0-9.747 5.917-7.502 11.277l32.007 76.4c1.612 3.848-1.444 8.032-5.6 7.666l-51.213-4.509c-3.958-.348-6.987 3.457-5.76 7.236l33.621 103.52c1.27 3.912-2.011 7.796-6.08 7.198l-33.61-4.94c-4.768-.701-8.098 4.595-5.401 8.588l77.243 114.402c2.063 3.056 6.821.916 5.904-2.656l-16.722-65.072c-.986-3.838 2.256-7.442 6.176-6.866l37.791 5.554c4.069.598 7.35-3.287 6.08-7.198l-33.622-103.52c-1.227-3.779 1.802-7.584 5.76-7.236l53.236 4.687c3.609.318 6.549-2.855 5.956-6.43l-21.344-128.753c-.893-5.392-5.558-9.348-11.026-9.348z" fill="#ebb34c"/><g fill="#e9a52d"><path d="m330.345 282.996-21.344-128.753c-.894-5.394-5.559-9.35-11.027-9.35h-19.953c3.768 1.271 6.69 4.499 7.431 8.6l23.202 128.431c.447 2.474-.81 4.776-2.827 5.867l18.562 1.634c3.61.318 6.549-2.855 5.956-6.429z"/><path d="m265.393 291.974c-.776-2.39.153-4.787 1.94-6.141l-17.84-1.311c-3.963-.291-6.937 3.557-5.655 7.318l35.114 103.024c.711 2.087.107 4.179-1.228 5.593l15.211 2.236c4.069.598 7.35-3.287 6.08-7.198z"/><path d="m248.967 404.004c-.469-1.825.025-3.591 1.087-4.886l-14.945-1.976c-3.929-.52-7.118 3.131-6.076 6.954l10.088 37.03 20.664 30.605c2.063 3.056 6.821.916 5.904-2.656z"/></g><g fill="#6cbff8"><path d="m452.509 381.299c0 12.368-10.026 22.393-22.393 22.393-12.368 0-22.393-10.026-22.393-22.393 0-17.281 18.605-37.114 22.393-37.114s22.393 19.833 22.393 37.114z"/><path d="m379.545 455.388c0 12.368-10.026 22.393-22.393 22.393-12.368 0-22.393-10.026-22.393-22.393 0-17.281 18.605-37.114 22.393-37.114s22.393 19.833 22.393 37.114z"/><path d="m59.491 381.299c0 12.368 10.026 22.393 22.393 22.393s22.393-10.026 22.393-22.393c0-17.281-18.605-37.114-22.393-37.114s-22.393 19.833-22.393 37.114z"/><path d="m132.455 455.388c0 12.368 10.026 22.393 22.393 22.393s22.393-10.026 22.393-22.393c0-17.281-18.605-37.114-22.393-37.114s-22.393 19.833-22.393 37.114z"/></g></g><g><path d="m474.87 82.169h-2.398c-9.404-32.474-39.525-55.45-73.842-55.45-29.095 0-55.029 16.279-68.46 42.233-59.073-41.095-143.478-32.165-192.209 26.999-2.634 3.197-2.177 7.924 1.021 10.557s7.926 2.178 10.558-1.021c54.674-66.378 157.912-61.594 205.979 10.681 23.874 35.898 28.025 80.117 12.231 119.089-.071.174-.134.349-.206.523 0 .001-.001.003-.001.004-3.337 8.121-7.531 15.93-12.468 23.212-2.324 3.428-1.429 8.092 1.999 10.417 3.415 2.313 8.082 1.445 10.417-2 4.566-6.734 8.553-13.877 11.909-21.285h48.7c8.089 0 15.695 3.151 21.417 8.873 5.944 5.944 9.089 13.856 8.856 22.279-.45 16.21-14.304 29.398-30.883 29.398h-149.435l-4.616-14.211 50.291 4.428c4.042.352 7.951-1.148 10.713-4.129s3.965-6.989 3.302-10.999l-21.346-128.753c-1.501-9.052-9.25-15.623-18.426-15.623h-65.893c-5.245 0-10.11 2.607-13.016 6.974s-3.431 9.862-1.403 14.701l30.755 73.412-47.986-4.225c-4.379-.386-8.617 1.436-11.351 4.87-2.734 3.435-3.557 7.979-2.2 12.154l19.942 61.401h-135.271c-31.182 0-56.55-25.364-56.55-56.54 0-31.182 25.368-56.55 56.55-56.55h36.69c6.572 0 11.924-5.146 12.184-11.715.667-16.949 4.592-33.307 11.665-48.62 1.737-3.76.097-8.216-3.663-9.954-3.761-1.737-8.217-.097-9.954 3.664-7.53 16.3-11.867 33.654-12.905 51.625h-34.017c-39.453 0-71.55 32.097-71.55 71.55 0 39.447 32.097 71.54 71.55 71.54h140.143l7.834 24.122-30.492-4.481c-5.118-.752-10.191 1.588-12.94 5.962-2.749 4.373-2.658 9.964.232 14.243l77.242 114.402c2.986 4.423 8.48 5.997 13.361 3.801 4.876-2.192 7.353-7.34 6.022-12.52l-15.989-62.222 34.881 5.126c9.584 1.407 17.29-7.742 14.303-16.935l-5.586-17.2c-1.278-3.94-5.508-6.097-9.449-4.817-3.939 1.279-6.097 5.51-4.816 9.45l4.612 14.203-34.674-5.096c-4.328-.635-8.666.926-11.595 4.182-2.928 3.255-4.025 7.73-2.936 11.971l10.652 41.455-61.117-90.52 29.224 4.295c4.499.658 8.931-1.018 11.861-4.488 2.933-3.471 3.846-8.124 2.442-12.448l-32.709-100.708 48.269 4.25c9.785.868 16.967-8.99 13.176-18.035l-32.006-76.399c-.04-.094-.132-.314.057-.597.188-.283.426-.283.527-.283h65.894c1.807 0 3.333 1.294 3.628 3.076l20.933 126.264-50.724-4.466c-4.372-.379-8.616 1.438-11.351 4.871-2.733 3.435-3.556 7.978-2.199 12.153l17.224 53.031c1.279 3.941 5.515 6.096 9.449 4.816 3.939-1.28 6.097-5.511 4.816-9.45l-6.823-21.008h144.564c24.623 0 45.203-19.73 45.877-43.983.348-12.585-4.355-24.412-13.243-33.3-8.556-8.555-19.929-13.267-32.024-13.267h-42.87c6.367-19.491 8.406-39.607 6.063-59.947-.572-4.959-1.427-9.89-2.525-14.773h86.102c9.922 0 19.245-3.859 26.254-10.867 7.014-7.014 10.876-16.338 10.876-26.253 0-20.467-16.656-37.119-37.13-37.119zm15.648 52.767c-4.175 4.175-9.732 6.474-15.647 6.474h-90.278c-7.95-23.557-22.161-45.571-42.336-63.07 10.46-22.411 32.067-36.62 56.374-36.62 29.295 0 54.789 20.795 60.62 49.446.711 3.494 3.784 6.004 7.35 6.004h8.271c12.202 0 22.13 9.923 22.13 22.12-.002 5.908-2.305 11.465-6.484 15.646z"/><path d="m430.115 336.684c-9.163 0-29.894 24.365-29.894 44.614 0 16.483 13.41 29.894 29.894 29.894s29.894-13.41 29.894-29.894c0-20.416-20.811-44.614-29.894-44.614zm0 59.507c-8.212 0-14.894-6.681-14.894-14.894 0-10.707 9.79-23.451 14.894-28.276 5.104 4.826 14.894 17.569 14.894 28.276 0 8.213-6.682 14.894-14.894 14.894z"/><path d="m357.151 410.773c-9.163 0-29.894 24.365-29.894 44.614 0 16.483 13.41 29.894 29.894 29.894s29.894-13.41 29.894-29.894c0-20.416-20.811-44.614-29.894-44.614zm0 59.508c-8.212 0-14.894-6.681-14.894-14.894 0-10.707 9.79-23.451 14.894-28.276 5.104 4.826 14.894 17.569 14.894 28.276 0 8.213-6.682 14.894-14.894 14.894z"/><path d="m81.885 336.684c-9.163 0-29.894 24.365-29.894 44.614 0 16.483 13.41 29.894 29.894 29.894s29.894-13.41 29.894-29.894c-.001-20.416-20.812-44.614-29.894-44.614zm0 59.507c-8.212 0-14.894-6.681-14.894-14.894 0-10.707 9.79-23.451 14.894-28.276 5.104 4.826 14.894 17.569 14.894 28.276-.001 8.213-6.682 14.894-14.894 14.894z"/><path d="m154.849 410.773c-9.163 0-29.894 24.365-29.894 44.614 0 16.483 13.41 29.894 29.894 29.894s29.894-13.41 29.894-29.894c-.001-20.416-20.812-44.614-29.894-44.614zm0 59.508c-8.212 0-14.894-6.681-14.894-14.894 0-10.707 9.79-23.451 14.894-28.276 5.104 4.826 14.894 17.569 14.894 28.276-.001 8.213-6.682 14.894-14.894 14.894z"/></g></g></svg>